%TF.GenerationSoftware,Altium Limited,Altium Designer,23.0.1 (38)*%
G04 Layer_Color=8388736*
%FSLAX45Y45*%
%MOMM*%
%TF.SameCoordinates,101474F7-9C50-4871-B5BA-03F38F38C57F*%
%TF.FilePolarity,Negative*%
%TF.FileFunction,Soldermask,Top*%
%TF.Part,Single*%
G01*
G75*
%TA.AperFunction,SMDPad,CuDef*%
%ADD10C,1.00000*%
%TA.AperFunction,ComponentPad*%
%ADD63C,1.90000*%
%TA.AperFunction,SMDPad,CuDef*%
%ADD75R,2.40320X2.50320*%
%ADD76R,0.80320X1.60320*%
%ADD77R,0.80320X1.70320*%
%ADD78R,3.00820X0.76820*%
%ADD79R,4.61320X3.74820*%
%ADD80R,1.85320X3.62320*%
G04:AMPARAMS|DCode=81|XSize=0.6132mm|YSize=1.0232mm|CornerRadius=0mm|HoleSize=0mm|Usage=FLASHONLY|Rotation=270.000|XOffset=0mm|YOffset=0mm|HoleType=Round|Shape=RoundedRectangle|*
%AMROUNDEDRECTD81*
21,1,0.61320,1.02320,0,0,270.0*
21,1,0.61320,1.02320,0,0,270.0*
1,1,0.00000,-0.51160,-0.30660*
1,1,0.00000,-0.51160,0.30660*
1,1,0.00000,0.51160,0.30660*
1,1,0.00000,0.51160,-0.30660*
%
%ADD81ROUNDEDRECTD81*%
G04:AMPARAMS|DCode=82|XSize=0.7982mm|YSize=0.8132mm|CornerRadius=0mm|HoleSize=0mm|Usage=FLASHONLY|Rotation=270.000|XOffset=0mm|YOffset=0mm|HoleType=Round|Shape=RoundedRectangle|*
%AMROUNDEDRECTD82*
21,1,0.79820,0.81320,0,0,270.0*
21,1,0.79820,0.81320,0,0,270.0*
1,1,0.00000,-0.40660,-0.39910*
1,1,0.00000,-0.40660,0.39910*
1,1,0.00000,0.40660,0.39910*
1,1,0.00000,0.40660,-0.39910*
%
%ADD82ROUNDEDRECTD82*%
G04:AMPARAMS|DCode=83|XSize=4.2642mm|YSize=3.8332mm|CornerRadius=0mm|HoleSize=0mm|Usage=FLASHONLY|Rotation=270.000|XOffset=0mm|YOffset=0mm|HoleType=Round|Shape=RoundedRectangle|*
%AMROUNDEDRECTD83*
21,1,4.26420,3.83320,0,0,270.0*
21,1,4.26420,3.83320,0,0,270.0*
1,1,0.00000,-1.91660,-2.13210*
1,1,0.00000,-1.91660,2.13210*
1,1,0.00000,1.91660,2.13210*
1,1,0.00000,1.91660,-2.13210*
%
%ADD83ROUNDEDRECTD83*%
G04:AMPARAMS|DCode=84|XSize=5.2032mm|YSize=0.7132mm|CornerRadius=0.1271mm|HoleSize=0mm|Usage=FLASHONLY|Rotation=270.000|XOffset=0mm|YOffset=0mm|HoleType=Round|Shape=RoundedRectangle|*
%AMROUNDEDRECTD84*
21,1,5.20320,0.45900,0,0,270.0*
21,1,4.94900,0.71320,0,0,270.0*
1,1,0.25420,-0.22950,-2.47450*
1,1,0.25420,-0.22950,2.47450*
1,1,0.25420,0.22950,2.47450*
1,1,0.25420,0.22950,-2.47450*
%
%ADD84ROUNDEDRECTD84*%
%ADD85R,2.34980X4.33100*%
%ADD86R,0.39400X0.85120*%
%ADD87R,0.85120X0.39400*%
%ADD88R,2.70320X5.60320*%
%ADD89R,1.11320X1.42320*%
%ADD90R,3.70320X5.60320*%
%ADD91R,0.90320X1.10320*%
%TA.AperFunction,ComponentPad*%
%ADD92C,5.20320*%
G36*
X-2796640Y2993177D02*
X-2795311Y2993090D01*
X-2794004Y2992830D01*
X-2792743Y2992402D01*
X-2791549Y2991813D01*
X-2790441Y2991073D01*
X-2789440Y2990195D01*
X-2763640Y2964395D01*
X-2762762Y2963394D01*
X-2762022Y2962287D01*
X-2761433Y2961092D01*
X-2761005Y2959831D01*
X-2760745Y2958525D01*
X-2760658Y2957196D01*
Y2867996D01*
X-2760745Y2866667D01*
X-2761005Y2865361D01*
X-2761433Y2864099D01*
X-2762022Y2862905D01*
X-2762762Y2861797D01*
X-2763640Y2860796D01*
X-2764642Y2859918D01*
X-2765749Y2859178D01*
X-2766944Y2858589D01*
X-2768205Y2858161D01*
X-2769511Y2857901D01*
X-2770840Y2857814D01*
X-2950840D01*
X-2952169Y2857901D01*
X-2953475Y2858161D01*
X-2954737Y2858589D01*
X-2955931Y2859178D01*
X-2957039Y2859918D01*
X-2958040Y2860796D01*
X-2958918Y2861797D01*
X-2959658Y2862905D01*
X-2960247Y2864099D01*
X-2960675Y2865361D01*
X-2960935Y2866667D01*
X-2961022Y2867996D01*
Y2957196D01*
X-2960935Y2958524D01*
X-2960675Y2959831D01*
X-2960247Y2961092D01*
X-2959658Y2962286D01*
X-2958918Y2963394D01*
X-2958040Y2964395D01*
X-2932240Y2990195D01*
X-2931238Y2991074D01*
X-2930131Y2991813D01*
X-2928936Y2992403D01*
X-2927675Y2992831D01*
X-2926369Y2993091D01*
X-2925040Y2993178D01*
X-2925040D01*
D01*
X-2796640Y2993177D01*
D02*
G37*
G36*
X-3063340D02*
X-3062011Y2993090D01*
X-3060704Y2992830D01*
X-3059443Y2992402D01*
X-3058249Y2991813D01*
X-3057141Y2991073D01*
X-3056140Y2990195D01*
X-3030340Y2964395D01*
X-3029462Y2963394D01*
X-3028722Y2962287D01*
X-3028133Y2961092D01*
X-3027705Y2959831D01*
X-3027445Y2958525D01*
X-3027358Y2957196D01*
Y2867996D01*
X-3027445Y2866667D01*
X-3027705Y2865361D01*
X-3028133Y2864099D01*
X-3028722Y2862905D01*
X-3029462Y2861797D01*
X-3030340Y2860796D01*
X-3031342Y2859918D01*
X-3032449Y2859178D01*
X-3033644Y2858589D01*
X-3034905Y2858161D01*
X-3036211Y2857901D01*
X-3037540Y2857814D01*
X-3217540D01*
X-3218869Y2857901D01*
X-3220175Y2858161D01*
X-3221437Y2858589D01*
X-3222631Y2859178D01*
X-3223739Y2859918D01*
X-3224740Y2860796D01*
X-3225618Y2861797D01*
X-3226358Y2862905D01*
X-3226947Y2864099D01*
X-3227375Y2865361D01*
X-3227635Y2866667D01*
X-3227722Y2867996D01*
Y2957196D01*
X-3227635Y2958524D01*
X-3227375Y2959831D01*
X-3226947Y2961092D01*
X-3226358Y2962286D01*
X-3225618Y2963394D01*
X-3224740Y2964395D01*
X-3198940Y2990195D01*
X-3197938Y2991074D01*
X-3196831Y2991813D01*
X-3195636Y2992403D01*
X-3194375Y2992831D01*
X-3193069Y2993091D01*
X-3191740Y2993178D01*
X-3191740D01*
D01*
X-3063340Y2993177D01*
D02*
G37*
G36*
X-4256624Y2982549D02*
X-4255295Y2982462D01*
X-4253988Y2982202D01*
X-4252727Y2981774D01*
X-4251533Y2981185D01*
X-4250425Y2980445D01*
X-4249424Y2979567D01*
X-4223625Y2953768D01*
X-4222746Y2952766D01*
X-4222007Y2951659D01*
X-4221417Y2950465D01*
X-4220989Y2949203D01*
X-4220729Y2947897D01*
X-4220642Y2946568D01*
Y2857368D01*
X-4220729Y2856039D01*
X-4220989Y2854733D01*
X-4221417Y2853472D01*
X-4222007Y2852277D01*
X-4222746Y2851170D01*
X-4223625Y2850168D01*
X-4224626Y2849290D01*
X-4225733Y2848550D01*
X-4226928Y2847961D01*
X-4228189Y2847533D01*
X-4229495Y2847273D01*
X-4230824Y2847186D01*
X-4410824D01*
X-4412153Y2847273D01*
X-4413460Y2847533D01*
X-4414721Y2847961D01*
X-4415915Y2848550D01*
X-4417023Y2849290D01*
X-4418024Y2850168D01*
X-4418902Y2851170D01*
X-4419642Y2852277D01*
X-4420231Y2853472D01*
X-4420659Y2854733D01*
X-4420919Y2856039D01*
X-4421006Y2857368D01*
Y2946568D01*
X-4420919Y2947897D01*
X-4420659Y2949203D01*
X-4420231Y2950464D01*
X-4419642Y2951659D01*
X-4418902Y2952766D01*
X-4418024Y2953767D01*
X-4392224Y2979568D01*
X-4391223Y2980446D01*
X-4390115Y2981186D01*
X-4388921Y2981775D01*
X-4387659Y2982203D01*
X-4386353Y2982463D01*
X-4385025Y2982550D01*
D01*
X-4385024D01*
X-4256624Y2982549D01*
D02*
G37*
G36*
X-4497924D02*
X-4496595Y2982462D01*
X-4495288Y2982202D01*
X-4494027Y2981774D01*
X-4492833Y2981185D01*
X-4491725Y2980445D01*
X-4490724Y2979567D01*
X-4464925Y2953768D01*
X-4464046Y2952766D01*
X-4463307Y2951659D01*
X-4462717Y2950465D01*
X-4462289Y2949203D01*
X-4462029Y2947897D01*
X-4461942Y2946568D01*
Y2857368D01*
X-4462029Y2856039D01*
X-4462289Y2854733D01*
X-4462717Y2853472D01*
X-4463307Y2852277D01*
X-4464046Y2851170D01*
X-4464925Y2850168D01*
X-4465926Y2849290D01*
X-4467033Y2848550D01*
X-4468228Y2847961D01*
X-4469489Y2847533D01*
X-4470795Y2847273D01*
X-4472124Y2847186D01*
X-4652124D01*
X-4653453Y2847273D01*
X-4654760Y2847533D01*
X-4656021Y2847961D01*
X-4657215Y2848550D01*
X-4658323Y2849290D01*
X-4659324Y2850168D01*
X-4660202Y2851170D01*
X-4660942Y2852277D01*
X-4661531Y2853472D01*
X-4661959Y2854733D01*
X-4662219Y2856039D01*
X-4662306Y2857368D01*
Y2946568D01*
X-4662219Y2947897D01*
X-4661959Y2949203D01*
X-4661531Y2950464D01*
X-4660942Y2951659D01*
X-4660202Y2952766D01*
X-4659324Y2953767D01*
X-4633524Y2979568D01*
X-4632523Y2980446D01*
X-4631415Y2981186D01*
X-4630221Y2981775D01*
X-4628959Y2982203D01*
X-4627653Y2982463D01*
X-4626325Y2982550D01*
D01*
X-4626324D01*
X-4497924Y2982549D01*
D02*
G37*
G36*
X-4739224D02*
X-4737895Y2982462D01*
X-4736588Y2982202D01*
X-4735327Y2981774D01*
X-4734133Y2981185D01*
X-4733025Y2980445D01*
X-4732024Y2979567D01*
X-4706225Y2953768D01*
X-4705346Y2952766D01*
X-4704607Y2951659D01*
X-4704017Y2950465D01*
X-4703589Y2949203D01*
X-4703329Y2947897D01*
X-4703242Y2946568D01*
Y2857368D01*
X-4703329Y2856039D01*
X-4703589Y2854733D01*
X-4704017Y2853472D01*
X-4704607Y2852277D01*
X-4705346Y2851170D01*
X-4706225Y2850168D01*
X-4707226Y2849290D01*
X-4708333Y2848550D01*
X-4709528Y2847961D01*
X-4710789Y2847533D01*
X-4712095Y2847273D01*
X-4713424Y2847186D01*
X-4893424D01*
X-4894753Y2847273D01*
X-4896060Y2847533D01*
X-4897321Y2847961D01*
X-4898515Y2848550D01*
X-4899623Y2849290D01*
X-4900624Y2850168D01*
X-4901502Y2851170D01*
X-4902242Y2852277D01*
X-4902831Y2853472D01*
X-4903259Y2854733D01*
X-4903519Y2856039D01*
X-4903606Y2857368D01*
Y2946568D01*
X-4903519Y2947897D01*
X-4903259Y2949203D01*
X-4902831Y2950464D01*
X-4902242Y2951659D01*
X-4901502Y2952766D01*
X-4900624Y2953767D01*
X-4874824Y2979568D01*
X-4873823Y2980446D01*
X-4872715Y2981186D01*
X-4871521Y2981775D01*
X-4870259Y2982203D01*
X-4868953Y2982463D01*
X-4867625Y2982550D01*
D01*
X-4867624D01*
X-4739224Y2982549D01*
D02*
G37*
G36*
X-4980524D02*
X-4979195Y2982462D01*
X-4977888Y2982202D01*
X-4976627Y2981774D01*
X-4975433Y2981185D01*
X-4974325Y2980445D01*
X-4973324Y2979567D01*
X-4947525Y2953768D01*
X-4946646Y2952766D01*
X-4945907Y2951659D01*
X-4945317Y2950465D01*
X-4944889Y2949203D01*
X-4944629Y2947897D01*
X-4944542Y2946568D01*
Y2857368D01*
X-4944629Y2856039D01*
X-4944889Y2854733D01*
X-4945317Y2853472D01*
X-4945907Y2852277D01*
X-4946646Y2851170D01*
X-4947525Y2850168D01*
X-4948526Y2849290D01*
X-4949633Y2848550D01*
X-4950828Y2847961D01*
X-4952089Y2847533D01*
X-4953395Y2847273D01*
X-4954724Y2847186D01*
X-5134724D01*
X-5136053Y2847273D01*
X-5137360Y2847533D01*
X-5138621Y2847961D01*
X-5139815Y2848550D01*
X-5140923Y2849290D01*
X-5141924Y2850168D01*
X-5142802Y2851170D01*
X-5143542Y2852277D01*
X-5144131Y2853472D01*
X-5144559Y2854733D01*
X-5144819Y2856039D01*
X-5144906Y2857368D01*
Y2946568D01*
X-5144819Y2947897D01*
X-5144559Y2949203D01*
X-5144131Y2950464D01*
X-5143542Y2951659D01*
X-5142802Y2952766D01*
X-5141924Y2953767D01*
X-5116124Y2979568D01*
X-5115123Y2980446D01*
X-5114015Y2981186D01*
X-5112821Y2981775D01*
X-5111559Y2982203D01*
X-5110253Y2982463D01*
X-5108925Y2982550D01*
D01*
X-5108924D01*
X-4980524Y2982549D01*
D02*
G37*
G36*
X-5222340Y2980477D02*
X-5221011Y2980390D01*
X-5219704Y2980130D01*
X-5218443Y2979702D01*
X-5217249Y2979113D01*
X-5216141Y2978373D01*
X-5215140Y2977495D01*
X-5189340Y2951695D01*
X-5188462Y2950694D01*
X-5187722Y2949587D01*
X-5187133Y2948392D01*
X-5186705Y2947131D01*
X-5186445Y2945825D01*
X-5186358Y2944496D01*
Y2855296D01*
X-5186445Y2853967D01*
X-5186705Y2852661D01*
X-5187133Y2851399D01*
X-5187722Y2850205D01*
X-5188462Y2849097D01*
X-5189340Y2848096D01*
X-5190342Y2847218D01*
X-5191449Y2846478D01*
X-5192644Y2845889D01*
X-5193905Y2845461D01*
X-5195211Y2845201D01*
X-5196540Y2845114D01*
X-5376540D01*
X-5377869Y2845201D01*
X-5379175Y2845461D01*
X-5380437Y2845889D01*
X-5381631Y2846478D01*
X-5382739Y2847218D01*
X-5383740Y2848096D01*
X-5384618Y2849097D01*
X-5385358Y2850205D01*
X-5385947Y2851399D01*
X-5386375Y2852661D01*
X-5386635Y2853967D01*
X-5386722Y2855296D01*
Y2944496D01*
X-5386635Y2945824D01*
X-5386375Y2947131D01*
X-5385947Y2948392D01*
X-5385358Y2949586D01*
X-5384618Y2950694D01*
X-5383740Y2951695D01*
X-5357940Y2977495D01*
X-5356938Y2978374D01*
X-5355831Y2979113D01*
X-5354636Y2979703D01*
X-5353375Y2980131D01*
X-5352069Y2980391D01*
X-5350740Y2980478D01*
X-5350740D01*
D01*
X-5222340Y2980477D01*
D02*
G37*
G36*
X-2542124Y3089450D02*
X-2540795Y3089363D01*
X-2539489Y3089103D01*
X-2538228Y3088675D01*
X-2537033Y3088086D01*
X-2535926Y3087346D01*
X-2534925Y3086468D01*
X-2509125Y3060667D01*
X-2508246Y3059666D01*
X-2507506Y3058559D01*
X-2506917Y3057364D01*
X-2506489Y3056103D01*
X-2506229Y3054797D01*
X-2506142Y3053468D01*
Y2964268D01*
X-2506229Y2962939D01*
X-2506489Y2961633D01*
X-2506917Y2960372D01*
X-2507507Y2959177D01*
X-2508246Y2958070D01*
X-2509125Y2957068D01*
X-2510126Y2956190D01*
X-2511233Y2955450D01*
X-2512428Y2954861D01*
X-2513689Y2954433D01*
X-2514995Y2954173D01*
X-2516324Y2954086D01*
X-2696324D01*
X-2697653Y2954173D01*
X-2698960Y2954433D01*
X-2700221Y2954861D01*
X-2701415Y2955450D01*
X-2702523Y2956190D01*
X-2703524Y2957068D01*
X-2704402Y2958070D01*
X-2705142Y2959177D01*
X-2705731Y2960372D01*
X-2706159Y2961633D01*
X-2706419Y2962939D01*
X-2706506Y2964268D01*
X-2706506Y3053467D01*
D01*
D01*
Y3053468D01*
X-2706419Y3054797D01*
X-2706159Y3056103D01*
X-2705731Y3057364D01*
X-2705142Y3058558D01*
X-2704897Y3058926D01*
X-2704402Y3059666D01*
X-2703992Y3060134D01*
X-2703524Y3060667D01*
X-2677724Y3086468D01*
X-2676723Y3087346D01*
X-2675615Y3088086D01*
X-2674421Y3088675D01*
X-2673160Y3089103D01*
X-2671853Y3089363D01*
X-2670525Y3089450D01*
X-2542124Y3089450D01*
D02*
G37*
G36*
X-1170524Y3084150D02*
X-1169195Y3084063D01*
X-1167889Y3083803D01*
X-1166628Y3083375D01*
X-1165433Y3082786D01*
X-1164326Y3082046D01*
X-1163325Y3081168D01*
X-1137525Y3055368D01*
X-1136646Y3054366D01*
X-1135906Y3053259D01*
X-1135317Y3052064D01*
X-1134889Y3050803D01*
X-1134629Y3049497D01*
X-1134542Y3048168D01*
Y2958968D01*
X-1134629Y2957639D01*
X-1134889Y2956333D01*
X-1135317Y2955072D01*
X-1135907Y2953877D01*
X-1136646Y2952770D01*
X-1137525Y2951768D01*
X-1138526Y2950890D01*
X-1139633Y2950150D01*
X-1140828Y2949561D01*
X-1142089Y2949133D01*
X-1143395Y2948873D01*
X-1144724Y2948786D01*
X-1324724D01*
X-1326053Y2948873D01*
X-1327360Y2949133D01*
X-1328621Y2949561D01*
X-1329815Y2950150D01*
X-1330923Y2950890D01*
X-1331924Y2951768D01*
X-1332802Y2952770D01*
X-1333542Y2953877D01*
X-1334131Y2955072D01*
X-1334559Y2956333D01*
X-1334819Y2957639D01*
X-1334906Y2958968D01*
X-1334906Y3048167D01*
D01*
D01*
Y3048168D01*
X-1334819Y3049497D01*
X-1334559Y3050803D01*
X-1334131Y3052064D01*
X-1333542Y3053258D01*
X-1333297Y3053626D01*
X-1332802Y3054366D01*
X-1332392Y3054834D01*
X-1331924Y3055367D01*
X-1306124Y3081168D01*
X-1305123Y3082046D01*
X-1304015Y3082786D01*
X-1302821Y3083375D01*
X-1301560Y3083803D01*
X-1300253Y3084063D01*
X-1298925Y3084150D01*
X-1170524Y3084150D01*
D02*
G37*
G36*
X-800511Y3019195D02*
X-799205Y3018935D01*
X-797944Y3018507D01*
X-796749Y3017918D01*
X-795642Y3017178D01*
X-794641Y3016300D01*
X-779700Y3001359D01*
X-778822Y3000358D01*
X-778082Y2999250D01*
X-777493Y2998056D01*
X-777065Y2996795D01*
X-776805Y2995489D01*
X-776718Y2994160D01*
Y2924040D01*
X-776805Y2922711D01*
X-777065Y2921405D01*
X-777493Y2920144D01*
X-778082Y2918949D01*
X-778822Y2917842D01*
X-779700Y2916840D01*
X-794641Y2901900D01*
X-795642Y2901022D01*
X-796749Y2900282D01*
X-797944Y2899693D01*
X-799205Y2899265D01*
X-800511Y2899005D01*
X-801840Y2898918D01*
X-881900D01*
X-883229Y2899005D01*
X-884535Y2899265D01*
X-885796Y2899693D01*
X-886991Y2900282D01*
X-888098Y2901022D01*
X-889100Y2901900D01*
X-889978Y2902901D01*
X-890718Y2904009D01*
X-891307Y2905203D01*
X-891735Y2906465D01*
X-891995Y2907771D01*
X-892082Y2909100D01*
Y3009100D01*
X-891995Y3010429D01*
X-891735Y3011735D01*
X-891307Y3012997D01*
X-890718Y3014191D01*
X-889978Y3015299D01*
X-889100Y3016300D01*
X-888098Y3017178D01*
X-886991Y3017918D01*
X-885796Y3018507D01*
X-884535Y3018935D01*
X-883229Y3019195D01*
X-881900Y3019282D01*
X-801840D01*
X-800511Y3019195D01*
D02*
G37*
G36*
X-945571D02*
X-944265Y3018935D01*
X-943004Y3018507D01*
X-941809Y3017918D01*
X-940702Y3017178D01*
X-939700Y3016300D01*
X-938822Y3015299D01*
X-938082Y3014191D01*
X-937493Y3012997D01*
X-937065Y3011735D01*
X-936805Y3010429D01*
X-936718Y3009100D01*
Y2909100D01*
X-936805Y2907771D01*
X-937065Y2906465D01*
X-937493Y2905203D01*
X-938082Y2904009D01*
X-938822Y2902901D01*
X-939700Y2901900D01*
X-940702Y2901022D01*
X-941809Y2900282D01*
X-943004Y2899693D01*
X-944265Y2899265D01*
X-945571Y2899005D01*
X-946900Y2898918D01*
X-1026960Y2898918D01*
X-1028289Y2899005D01*
X-1029595Y2899265D01*
X-1030856Y2899693D01*
X-1032051Y2900282D01*
X-1033158Y2901022D01*
X-1034159Y2901900D01*
X-1049100Y2916840D01*
X-1049978Y2917842D01*
X-1050718Y2918949D01*
X-1051307Y2920144D01*
X-1051735Y2921405D01*
X-1051995Y2922711D01*
X-1052082Y2924040D01*
Y2994160D01*
X-1051995Y2995489D01*
X-1051735Y2996795D01*
X-1051307Y2998056D01*
X-1050718Y2999251D01*
X-1049978Y3000358D01*
X-1049100Y3001359D01*
X-1034159Y3016300D01*
X-1033158Y3017178D01*
X-1032051Y3017918D01*
X-1030856Y3018507D01*
X-1029595Y3018935D01*
X-1028289Y3019195D01*
X-1026960Y3019282D01*
X-946900D01*
X-945571Y3019195D01*
D02*
G37*
G36*
X-5463124Y2982550D02*
X-5461795Y2982463D01*
X-5460489Y2982203D01*
X-5459228Y2981775D01*
X-5458033Y2981186D01*
X-5456926Y2980446D01*
X-5455925Y2979568D01*
X-5430125Y2953768D01*
X-5429246Y2952766D01*
X-5428506Y2951659D01*
X-5427917Y2950464D01*
X-5427489Y2949203D01*
X-5427229Y2947897D01*
X-5427142Y2946568D01*
Y2857368D01*
X-5427229Y2856039D01*
X-5427489Y2854733D01*
X-5427917Y2853472D01*
X-5428507Y2852277D01*
X-5429246Y2851170D01*
X-5430125Y2850168D01*
X-5431126Y2849290D01*
X-5432233Y2848550D01*
X-5433428Y2847961D01*
X-5434689Y2847533D01*
X-5435995Y2847273D01*
X-5437324Y2847186D01*
X-5617324D01*
X-5618653Y2847273D01*
X-5619960Y2847533D01*
X-5621221Y2847961D01*
X-5622415Y2848550D01*
X-5623523Y2849290D01*
X-5624524Y2850168D01*
X-5625402Y2851170D01*
X-5626142Y2852277D01*
X-5626731Y2853472D01*
X-5627159Y2854733D01*
X-5627419Y2856039D01*
X-5627506Y2857368D01*
X-5627506Y2946567D01*
D01*
D01*
Y2946568D01*
X-5627419Y2947897D01*
X-5627159Y2949203D01*
X-5626731Y2950464D01*
X-5626142Y2951658D01*
X-5625897Y2952026D01*
X-5625402Y2952766D01*
X-5624992Y2953234D01*
X-5624524Y2953767D01*
X-5598724Y2979568D01*
X-5597723Y2980446D01*
X-5596615Y2981186D01*
X-5595421Y2981775D01*
X-5594160Y2982203D01*
X-5592853Y2982463D01*
X-5591525Y2982550D01*
X-5463124Y2982550D01*
D02*
G37*
G36*
X-5913945Y2963463D02*
X-5912639Y2963203D01*
X-5911378Y2962775D01*
X-5910183Y2962186D01*
X-5909076Y2961446D01*
X-5908075Y2960568D01*
X-5889325Y2941818D01*
X-5888446Y2940816D01*
X-5887707Y2939709D01*
X-5887117Y2938515D01*
X-5886689Y2937253D01*
X-5886429Y2935947D01*
X-5886342Y2934618D01*
Y2732118D01*
X-5886429Y2730789D01*
X-5886689Y2729483D01*
X-5887117Y2728221D01*
X-5887706Y2727027D01*
X-5888446Y2725920D01*
X-5889325Y2724918D01*
X-5908075Y2706168D01*
X-5909076Y2705290D01*
X-5910183Y2704550D01*
X-5911378Y2703961D01*
X-5912639Y2703533D01*
X-5913945Y2703273D01*
X-5915274Y2703186D01*
X-6046524D01*
X-6047853Y2703273D01*
X-6049160Y2703533D01*
X-6050421Y2703961D01*
X-6051615Y2704550D01*
X-6052723Y2705290D01*
X-6053724Y2706168D01*
X-6054602Y2707170D01*
X-6055342Y2708277D01*
X-6055931Y2709472D01*
X-6056359Y2710733D01*
X-6056619Y2712039D01*
X-6056706Y2713368D01*
Y2953368D01*
X-6056619Y2954697D01*
X-6056359Y2956003D01*
X-6055931Y2957264D01*
X-6055342Y2958459D01*
X-6054602Y2959566D01*
X-6053724Y2960568D01*
X-6052723Y2961446D01*
X-6051615Y2962186D01*
X-6050421Y2962775D01*
X-6049160Y2963203D01*
X-6047853Y2963463D01*
X-6046524Y2963550D01*
X-5915274D01*
X-5913945Y2963463D01*
D02*
G37*
G36*
X-6175195D02*
X-6173889Y2963203D01*
X-6172628Y2962775D01*
X-6171433Y2962186D01*
X-6170326Y2961446D01*
X-6169324Y2960568D01*
X-6168446Y2959566D01*
X-6167706Y2958459D01*
X-6167117Y2957264D01*
X-6166689Y2956003D01*
X-6166429Y2954697D01*
X-6166342Y2953368D01*
Y2713368D01*
X-6166429Y2712039D01*
X-6166689Y2710733D01*
X-6167117Y2709472D01*
X-6167706Y2708277D01*
X-6168446Y2707170D01*
X-6169324Y2706168D01*
X-6170326Y2705290D01*
X-6171433Y2704550D01*
X-6172628Y2703961D01*
X-6173889Y2703533D01*
X-6175195Y2703273D01*
X-6176524Y2703186D01*
X-6307774D01*
X-6309103Y2703273D01*
X-6310410Y2703533D01*
X-6311671Y2703961D01*
X-6312865Y2704550D01*
X-6313973Y2705290D01*
X-6314974Y2706168D01*
X-6333724Y2724918D01*
X-6334602Y2725920D01*
X-6335342Y2727027D01*
X-6335931Y2728221D01*
X-6336359Y2729483D01*
X-6336619Y2730789D01*
X-6336706Y2732118D01*
Y2934618D01*
X-6336619Y2935947D01*
X-6336359Y2937253D01*
X-6335931Y2938515D01*
X-6335342Y2939709D01*
X-6334602Y2940816D01*
X-6333724Y2941818D01*
X-6314974Y2960568D01*
X-6313973Y2961446D01*
X-6312865Y2962186D01*
X-6311671Y2962775D01*
X-6310410Y2963203D01*
X-6309103Y2963463D01*
X-6307774Y2963550D01*
X-6176524D01*
X-6175195Y2963463D01*
D02*
G37*
G36*
X-2514995Y2799363D02*
X-2513689Y2799103D01*
X-2512428Y2798675D01*
X-2511233Y2798086D01*
X-2510126Y2797346D01*
X-2509125Y2796468D01*
X-2508246Y2795466D01*
X-2507507Y2794359D01*
X-2506917Y2793164D01*
X-2506489Y2791903D01*
X-2506229Y2790597D01*
X-2506142Y2789268D01*
Y2700068D01*
X-2506229Y2698739D01*
X-2506489Y2697433D01*
X-2506917Y2696172D01*
X-2507506Y2694977D01*
X-2508246Y2693870D01*
X-2509125Y2692869D01*
X-2534924Y2667068D01*
X-2535926Y2666190D01*
X-2537033Y2665450D01*
X-2538228Y2664861D01*
X-2539489Y2664433D01*
X-2540795Y2664173D01*
X-2542124Y2664086D01*
D01*
X-2542124D01*
X-2670525Y2664087D01*
X-2671854Y2664174D01*
X-2673160Y2664434D01*
X-2674421Y2664862D01*
X-2675616Y2665451D01*
X-2676723Y2666191D01*
X-2677724Y2667069D01*
X-2703524Y2692868D01*
X-2704402Y2693870D01*
X-2705142Y2694977D01*
X-2705731Y2696171D01*
X-2706159Y2697433D01*
X-2706419Y2698739D01*
X-2706506Y2700068D01*
Y2789268D01*
X-2706419Y2790597D01*
X-2706159Y2791903D01*
X-2705731Y2793164D01*
X-2705142Y2794359D01*
X-2704402Y2795466D01*
X-2703524Y2796468D01*
X-2702523Y2797346D01*
X-2701415Y2798086D01*
X-2700221Y2798675D01*
X-2698960Y2799103D01*
X-2697653Y2799363D01*
X-2696324Y2799450D01*
X-2516324D01*
X-2514995Y2799363D01*
D02*
G37*
G36*
X-1143395Y2794063D02*
X-1142089Y2793803D01*
X-1140828Y2793375D01*
X-1139633Y2792786D01*
X-1138526Y2792046D01*
X-1137525Y2791168D01*
X-1136646Y2790166D01*
X-1135907Y2789059D01*
X-1135317Y2787864D01*
X-1134889Y2786603D01*
X-1134629Y2785297D01*
X-1134542Y2783968D01*
Y2694768D01*
X-1134629Y2693439D01*
X-1134889Y2692133D01*
X-1135317Y2690872D01*
X-1135906Y2689677D01*
X-1136646Y2688570D01*
X-1137525Y2687569D01*
X-1163324Y2661768D01*
X-1164326Y2660890D01*
X-1165433Y2660150D01*
X-1166628Y2659561D01*
X-1167889Y2659133D01*
X-1169195Y2658873D01*
X-1170524Y2658786D01*
D01*
X-1170524D01*
X-1298925Y2658787D01*
X-1300254Y2658874D01*
X-1301560Y2659134D01*
X-1302821Y2659562D01*
X-1304016Y2660151D01*
X-1305123Y2660891D01*
X-1306124Y2661769D01*
X-1331924Y2687568D01*
X-1332802Y2688570D01*
X-1333542Y2689677D01*
X-1334131Y2690871D01*
X-1334559Y2692133D01*
X-1334819Y2693439D01*
X-1334906Y2694768D01*
Y2783968D01*
X-1334819Y2785297D01*
X-1334559Y2786603D01*
X-1334131Y2787864D01*
X-1333542Y2789059D01*
X-1332802Y2790166D01*
X-1331924Y2791168D01*
X-1330923Y2792046D01*
X-1329815Y2792786D01*
X-1328621Y2793375D01*
X-1327360Y2793803D01*
X-1326053Y2794063D01*
X-1324724Y2794150D01*
X-1144724D01*
X-1143395Y2794063D01*
D02*
G37*
G36*
X-3301972Y2709811D02*
X-3300665Y2709551D01*
X-3299404Y2709123D01*
X-3298210Y2708534D01*
X-3297102Y2707794D01*
X-3296101Y2706916D01*
X-3281160Y2691975D01*
X-3280282Y2690974D01*
X-3279542Y2689867D01*
X-3278953Y2688672D01*
X-3278525Y2687411D01*
X-3278265Y2686105D01*
X-3278178Y2684776D01*
Y2604716D01*
X-3278265Y2603387D01*
X-3278525Y2602081D01*
X-3278953Y2600820D01*
X-3279542Y2599625D01*
X-3280282Y2598518D01*
X-3281160Y2597516D01*
X-3282162Y2596638D01*
X-3283269Y2595898D01*
X-3284464Y2595309D01*
X-3285725Y2594881D01*
X-3287031Y2594621D01*
X-3288360Y2594534D01*
X-3388360D01*
X-3389689Y2594621D01*
X-3390996Y2594881D01*
X-3392257Y2595309D01*
X-3393451Y2595898D01*
X-3394559Y2596638D01*
X-3395560Y2597516D01*
X-3396438Y2598518D01*
X-3397178Y2599625D01*
X-3397767Y2600820D01*
X-3398195Y2602081D01*
X-3398455Y2603387D01*
X-3398542Y2604716D01*
X-3398542Y2684776D01*
X-3398455Y2686105D01*
X-3398195Y2687411D01*
X-3397767Y2688672D01*
X-3397178Y2689867D01*
X-3396438Y2690974D01*
X-3395560Y2691975D01*
X-3380620Y2706916D01*
X-3379618Y2707794D01*
X-3378511Y2708534D01*
X-3377316Y2709123D01*
X-3376055Y2709551D01*
X-3374749Y2709811D01*
X-3373420Y2709898D01*
X-3303300D01*
X-3301972Y2709811D01*
D02*
G37*
G36*
X-3451832Y2708531D02*
X-3450525Y2708271D01*
X-3449264Y2707843D01*
X-3448070Y2707254D01*
X-3446962Y2706514D01*
X-3445961Y2705636D01*
X-3431020Y2690695D01*
X-3430142Y2689694D01*
X-3429402Y2688587D01*
X-3428813Y2687392D01*
X-3428385Y2686131D01*
X-3428125Y2684825D01*
X-3428038Y2683496D01*
Y2603436D01*
X-3428125Y2602107D01*
X-3428385Y2600801D01*
X-3428813Y2599540D01*
X-3429402Y2598345D01*
X-3430142Y2597238D01*
X-3431020Y2596236D01*
X-3432022Y2595358D01*
X-3433129Y2594618D01*
X-3434324Y2594029D01*
X-3435585Y2593601D01*
X-3436891Y2593341D01*
X-3438220Y2593254D01*
X-3538220D01*
X-3539549Y2593341D01*
X-3540856Y2593601D01*
X-3542117Y2594029D01*
X-3543311Y2594618D01*
X-3544419Y2595358D01*
X-3545420Y2596236D01*
X-3546298Y2597238D01*
X-3547038Y2598345D01*
X-3547627Y2599540D01*
X-3548055Y2600801D01*
X-3548315Y2602107D01*
X-3548402Y2603436D01*
X-3548402Y2683496D01*
X-3548315Y2684825D01*
X-3548055Y2686131D01*
X-3547627Y2687392D01*
X-3547038Y2688587D01*
X-3546298Y2689694D01*
X-3545420Y2690695D01*
X-3530480Y2705636D01*
X-3529478Y2706514D01*
X-3528371Y2707254D01*
X-3527176Y2707843D01*
X-3525915Y2708271D01*
X-3524609Y2708531D01*
X-3523280Y2708618D01*
X-3453160D01*
X-3451832Y2708531D01*
D02*
G37*
G36*
X-3604231Y2708531D02*
X-3602925Y2708271D01*
X-3601664Y2707843D01*
X-3600469Y2707254D01*
X-3599362Y2706514D01*
X-3598361Y2705636D01*
X-3583420Y2690695D01*
X-3582542Y2689694D01*
X-3581802Y2688587D01*
X-3581213Y2687392D01*
X-3580785Y2686131D01*
X-3580525Y2684825D01*
X-3580438Y2683496D01*
Y2603436D01*
X-3580525Y2602107D01*
X-3580785Y2600801D01*
X-3581213Y2599540D01*
X-3581802Y2598345D01*
X-3582542Y2597238D01*
X-3583420Y2596236D01*
X-3584422Y2595358D01*
X-3585529Y2594618D01*
X-3586724Y2594029D01*
X-3587985Y2593601D01*
X-3589291Y2593341D01*
X-3590620Y2593254D01*
X-3690620D01*
X-3691949Y2593341D01*
X-3693256Y2593601D01*
X-3694517Y2594029D01*
X-3695711Y2594618D01*
X-3696819Y2595358D01*
X-3697820Y2596236D01*
X-3698698Y2597238D01*
X-3699438Y2598345D01*
X-3700027Y2599540D01*
X-3700455Y2600801D01*
X-3700715Y2602107D01*
X-3700802Y2603436D01*
Y2683496D01*
X-3700715Y2684825D01*
X-3700455Y2686131D01*
X-3700027Y2687392D01*
X-3699438Y2688587D01*
X-3698698Y2689694D01*
X-3697820Y2690695D01*
X-3682879Y2705636D01*
X-3681878Y2706514D01*
X-3680770Y2707254D01*
X-3679576Y2707843D01*
X-3678315Y2708271D01*
X-3677009Y2708531D01*
X-3675680Y2708618D01*
X-3605560D01*
X-3604231Y2708531D01*
D02*
G37*
G36*
X-3761712Y2708531D02*
X-3760405Y2708271D01*
X-3759144Y2707843D01*
X-3757950Y2707254D01*
X-3756842Y2706514D01*
X-3755841Y2705636D01*
X-3740900Y2690695D01*
X-3740022Y2689694D01*
X-3739282Y2688587D01*
X-3738693Y2687392D01*
X-3738265Y2686131D01*
X-3738005Y2684825D01*
X-3737918Y2683496D01*
Y2603436D01*
X-3738005Y2602107D01*
X-3738265Y2600801D01*
X-3738693Y2599540D01*
X-3739282Y2598345D01*
X-3740022Y2597238D01*
X-3740900Y2596236D01*
X-3741902Y2595358D01*
X-3743009Y2594618D01*
X-3744204Y2594029D01*
X-3745465Y2593601D01*
X-3746771Y2593341D01*
X-3748100Y2593254D01*
X-3848100D01*
X-3849429Y2593341D01*
X-3850736Y2593601D01*
X-3851997Y2594029D01*
X-3853191Y2594618D01*
X-3854299Y2595358D01*
X-3855300Y2596236D01*
X-3856178Y2597238D01*
X-3856918Y2598345D01*
X-3857507Y2599540D01*
X-3857935Y2600801D01*
X-3858195Y2602107D01*
X-3858282Y2603436D01*
X-3858282Y2683496D01*
X-3858195Y2684825D01*
X-3857935Y2686131D01*
X-3857507Y2687392D01*
X-3856918Y2688587D01*
X-3856178Y2689694D01*
X-3855300Y2690695D01*
X-3840360Y2705636D01*
X-3839358Y2706514D01*
X-3838251Y2707254D01*
X-3837056Y2707843D01*
X-3835795Y2708271D01*
X-3834489Y2708531D01*
X-3833160Y2708618D01*
X-3763040D01*
X-3761712Y2708531D01*
D02*
G37*
G36*
X-3914111Y2708531D02*
X-3912805Y2708271D01*
X-3911544Y2707843D01*
X-3910349Y2707254D01*
X-3909242Y2706514D01*
X-3908241Y2705636D01*
X-3893300Y2690695D01*
X-3892422Y2689694D01*
X-3891682Y2688587D01*
X-3891093Y2687392D01*
X-3890665Y2686131D01*
X-3890405Y2684825D01*
X-3890318Y2683496D01*
Y2603436D01*
X-3890405Y2602107D01*
X-3890665Y2600801D01*
X-3891093Y2599540D01*
X-3891682Y2598345D01*
X-3892422Y2597238D01*
X-3893300Y2596236D01*
X-3894302Y2595358D01*
X-3895409Y2594618D01*
X-3896604Y2594029D01*
X-3897865Y2593601D01*
X-3899171Y2593341D01*
X-3900500Y2593254D01*
X-4000500D01*
X-4001829Y2593341D01*
X-4003136Y2593601D01*
X-4004397Y2594029D01*
X-4005591Y2594618D01*
X-4006699Y2595358D01*
X-4007700Y2596236D01*
X-4008578Y2597238D01*
X-4009318Y2598345D01*
X-4009907Y2599540D01*
X-4010335Y2600801D01*
X-4010595Y2602107D01*
X-4010682Y2603436D01*
Y2683496D01*
X-4010595Y2684825D01*
X-4010335Y2686131D01*
X-4009907Y2687392D01*
X-4009318Y2688587D01*
X-4008578Y2689694D01*
X-4007700Y2690695D01*
X-3992759Y2705636D01*
X-3991758Y2706514D01*
X-3990650Y2707254D01*
X-3989456Y2707843D01*
X-3988195Y2708271D01*
X-3986889Y2708531D01*
X-3985560Y2708618D01*
X-3915440D01*
X-3914111Y2708531D01*
D02*
G37*
G36*
X-4066511D02*
X-4065205Y2708271D01*
X-4063944Y2707843D01*
X-4062749Y2707254D01*
X-4061642Y2706514D01*
X-4060641Y2705636D01*
X-4045700Y2690695D01*
X-4044822Y2689694D01*
X-4044082Y2688587D01*
X-4043493Y2687392D01*
X-4043065Y2686131D01*
X-4042805Y2684825D01*
X-4042718Y2683496D01*
Y2603436D01*
X-4042805Y2602107D01*
X-4043065Y2600801D01*
X-4043493Y2599540D01*
X-4044082Y2598345D01*
X-4044822Y2597238D01*
X-4045700Y2596236D01*
X-4046702Y2595358D01*
X-4047809Y2594618D01*
X-4049004Y2594029D01*
X-4050265Y2593601D01*
X-4051571Y2593341D01*
X-4052900Y2593254D01*
X-4152900D01*
X-4154229Y2593341D01*
X-4155536Y2593601D01*
X-4156797Y2594029D01*
X-4157991Y2594618D01*
X-4159099Y2595358D01*
X-4160100Y2596236D01*
X-4160978Y2597238D01*
X-4161718Y2598345D01*
X-4162307Y2599540D01*
X-4162735Y2600801D01*
X-4162995Y2602107D01*
X-4163082Y2603436D01*
Y2683496D01*
X-4162995Y2684825D01*
X-4162735Y2686131D01*
X-4162307Y2687392D01*
X-4161718Y2688587D01*
X-4160978Y2689694D01*
X-4160100Y2690695D01*
X-4145159Y2705636D01*
X-4144158Y2706514D01*
X-4143050Y2707254D01*
X-4141856Y2707843D01*
X-4140595Y2708271D01*
X-4139289Y2708531D01*
X-4137960Y2708618D01*
X-4067840D01*
X-4066511Y2708531D01*
D02*
G37*
G36*
X-2769511Y2703091D02*
X-2768205Y2702831D01*
X-2766944Y2702403D01*
X-2765749Y2701813D01*
X-2764642Y2701074D01*
X-2763640Y2700196D01*
X-2762762Y2699194D01*
X-2762022Y2698087D01*
X-2761433Y2696892D01*
X-2761005Y2695631D01*
X-2760745Y2694325D01*
X-2760658Y2692996D01*
X-2760658Y2603796D01*
D01*
D01*
Y2603796D01*
X-2760745Y2602467D01*
X-2761005Y2601161D01*
X-2761433Y2599900D01*
X-2762022Y2598705D01*
X-2762268Y2598338D01*
X-2762762Y2597598D01*
X-2763172Y2597130D01*
X-2763640Y2596597D01*
X-2789440Y2570796D01*
X-2790441Y2569918D01*
X-2791549Y2569178D01*
X-2792743Y2568588D01*
X-2794005Y2568160D01*
X-2795311Y2567901D01*
X-2796640Y2567814D01*
X-2925040Y2567814D01*
X-2926369Y2567901D01*
X-2927675Y2568161D01*
X-2928937Y2568589D01*
X-2930131Y2569178D01*
X-2931238Y2569918D01*
X-2932240Y2570796D01*
X-2958040Y2596596D01*
X-2958918Y2597598D01*
X-2959658Y2598705D01*
X-2960247Y2599900D01*
X-2960675Y2601161D01*
X-2960935Y2602467D01*
X-2961022Y2603796D01*
Y2692996D01*
X-2960935Y2694325D01*
X-2960675Y2695631D01*
X-2960247Y2696892D01*
X-2959658Y2698087D01*
X-2958918Y2699194D01*
X-2958040Y2700196D01*
X-2957039Y2701074D01*
X-2955931Y2701813D01*
X-2954737Y2702403D01*
X-2953475Y2702831D01*
X-2952169Y2703091D01*
X-2950840Y2703178D01*
X-2770840D01*
X-2769511Y2703091D01*
D02*
G37*
G36*
X-3036211D02*
X-3034905Y2702831D01*
X-3033644Y2702403D01*
X-3032449Y2701813D01*
X-3031342Y2701074D01*
X-3030340Y2700196D01*
X-3029462Y2699194D01*
X-3028722Y2698087D01*
X-3028133Y2696892D01*
X-3027705Y2695631D01*
X-3027445Y2694325D01*
X-3027358Y2692996D01*
X-3027358Y2603796D01*
D01*
D01*
Y2603796D01*
X-3027445Y2602467D01*
X-3027705Y2601161D01*
X-3028133Y2599900D01*
X-3028722Y2598705D01*
X-3028968Y2598338D01*
X-3029462Y2597598D01*
X-3029872Y2597130D01*
X-3030340Y2596597D01*
X-3056140Y2570796D01*
X-3057141Y2569918D01*
X-3058249Y2569178D01*
X-3059443Y2568588D01*
X-3060705Y2568160D01*
X-3062011Y2567901D01*
X-3063340Y2567814D01*
X-3191740Y2567814D01*
X-3193069Y2567901D01*
X-3194375Y2568161D01*
X-3195637Y2568589D01*
X-3196831Y2569178D01*
X-3197938Y2569918D01*
X-3198940Y2570796D01*
X-3224740Y2596596D01*
X-3225618Y2597598D01*
X-3226358Y2598705D01*
X-3226947Y2599900D01*
X-3227375Y2601161D01*
X-3227635Y2602467D01*
X-3227722Y2603796D01*
Y2692996D01*
X-3227635Y2694325D01*
X-3227375Y2695631D01*
X-3226947Y2696892D01*
X-3226358Y2698087D01*
X-3225618Y2699194D01*
X-3224740Y2700196D01*
X-3223739Y2701074D01*
X-3222631Y2701813D01*
X-3221437Y2702403D01*
X-3220175Y2702831D01*
X-3218869Y2703091D01*
X-3217540Y2703178D01*
X-3037540D01*
X-3036211Y2703091D01*
D02*
G37*
G36*
X-5435995Y2692463D02*
X-5434689Y2692203D01*
X-5433428Y2691775D01*
X-5432233Y2691186D01*
X-5431126Y2690446D01*
X-5430125Y2689568D01*
X-5429246Y2688566D01*
X-5428507Y2687459D01*
X-5427917Y2686264D01*
X-5427489Y2685003D01*
X-5427229Y2683697D01*
X-5427142Y2682368D01*
Y2593168D01*
X-5427229Y2591839D01*
X-5427489Y2590533D01*
X-5427917Y2589272D01*
X-5428506Y2588077D01*
X-5429246Y2586970D01*
X-5430125Y2585969D01*
X-5455924Y2560168D01*
X-5456926Y2559290D01*
X-5458033Y2558550D01*
X-5459228Y2557961D01*
X-5460489Y2557533D01*
X-5461795Y2557273D01*
X-5463124Y2557186D01*
D01*
X-5463124D01*
X-5591525Y2557187D01*
X-5592854Y2557274D01*
X-5594160Y2557534D01*
X-5595421Y2557962D01*
X-5596616Y2558551D01*
X-5597723Y2559291D01*
X-5598724Y2560169D01*
X-5624524Y2585968D01*
X-5625402Y2586970D01*
X-5626142Y2588077D01*
X-5626731Y2589271D01*
X-5627159Y2590533D01*
X-5627419Y2591839D01*
X-5627506Y2593168D01*
Y2682368D01*
X-5627419Y2683697D01*
X-5627159Y2685003D01*
X-5626731Y2686264D01*
X-5626142Y2687459D01*
X-5625402Y2688566D01*
X-5624524Y2689568D01*
X-5623523Y2690446D01*
X-5622415Y2691186D01*
X-5621221Y2691775D01*
X-5619960Y2692203D01*
X-5618653Y2692463D01*
X-5617324Y2692550D01*
X-5437324D01*
X-5435995Y2692463D01*
D02*
G37*
G36*
X-4229495D02*
X-4228189Y2692203D01*
X-4226928Y2691775D01*
X-4225733Y2691186D01*
X-4224626Y2690446D01*
X-4223625Y2689568D01*
X-4222746Y2688566D01*
X-4222007Y2687459D01*
X-4221417Y2686264D01*
X-4220989Y2685003D01*
X-4220729Y2683697D01*
X-4220642Y2682368D01*
X-4220642Y2593169D01*
D01*
D01*
Y2593168D01*
X-4220729Y2591839D01*
X-4220989Y2590533D01*
X-4221417Y2589272D01*
X-4222006Y2588078D01*
X-4222252Y2587710D01*
X-4222746Y2586970D01*
X-4223156Y2586502D01*
X-4223624Y2585969D01*
X-4249424Y2560168D01*
X-4250426Y2559290D01*
X-4251533Y2558550D01*
X-4252727Y2557961D01*
X-4253989Y2557533D01*
X-4255295Y2557273D01*
X-4256624Y2557186D01*
X-4385024Y2557186D01*
X-4386353Y2557273D01*
X-4387659Y2557533D01*
X-4388921Y2557961D01*
X-4390115Y2558550D01*
X-4391223Y2559290D01*
X-4392224Y2560168D01*
X-4418024Y2585968D01*
X-4418902Y2586970D01*
X-4419642Y2588077D01*
X-4420231Y2589272D01*
X-4420659Y2590533D01*
X-4420919Y2591839D01*
X-4421006Y2593168D01*
Y2682368D01*
X-4420919Y2683697D01*
X-4420659Y2685003D01*
X-4420231Y2686264D01*
X-4419642Y2687459D01*
X-4418902Y2688566D01*
X-4418024Y2689568D01*
X-4417023Y2690446D01*
X-4415915Y2691186D01*
X-4414721Y2691775D01*
X-4413460Y2692203D01*
X-4412153Y2692463D01*
X-4410824Y2692550D01*
X-4230824D01*
X-4229495Y2692463D01*
D02*
G37*
G36*
X-4470795D02*
X-4469489Y2692203D01*
X-4468228Y2691775D01*
X-4467033Y2691186D01*
X-4465926Y2690446D01*
X-4464925Y2689568D01*
X-4464046Y2688566D01*
X-4463307Y2687459D01*
X-4462717Y2686264D01*
X-4462289Y2685003D01*
X-4462029Y2683697D01*
X-4461942Y2682368D01*
X-4461942Y2593169D01*
D01*
D01*
Y2593168D01*
X-4462029Y2591839D01*
X-4462289Y2590533D01*
X-4462717Y2589272D01*
X-4463306Y2588078D01*
X-4463552Y2587710D01*
X-4464046Y2586970D01*
X-4464456Y2586502D01*
X-4464924Y2585969D01*
X-4490724Y2560168D01*
X-4491726Y2559290D01*
X-4492833Y2558550D01*
X-4494027Y2557961D01*
X-4495289Y2557533D01*
X-4496595Y2557273D01*
X-4497924Y2557186D01*
X-4626324Y2557186D01*
X-4627653Y2557273D01*
X-4628959Y2557533D01*
X-4630221Y2557961D01*
X-4631415Y2558550D01*
X-4632523Y2559290D01*
X-4633524Y2560168D01*
X-4659324Y2585968D01*
X-4660202Y2586970D01*
X-4660942Y2588077D01*
X-4661531Y2589272D01*
X-4661959Y2590533D01*
X-4662219Y2591839D01*
X-4662306Y2593168D01*
Y2682368D01*
X-4662219Y2683697D01*
X-4661959Y2685003D01*
X-4661531Y2686264D01*
X-4660942Y2687459D01*
X-4660202Y2688566D01*
X-4659324Y2689568D01*
X-4658323Y2690446D01*
X-4657215Y2691186D01*
X-4656021Y2691775D01*
X-4654760Y2692203D01*
X-4653453Y2692463D01*
X-4652124Y2692550D01*
X-4472124D01*
X-4470795Y2692463D01*
D02*
G37*
G36*
X-4712095D02*
X-4710789Y2692203D01*
X-4709528Y2691775D01*
X-4708333Y2691186D01*
X-4707226Y2690446D01*
X-4706225Y2689568D01*
X-4705346Y2688566D01*
X-4704607Y2687459D01*
X-4704017Y2686264D01*
X-4703589Y2685003D01*
X-4703329Y2683697D01*
X-4703242Y2682368D01*
X-4703242Y2593169D01*
D01*
D01*
Y2593168D01*
X-4703329Y2591839D01*
X-4703589Y2590533D01*
X-4704017Y2589272D01*
X-4704606Y2588078D01*
X-4704852Y2587710D01*
X-4705346Y2586970D01*
X-4705756Y2586502D01*
X-4706224Y2585969D01*
X-4732024Y2560168D01*
X-4733026Y2559290D01*
X-4734133Y2558550D01*
X-4735327Y2557961D01*
X-4736589Y2557533D01*
X-4737895Y2557273D01*
X-4739224Y2557186D01*
X-4867624Y2557186D01*
X-4868953Y2557273D01*
X-4870259Y2557533D01*
X-4871521Y2557961D01*
X-4872715Y2558550D01*
X-4873823Y2559290D01*
X-4874824Y2560168D01*
X-4900624Y2585968D01*
X-4901502Y2586970D01*
X-4902242Y2588077D01*
X-4902831Y2589272D01*
X-4903259Y2590533D01*
X-4903519Y2591839D01*
X-4903606Y2593168D01*
Y2682368D01*
X-4903519Y2683697D01*
X-4903259Y2685003D01*
X-4902831Y2686264D01*
X-4902242Y2687459D01*
X-4901502Y2688566D01*
X-4900624Y2689568D01*
X-4899623Y2690446D01*
X-4898515Y2691186D01*
X-4897321Y2691775D01*
X-4896060Y2692203D01*
X-4894753Y2692463D01*
X-4893424Y2692550D01*
X-4713424D01*
X-4712095Y2692463D01*
D02*
G37*
G36*
X-4953395D02*
X-4952089Y2692203D01*
X-4950828Y2691775D01*
X-4949633Y2691186D01*
X-4948526Y2690446D01*
X-4947525Y2689568D01*
X-4946646Y2688566D01*
X-4945907Y2687459D01*
X-4945317Y2686264D01*
X-4944889Y2685003D01*
X-4944629Y2683697D01*
X-4944542Y2682368D01*
X-4944542Y2593169D01*
D01*
D01*
Y2593168D01*
X-4944629Y2591839D01*
X-4944889Y2590533D01*
X-4945317Y2589272D01*
X-4945906Y2588078D01*
X-4946152Y2587710D01*
X-4946646Y2586970D01*
X-4947056Y2586502D01*
X-4947524Y2585969D01*
X-4973324Y2560168D01*
X-4974326Y2559290D01*
X-4975433Y2558550D01*
X-4976627Y2557961D01*
X-4977889Y2557533D01*
X-4979195Y2557273D01*
X-4980524Y2557186D01*
X-5108924Y2557186D01*
X-5110253Y2557273D01*
X-5111559Y2557533D01*
X-5112821Y2557961D01*
X-5114015Y2558550D01*
X-5115123Y2559290D01*
X-5116124Y2560168D01*
X-5141924Y2585968D01*
X-5142802Y2586970D01*
X-5143542Y2588077D01*
X-5144131Y2589272D01*
X-5144559Y2590533D01*
X-5144819Y2591839D01*
X-5144906Y2593168D01*
Y2682368D01*
X-5144819Y2683697D01*
X-5144559Y2685003D01*
X-5144131Y2686264D01*
X-5143542Y2687459D01*
X-5142802Y2688566D01*
X-5141924Y2689568D01*
X-5140923Y2690446D01*
X-5139815Y2691186D01*
X-5138621Y2691775D01*
X-5137360Y2692203D01*
X-5136053Y2692463D01*
X-5134724Y2692550D01*
X-4954724D01*
X-4953395Y2692463D01*
D02*
G37*
G36*
X-5195211Y2690391D02*
X-5193905Y2690131D01*
X-5192644Y2689703D01*
X-5191449Y2689113D01*
X-5190342Y2688374D01*
X-5189340Y2687496D01*
X-5188462Y2686494D01*
X-5187722Y2685387D01*
X-5187133Y2684192D01*
X-5186705Y2682931D01*
X-5186445Y2681625D01*
X-5186358Y2680296D01*
X-5186358Y2591096D01*
D01*
D01*
Y2591096D01*
X-5186445Y2589767D01*
X-5186705Y2588461D01*
X-5187133Y2587200D01*
X-5187722Y2586005D01*
X-5187968Y2585638D01*
X-5188462Y2584898D01*
X-5188872Y2584430D01*
X-5189340Y2583897D01*
X-5215140Y2558096D01*
X-5216141Y2557218D01*
X-5217249Y2556478D01*
X-5218443Y2555888D01*
X-5219705Y2555460D01*
X-5221011Y2555201D01*
X-5222340Y2555114D01*
X-5350740Y2555114D01*
X-5352069Y2555201D01*
X-5353375Y2555461D01*
X-5354637Y2555889D01*
X-5355831Y2556478D01*
X-5356938Y2557218D01*
X-5357940Y2558096D01*
X-5383740Y2583896D01*
X-5384618Y2584898D01*
X-5385358Y2586005D01*
X-5385947Y2587200D01*
X-5386375Y2588461D01*
X-5386635Y2589767D01*
X-5386722Y2591096D01*
Y2680296D01*
X-5386635Y2681625D01*
X-5386375Y2682931D01*
X-5385947Y2684192D01*
X-5385358Y2685387D01*
X-5384618Y2686494D01*
X-5383740Y2687496D01*
X-5382739Y2688374D01*
X-5381631Y2689113D01*
X-5380437Y2689703D01*
X-5379175Y2690131D01*
X-5377869Y2690391D01*
X-5376540Y2690478D01*
X-5196540D01*
X-5195211Y2690391D01*
D02*
G37*
G36*
X-3287031Y2549810D02*
X-3285725Y2549551D01*
X-3284464Y2549123D01*
X-3283269Y2548533D01*
X-3282162Y2547793D01*
X-3281160Y2546915D01*
X-3280282Y2545914D01*
X-3279542Y2544807D01*
X-3278953Y2543612D01*
X-3278525Y2542351D01*
X-3278265Y2541045D01*
X-3278178Y2539716D01*
Y2459656D01*
X-3278265Y2458327D01*
X-3278525Y2457021D01*
X-3278953Y2455759D01*
X-3279542Y2454565D01*
X-3280282Y2453458D01*
X-3281160Y2452456D01*
X-3296101Y2437516D01*
X-3297102Y2436638D01*
X-3298210Y2435898D01*
X-3299404Y2435309D01*
X-3300665Y2434881D01*
X-3301972Y2434621D01*
X-3303300Y2434534D01*
X-3373420D01*
X-3374749Y2434621D01*
X-3376055Y2434881D01*
X-3377317Y2435309D01*
X-3378511Y2435898D01*
X-3379618Y2436638D01*
X-3380620Y2437516D01*
X-3395560Y2452456D01*
X-3396438Y2453458D01*
X-3397178Y2454565D01*
X-3397767Y2455759D01*
X-3398195Y2457021D01*
X-3398455Y2458327D01*
X-3398542Y2459656D01*
Y2539716D01*
X-3398455Y2541045D01*
X-3398195Y2542351D01*
X-3397767Y2543612D01*
X-3397178Y2544807D01*
X-3396438Y2545914D01*
X-3395560Y2546915D01*
X-3394559Y2547793D01*
X-3393451Y2548533D01*
X-3392257Y2549123D01*
X-3390996Y2549551D01*
X-3389689Y2549810D01*
X-3388360Y2549898D01*
X-3288360D01*
X-3287031Y2549810D01*
D02*
G37*
G36*
X-3436891Y2548531D02*
X-3435585Y2548271D01*
X-3434324Y2547843D01*
X-3433129Y2547253D01*
X-3432022Y2546514D01*
X-3431020Y2545635D01*
X-3430142Y2544634D01*
X-3429402Y2543527D01*
X-3428813Y2542332D01*
X-3428385Y2541071D01*
X-3428125Y2539765D01*
X-3428038Y2538436D01*
Y2458376D01*
X-3428125Y2457047D01*
X-3428385Y2455741D01*
X-3428813Y2454479D01*
X-3429402Y2453285D01*
X-3430142Y2452178D01*
X-3431020Y2451176D01*
X-3445961Y2436236D01*
X-3446962Y2435358D01*
X-3448070Y2434618D01*
X-3449264Y2434029D01*
X-3450525Y2433601D01*
X-3451832Y2433341D01*
X-3453160Y2433254D01*
X-3523280D01*
X-3524609Y2433341D01*
X-3525915Y2433601D01*
X-3527177Y2434029D01*
X-3528371Y2434618D01*
X-3529478Y2435358D01*
X-3530480Y2436236D01*
X-3545420Y2451176D01*
X-3546298Y2452178D01*
X-3547038Y2453285D01*
X-3547627Y2454479D01*
X-3548055Y2455741D01*
X-3548315Y2457047D01*
X-3548402Y2458376D01*
Y2538436D01*
X-3548315Y2539765D01*
X-3548055Y2541071D01*
X-3547627Y2542332D01*
X-3547038Y2543527D01*
X-3546298Y2544634D01*
X-3545420Y2545635D01*
X-3544419Y2546514D01*
X-3543311Y2547253D01*
X-3542117Y2547843D01*
X-3540856Y2548271D01*
X-3539549Y2548531D01*
X-3538220Y2548618D01*
X-3438220D01*
X-3436891Y2548531D01*
D02*
G37*
G36*
X-3746771D02*
X-3745465Y2548271D01*
X-3744204Y2547843D01*
X-3743009Y2547253D01*
X-3741902Y2546514D01*
X-3740900Y2545635D01*
X-3740022Y2544634D01*
X-3739282Y2543527D01*
X-3738693Y2542332D01*
X-3738265Y2541071D01*
X-3738005Y2539765D01*
X-3737918Y2538436D01*
Y2458376D01*
X-3738005Y2457047D01*
X-3738265Y2455741D01*
X-3738693Y2454479D01*
X-3739282Y2453285D01*
X-3740022Y2452178D01*
X-3740900Y2451176D01*
X-3755841Y2436236D01*
X-3756842Y2435358D01*
X-3757950Y2434618D01*
X-3759144Y2434029D01*
X-3760405Y2433601D01*
X-3761712Y2433341D01*
X-3763040Y2433254D01*
X-3833160D01*
X-3834489Y2433341D01*
X-3835795Y2433601D01*
X-3837057Y2434029D01*
X-3838251Y2434618D01*
X-3839358Y2435358D01*
X-3840360Y2436236D01*
X-3855300Y2451176D01*
X-3856178Y2452178D01*
X-3856918Y2453285D01*
X-3857507Y2454479D01*
X-3857935Y2455741D01*
X-3858195Y2457047D01*
X-3858282Y2458376D01*
Y2538436D01*
X-3858195Y2539765D01*
X-3857935Y2541071D01*
X-3857507Y2542332D01*
X-3856918Y2543527D01*
X-3856178Y2544634D01*
X-3855300Y2545635D01*
X-3854299Y2546514D01*
X-3853191Y2547253D01*
X-3851997Y2547843D01*
X-3850736Y2548271D01*
X-3849429Y2548531D01*
X-3848100Y2548618D01*
X-3748100D01*
X-3746771Y2548531D01*
D02*
G37*
G36*
X-3589291D02*
X-3587985Y2548271D01*
X-3586724Y2547843D01*
X-3585529Y2547253D01*
X-3584422Y2546514D01*
X-3583420Y2545635D01*
X-3582542Y2544634D01*
X-3581802Y2543527D01*
X-3581213Y2542332D01*
X-3580785Y2541071D01*
X-3580525Y2539765D01*
X-3580438Y2538436D01*
X-3580438Y2458376D01*
X-3580525Y2457047D01*
X-3580785Y2455741D01*
X-3581213Y2454479D01*
X-3581802Y2453285D01*
X-3582542Y2452178D01*
X-3583420Y2451176D01*
X-3598361Y2436236D01*
X-3599362Y2435358D01*
X-3600469Y2434618D01*
X-3601664Y2434029D01*
X-3602925Y2433601D01*
X-3604231Y2433341D01*
X-3605560Y2433254D01*
X-3675680D01*
X-3677009Y2433341D01*
X-3678315Y2433601D01*
X-3679576Y2434029D01*
X-3680771Y2434618D01*
X-3681878Y2435358D01*
X-3682879Y2436236D01*
X-3697820Y2451176D01*
X-3698698Y2452178D01*
X-3699438Y2453285D01*
X-3700027Y2454480D01*
X-3700455Y2455741D01*
X-3700715Y2457047D01*
X-3700802Y2458376D01*
Y2538436D01*
X-3700715Y2539765D01*
X-3700455Y2541071D01*
X-3700027Y2542332D01*
X-3699438Y2543527D01*
X-3698698Y2544634D01*
X-3697820Y2545635D01*
X-3696819Y2546514D01*
X-3695711Y2547253D01*
X-3694517Y2547843D01*
X-3693256Y2548271D01*
X-3691949Y2548531D01*
X-3690620Y2548618D01*
X-3590620D01*
X-3589291Y2548531D01*
D02*
G37*
G36*
X-3899171D02*
X-3897865Y2548271D01*
X-3896604Y2547843D01*
X-3895409Y2547253D01*
X-3894302Y2546514D01*
X-3893300Y2545635D01*
X-3892422Y2544634D01*
X-3891682Y2543527D01*
X-3891093Y2542332D01*
X-3890665Y2541071D01*
X-3890405Y2539765D01*
X-3890318Y2538436D01*
X-3890318Y2458376D01*
X-3890405Y2457047D01*
X-3890665Y2455741D01*
X-3891093Y2454479D01*
X-3891682Y2453285D01*
X-3892422Y2452178D01*
X-3893300Y2451176D01*
X-3908241Y2436236D01*
X-3909242Y2435358D01*
X-3910349Y2434618D01*
X-3911544Y2434029D01*
X-3912805Y2433601D01*
X-3914111Y2433341D01*
X-3915440Y2433254D01*
X-3985560D01*
X-3986889Y2433341D01*
X-3988195Y2433601D01*
X-3989456Y2434029D01*
X-3990651Y2434618D01*
X-3991758Y2435358D01*
X-3992759Y2436236D01*
X-4007700Y2451176D01*
X-4008578Y2452178D01*
X-4009318Y2453285D01*
X-4009907Y2454480D01*
X-4010335Y2455741D01*
X-4010595Y2457047D01*
X-4010682Y2458376D01*
Y2538436D01*
X-4010595Y2539765D01*
X-4010335Y2541071D01*
X-4009907Y2542332D01*
X-4009318Y2543527D01*
X-4008578Y2544634D01*
X-4007700Y2545635D01*
X-4006699Y2546514D01*
X-4005591Y2547253D01*
X-4004397Y2547843D01*
X-4003136Y2548271D01*
X-4001829Y2548531D01*
X-4000500Y2548618D01*
X-3900500D01*
X-3899171Y2548531D01*
D02*
G37*
G36*
X-4051571D02*
X-4050265Y2548271D01*
X-4049004Y2547843D01*
X-4047809Y2547253D01*
X-4046702Y2546514D01*
X-4045700Y2545635D01*
X-4044822Y2544634D01*
X-4044082Y2543527D01*
X-4043493Y2542332D01*
X-4043065Y2541071D01*
X-4042805Y2539765D01*
X-4042718Y2538436D01*
X-4042718Y2458376D01*
X-4042805Y2457047D01*
X-4043065Y2455741D01*
X-4043493Y2454479D01*
X-4044082Y2453285D01*
X-4044822Y2452178D01*
X-4045700Y2451176D01*
X-4060641Y2436236D01*
X-4061642Y2435358D01*
X-4062749Y2434618D01*
X-4063944Y2434029D01*
X-4065205Y2433601D01*
X-4066511Y2433341D01*
X-4067840Y2433254D01*
X-4137960D01*
X-4139289Y2433341D01*
X-4140595Y2433601D01*
X-4141856Y2434029D01*
X-4143051Y2434618D01*
X-4144158Y2435358D01*
X-4145159Y2436236D01*
X-4160100Y2451176D01*
X-4160978Y2452178D01*
X-4161718Y2453285D01*
X-4162307Y2454480D01*
X-4162735Y2455741D01*
X-4162995Y2457047D01*
X-4163082Y2458376D01*
Y2538436D01*
X-4162995Y2539765D01*
X-4162735Y2541071D01*
X-4162307Y2542332D01*
X-4161718Y2543527D01*
X-4160978Y2544634D01*
X-4160100Y2545635D01*
X-4159099Y2546514D01*
X-4157991Y2547253D01*
X-4156797Y2547843D01*
X-4155536Y2548271D01*
X-4154229Y2548531D01*
X-4152900Y2548618D01*
X-4052900D01*
X-4051571Y2548531D01*
D02*
G37*
G36*
X-7027745Y2668863D02*
X-7026439Y2668603D01*
X-7025177Y2668175D01*
X-7023983Y2667586D01*
X-7022876Y2666846D01*
X-7021874Y2665968D01*
X-6963125Y2607218D01*
X-6962246Y2606217D01*
X-6961507Y2605109D01*
X-6960917Y2603915D01*
X-6960489Y2602653D01*
X-6960229Y2601347D01*
X-6960142Y2600018D01*
Y2482518D01*
X-6960229Y2481189D01*
X-6960489Y2479883D01*
X-6960917Y2478621D01*
X-6961507Y2477427D01*
X-6962246Y2476319D01*
X-6963125Y2475318D01*
X-7021874Y2416568D01*
X-7022876Y2415690D01*
X-7023983Y2414950D01*
X-7025177Y2414361D01*
X-7026439Y2413933D01*
X-7027745Y2413673D01*
X-7029074Y2413586D01*
X-7400324D01*
X-7401653Y2413673D01*
X-7402960Y2413933D01*
X-7404221Y2414361D01*
X-7405415Y2414950D01*
X-7406523Y2415690D01*
X-7407524Y2416568D01*
X-7408402Y2417569D01*
X-7409142Y2418677D01*
X-7409731Y2419871D01*
X-7410159Y2421133D01*
X-7410419Y2422439D01*
X-7410506Y2423768D01*
Y2658768D01*
X-7410419Y2660097D01*
X-7410159Y2661403D01*
X-7409731Y2662664D01*
X-7409142Y2663859D01*
X-7408402Y2664966D01*
X-7407524Y2665968D01*
X-7406523Y2666846D01*
X-7405415Y2667586D01*
X-7404221Y2668175D01*
X-7402960Y2668603D01*
X-7401653Y2668863D01*
X-7400324Y2668950D01*
X-7029074D01*
X-7027745Y2668863D01*
D02*
G37*
G36*
X-7843995D02*
X-7842689Y2668603D01*
X-7841428Y2668175D01*
X-7840233Y2667586D01*
X-7839126Y2666846D01*
X-7838125Y2665968D01*
X-7837246Y2664966D01*
X-7836507Y2663859D01*
X-7835917Y2662664D01*
X-7835489Y2661403D01*
X-7835229Y2660097D01*
X-7835142Y2658768D01*
Y2423768D01*
X-7835229Y2422439D01*
X-7835489Y2421133D01*
X-7835917Y2419871D01*
X-7836507Y2418677D01*
X-7837246Y2417569D01*
X-7838125Y2416568D01*
X-7839126Y2415690D01*
X-7840233Y2414950D01*
X-7841428Y2414361D01*
X-7842689Y2413933D01*
X-7843995Y2413673D01*
X-7845324Y2413586D01*
X-8216574D01*
X-8217903Y2413673D01*
X-8219210Y2413933D01*
X-8220471Y2414361D01*
X-8221665Y2414950D01*
X-8222773Y2415690D01*
X-8223774Y2416568D01*
X-8282524Y2475318D01*
X-8283402Y2476319D01*
X-8284142Y2477427D01*
X-8284731Y2478621D01*
X-8285159Y2479883D01*
X-8285419Y2481189D01*
X-8285506Y2482518D01*
Y2600018D01*
X-8285419Y2601347D01*
X-8285159Y2602653D01*
X-8284731Y2603915D01*
X-8284142Y2605109D01*
X-8283402Y2606217D01*
X-8282524Y2607218D01*
X-8223774Y2665968D01*
X-8222773Y2666846D01*
X-8221665Y2667586D01*
X-8220471Y2668175D01*
X-8219210Y2668603D01*
X-8217903Y2668863D01*
X-8216574Y2668950D01*
X-7845324D01*
X-7843995Y2668863D01*
D02*
G37*
G36*
X-5913645Y2607863D02*
X-5912339Y2607603D01*
X-5911078Y2607175D01*
X-5909883Y2606586D01*
X-5908776Y2605846D01*
X-5907775Y2604968D01*
X-5889025Y2586218D01*
X-5888146Y2585216D01*
X-5887407Y2584109D01*
X-5886817Y2582915D01*
X-5886389Y2581653D01*
X-5886129Y2580347D01*
X-5886042Y2579018D01*
Y2376518D01*
X-5886129Y2375189D01*
X-5886389Y2373883D01*
X-5886817Y2372621D01*
X-5887406Y2371427D01*
X-5888146Y2370320D01*
X-5889025Y2369318D01*
X-5907775Y2350568D01*
X-5908776Y2349690D01*
X-5909883Y2348950D01*
X-5911078Y2348361D01*
X-5912339Y2347933D01*
X-5913645Y2347673D01*
X-5914974Y2347586D01*
X-6046224D01*
X-6047553Y2347673D01*
X-6048860Y2347933D01*
X-6050121Y2348361D01*
X-6051315Y2348950D01*
X-6052423Y2349690D01*
X-6053424Y2350568D01*
X-6054302Y2351570D01*
X-6055042Y2352677D01*
X-6055631Y2353872D01*
X-6056059Y2355133D01*
X-6056319Y2356439D01*
X-6056406Y2357768D01*
Y2597768D01*
X-6056319Y2599097D01*
X-6056059Y2600403D01*
X-6055631Y2601664D01*
X-6055042Y2602859D01*
X-6054302Y2603966D01*
X-6053424Y2604968D01*
X-6052423Y2605846D01*
X-6051315Y2606586D01*
X-6050121Y2607175D01*
X-6048860Y2607603D01*
X-6047553Y2607863D01*
X-6046224Y2607950D01*
X-5914974D01*
X-5913645Y2607863D01*
D02*
G37*
G36*
X-6174895D02*
X-6173589Y2607603D01*
X-6172328Y2607175D01*
X-6171133Y2606586D01*
X-6170026Y2605846D01*
X-6169024Y2604968D01*
X-6168146Y2603966D01*
X-6167407Y2602859D01*
X-6166817Y2601664D01*
X-6166389Y2600403D01*
X-6166129Y2599097D01*
X-6166042Y2597768D01*
Y2357768D01*
X-6166129Y2356439D01*
X-6166389Y2355133D01*
X-6166817Y2353872D01*
X-6167407Y2352677D01*
X-6168146Y2351570D01*
X-6169024Y2350568D01*
X-6170026Y2349690D01*
X-6171133Y2348950D01*
X-6172328Y2348361D01*
X-6173589Y2347933D01*
X-6174895Y2347673D01*
X-6176224Y2347586D01*
X-6307474D01*
X-6308803Y2347673D01*
X-6310110Y2347933D01*
X-6311371Y2348361D01*
X-6312565Y2348950D01*
X-6313673Y2349690D01*
X-6314674Y2350568D01*
X-6333424Y2369318D01*
X-6334302Y2370320D01*
X-6335042Y2371427D01*
X-6335631Y2372621D01*
X-6336059Y2373883D01*
X-6336319Y2375189D01*
X-6336406Y2376518D01*
Y2579018D01*
X-6336319Y2580347D01*
X-6336059Y2581653D01*
X-6335631Y2582915D01*
X-6335042Y2584109D01*
X-6334302Y2585216D01*
X-6333424Y2586218D01*
X-6314674Y2604968D01*
X-6313673Y2605846D01*
X-6312565Y2606586D01*
X-6311371Y2607175D01*
X-6310110Y2607603D01*
X-6308803Y2607863D01*
X-6307474Y2607950D01*
X-6176224D01*
X-6174895Y2607863D01*
D02*
G37*
G36*
X-6022735Y2309263D02*
X-6021429Y2309003D01*
X-6020168Y2308575D01*
X-6018973Y2307986D01*
X-6017866Y2307246D01*
X-6016865Y2306368D01*
X-6001924Y2291427D01*
X-6001046Y2290426D01*
X-6000306Y2289319D01*
X-5999717Y2288124D01*
X-5999289Y2286863D01*
X-5999029Y2285557D01*
X-5998942Y2284228D01*
Y2214108D01*
X-5999029Y2212779D01*
X-5999289Y2211473D01*
X-5999717Y2210212D01*
X-6000306Y2209017D01*
X-6001046Y2207910D01*
X-6001924Y2206909D01*
X-6016865Y2191968D01*
X-6017866Y2191090D01*
X-6018973Y2190350D01*
X-6020168Y2189761D01*
X-6021429Y2189333D01*
X-6022735Y2189073D01*
X-6024064Y2188986D01*
X-6104124D01*
X-6105453Y2189073D01*
X-6106759Y2189333D01*
X-6108021Y2189761D01*
X-6109215Y2190350D01*
X-6110323Y2191090D01*
X-6111324Y2191968D01*
X-6112202Y2192969D01*
X-6112942Y2194077D01*
X-6113531Y2195271D01*
X-6113959Y2196533D01*
X-6114219Y2197839D01*
X-6114306Y2199168D01*
Y2299168D01*
X-6114219Y2300497D01*
X-6113959Y2301803D01*
X-6113531Y2303064D01*
X-6112942Y2304259D01*
X-6112202Y2305366D01*
X-6111324Y2306368D01*
X-6110323Y2307246D01*
X-6109215Y2307986D01*
X-6108021Y2308575D01*
X-6106759Y2309003D01*
X-6105453Y2309263D01*
X-6104124Y2309350D01*
X-6024064Y2309350D01*
X-6022735Y2309263D01*
D02*
G37*
G36*
X-6167795Y2309263D02*
X-6166489Y2309003D01*
X-6165228Y2308575D01*
X-6164033Y2307986D01*
X-6162926Y2307246D01*
X-6161925Y2306368D01*
X-6161047Y2305366D01*
X-6160307Y2304259D01*
X-6159717Y2303064D01*
X-6159289Y2301803D01*
X-6159030Y2300497D01*
X-6158942Y2299168D01*
Y2199168D01*
X-6159030Y2197839D01*
X-6159289Y2196533D01*
X-6159717Y2195271D01*
X-6160307Y2194077D01*
X-6161047Y2192969D01*
X-6161925Y2191968D01*
X-6162926Y2191090D01*
X-6164033Y2190350D01*
X-6165228Y2189761D01*
X-6166489Y2189333D01*
X-6167795Y2189073D01*
X-6169124Y2188986D01*
X-6249184D01*
X-6250513Y2189073D01*
X-6251819Y2189333D01*
X-6253081Y2189761D01*
X-6254275Y2190350D01*
X-6255382Y2191090D01*
X-6256384Y2191968D01*
X-6271324Y2206909D01*
X-6272202Y2207910D01*
X-6272942Y2209018D01*
X-6273531Y2210212D01*
X-6273959Y2211473D01*
X-6274219Y2212779D01*
X-6274306Y2214108D01*
Y2284228D01*
X-6274219Y2285557D01*
X-6273959Y2286863D01*
X-6273531Y2288124D01*
X-6272942Y2289319D01*
X-6272202Y2290426D01*
X-6271324Y2291427D01*
X-6256384Y2306368D01*
X-6255382Y2307246D01*
X-6254275Y2307986D01*
X-6253081Y2308575D01*
X-6251819Y2309003D01*
X-6250513Y2309263D01*
X-6249184Y2309350D01*
X-6169124D01*
X-6167795Y2309263D01*
D02*
G37*
G36*
X-2801760Y1567596D02*
X-2801270Y1567548D01*
X-2800547Y1567328D01*
X-2800327Y1567262D01*
X-2799459Y1566797D01*
X-2798697Y1566173D01*
X-2790149Y1557624D01*
X-2790147Y1557623D01*
X-2789866Y1557280D01*
X-2789522Y1556861D01*
X-2789058Y1555993D01*
X-2788772Y1555050D01*
X-2788676Y1554070D01*
X-2788676Y1554068D01*
Y1509172D01*
X-2788676Y1509170D01*
X-2788724Y1508680D01*
X-2788772Y1508190D01*
X-2788992Y1507467D01*
X-2789058Y1507247D01*
X-2789522Y1506379D01*
X-2790147Y1505617D01*
X-2798696Y1497069D01*
X-2798697Y1497067D01*
X-2799040Y1496786D01*
X-2799459Y1496443D01*
X-2800327Y1495978D01*
X-2801270Y1495692D01*
X-2802250Y1495596D01*
X-2802252Y1495596D01*
X-2850700D01*
X-2851680Y1495692D01*
X-2852623Y1495978D01*
X-2853491Y1496443D01*
X-2854253Y1497067D01*
X-2854877Y1497829D01*
X-2855342Y1498698D01*
X-2855628Y1499640D01*
X-2855724Y1500620D01*
Y1562620D01*
X-2855628Y1563600D01*
X-2855342Y1564542D01*
X-2854877Y1565411D01*
X-2854253Y1566173D01*
X-2853491Y1566797D01*
X-2852623Y1567262D01*
X-2851680Y1567548D01*
X-2850700Y1567644D01*
X-2802252D01*
X-2802250Y1567644D01*
X-2801760Y1567596D01*
D02*
G37*
G36*
X-2938148Y1567644D02*
X-2889700D01*
X-2888720Y1567548D01*
X-2887777Y1567262D01*
X-2886909Y1566797D01*
X-2886147Y1566173D01*
X-2885523Y1565411D01*
X-2885058Y1564542D01*
X-2884772Y1563600D01*
X-2884676Y1562620D01*
Y1500620D01*
X-2884772Y1499640D01*
X-2885058Y1498698D01*
X-2885523Y1497829D01*
X-2886147Y1497067D01*
X-2886909Y1496443D01*
X-2887777Y1495978D01*
X-2888720Y1495692D01*
X-2889700Y1495596D01*
X-2938148D01*
X-2938150Y1495596D01*
X-2939130Y1495692D01*
X-2940073Y1495978D01*
X-2940941Y1496443D01*
X-2941360Y1496786D01*
X-2941703Y1497067D01*
X-2941704Y1497069D01*
X-2950253Y1505617D01*
X-2950878Y1506379D01*
X-2951342Y1507247D01*
X-2951408Y1507467D01*
X-2951628Y1508190D01*
X-2951676Y1508680D01*
X-2951724Y1509170D01*
X-2951724Y1509172D01*
Y1554068D01*
X-2951724Y1554070D01*
X-2951628Y1555050D01*
X-2951342Y1555993D01*
X-2950878Y1556861D01*
X-2950534Y1557280D01*
X-2950253Y1557623D01*
X-2950251Y1557624D01*
X-2941703Y1566173D01*
X-2940941Y1566797D01*
X-2940073Y1567262D01*
X-2939853Y1567328D01*
X-2939130Y1567548D01*
X-2938640Y1567596D01*
X-2938150Y1567644D01*
X-2938148Y1567644D01*
D02*
G37*
G36*
X-1325445Y1729063D02*
X-1324139Y1728803D01*
X-1322877Y1728375D01*
X-1321683Y1727786D01*
X-1320576Y1727046D01*
X-1319574Y1726168D01*
X-1260825Y1667418D01*
X-1259946Y1666417D01*
X-1259207Y1665309D01*
X-1258617Y1664115D01*
X-1258189Y1662853D01*
X-1257929Y1661547D01*
X-1257842Y1660218D01*
Y1542718D01*
X-1257929Y1541389D01*
X-1258189Y1540083D01*
X-1258617Y1538821D01*
X-1259207Y1537627D01*
X-1259946Y1536519D01*
X-1260825Y1535518D01*
X-1319574Y1476768D01*
X-1320576Y1475890D01*
X-1321683Y1475150D01*
X-1322877Y1474561D01*
X-1324139Y1474133D01*
X-1325445Y1473873D01*
X-1326774Y1473786D01*
X-1698024D01*
X-1699353Y1473873D01*
X-1700660Y1474133D01*
X-1701921Y1474561D01*
X-1703115Y1475150D01*
X-1704223Y1475890D01*
X-1705224Y1476768D01*
X-1706102Y1477769D01*
X-1706842Y1478877D01*
X-1707431Y1480071D01*
X-1707859Y1481333D01*
X-1708119Y1482639D01*
X-1708206Y1483968D01*
Y1718968D01*
X-1708119Y1720297D01*
X-1707859Y1721603D01*
X-1707431Y1722864D01*
X-1706842Y1724059D01*
X-1706102Y1725166D01*
X-1705224Y1726168D01*
X-1704223Y1727046D01*
X-1703115Y1727786D01*
X-1701921Y1728375D01*
X-1700660Y1728803D01*
X-1699353Y1729063D01*
X-1698024Y1729150D01*
X-1326774D01*
X-1325445Y1729063D01*
D02*
G37*
G36*
X-2141695D02*
X-2140389Y1728803D01*
X-2139128Y1728375D01*
X-2137933Y1727786D01*
X-2136826Y1727046D01*
X-2135825Y1726168D01*
X-2134946Y1725166D01*
X-2134207Y1724059D01*
X-2133617Y1722864D01*
X-2133189Y1721603D01*
X-2132929Y1720297D01*
X-2132842Y1718968D01*
Y1483968D01*
X-2132929Y1482639D01*
X-2133189Y1481333D01*
X-2133617Y1480071D01*
X-2134207Y1478877D01*
X-2134946Y1477769D01*
X-2135825Y1476768D01*
X-2136826Y1475890D01*
X-2137933Y1475150D01*
X-2139128Y1474561D01*
X-2140389Y1474133D01*
X-2141695Y1473873D01*
X-2143024Y1473786D01*
X-2514274D01*
X-2515603Y1473873D01*
X-2516910Y1474133D01*
X-2518171Y1474561D01*
X-2519365Y1475150D01*
X-2520473Y1475890D01*
X-2521474Y1476768D01*
X-2580224Y1535518D01*
X-2581102Y1536519D01*
X-2581842Y1537627D01*
X-2582431Y1538821D01*
X-2582859Y1540083D01*
X-2583119Y1541389D01*
X-2583206Y1542718D01*
Y1660218D01*
X-2583119Y1661547D01*
X-2582859Y1662853D01*
X-2582431Y1664115D01*
X-2581842Y1665309D01*
X-2581102Y1666417D01*
X-2580224Y1667418D01*
X-2521474Y1726168D01*
X-2520473Y1727046D01*
X-2519365Y1727786D01*
X-2518171Y1728375D01*
X-2516910Y1728803D01*
X-2515603Y1729063D01*
X-2514274Y1729150D01*
X-2143024D01*
X-2141695Y1729063D01*
D02*
G37*
G36*
X-2801760Y1458376D02*
X-2801270Y1458328D01*
X-2800547Y1458108D01*
X-2800327Y1458042D01*
X-2799459Y1457577D01*
X-2798697Y1456953D01*
X-2790149Y1448404D01*
X-2790147Y1448403D01*
X-2789866Y1448060D01*
X-2789522Y1447641D01*
X-2789058Y1446773D01*
X-2788772Y1445830D01*
X-2788676Y1444850D01*
X-2788676Y1444848D01*
Y1399952D01*
X-2788676Y1399950D01*
X-2788724Y1399460D01*
X-2788772Y1398970D01*
X-2788992Y1398247D01*
X-2789058Y1398027D01*
X-2789522Y1397159D01*
X-2790147Y1396397D01*
X-2798696Y1387849D01*
X-2798697Y1387847D01*
X-2799040Y1387566D01*
X-2799459Y1387223D01*
X-2800327Y1386758D01*
X-2801270Y1386472D01*
X-2802250Y1386376D01*
X-2802252Y1386376D01*
X-2850700D01*
X-2851680Y1386472D01*
X-2852623Y1386758D01*
X-2853491Y1387223D01*
X-2854253Y1387847D01*
X-2854877Y1388609D01*
X-2855342Y1389478D01*
X-2855628Y1390420D01*
X-2855724Y1391400D01*
Y1453400D01*
X-2855628Y1454380D01*
X-2855342Y1455322D01*
X-2854877Y1456191D01*
X-2854253Y1456953D01*
X-2853491Y1457577D01*
X-2852623Y1458042D01*
X-2851680Y1458328D01*
X-2850700Y1458424D01*
X-2802252D01*
X-2802250Y1458424D01*
X-2801760Y1458376D01*
D02*
G37*
G36*
X-2938148Y1458424D02*
X-2889700D01*
X-2888720Y1458328D01*
X-2887777Y1458042D01*
X-2886909Y1457577D01*
X-2886147Y1456953D01*
X-2885523Y1456191D01*
X-2885058Y1455322D01*
X-2884772Y1454380D01*
X-2884676Y1453400D01*
Y1391400D01*
X-2884772Y1390420D01*
X-2885058Y1389478D01*
X-2885523Y1388609D01*
X-2886147Y1387847D01*
X-2886909Y1387223D01*
X-2887777Y1386758D01*
X-2888720Y1386472D01*
X-2889700Y1386376D01*
X-2938148D01*
X-2938150Y1386376D01*
X-2939130Y1386472D01*
X-2940073Y1386758D01*
X-2940941Y1387223D01*
X-2941360Y1387566D01*
X-2941703Y1387847D01*
X-2941704Y1387849D01*
X-2950253Y1396397D01*
X-2950878Y1397159D01*
X-2951342Y1398027D01*
X-2951408Y1398247D01*
X-2951628Y1398970D01*
X-2951676Y1399460D01*
X-2951724Y1399950D01*
X-2951724Y1399952D01*
Y1444848D01*
X-2951724Y1444850D01*
X-2951628Y1445830D01*
X-2951342Y1446773D01*
X-2950878Y1447641D01*
X-2950534Y1448060D01*
X-2950253Y1448403D01*
X-2950251Y1448404D01*
X-2941703Y1456953D01*
X-2940941Y1457577D01*
X-2940073Y1458042D01*
X-2939853Y1458108D01*
X-2939130Y1458328D01*
X-2938640Y1458376D01*
X-2938150Y1458424D01*
X-2938148Y1458424D01*
D02*
G37*
G36*
X-1055811Y1157395D02*
X-1054505Y1157135D01*
X-1053244Y1156707D01*
X-1052049Y1156118D01*
X-1050942Y1155378D01*
X-1049940Y1154500D01*
X-1035000Y1139560D01*
X-1034122Y1138558D01*
X-1033382Y1137451D01*
X-1032793Y1136257D01*
X-1032365Y1134995D01*
X-1032105Y1133689D01*
X-1032018Y1132360D01*
Y1052300D01*
X-1032105Y1050971D01*
X-1032365Y1049665D01*
X-1032793Y1048404D01*
X-1033382Y1047209D01*
X-1034122Y1046102D01*
X-1035000Y1045101D01*
X-1036001Y1044222D01*
X-1037109Y1043483D01*
X-1038303Y1042893D01*
X-1039565Y1042465D01*
X-1040871Y1042205D01*
X-1042200Y1042118D01*
X-1142200D01*
X-1143529Y1042205D01*
X-1144835Y1042465D01*
X-1146097Y1042893D01*
X-1147291Y1043483D01*
X-1148399Y1044222D01*
X-1149400Y1045101D01*
X-1150278Y1046102D01*
X-1151018Y1047209D01*
X-1151607Y1048404D01*
X-1152035Y1049665D01*
X-1152295Y1050971D01*
X-1152382Y1052300D01*
Y1132360D01*
X-1152295Y1133689D01*
X-1152035Y1134995D01*
X-1151607Y1136257D01*
X-1151018Y1137451D01*
X-1150278Y1138558D01*
X-1149400Y1139560D01*
X-1134459Y1154500D01*
X-1133458Y1155378D01*
X-1132350Y1156118D01*
X-1131156Y1156707D01*
X-1129895Y1157135D01*
X-1128589Y1157395D01*
X-1127260Y1157482D01*
X-1057140D01*
X-1055811Y1157395D01*
D02*
G37*
G36*
X-1040871Y997395D02*
X-1039565Y997135D01*
X-1038303Y996707D01*
X-1037109Y996118D01*
X-1036001Y995378D01*
X-1035000Y994500D01*
X-1034122Y993498D01*
X-1033382Y992391D01*
X-1032793Y991196D01*
X-1032365Y989935D01*
X-1032105Y988629D01*
X-1032018Y987300D01*
X-1032018Y907240D01*
X-1032105Y905911D01*
X-1032365Y904605D01*
X-1032793Y903344D01*
X-1033382Y902149D01*
X-1034122Y901042D01*
X-1035000Y900041D01*
X-1049940Y885100D01*
X-1050942Y884222D01*
X-1052049Y883482D01*
X-1053244Y882893D01*
X-1054505Y882465D01*
X-1055811Y882205D01*
X-1057140Y882118D01*
X-1127260D01*
X-1128589Y882205D01*
X-1129895Y882465D01*
X-1131156Y882893D01*
X-1132351Y883482D01*
X-1133458Y884222D01*
X-1134459Y885100D01*
X-1149400Y900041D01*
X-1150278Y901042D01*
X-1151018Y902149D01*
X-1151607Y903344D01*
X-1152035Y904605D01*
X-1152295Y905911D01*
X-1152382Y907240D01*
Y987300D01*
X-1152295Y988629D01*
X-1152035Y989935D01*
X-1151607Y991196D01*
X-1151018Y992391D01*
X-1150278Y993498D01*
X-1149400Y994500D01*
X-1148399Y995378D01*
X-1147291Y996118D01*
X-1146097Y996707D01*
X-1144835Y997135D01*
X-1143529Y997395D01*
X-1142200Y997482D01*
X-1042200D01*
X-1040871Y997395D01*
D02*
G37*
G36*
X-2804678Y887583D02*
X-2804188Y887535D01*
X-2803465Y887315D01*
X-2803246Y887249D01*
X-2802377Y886785D01*
X-2801616Y886160D01*
X-2793067Y877611D01*
X-2793066Y877610D01*
X-2792784Y877267D01*
X-2792441Y876848D01*
X-2791977Y875980D01*
X-2791691Y875037D01*
X-2791594Y874057D01*
X-2791594Y874055D01*
Y829160D01*
X-2791594Y829157D01*
X-2791643Y828667D01*
X-2791691Y828177D01*
X-2791910Y827454D01*
X-2791977Y827234D01*
X-2792441Y826366D01*
X-2793066Y825604D01*
X-2801614Y817056D01*
X-2801616Y817054D01*
X-2801959Y816773D01*
X-2802377Y816430D01*
X-2803246Y815966D01*
X-2804188Y815680D01*
X-2805168Y815583D01*
X-2805171Y815583D01*
X-2853619D01*
X-2854599Y815680D01*
X-2855541Y815966D01*
X-2856410Y816430D01*
X-2857171Y817054D01*
X-2857796Y817816D01*
X-2858260Y818685D01*
X-2858546Y819627D01*
X-2858643Y820607D01*
Y882607D01*
X-2858546Y883587D01*
X-2858260Y884530D01*
X-2857796Y885398D01*
X-2857171Y886160D01*
X-2856410Y886784D01*
X-2855541Y887249D01*
X-2854599Y887535D01*
X-2853619Y887631D01*
X-2805171D01*
X-2805168Y887631D01*
X-2804678Y887583D01*
D02*
G37*
G36*
X-2941066Y887631D02*
X-2892618D01*
X-2891638Y887535D01*
X-2890696Y887249D01*
X-2889827Y886784D01*
X-2889066Y886160D01*
X-2888441Y885398D01*
X-2887977Y884530D01*
X-2887691Y883587D01*
X-2887594Y882607D01*
Y820607D01*
X-2887691Y819627D01*
X-2887977Y818685D01*
X-2888441Y817816D01*
X-2889066Y817054D01*
X-2889827Y816430D01*
X-2890696Y815966D01*
X-2891638Y815680D01*
X-2892618Y815583D01*
X-2941066D01*
X-2941069Y815583D01*
X-2942049Y815680D01*
X-2942991Y815966D01*
X-2943860Y816430D01*
X-2944278Y816773D01*
X-2944621Y817054D01*
X-2944623Y817056D01*
X-2953171Y825604D01*
X-2953796Y826366D01*
X-2954260Y827234D01*
X-2954327Y827454D01*
X-2954546Y828177D01*
X-2954594Y828667D01*
X-2954643Y829157D01*
X-2954643Y829160D01*
Y874055D01*
X-2954643Y874057D01*
X-2954546Y875037D01*
X-2954260Y875980D01*
X-2953796Y876848D01*
X-2953453Y877267D01*
X-2953171Y877610D01*
X-2953170Y877611D01*
X-2944621Y886160D01*
X-2943860Y886785D01*
X-2942991Y887249D01*
X-2942772Y887315D01*
X-2942049Y887535D01*
X-2941559Y887583D01*
X-2941069Y887631D01*
X-2941066Y887631D01*
D02*
G37*
G36*
X-2019711Y898295D02*
X-2018405Y898035D01*
X-2017144Y897607D01*
X-2015949Y897018D01*
X-2014842Y896278D01*
X-2013841Y895400D01*
X-1998900Y880460D01*
X-1998022Y879458D01*
X-1997282Y878351D01*
X-1996693Y877156D01*
X-1996265Y875895D01*
X-1996005Y874589D01*
X-1995918Y873260D01*
Y803140D01*
X-1996005Y801811D01*
X-1996265Y800505D01*
X-1996693Y799244D01*
X-1997282Y798049D01*
X-1998022Y796942D01*
X-1998900Y795941D01*
X-2013841Y781000D01*
X-2014842Y780122D01*
X-2015949Y779382D01*
X-2017144Y778793D01*
X-2018405Y778365D01*
X-2019711Y778105D01*
X-2021040Y778018D01*
X-2101100D01*
X-2102429Y778105D01*
X-2103735Y778365D01*
X-2104996Y778793D01*
X-2106191Y779382D01*
X-2107298Y780122D01*
X-2108300Y781000D01*
X-2109178Y782001D01*
X-2109918Y783109D01*
X-2110507Y784303D01*
X-2110935Y785565D01*
X-2111195Y786871D01*
X-2111282Y788200D01*
Y888200D01*
X-2111195Y889529D01*
X-2110935Y890835D01*
X-2110507Y892097D01*
X-2109918Y893291D01*
X-2109178Y894399D01*
X-2108300Y895400D01*
X-2107298Y896278D01*
X-2106191Y897018D01*
X-2104996Y897607D01*
X-2103735Y898035D01*
X-2102429Y898295D01*
X-2101100Y898382D01*
X-2021040Y898382D01*
X-2019711Y898295D01*
D02*
G37*
G36*
X-2164771Y898295D02*
X-2163465Y898035D01*
X-2162204Y897607D01*
X-2161009Y897018D01*
X-2159902Y896278D01*
X-2158900Y895400D01*
X-2158022Y894399D01*
X-2157282Y893291D01*
X-2156693Y892097D01*
X-2156265Y890835D01*
X-2156005Y889529D01*
X-2155918Y888200D01*
Y788200D01*
X-2156005Y786871D01*
X-2156265Y785565D01*
X-2156693Y784303D01*
X-2157282Y783109D01*
X-2158022Y782001D01*
X-2158900Y781000D01*
X-2159902Y780122D01*
X-2161009Y779382D01*
X-2162204Y778793D01*
X-2163465Y778365D01*
X-2164771Y778105D01*
X-2166100Y778018D01*
X-2246160D01*
X-2247489Y778105D01*
X-2248795Y778365D01*
X-2250056Y778793D01*
X-2251251Y779382D01*
X-2252358Y780122D01*
X-2253359Y781000D01*
X-2268300Y795941D01*
X-2269178Y796942D01*
X-2269918Y798050D01*
X-2270507Y799244D01*
X-2270935Y800505D01*
X-2271195Y801811D01*
X-2271282Y803140D01*
Y873260D01*
X-2271195Y874589D01*
X-2270935Y875895D01*
X-2270507Y877156D01*
X-2269918Y878351D01*
X-2269178Y879458D01*
X-2268300Y880460D01*
X-2253359Y895400D01*
X-2252358Y896278D01*
X-2251251Y897018D01*
X-2250056Y897607D01*
X-2248795Y898035D01*
X-2247489Y898295D01*
X-2246160Y898382D01*
X-2166100D01*
X-2164771Y898295D01*
D02*
G37*
G36*
X-1197035Y836063D02*
X-1195729Y835803D01*
X-1194468Y835375D01*
X-1193273Y834786D01*
X-1192166Y834046D01*
X-1191165Y833168D01*
X-1176224Y818227D01*
X-1175346Y817226D01*
X-1174606Y816118D01*
X-1174017Y814924D01*
X-1173589Y813663D01*
X-1173329Y812357D01*
X-1173242Y811028D01*
Y740908D01*
X-1173329Y739579D01*
X-1173589Y738273D01*
X-1174017Y737011D01*
X-1174606Y735817D01*
X-1175346Y734710D01*
X-1176224Y733708D01*
X-1191165Y718768D01*
X-1192166Y717890D01*
X-1193273Y717150D01*
X-1194468Y716561D01*
X-1195729Y716133D01*
X-1197035Y715873D01*
X-1198364Y715786D01*
X-1278424D01*
X-1279753Y715873D01*
X-1281059Y716133D01*
X-1282321Y716561D01*
X-1283515Y717150D01*
X-1284623Y717890D01*
X-1285624Y718768D01*
X-1286502Y719769D01*
X-1287242Y720877D01*
X-1287831Y722071D01*
X-1288259Y723333D01*
X-1288519Y724639D01*
X-1288606Y725968D01*
Y825968D01*
X-1288519Y827297D01*
X-1288259Y828603D01*
X-1287831Y829864D01*
X-1287242Y831059D01*
X-1286502Y832166D01*
X-1285624Y833168D01*
X-1284623Y834046D01*
X-1283515Y834786D01*
X-1282321Y835375D01*
X-1281059Y835803D01*
X-1279753Y836063D01*
X-1278424Y836150D01*
X-1198364D01*
X-1197035Y836063D01*
D02*
G37*
G36*
X-1539935Y836063D02*
X-1538629Y835803D01*
X-1537368Y835375D01*
X-1536173Y834786D01*
X-1535066Y834046D01*
X-1534065Y833168D01*
X-1519124Y818227D01*
X-1518246Y817226D01*
X-1517506Y816119D01*
X-1516917Y814924D01*
X-1516489Y813663D01*
X-1516229Y812357D01*
X-1516142Y811028D01*
Y740908D01*
X-1516229Y739579D01*
X-1516489Y738273D01*
X-1516917Y737012D01*
X-1517506Y735817D01*
X-1518246Y734710D01*
X-1519124Y733709D01*
X-1534065Y718768D01*
X-1535066Y717890D01*
X-1536173Y717150D01*
X-1537368Y716561D01*
X-1538629Y716133D01*
X-1539935Y715873D01*
X-1541264Y715786D01*
X-1621324D01*
X-1622653Y715873D01*
X-1623959Y716133D01*
X-1625221Y716561D01*
X-1626415Y717150D01*
X-1627523Y717890D01*
X-1628524Y718768D01*
X-1629402Y719769D01*
X-1630142Y720877D01*
X-1630731Y722071D01*
X-1631159Y723333D01*
X-1631419Y724639D01*
X-1631506Y725968D01*
Y825968D01*
X-1631419Y827297D01*
X-1631159Y828603D01*
X-1630731Y829864D01*
X-1630142Y831059D01*
X-1629402Y832166D01*
X-1628524Y833168D01*
X-1627523Y834046D01*
X-1626415Y834786D01*
X-1625221Y835375D01*
X-1623959Y835803D01*
X-1622653Y836063D01*
X-1621324Y836150D01*
X-1541264Y836150D01*
X-1539935Y836063D01*
D02*
G37*
G36*
X-1684995Y836063D02*
X-1683689Y835803D01*
X-1682428Y835375D01*
X-1681233Y834786D01*
X-1680126Y834046D01*
X-1679125Y833168D01*
X-1678247Y832166D01*
X-1677507Y831059D01*
X-1676917Y829864D01*
X-1676489Y828603D01*
X-1676230Y827297D01*
X-1676142Y825968D01*
Y725968D01*
X-1676230Y724639D01*
X-1676489Y723333D01*
X-1676917Y722071D01*
X-1677507Y720877D01*
X-1678247Y719769D01*
X-1679125Y718768D01*
X-1680126Y717890D01*
X-1681233Y717150D01*
X-1682428Y716561D01*
X-1683689Y716133D01*
X-1684995Y715873D01*
X-1686324Y715786D01*
X-1766384D01*
X-1767713Y715873D01*
X-1769019Y716133D01*
X-1770281Y716561D01*
X-1771475Y717150D01*
X-1772582Y717890D01*
X-1773584Y718768D01*
X-1788524Y733709D01*
X-1789402Y734710D01*
X-1790142Y735818D01*
X-1790731Y737012D01*
X-1791159Y738273D01*
X-1791419Y739579D01*
X-1791506Y740908D01*
Y811028D01*
X-1791419Y812357D01*
X-1791159Y813663D01*
X-1790731Y814924D01*
X-1790142Y816119D01*
X-1789402Y817226D01*
X-1788524Y818227D01*
X-1773584Y833168D01*
X-1772582Y834046D01*
X-1771475Y834786D01*
X-1770281Y835375D01*
X-1769019Y835803D01*
X-1767713Y836063D01*
X-1766384Y836150D01*
X-1686324D01*
X-1684995Y836063D01*
D02*
G37*
G36*
X-1342095D02*
X-1340789Y835803D01*
X-1339528Y835375D01*
X-1338333Y834786D01*
X-1337226Y834046D01*
X-1336225Y833168D01*
X-1335347Y832166D01*
X-1334607Y831059D01*
X-1334017Y829864D01*
X-1333589Y828603D01*
X-1333330Y827297D01*
X-1333242Y825968D01*
Y725968D01*
X-1333330Y724639D01*
X-1333589Y723333D01*
X-1334017Y722071D01*
X-1334607Y720877D01*
X-1335347Y719769D01*
X-1336225Y718768D01*
X-1337226Y717890D01*
X-1338333Y717150D01*
X-1339528Y716561D01*
X-1340789Y716133D01*
X-1342095Y715873D01*
X-1343424Y715786D01*
X-1423484Y715786D01*
X-1424813Y715873D01*
X-1426119Y716133D01*
X-1427381Y716561D01*
X-1428575Y717150D01*
X-1429682Y717890D01*
X-1430684Y718768D01*
X-1445624Y733708D01*
X-1446502Y734710D01*
X-1447242Y735817D01*
X-1447831Y737012D01*
X-1448259Y738273D01*
X-1448519Y739579D01*
X-1448606Y740908D01*
Y811028D01*
X-1448519Y812357D01*
X-1448259Y813663D01*
X-1447831Y814924D01*
X-1447242Y816119D01*
X-1446502Y817226D01*
X-1445624Y818227D01*
X-1430684Y833168D01*
X-1429682Y834046D01*
X-1428575Y834786D01*
X-1427380Y835375D01*
X-1426119Y835803D01*
X-1424813Y836063D01*
X-1423484Y836150D01*
X-1343424D01*
X-1342095Y836063D01*
D02*
G37*
G36*
X-2804938Y778363D02*
X-2804448Y778315D01*
X-2803725Y778095D01*
X-2803506Y778029D01*
X-2802637Y777565D01*
X-2801876Y776940D01*
X-2793327Y768391D01*
X-2793326Y768390D01*
X-2793044Y768047D01*
X-2792701Y767628D01*
X-2792237Y766760D01*
X-2791951Y765817D01*
X-2791854Y764837D01*
X-2791854Y764835D01*
Y719940D01*
X-2791854Y719937D01*
X-2791903Y719447D01*
X-2791951Y718957D01*
X-2792170Y718234D01*
X-2792237Y718014D01*
X-2792701Y717146D01*
X-2793326Y716384D01*
X-2801875Y707836D01*
X-2801876Y707834D01*
X-2802219Y707553D01*
X-2802637Y707210D01*
X-2803506Y706746D01*
X-2804448Y706460D01*
X-2805428Y706363D01*
X-2805431Y706363D01*
X-2853879D01*
X-2854859Y706460D01*
X-2855801Y706746D01*
X-2856670Y707210D01*
X-2857431Y707834D01*
X-2858056Y708596D01*
X-2858520Y709465D01*
X-2858806Y710407D01*
X-2858903Y711387D01*
Y773387D01*
X-2858806Y774367D01*
X-2858520Y775310D01*
X-2858056Y776178D01*
X-2857431Y776940D01*
X-2856670Y777564D01*
X-2855801Y778029D01*
X-2854859Y778315D01*
X-2853879Y778411D01*
X-2805431D01*
X-2805428Y778411D01*
X-2804938Y778363D01*
D02*
G37*
G36*
X-2941326Y778411D02*
X-2892878D01*
X-2891898Y778315D01*
X-2890956Y778029D01*
X-2890087Y777564D01*
X-2889326Y776940D01*
X-2888701Y776178D01*
X-2888237Y775310D01*
X-2887951Y774367D01*
X-2887854Y773387D01*
Y711387D01*
X-2887951Y710407D01*
X-2888237Y709465D01*
X-2888701Y708596D01*
X-2889326Y707834D01*
X-2890087Y707210D01*
X-2890956Y706746D01*
X-2891898Y706460D01*
X-2892878Y706363D01*
X-2941326D01*
X-2941329Y706363D01*
X-2942309Y706460D01*
X-2943251Y706746D01*
X-2944120Y707210D01*
X-2944538Y707553D01*
X-2944881Y707834D01*
X-2944883Y707836D01*
X-2953431Y716384D01*
X-2954056Y717146D01*
X-2954520Y718014D01*
X-2954587Y718234D01*
X-2954806Y718957D01*
X-2954854Y719447D01*
X-2954903Y719937D01*
X-2954903Y719940D01*
Y764835D01*
X-2954903Y764837D01*
X-2954806Y765817D01*
X-2954520Y766760D01*
X-2954056Y767628D01*
X-2953713Y768047D01*
X-2953431Y768390D01*
X-2953430Y768391D01*
X-2944881Y776940D01*
X-2944120Y777565D01*
X-2943251Y778029D01*
X-2943032Y778095D01*
X-2942309Y778315D01*
X-2941819Y778363D01*
X-2941329Y778411D01*
X-2941326Y778411D01*
D02*
G37*
G36*
X-4500391Y769775D02*
X-4499085Y769515D01*
X-4497823Y769087D01*
X-4496629Y768498D01*
X-4495522Y767758D01*
X-4494520Y766880D01*
X-4474520Y746880D01*
X-4473642Y745879D01*
X-4472902Y744771D01*
X-4472313Y743577D01*
X-4471885Y742316D01*
X-4471625Y741009D01*
X-4471538Y739680D01*
Y659680D01*
X-4471625Y658351D01*
X-4471885Y657045D01*
X-4472313Y655784D01*
X-4472902Y654589D01*
X-4473642Y653482D01*
X-4474520Y652480D01*
X-4475522Y651602D01*
X-4476629Y650862D01*
X-4477824Y650273D01*
X-4479085Y649845D01*
X-4480391Y649585D01*
X-4481720Y649498D01*
X-4626720D01*
X-4628049Y649585D01*
X-4629355Y649845D01*
X-4630616Y650273D01*
X-4631811Y650862D01*
X-4632918Y651602D01*
X-4633920Y652480D01*
X-4634798Y653482D01*
X-4635538Y654589D01*
X-4636127Y655784D01*
X-4636555Y657045D01*
X-4636815Y658351D01*
X-4636902Y659680D01*
Y739680D01*
X-4636815Y741009D01*
X-4636555Y742316D01*
X-4636127Y743577D01*
X-4635538Y744771D01*
X-4634798Y745879D01*
X-4633920Y746880D01*
X-4613920Y766880D01*
X-4612918Y767758D01*
X-4611811Y768498D01*
X-4610617Y769087D01*
X-4609355Y769515D01*
X-4608049Y769775D01*
X-4606720Y769862D01*
X-4501720D01*
X-4500391Y769775D01*
D02*
G37*
G36*
X-2289235Y709063D02*
X-2287929Y708803D01*
X-2286668Y708375D01*
X-2285473Y707786D01*
X-2284366Y707046D01*
X-2283365Y706168D01*
X-2268424Y691227D01*
X-2267546Y690226D01*
X-2266806Y689118D01*
X-2266217Y687924D01*
X-2265789Y686663D01*
X-2265529Y685357D01*
X-2265442Y684028D01*
Y613908D01*
X-2265529Y612579D01*
X-2265789Y611273D01*
X-2266217Y610011D01*
X-2266806Y608817D01*
X-2267546Y607710D01*
X-2268424Y606708D01*
X-2283365Y591768D01*
X-2284366Y590890D01*
X-2285473Y590150D01*
X-2286668Y589561D01*
X-2287929Y589133D01*
X-2289235Y588873D01*
X-2290564Y588786D01*
X-2370624D01*
X-2371953Y588873D01*
X-2373259Y589133D01*
X-2374521Y589561D01*
X-2375715Y590150D01*
X-2376823Y590890D01*
X-2377824Y591768D01*
X-2378702Y592769D01*
X-2379442Y593877D01*
X-2380031Y595071D01*
X-2380459Y596333D01*
X-2380719Y597639D01*
X-2380806Y598968D01*
Y698968D01*
X-2380719Y700297D01*
X-2380459Y701603D01*
X-2380031Y702864D01*
X-2379442Y704059D01*
X-2378702Y705166D01*
X-2377824Y706168D01*
X-2376823Y707046D01*
X-2375715Y707786D01*
X-2374521Y708375D01*
X-2373259Y708803D01*
X-2371953Y709063D01*
X-2370624Y709150D01*
X-2290564D01*
X-2289235Y709063D01*
D02*
G37*
G36*
X-6023035Y709063D02*
X-6021729Y708803D01*
X-6020468Y708375D01*
X-6019273Y707786D01*
X-6018166Y707046D01*
X-6017165Y706168D01*
X-6002224Y691227D01*
X-6001346Y690226D01*
X-6000606Y689119D01*
X-6000017Y687924D01*
X-5999589Y686663D01*
X-5999329Y685357D01*
X-5999242Y684028D01*
Y613908D01*
X-5999329Y612579D01*
X-5999589Y611273D01*
X-6000017Y610012D01*
X-6000606Y608817D01*
X-6001346Y607710D01*
X-6002224Y606709D01*
X-6017165Y591768D01*
X-6018166Y590890D01*
X-6019273Y590150D01*
X-6020468Y589561D01*
X-6021729Y589133D01*
X-6023035Y588873D01*
X-6024364Y588786D01*
X-6104424D01*
X-6105753Y588873D01*
X-6107059Y589133D01*
X-6108321Y589561D01*
X-6109515Y590150D01*
X-6110623Y590890D01*
X-6111624Y591768D01*
X-6112502Y592769D01*
X-6113242Y593877D01*
X-6113831Y595071D01*
X-6114259Y596333D01*
X-6114519Y597639D01*
X-6114606Y598968D01*
Y698968D01*
X-6114519Y700297D01*
X-6114259Y701603D01*
X-6113831Y702864D01*
X-6113242Y704059D01*
X-6112502Y705166D01*
X-6111624Y706168D01*
X-6110623Y707046D01*
X-6109515Y707786D01*
X-6108321Y708375D01*
X-6107059Y708803D01*
X-6105753Y709063D01*
X-6104424Y709150D01*
X-6024364Y709150D01*
X-6023035Y709063D01*
D02*
G37*
G36*
X-6168095Y709063D02*
X-6166789Y708803D01*
X-6165528Y708375D01*
X-6164333Y707786D01*
X-6163226Y707046D01*
X-6162225Y706168D01*
X-6161347Y705166D01*
X-6160607Y704059D01*
X-6160017Y702864D01*
X-6159589Y701603D01*
X-6159330Y700297D01*
X-6159242Y698968D01*
Y598968D01*
X-6159330Y597639D01*
X-6159589Y596333D01*
X-6160017Y595071D01*
X-6160607Y593877D01*
X-6161347Y592769D01*
X-6162225Y591768D01*
X-6163226Y590890D01*
X-6164333Y590150D01*
X-6165528Y589561D01*
X-6166789Y589133D01*
X-6168095Y588873D01*
X-6169424Y588786D01*
X-6249484D01*
X-6250813Y588873D01*
X-6252119Y589133D01*
X-6253381Y589561D01*
X-6254575Y590150D01*
X-6255682Y590890D01*
X-6256684Y591768D01*
X-6271624Y606709D01*
X-6272502Y607710D01*
X-6273242Y608818D01*
X-6273831Y610012D01*
X-6274259Y611273D01*
X-6274519Y612579D01*
X-6274606Y613908D01*
Y684028D01*
X-6274519Y685357D01*
X-6274259Y686663D01*
X-6273831Y687924D01*
X-6273242Y689119D01*
X-6272502Y690226D01*
X-6271624Y691227D01*
X-6256684Y706168D01*
X-6255682Y707046D01*
X-6254575Y707786D01*
X-6253381Y708375D01*
X-6252119Y708803D01*
X-6250813Y709063D01*
X-6249484Y709150D01*
X-6169424D01*
X-6168095Y709063D01*
D02*
G37*
G36*
X-2434295D02*
X-2432989Y708803D01*
X-2431728Y708375D01*
X-2430533Y707786D01*
X-2429426Y707046D01*
X-2428425Y706168D01*
X-2427547Y705166D01*
X-2426807Y704059D01*
X-2426217Y702864D01*
X-2425789Y701603D01*
X-2425530Y700297D01*
X-2425442Y698968D01*
Y598968D01*
X-2425530Y597639D01*
X-2425789Y596333D01*
X-2426217Y595071D01*
X-2426807Y593877D01*
X-2427547Y592769D01*
X-2428425Y591768D01*
X-2429426Y590890D01*
X-2430533Y590150D01*
X-2431728Y589561D01*
X-2432989Y589133D01*
X-2434295Y588873D01*
X-2435624Y588786D01*
X-2515684Y588786D01*
X-2517013Y588873D01*
X-2518319Y589133D01*
X-2519581Y589561D01*
X-2520775Y590150D01*
X-2521882Y590890D01*
X-2522884Y591768D01*
X-2537824Y606708D01*
X-2538702Y607710D01*
X-2539442Y608817D01*
X-2540031Y610012D01*
X-2540459Y611273D01*
X-2540719Y612579D01*
X-2540806Y613908D01*
Y684028D01*
X-2540719Y685357D01*
X-2540459Y686663D01*
X-2540031Y687924D01*
X-2539442Y689119D01*
X-2538702Y690226D01*
X-2537824Y691227D01*
X-2522884Y706168D01*
X-2521882Y707046D01*
X-2520775Y707786D01*
X-2519580Y708375D01*
X-2518319Y708803D01*
X-2517013Y709063D01*
X-2515684Y709150D01*
X-2435624D01*
X-2434295Y709063D01*
D02*
G37*
G36*
X-1171635Y632863D02*
X-1170329Y632603D01*
X-1169068Y632175D01*
X-1167873Y631586D01*
X-1166766Y630846D01*
X-1165765Y629968D01*
X-1150824Y615027D01*
X-1149946Y614026D01*
X-1149206Y612919D01*
X-1148617Y611724D01*
X-1148189Y610463D01*
X-1147929Y609157D01*
X-1147842Y607828D01*
Y537708D01*
X-1147929Y536379D01*
X-1148189Y535073D01*
X-1148617Y533812D01*
X-1149206Y532617D01*
X-1149946Y531510D01*
X-1150824Y530509D01*
X-1165765Y515568D01*
X-1166766Y514690D01*
X-1167873Y513950D01*
X-1169068Y513361D01*
X-1170329Y512933D01*
X-1171635Y512673D01*
X-1172964Y512586D01*
X-1253024D01*
X-1254353Y512673D01*
X-1255659Y512933D01*
X-1256921Y513361D01*
X-1258115Y513950D01*
X-1259223Y514690D01*
X-1260224Y515568D01*
X-1261102Y516569D01*
X-1261842Y517677D01*
X-1262431Y518871D01*
X-1262859Y520133D01*
X-1263119Y521439D01*
X-1263206Y522768D01*
Y622768D01*
X-1263119Y624097D01*
X-1262859Y625403D01*
X-1262431Y626664D01*
X-1261842Y627859D01*
X-1261102Y628966D01*
X-1260224Y629968D01*
X-1259223Y630846D01*
X-1258115Y631586D01*
X-1256921Y632175D01*
X-1255659Y632603D01*
X-1254353Y632863D01*
X-1253024Y632950D01*
X-1172964Y632950D01*
X-1171635Y632863D01*
D02*
G37*
G36*
X-1316695Y632863D02*
X-1315389Y632603D01*
X-1314128Y632175D01*
X-1312933Y631586D01*
X-1311826Y630846D01*
X-1310825Y629968D01*
X-1309947Y628966D01*
X-1309207Y627859D01*
X-1308617Y626664D01*
X-1308189Y625403D01*
X-1307930Y624097D01*
X-1307842Y622768D01*
Y522768D01*
X-1307930Y521439D01*
X-1308189Y520133D01*
X-1308617Y518871D01*
X-1309207Y517677D01*
X-1309947Y516569D01*
X-1310825Y515568D01*
X-1311826Y514690D01*
X-1312933Y513950D01*
X-1314128Y513361D01*
X-1315389Y512933D01*
X-1316695Y512673D01*
X-1318024Y512586D01*
X-1398084D01*
X-1399413Y512673D01*
X-1400719Y512933D01*
X-1401981Y513361D01*
X-1403175Y513950D01*
X-1404282Y514690D01*
X-1405284Y515568D01*
X-1420224Y530509D01*
X-1421102Y531510D01*
X-1421842Y532618D01*
X-1422431Y533812D01*
X-1422859Y535073D01*
X-1423119Y536379D01*
X-1423206Y537708D01*
Y607828D01*
X-1423119Y609157D01*
X-1422859Y610463D01*
X-1422431Y611724D01*
X-1421842Y612919D01*
X-1421102Y614026D01*
X-1420224Y615027D01*
X-1405284Y629968D01*
X-1404282Y630846D01*
X-1403175Y631586D01*
X-1401981Y632175D01*
X-1400719Y632603D01*
X-1399413Y632863D01*
X-1398084Y632950D01*
X-1318024D01*
X-1316695Y632863D01*
D02*
G37*
G36*
X-4480391Y579775D02*
X-4479085Y579515D01*
X-4477824Y579087D01*
X-4476629Y578498D01*
X-4475522Y577758D01*
X-4474520Y576880D01*
X-4473642Y575878D01*
X-4472902Y574771D01*
X-4472313Y573576D01*
X-4471885Y572315D01*
X-4471625Y571009D01*
X-4471538Y569680D01*
Y489680D01*
X-4471625Y488351D01*
X-4471885Y487044D01*
X-4472313Y485783D01*
X-4472902Y484589D01*
X-4473642Y483481D01*
X-4474520Y482480D01*
X-4494520Y462480D01*
X-4495522Y461602D01*
X-4496629Y460862D01*
X-4497823Y460273D01*
X-4499085Y459845D01*
X-4500391Y459585D01*
X-4501720Y459498D01*
X-4606720D01*
X-4608049Y459585D01*
X-4609355Y459845D01*
X-4610617Y460273D01*
X-4611811Y460862D01*
X-4612918Y461602D01*
X-4613920Y462480D01*
X-4633920Y482480D01*
X-4634798Y483481D01*
X-4635538Y484589D01*
X-4636127Y485783D01*
X-4636555Y487044D01*
X-4636815Y488351D01*
X-4636902Y489680D01*
Y569680D01*
X-4636815Y571009D01*
X-4636555Y572315D01*
X-4636127Y573576D01*
X-4635538Y574771D01*
X-4634798Y575878D01*
X-4633920Y576880D01*
X-4632918Y577758D01*
X-4631811Y578498D01*
X-4630616Y579087D01*
X-4629355Y579515D01*
X-4628049Y579775D01*
X-4626720Y579862D01*
X-4481720D01*
X-4480391Y579775D01*
D02*
G37*
G36*
X-2289235Y556663D02*
X-2287929Y556403D01*
X-2286668Y555975D01*
X-2285473Y555386D01*
X-2284366Y554646D01*
X-2283365Y553768D01*
X-2268424Y538827D01*
X-2267546Y537826D01*
X-2266806Y536719D01*
X-2266217Y535524D01*
X-2265789Y534263D01*
X-2265529Y532957D01*
X-2265442Y531628D01*
Y461508D01*
X-2265529Y460179D01*
X-2265789Y458873D01*
X-2266217Y457612D01*
X-2266806Y456417D01*
X-2267546Y455310D01*
X-2268424Y454309D01*
X-2283365Y439368D01*
X-2284366Y438490D01*
X-2285473Y437750D01*
X-2286668Y437161D01*
X-2287929Y436733D01*
X-2289235Y436473D01*
X-2290564Y436386D01*
X-2370624D01*
X-2371953Y436473D01*
X-2373259Y436733D01*
X-2374521Y437161D01*
X-2375715Y437750D01*
X-2376823Y438490D01*
X-2377824Y439368D01*
X-2378702Y440369D01*
X-2379442Y441477D01*
X-2380031Y442671D01*
X-2380459Y443933D01*
X-2380719Y445239D01*
X-2380806Y446568D01*
Y546568D01*
X-2380719Y547897D01*
X-2380459Y549203D01*
X-2380031Y550464D01*
X-2379442Y551659D01*
X-2378702Y552766D01*
X-2377824Y553768D01*
X-2376823Y554646D01*
X-2375715Y555386D01*
X-2374521Y555975D01*
X-2373259Y556403D01*
X-2371953Y556663D01*
X-2370624Y556750D01*
X-2290564Y556750D01*
X-2289235Y556663D01*
D02*
G37*
G36*
X-2434295Y556663D02*
X-2432989Y556403D01*
X-2431728Y555975D01*
X-2430533Y555386D01*
X-2429426Y554646D01*
X-2428425Y553768D01*
X-2427547Y552766D01*
X-2426807Y551659D01*
X-2426217Y550464D01*
X-2425789Y549203D01*
X-2425530Y547897D01*
X-2425442Y546568D01*
Y446568D01*
X-2425530Y445239D01*
X-2425789Y443933D01*
X-2426217Y442671D01*
X-2426807Y441477D01*
X-2427547Y440369D01*
X-2428425Y439368D01*
X-2429426Y438490D01*
X-2430533Y437750D01*
X-2431728Y437161D01*
X-2432989Y436733D01*
X-2434295Y436473D01*
X-2435624Y436386D01*
X-2515684D01*
X-2517013Y436473D01*
X-2518319Y436733D01*
X-2519581Y437161D01*
X-2520775Y437750D01*
X-2521882Y438490D01*
X-2522884Y439368D01*
X-2537824Y454309D01*
X-2538702Y455310D01*
X-2539442Y456418D01*
X-2540031Y457612D01*
X-2540459Y458873D01*
X-2540719Y460179D01*
X-2540806Y461508D01*
Y531628D01*
X-2540719Y532957D01*
X-2540459Y534263D01*
X-2540031Y535524D01*
X-2539442Y536719D01*
X-2538702Y537826D01*
X-2537824Y538827D01*
X-2522884Y553768D01*
X-2521882Y554646D01*
X-2520775Y555386D01*
X-2519581Y555975D01*
X-2518319Y556403D01*
X-2517013Y556663D01*
X-2515684Y556750D01*
X-2435624D01*
X-2434295Y556663D01*
D02*
G37*
G36*
X-1171635Y480463D02*
X-1170329Y480203D01*
X-1169068Y479775D01*
X-1167873Y479186D01*
X-1166766Y478446D01*
X-1165765Y477568D01*
X-1150824Y462627D01*
X-1149946Y461626D01*
X-1149206Y460519D01*
X-1148617Y459324D01*
X-1148189Y458063D01*
X-1147929Y456757D01*
X-1147842Y455428D01*
Y385308D01*
X-1147929Y383979D01*
X-1148189Y382673D01*
X-1148617Y381412D01*
X-1149206Y380217D01*
X-1149946Y379110D01*
X-1150824Y378109D01*
X-1165765Y363168D01*
X-1166766Y362290D01*
X-1167873Y361550D01*
X-1169068Y360961D01*
X-1170329Y360533D01*
X-1171635Y360273D01*
X-1172964Y360186D01*
X-1253024D01*
X-1254353Y360273D01*
X-1255659Y360533D01*
X-1256921Y360961D01*
X-1258115Y361550D01*
X-1259223Y362290D01*
X-1260224Y363168D01*
X-1261102Y364169D01*
X-1261842Y365277D01*
X-1262431Y366471D01*
X-1262859Y367733D01*
X-1263119Y369039D01*
X-1263206Y370368D01*
Y470368D01*
X-1263119Y471697D01*
X-1262859Y473003D01*
X-1262431Y474264D01*
X-1261842Y475459D01*
X-1261102Y476566D01*
X-1260224Y477568D01*
X-1259223Y478446D01*
X-1258115Y479186D01*
X-1256921Y479775D01*
X-1255659Y480203D01*
X-1254353Y480463D01*
X-1253024Y480550D01*
X-1172964Y480550D01*
X-1171635Y480463D01*
D02*
G37*
G36*
X-1316695Y480463D02*
X-1315389Y480203D01*
X-1314128Y479775D01*
X-1312933Y479186D01*
X-1311826Y478446D01*
X-1310825Y477568D01*
X-1309947Y476566D01*
X-1309207Y475459D01*
X-1308617Y474264D01*
X-1308189Y473003D01*
X-1307930Y471697D01*
X-1307842Y470368D01*
Y370368D01*
X-1307930Y369039D01*
X-1308189Y367733D01*
X-1308617Y366471D01*
X-1309207Y365277D01*
X-1309947Y364169D01*
X-1310825Y363168D01*
X-1311826Y362290D01*
X-1312933Y361550D01*
X-1314128Y360961D01*
X-1315389Y360533D01*
X-1316695Y360273D01*
X-1318024Y360186D01*
X-1398084D01*
X-1399413Y360273D01*
X-1400719Y360533D01*
X-1401981Y360961D01*
X-1403175Y361550D01*
X-1404282Y362290D01*
X-1405284Y363168D01*
X-1420224Y378109D01*
X-1421102Y379110D01*
X-1421842Y380218D01*
X-1422431Y381412D01*
X-1422859Y382673D01*
X-1423119Y383979D01*
X-1423206Y385308D01*
Y455428D01*
X-1423119Y456757D01*
X-1422859Y458063D01*
X-1422431Y459324D01*
X-1421842Y460519D01*
X-1421102Y461626D01*
X-1420224Y462627D01*
X-1405284Y477568D01*
X-1404282Y478446D01*
X-1403175Y479186D01*
X-1401981Y479775D01*
X-1400719Y480203D01*
X-1399413Y480463D01*
X-1398084Y480550D01*
X-1318024D01*
X-1316695Y480463D01*
D02*
G37*
G36*
X-5913945Y537763D02*
X-5912639Y537503D01*
X-5911378Y537075D01*
X-5910183Y536486D01*
X-5909076Y535746D01*
X-5908075Y534868D01*
X-5889325Y516118D01*
X-5888446Y515116D01*
X-5887707Y514009D01*
X-5887117Y512815D01*
X-5886689Y511553D01*
X-5886429Y510247D01*
X-5886342Y508918D01*
Y306418D01*
X-5886429Y305089D01*
X-5886689Y303783D01*
X-5887117Y302521D01*
X-5887706Y301327D01*
X-5888446Y300220D01*
X-5889325Y299218D01*
X-5908075Y280468D01*
X-5909076Y279590D01*
X-5910183Y278850D01*
X-5911378Y278261D01*
X-5912639Y277833D01*
X-5913945Y277573D01*
X-5915274Y277486D01*
X-6046524D01*
X-6047853Y277573D01*
X-6049160Y277833D01*
X-6050421Y278261D01*
X-6051615Y278850D01*
X-6052723Y279590D01*
X-6053724Y280468D01*
X-6054602Y281470D01*
X-6055342Y282577D01*
X-6055931Y283772D01*
X-6056359Y285033D01*
X-6056619Y286339D01*
X-6056706Y287668D01*
Y527668D01*
X-6056619Y528997D01*
X-6056359Y530303D01*
X-6055931Y531564D01*
X-6055342Y532759D01*
X-6054602Y533866D01*
X-6053724Y534868D01*
X-6052723Y535746D01*
X-6051615Y536486D01*
X-6050421Y537075D01*
X-6049160Y537503D01*
X-6047853Y537763D01*
X-6046524Y537850D01*
X-5915274D01*
X-5913945Y537763D01*
D02*
G37*
G36*
X-6175195D02*
X-6173889Y537503D01*
X-6172628Y537075D01*
X-6171433Y536486D01*
X-6170326Y535746D01*
X-6169324Y534868D01*
X-6168446Y533866D01*
X-6167706Y532759D01*
X-6167117Y531564D01*
X-6166689Y530303D01*
X-6166429Y528997D01*
X-6166342Y527668D01*
Y287668D01*
X-6166429Y286339D01*
X-6166689Y285033D01*
X-6167117Y283772D01*
X-6167706Y282577D01*
X-6168446Y281470D01*
X-6169324Y280468D01*
X-6170326Y279590D01*
X-6171433Y278850D01*
X-6172628Y278261D01*
X-6173889Y277833D01*
X-6175195Y277573D01*
X-6176524Y277486D01*
X-6307774D01*
X-6309103Y277573D01*
X-6310410Y277833D01*
X-6311671Y278261D01*
X-6312865Y278850D01*
X-6313973Y279590D01*
X-6314974Y280468D01*
X-6333724Y299218D01*
X-6334602Y300220D01*
X-6335342Y301327D01*
X-6335931Y302521D01*
X-6336359Y303783D01*
X-6336619Y305089D01*
X-6336706Y306418D01*
Y508918D01*
X-6336619Y510247D01*
X-6336359Y511553D01*
X-6335931Y512815D01*
X-6335342Y514009D01*
X-6334602Y515116D01*
X-6333724Y516118D01*
X-6314974Y534868D01*
X-6313973Y535746D01*
X-6312865Y536486D01*
X-6311671Y537075D01*
X-6310410Y537503D01*
X-6309103Y537763D01*
X-6307774Y537850D01*
X-6176524D01*
X-6175195Y537763D01*
D02*
G37*
G36*
X-2360084Y329344D02*
X-2359594Y329296D01*
X-2358871Y329076D01*
X-2358651Y329010D01*
X-2357783Y328545D01*
X-2357021Y327921D01*
X-2348473Y319372D01*
X-2348472Y319371D01*
X-2348190Y319028D01*
X-2347847Y318609D01*
X-2347383Y317741D01*
X-2347097Y316798D01*
X-2347000Y315818D01*
X-2347000Y315815D01*
Y270920D01*
X-2347000Y270918D01*
X-2347048Y270428D01*
X-2347097Y269938D01*
X-2347316Y269215D01*
X-2347383Y268995D01*
X-2347847Y268127D01*
X-2348472Y267365D01*
X-2357020Y258817D01*
X-2357021Y258815D01*
X-2357365Y258534D01*
X-2357783Y258190D01*
X-2358652Y257726D01*
X-2359594Y257440D01*
X-2360574Y257344D01*
X-2360577Y257344D01*
X-2409024D01*
X-2410005Y257440D01*
X-2410947Y257726D01*
X-2411816Y258191D01*
X-2412577Y258815D01*
X-2413202Y259577D01*
X-2413666Y260446D01*
X-2413952Y261388D01*
X-2414049Y262368D01*
Y324368D01*
X-2413952Y325348D01*
X-2413666Y326290D01*
X-2413202Y327159D01*
X-2412577Y327921D01*
X-2411816Y328545D01*
X-2410947Y329010D01*
X-2410005Y329296D01*
X-2409024Y329392D01*
X-2360577D01*
X-2360574Y329392D01*
X-2360084Y329344D01*
D02*
G37*
G36*
X-2496472Y329392D02*
X-2448024D01*
X-2447044Y329296D01*
X-2446102Y329010D01*
X-2445233Y328545D01*
X-2444471Y327921D01*
X-2443847Y327159D01*
X-2443382Y326290D01*
X-2443096Y325348D01*
X-2443000Y324368D01*
Y262368D01*
X-2443096Y261388D01*
X-2443382Y260446D01*
X-2443847Y259577D01*
X-2444471Y258815D01*
X-2445233Y258191D01*
X-2446102Y257726D01*
X-2447044Y257440D01*
X-2448024Y257344D01*
X-2496472D01*
X-2496474Y257344D01*
X-2497454Y257440D01*
X-2498397Y257726D01*
X-2499266Y258190D01*
X-2499684Y258534D01*
X-2500027Y258815D01*
X-2500028Y258817D01*
X-2508577Y267365D01*
X-2509202Y268127D01*
X-2509666Y268995D01*
X-2509732Y269215D01*
X-2509952Y269938D01*
X-2510000Y270428D01*
X-2510049Y270918D01*
X-2510048Y270920D01*
Y315815D01*
X-2510049Y315818D01*
X-2509952Y316798D01*
X-2509666Y317741D01*
X-2509202Y318609D01*
X-2508859Y319028D01*
X-2508577Y319371D01*
X-2508575Y319372D01*
X-2500027Y327921D01*
X-2499266Y328545D01*
X-2498397Y329010D01*
X-2498178Y329076D01*
X-2497454Y329296D01*
X-2496964Y329344D01*
X-2496474Y329392D01*
X-2496472Y329392D01*
D02*
G37*
G36*
X-2242072Y324092D02*
X-2208574D01*
X-2207594Y323996D01*
X-2206871Y323776D01*
X-2206651Y323710D01*
X-2205783Y323245D01*
X-2205021Y322621D01*
X-2205020Y322619D01*
X-2190772Y308371D01*
X-2190147Y307609D01*
X-2189683Y306741D01*
X-2189616Y306521D01*
X-2189397Y305798D01*
X-2189348Y305308D01*
X-2189300Y304818D01*
X-2189300Y304815D01*
Y262068D01*
X-2189397Y261088D01*
X-2189683Y260145D01*
X-2190147Y259277D01*
X-2190772Y258515D01*
X-2191533Y257891D01*
X-2192402Y257426D01*
X-2193344Y257140D01*
X-2194324Y257044D01*
X-2256324D01*
X-2257304Y257140D01*
X-2258247Y257426D01*
X-2259115Y257891D01*
X-2259877Y258515D01*
X-2260501Y259277D01*
X-2260966Y260145D01*
X-2261252Y261088D01*
X-2261348Y262068D01*
Y304818D01*
X-2261252Y305798D01*
X-2261032Y306521D01*
X-2260966Y306741D01*
X-2260501Y307609D01*
X-2259877Y308371D01*
X-2259875Y308372D01*
X-2245627Y322621D01*
X-2244865Y323245D01*
X-2243997Y323710D01*
X-2243778Y323776D01*
X-2243054Y323996D01*
X-2242564Y324044D01*
X-2242074Y324092D01*
X-2242072Y324092D01*
D02*
G37*
G36*
X-4499771Y376075D02*
X-4498465Y375815D01*
X-4497203Y375387D01*
X-4496009Y374798D01*
X-4494902Y374058D01*
X-4493900Y373180D01*
X-4474520Y353800D01*
X-4473642Y352798D01*
X-4472902Y351691D01*
X-4472313Y350497D01*
X-4471885Y349235D01*
X-4471625Y347929D01*
X-4471538Y346600D01*
Y265980D01*
X-4471625Y264651D01*
X-4471885Y263345D01*
X-4472313Y262084D01*
X-4472902Y260889D01*
X-4473642Y259782D01*
X-4474520Y258780D01*
X-4475522Y257902D01*
X-4476629Y257162D01*
X-4477824Y256573D01*
X-4479085Y256145D01*
X-4480391Y255885D01*
X-4481720Y255798D01*
X-4626720D01*
X-4628049Y255885D01*
X-4629355Y256145D01*
X-4630616Y256573D01*
X-4631811Y257162D01*
X-4632918Y257902D01*
X-4633920Y258780D01*
X-4634798Y259782D01*
X-4635538Y260889D01*
X-4636127Y262084D01*
X-4636555Y263345D01*
X-4636815Y264651D01*
X-4636902Y265980D01*
Y346600D01*
X-4636815Y347929D01*
X-4636555Y349235D01*
X-4636127Y350496D01*
X-4635538Y351691D01*
X-4634798Y352798D01*
X-4633920Y353799D01*
X-4614539Y373180D01*
X-4613538Y374058D01*
X-4612430Y374798D01*
X-4611236Y375387D01*
X-4609975Y375815D01*
X-4608668Y376075D01*
X-4607340Y376162D01*
X-4501100D01*
X-4499771Y376075D01*
D02*
G37*
G36*
X-1218635Y315363D02*
X-1217329Y315103D01*
X-1216068Y314675D01*
X-1214873Y314086D01*
X-1213766Y313346D01*
X-1212765Y312468D01*
X-1197824Y297527D01*
X-1196946Y296526D01*
X-1196206Y295419D01*
X-1195617Y294224D01*
X-1195189Y292963D01*
X-1194929Y291657D01*
X-1194842Y290328D01*
Y220208D01*
X-1194929Y218879D01*
X-1195189Y217573D01*
X-1195617Y216312D01*
X-1196206Y215117D01*
X-1196946Y214010D01*
X-1197824Y213009D01*
X-1212765Y198068D01*
X-1213766Y197190D01*
X-1214873Y196450D01*
X-1216068Y195861D01*
X-1217329Y195433D01*
X-1218635Y195173D01*
X-1219964Y195086D01*
X-1300024D01*
X-1301353Y195173D01*
X-1302659Y195433D01*
X-1303920Y195861D01*
X-1305115Y196450D01*
X-1306222Y197190D01*
X-1307224Y198068D01*
X-1308102Y199069D01*
X-1308842Y200177D01*
X-1309431Y201371D01*
X-1309859Y202633D01*
X-1310119Y203939D01*
X-1310206Y205268D01*
Y305268D01*
X-1310119Y306597D01*
X-1309859Y307903D01*
X-1309431Y309164D01*
X-1308842Y310359D01*
X-1308102Y311466D01*
X-1307224Y312468D01*
X-1306222Y313346D01*
X-1305115Y314086D01*
X-1303920Y314675D01*
X-1302659Y315103D01*
X-1301353Y315363D01*
X-1300024Y315450D01*
X-1219964Y315450D01*
X-1218635Y315363D01*
D02*
G37*
G36*
X-1363695Y315363D02*
X-1362389Y315103D01*
X-1361128Y314675D01*
X-1359933Y314086D01*
X-1358826Y313346D01*
X-1357825Y312468D01*
X-1356946Y311466D01*
X-1356207Y310359D01*
X-1355617Y309164D01*
X-1355189Y307903D01*
X-1354929Y306597D01*
X-1354842Y305268D01*
Y205268D01*
X-1354929Y203939D01*
X-1355189Y202633D01*
X-1355617Y201371D01*
X-1356207Y200177D01*
X-1356946Y199069D01*
X-1357825Y198068D01*
X-1358826Y197190D01*
X-1359933Y196450D01*
X-1361128Y195861D01*
X-1362389Y195433D01*
X-1363695Y195173D01*
X-1365024Y195086D01*
X-1445084D01*
X-1446413Y195173D01*
X-1447719Y195433D01*
X-1448981Y195861D01*
X-1450175Y196450D01*
X-1451282Y197190D01*
X-1452284Y198068D01*
X-1467224Y213009D01*
X-1468102Y214010D01*
X-1468842Y215118D01*
X-1469431Y216312D01*
X-1469859Y217573D01*
X-1470119Y218879D01*
X-1470206Y220208D01*
Y290328D01*
X-1470119Y291657D01*
X-1469859Y292963D01*
X-1469431Y294224D01*
X-1468842Y295419D01*
X-1468102Y296526D01*
X-1467224Y297527D01*
X-1452284Y312468D01*
X-1451282Y313346D01*
X-1450175Y314086D01*
X-1448981Y314675D01*
X-1447719Y315103D01*
X-1446413Y315363D01*
X-1445084Y315450D01*
X-1365024D01*
X-1363695Y315363D01*
D02*
G37*
G36*
X-7040445Y420963D02*
X-7039139Y420703D01*
X-7037877Y420275D01*
X-7036683Y419686D01*
X-7035576Y418946D01*
X-7034574Y418068D01*
X-6975825Y359318D01*
X-6974946Y358317D01*
X-6974207Y357209D01*
X-6973617Y356015D01*
X-6973189Y354753D01*
X-6972929Y353447D01*
X-6972842Y352118D01*
Y234618D01*
X-6972929Y233289D01*
X-6973189Y231983D01*
X-6973617Y230721D01*
X-6974207Y229527D01*
X-6974946Y228419D01*
X-6975825Y227418D01*
X-7034574Y168668D01*
X-7035576Y167790D01*
X-7036683Y167050D01*
X-7037877Y166461D01*
X-7039139Y166033D01*
X-7040445Y165773D01*
X-7041774Y165686D01*
X-7413024D01*
X-7414353Y165773D01*
X-7415660Y166033D01*
X-7416921Y166461D01*
X-7418115Y167050D01*
X-7419223Y167790D01*
X-7420224Y168668D01*
X-7421102Y169669D01*
X-7421842Y170777D01*
X-7422431Y171971D01*
X-7422859Y173233D01*
X-7423119Y174539D01*
X-7423206Y175868D01*
Y410868D01*
X-7423119Y412197D01*
X-7422859Y413503D01*
X-7422431Y414764D01*
X-7421842Y415959D01*
X-7421102Y417066D01*
X-7420224Y418068D01*
X-7419223Y418946D01*
X-7418115Y419686D01*
X-7416921Y420275D01*
X-7415660Y420703D01*
X-7414353Y420963D01*
X-7413024Y421050D01*
X-7041774D01*
X-7040445Y420963D01*
D02*
G37*
G36*
X-7856695D02*
X-7855389Y420703D01*
X-7854128Y420275D01*
X-7852933Y419686D01*
X-7851826Y418946D01*
X-7850825Y418068D01*
X-7849946Y417066D01*
X-7849207Y415959D01*
X-7848617Y414764D01*
X-7848189Y413503D01*
X-7847929Y412197D01*
X-7847842Y410868D01*
Y175868D01*
X-7847929Y174539D01*
X-7848189Y173233D01*
X-7848617Y171971D01*
X-7849207Y170777D01*
X-7849946Y169669D01*
X-7850825Y168668D01*
X-7851826Y167790D01*
X-7852933Y167050D01*
X-7854128Y166461D01*
X-7855389Y166033D01*
X-7856695Y165773D01*
X-7858024Y165686D01*
X-8229274D01*
X-8230603Y165773D01*
X-8231910Y166033D01*
X-8233171Y166461D01*
X-8234365Y167050D01*
X-8235473Y167790D01*
X-8236474Y168668D01*
X-8295224Y227418D01*
X-8296102Y228419D01*
X-8296842Y229527D01*
X-8297431Y230721D01*
X-8297859Y231983D01*
X-8298119Y233289D01*
X-8298206Y234618D01*
Y352118D01*
X-8298119Y353447D01*
X-8297859Y354753D01*
X-8297431Y356015D01*
X-8296842Y357209D01*
X-8296102Y358317D01*
X-8295224Y359318D01*
X-8236474Y418068D01*
X-8235473Y418946D01*
X-8234365Y419686D01*
X-8233171Y420275D01*
X-8231910Y420703D01*
X-8230603Y420963D01*
X-8229274Y421050D01*
X-7858024D01*
X-7856695Y420963D01*
D02*
G37*
G36*
X-2193344Y227996D02*
X-2192402Y227710D01*
X-2191533Y227245D01*
X-2190772Y226621D01*
X-2190147Y225859D01*
X-2189683Y224991D01*
X-2189397Y224048D01*
X-2189300Y223068D01*
Y180320D01*
X-2189300Y180318D01*
X-2189348Y179828D01*
X-2189397Y179338D01*
X-2189616Y178615D01*
X-2189683Y178395D01*
X-2190147Y177527D01*
X-2190772Y176765D01*
X-2205020Y162517D01*
X-2205021Y162515D01*
X-2205783Y161891D01*
X-2206651Y161426D01*
X-2206871Y161360D01*
X-2207594Y161140D01*
X-2208574Y161044D01*
X-2242072D01*
X-2242074Y161044D01*
X-2242564Y161092D01*
X-2243054Y161140D01*
X-2243778Y161360D01*
X-2243997Y161426D01*
X-2244865Y161890D01*
X-2245627Y162515D01*
X-2259875Y176764D01*
X-2259877Y176765D01*
X-2260501Y177527D01*
X-2260966Y178395D01*
X-2261032Y178615D01*
X-2261252Y179338D01*
X-2261348Y180318D01*
Y223068D01*
X-2261252Y224048D01*
X-2260966Y224991D01*
X-2260501Y225859D01*
X-2259877Y226621D01*
X-2259115Y227245D01*
X-2258247Y227710D01*
X-2257304Y227996D01*
X-2256324Y228092D01*
X-2194324D01*
X-2193344Y227996D01*
D02*
G37*
G36*
X-2360084Y227744D02*
X-2359594Y227696D01*
X-2358871Y227476D01*
X-2358651Y227410D01*
X-2357783Y226945D01*
X-2357021Y226321D01*
X-2348473Y217772D01*
X-2348472Y217771D01*
X-2348190Y217428D01*
X-2347847Y217009D01*
X-2347383Y216141D01*
X-2347097Y215198D01*
X-2347000Y214218D01*
X-2347000Y214215D01*
Y169320D01*
X-2347000Y169318D01*
X-2347048Y168828D01*
X-2347097Y168338D01*
X-2347316Y167615D01*
X-2347383Y167395D01*
X-2347847Y166527D01*
X-2348472Y165765D01*
X-2357020Y157217D01*
X-2357021Y157215D01*
X-2357365Y156934D01*
X-2357783Y156590D01*
X-2358652Y156126D01*
X-2359594Y155840D01*
X-2360574Y155744D01*
X-2360577Y155744D01*
X-2409024D01*
X-2410005Y155840D01*
X-2410947Y156126D01*
X-2411816Y156591D01*
X-2412577Y157215D01*
X-2413202Y157977D01*
X-2413666Y158846D01*
X-2413952Y159788D01*
X-2414049Y160768D01*
Y222768D01*
X-2413952Y223748D01*
X-2413666Y224690D01*
X-2413202Y225559D01*
X-2412577Y226321D01*
X-2411816Y226945D01*
X-2410947Y227410D01*
X-2410005Y227696D01*
X-2409024Y227792D01*
X-2360577D01*
X-2360574Y227792D01*
X-2360084Y227744D01*
D02*
G37*
G36*
X-2496472Y227792D02*
X-2448024D01*
X-2447044Y227696D01*
X-2446102Y227410D01*
X-2445233Y226945D01*
X-2444471Y226321D01*
X-2443847Y225559D01*
X-2443382Y224690D01*
X-2443096Y223748D01*
X-2443000Y222768D01*
Y160768D01*
X-2443096Y159788D01*
X-2443382Y158846D01*
X-2443847Y157977D01*
X-2444471Y157215D01*
X-2445233Y156591D01*
X-2446102Y156126D01*
X-2447044Y155840D01*
X-2448024Y155744D01*
X-2496472D01*
X-2496474Y155744D01*
X-2497454Y155840D01*
X-2498397Y156126D01*
X-2499266Y156590D01*
X-2499684Y156934D01*
X-2500027Y157215D01*
X-2500028Y157217D01*
X-2508577Y165765D01*
X-2509202Y166527D01*
X-2509666Y167395D01*
X-2509732Y167615D01*
X-2509952Y168338D01*
X-2510000Y168828D01*
X-2510049Y169318D01*
X-2510048Y169320D01*
Y214215D01*
X-2510049Y214218D01*
X-2509952Y215198D01*
X-2509666Y216141D01*
X-2509202Y217009D01*
X-2508859Y217428D01*
X-2508577Y217771D01*
X-2508575Y217772D01*
X-2500027Y226321D01*
X-2499266Y226945D01*
X-2498397Y227410D01*
X-2498178Y227476D01*
X-2497454Y227696D01*
X-2496964Y227744D01*
X-2496474Y227792D01*
X-2496472Y227792D01*
D02*
G37*
G36*
X-4480391Y186075D02*
X-4479085Y185815D01*
X-4477824Y185387D01*
X-4476629Y184798D01*
X-4475522Y184058D01*
X-4474520Y183180D01*
X-4473642Y182178D01*
X-4472902Y181071D01*
X-4472313Y179876D01*
X-4471885Y178615D01*
X-4471625Y177309D01*
X-4471538Y175980D01*
Y95360D01*
X-4471625Y94031D01*
X-4471885Y92725D01*
X-4472313Y91463D01*
X-4472902Y90269D01*
X-4473642Y89162D01*
X-4474520Y88160D01*
X-4493901Y68780D01*
X-4494902Y67902D01*
X-4496009Y67162D01*
X-4497204Y66573D01*
X-4498465Y66145D01*
X-4499771Y65885D01*
X-4501100Y65798D01*
X-4607340D01*
X-4608668Y65885D01*
X-4609975Y66145D01*
X-4611236Y66573D01*
X-4612430Y67162D01*
X-4613538Y67902D01*
X-4614539Y68780D01*
X-4633920Y88160D01*
X-4634798Y89162D01*
X-4635538Y90269D01*
X-4636127Y91464D01*
X-4636555Y92725D01*
X-4636815Y94031D01*
X-4636902Y95360D01*
Y175980D01*
X-4636815Y177309D01*
X-4636555Y178615D01*
X-4636127Y179876D01*
X-4635538Y181071D01*
X-4634798Y182178D01*
X-4633920Y183180D01*
X-4632918Y184058D01*
X-4631811Y184798D01*
X-4630616Y185387D01*
X-4629355Y185815D01*
X-4628049Y186075D01*
X-4626720Y186162D01*
X-4481720D01*
X-4480391Y186075D01*
D02*
G37*
G36*
X-917635Y162963D02*
X-916329Y162703D01*
X-915068Y162275D01*
X-913873Y161686D01*
X-912766Y160946D01*
X-911765Y160068D01*
X-896824Y145127D01*
X-895946Y144126D01*
X-895206Y143019D01*
X-894617Y141824D01*
X-894189Y140563D01*
X-893929Y139257D01*
X-893842Y137928D01*
Y67808D01*
X-893929Y66479D01*
X-894189Y65173D01*
X-894617Y63912D01*
X-895206Y62717D01*
X-895946Y61610D01*
X-896824Y60609D01*
X-911765Y45668D01*
X-912766Y44790D01*
X-913873Y44050D01*
X-915068Y43461D01*
X-916329Y43033D01*
X-917635Y42773D01*
X-918964Y42686D01*
X-999024D01*
X-1000353Y42773D01*
X-1001659Y43033D01*
X-1002921Y43461D01*
X-1004115Y44050D01*
X-1005223Y44790D01*
X-1006224Y45668D01*
X-1007102Y46669D01*
X-1007842Y47777D01*
X-1008431Y48971D01*
X-1008859Y50233D01*
X-1009119Y51539D01*
X-1009206Y52868D01*
Y152868D01*
X-1009119Y154197D01*
X-1008859Y155503D01*
X-1008431Y156764D01*
X-1007842Y157959D01*
X-1007102Y159066D01*
X-1006224Y160068D01*
X-1005223Y160946D01*
X-1004115Y161686D01*
X-1002921Y162275D01*
X-1001659Y162703D01*
X-1000353Y162963D01*
X-999024Y163050D01*
X-918964Y163050D01*
X-917635Y162963D01*
D02*
G37*
G36*
X-1062695Y162963D02*
X-1061389Y162703D01*
X-1060128Y162275D01*
X-1058933Y161686D01*
X-1057826Y160946D01*
X-1056825Y160068D01*
X-1055947Y159066D01*
X-1055207Y157959D01*
X-1054617Y156764D01*
X-1054189Y155503D01*
X-1053930Y154197D01*
X-1053842Y152868D01*
Y52868D01*
X-1053930Y51539D01*
X-1054189Y50233D01*
X-1054617Y48971D01*
X-1055207Y47777D01*
X-1055947Y46669D01*
X-1056825Y45668D01*
X-1057826Y44790D01*
X-1058933Y44050D01*
X-1060128Y43461D01*
X-1061389Y43033D01*
X-1062695Y42773D01*
X-1064024Y42686D01*
X-1144084D01*
X-1145413Y42773D01*
X-1146719Y43033D01*
X-1147981Y43461D01*
X-1149175Y44050D01*
X-1150282Y44790D01*
X-1151284Y45668D01*
X-1166224Y60609D01*
X-1167102Y61610D01*
X-1167842Y62718D01*
X-1168431Y63912D01*
X-1168859Y65173D01*
X-1169119Y66479D01*
X-1169206Y67808D01*
Y137928D01*
X-1169119Y139257D01*
X-1168859Y140563D01*
X-1168431Y141824D01*
X-1167842Y143019D01*
X-1167102Y144126D01*
X-1166224Y145127D01*
X-1151284Y160068D01*
X-1150282Y160946D01*
X-1149175Y161686D01*
X-1147981Y162275D01*
X-1146719Y162703D01*
X-1145413Y162963D01*
X-1144084Y163050D01*
X-1064024D01*
X-1062695Y162963D01*
D02*
G37*
G36*
X-1222435Y162963D02*
X-1221129Y162703D01*
X-1219868Y162275D01*
X-1218673Y161686D01*
X-1217566Y160946D01*
X-1216565Y160068D01*
X-1201624Y145127D01*
X-1200746Y144126D01*
X-1200006Y143019D01*
X-1199417Y141824D01*
X-1198989Y140563D01*
X-1198729Y139257D01*
X-1198642Y137928D01*
Y67808D01*
X-1198729Y66479D01*
X-1198989Y65173D01*
X-1199417Y63912D01*
X-1200006Y62717D01*
X-1200746Y61610D01*
X-1201624Y60609D01*
X-1216565Y45668D01*
X-1217566Y44790D01*
X-1218673Y44050D01*
X-1219868Y43461D01*
X-1221129Y43033D01*
X-1222435Y42773D01*
X-1223764Y42686D01*
X-1303824D01*
X-1305153Y42773D01*
X-1306459Y43033D01*
X-1307721Y43461D01*
X-1308915Y44050D01*
X-1310023Y44790D01*
X-1311024Y45668D01*
X-1311902Y46669D01*
X-1312642Y47777D01*
X-1313231Y48971D01*
X-1313659Y50233D01*
X-1313919Y51539D01*
X-1314006Y52868D01*
Y152868D01*
X-1313919Y154197D01*
X-1313659Y155503D01*
X-1313231Y156764D01*
X-1312642Y157959D01*
X-1311902Y159066D01*
X-1311024Y160068D01*
X-1310023Y160946D01*
X-1308915Y161686D01*
X-1307721Y162275D01*
X-1306459Y162703D01*
X-1305153Y162963D01*
X-1303824Y163050D01*
X-1223764Y163050D01*
X-1222435Y162963D01*
D02*
G37*
G36*
X-1367495Y162963D02*
X-1366189Y162703D01*
X-1364928Y162275D01*
X-1363733Y161686D01*
X-1362626Y160946D01*
X-1361625Y160068D01*
X-1360747Y159066D01*
X-1360007Y157959D01*
X-1359417Y156764D01*
X-1358989Y155503D01*
X-1358730Y154197D01*
X-1358642Y152868D01*
Y52868D01*
X-1358730Y51539D01*
X-1358989Y50233D01*
X-1359417Y48971D01*
X-1360007Y47777D01*
X-1360747Y46669D01*
X-1361625Y45668D01*
X-1362626Y44790D01*
X-1363733Y44050D01*
X-1364928Y43461D01*
X-1366189Y43033D01*
X-1367495Y42773D01*
X-1368824Y42686D01*
X-1448884D01*
X-1450213Y42773D01*
X-1451519Y43033D01*
X-1452781Y43461D01*
X-1453975Y44050D01*
X-1455082Y44790D01*
X-1456084Y45668D01*
X-1471024Y60609D01*
X-1471902Y61610D01*
X-1472642Y62718D01*
X-1473231Y63912D01*
X-1473659Y65173D01*
X-1473919Y66479D01*
X-1474006Y67808D01*
Y137928D01*
X-1473919Y139257D01*
X-1473659Y140563D01*
X-1473231Y141824D01*
X-1472642Y143019D01*
X-1471902Y144126D01*
X-1471024Y145127D01*
X-1456084Y160068D01*
X-1455082Y160946D01*
X-1453975Y161686D01*
X-1452781Y162275D01*
X-1451519Y162703D01*
X-1450213Y162963D01*
X-1448884Y163050D01*
X-1368824D01*
X-1367495Y162963D01*
D02*
G37*
G36*
X-2301935Y48663D02*
X-2300629Y48403D01*
X-2299368Y47975D01*
X-2298173Y47386D01*
X-2297066Y46646D01*
X-2296065Y45768D01*
X-2281124Y30827D01*
X-2280246Y29826D01*
X-2279506Y28718D01*
X-2278917Y27524D01*
X-2278489Y26263D01*
X-2278229Y24957D01*
X-2278142Y23628D01*
Y-46492D01*
X-2278229Y-47821D01*
X-2278489Y-49127D01*
X-2278917Y-50389D01*
X-2279506Y-51583D01*
X-2280246Y-52690D01*
X-2281124Y-53692D01*
X-2296065Y-68632D01*
X-2297066Y-69510D01*
X-2298173Y-70250D01*
X-2299368Y-70839D01*
X-2300629Y-71267D01*
X-2301935Y-71527D01*
X-2303264Y-71614D01*
X-2383324D01*
X-2384653Y-71527D01*
X-2385959Y-71267D01*
X-2387221Y-70839D01*
X-2388415Y-70250D01*
X-2389523Y-69510D01*
X-2390524Y-68632D01*
X-2391402Y-67631D01*
X-2392142Y-66523D01*
X-2392731Y-65329D01*
X-2393159Y-64067D01*
X-2393419Y-62761D01*
X-2393506Y-61432D01*
Y38568D01*
X-2393419Y39897D01*
X-2393159Y41203D01*
X-2392731Y42464D01*
X-2392142Y43659D01*
X-2391402Y44766D01*
X-2390524Y45768D01*
X-2389523Y46646D01*
X-2388415Y47386D01*
X-2387221Y47975D01*
X-2385959Y48403D01*
X-2384653Y48663D01*
X-2383324Y48750D01*
X-2303264D01*
X-2301935Y48663D01*
D02*
G37*
G36*
X-2446995D02*
X-2445689Y48403D01*
X-2444428Y47975D01*
X-2443233Y47386D01*
X-2442126Y46646D01*
X-2441125Y45768D01*
X-2440247Y44766D01*
X-2439507Y43659D01*
X-2438917Y42464D01*
X-2438489Y41203D01*
X-2438230Y39897D01*
X-2438142Y38568D01*
Y-61432D01*
X-2438230Y-62761D01*
X-2438489Y-64067D01*
X-2438917Y-65329D01*
X-2439507Y-66523D01*
X-2440247Y-67631D01*
X-2441125Y-68632D01*
X-2442126Y-69510D01*
X-2443233Y-70250D01*
X-2444428Y-70839D01*
X-2445689Y-71267D01*
X-2446995Y-71527D01*
X-2448324Y-71614D01*
X-2528384Y-71614D01*
X-2529713Y-71527D01*
X-2531019Y-71267D01*
X-2532281Y-70839D01*
X-2533475Y-70250D01*
X-2534582Y-69510D01*
X-2535584Y-68632D01*
X-2550524Y-53692D01*
X-2551402Y-52690D01*
X-2552142Y-51583D01*
X-2552731Y-50388D01*
X-2553159Y-49127D01*
X-2553419Y-47821D01*
X-2553506Y-46492D01*
Y23628D01*
X-2553419Y24957D01*
X-2553159Y26263D01*
X-2552731Y27524D01*
X-2552142Y28719D01*
X-2551402Y29826D01*
X-2550524Y30827D01*
X-2535584Y45768D01*
X-2534582Y46646D01*
X-2533475Y47386D01*
X-2532280Y47975D01*
X-2531019Y48403D01*
X-2529713Y48663D01*
X-2528384Y48750D01*
X-2448324D01*
X-2446995Y48663D01*
D02*
G37*
G36*
X-5913945Y182163D02*
X-5912639Y181903D01*
X-5911378Y181475D01*
X-5910183Y180886D01*
X-5909076Y180146D01*
X-5908075Y179268D01*
X-5889325Y160518D01*
X-5888446Y159516D01*
X-5887707Y158409D01*
X-5887117Y157215D01*
X-5886689Y155953D01*
X-5886429Y154647D01*
X-5886342Y153318D01*
Y-49182D01*
X-5886429Y-50511D01*
X-5886689Y-51817D01*
X-5887117Y-53079D01*
X-5887706Y-54273D01*
X-5888446Y-55380D01*
X-5889325Y-56382D01*
X-5908075Y-75132D01*
X-5909076Y-76010D01*
X-5910183Y-76750D01*
X-5911378Y-77339D01*
X-5912639Y-77767D01*
X-5913945Y-78027D01*
X-5915274Y-78114D01*
X-6046524D01*
X-6047853Y-78027D01*
X-6049160Y-77767D01*
X-6050421Y-77339D01*
X-6051615Y-76750D01*
X-6052723Y-76010D01*
X-6053724Y-75132D01*
X-6054602Y-74130D01*
X-6055342Y-73023D01*
X-6055931Y-71828D01*
X-6056359Y-70567D01*
X-6056619Y-69261D01*
X-6056706Y-67932D01*
Y172068D01*
X-6056619Y173397D01*
X-6056359Y174703D01*
X-6055931Y175964D01*
X-6055342Y177159D01*
X-6054602Y178266D01*
X-6053724Y179268D01*
X-6052723Y180146D01*
X-6051615Y180886D01*
X-6050421Y181475D01*
X-6049160Y181903D01*
X-6047853Y182163D01*
X-6046524Y182250D01*
X-5915274D01*
X-5913945Y182163D01*
D02*
G37*
G36*
X-6175195D02*
X-6173889Y181903D01*
X-6172628Y181475D01*
X-6171433Y180886D01*
X-6170326Y180146D01*
X-6169324Y179268D01*
X-6168446Y178266D01*
X-6167706Y177159D01*
X-6167117Y175964D01*
X-6166689Y174703D01*
X-6166429Y173397D01*
X-6166342Y172068D01*
Y-67932D01*
X-6166429Y-69261D01*
X-6166689Y-70567D01*
X-6167117Y-71828D01*
X-6167706Y-73023D01*
X-6168446Y-74130D01*
X-6169324Y-75132D01*
X-6170326Y-76010D01*
X-6171433Y-76750D01*
X-6172628Y-77339D01*
X-6173889Y-77767D01*
X-6175195Y-78027D01*
X-6176524Y-78114D01*
X-6307774D01*
X-6309103Y-78027D01*
X-6310410Y-77767D01*
X-6311671Y-77339D01*
X-6312865Y-76750D01*
X-6313973Y-76010D01*
X-6314974Y-75132D01*
X-6333724Y-56382D01*
X-6334602Y-55380D01*
X-6335342Y-54273D01*
X-6335931Y-53079D01*
X-6336359Y-51817D01*
X-6336619Y-50511D01*
X-6336706Y-49182D01*
Y153318D01*
X-6336619Y154647D01*
X-6336359Y155953D01*
X-6335931Y157215D01*
X-6335342Y158409D01*
X-6334602Y159516D01*
X-6333724Y160518D01*
X-6314974Y179268D01*
X-6313973Y180146D01*
X-6312865Y180886D01*
X-6311671Y181475D01*
X-6310410Y181903D01*
X-6309103Y182163D01*
X-6307774Y182250D01*
X-6176524D01*
X-6175195Y182163D01*
D02*
G37*
G36*
X-1222435Y10563D02*
X-1221129Y10303D01*
X-1219868Y9875D01*
X-1218673Y9286D01*
X-1217566Y8546D01*
X-1216565Y7668D01*
X-1201624Y-7273D01*
X-1200746Y-8274D01*
X-1200006Y-9381D01*
X-1199417Y-10576D01*
X-1198989Y-11837D01*
X-1198729Y-13143D01*
X-1198642Y-14472D01*
Y-84592D01*
X-1198729Y-85921D01*
X-1198989Y-87227D01*
X-1199417Y-88488D01*
X-1200006Y-89683D01*
X-1200746Y-90790D01*
X-1201624Y-91791D01*
X-1216565Y-106732D01*
X-1217566Y-107610D01*
X-1218673Y-108350D01*
X-1219868Y-108939D01*
X-1221129Y-109367D01*
X-1222435Y-109627D01*
X-1223764Y-109714D01*
X-1303824D01*
X-1305153Y-109627D01*
X-1306459Y-109367D01*
X-1307721Y-108939D01*
X-1308915Y-108350D01*
X-1310023Y-107610D01*
X-1311024Y-106732D01*
X-1311902Y-105731D01*
X-1312642Y-104623D01*
X-1313231Y-103429D01*
X-1313659Y-102167D01*
X-1313919Y-100861D01*
X-1314006Y-99532D01*
Y468D01*
X-1313919Y1797D01*
X-1313659Y3103D01*
X-1313231Y4364D01*
X-1312642Y5559D01*
X-1311902Y6666D01*
X-1311024Y7668D01*
X-1310023Y8546D01*
X-1308915Y9286D01*
X-1307721Y9875D01*
X-1306459Y10303D01*
X-1305153Y10563D01*
X-1303824Y10650D01*
X-1223764Y10650D01*
X-1222435Y10563D01*
D02*
G37*
G36*
X-1367495Y10563D02*
X-1366189Y10303D01*
X-1364928Y9875D01*
X-1363733Y9286D01*
X-1362626Y8546D01*
X-1361625Y7668D01*
X-1360747Y6666D01*
X-1360007Y5559D01*
X-1359417Y4364D01*
X-1358989Y3103D01*
X-1358730Y1797D01*
X-1358642Y468D01*
Y-99532D01*
X-1358730Y-100861D01*
X-1358989Y-102167D01*
X-1359417Y-103429D01*
X-1360007Y-104623D01*
X-1360747Y-105731D01*
X-1361625Y-106732D01*
X-1362626Y-107610D01*
X-1363733Y-108350D01*
X-1364928Y-108939D01*
X-1366189Y-109367D01*
X-1367495Y-109627D01*
X-1368824Y-109714D01*
X-1448884D01*
X-1450213Y-109627D01*
X-1451519Y-109367D01*
X-1452781Y-108939D01*
X-1453975Y-108350D01*
X-1455082Y-107610D01*
X-1456084Y-106732D01*
X-1471024Y-91791D01*
X-1471902Y-90790D01*
X-1472642Y-89682D01*
X-1473231Y-88488D01*
X-1473659Y-87227D01*
X-1473919Y-85921D01*
X-1474006Y-84592D01*
Y-14472D01*
X-1473919Y-13143D01*
X-1473659Y-11837D01*
X-1473231Y-10576D01*
X-1472642Y-9381D01*
X-1471902Y-8274D01*
X-1471024Y-7273D01*
X-1456084Y7668D01*
X-1455082Y8546D01*
X-1453975Y9286D01*
X-1452781Y9875D01*
X-1451519Y10303D01*
X-1450213Y10563D01*
X-1448884Y10650D01*
X-1368824D01*
X-1367495Y10563D01*
D02*
G37*
G36*
X-1222435Y-141837D02*
X-1221129Y-142097D01*
X-1219868Y-142525D01*
X-1218673Y-143114D01*
X-1217566Y-143854D01*
X-1216565Y-144732D01*
X-1201624Y-159673D01*
X-1200746Y-160674D01*
X-1200006Y-161781D01*
X-1199417Y-162976D01*
X-1198989Y-164237D01*
X-1198729Y-165543D01*
X-1198642Y-166872D01*
Y-236992D01*
X-1198729Y-238321D01*
X-1198989Y-239627D01*
X-1199417Y-240888D01*
X-1200006Y-242083D01*
X-1200746Y-243190D01*
X-1201624Y-244191D01*
X-1216565Y-259132D01*
X-1217566Y-260010D01*
X-1218673Y-260750D01*
X-1219868Y-261339D01*
X-1221129Y-261767D01*
X-1222435Y-262027D01*
X-1223764Y-262114D01*
X-1303824D01*
X-1305153Y-262027D01*
X-1306459Y-261767D01*
X-1307721Y-261339D01*
X-1308915Y-260750D01*
X-1310023Y-260010D01*
X-1311024Y-259132D01*
X-1311902Y-258131D01*
X-1312642Y-257023D01*
X-1313231Y-255829D01*
X-1313659Y-254567D01*
X-1313919Y-253261D01*
X-1314006Y-251932D01*
Y-151932D01*
X-1313919Y-150603D01*
X-1313659Y-149297D01*
X-1313231Y-148036D01*
X-1312642Y-146841D01*
X-1311902Y-145734D01*
X-1311024Y-144732D01*
X-1310023Y-143854D01*
X-1308915Y-143114D01*
X-1307721Y-142525D01*
X-1306459Y-142097D01*
X-1305153Y-141837D01*
X-1303824Y-141750D01*
X-1223764Y-141750D01*
X-1222435Y-141837D01*
D02*
G37*
G36*
X-1367495Y-141837D02*
X-1366189Y-142097D01*
X-1364928Y-142525D01*
X-1363733Y-143114D01*
X-1362626Y-143854D01*
X-1361625Y-144732D01*
X-1360747Y-145734D01*
X-1360007Y-146841D01*
X-1359417Y-148036D01*
X-1358989Y-149297D01*
X-1358730Y-150603D01*
X-1358642Y-151932D01*
Y-251932D01*
X-1358730Y-253261D01*
X-1358989Y-254567D01*
X-1359417Y-255829D01*
X-1360007Y-257023D01*
X-1360747Y-258131D01*
X-1361625Y-259132D01*
X-1362626Y-260010D01*
X-1363733Y-260750D01*
X-1364928Y-261339D01*
X-1366189Y-261767D01*
X-1367495Y-262027D01*
X-1368824Y-262114D01*
X-1448884D01*
X-1450213Y-262027D01*
X-1451519Y-261767D01*
X-1452781Y-261339D01*
X-1453975Y-260750D01*
X-1455082Y-260010D01*
X-1456084Y-259132D01*
X-1471024Y-244191D01*
X-1471902Y-243190D01*
X-1472642Y-242082D01*
X-1473231Y-240888D01*
X-1473659Y-239627D01*
X-1473919Y-238321D01*
X-1474006Y-236992D01*
Y-166872D01*
X-1473919Y-165543D01*
X-1473659Y-164237D01*
X-1473231Y-162976D01*
X-1472642Y-161781D01*
X-1471902Y-160674D01*
X-1471024Y-159673D01*
X-1456084Y-144732D01*
X-1455082Y-143854D01*
X-1453975Y-143114D01*
X-1452781Y-142525D01*
X-1451519Y-142097D01*
X-1450213Y-141837D01*
X-1448884Y-141750D01*
X-1368824D01*
X-1367495Y-141837D01*
D02*
G37*
D10*
X-1107724Y775968D02*
D03*
X-2203264Y-12236D02*
D03*
X-7632700Y1447800D02*
D03*
X-1488724Y420368D02*
D03*
X-1730024Y915668D02*
D03*
X-1234724Y2452368D02*
D03*
X-1511300Y571500D02*
D03*
X-2822224Y1220468D02*
D03*
X-6404140Y1446996D02*
D03*
X-3724440Y1408896D02*
D03*
X-2832100Y622300D02*
D03*
X-2205004Y542288D02*
D03*
D63*
X-8900000Y1221196D02*
D03*
Y1571196D02*
D03*
X-8400000Y1221196D02*
D03*
Y1571196D02*
D03*
X-405740Y1221196D02*
D03*
Y1571196D02*
D03*
X94260Y1221196D02*
D03*
Y1571196D02*
D03*
D75*
X-602600Y558800D02*
D03*
X-108600D02*
D03*
D76*
X-3559340Y1248496D02*
D03*
X-3432340D02*
D03*
X-3305340D02*
D03*
X-3178340D02*
D03*
X-4270540Y1243796D02*
D03*
X-4143540D02*
D03*
X-4016540D02*
D03*
X-3889540D02*
D03*
X-3555440Y2183396D02*
D03*
X-3428440D02*
D03*
X-3301440D02*
D03*
X-3174440D02*
D03*
X-4266640D02*
D03*
X-4139640D02*
D03*
X-4012640D02*
D03*
X-3885640D02*
D03*
D77*
X-3178340Y636996D02*
D03*
X-3305340D02*
D03*
X-3432340D02*
D03*
X-3559340D02*
D03*
X-3889540Y632296D02*
D03*
X-4016540D02*
D03*
X-4143540D02*
D03*
X-4270540D02*
D03*
X-3174440Y1571896D02*
D03*
X-3301440D02*
D03*
X-3428440D02*
D03*
X-3555440D02*
D03*
X-3885640D02*
D03*
X-4012640D02*
D03*
X-4139640D02*
D03*
X-4266640D02*
D03*
D78*
X-3445040Y683746D02*
D03*
X-4156240Y679046D02*
D03*
X-3441140Y1618646D02*
D03*
X-4152340D02*
D03*
D79*
X-3368840Y1003746D02*
D03*
X-4080040Y999046D02*
D03*
X-3364940Y1938646D02*
D03*
X-4076140D02*
D03*
D80*
X-7233740Y1446996D02*
D03*
X-6666740D02*
D03*
D81*
X-917440Y2005796D02*
D03*
X-917740Y2132796D02*
D03*
X-917440Y2259796D02*
D03*
Y2386796D02*
D03*
D82*
X-645940Y1967696D02*
D03*
Y2424896D02*
D03*
D83*
X-562140Y2196296D02*
D03*
D84*
X-358940D02*
D03*
D85*
X-1869724Y344168D02*
D03*
D86*
X-1944724Y69848D02*
D03*
Y618488D02*
D03*
X-1794724D02*
D03*
Y69848D02*
D03*
D87*
X-2044984Y119111D02*
D03*
Y169124D02*
D03*
Y219136D02*
D03*
Y269149D02*
D03*
Y319162D02*
D03*
Y369174D02*
D03*
Y419187D02*
D03*
Y469199D02*
D03*
Y519212D02*
D03*
Y569225D02*
D03*
X-1694464D02*
D03*
Y519212D02*
D03*
Y469199D02*
D03*
Y419187D02*
D03*
Y369174D02*
D03*
Y319162D02*
D03*
Y269149D02*
D03*
Y219136D02*
D03*
Y169124D02*
D03*
Y119111D02*
D03*
D88*
X-2283024Y2630168D02*
D03*
X-1558024D02*
D03*
D89*
X-2680924Y839468D02*
D03*
X-2353924D02*
D03*
D90*
X-4813140Y1450796D02*
D03*
X-5963140D02*
D03*
D91*
X-603000Y2681300D02*
D03*
X-413000D02*
D03*
X-508000Y2881300D02*
D03*
D92*
X-8800000Y2799968D02*
D03*
Y0D02*
D03*
X0D02*
D03*
Y2800000D02*
D03*
%TF.MD5,092a840a0eb9693f2c0852666ce96c1d*%
M02*
