%TF.GenerationSoftware,Altium Limited,Altium Designer,23.0.1 (38)*%
G04 Layer_Color=2752767*
%FSLAX45Y45*%
%MOMM*%
%TF.SameCoordinates,101474F7-9C50-4871-B5BA-03F38F38C57F*%
%TF.FilePolarity,Positive*%
%TF.FileFunction,Drawing*%
%TF.Part,Single*%
G01*
G75*
%TA.AperFunction,NonConductor*%
%ADD74C,0.12700*%
%ADD167C,0.16933*%
D74*
X-8950800Y1170396D02*
Y1271996D01*
X-8849200D01*
Y1170396D01*
X-8950800D01*
Y1520396D02*
Y1621996D01*
X-8849200D01*
Y1520396D01*
X-8950800D01*
X-8450800Y1170396D02*
Y1271996D01*
X-8349200D01*
Y1170396D01*
X-8450800D01*
Y1520396D02*
Y1621996D01*
X-8349200D01*
Y1520396D01*
X-8450800D01*
X-8800000Y2749168D02*
X-8850800Y2850768D01*
X-8749200D01*
X-8800000Y2749168D01*
X-456540Y1170396D02*
Y1271996D01*
X-354940D01*
Y1170396D01*
X-456540D01*
Y1520396D02*
Y1621996D01*
X-354940D01*
Y1520396D01*
X-456540D01*
X43460Y1170396D02*
Y1271996D01*
X145060D01*
Y1170396D01*
X43460D01*
Y1520396D02*
Y1621996D01*
X145060D01*
Y1520396D01*
X43460D01*
X-8825400Y-25400D02*
Y-50800D01*
X-8774600D01*
Y-25400D01*
X-8749200D01*
Y25400D01*
X-8774600D01*
Y50800D01*
X-8825400D01*
Y25400D01*
X-8850800D01*
Y-25400D01*
X-8825400D01*
X-25400D02*
Y-50800D01*
X25400D01*
Y-25400D01*
X50800D01*
Y25400D01*
X25400D01*
Y50800D01*
X-25400D01*
Y25400D01*
X-50800D01*
Y-25400D01*
X-25400D01*
Y2774600D02*
Y2749200D01*
X25400D01*
Y2774600D01*
X50800D01*
Y2825400D01*
X25400D01*
Y2850800D01*
X-25400D01*
Y2825400D01*
X-50800D01*
Y2774600D01*
X-25400D01*
X-292100Y2590800D02*
X-266700Y2616200D01*
X-241300D01*
X-266700Y2641600D01*
X-241300Y2667000D01*
X-266700D01*
X-292100Y2692400D01*
X-317500Y2667000D01*
X-342900D01*
X-317500Y2641600D01*
X-342900Y2616200D01*
X-317500D01*
X-292100Y2590800D01*
X-241300Y2997200D02*
X-215900Y3022600D01*
X-190500D01*
X-215900Y3048000D01*
X-190500Y3073400D01*
X-215900D01*
X-241300Y3098800D01*
X-266700Y3073400D01*
X-292100D01*
X-266700Y3048000D01*
X-292100Y3022600D01*
X-266700D01*
X-241300Y2997200D01*
X-1079500Y2679700D02*
X-1054100Y2705100D01*
X-1028700D01*
X-1054100Y2730500D01*
X-1028700Y2755900D01*
X-1054100D01*
X-1079500Y2781300D01*
X-1104900Y2755900D01*
X-1130300D01*
X-1104900Y2730500D01*
X-1130300Y2705100D01*
X-1104900D01*
X-1079500Y2679700D01*
X-508000Y2923000D02*
X-482600Y2948400D01*
X-457200D01*
X-482600Y2973800D01*
X-457200Y2999200D01*
X-482600D01*
X-508000Y3024600D01*
X-533400Y2999200D01*
X-558800D01*
X-533400Y2973800D01*
X-558800Y2948400D01*
X-533400D01*
X-508000Y2923000D01*
X-3568700Y2921000D02*
X-3543300Y2946400D01*
X-3517900D01*
X-3543300Y2971800D01*
X-3517900Y2997200D01*
X-3543300D01*
X-3568700Y3022600D01*
X-3594100Y2997200D01*
X-3619500D01*
X-3594100Y2971800D01*
X-3619500Y2946400D01*
X-3594100D01*
X-3568700Y2921000D01*
Y3009900D02*
X-3543300Y3035300D01*
X-3517900D01*
X-3543300Y3060700D01*
X-3517900Y3086100D01*
X-3543300D01*
X-3568700Y3111500D01*
X-3594100Y3086100D01*
X-3619500D01*
X-3594100Y3060700D01*
X-3619500Y3035300D01*
X-3594100D01*
X-3568700Y3009900D01*
X-3670300Y2921000D02*
X-3644900Y2946400D01*
X-3619500D01*
X-3644900Y2971800D01*
X-3619500Y2997200D01*
X-3644900D01*
X-3670300Y3022600D01*
X-3695700Y2997200D01*
X-3721100D01*
X-3695700Y2971800D01*
X-3721100Y2946400D01*
X-3695700D01*
X-3670300Y2921000D01*
Y3009900D02*
X-3644900Y3035300D01*
X-3619500D01*
X-3644900Y3060700D01*
X-3619500Y3086100D01*
X-3644900D01*
X-3670300Y3111500D01*
X-3695700Y3086100D01*
X-3721100D01*
X-3695700Y3060700D01*
X-3721100Y3035300D01*
X-3695700D01*
X-3670300Y3009900D01*
X-3848100Y2921000D02*
X-3822700Y2946400D01*
X-3797300D01*
X-3822700Y2971800D01*
X-3797300Y2997200D01*
X-3822700D01*
X-3848100Y3022600D01*
X-3873500Y2997200D01*
X-3898900D01*
X-3873500Y2971800D01*
X-3898900Y2946400D01*
X-3873500D01*
X-3848100Y2921000D01*
Y3009900D02*
X-3822700Y3035300D01*
X-3797300D01*
X-3822700Y3060700D01*
X-3797300Y3086100D01*
X-3822700D01*
X-3848100Y3111500D01*
X-3873500Y3086100D01*
X-3898900D01*
X-3873500Y3060700D01*
X-3898900Y3035300D01*
X-3873500D01*
X-3848100Y3009900D01*
X-3949700Y2921000D02*
X-3924300Y2946400D01*
X-3898900D01*
X-3924300Y2971800D01*
X-3898900Y2997200D01*
X-3924300D01*
X-3949700Y3022600D01*
X-3975100Y2997200D01*
X-4000500D01*
X-3975100Y2971800D01*
X-4000500Y2946400D01*
X-3975100D01*
X-3949700Y2921000D01*
Y3009900D02*
X-3924300Y3035300D01*
X-3898900D01*
X-3924300Y3060700D01*
X-3898900Y3086100D01*
X-3924300D01*
X-3949700Y3111500D01*
X-3975100Y3086100D01*
X-4000500D01*
X-3975100Y3060700D01*
X-4000500Y3035300D01*
X-3975100D01*
X-3949700Y3009900D01*
X-7874000Y2324100D02*
X-7848600Y2349500D01*
X-7823200D01*
X-7848600Y2374900D01*
X-7823200Y2400300D01*
X-7848600D01*
X-7874000Y2425700D01*
X-7899400Y2400300D01*
X-7924800D01*
X-7899400Y2374900D01*
X-7924800Y2349500D01*
X-7899400D01*
X-7874000Y2324100D01*
X-8064500D02*
X-8039100Y2349500D01*
X-8013700D01*
X-8039100Y2374900D01*
X-8013700Y2400300D01*
X-8039100D01*
X-8064500Y2425700D01*
X-8089900Y2400300D01*
X-8115300D01*
X-8089900Y2374900D01*
X-8115300Y2349500D01*
X-8089900D01*
X-8064500Y2324100D01*
X-8242300D02*
X-8216900Y2349500D01*
X-8191500D01*
X-8216900Y2374900D01*
X-8191500Y2400300D01*
X-8216900D01*
X-8242300Y2425700D01*
X-8267700Y2400300D01*
X-8293100D01*
X-8267700Y2374900D01*
X-8293100Y2349500D01*
X-8267700D01*
X-8242300Y2324100D01*
X-1549400Y3022600D02*
X-1524000Y3048000D01*
X-1498600D01*
X-1524000Y3073400D01*
X-1498600Y3098800D01*
X-1524000D01*
X-1549400Y3124200D01*
X-1574800Y3098800D01*
X-1600200D01*
X-1574800Y3073400D01*
X-1600200Y3048000D01*
X-1574800D01*
X-1549400Y3022600D01*
X-1905000D02*
X-1879600Y3048000D01*
X-1854200D01*
X-1879600Y3073400D01*
X-1854200Y3098800D01*
X-1879600D01*
X-1905000Y3124200D01*
X-1930400Y3098800D01*
X-1955800D01*
X-1930400Y3073400D01*
X-1955800Y3048000D01*
X-1930400D01*
X-1905000Y3022600D01*
X-2247900D02*
X-2222500Y3048000D01*
X-2197100D01*
X-2222500Y3073400D01*
X-2197100Y3098800D01*
X-2222500D01*
X-2247900Y3124200D01*
X-2273300Y3098800D01*
X-2298700D01*
X-2273300Y3073400D01*
X-2298700Y3048000D01*
X-2273300D01*
X-2247900Y3022600D01*
X-1638300Y-266700D02*
X-1612900Y-241300D01*
X-1587500D01*
X-1612900Y-215900D01*
X-1587500Y-190500D01*
X-1612900D01*
X-1638300Y-165100D01*
X-1663700Y-190500D01*
X-1689100D01*
X-1663700Y-215900D01*
X-1689100Y-241300D01*
X-1663700D01*
X-1638300Y-266700D01*
X-1803400D02*
X-1778000Y-241300D01*
X-1752600D01*
X-1778000Y-215900D01*
X-1752600Y-190500D01*
X-1778000D01*
X-1803400Y-165100D01*
X-1828800Y-190500D01*
X-1854200D01*
X-1828800Y-215900D01*
X-1854200Y-241300D01*
X-1828800D01*
X-1803400Y-266700D01*
X-1968500D02*
X-1943100Y-241300D01*
X-1917700D01*
X-1943100Y-215900D01*
X-1917700Y-190500D01*
X-1943100D01*
X-1968500Y-165100D01*
X-1993900Y-190500D01*
X-2019300D01*
X-1993900Y-215900D01*
X-2019300Y-241300D01*
X-1993900D01*
X-1968500Y-266700D01*
X-2108200D02*
X-2082800Y-241300D01*
X-2057400D01*
X-2082800Y-215900D01*
X-2057400Y-190500D01*
X-2082800D01*
X-2108200Y-165100D01*
X-2133600Y-190500D01*
X-2159000D01*
X-2133600Y-215900D01*
X-2159000Y-241300D01*
X-2133600D01*
X-2108200Y-266700D01*
X-1298740Y900896D02*
X-1273340Y926296D01*
X-1247940D01*
X-1273340Y951696D01*
X-1247940Y977096D01*
X-1273340D01*
X-1298740Y1002496D01*
X-1324140Y977096D01*
X-1349540D01*
X-1324140Y951696D01*
X-1349540Y926296D01*
X-1324140D01*
X-1298740Y900896D01*
X-1476540D02*
X-1451140Y926296D01*
X-1425740D01*
X-1451140Y951696D01*
X-1425740Y977096D01*
X-1451140D01*
X-1476540Y1002496D01*
X-1501940Y977096D01*
X-1527340D01*
X-1501940Y951696D01*
X-1527340Y926296D01*
X-1501940D01*
X-1476540Y900896D01*
X-2578100Y520700D02*
X-2552700Y546100D01*
X-2527300D01*
X-2552700Y571500D01*
X-2527300Y596900D01*
X-2552700D01*
X-2578100Y622300D01*
X-2603500Y596900D01*
X-2628900D01*
X-2603500Y571500D01*
X-2628900Y546100D01*
X-2603500D01*
X-2578100Y520700D01*
X-1485900Y647700D02*
X-1460500Y673100D01*
X-1435100D01*
X-1460500Y698500D01*
X-1435100Y723900D01*
X-1460500D01*
X-1485900Y749300D01*
X-1511300Y723900D01*
X-1536700D01*
X-1511300Y698500D01*
X-1536700Y673100D01*
X-1511300D01*
X-1485900Y647700D01*
X-1117600Y444500D02*
X-1092200Y469900D01*
X-1066800D01*
X-1092200Y495300D01*
X-1066800Y520700D01*
X-1092200D01*
X-1117600Y546100D01*
X-1143000Y520700D01*
X-1168400D01*
X-1143000Y495300D01*
X-1168400Y469900D01*
X-1143000D01*
X-1117600Y444500D01*
X152400Y711200D02*
X177800Y736600D01*
X203200D01*
X177800Y762000D01*
X203200Y787400D01*
X177800D01*
X152400Y812800D01*
X127000Y787400D01*
X101600D01*
X127000Y762000D01*
X101600Y736600D01*
X127000D01*
X152400Y711200D01*
X139700Y279400D02*
X165100Y304800D01*
X190500D01*
X165100Y330200D01*
X190500Y355600D01*
X165100D01*
X139700Y381000D01*
X114300Y355600D01*
X88900D01*
X114300Y330200D01*
X88900Y304800D01*
X114300D01*
X139700Y279400D01*
X-2438400Y3009900D02*
X-2413000Y3035300D01*
X-2387600D01*
X-2413000Y3060700D01*
X-2387600Y3086100D01*
X-2413000D01*
X-2438400Y3111500D01*
X-2463800Y3086100D01*
X-2489200D01*
X-2463800Y3060700D01*
X-2489200Y3035300D01*
X-2463800D01*
X-2438400Y3009900D01*
X-2743200Y2971800D02*
X-2717800Y2997200D01*
X-2692400D01*
X-2717800Y3022600D01*
X-2692400Y3048000D01*
X-2717800D01*
X-2743200Y3073400D01*
X-2768600Y3048000D01*
X-2794000D01*
X-2768600Y3022600D01*
X-2794000Y2997200D01*
X-2768600D01*
X-2743200Y2971800D01*
X-2997200Y2946400D02*
X-2971800Y2971800D01*
X-2946400D01*
X-2971800Y2997200D01*
X-2946400Y3022600D01*
X-2971800D01*
X-2997200Y3048000D01*
X-3022600Y3022600D01*
X-3048000D01*
X-3022600Y2997200D01*
X-3048000Y2971800D01*
X-3022600D01*
X-2997200Y2946400D01*
X-1384300Y2984500D02*
X-1358900Y3009900D01*
X-1333500D01*
X-1358900Y3035300D01*
X-1333500Y3060700D01*
X-1358900D01*
X-1384300Y3086100D01*
X-1409700Y3060700D01*
X-1435100D01*
X-1409700Y3035300D01*
X-1435100Y3009900D01*
X-1409700D01*
X-1384300Y2984500D01*
X-1066800Y3009900D02*
X-1041400Y3035300D01*
X-1016000D01*
X-1041400Y3060700D01*
X-1016000Y3086100D01*
X-1041400D01*
X-1066800Y3111500D01*
X-1092200Y3086100D01*
X-1117600D01*
X-1092200Y3060700D01*
X-1117600Y3035300D01*
X-1092200D01*
X-1066800Y3009900D01*
X-965200D02*
X-939800Y3035300D01*
X-914400D01*
X-939800Y3060700D01*
X-914400Y3086100D01*
X-939800D01*
X-965200Y3111500D01*
X-990600Y3086100D01*
X-1016000D01*
X-990600Y3060700D01*
X-1016000Y3035300D01*
X-990600D01*
X-965200Y3009900D01*
X-5689600Y2946400D02*
X-5664200Y2971800D01*
X-5638800D01*
X-5664200Y2997200D01*
X-5638800Y3022600D01*
X-5664200D01*
X-5689600Y3048000D01*
X-5715000Y3022600D01*
X-5740400D01*
X-5715000Y2997200D01*
X-5740400Y2971800D01*
X-5715000D01*
X-5689600Y2946400D01*
Y2844800D02*
X-5664200Y2870200D01*
X-5638800D01*
X-5664200Y2895600D01*
X-5638800Y2921000D01*
X-5664200D01*
X-5689600Y2946400D01*
X-5715000Y2921000D01*
X-5740400D01*
X-5715000Y2895600D01*
X-5740400Y2870200D01*
X-5715000D01*
X-5689600Y2844800D01*
X-5410200Y3009900D02*
X-5384800Y3035300D01*
X-5359400D01*
X-5384800Y3060700D01*
X-5359400Y3086100D01*
X-5384800D01*
X-5410200Y3111500D01*
X-5435600Y3086100D01*
X-5461000D01*
X-5435600Y3060700D01*
X-5461000Y3035300D01*
X-5435600D01*
X-5410200Y3009900D01*
X-5168900D02*
X-5143500Y3035300D01*
X-5118100D01*
X-5143500Y3060700D01*
X-5118100Y3086100D01*
X-5143500D01*
X-5168900Y3111500D01*
X-5194300Y3086100D01*
X-5219700D01*
X-5194300Y3060700D01*
X-5219700Y3035300D01*
X-5194300D01*
X-5168900Y3009900D01*
X-4927600D02*
X-4902200Y3035300D01*
X-4876800D01*
X-4902200Y3060700D01*
X-4876800Y3086100D01*
X-4902200D01*
X-4927600Y3111500D01*
X-4953000Y3086100D01*
X-4978400D01*
X-4953000Y3060700D01*
X-4978400Y3035300D01*
X-4953000D01*
X-4927600Y3009900D01*
X-4686300D02*
X-4660900Y3035300D01*
X-4635500D01*
X-4660900Y3060700D01*
X-4635500Y3086100D01*
X-4660900D01*
X-4686300Y3111500D01*
X-4711700Y3086100D01*
X-4737100D01*
X-4711700Y3060700D01*
X-4737100Y3035300D01*
X-4711700D01*
X-4686300Y3009900D01*
X-4457700Y3022600D02*
X-4432300Y3048000D01*
X-4406900D01*
X-4432300Y3073400D01*
X-4406900Y3098800D01*
X-4432300D01*
X-4457700Y3124200D01*
X-4483100Y3098800D01*
X-4508500D01*
X-4483100Y3073400D01*
X-4508500Y3048000D01*
X-4483100D01*
X-4457700Y3022600D01*
X-4437380Y2931160D02*
X-4411980Y2956560D01*
X-4386580D01*
X-4411980Y2981960D01*
X-4386580Y3007360D01*
X-4411980D01*
X-4437380Y3032760D01*
X-4462780Y3007360D01*
X-4488180D01*
X-4462780Y2981960D01*
X-4488180Y2956560D01*
X-4462780D01*
X-4437380Y2931160D01*
X-4681220Y2933700D02*
X-4655820Y2959100D01*
X-4630420D01*
X-4655820Y2984500D01*
X-4630420Y3009900D01*
X-4655820D01*
X-4681220Y3035300D01*
X-4706620Y3009900D01*
X-4732020D01*
X-4706620Y2984500D01*
X-4732020Y2959100D01*
X-4706620D01*
X-4681220Y2933700D01*
X-4925060Y2931160D02*
X-4899660Y2956560D01*
X-4874260D01*
X-4899660Y2981960D01*
X-4874260Y3007360D01*
X-4899660D01*
X-4925060Y3032760D01*
X-4950460Y3007360D01*
X-4975860D01*
X-4950460Y2981960D01*
X-4975860Y2956560D01*
X-4950460D01*
X-4925060Y2931160D01*
X-5166360Y2936240D02*
X-5140960Y2961640D01*
X-5115560D01*
X-5140960Y2987040D01*
X-5115560Y3012440D01*
X-5140960D01*
X-5166360Y3037840D01*
X-5191760Y3012440D01*
X-5217160D01*
X-5191760Y2987040D01*
X-5217160Y2961640D01*
X-5191760D01*
X-5166360Y2936240D01*
X-5407660Y2933700D02*
X-5382260Y2959100D01*
X-5356860D01*
X-5382260Y2984500D01*
X-5356860Y3009900D01*
X-5382260D01*
X-5407660Y3035300D01*
X-5433060Y3009900D01*
X-5458460D01*
X-5433060Y2984500D01*
X-5458460Y2959100D01*
X-5433060D01*
X-5407660Y2933700D01*
X-5613400Y2997200D02*
X-5588000Y3022600D01*
X-5562600D01*
X-5588000Y3048000D01*
X-5562600Y3073400D01*
X-5588000D01*
X-5613400Y3098800D01*
X-5638800Y3073400D01*
X-5664200D01*
X-5638800Y3048000D01*
X-5664200Y3022600D01*
X-5638800D01*
X-5613400Y2997200D01*
X-7531100Y1054100D02*
X-7505700Y1079500D01*
X-7480300D01*
X-7505700Y1104900D01*
X-7480300Y1130300D01*
X-7505700D01*
X-7531100Y1155700D01*
X-7556500Y1130300D01*
X-7581900D01*
X-7556500Y1104900D01*
X-7581900Y1079500D01*
X-7556500D01*
X-7531100Y1054100D01*
X-7683500D02*
X-7658100Y1079500D01*
X-7632700D01*
X-7658100Y1104900D01*
X-7632700Y1130300D01*
X-7658100D01*
X-7683500Y1155700D01*
X-7708900Y1130300D01*
X-7734300D01*
X-7708900Y1104900D01*
X-7734300Y1079500D01*
X-7708900D01*
X-7683500Y1054100D01*
X-7835900D02*
X-7810500Y1079500D01*
X-7785100D01*
X-7810500Y1104900D01*
X-7785100Y1130300D01*
X-7810500D01*
X-7835900Y1155700D01*
X-7861300Y1130300D01*
X-7886700D01*
X-7861300Y1104900D01*
X-7886700Y1079500D01*
X-7861300D01*
X-7835900Y1054100D01*
X-7988300D02*
X-7962900Y1079500D01*
X-7937500D01*
X-7962900Y1104900D01*
X-7937500Y1130300D01*
X-7962900D01*
X-7988300Y1155700D01*
X-8013700Y1130300D01*
X-8039100D01*
X-8013700Y1104900D01*
X-8039100Y1079500D01*
X-8013700D01*
X-7988300Y1054100D01*
X-8140700D02*
X-8115300Y1079500D01*
X-8089900D01*
X-8115300Y1104900D01*
X-8089900Y1130300D01*
X-8115300D01*
X-8140700Y1155700D01*
X-8166100Y1130300D01*
X-8191500D01*
X-8166100Y1104900D01*
X-8191500Y1079500D01*
X-8166100D01*
X-8140700Y1054100D01*
X-7467600Y1155700D02*
X-7442200Y1181100D01*
X-7416800D01*
X-7442200Y1206500D01*
X-7416800Y1231900D01*
X-7442200D01*
X-7467600Y1257300D01*
X-7493000Y1231900D01*
X-7518400D01*
X-7493000Y1206500D01*
X-7518400Y1181100D01*
X-7493000D01*
X-7467600Y1155700D01*
X-7620000D02*
X-7594600Y1181100D01*
X-7569200D01*
X-7594600Y1206500D01*
X-7569200Y1231900D01*
X-7594600D01*
X-7620000Y1257300D01*
X-7645400Y1231900D01*
X-7670800D01*
X-7645400Y1206500D01*
X-7670800Y1181100D01*
X-7645400D01*
X-7620000Y1155700D01*
X-7772400D02*
X-7747000Y1181100D01*
X-7721600D01*
X-7747000Y1206500D01*
X-7721600Y1231900D01*
X-7747000D01*
X-7772400Y1257300D01*
X-7797800Y1231900D01*
X-7823200D01*
X-7797800Y1206500D01*
X-7823200Y1181100D01*
X-7797800D01*
X-7772400Y1155700D01*
X-7924800D02*
X-7899400Y1181100D01*
X-7874000D01*
X-7899400Y1206500D01*
X-7874000Y1231900D01*
X-7899400D01*
X-7924800Y1257300D01*
X-7950200Y1231900D01*
X-7975600D01*
X-7950200Y1206500D01*
X-7975600Y1181100D01*
X-7950200D01*
X-7924800Y1155700D01*
X-8077200D02*
X-8051800Y1181100D01*
X-8026400D01*
X-8051800Y1206500D01*
X-8026400Y1231900D01*
X-8051800D01*
X-8077200Y1257300D01*
X-8102600Y1231900D01*
X-8128000D01*
X-8102600Y1206500D01*
X-8128000Y1181100D01*
X-8102600D01*
X-8077200Y1155700D01*
X-7531100Y1257300D02*
X-7505700Y1282700D01*
X-7480300D01*
X-7505700Y1308100D01*
X-7480300Y1333500D01*
X-7505700D01*
X-7531100Y1358900D01*
X-7556500Y1333500D01*
X-7581900D01*
X-7556500Y1308100D01*
X-7581900Y1282700D01*
X-7556500D01*
X-7531100Y1257300D01*
X-7683500D02*
X-7658100Y1282700D01*
X-7632700D01*
X-7658100Y1308100D01*
X-7632700Y1333500D01*
X-7658100D01*
X-7683500Y1358900D01*
X-7708900Y1333500D01*
X-7734300D01*
X-7708900Y1308100D01*
X-7734300Y1282700D01*
X-7708900D01*
X-7683500Y1257300D01*
X-7835900D02*
X-7810500Y1282700D01*
X-7785100D01*
X-7810500Y1308100D01*
X-7785100Y1333500D01*
X-7810500D01*
X-7835900Y1358900D01*
X-7861300Y1333500D01*
X-7886700D01*
X-7861300Y1308100D01*
X-7886700Y1282700D01*
X-7861300D01*
X-7835900Y1257300D01*
X-7988300D02*
X-7962900Y1282700D01*
X-7937500D01*
X-7962900Y1308100D01*
X-7937500Y1333500D01*
X-7962900D01*
X-7988300Y1358900D01*
X-8013700Y1333500D01*
X-8039100D01*
X-8013700Y1308100D01*
X-8039100Y1282700D01*
X-8013700D01*
X-7988300Y1257300D01*
X-8140700D02*
X-8115300Y1282700D01*
X-8089900D01*
X-8115300Y1308100D01*
X-8089900Y1333500D01*
X-8115300D01*
X-8140700Y1358900D01*
X-8166100Y1333500D01*
X-8191500D01*
X-8166100Y1308100D01*
X-8191500Y1282700D01*
X-8166100D01*
X-8140700Y1257300D01*
X-7454900Y1549400D02*
X-7429500Y1574800D01*
X-7404100D01*
X-7429500Y1600200D01*
X-7404100Y1625600D01*
X-7429500D01*
X-7454900Y1651000D01*
X-7480300Y1625600D01*
X-7505700D01*
X-7480300Y1600200D01*
X-7505700Y1574800D01*
X-7480300D01*
X-7454900Y1549400D01*
X-7607300D02*
X-7581900Y1574800D01*
X-7556500D01*
X-7581900Y1600200D01*
X-7556500Y1625600D01*
X-7581900D01*
X-7607300Y1651000D01*
X-7632700Y1625600D01*
X-7658100D01*
X-7632700Y1600200D01*
X-7658100Y1574800D01*
X-7632700D01*
X-7607300Y1549400D01*
X-7759700D02*
X-7734300Y1574800D01*
X-7708900D01*
X-7734300Y1600200D01*
X-7708900Y1625600D01*
X-7734300D01*
X-7759700Y1651000D01*
X-7785100Y1625600D01*
X-7810500D01*
X-7785100Y1600200D01*
X-7810500Y1574800D01*
X-7785100D01*
X-7759700Y1549400D01*
X-7912100D02*
X-7886700Y1574800D01*
X-7861300D01*
X-7886700Y1600200D01*
X-7861300Y1625600D01*
X-7886700D01*
X-7912100Y1651000D01*
X-7937500Y1625600D01*
X-7962900D01*
X-7937500Y1600200D01*
X-7962900Y1574800D01*
X-7937500D01*
X-7912100Y1549400D01*
X-8064500D02*
X-8039100Y1574800D01*
X-8013700D01*
X-8039100Y1600200D01*
X-8013700Y1625600D01*
X-8039100D01*
X-8064500Y1651000D01*
X-8089900Y1625600D01*
X-8115300D01*
X-8089900Y1600200D01*
X-8115300Y1574800D01*
X-8089900D01*
X-8064500Y1549400D01*
X-7531100Y1638300D02*
X-7505700Y1663700D01*
X-7480300D01*
X-7505700Y1689100D01*
X-7480300Y1714500D01*
X-7505700D01*
X-7531100Y1739900D01*
X-7556500Y1714500D01*
X-7581900D01*
X-7556500Y1689100D01*
X-7581900Y1663700D01*
X-7556500D01*
X-7531100Y1638300D01*
X-7683500D02*
X-7658100Y1663700D01*
X-7632700D01*
X-7658100Y1689100D01*
X-7632700Y1714500D01*
X-7658100D01*
X-7683500Y1739900D01*
X-7708900Y1714500D01*
X-7734300D01*
X-7708900Y1689100D01*
X-7734300Y1663700D01*
X-7708900D01*
X-7683500Y1638300D01*
X-7835900D02*
X-7810500Y1663700D01*
X-7785100D01*
X-7810500Y1689100D01*
X-7785100Y1714500D01*
X-7810500D01*
X-7835900Y1739900D01*
X-7861300Y1714500D01*
X-7886700D01*
X-7861300Y1689100D01*
X-7886700Y1663700D01*
X-7861300D01*
X-7835900Y1638300D01*
X-7988300D02*
X-7962900Y1663700D01*
X-7937500D01*
X-7962900Y1689100D01*
X-7937500Y1714500D01*
X-7962900D01*
X-7988300Y1739900D01*
X-8013700Y1714500D01*
X-8039100D01*
X-8013700Y1689100D01*
X-8039100Y1663700D01*
X-8013700D01*
X-7988300Y1638300D01*
X-8140700D02*
X-8115300Y1663700D01*
X-8089900D01*
X-8115300Y1689100D01*
X-8089900Y1714500D01*
X-8115300D01*
X-8140700Y1739900D01*
X-8166100Y1714500D01*
X-8191500D01*
X-8166100Y1689100D01*
X-8191500Y1663700D01*
X-8166100D01*
X-8140700Y1638300D01*
X-8064500Y1727200D02*
X-8039100Y1752600D01*
X-8013700D01*
X-8039100Y1778000D01*
X-8013700Y1803400D01*
X-8039100D01*
X-8064500Y1828800D01*
X-8089900Y1803400D01*
X-8115300D01*
X-8089900Y1778000D01*
X-8115300Y1752600D01*
X-8089900D01*
X-8064500Y1727200D01*
X-7912100D02*
X-7886700Y1752600D01*
X-7861300D01*
X-7886700Y1778000D01*
X-7861300Y1803400D01*
X-7886700D01*
X-7912100Y1828800D01*
X-7937500Y1803400D01*
X-7962900D01*
X-7937500Y1778000D01*
X-7962900Y1752600D01*
X-7937500D01*
X-7912100Y1727200D01*
X-7759700D02*
X-7734300Y1752600D01*
X-7708900D01*
X-7734300Y1778000D01*
X-7708900Y1803400D01*
X-7734300D01*
X-7759700Y1828800D01*
X-7785100Y1803400D01*
X-7810500D01*
X-7785100Y1778000D01*
X-7810500Y1752600D01*
X-7785100D01*
X-7759700Y1727200D01*
X-7607300D02*
X-7581900Y1752600D01*
X-7556500D01*
X-7581900Y1778000D01*
X-7556500Y1803400D01*
X-7581900D01*
X-7607300Y1828800D01*
X-7632700Y1803400D01*
X-7658100D01*
X-7632700Y1778000D01*
X-7658100Y1752600D01*
X-7632700D01*
X-7607300Y1727200D01*
X-7454900D02*
X-7429500Y1752600D01*
X-7404100D01*
X-7429500Y1778000D01*
X-7404100Y1803400D01*
X-7429500D01*
X-7454900Y1828800D01*
X-7480300Y1803400D01*
X-7505700D01*
X-7480300Y1778000D01*
X-7505700Y1752600D01*
X-7480300D01*
X-7454900Y1727200D01*
X-231940Y189696D02*
X-206540Y215096D01*
X-181140D01*
X-206540Y240496D01*
X-181140Y265896D01*
X-206540D01*
X-231940Y291296D01*
X-257340Y265896D01*
X-282740D01*
X-257340Y240496D01*
X-282740Y215096D01*
X-257340D01*
X-231940Y189696D01*
X-320840Y2856696D02*
X-295440Y2882096D01*
X-270040D01*
X-295440Y2907496D01*
X-270040Y2932896D01*
X-295440D01*
X-320840Y2958296D01*
X-346240Y2932896D01*
X-371640D01*
X-346240Y2907496D01*
X-371640Y2882096D01*
X-346240D01*
X-320840Y2856696D01*
X-409740Y545296D02*
X-384340Y570696D01*
X-358940D01*
X-384340Y596096D01*
X-358940Y621496D01*
X-384340D01*
X-409740Y646896D01*
X-435140Y621496D01*
X-460540D01*
X-435140Y596096D01*
X-460540Y570696D01*
X-435140D01*
X-409740Y545296D01*
Y189696D02*
X-384340Y215096D01*
X-358940D01*
X-384340Y240496D01*
X-358940Y265896D01*
X-384340D01*
X-409740Y291296D01*
X-435140Y265896D01*
X-460540D01*
X-435140Y240496D01*
X-460540Y215096D01*
X-435140D01*
X-409740Y189696D01*
X-320840Y11896D02*
X-295440Y37296D01*
X-270040D01*
X-295440Y62696D01*
X-270040Y88096D01*
X-295440D01*
X-320840Y113496D01*
X-346240Y88096D01*
X-371640D01*
X-346240Y62696D01*
X-371640Y37296D01*
X-346240D01*
X-320840Y11896D01*
X-587540Y189696D02*
X-562140Y215096D01*
X-536740D01*
X-562140Y240496D01*
X-536740Y265896D01*
X-562140D01*
X-587540Y291296D01*
X-612940Y265896D01*
X-638340D01*
X-612940Y240496D01*
X-638340Y215096D01*
X-612940D01*
X-587540Y189696D01*
X-498640Y11896D02*
X-473240Y37296D01*
X-447840D01*
X-473240Y62696D01*
X-447840Y88096D01*
X-473240D01*
X-498640Y113496D01*
X-524040Y88096D01*
X-549440D01*
X-524040Y62696D01*
X-549440Y37296D01*
X-524040D01*
X-498640Y11896D01*
X-765340Y189696D02*
X-739940Y215096D01*
X-714540D01*
X-739940Y240496D01*
X-714540Y265896D01*
X-739940D01*
X-765340Y291296D01*
X-790740Y265896D01*
X-816140D01*
X-790740Y240496D01*
X-816140Y215096D01*
X-790740D01*
X-765340Y189696D01*
X-676440Y11896D02*
X-651040Y37296D01*
X-625640D01*
X-651040Y62696D01*
X-625640Y88096D01*
X-651040D01*
X-676440Y113496D01*
X-701840Y88096D01*
X-727240D01*
X-701840Y62696D01*
X-727240Y37296D01*
X-701840D01*
X-676440Y11896D01*
X-943140Y1612096D02*
X-917740Y1637496D01*
X-892340D01*
X-917740Y1662896D01*
X-892340Y1688296D01*
X-917740D01*
X-943140Y1713696D01*
X-968540Y1688296D01*
X-993940D01*
X-968540Y1662896D01*
X-993940Y1637496D01*
X-968540D01*
X-943140Y1612096D01*
Y1256496D02*
X-917740Y1281896D01*
X-892340D01*
X-917740Y1307296D01*
X-892340Y1332696D01*
X-917740D01*
X-943140Y1358096D01*
X-968540Y1332696D01*
X-993940D01*
X-968540Y1307296D01*
X-993940Y1281896D01*
X-968540D01*
X-943140Y1256496D01*
Y900896D02*
X-917740Y926296D01*
X-892340D01*
X-917740Y951696D01*
X-892340Y977096D01*
X-917740D01*
X-943140Y1002496D01*
X-968540Y977096D01*
X-993940D01*
X-968540Y951696D01*
X-993940Y926296D01*
X-968540D01*
X-943140Y900896D01*
X-854240Y723096D02*
X-828840Y748496D01*
X-803440D01*
X-828840Y773896D01*
X-803440Y799296D01*
X-828840D01*
X-854240Y824696D01*
X-879640Y799296D01*
X-905040D01*
X-879640Y773896D01*
X-905040Y748496D01*
X-879640D01*
X-854240Y723096D01*
X-943140Y545296D02*
X-917740Y570696D01*
X-892340D01*
X-917740Y596096D01*
X-892340Y621496D01*
X-917740D01*
X-943140Y646896D01*
X-968540Y621496D01*
X-993940D01*
X-968540Y596096D01*
X-993940Y570696D01*
X-968540D01*
X-943140Y545296D01*
X-854240Y367496D02*
X-828840Y392896D01*
X-803440D01*
X-828840Y418296D01*
X-803440Y443696D01*
X-828840D01*
X-854240Y469096D01*
X-879640Y443696D01*
X-905040D01*
X-879640Y418296D01*
X-905040Y392896D01*
X-879640D01*
X-854240Y367496D01*
X-943140Y189696D02*
X-917740Y215096D01*
X-892340D01*
X-917740Y240496D01*
X-892340Y265896D01*
X-917740D01*
X-943140Y291296D01*
X-968540Y265896D01*
X-993940D01*
X-968540Y240496D01*
X-993940Y215096D01*
X-968540D01*
X-943140Y189696D01*
X-854240Y11896D02*
X-828840Y37296D01*
X-803440D01*
X-828840Y62696D01*
X-803440Y88096D01*
X-828840D01*
X-854240Y113496D01*
X-879640Y88096D01*
X-905040D01*
X-879640Y62696D01*
X-905040Y37296D01*
X-879640D01*
X-854240Y11896D01*
X-943140Y-165904D02*
X-917740Y-140504D01*
X-892340D01*
X-917740Y-115104D01*
X-892340Y-89704D01*
X-917740D01*
X-943140Y-64304D01*
X-968540Y-89704D01*
X-993940D01*
X-968540Y-115104D01*
X-993940Y-140504D01*
X-968540D01*
X-943140Y-165904D01*
X-1032040Y1789896D02*
X-1006640Y1815296D01*
X-981240D01*
X-1006640Y1840696D01*
X-981240Y1866096D01*
X-1006640D01*
X-1032040Y1891496D01*
X-1057440Y1866096D01*
X-1082840D01*
X-1057440Y1840696D01*
X-1082840Y1815296D01*
X-1057440D01*
X-1032040Y1789896D01*
X-1120940Y1612096D02*
X-1095540Y1637496D01*
X-1070140D01*
X-1095540Y1662896D01*
X-1070140Y1688296D01*
X-1095540D01*
X-1120940Y1713696D01*
X-1146340Y1688296D01*
X-1171740D01*
X-1146340Y1662896D01*
X-1171740Y1637496D01*
X-1146340D01*
X-1120940Y1612096D01*
X-1032040Y1434296D02*
X-1006640Y1459696D01*
X-981240D01*
X-1006640Y1485096D01*
X-981240Y1510496D01*
X-1006640D01*
X-1032040Y1535896D01*
X-1057440Y1510496D01*
X-1082840D01*
X-1057440Y1485096D01*
X-1082840Y1459696D01*
X-1057440D01*
X-1032040Y1434296D01*
X-1120940Y1256496D02*
X-1095540Y1281896D01*
X-1070140D01*
X-1095540Y1307296D01*
X-1070140Y1332696D01*
X-1095540D01*
X-1120940Y1358096D01*
X-1146340Y1332696D01*
X-1171740D01*
X-1146340Y1307296D01*
X-1171740Y1281896D01*
X-1146340D01*
X-1120940Y1256496D01*
Y189696D02*
X-1095540Y215096D01*
X-1070140D01*
X-1095540Y240496D01*
X-1070140Y265896D01*
X-1095540D01*
X-1120940Y291296D01*
X-1146340Y265896D01*
X-1171740D01*
X-1146340Y240496D01*
X-1171740Y215096D01*
X-1146340D01*
X-1120940Y189696D01*
Y-165904D02*
X-1095540Y-140504D01*
X-1070140D01*
X-1095540Y-115104D01*
X-1070140Y-89704D01*
X-1095540D01*
X-1120940Y-64304D01*
X-1146340Y-89704D01*
X-1171740D01*
X-1146340Y-115104D01*
X-1171740Y-140504D01*
X-1146340D01*
X-1120940Y-165904D01*
X-1209840Y1789896D02*
X-1184440Y1815296D01*
X-1159040D01*
X-1184440Y1840696D01*
X-1159040Y1866096D01*
X-1184440D01*
X-1209840Y1891496D01*
X-1235240Y1866096D01*
X-1260640D01*
X-1235240Y1840696D01*
X-1260640Y1815296D01*
X-1235240D01*
X-1209840Y1789896D01*
Y1434296D02*
X-1184440Y1459696D01*
X-1159040D01*
X-1184440Y1485096D01*
X-1159040Y1510496D01*
X-1184440D01*
X-1209840Y1535896D01*
X-1235240Y1510496D01*
X-1260640D01*
X-1235240Y1485096D01*
X-1260640Y1459696D01*
X-1235240D01*
X-1209840Y1434296D01*
X-1298740Y1256496D02*
X-1273340Y1281896D01*
X-1247940D01*
X-1273340Y1307296D01*
X-1247940Y1332696D01*
X-1273340D01*
X-1298740Y1358096D01*
X-1324140Y1332696D01*
X-1349540D01*
X-1324140Y1307296D01*
X-1349540Y1281896D01*
X-1324140D01*
X-1298740Y1256496D01*
X-1387640Y1789896D02*
X-1362240Y1815296D01*
X-1336840D01*
X-1362240Y1840696D01*
X-1336840Y1866096D01*
X-1362240D01*
X-1387640Y1891496D01*
X-1413040Y1866096D01*
X-1438440D01*
X-1413040Y1840696D01*
X-1438440Y1815296D01*
X-1413040D01*
X-1387640Y1789896D01*
X-1476540Y1256496D02*
X-1451140Y1281896D01*
X-1425740D01*
X-1451140Y1307296D01*
X-1425740Y1332696D01*
X-1451140D01*
X-1476540Y1358096D01*
X-1501940Y1332696D01*
X-1527340D01*
X-1501940Y1307296D01*
X-1527340Y1281896D01*
X-1501940D01*
X-1476540Y1256496D01*
X-1565440Y1789896D02*
X-1540040Y1815296D01*
X-1514640D01*
X-1540040Y1840696D01*
X-1514640Y1866096D01*
X-1540040D01*
X-1565440Y1891496D01*
X-1590840Y1866096D01*
X-1616240D01*
X-1590840Y1840696D01*
X-1616240Y1815296D01*
X-1590840D01*
X-1565440Y1789896D01*
X-1654340Y1256496D02*
X-1628940Y1281896D01*
X-1603540D01*
X-1628940Y1307296D01*
X-1603540Y1332696D01*
X-1628940D01*
X-1654340Y1358096D01*
X-1679740Y1332696D01*
X-1705140D01*
X-1679740Y1307296D01*
X-1705140Y1281896D01*
X-1679740D01*
X-1654340Y1256496D01*
X-1743240Y1789896D02*
X-1717840Y1815296D01*
X-1692440D01*
X-1717840Y1840696D01*
X-1692440Y1866096D01*
X-1717840D01*
X-1743240Y1891496D01*
X-1768640Y1866096D01*
X-1794040D01*
X-1768640Y1840696D01*
X-1794040Y1815296D01*
X-1768640D01*
X-1743240Y1789896D01*
X-1832140Y1612096D02*
X-1806740Y1637496D01*
X-1781340D01*
X-1806740Y1662896D01*
X-1781340Y1688296D01*
X-1806740D01*
X-1832140Y1713696D01*
X-1857540Y1688296D01*
X-1882940D01*
X-1857540Y1662896D01*
X-1882940Y1637496D01*
X-1857540D01*
X-1832140Y1612096D01*
X-1743240Y1434296D02*
X-1717840Y1459696D01*
X-1692440D01*
X-1717840Y1485096D01*
X-1692440Y1510496D01*
X-1717840D01*
X-1743240Y1535896D01*
X-1768640Y1510496D01*
X-1794040D01*
X-1768640Y1485096D01*
X-1794040Y1459696D01*
X-1768640D01*
X-1743240Y1434296D01*
X-1832140Y1256496D02*
X-1806740Y1281896D01*
X-1781340D01*
X-1806740Y1307296D01*
X-1781340Y1332696D01*
X-1806740D01*
X-1832140Y1358096D01*
X-1857540Y1332696D01*
X-1882940D01*
X-1857540Y1307296D01*
X-1882940Y1281896D01*
X-1857540D01*
X-1832140Y1256496D01*
X-2721140Y-165904D02*
X-2695740Y-140504D01*
X-2670340D01*
X-2695740Y-115104D01*
X-2670340Y-89704D01*
X-2695740D01*
X-2721140Y-64304D01*
X-2746540Y-89704D01*
X-2771940D01*
X-2746540Y-115104D01*
X-2771940Y-140504D01*
X-2746540D01*
X-2721140Y-165904D01*
X-2810040Y11896D02*
X-2784640Y37296D01*
X-2759240D01*
X-2784640Y62696D01*
X-2759240Y88096D01*
X-2784640D01*
X-2810040Y113496D01*
X-2835440Y88096D01*
X-2860840D01*
X-2835440Y62696D01*
X-2860840Y37296D01*
X-2835440D01*
X-2810040Y11896D01*
X-2987840D02*
X-2962440Y37296D01*
X-2937040D01*
X-2962440Y62696D01*
X-2937040Y88096D01*
X-2962440D01*
X-2987840Y113496D01*
X-3013240Y88096D01*
X-3038640D01*
X-3013240Y62696D01*
X-3038640Y37296D01*
X-3013240D01*
X-2987840Y11896D01*
X-3165640D02*
X-3140240Y37296D01*
X-3114840D01*
X-3140240Y62696D01*
X-3114840Y88096D01*
X-3140240D01*
X-3165640Y113496D01*
X-3191040Y88096D01*
X-3216440D01*
X-3191040Y62696D01*
X-3216440Y37296D01*
X-3191040D01*
X-3165640Y11896D01*
X-3343440D02*
X-3318040Y37296D01*
X-3292640D01*
X-3318040Y62696D01*
X-3292640Y88096D01*
X-3318040D01*
X-3343440Y113496D01*
X-3368840Y88096D01*
X-3394240D01*
X-3368840Y62696D01*
X-3394240Y37296D01*
X-3368840D01*
X-3343440Y11896D01*
X-3521240D02*
X-3495840Y37296D01*
X-3470440D01*
X-3495840Y62696D01*
X-3470440Y88096D01*
X-3495840D01*
X-3521240Y113496D01*
X-3546640Y88096D01*
X-3572040D01*
X-3546640Y62696D01*
X-3572040Y37296D01*
X-3546640D01*
X-3521240Y11896D01*
X-3787940Y545296D02*
X-3762540Y570696D01*
X-3737140D01*
X-3762540Y596096D01*
X-3737140Y621496D01*
X-3762540D01*
X-3787940Y646896D01*
X-3813340Y621496D01*
X-3838740D01*
X-3813340Y596096D01*
X-3838740Y570696D01*
X-3813340D01*
X-3787940Y545296D01*
X-3699040Y11896D02*
X-3673640Y37296D01*
X-3648240D01*
X-3673640Y62696D01*
X-3648240Y88096D01*
X-3673640D01*
X-3699040Y113496D01*
X-3724440Y88096D01*
X-3749840D01*
X-3724440Y62696D01*
X-3749840Y37296D01*
X-3724440D01*
X-3699040Y11896D01*
X-3876840D02*
X-3851440Y37296D01*
X-3826040D01*
X-3851440Y62696D01*
X-3826040Y88096D01*
X-3851440D01*
X-3876840Y113496D01*
X-3902240Y88096D01*
X-3927640D01*
X-3902240Y62696D01*
X-3927640Y37296D01*
X-3902240D01*
X-3876840Y11896D01*
X-4054640D02*
X-4029240Y37296D01*
X-4003840D01*
X-4029240Y62696D01*
X-4003840Y88096D01*
X-4029240D01*
X-4054640Y113496D01*
X-4080040Y88096D01*
X-4105440D01*
X-4080040Y62696D01*
X-4105440Y37296D01*
X-4080040D01*
X-4054640Y11896D01*
X-4232440D02*
X-4207040Y37296D01*
X-4181640D01*
X-4207040Y62696D01*
X-4181640Y88096D01*
X-4207040D01*
X-4232440Y113496D01*
X-4257840Y88096D01*
X-4283240D01*
X-4257840Y62696D01*
X-4283240Y37296D01*
X-4257840D01*
X-4232440Y11896D01*
X-4499140Y900896D02*
X-4473740Y926296D01*
X-4448340D01*
X-4473740Y951696D01*
X-4448340Y977096D01*
X-4473740D01*
X-4499140Y1002496D01*
X-4524540Y977096D01*
X-4549940D01*
X-4524540Y951696D01*
X-4549940Y926296D01*
X-4524540D01*
X-4499140Y900896D01*
X-4410240Y11896D02*
X-4384840Y37296D01*
X-4359440D01*
X-4384840Y62696D01*
X-4359440Y88096D01*
X-4384840D01*
X-4410240Y113496D01*
X-4435640Y88096D01*
X-4461040D01*
X-4435640Y62696D01*
X-4461040Y37296D01*
X-4435640D01*
X-4410240Y11896D01*
X-4499140Y-165904D02*
X-4473740Y-140504D01*
X-4448340D01*
X-4473740Y-115104D01*
X-4448340Y-89704D01*
X-4473740D01*
X-4499140Y-64304D01*
X-4524540Y-89704D01*
X-4549940D01*
X-4524540Y-115104D01*
X-4549940Y-140504D01*
X-4524540D01*
X-4499140Y-165904D01*
X-4676940Y900896D02*
X-4651540Y926296D01*
X-4626140D01*
X-4651540Y951696D01*
X-4626140Y977096D01*
X-4651540D01*
X-4676940Y1002496D01*
X-4702340Y977096D01*
X-4727740D01*
X-4702340Y951696D01*
X-4727740Y926296D01*
X-4702340D01*
X-4676940Y900896D01*
Y-165904D02*
X-4651540Y-140504D01*
X-4626140D01*
X-4651540Y-115104D01*
X-4626140Y-89704D01*
X-4651540D01*
X-4676940Y-64304D01*
X-4702340Y-89704D01*
X-4727740D01*
X-4702340Y-115104D01*
X-4727740Y-140504D01*
X-4702340D01*
X-4676940Y-165904D01*
X-4854740Y900896D02*
X-4829340Y926296D01*
X-4803940D01*
X-4829340Y951696D01*
X-4803940Y977096D01*
X-4829340D01*
X-4854740Y1002496D01*
X-4880140Y977096D01*
X-4905540D01*
X-4880140Y951696D01*
X-4905540Y926296D01*
X-4880140D01*
X-4854740Y900896D01*
X-4765840Y723096D02*
X-4740440Y748496D01*
X-4715040D01*
X-4740440Y773896D01*
X-4715040Y799296D01*
X-4740440D01*
X-4765840Y824696D01*
X-4791240Y799296D01*
X-4816640D01*
X-4791240Y773896D01*
X-4816640Y748496D01*
X-4791240D01*
X-4765840Y723096D01*
X-4854740Y545296D02*
X-4829340Y570696D01*
X-4803940D01*
X-4829340Y596096D01*
X-4803940Y621496D01*
X-4829340D01*
X-4854740Y646896D01*
X-4880140Y621496D01*
X-4905540D01*
X-4880140Y596096D01*
X-4905540Y570696D01*
X-4880140D01*
X-4854740Y545296D01*
X-4765840Y367496D02*
X-4740440Y392896D01*
X-4715040D01*
X-4740440Y418296D01*
X-4715040Y443696D01*
X-4740440D01*
X-4765840Y469096D01*
X-4791240Y443696D01*
X-4816640D01*
X-4791240Y418296D01*
X-4816640Y392896D01*
X-4791240D01*
X-4765840Y367496D01*
Y11896D02*
X-4740440Y37296D01*
X-4715040D01*
X-4740440Y62696D01*
X-4715040Y88096D01*
X-4740440D01*
X-4765840Y113496D01*
X-4791240Y88096D01*
X-4816640D01*
X-4791240Y62696D01*
X-4816640Y37296D01*
X-4791240D01*
X-4765840Y11896D01*
X-4854740Y-165904D02*
X-4829340Y-140504D01*
X-4803940D01*
X-4829340Y-115104D01*
X-4803940Y-89704D01*
X-4829340D01*
X-4854740Y-64304D01*
X-4880140Y-89704D01*
X-4905540D01*
X-4880140Y-115104D01*
X-4905540Y-140504D01*
X-4880140D01*
X-4854740Y-165904D01*
X-5032540Y900896D02*
X-5007140Y926296D01*
X-4981740D01*
X-5007140Y951696D01*
X-4981740Y977096D01*
X-5007140D01*
X-5032540Y1002496D01*
X-5057940Y977096D01*
X-5083340D01*
X-5057940Y951696D01*
X-5083340Y926296D01*
X-5057940D01*
X-5032540Y900896D01*
X-4943640Y723096D02*
X-4918240Y748496D01*
X-4892840D01*
X-4918240Y773896D01*
X-4892840Y799296D01*
X-4918240D01*
X-4943640Y824696D01*
X-4969040Y799296D01*
X-4994440D01*
X-4969040Y773896D01*
X-4994440Y748496D01*
X-4969040D01*
X-4943640Y723096D01*
X-5032540Y545296D02*
X-5007140Y570696D01*
X-4981740D01*
X-5007140Y596096D01*
X-4981740Y621496D01*
X-5007140D01*
X-5032540Y646896D01*
X-5057940Y621496D01*
X-5083340D01*
X-5057940Y596096D01*
X-5083340Y570696D01*
X-5057940D01*
X-5032540Y545296D01*
X-4943640Y367496D02*
X-4918240Y392896D01*
X-4892840D01*
X-4918240Y418296D01*
X-4892840Y443696D01*
X-4918240D01*
X-4943640Y469096D01*
X-4969040Y443696D01*
X-4994440D01*
X-4969040Y418296D01*
X-4994440Y392896D01*
X-4969040D01*
X-4943640Y367496D01*
Y11896D02*
X-4918240Y37296D01*
X-4892840D01*
X-4918240Y62696D01*
X-4892840Y88096D01*
X-4918240D01*
X-4943640Y113496D01*
X-4969040Y88096D01*
X-4994440D01*
X-4969040Y62696D01*
X-4994440Y37296D01*
X-4969040D01*
X-4943640Y11896D01*
X-5210340Y1612096D02*
X-5184940Y1637496D01*
X-5159540D01*
X-5184940Y1662896D01*
X-5159540Y1688296D01*
X-5184940D01*
X-5210340Y1713696D01*
X-5235740Y1688296D01*
X-5261140D01*
X-5235740Y1662896D01*
X-5261140Y1637496D01*
X-5235740D01*
X-5210340Y1612096D01*
X-5121440Y1434296D02*
X-5096040Y1459696D01*
X-5070640D01*
X-5096040Y1485096D01*
X-5070640Y1510496D01*
X-5096040D01*
X-5121440Y1535896D01*
X-5146840Y1510496D01*
X-5172240D01*
X-5146840Y1485096D01*
X-5172240Y1459696D01*
X-5146840D01*
X-5121440Y1434296D01*
X-5210340Y1256496D02*
X-5184940Y1281896D01*
X-5159540D01*
X-5184940Y1307296D01*
X-5159540Y1332696D01*
X-5184940D01*
X-5210340Y1358096D01*
X-5235740Y1332696D01*
X-5261140D01*
X-5235740Y1307296D01*
X-5261140Y1281896D01*
X-5235740D01*
X-5210340Y1256496D01*
X-5121440Y1078696D02*
X-5096040Y1104096D01*
X-5070640D01*
X-5096040Y1129496D01*
X-5070640Y1154896D01*
X-5096040D01*
X-5121440Y1180296D01*
X-5146840Y1154896D01*
X-5172240D01*
X-5146840Y1129496D01*
X-5172240Y1104096D01*
X-5146840D01*
X-5121440Y1078696D01*
X-5210340Y900896D02*
X-5184940Y926296D01*
X-5159540D01*
X-5184940Y951696D01*
X-5159540Y977096D01*
X-5184940D01*
X-5210340Y1002496D01*
X-5235740Y977096D01*
X-5261140D01*
X-5235740Y951696D01*
X-5261140Y926296D01*
X-5235740D01*
X-5210340Y900896D01*
X-5121440Y723096D02*
X-5096040Y748496D01*
X-5070640D01*
X-5096040Y773896D01*
X-5070640Y799296D01*
X-5096040D01*
X-5121440Y824696D01*
X-5146840Y799296D01*
X-5172240D01*
X-5146840Y773896D01*
X-5172240Y748496D01*
X-5146840D01*
X-5121440Y723096D01*
Y11896D02*
X-5096040Y37296D01*
X-5070640D01*
X-5096040Y62696D01*
X-5070640Y88096D01*
X-5096040D01*
X-5121440Y113496D01*
X-5146840Y88096D01*
X-5172240D01*
X-5146840Y62696D01*
X-5172240Y37296D01*
X-5146840D01*
X-5121440Y11896D01*
X-5299240Y2145496D02*
X-5273840Y2170896D01*
X-5248440D01*
X-5273840Y2196296D01*
X-5248440Y2221696D01*
X-5273840D01*
X-5299240Y2247096D01*
X-5324640Y2221696D01*
X-5350040D01*
X-5324640Y2196296D01*
X-5350040Y2170896D01*
X-5324640D01*
X-5299240Y2145496D01*
Y1789896D02*
X-5273840Y1815296D01*
X-5248440D01*
X-5273840Y1840696D01*
X-5248440Y1866096D01*
X-5273840D01*
X-5299240Y1891496D01*
X-5324640Y1866096D01*
X-5350040D01*
X-5324640Y1840696D01*
X-5350040Y1815296D01*
X-5324640D01*
X-5299240Y1789896D01*
Y1434296D02*
X-5273840Y1459696D01*
X-5248440D01*
X-5273840Y1485096D01*
X-5248440Y1510496D01*
X-5273840D01*
X-5299240Y1535896D01*
X-5324640Y1510496D01*
X-5350040D01*
X-5324640Y1485096D01*
X-5350040Y1459696D01*
X-5324640D01*
X-5299240Y1434296D01*
Y1078696D02*
X-5273840Y1104096D01*
X-5248440D01*
X-5273840Y1129496D01*
X-5248440Y1154896D01*
X-5273840D01*
X-5299240Y1180296D01*
X-5324640Y1154896D01*
X-5350040D01*
X-5324640Y1129496D01*
X-5350040Y1104096D01*
X-5324640D01*
X-5299240Y1078696D01*
Y723096D02*
X-5273840Y748496D01*
X-5248440D01*
X-5273840Y773896D01*
X-5248440Y799296D01*
X-5273840D01*
X-5299240Y824696D01*
X-5324640Y799296D01*
X-5350040D01*
X-5324640Y773896D01*
X-5350040Y748496D01*
X-5324640D01*
X-5299240Y723096D01*
X-5388140Y545296D02*
X-5362740Y570696D01*
X-5337340D01*
X-5362740Y596096D01*
X-5337340Y621496D01*
X-5362740D01*
X-5388140Y646896D01*
X-5413540Y621496D01*
X-5438940D01*
X-5413540Y596096D01*
X-5438940Y570696D01*
X-5413540D01*
X-5388140Y545296D01*
X-5299240Y11896D02*
X-5273840Y37296D01*
X-5248440D01*
X-5273840Y62696D01*
X-5248440Y88096D01*
X-5273840D01*
X-5299240Y113496D01*
X-5324640Y88096D01*
X-5350040D01*
X-5324640Y62696D01*
X-5350040Y37296D01*
X-5324640D01*
X-5299240Y11896D01*
X-5477040Y2145496D02*
X-5451640Y2170896D01*
X-5426240D01*
X-5451640Y2196296D01*
X-5426240Y2221696D01*
X-5451640D01*
X-5477040Y2247096D01*
X-5502440Y2221696D01*
X-5527840D01*
X-5502440Y2196296D01*
X-5527840Y2170896D01*
X-5502440D01*
X-5477040Y2145496D01*
X-5565940Y545296D02*
X-5540540Y570696D01*
X-5515140D01*
X-5540540Y596096D01*
X-5515140Y621496D01*
X-5540540D01*
X-5565940Y646896D01*
X-5591340Y621496D01*
X-5616740D01*
X-5591340Y596096D01*
X-5616740Y570696D01*
X-5591340D01*
X-5565940Y545296D01*
X-5477040Y367496D02*
X-5451640Y392896D01*
X-5426240D01*
X-5451640Y418296D01*
X-5426240Y443696D01*
X-5451640D01*
X-5477040Y469096D01*
X-5502440Y443696D01*
X-5527840D01*
X-5502440Y418296D01*
X-5527840Y392896D01*
X-5502440D01*
X-5477040Y367496D01*
Y11896D02*
X-5451640Y37296D01*
X-5426240D01*
X-5451640Y62696D01*
X-5426240Y88096D01*
X-5451640D01*
X-5477040Y113496D01*
X-5502440Y88096D01*
X-5527840D01*
X-5502440Y62696D01*
X-5527840Y37296D01*
X-5502440D01*
X-5477040Y11896D01*
X-5654840Y2145496D02*
X-5629440Y2170896D01*
X-5604040D01*
X-5629440Y2196296D01*
X-5604040Y2221696D01*
X-5629440D01*
X-5654840Y2247096D01*
X-5680240Y2221696D01*
X-5705640D01*
X-5680240Y2196296D01*
X-5705640Y2170896D01*
X-5680240D01*
X-5654840Y2145496D01*
X-5743740Y545296D02*
X-5718340Y570696D01*
X-5692940D01*
X-5718340Y596096D01*
X-5692940Y621496D01*
X-5718340D01*
X-5743740Y646896D01*
X-5769140Y621496D01*
X-5794540D01*
X-5769140Y596096D01*
X-5794540Y570696D01*
X-5769140D01*
X-5743740Y545296D01*
X-5654840Y367496D02*
X-5629440Y392896D01*
X-5604040D01*
X-5629440Y418296D01*
X-5604040Y443696D01*
X-5629440D01*
X-5654840Y469096D01*
X-5680240Y443696D01*
X-5705640D01*
X-5680240Y418296D01*
X-5705640Y392896D01*
X-5680240D01*
X-5654840Y367496D01*
Y11896D02*
X-5629440Y37296D01*
X-5604040D01*
X-5629440Y62696D01*
X-5604040Y88096D01*
X-5629440D01*
X-5654840Y113496D01*
X-5680240Y88096D01*
X-5705640D01*
X-5680240Y62696D01*
X-5705640Y37296D01*
X-5680240D01*
X-5654840Y11896D01*
X-5743740Y-165904D02*
X-5718340Y-140504D01*
X-5692940D01*
X-5718340Y-115104D01*
X-5692940Y-89704D01*
X-5718340D01*
X-5743740Y-64304D01*
X-5769140Y-89704D01*
X-5794540D01*
X-5769140Y-115104D01*
X-5794540Y-140504D01*
X-5769140D01*
X-5743740Y-165904D01*
X-5832640Y2145496D02*
X-5807240Y2170896D01*
X-5781840D01*
X-5807240Y2196296D01*
X-5781840Y2221696D01*
X-5807240D01*
X-5832640Y2247096D01*
X-5858040Y2221696D01*
X-5883440D01*
X-5858040Y2196296D01*
X-5883440Y2170896D01*
X-5858040D01*
X-5832640Y2145496D01*
X-7699540Y2678896D02*
X-7674140Y2704296D01*
X-7648740D01*
X-7674140Y2729696D01*
X-7648740Y2755096D01*
X-7674140D01*
X-7699540Y2780496D01*
X-7724940Y2755096D01*
X-7750340D01*
X-7724940Y2729696D01*
X-7750340Y2704296D01*
X-7724940D01*
X-7699540Y2678896D01*
Y2323296D02*
X-7674140Y2348696D01*
X-7648740D01*
X-7674140Y2374096D01*
X-7648740Y2399496D01*
X-7674140D01*
X-7699540Y2424896D01*
X-7724940Y2399496D01*
X-7750340D01*
X-7724940Y2374096D01*
X-7750340Y2348696D01*
X-7724940D01*
X-7699540Y2323296D01*
Y545296D02*
X-7674140Y570696D01*
X-7648740D01*
X-7674140Y596096D01*
X-7648740Y621496D01*
X-7674140D01*
X-7699540Y646896D01*
X-7724940Y621496D01*
X-7750340D01*
X-7724940Y596096D01*
X-7750340Y570696D01*
X-7724940D01*
X-7699540Y545296D01*
Y189696D02*
X-7674140Y215096D01*
X-7648740D01*
X-7674140Y240496D01*
X-7648740Y265896D01*
X-7674140D01*
X-7699540Y291296D01*
X-7724940Y265896D01*
X-7750340D01*
X-7724940Y240496D01*
X-7750340Y215096D01*
X-7724940D01*
X-7699540Y189696D01*
Y-165904D02*
X-7674140Y-140504D01*
X-7648740D01*
X-7674140Y-115104D01*
X-7648740Y-89704D01*
X-7674140D01*
X-7699540Y-64304D01*
X-7724940Y-89704D01*
X-7750340D01*
X-7724940Y-115104D01*
X-7750340Y-140504D01*
X-7724940D01*
X-7699540Y-165904D01*
X-7788440Y2856696D02*
X-7763040Y2882096D01*
X-7737640D01*
X-7763040Y2907496D01*
X-7737640Y2932896D01*
X-7763040D01*
X-7788440Y2958296D01*
X-7813840Y2932896D01*
X-7839240D01*
X-7813840Y2907496D01*
X-7839240Y2882096D01*
X-7813840D01*
X-7788440Y2856696D01*
X-7877340Y2678896D02*
X-7851940Y2704296D01*
X-7826540D01*
X-7851940Y2729696D01*
X-7826540Y2755096D01*
X-7851940D01*
X-7877340Y2780496D01*
X-7902740Y2755096D01*
X-7928140D01*
X-7902740Y2729696D01*
X-7928140Y2704296D01*
X-7902740D01*
X-7877340Y2678896D01*
X-7788440Y2145496D02*
X-7763040Y2170896D01*
X-7737640D01*
X-7763040Y2196296D01*
X-7737640Y2221696D01*
X-7763040D01*
X-7788440Y2247096D01*
X-7813840Y2221696D01*
X-7839240D01*
X-7813840Y2196296D01*
X-7839240Y2170896D01*
X-7813840D01*
X-7788440Y2145496D01*
X-7877340Y545296D02*
X-7851940Y570696D01*
X-7826540D01*
X-7851940Y596096D01*
X-7826540Y621496D01*
X-7851940D01*
X-7877340Y646896D01*
X-7902740Y621496D01*
X-7928140D01*
X-7902740Y596096D01*
X-7928140Y570696D01*
X-7902740D01*
X-7877340Y545296D01*
X-7788440Y367496D02*
X-7763040Y392896D01*
X-7737640D01*
X-7763040Y418296D01*
X-7737640Y443696D01*
X-7763040D01*
X-7788440Y469096D01*
X-7813840Y443696D01*
X-7839240D01*
X-7813840Y418296D01*
X-7839240Y392896D01*
X-7813840D01*
X-7788440Y367496D01*
Y11896D02*
X-7763040Y37296D01*
X-7737640D01*
X-7763040Y62696D01*
X-7737640Y88096D01*
X-7763040D01*
X-7788440Y113496D01*
X-7813840Y88096D01*
X-7839240D01*
X-7813840Y62696D01*
X-7839240Y37296D01*
X-7813840D01*
X-7788440Y11896D01*
X-7877340Y-165904D02*
X-7851940Y-140504D01*
X-7826540D01*
X-7851940Y-115104D01*
X-7826540Y-89704D01*
X-7851940D01*
X-7877340Y-64304D01*
X-7902740Y-89704D01*
X-7928140D01*
X-7902740Y-115104D01*
X-7928140Y-140504D01*
X-7902740D01*
X-7877340Y-165904D01*
X-7966240Y2856696D02*
X-7940840Y2882096D01*
X-7915440D01*
X-7940840Y2907496D01*
X-7915440Y2932896D01*
X-7940840D01*
X-7966240Y2958296D01*
X-7991640Y2932896D01*
X-8017040D01*
X-7991640Y2907496D01*
X-8017040Y2882096D01*
X-7991640D01*
X-7966240Y2856696D01*
X-8055140Y2678896D02*
X-8029740Y2704296D01*
X-8004340D01*
X-8029740Y2729696D01*
X-8004340Y2755096D01*
X-8029740D01*
X-8055140Y2780496D01*
X-8080540Y2755096D01*
X-8105940D01*
X-8080540Y2729696D01*
X-8105940Y2704296D01*
X-8080540D01*
X-8055140Y2678896D01*
X-7966240Y2145496D02*
X-7940840Y2170896D01*
X-7915440D01*
X-7940840Y2196296D01*
X-7915440Y2221696D01*
X-7940840D01*
X-7966240Y2247096D01*
X-7991640Y2221696D01*
X-8017040D01*
X-7991640Y2196296D01*
X-8017040Y2170896D01*
X-7991640D01*
X-7966240Y2145496D01*
X-8055140Y545296D02*
X-8029740Y570696D01*
X-8004340D01*
X-8029740Y596096D01*
X-8004340Y621496D01*
X-8029740D01*
X-8055140Y646896D01*
X-8080540Y621496D01*
X-8105940D01*
X-8080540Y596096D01*
X-8105940Y570696D01*
X-8080540D01*
X-8055140Y545296D01*
X-7966240Y11896D02*
X-7940840Y37296D01*
X-7915440D01*
X-7940840Y62696D01*
X-7915440Y88096D01*
X-7940840D01*
X-7966240Y113496D01*
X-7991640Y88096D01*
X-8017040D01*
X-7991640Y62696D01*
X-8017040Y37296D01*
X-7991640D01*
X-7966240Y11896D01*
X-8055140Y-165904D02*
X-8029740Y-140504D01*
X-8004340D01*
X-8029740Y-115104D01*
X-8004340Y-89704D01*
X-8029740D01*
X-8055140Y-64304D01*
X-8080540Y-89704D01*
X-8105940D01*
X-8080540Y-115104D01*
X-8105940Y-140504D01*
X-8080540D01*
X-8055140Y-165904D01*
X-8232940Y2678896D02*
X-8207540Y2704296D01*
X-8182140D01*
X-8207540Y2729696D01*
X-8182140Y2755096D01*
X-8207540D01*
X-8232940Y2780496D01*
X-8258340Y2755096D01*
X-8283740D01*
X-8258340Y2729696D01*
X-8283740Y2704296D01*
X-8258340D01*
X-8232940Y2678896D01*
Y545296D02*
X-8207540Y570696D01*
X-8182140D01*
X-8207540Y596096D01*
X-8182140Y621496D01*
X-8207540D01*
X-8232940Y646896D01*
X-8258340Y621496D01*
X-8283740D01*
X-8258340Y596096D01*
X-8283740Y570696D01*
X-8258340D01*
X-8232940Y545296D01*
Y-165904D02*
X-8207540Y-140504D01*
X-8182140D01*
X-8207540Y-115104D01*
X-8182140Y-89704D01*
X-8207540D01*
X-8232940Y-64304D01*
X-8258340Y-89704D01*
X-8283740D01*
X-8258340Y-115104D01*
X-8283740Y-140504D01*
X-8258340D01*
X-8232940Y-165904D01*
X-8321840Y2856696D02*
X-8296440Y2882096D01*
X-8271040D01*
X-8296440Y2907496D01*
X-8271040Y2932896D01*
X-8296440D01*
X-8321840Y2958296D01*
X-8347240Y2932896D01*
X-8372640D01*
X-8347240Y2907496D01*
X-8372640Y2882096D01*
X-8347240D01*
X-8321840Y2856696D01*
X-8410740Y2678896D02*
X-8385340Y2704296D01*
X-8359940D01*
X-8385340Y2729696D01*
X-8359940Y2755096D01*
X-8385340D01*
X-8410740Y2780496D01*
X-8436140Y2755096D01*
X-8461540D01*
X-8436140Y2729696D01*
X-8461540Y2704296D01*
X-8436140D01*
X-8410740Y2678896D01*
Y2323296D02*
X-8385340Y2348696D01*
X-8359940D01*
X-8385340Y2374096D01*
X-8359940Y2399496D01*
X-8385340D01*
X-8410740Y2424896D01*
X-8436140Y2399496D01*
X-8461540D01*
X-8436140Y2374096D01*
X-8461540Y2348696D01*
X-8436140D01*
X-8410740Y2323296D01*
X-8321840Y2145496D02*
X-8296440Y2170896D01*
X-8271040D01*
X-8296440Y2196296D01*
X-8271040Y2221696D01*
X-8296440D01*
X-8321840Y2247096D01*
X-8347240Y2221696D01*
X-8372640D01*
X-8347240Y2196296D01*
X-8372640Y2170896D01*
X-8347240D01*
X-8321840Y2145496D01*
X-8410740Y545296D02*
X-8385340Y570696D01*
X-8359940D01*
X-8385340Y596096D01*
X-8359940Y621496D01*
X-8385340D01*
X-8410740Y646896D01*
X-8436140Y621496D01*
X-8461540D01*
X-8436140Y596096D01*
X-8461540Y570696D01*
X-8436140D01*
X-8410740Y545296D01*
X-8321840Y367496D02*
X-8296440Y392896D01*
X-8271040D01*
X-8296440Y418296D01*
X-8271040Y443696D01*
X-8296440D01*
X-8321840Y469096D01*
X-8347240Y443696D01*
X-8372640D01*
X-8347240Y418296D01*
X-8372640Y392896D01*
X-8347240D01*
X-8321840Y367496D01*
X-8410740Y189696D02*
X-8385340Y215096D01*
X-8359940D01*
X-8385340Y240496D01*
X-8359940Y265896D01*
X-8385340D01*
X-8410740Y291296D01*
X-8436140Y265896D01*
X-8461540D01*
X-8436140Y240496D01*
X-8461540Y215096D01*
X-8436140D01*
X-8410740Y189696D01*
X-8321840Y11896D02*
X-8296440Y37296D01*
X-8271040D01*
X-8296440Y62696D01*
X-8271040Y88096D01*
X-8296440D01*
X-8321840Y113496D01*
X-8347240Y88096D01*
X-8372640D01*
X-8347240Y62696D01*
X-8372640Y37296D01*
X-8347240D01*
X-8321840Y11896D01*
X-8410740Y-165904D02*
X-8385340Y-140504D01*
X-8359940D01*
X-8385340Y-115104D01*
X-8359940Y-89704D01*
X-8385340D01*
X-8410740Y-64304D01*
X-8436140Y-89704D01*
X-8461540D01*
X-8436140Y-115104D01*
X-8461540Y-140504D01*
X-8436140D01*
X-8410740Y-165904D01*
X-8499640Y2501096D02*
X-8474240Y2526496D01*
X-8448840D01*
X-8474240Y2551896D01*
X-8448840Y2577296D01*
X-8474240D01*
X-8499640Y2602696D01*
X-8525040Y2577296D01*
X-8550440D01*
X-8525040Y2551896D01*
X-8550440Y2526496D01*
X-8525040D01*
X-8499640Y2501096D01*
X-8588540Y2323296D02*
X-8563140Y2348696D01*
X-8537740D01*
X-8563140Y2374096D01*
X-8537740Y2399496D01*
X-8563140D01*
X-8588540Y2424896D01*
X-8613940Y2399496D01*
X-8639340D01*
X-8613940Y2374096D01*
X-8639340Y2348696D01*
X-8613940D01*
X-8588540Y2323296D01*
X-8499640Y2145496D02*
X-8474240Y2170896D01*
X-8448840D01*
X-8474240Y2196296D01*
X-8448840Y2221696D01*
X-8474240D01*
X-8499640Y2247096D01*
X-8525040Y2221696D01*
X-8550440D01*
X-8525040Y2196296D01*
X-8550440Y2170896D01*
X-8525040D01*
X-8499640Y2145496D01*
X-8588540Y545296D02*
X-8563140Y570696D01*
X-8537740D01*
X-8563140Y596096D01*
X-8537740Y621496D01*
X-8563140D01*
X-8588540Y646896D01*
X-8613940Y621496D01*
X-8639340D01*
X-8613940Y596096D01*
X-8639340Y570696D01*
X-8613940D01*
X-8588540Y545296D01*
X-8499640Y367496D02*
X-8474240Y392896D01*
X-8448840D01*
X-8474240Y418296D01*
X-8448840Y443696D01*
X-8474240D01*
X-8499640Y469096D01*
X-8525040Y443696D01*
X-8550440D01*
X-8525040Y418296D01*
X-8550440Y392896D01*
X-8525040D01*
X-8499640Y367496D01*
X-8766340Y2323296D02*
X-8740940Y2348696D01*
X-8715540D01*
X-8740940Y2374096D01*
X-8715540Y2399496D01*
X-8740940D01*
X-8766340Y2424896D01*
X-8791740Y2399496D01*
X-8817140D01*
X-8791740Y2374096D01*
X-8817140Y2348696D01*
X-8791740D01*
X-8766340Y2323296D01*
X-8677440Y2145496D02*
X-8652040Y2170896D01*
X-8626640D01*
X-8652040Y2196296D01*
X-8626640Y2221696D01*
X-8652040D01*
X-8677440Y2247096D01*
X-8702840Y2221696D01*
X-8728240D01*
X-8702840Y2196296D01*
X-8728240Y2170896D01*
X-8702840D01*
X-8677440Y2145496D01*
X-8766340Y545296D02*
X-8740940Y570696D01*
X-8715540D01*
X-8740940Y596096D01*
X-8715540Y621496D01*
X-8740940D01*
X-8766340Y646896D01*
X-8791740Y621496D01*
X-8817140D01*
X-8791740Y596096D01*
X-8817140Y570696D01*
X-8791740D01*
X-8766340Y545296D01*
X-8677440Y367496D02*
X-8652040Y392896D01*
X-8626640D01*
X-8652040Y418296D01*
X-8626640Y443696D01*
X-8652040D01*
X-8677440Y469096D01*
X-8702840Y443696D01*
X-8728240D01*
X-8702840Y418296D01*
X-8728240Y392896D01*
X-8702840D01*
X-8677440Y367496D01*
X-8944140Y2323296D02*
X-8918740Y2348696D01*
X-8893340D01*
X-8918740Y2374096D01*
X-8893340Y2399496D01*
X-8918740D01*
X-8944140Y2424896D01*
X-8969540Y2399496D01*
X-8994940D01*
X-8969540Y2374096D01*
X-8994940Y2348696D01*
X-8969540D01*
X-8944140Y2323296D01*
X-8855240Y2145496D02*
X-8829840Y2170896D01*
X-8804440D01*
X-8829840Y2196296D01*
X-8804440Y2221696D01*
X-8829840D01*
X-8855240Y2247096D01*
X-8880640Y2221696D01*
X-8906040D01*
X-8880640Y2196296D01*
X-8906040Y2170896D01*
X-8880640D01*
X-8855240Y2145496D01*
X-8944140Y545296D02*
X-8918740Y570696D01*
X-8893340D01*
X-8918740Y596096D01*
X-8893340Y621496D01*
X-8918740D01*
X-8944140Y646896D01*
X-8969540Y621496D01*
X-8994940D01*
X-8969540Y596096D01*
X-8994940Y570696D01*
X-8969540D01*
X-8944140Y545296D01*
X-8855240Y367496D02*
X-8829840Y392896D01*
X-8804440D01*
X-8829840Y418296D01*
X-8804440Y443696D01*
X-8829840D01*
X-8855240Y469096D01*
X-8880640Y443696D01*
X-8906040D01*
X-8880640Y418296D01*
X-8906040Y392896D01*
X-8880640D01*
X-8855240Y367496D01*
X-4178300Y3009900D02*
X-4152900Y3035300D01*
X-4127500D01*
X-4152900Y3060700D01*
X-4127500Y3086100D01*
X-4152900D01*
X-4178300Y3111500D01*
X-4203700Y3086100D01*
X-4229100D01*
X-4203700Y3060700D01*
X-4229100Y3035300D01*
X-4203700D01*
X-4178300Y3009900D01*
Y2921000D02*
X-4152900Y2946400D01*
X-4127500D01*
X-4152900Y2971800D01*
X-4127500Y2997200D01*
X-4152900D01*
X-4178300Y3022600D01*
X-4203700Y2997200D01*
X-4229100D01*
X-4203700Y2971800D01*
X-4229100Y2946400D01*
X-4203700D01*
X-4178300Y2921000D01*
X-4076700Y3009900D02*
X-4051300Y3035300D01*
X-4025900D01*
X-4051300Y3060700D01*
X-4025900Y3086100D01*
X-4051300D01*
X-4076700Y3111500D01*
X-4102100Y3086100D01*
X-4127500D01*
X-4102100Y3060700D01*
X-4127500Y3035300D01*
X-4102100D01*
X-4076700Y3009900D01*
Y2921000D02*
X-4051300Y2946400D01*
X-4025900D01*
X-4051300Y2971800D01*
X-4025900Y2997200D01*
X-4051300D01*
X-4076700Y3022600D01*
X-4102100Y2997200D01*
X-4127500D01*
X-4102100Y2971800D01*
X-4127500Y2946400D01*
X-4102100D01*
X-4076700Y2921000D01*
X-3378200Y3022600D02*
X-3352800Y3048000D01*
X-3327400D01*
X-3352800Y3073400D01*
X-3327400Y3098800D01*
X-3352800D01*
X-3378200Y3124200D01*
X-3403600Y3098800D01*
X-3429000D01*
X-3403600Y3073400D01*
X-3429000Y3048000D01*
X-3403600D01*
X-3378200Y3022600D01*
Y2933700D02*
X-3352800Y2959100D01*
X-3327400D01*
X-3352800Y2984500D01*
X-3327400Y3009900D01*
X-3352800D01*
X-3378200Y3035300D01*
X-3403600Y3009900D01*
X-3429000D01*
X-3403600Y2984500D01*
X-3429000Y2959100D01*
X-3403600D01*
X-3378200Y2933700D01*
X-3276600Y3022600D02*
X-3251200Y3048000D01*
X-3225800D01*
X-3251200Y3073400D01*
X-3225800Y3098800D01*
X-3251200D01*
X-3276600Y3124200D01*
X-3302000Y3098800D01*
X-3327400D01*
X-3302000Y3073400D01*
X-3327400Y3048000D01*
X-3302000D01*
X-3276600Y3022600D01*
Y2933700D02*
X-3251200Y2959100D01*
X-3225800D01*
X-3251200Y2984500D01*
X-3225800Y3009900D01*
X-3251200D01*
X-3276600Y3035300D01*
X-3302000Y3009900D01*
X-3327400D01*
X-3302000Y2984500D01*
X-3327400Y2959100D01*
X-3302000D01*
X-3276600Y2933700D01*
X-3911600Y2705100D02*
X-3886200Y2730500D01*
X-3860800D01*
X-3886200Y2755900D01*
X-3860800Y2781300D01*
X-3886200D01*
X-3911600Y2806700D01*
X-3937000Y2781300D01*
X-3962400D01*
X-3937000Y2755900D01*
X-3962400Y2730500D01*
X-3937000D01*
X-3911600Y2705100D01*
X-4140200D02*
X-4114800Y2730500D01*
X-4089400D01*
X-4114800Y2755900D01*
X-4089400Y2781300D01*
X-4114800D01*
X-4140200Y2806700D01*
X-4165600Y2781300D01*
X-4191000D01*
X-4165600Y2755900D01*
X-4191000Y2730500D01*
X-4165600D01*
X-4140200Y2705100D01*
X-3987800D02*
X-3962400Y2730500D01*
X-3937000D01*
X-3962400Y2755900D01*
X-3937000Y2781300D01*
X-3962400D01*
X-3987800Y2806700D01*
X-4013200Y2781300D01*
X-4038600D01*
X-4013200Y2755900D01*
X-4038600Y2730500D01*
X-4013200D01*
X-3987800Y2705100D01*
X-4064000D02*
X-4038600Y2730500D01*
X-4013200D01*
X-4038600Y2755900D01*
X-4013200Y2781300D01*
X-4038600D01*
X-4064000Y2806700D01*
X-4089400Y2781300D01*
X-4114800D01*
X-4089400Y2755900D01*
X-4114800Y2730500D01*
X-4089400D01*
X-4064000Y2705100D01*
X-3606800D02*
X-3581400Y2730500D01*
X-3556000D01*
X-3581400Y2755900D01*
X-3556000Y2781300D01*
X-3581400D01*
X-3606800Y2806700D01*
X-3632200Y2781300D01*
X-3657600D01*
X-3632200Y2755900D01*
X-3657600Y2730500D01*
X-3632200D01*
X-3606800Y2705100D01*
X-3835400D02*
X-3810000Y2730500D01*
X-3784600D01*
X-3810000Y2755900D01*
X-3784600Y2781300D01*
X-3810000D01*
X-3835400Y2806700D01*
X-3860800Y2781300D01*
X-3886200D01*
X-3860800Y2755900D01*
X-3886200Y2730500D01*
X-3860800D01*
X-3835400Y2705100D01*
X-3683000D02*
X-3657600Y2730500D01*
X-3632200D01*
X-3657600Y2755900D01*
X-3632200Y2781300D01*
X-3657600D01*
X-3683000Y2806700D01*
X-3708400Y2781300D01*
X-3733800D01*
X-3708400Y2755900D01*
X-3733800Y2730500D01*
X-3708400D01*
X-3683000Y2705100D01*
X-3759200D02*
X-3733800Y2730500D01*
X-3708400D01*
X-3733800Y2755900D01*
X-3708400Y2781300D01*
X-3733800D01*
X-3759200Y2806700D01*
X-3784600Y2781300D01*
X-3810000D01*
X-3784600Y2755900D01*
X-3810000Y2730500D01*
X-3784600D01*
X-3759200Y2705100D01*
X-3302000Y2717800D02*
X-3276600Y2743200D01*
X-3251200D01*
X-3276600Y2768600D01*
X-3251200Y2794000D01*
X-3276600D01*
X-3302000Y2819400D01*
X-3327400Y2794000D01*
X-3352800D01*
X-3327400Y2768600D01*
X-3352800Y2743200D01*
X-3327400D01*
X-3302000Y2717800D01*
X-3530600Y2705100D02*
X-3505200Y2730500D01*
X-3479800D01*
X-3505200Y2755900D01*
X-3479800Y2781300D01*
X-3505200D01*
X-3530600Y2806700D01*
X-3556000Y2781300D01*
X-3581400D01*
X-3556000Y2755900D01*
X-3581400Y2730500D01*
X-3556000D01*
X-3530600Y2705100D01*
X-3378200D02*
X-3352800Y2730500D01*
X-3327400D01*
X-3352800Y2755900D01*
X-3327400Y2781300D01*
X-3352800D01*
X-3378200Y2806700D01*
X-3403600Y2781300D01*
X-3429000D01*
X-3403600Y2755900D01*
X-3429000Y2730500D01*
X-3403600D01*
X-3378200Y2705100D01*
X-3454400D02*
X-3429000Y2730500D01*
X-3403600D01*
X-3429000Y2755900D01*
X-3403600Y2781300D01*
X-3429000D01*
X-3454400Y2806700D01*
X-3479800Y2781300D01*
X-3505200D01*
X-3479800Y2755900D01*
X-3505200Y2730500D01*
X-3479800D01*
X-3454400Y2705100D01*
X-6982460Y1371600D02*
X-6957060Y1397000D01*
X-6931660D01*
X-6957060Y1422400D01*
X-6931660Y1447800D01*
X-6957060D01*
X-6982460Y1473200D01*
X-7007860Y1447800D01*
X-7033260D01*
X-7007860Y1422400D01*
X-7033260Y1397000D01*
X-7007860D01*
X-6982460Y1371600D01*
X-6908800D02*
X-6883400Y1397000D01*
X-6858000D01*
X-6883400Y1422400D01*
X-6858000Y1447800D01*
X-6883400D01*
X-6908800Y1473200D01*
X-6934200Y1447800D01*
X-6959600D01*
X-6934200Y1422400D01*
X-6959600Y1397000D01*
X-6934200D01*
X-6908800Y1371600D01*
X-3721100Y2222500D02*
X-3695700Y2247900D01*
X-3670300D01*
X-3695700Y2273300D01*
X-3670300Y2298700D01*
X-3695700D01*
X-3721100Y2324100D01*
X-3746500Y2298700D01*
X-3771900D01*
X-3746500Y2273300D01*
X-3771900Y2247900D01*
X-3746500D01*
X-3721100Y2222500D01*
Y2133600D02*
X-3695700Y2159000D01*
X-3670300D01*
X-3695700Y2184400D01*
X-3670300Y2209800D01*
X-3695700D01*
X-3721100Y2235200D01*
X-3746500Y2209800D01*
X-3771900D01*
X-3746500Y2184400D01*
X-3771900Y2159000D01*
X-3746500D01*
X-3721100Y2133600D01*
Y2032000D02*
X-3695700Y2057400D01*
X-3670300D01*
X-3695700Y2082800D01*
X-3670300Y2108200D01*
X-3695700D01*
X-3721100Y2133600D01*
X-3746500Y2108200D01*
X-3771900D01*
X-3746500Y2082800D01*
X-3771900Y2057400D01*
X-3746500D01*
X-3721100Y2032000D01*
Y1943100D02*
X-3695700Y1968500D01*
X-3670300D01*
X-3695700Y1993900D01*
X-3670300Y2019300D01*
X-3695700D01*
X-3721100Y2044700D01*
X-3746500Y2019300D01*
X-3771900D01*
X-3746500Y1993900D01*
X-3771900Y1968500D01*
X-3746500D01*
X-3721100Y1943100D01*
Y1854200D02*
X-3695700Y1879600D01*
X-3670300D01*
X-3695700Y1905000D01*
X-3670300Y1930400D01*
X-3695700D01*
X-3721100Y1955800D01*
X-3746500Y1930400D01*
X-3771900D01*
X-3746500Y1905000D01*
X-3771900Y1879600D01*
X-3746500D01*
X-3721100Y1854200D01*
Y1765300D02*
X-3695700Y1790700D01*
X-3670300D01*
X-3695700Y1816100D01*
X-3670300Y1841500D01*
X-3695700D01*
X-3721100Y1866900D01*
X-3746500Y1841500D01*
X-3771900D01*
X-3746500Y1816100D01*
X-3771900Y1790700D01*
X-3746500D01*
X-3721100Y1765300D01*
X-3073400Y2438400D02*
X-3048000Y2463800D01*
X-3022600D01*
X-3048000Y2489200D01*
X-3022600Y2514600D01*
X-3048000D01*
X-3073400Y2540000D01*
X-3098800Y2514600D01*
X-3124200D01*
X-3098800Y2489200D01*
X-3124200Y2463800D01*
X-3098800D01*
X-3073400Y2438400D01*
X-3162300D02*
X-3136900Y2463800D01*
X-3111500D01*
X-3136900Y2489200D01*
X-3111500Y2514600D01*
X-3136900D01*
X-3162300Y2540000D01*
X-3187700Y2514600D01*
X-3213100D01*
X-3187700Y2489200D01*
X-3213100Y2463800D01*
X-3187700D01*
X-3162300Y2438400D01*
X-4241800Y2425700D02*
X-4216400Y2451100D01*
X-4191000D01*
X-4216400Y2476500D01*
X-4191000Y2501900D01*
X-4216400D01*
X-4241800Y2527300D01*
X-4267200Y2501900D01*
X-4292600D01*
X-4267200Y2476500D01*
X-4292600Y2451100D01*
X-4267200D01*
X-4241800Y2425700D01*
X-4330700D02*
X-4305300Y2451100D01*
X-4279900D01*
X-4305300Y2476500D01*
X-4279900Y2501900D01*
X-4305300D01*
X-4330700Y2527300D01*
X-4356100Y2501900D01*
X-4381500D01*
X-4356100Y2476500D01*
X-4381500Y2451100D01*
X-4356100D01*
X-4330700Y2425700D01*
X-4521200D02*
X-4495800Y2451100D01*
X-4470400D01*
X-4495800Y2476500D01*
X-4470400Y2501900D01*
X-4495800D01*
X-4521200Y2527300D01*
X-4546600Y2501900D01*
X-4572000D01*
X-4546600Y2476500D01*
X-4572000Y2451100D01*
X-4546600D01*
X-4521200Y2425700D01*
X-4610100D02*
X-4584700Y2451100D01*
X-4559300D01*
X-4584700Y2476500D01*
X-4559300Y2501900D01*
X-4584700D01*
X-4610100Y2527300D01*
X-4635500Y2501900D01*
X-4660900D01*
X-4635500Y2476500D01*
X-4660900Y2451100D01*
X-4635500D01*
X-4610100Y2425700D01*
X-4787900Y2349500D02*
X-4762500Y2374900D01*
X-4737100D01*
X-4762500Y2400300D01*
X-4737100Y2425700D01*
X-4762500D01*
X-4787900Y2451100D01*
X-4813300Y2425700D01*
X-4838700D01*
X-4813300Y2400300D01*
X-4838700Y2374900D01*
X-4813300D01*
X-4787900Y2349500D01*
Y2438400D02*
X-4762500Y2463800D01*
X-4737100D01*
X-4762500Y2489200D01*
X-4737100Y2514600D01*
X-4762500D01*
X-4787900Y2540000D01*
X-4813300Y2514600D01*
X-4838700D01*
X-4813300Y2489200D01*
X-4838700Y2463800D01*
X-4813300D01*
X-4787900Y2438400D01*
X-4889500Y2349500D02*
X-4864100Y2374900D01*
X-4838700D01*
X-4864100Y2400300D01*
X-4838700Y2425700D01*
X-4864100D01*
X-4889500Y2451100D01*
X-4914900Y2425700D01*
X-4940300D01*
X-4914900Y2400300D01*
X-4940300Y2374900D01*
X-4914900D01*
X-4889500Y2349500D01*
Y2438400D02*
X-4864100Y2463800D01*
X-4838700D01*
X-4864100Y2489200D01*
X-4838700Y2514600D01*
X-4864100D01*
X-4889500Y2540000D01*
X-4914900Y2514600D01*
X-4940300D01*
X-4914900Y2489200D01*
X-4940300Y2463800D01*
X-4914900D01*
X-4889500Y2438400D01*
X-4991100Y2349500D02*
X-4965700Y2374900D01*
X-4940300D01*
X-4965700Y2400300D01*
X-4940300Y2425700D01*
X-4965700D01*
X-4991100Y2451100D01*
X-5016500Y2425700D01*
X-5041900D01*
X-5016500Y2400300D01*
X-5041900Y2374900D01*
X-5016500D01*
X-4991100Y2349500D01*
Y2438400D02*
X-4965700Y2463800D01*
X-4940300D01*
X-4965700Y2489200D01*
X-4940300Y2514600D01*
X-4965700D01*
X-4991100Y2540000D01*
X-5016500Y2514600D01*
X-5041900D01*
X-5016500Y2489200D01*
X-5041900Y2463800D01*
X-5016500D01*
X-4991100Y2438400D01*
X-5092700Y2349500D02*
X-5067300Y2374900D01*
X-5041900D01*
X-5067300Y2400300D01*
X-5041900Y2425700D01*
X-5067300D01*
X-5092700Y2451100D01*
X-5118100Y2425700D01*
X-5143500D01*
X-5118100Y2400300D01*
X-5143500Y2374900D01*
X-5118100D01*
X-5092700Y2349500D01*
Y2438400D02*
X-5067300Y2463800D01*
X-5041900D01*
X-5067300Y2489200D01*
X-5041900Y2514600D01*
X-5067300D01*
X-5092700Y2540000D01*
X-5118100Y2514600D01*
X-5143500D01*
X-5118100Y2489200D01*
X-5143500Y2463800D01*
X-5118100D01*
X-5092700Y2438400D01*
X-5194300Y2349500D02*
X-5168900Y2374900D01*
X-5143500D01*
X-5168900Y2400300D01*
X-5143500Y2425700D01*
X-5168900D01*
X-5194300Y2451100D01*
X-5219700Y2425700D01*
X-5245100D01*
X-5219700Y2400300D01*
X-5245100Y2374900D01*
X-5219700D01*
X-5194300Y2349500D01*
Y2438400D02*
X-5168900Y2463800D01*
X-5143500D01*
X-5168900Y2489200D01*
X-5143500Y2514600D01*
X-5168900D01*
X-5194300Y2540000D01*
X-5219700Y2514600D01*
X-5245100D01*
X-5219700Y2489200D01*
X-5245100Y2463800D01*
X-5219700D01*
X-5194300Y2438400D01*
X-5295900Y2349500D02*
X-5270500Y2374900D01*
X-5245100D01*
X-5270500Y2400300D01*
X-5245100Y2425700D01*
X-5270500D01*
X-5295900Y2451100D01*
X-5321300Y2425700D01*
X-5346700D01*
X-5321300Y2400300D01*
X-5346700Y2374900D01*
X-5321300D01*
X-5295900Y2349500D01*
Y2438400D02*
X-5270500Y2463800D01*
X-5245100D01*
X-5270500Y2489200D01*
X-5245100Y2514600D01*
X-5270500D01*
X-5295900Y2540000D01*
X-5321300Y2514600D01*
X-5346700D01*
X-5321300Y2489200D01*
X-5346700Y2463800D01*
X-5321300D01*
X-5295900Y2438400D01*
X-5384800Y2349500D02*
X-5359400Y2374900D01*
X-5334000D01*
X-5359400Y2400300D01*
X-5334000Y2425700D01*
X-5359400D01*
X-5384800Y2451100D01*
X-5410200Y2425700D01*
X-5435600D01*
X-5410200Y2400300D01*
X-5435600Y2374900D01*
X-5410200D01*
X-5384800Y2349500D01*
Y2438400D02*
X-5359400Y2463800D01*
X-5334000D01*
X-5359400Y2489200D01*
X-5334000Y2514600D01*
X-5359400D01*
X-5384800Y2540000D01*
X-5410200Y2514600D01*
X-5435600D01*
X-5410200Y2489200D01*
X-5435600Y2463800D01*
X-5410200D01*
X-5384800Y2438400D01*
X-5473700Y2349500D02*
X-5448300Y2374900D01*
X-5422900D01*
X-5448300Y2400300D01*
X-5422900Y2425700D01*
X-5448300D01*
X-5473700Y2451100D01*
X-5499100Y2425700D01*
X-5524500D01*
X-5499100Y2400300D01*
X-5524500Y2374900D01*
X-5499100D01*
X-5473700Y2349500D01*
Y2438400D02*
X-5448300Y2463800D01*
X-5422900D01*
X-5448300Y2489200D01*
X-5422900Y2514600D01*
X-5448300D01*
X-5473700Y2540000D01*
X-5499100Y2514600D01*
X-5524500D01*
X-5499100Y2489200D01*
X-5524500Y2463800D01*
X-5499100D01*
X-5473700Y2438400D01*
X-5562600Y2349500D02*
X-5537200Y2374900D01*
X-5511800D01*
X-5537200Y2400300D01*
X-5511800Y2425700D01*
X-5537200D01*
X-5562600Y2451100D01*
X-5588000Y2425700D01*
X-5613400D01*
X-5588000Y2400300D01*
X-5613400Y2374900D01*
X-5588000D01*
X-5562600Y2349500D01*
Y2438400D02*
X-5537200Y2463800D01*
X-5511800D01*
X-5537200Y2489200D01*
X-5511800Y2514600D01*
X-5537200D01*
X-5562600Y2540000D01*
X-5588000Y2514600D01*
X-5613400D01*
X-5588000Y2489200D01*
X-5613400Y2463800D01*
X-5588000D01*
X-5562600Y2438400D01*
X-769620Y2628003D02*
X-744220Y2653403D01*
X-718820D01*
X-744220Y2678803D01*
X-718820Y2704203D01*
X-744220D01*
X-769620Y2729603D01*
X-795020Y2704203D01*
X-820420D01*
X-795020Y2678803D01*
X-820420Y2653403D01*
X-795020D01*
X-769620Y2628003D01*
X-676440Y2170896D02*
X-651040Y2196296D01*
X-625640D01*
X-651040Y2221696D01*
X-625640Y2247096D01*
X-651040D01*
X-676440Y2272496D01*
X-701840Y2247096D01*
X-727240D01*
X-701840Y2221696D01*
X-727240Y2196296D01*
X-701840D01*
X-676440Y2170896D01*
X-549440Y2297896D02*
X-524040Y2323296D01*
X-498640D01*
X-524040Y2348696D01*
X-498640Y2374096D01*
X-524040D01*
X-549440Y2399496D01*
X-574840Y2374096D01*
X-600240D01*
X-574840Y2348696D01*
X-600240Y2323296D01*
X-574840D01*
X-549440Y2297896D01*
X-676440D02*
X-651040Y2323296D01*
X-625640D01*
X-651040Y2348696D01*
X-625640Y2374096D01*
X-651040D01*
X-676440Y2399496D01*
X-701840Y2374096D01*
X-727240D01*
X-701840Y2348696D01*
X-727240Y2323296D01*
X-701840D01*
X-676440Y2297896D01*
X-1014264Y1954996D02*
X-988864Y1980396D01*
X-963464D01*
X-988864Y2005796D01*
X-963464Y2031196D01*
X-988864D01*
X-1014264Y2056596D01*
X-1039664Y2031196D01*
X-1065064D01*
X-1039664Y2005796D01*
X-1065064Y1980396D01*
X-1039664D01*
X-1014264Y1954996D01*
X-3173748Y1741076D02*
X-3148348Y1766476D01*
X-3122948D01*
X-3148348Y1791876D01*
X-3122948Y1817276D01*
X-3148348D01*
X-3173748Y1842676D01*
X-3199148Y1817276D01*
X-3224548D01*
X-3199148Y1791876D01*
X-3224548Y1766476D01*
X-3199148D01*
X-3173748Y1741076D01*
X-3555440D02*
X-3530040Y1766476D01*
X-3504640D01*
X-3530040Y1791876D01*
X-3504640Y1817276D01*
X-3530040D01*
X-3555440Y1842676D01*
X-3580840Y1817276D01*
X-3606240D01*
X-3580840Y1791876D01*
X-3606240Y1766476D01*
X-3580840D01*
X-3555440Y1741076D01*
X-2578100Y787400D02*
X-2552700Y812800D01*
X-2527300D01*
X-2552700Y838200D01*
X-2527300Y863600D01*
X-2552700D01*
X-2578100Y889000D01*
X-2603500Y863600D01*
X-2628900D01*
X-2603500Y838200D01*
X-2628900Y812800D01*
X-2603500D01*
X-2578100Y787400D01*
X-1587500Y457200D02*
X-1562100Y482600D01*
X-1536700D01*
X-1562100Y508000D01*
X-1536700Y533400D01*
X-1562100D01*
X-1587500Y558800D01*
X-1612900Y533400D01*
X-1638300D01*
X-1612900Y508000D01*
X-1638300Y482600D01*
X-1612900D01*
X-1587500Y457200D01*
X-2082800Y-63500D02*
X-2057400Y-38100D01*
X-2032000D01*
X-2057400Y-12700D01*
X-2032000Y12700D01*
X-2057400D01*
X-2082800Y38100D01*
X-2108200Y12700D01*
X-2133600D01*
X-2108200Y-12700D01*
X-2133600Y-38100D01*
X-2108200D01*
X-2082800Y-63500D01*
X-1615724Y598168D02*
X-1590324Y623568D01*
X-1564924D01*
X-1590324Y648968D01*
X-1564924Y674368D01*
X-1590324D01*
X-1615724Y699768D01*
X-1641124Y674368D01*
X-1666524D01*
X-1641124Y648968D01*
X-1666524Y623568D01*
X-1641124D01*
X-1615724Y598168D01*
X-1599239Y364197D02*
X-1573839Y389597D01*
X-1548439D01*
X-1573839Y414997D01*
X-1548439Y440397D01*
X-1573839D01*
X-1599239Y465797D01*
X-1624639Y440397D01*
X-1650039D01*
X-1624639Y414997D01*
X-1650039Y389597D01*
X-1624639D01*
X-1599239Y364197D01*
X-2568164Y156094D02*
X-2542764Y181494D01*
X-2517364D01*
X-2542764Y206894D01*
X-2517364Y232294D01*
X-2542764D01*
X-2568164Y257694D01*
X-2593564Y232294D01*
X-2618964D01*
X-2593564Y206894D01*
X-2618964Y181494D01*
X-2593564D01*
X-2568164Y156094D01*
X-2568224Y229868D02*
X-2542824Y255268D01*
X-2517424D01*
X-2542824Y280668D01*
X-2517424Y306068D01*
X-2542824D01*
X-2568224Y331468D01*
X-2593624Y306068D01*
X-2619024D01*
X-2593624Y280668D01*
X-2619024Y255268D01*
X-2593624D01*
X-2568224Y229868D01*
X-977900Y723900D02*
X-952500Y749300D01*
X-927100D01*
X-952500Y774700D01*
X-927100Y800100D01*
X-952500D01*
X-977900Y825500D01*
X-1003300Y800100D01*
X-1028700D01*
X-1003300Y774700D01*
X-1028700Y749300D01*
X-1003300D01*
X-977900Y723900D01*
X-2159000Y317500D02*
X-2133600Y342900D01*
X-2108200D01*
X-2133600Y368300D01*
X-2108200Y393700D01*
X-2133600D01*
X-2159000Y419100D01*
X-2184400Y393700D01*
X-2209800D01*
X-2184400Y368300D01*
X-2209800Y342900D01*
X-2184400D01*
X-2159000Y317500D01*
X-2730500Y558800D02*
X-2705100Y584200D01*
X-2679700D01*
X-2705100Y609600D01*
X-2679700Y635000D01*
X-2705100D01*
X-2730500Y660400D01*
X-2755900Y635000D01*
X-2781300D01*
X-2755900Y609600D01*
X-2781300Y584200D01*
X-2755900D01*
X-2730500Y558800D01*
X-3885758Y1741054D02*
X-3860358Y1766454D01*
X-3834958D01*
X-3860358Y1791854D01*
X-3834958Y1817254D01*
X-3860358D01*
X-3885758Y1842654D01*
X-3911158Y1817254D01*
X-3936558D01*
X-3911158Y1791854D01*
X-3936558Y1766454D01*
X-3911158D01*
X-3885758Y1741054D01*
X-3098800Y317500D02*
X-3073400Y342900D01*
X-3048000D01*
X-3073400Y368300D01*
X-3048000Y393700D01*
X-3073400D01*
X-3098800Y419100D01*
X-3124200Y393700D01*
X-3149600D01*
X-3124200Y368300D01*
X-3149600Y342900D01*
X-3124200D01*
X-3098800Y317500D01*
X-3187700D02*
X-3162300Y342900D01*
X-3136900D01*
X-3162300Y368300D01*
X-3136900Y393700D01*
X-3162300D01*
X-3187700Y419100D01*
X-3213100Y393700D01*
X-3238500D01*
X-3213100Y368300D01*
X-3238500Y342900D01*
X-3213100D01*
X-3187700Y317500D01*
X-3101902Y430688D02*
X-3076502Y456088D01*
X-3051102D01*
X-3076502Y481488D01*
X-3051102Y506888D01*
X-3076502D01*
X-3101902Y532288D01*
X-3127302Y506888D01*
X-3152702D01*
X-3127302Y481488D01*
X-3152702Y456088D01*
X-3127302D01*
X-3101902Y430688D01*
X-3190802D02*
X-3165402Y456088D01*
X-3140002D01*
X-3165402Y481488D01*
X-3140002Y506888D01*
X-3165402D01*
X-3190802Y532288D01*
X-3216202Y506888D01*
X-3241602D01*
X-3216202Y481488D01*
X-3241602Y456088D01*
X-3216202D01*
X-3190802Y430688D01*
X-3276600Y317500D02*
X-3251200Y342900D01*
X-3225800D01*
X-3251200Y368300D01*
X-3225800Y393700D01*
X-3251200D01*
X-3276600Y419100D01*
X-3302000Y393700D01*
X-3327400D01*
X-3302000Y368300D01*
X-3327400Y342900D01*
X-3302000D01*
X-3276600Y317500D01*
X-3365500D02*
X-3340100Y342900D01*
X-3314700D01*
X-3340100Y368300D01*
X-3314700Y393700D01*
X-3340100D01*
X-3365500Y419100D01*
X-3390900Y393700D01*
X-3416300D01*
X-3390900Y368300D01*
X-3416300Y342900D01*
X-3390900D01*
X-3365500Y317500D01*
X-3276600Y431800D02*
X-3251200Y457200D01*
X-3225800D01*
X-3251200Y482600D01*
X-3225800Y508000D01*
X-3251200D01*
X-3276600Y533400D01*
X-3302000Y508000D01*
X-3327400D01*
X-3302000Y482600D01*
X-3327400Y457200D01*
X-3302000D01*
X-3276600Y431800D01*
X-3365500D02*
X-3340100Y457200D01*
X-3314700D01*
X-3340100Y482600D01*
X-3314700Y508000D01*
X-3340100D01*
X-3365500Y533400D01*
X-3390900Y508000D01*
X-3416300D01*
X-3390900Y482600D01*
X-3416300Y457200D01*
X-3390900D01*
X-3365500Y431800D01*
X-3454400Y317500D02*
X-3429000Y342900D01*
X-3403600D01*
X-3429000Y368300D01*
X-3403600Y393700D01*
X-3429000D01*
X-3454400Y419100D01*
X-3479800Y393700D01*
X-3505200D01*
X-3479800Y368300D01*
X-3505200Y342900D01*
X-3479800D01*
X-3454400Y317500D01*
X-3543300D02*
X-3517900Y342900D01*
X-3492500D01*
X-3517900Y368300D01*
X-3492500Y393700D01*
X-3517900D01*
X-3543300Y419100D01*
X-3568700Y393700D01*
X-3594100D01*
X-3568700Y368300D01*
X-3594100Y342900D01*
X-3568700D01*
X-3543300Y317500D01*
X-3454400Y431800D02*
X-3429000Y457200D01*
X-3403600D01*
X-3429000Y482600D01*
X-3403600Y508000D01*
X-3429000D01*
X-3454400Y533400D01*
X-3479800Y508000D01*
X-3505200D01*
X-3479800Y482600D01*
X-3505200Y457200D01*
X-3479800D01*
X-3454400Y431800D01*
X-3543300D02*
X-3517900Y457200D01*
X-3492500D01*
X-3517900Y482600D01*
X-3492500Y508000D01*
X-3517900D01*
X-3543300Y533400D01*
X-3568700Y508000D01*
X-3594100D01*
X-3568700Y482600D01*
X-3594100Y457200D01*
X-3568700D01*
X-3543300Y431800D01*
X-3644900Y317500D02*
X-3619500Y342900D01*
X-3594100D01*
X-3619500Y368300D01*
X-3594100Y393700D01*
X-3619500D01*
X-3644900Y419100D01*
X-3670300Y393700D01*
X-3695700D01*
X-3670300Y368300D01*
X-3695700Y342900D01*
X-3670300D01*
X-3644900Y317500D01*
X-3733800D02*
X-3708400Y342900D01*
X-3683000D01*
X-3708400Y368300D01*
X-3683000Y393700D01*
X-3708400D01*
X-3733800Y419100D01*
X-3759200Y393700D01*
X-3784600D01*
X-3759200Y368300D01*
X-3784600Y342900D01*
X-3759200D01*
X-3733800Y317500D01*
Y431800D02*
X-3708400Y457200D01*
X-3683000D01*
X-3708400Y482600D01*
X-3683000Y508000D01*
X-3708400D01*
X-3733800Y533400D01*
X-3759200Y508000D01*
X-3784600D01*
X-3759200Y482600D01*
X-3784600Y457200D01*
X-3759200D01*
X-3733800Y431800D01*
X-3827475Y320403D02*
X-3802075Y345803D01*
X-3776675D01*
X-3802075Y371203D01*
X-3776675Y396603D01*
X-3802075D01*
X-3827475Y422003D01*
X-3852875Y396603D01*
X-3878275D01*
X-3852875Y371203D01*
X-3878275Y345803D01*
X-3852875D01*
X-3827475Y320403D01*
X-3916375D02*
X-3890975Y345803D01*
X-3865575D01*
X-3890975Y371203D01*
X-3865575Y396603D01*
X-3890975D01*
X-3916375Y422003D01*
X-3941775Y396603D01*
X-3967175D01*
X-3941775Y371203D01*
X-3967175Y345803D01*
X-3941775D01*
X-3916375Y320403D01*
X-3822700Y431800D02*
X-3797300Y457200D01*
X-3771900D01*
X-3797300Y482600D01*
X-3771900Y508000D01*
X-3797300D01*
X-3822700Y533400D01*
X-3848100Y508000D01*
X-3873500D01*
X-3848100Y482600D01*
X-3873500Y457200D01*
X-3848100D01*
X-3822700Y431800D01*
X-3911600D02*
X-3886200Y457200D01*
X-3860800D01*
X-3886200Y482600D01*
X-3860800Y508000D01*
X-3886200D01*
X-3911600Y533400D01*
X-3937000Y508000D01*
X-3962400D01*
X-3937000Y482600D01*
X-3962400Y457200D01*
X-3937000D01*
X-3911600Y431800D01*
X-4000500Y317500D02*
X-3975100Y342900D01*
X-3949700D01*
X-3975100Y368300D01*
X-3949700Y393700D01*
X-3975100D01*
X-4000500Y419100D01*
X-4025900Y393700D01*
X-4051300D01*
X-4025900Y368300D01*
X-4051300Y342900D01*
X-4025900D01*
X-4000500Y317500D01*
X-4089400D02*
X-4064000Y342900D01*
X-4038600D01*
X-4064000Y368300D01*
X-4038600Y393700D01*
X-4064000D01*
X-4089400Y419100D01*
X-4114800Y393700D01*
X-4140200D01*
X-4114800Y368300D01*
X-4140200Y342900D01*
X-4114800D01*
X-4089400Y317500D01*
X-4178300D02*
X-4152900Y342900D01*
X-4127500D01*
X-4152900Y368300D01*
X-4127500Y393700D01*
X-4152900D01*
X-4178300Y419100D01*
X-4203700Y393700D01*
X-4229100D01*
X-4203700Y368300D01*
X-4229100Y342900D01*
X-4203700D01*
X-4178300Y317500D01*
X-4267200D02*
X-4241800Y342900D01*
X-4216400D01*
X-4241800Y368300D01*
X-4216400Y393700D01*
X-4241800D01*
X-4267200Y419100D01*
X-4292600Y393700D01*
X-4318000D01*
X-4292600Y368300D01*
X-4318000Y342900D01*
X-4292600D01*
X-4267200Y317500D01*
X-4000500Y431800D02*
X-3975100Y457200D01*
X-3949700D01*
X-3975100Y482600D01*
X-3949700Y508000D01*
X-3975100D01*
X-4000500Y533400D01*
X-4025900Y508000D01*
X-4051300D01*
X-4025900Y482600D01*
X-4051300Y457200D01*
X-4025900D01*
X-4000500Y431800D01*
X-4089400D02*
X-4064000Y457200D01*
X-4038600D01*
X-4064000Y482600D01*
X-4038600Y508000D01*
X-4064000D01*
X-4089400Y533400D01*
X-4114800Y508000D01*
X-4140200D01*
X-4114800Y482600D01*
X-4140200Y457200D01*
X-4114800D01*
X-4089400Y431800D01*
X-4178300D02*
X-4152900Y457200D01*
X-4127500D01*
X-4152900Y482600D01*
X-4127500Y508000D01*
X-4152900D01*
X-4178300Y533400D01*
X-4203700Y508000D01*
X-4229100D01*
X-4203700Y482600D01*
X-4229100Y457200D01*
X-4203700D01*
X-4178300Y431800D01*
X-4267200D02*
X-4241800Y457200D01*
X-4216400D01*
X-4241800Y482600D01*
X-4216400Y508000D01*
X-4241800D01*
X-4267200Y533400D01*
X-4292600Y508000D01*
X-4318000D01*
X-4292600Y482600D01*
X-4318000Y457200D01*
X-4292600D01*
X-4267200Y431800D01*
X-5828484Y2745272D02*
X-5803084Y2770672D01*
X-5777684D01*
X-5803084Y2796072D01*
X-5777684Y2821472D01*
X-5803084D01*
X-5828484Y2846872D01*
X-5853884Y2821472D01*
X-5879284D01*
X-5853884Y2796072D01*
X-5879284Y2770672D01*
X-5853884D01*
X-5828484Y2745272D01*
Y2834172D02*
X-5803084Y2859572D01*
X-5777684D01*
X-5803084Y2884972D01*
X-5777684Y2910372D01*
X-5803084D01*
X-5828484Y2935772D01*
X-5853884Y2910372D01*
X-5879284D01*
X-5853884Y2884972D01*
X-5879284Y2859572D01*
X-5853884D01*
X-5828484Y2834172D01*
Y2389672D02*
X-5803084Y2415072D01*
X-5777684D01*
X-5803084Y2440472D01*
X-5777684Y2465872D01*
X-5803084D01*
X-5828484Y2491272D01*
X-5853884Y2465872D01*
X-5879284D01*
X-5853884Y2440472D01*
X-5879284Y2415072D01*
X-5853884D01*
X-5828484Y2389672D01*
Y2478572D02*
X-5803084Y2503972D01*
X-5777684D01*
X-5803084Y2529372D01*
X-5777684Y2554772D01*
X-5803084D01*
X-5828484Y2580172D01*
X-5853884Y2554772D01*
X-5879284D01*
X-5853884Y2529372D01*
X-5879284Y2503972D01*
X-5853884D01*
X-5828484Y2478572D01*
X-5930084Y2148372D02*
X-5904684Y2173772D01*
X-5879284D01*
X-5904684Y2199172D01*
X-5879284Y2224572D01*
X-5904684D01*
X-5930084Y2249972D01*
X-5955484Y2224572D01*
X-5980884D01*
X-5955484Y2199172D01*
X-5980884Y2173772D01*
X-5955484D01*
X-5930084Y2148372D01*
Y2237272D02*
X-5904684Y2262672D01*
X-5879284D01*
X-5904684Y2288072D01*
X-5879284Y2313472D01*
X-5904684D01*
X-5930084Y2338872D01*
X-5955484Y2313472D01*
X-5980884D01*
X-5955484Y2288072D01*
X-5980884Y2262672D01*
X-5955484D01*
X-5930084Y2237272D01*
X-5917684Y598972D02*
X-5892284Y624372D01*
X-5866884D01*
X-5892284Y649772D01*
X-5866884Y675172D01*
X-5892284D01*
X-5917684Y700572D01*
X-5943084Y675172D01*
X-5968484D01*
X-5943084Y649772D01*
X-5968484Y624372D01*
X-5943084D01*
X-5917684Y598972D01*
X-5828784D02*
X-5803384Y624372D01*
X-5777984D01*
X-5803384Y649772D01*
X-5777984Y675172D01*
X-5803384D01*
X-5828784Y700572D01*
X-5854184Y675172D01*
X-5879584D01*
X-5854184Y649772D01*
X-5879584Y624372D01*
X-5854184D01*
X-5828784Y598972D01*
X-5803384Y332272D02*
X-5777984Y357672D01*
X-5752584D01*
X-5777984Y383072D01*
X-5752584Y408472D01*
X-5777984D01*
X-5803384Y433872D01*
X-5828784Y408472D01*
X-5854184D01*
X-5828784Y383072D01*
X-5854184Y357672D01*
X-5828784D01*
X-5803384Y332272D01*
Y421172D02*
X-5777984Y446572D01*
X-5752584D01*
X-5777984Y471972D01*
X-5752584Y497372D01*
X-5777984D01*
X-5803384Y522772D01*
X-5828784Y497372D01*
X-5854184D01*
X-5828784Y471972D01*
X-5854184Y446572D01*
X-5828784D01*
X-5803384Y421172D01*
X-5981184Y-226528D02*
X-5955784Y-201128D01*
X-5930384D01*
X-5955784Y-175728D01*
X-5930384Y-150328D01*
X-5955784D01*
X-5981184Y-124928D01*
X-6006584Y-150328D01*
X-6031984D01*
X-6006584Y-175728D01*
X-6031984Y-201128D01*
X-6006584D01*
X-5981184Y-226528D01*
X-5892284D02*
X-5866884Y-201128D01*
X-5841484D01*
X-5866884Y-175728D01*
X-5841484Y-150328D01*
X-5866884D01*
X-5892284Y-124928D01*
X-5917684Y-150328D01*
X-5943084D01*
X-5917684Y-175728D01*
X-5943084Y-201128D01*
X-5917684D01*
X-5892284Y-226528D01*
X-5803384Y40172D02*
X-5777984Y65572D01*
X-5752584D01*
X-5777984Y90972D01*
X-5752584Y116372D01*
X-5777984D01*
X-5803384Y141772D01*
X-5828784Y116372D01*
X-5854184D01*
X-5828784Y90972D01*
X-5854184Y65572D01*
X-5828784D01*
X-5803384Y40172D01*
Y-48728D02*
X-5777984Y-23328D01*
X-5752584D01*
X-5777984Y2072D01*
X-5752584Y27472D01*
X-5777984D01*
X-5803384Y52872D01*
X-5828784Y27472D01*
X-5854184D01*
X-5828784Y2072D01*
X-5854184Y-23328D01*
X-5828784D01*
X-5803384Y-48728D01*
X-4521200Y1778000D02*
X-4495800Y1803400D01*
X-4470400D01*
X-4495800Y1828800D01*
X-4470400Y1854200D01*
X-4495800D01*
X-4521200Y1879600D01*
X-4546600Y1854200D01*
X-4572000D01*
X-4546600Y1828800D01*
X-4572000Y1803400D01*
X-4546600D01*
X-4521200Y1778000D01*
Y1866900D02*
X-4495800Y1892300D01*
X-4470400D01*
X-4495800Y1917700D01*
X-4470400Y1943100D01*
X-4495800D01*
X-4521200Y1968500D01*
X-4546600Y1943100D01*
X-4572000D01*
X-4546600Y1917700D01*
X-4572000Y1892300D01*
X-4546600D01*
X-4521200Y1866900D01*
Y1981200D02*
X-4495800Y2006600D01*
X-4470400D01*
X-4495800Y2032000D01*
X-4470400Y2057400D01*
X-4495800D01*
X-4521200Y2082800D01*
X-4546600Y2057400D01*
X-4572000D01*
X-4546600Y2032000D01*
X-4572000Y2006600D01*
X-4546600D01*
X-4521200Y1981200D01*
Y2070100D02*
X-4495800Y2095500D01*
X-4470400D01*
X-4495800Y2120900D01*
X-4470400Y2146300D01*
X-4495800D01*
X-4521200Y2171700D01*
X-4546600Y2146300D01*
X-4572000D01*
X-4546600Y2120900D01*
X-4572000Y2095500D01*
X-4546600D01*
X-4521200Y2070100D01*
X-6670840Y1916896D02*
X-6645440Y1942296D01*
X-6620040D01*
X-6645440Y1967696D01*
X-6620040Y1993096D01*
X-6645440D01*
X-6670840Y2018496D01*
X-6696240Y1993096D01*
X-6721640D01*
X-6696240Y1967696D01*
X-6721640Y1942296D01*
X-6696240D01*
X-6670840Y1916896D01*
Y1815296D02*
X-6645440Y1840696D01*
X-6620040D01*
X-6645440Y1866096D01*
X-6620040Y1891496D01*
X-6645440D01*
X-6670840Y1916896D01*
X-6696240Y1891496D01*
X-6721640D01*
X-6696240Y1866096D01*
X-6721640Y1840696D01*
X-6696240D01*
X-6670840Y1815296D01*
Y1700996D02*
X-6645440Y1726396D01*
X-6620040D01*
X-6645440Y1751796D01*
X-6620040Y1777196D01*
X-6645440D01*
X-6670840Y1802596D01*
X-6696240Y1777196D01*
X-6721640D01*
X-6696240Y1751796D01*
X-6721640Y1726396D01*
X-6696240D01*
X-6670840Y1700996D01*
Y900896D02*
X-6645440Y926296D01*
X-6620040D01*
X-6645440Y951696D01*
X-6620040Y977096D01*
X-6645440D01*
X-6670840Y1002496D01*
X-6696240Y977096D01*
X-6721640D01*
X-6696240Y951696D01*
X-6721640Y926296D01*
X-6696240D01*
X-6670840Y900896D01*
X-6391440Y1269196D02*
X-6366040Y1294596D01*
X-6340640D01*
X-6366040Y1319996D01*
X-6340640Y1345396D01*
X-6366040D01*
X-6391440Y1370796D01*
X-6416840Y1345396D01*
X-6442240D01*
X-6416840Y1319996D01*
X-6442240Y1294596D01*
X-6416840D01*
X-6391440Y1269196D01*
X-6302540D02*
X-6277140Y1294596D01*
X-6251740D01*
X-6277140Y1319996D01*
X-6251740Y1345396D01*
X-6277140D01*
X-6302540Y1370796D01*
X-6327940Y1345396D01*
X-6353340D01*
X-6327940Y1319996D01*
X-6353340Y1294596D01*
X-6327940D01*
X-6302540Y1269196D01*
X-6391440Y1510496D02*
X-6366040Y1535896D01*
X-6340640D01*
X-6366040Y1561296D01*
X-6340640Y1586696D01*
X-6366040D01*
X-6391440Y1612096D01*
X-6416840Y1586696D01*
X-6442240D01*
X-6416840Y1561296D01*
X-6442240Y1535896D01*
X-6416840D01*
X-6391440Y1510496D01*
X-6302540D02*
X-6277140Y1535896D01*
X-6251740D01*
X-6277140Y1561296D01*
X-6251740Y1586696D01*
X-6277140D01*
X-6302540Y1612096D01*
X-6327940Y1586696D01*
X-6353340D01*
X-6327940Y1561296D01*
X-6353340Y1535896D01*
X-6327940D01*
X-6302540Y1510496D01*
X-6670840Y1015196D02*
X-6645440Y1040596D01*
X-6620040D01*
X-6645440Y1065996D01*
X-6620040Y1091396D01*
X-6645440D01*
X-6670840Y1116796D01*
X-6696240Y1091396D01*
X-6721640D01*
X-6696240Y1065996D01*
X-6721640Y1040596D01*
X-6696240D01*
X-6670840Y1015196D01*
Y1116796D02*
X-6645440Y1142196D01*
X-6620040D01*
X-6645440Y1167596D01*
X-6620040Y1192996D01*
X-6645440D01*
X-6670840Y1218396D01*
X-6696240Y1192996D01*
X-6721640D01*
X-6696240Y1167596D01*
X-6721640Y1142196D01*
X-6696240D01*
X-6670840Y1116796D01*
X-6543840Y862796D02*
X-6518440Y888196D01*
X-6493040D01*
X-6518440Y913596D01*
X-6493040Y938996D01*
X-6518440D01*
X-6543840Y964396D01*
X-6569240Y938996D01*
X-6594640D01*
X-6569240Y913596D01*
X-6594640Y888196D01*
X-6569240D01*
X-6543840Y862796D01*
X-6366040D02*
X-6340640Y888196D01*
X-6315240D01*
X-6340640Y913596D01*
X-6315240Y938996D01*
X-6340640D01*
X-6366040Y964396D01*
X-6391440Y938996D01*
X-6416840D01*
X-6391440Y913596D01*
X-6416840Y888196D01*
X-6391440D01*
X-6366040Y862796D01*
X-6543840Y964396D02*
X-6518440Y989796D01*
X-6493040D01*
X-6518440Y1015196D01*
X-6493040Y1040596D01*
X-6518440D01*
X-6543840Y1065996D01*
X-6569240Y1040596D01*
X-6594640D01*
X-6569240Y1015196D01*
X-6594640Y989796D01*
X-6569240D01*
X-6543840Y964396D01*
X-6366040D02*
X-6340640Y989796D01*
X-6315240D01*
X-6340640Y1015196D01*
X-6315240Y1040596D01*
X-6340640D01*
X-6366040Y1065996D01*
X-6391440Y1040596D01*
X-6416840D01*
X-6391440Y1015196D01*
X-6416840Y989796D01*
X-6391440D01*
X-6366040Y964396D01*
X-6543840Y1065996D02*
X-6518440Y1091396D01*
X-6493040D01*
X-6518440Y1116796D01*
X-6493040Y1142196D01*
X-6518440D01*
X-6543840Y1167596D01*
X-6569240Y1142196D01*
X-6594640D01*
X-6569240Y1116796D01*
X-6594640Y1091396D01*
X-6569240D01*
X-6543840Y1065996D01*
X-6366040D02*
X-6340640Y1091396D01*
X-6315240D01*
X-6340640Y1116796D01*
X-6315240Y1142196D01*
X-6340640D01*
X-6366040Y1167596D01*
X-6391440Y1142196D01*
X-6416840D01*
X-6391440Y1116796D01*
X-6416840Y1091396D01*
X-6391440D01*
X-6366040Y1065996D01*
X-6543840Y1167596D02*
X-6518440Y1192996D01*
X-6493040D01*
X-6518440Y1218396D01*
X-6493040Y1243796D01*
X-6518440D01*
X-6543840Y1269196D01*
X-6569240Y1243796D01*
X-6594640D01*
X-6569240Y1218396D01*
X-6594640Y1192996D01*
X-6569240D01*
X-6543840Y1167596D01*
X-6366040D02*
X-6340640Y1192996D01*
X-6315240D01*
X-6340640Y1218396D01*
X-6315240Y1243796D01*
X-6340640D01*
X-6366040Y1269196D01*
X-6391440Y1243796D01*
X-6416840D01*
X-6391440Y1218396D01*
X-6416840Y1192996D01*
X-6391440D01*
X-6366040Y1167596D01*
X-6480340Y1269196D02*
X-6454940Y1294596D01*
X-6429540D01*
X-6454940Y1319996D01*
X-6429540Y1345396D01*
X-6454940D01*
X-6480340Y1370796D01*
X-6505740Y1345396D01*
X-6531140D01*
X-6505740Y1319996D01*
X-6531140Y1294596D01*
X-6505740D01*
X-6480340Y1269196D01*
Y1510496D02*
X-6454940Y1535896D01*
X-6429540D01*
X-6454940Y1561296D01*
X-6429540Y1586696D01*
X-6454940D01*
X-6480340Y1612096D01*
X-6505740Y1586696D01*
X-6531140D01*
X-6505740Y1561296D01*
X-6531140Y1535896D01*
X-6505740D01*
X-6480340Y1510496D01*
X-6543840Y1637496D02*
X-6518440Y1662896D01*
X-6493040D01*
X-6518440Y1688296D01*
X-6493040Y1713696D01*
X-6518440D01*
X-6543840Y1739096D01*
X-6569240Y1713696D01*
X-6594640D01*
X-6569240Y1688296D01*
X-6594640Y1662896D01*
X-6569240D01*
X-6543840Y1637496D01*
X-6366040D02*
X-6340640Y1662896D01*
X-6315240D01*
X-6340640Y1688296D01*
X-6315240Y1713696D01*
X-6340640D01*
X-6366040Y1739096D01*
X-6391440Y1713696D01*
X-6416840D01*
X-6391440Y1688296D01*
X-6416840Y1662896D01*
X-6391440D01*
X-6366040Y1637496D01*
X-6543840Y1751796D02*
X-6518440Y1777196D01*
X-6493040D01*
X-6518440Y1802596D01*
X-6493040Y1827996D01*
X-6518440D01*
X-6543840Y1853396D01*
X-6569240Y1827996D01*
X-6594640D01*
X-6569240Y1802596D01*
X-6594640Y1777196D01*
X-6569240D01*
X-6543840Y1751796D01*
X-6366040D02*
X-6340640Y1777196D01*
X-6315240D01*
X-6340640Y1802596D01*
X-6315240Y1827996D01*
X-6340640D01*
X-6366040Y1853396D01*
X-6391440Y1827996D01*
X-6416840D01*
X-6391440Y1802596D01*
X-6416840Y1777196D01*
X-6391440D01*
X-6366040Y1751796D01*
X-6543840Y1853396D02*
X-6518440Y1878796D01*
X-6493040D01*
X-6518440Y1904196D01*
X-6493040Y1929596D01*
X-6518440D01*
X-6543840Y1954996D01*
X-6569240Y1929596D01*
X-6594640D01*
X-6569240Y1904196D01*
X-6594640Y1878796D01*
X-6569240D01*
X-6543840Y1853396D01*
X-6366040D02*
X-6340640Y1878796D01*
X-6315240D01*
X-6340640Y1904196D01*
X-6315240Y1929596D01*
X-6340640D01*
X-6366040Y1954996D01*
X-6391440Y1929596D01*
X-6416840D01*
X-6391440Y1904196D01*
X-6416840Y1878796D01*
X-6391440D01*
X-6366040Y1853396D01*
X-3364940Y1741076D02*
X-3339540Y1766476D01*
X-3314140D01*
X-3339540Y1791876D01*
X-3314140Y1817276D01*
X-3339540D01*
X-3364940Y1842676D01*
X-3390340Y1817276D01*
X-3415740D01*
X-3390340Y1791876D01*
X-3415740Y1766476D01*
X-3390340D01*
X-3364940Y1741076D01*
X-3174440Y2040246D02*
X-3149040Y2065646D01*
X-3123640D01*
X-3149040Y2091046D01*
X-3123640Y2116446D01*
X-3149040D01*
X-3174440Y2141846D01*
X-3199840Y2116446D01*
X-3225240D01*
X-3199840Y2091046D01*
X-3225240Y2065646D01*
X-3199840D01*
X-3174440Y2040246D01*
X-3555440Y1887846D02*
X-3530040Y1913246D01*
X-3504640D01*
X-3530040Y1938646D01*
X-3504640Y1964046D01*
X-3530040D01*
X-3555440Y1989446D01*
X-3580840Y1964046D01*
X-3606240D01*
X-3580840Y1938646D01*
X-3606240Y1913246D01*
X-3580840D01*
X-3555440Y1887846D01*
Y2040246D02*
X-3530040Y2065646D01*
X-3504640D01*
X-3530040Y2091046D01*
X-3504640Y2116446D01*
X-3530040D01*
X-3555440Y2141846D01*
X-3580840Y2116446D01*
X-3606240D01*
X-3580840Y2091046D01*
X-3606240Y2065646D01*
X-3580840D01*
X-3555440Y2040246D01*
X-3364940Y1887846D02*
X-3339540Y1913246D01*
X-3314140D01*
X-3339540Y1938646D01*
X-3314140Y1964046D01*
X-3339540D01*
X-3364940Y1989446D01*
X-3390340Y1964046D01*
X-3415740D01*
X-3390340Y1938646D01*
X-3415740Y1913246D01*
X-3390340D01*
X-3364940Y1887846D01*
X-3174440D02*
X-3149040Y1913246D01*
X-3123640D01*
X-3149040Y1938646D01*
X-3123640Y1964046D01*
X-3149040D01*
X-3174440Y1989446D01*
X-3199840Y1964046D01*
X-3225240D01*
X-3199840Y1938646D01*
X-3225240Y1913246D01*
X-3199840D01*
X-3174440Y1887846D01*
X-3364940Y2027546D02*
X-3339540Y2052946D01*
X-3314140D01*
X-3339540Y2078346D01*
X-3314140Y2103746D01*
X-3339540D01*
X-3364940Y2129146D01*
X-3390340Y2103746D01*
X-3415740D01*
X-3390340Y2078346D01*
X-3415740Y2052946D01*
X-3390340D01*
X-3364940Y2027546D01*
X-3885640Y2040246D02*
X-3860240Y2065646D01*
X-3834840D01*
X-3860240Y2091046D01*
X-3834840Y2116446D01*
X-3860240D01*
X-3885640Y2141846D01*
X-3911040Y2116446D01*
X-3936440D01*
X-3911040Y2091046D01*
X-3936440Y2065646D01*
X-3911040D01*
X-3885640Y2040246D01*
X-4076140Y1735446D02*
X-4050740Y1760846D01*
X-4025340D01*
X-4050740Y1786246D01*
X-4025340Y1811646D01*
X-4050740D01*
X-4076140Y1837046D01*
X-4101540Y1811646D01*
X-4126940D01*
X-4101540Y1786246D01*
X-4126940Y1760846D01*
X-4101540D01*
X-4076140Y1735446D01*
X-4266640D02*
X-4241240Y1760846D01*
X-4215840D01*
X-4241240Y1786246D01*
X-4215840Y1811646D01*
X-4241240D01*
X-4266640Y1837046D01*
X-4292040Y1811646D01*
X-4317440D01*
X-4292040Y1786246D01*
X-4317440Y1760846D01*
X-4292040D01*
X-4266640Y1735446D01*
Y1887846D02*
X-4241240Y1913246D01*
X-4215840D01*
X-4241240Y1938646D01*
X-4215840Y1964046D01*
X-4241240D01*
X-4266640Y1989446D01*
X-4292040Y1964046D01*
X-4317440D01*
X-4292040Y1938646D01*
X-4317440Y1913246D01*
X-4292040D01*
X-4266640Y1887846D01*
Y2040246D02*
X-4241240Y2065646D01*
X-4215840D01*
X-4241240Y2091046D01*
X-4215840Y2116446D01*
X-4241240D01*
X-4266640Y2141846D01*
X-4292040Y2116446D01*
X-4317440D01*
X-4292040Y2091046D01*
X-4317440Y2065646D01*
X-4292040D01*
X-4266640Y2040246D01*
X-4076140Y1887846D02*
X-4050740Y1913246D01*
X-4025340D01*
X-4050740Y1938646D01*
X-4025340Y1964046D01*
X-4050740D01*
X-4076140Y1989446D01*
X-4101540Y1964046D01*
X-4126940D01*
X-4101540Y1938646D01*
X-4126940Y1913246D01*
X-4101540D01*
X-4076140Y1887846D01*
X-3885640D02*
X-3860240Y1913246D01*
X-3834840D01*
X-3860240Y1938646D01*
X-3834840Y1964046D01*
X-3860240D01*
X-3885640Y1989446D01*
X-3911040Y1964046D01*
X-3936440D01*
X-3911040Y1938646D01*
X-3936440Y1913246D01*
X-3911040D01*
X-3885640Y1887846D01*
X-4076140Y2027546D02*
X-4050740Y2052946D01*
X-4025340D01*
X-4050740Y2078346D01*
X-4025340Y2103746D01*
X-4050740D01*
X-4076140Y2129146D01*
X-4101540Y2103746D01*
X-4126940D01*
X-4101540Y2078346D01*
X-4126940Y2052946D01*
X-4101540D01*
X-4076140Y2027546D01*
X161760Y2285196D02*
X187160Y2310596D01*
X212560D01*
X187160Y2335996D01*
X212560Y2361396D01*
X187160D01*
X161760Y2386796D01*
X136360Y2361396D01*
X110960D01*
X136360Y2335996D01*
X110960Y2310596D01*
X136360D01*
X161760Y2285196D01*
Y2196296D02*
X187160Y2221696D01*
X212560D01*
X187160Y2247096D01*
X212560Y2272496D01*
X187160D01*
X161760Y2297896D01*
X136360Y2272496D01*
X110960D01*
X136360Y2247096D01*
X110960Y2221696D01*
X136360D01*
X161760Y2196296D01*
Y2107396D02*
X187160Y2132796D01*
X212560D01*
X187160Y2158196D01*
X212560Y2183596D01*
X187160D01*
X161760Y2208996D01*
X136360Y2183596D01*
X110960D01*
X136360Y2158196D01*
X110960Y2132796D01*
X136360D01*
X161760Y2107396D01*
Y2018496D02*
X187160Y2043896D01*
X212560D01*
X187160Y2069296D01*
X212560Y2094696D01*
X187160D01*
X161760Y2120096D01*
X136360Y2094696D01*
X110960D01*
X136360Y2069296D01*
X110960Y2043896D01*
X136360D01*
X161760Y2018496D01*
Y1929596D02*
X187160Y1954996D01*
X212560D01*
X187160Y1980396D01*
X212560Y2005796D01*
X187160D01*
X161760Y2031196D01*
X136360Y2005796D01*
X110960D01*
X136360Y1980396D01*
X110960Y1954996D01*
X136360D01*
X161760Y1929596D01*
X85560Y2247096D02*
X110960Y2272496D01*
X136360D01*
X110960Y2297896D01*
X136360Y2323296D01*
X110960D01*
X85560Y2348696D01*
X60160Y2323296D01*
X34760D01*
X60160Y2297896D01*
X34760Y2272496D01*
X60160D01*
X85560Y2247096D01*
Y2158196D02*
X110960Y2183596D01*
X136360D01*
X110960Y2208996D01*
X136360Y2234396D01*
X110960D01*
X85560Y2259796D01*
X60160Y2234396D01*
X34760D01*
X60160Y2208996D01*
X34760Y2183596D01*
X60160D01*
X85560Y2158196D01*
Y2069296D02*
X110960Y2094696D01*
X136360D01*
X110960Y2120096D01*
X136360Y2145496D01*
X110960D01*
X85560Y2170896D01*
X60160Y2145496D01*
X34760D01*
X60160Y2120096D01*
X34760Y2094696D01*
X60160D01*
X85560Y2069296D01*
Y1980396D02*
X110960Y2005796D01*
X136360D01*
X110960Y2031196D01*
X136360Y2056596D01*
X110960D01*
X85560Y2081996D01*
X60160Y2056596D01*
X34760D01*
X60160Y2031196D01*
X34760Y2005796D01*
X60160D01*
X85560Y1980396D01*
Y1891496D02*
X110960Y1916896D01*
X136360D01*
X110960Y1942296D01*
X136360Y1967696D01*
X110960D01*
X85560Y1993096D01*
X60160Y1967696D01*
X34760D01*
X60160Y1942296D01*
X34760Y1916896D01*
X60160D01*
X85560Y1891496D01*
X-181140Y1396196D02*
X-155740Y1421596D01*
X-130340D01*
X-155740Y1446996D01*
X-130340Y1472396D01*
X-155740D01*
X-181140Y1497796D01*
X-206540Y1472396D01*
X-231940D01*
X-206540Y1446996D01*
X-231940Y1421596D01*
X-206540D01*
X-181140Y1396196D01*
X-651040D02*
X-625640Y1421596D01*
X-600240D01*
X-625640Y1446996D01*
X-600240Y1472396D01*
X-625640D01*
X-651040Y1497796D01*
X-676440Y1472396D01*
X-701840D01*
X-676440Y1446996D01*
X-701840Y1421596D01*
X-676440D01*
X-651040Y1396196D01*
X9360Y2297896D02*
X34760Y2323296D01*
X60160D01*
X34760Y2348696D01*
X60160Y2374096D01*
X34760D01*
X9360Y2399496D01*
X-16040Y2374096D01*
X-41440D01*
X-16040Y2348696D01*
X-41440Y2323296D01*
X-16040D01*
X9360Y2297896D01*
Y2196296D02*
X34760Y2221696D01*
X60160D01*
X34760Y2247096D01*
X60160Y2272496D01*
X34760D01*
X9360Y2297896D01*
X-16040Y2272496D01*
X-41440D01*
X-16040Y2247096D01*
X-41440Y2221696D01*
X-16040D01*
X9360Y2196296D01*
Y2107396D02*
X34760Y2132796D01*
X60160D01*
X34760Y2158196D01*
X60160Y2183596D01*
X34760D01*
X9360Y2208996D01*
X-16040Y2183596D01*
X-41440D01*
X-16040Y2158196D01*
X-41440Y2132796D01*
X-16040D01*
X9360Y2107396D01*
X11071Y2025936D02*
X36471Y2051336D01*
X61871D01*
X36471Y2076736D01*
X61871Y2102136D01*
X36471D01*
X11071Y2127536D01*
X-14329Y2102136D01*
X-39729D01*
X-14329Y2076736D01*
X-39729Y2051336D01*
X-14329D01*
X11071Y2025936D01*
X9360Y1929596D02*
X34760Y1954996D01*
X60160D01*
X34760Y1980396D01*
X60160Y2005796D01*
X34760D01*
X9360Y2031196D01*
X-16040Y2005796D01*
X-41440D01*
X-16040Y1980396D01*
X-41440Y1954996D01*
X-16040D01*
X9360Y1929596D01*
X-66840Y1891496D02*
X-41440Y1916896D01*
X-16040D01*
X-41440Y1942296D01*
X-16040Y1967696D01*
X-41440D01*
X-66840Y1993096D01*
X-92240Y1967696D01*
X-117640D01*
X-92240Y1942296D01*
X-117640Y1916896D01*
X-92240D01*
X-66840Y1891496D01*
Y1980396D02*
X-41440Y2005796D01*
X-16040D01*
X-41440Y2031196D01*
X-16040Y2056596D01*
X-41440D01*
X-66840Y2081996D01*
X-92240Y2056596D01*
X-117640D01*
X-92240Y2031196D01*
X-117640Y2005796D01*
X-92240D01*
X-66840Y1980396D01*
Y2069296D02*
X-41440Y2094696D01*
X-16040D01*
X-41440Y2120096D01*
X-16040Y2145496D01*
X-41440D01*
X-66840Y2170896D01*
X-92240Y2145496D01*
X-117640D01*
X-92240Y2120096D01*
X-117640Y2094696D01*
X-92240D01*
X-66840Y2069296D01*
Y2158196D02*
X-41440Y2183596D01*
X-16040D01*
X-41440Y2208996D01*
X-16040Y2234396D01*
X-41440D01*
X-66840Y2259796D01*
X-92240Y2234396D01*
X-117640D01*
X-92240Y2208996D01*
X-117640Y2183596D01*
X-92240D01*
X-66840Y2158196D01*
Y2247096D02*
X-41440Y2272496D01*
X-16040D01*
X-41440Y2297896D01*
X-16040Y2323296D01*
X-41440D01*
X-66840Y2348696D01*
X-92240Y2323296D01*
X-117640D01*
X-92240Y2297896D01*
X-117640Y2272496D01*
X-92240D01*
X-66840Y2247096D01*
X-143040Y1942296D02*
X-117640Y1967696D01*
X-92240D01*
X-117640Y1993096D01*
X-92240Y2018496D01*
X-117640D01*
X-143040Y2043896D01*
X-168440Y2018496D01*
X-193840D01*
X-168440Y1993096D01*
X-193840Y1967696D01*
X-168440D01*
X-143040Y1942296D01*
Y2031196D02*
X-117640Y2056596D01*
X-92240D01*
X-117640Y2081996D01*
X-92240Y2107396D01*
X-117640D01*
X-143040Y2132796D01*
X-168440Y2107396D01*
X-193840D01*
X-168440Y2081996D01*
X-193840Y2056596D01*
X-168440D01*
X-143040Y2031196D01*
Y2120096D02*
X-117640Y2145496D01*
X-92240D01*
X-117640Y2170896D01*
X-92240Y2196296D01*
X-117640D01*
X-143040Y2221696D01*
X-168440Y2196296D01*
X-193840D01*
X-168440Y2170896D01*
X-193840Y2145496D01*
X-168440D01*
X-143040Y2120096D01*
Y2208996D02*
X-117640Y2234396D01*
X-92240D01*
X-117640Y2259796D01*
X-92240Y2285196D01*
X-117640D01*
X-143040Y2310596D01*
X-168440Y2285196D01*
X-193840D01*
X-168440Y2259796D01*
X-193840Y2234396D01*
X-168440D01*
X-143040Y2208996D01*
Y2297896D02*
X-117640Y2323296D01*
X-92240D01*
X-117640Y2348696D01*
X-92240Y2374096D01*
X-117640D01*
X-143040Y2399496D01*
X-168440Y2374096D01*
X-193840D01*
X-168440Y2348696D01*
X-193840Y2323296D01*
X-168440D01*
X-143040Y2297896D01*
X-3140240Y2310596D02*
X-3114840Y2335996D01*
X-3089440D01*
X-3114840Y2361396D01*
X-3089440Y2386796D01*
X-3114840D01*
X-3140240Y2412196D01*
X-3165640Y2386796D01*
X-3191040D01*
X-3165640Y2361396D01*
X-3191040Y2335996D01*
X-3165640D01*
X-3140240Y2310596D01*
X-3229140D02*
X-3203740Y2335996D01*
X-3178340D01*
X-3203740Y2361396D01*
X-3178340Y2386796D01*
X-3203740D01*
X-3229140Y2412196D01*
X-3254540Y2386796D01*
X-3279940D01*
X-3254540Y2361396D01*
X-3279940Y2335996D01*
X-3254540D01*
X-3229140Y2310596D01*
X-3406940D02*
X-3381540Y2335996D01*
X-3356140D01*
X-3381540Y2361396D01*
X-3356140Y2386796D01*
X-3381540D01*
X-3406940Y2412196D01*
X-3432340Y2386796D01*
X-3457740D01*
X-3432340Y2361396D01*
X-3457740Y2335996D01*
X-3432340D01*
X-3406940Y2310596D01*
X-3495840D02*
X-3470440Y2335996D01*
X-3445040D01*
X-3470440Y2361396D01*
X-3445040Y2386796D01*
X-3470440D01*
X-3495840Y2412196D01*
X-3521240Y2386796D01*
X-3546640D01*
X-3521240Y2361396D01*
X-3546640Y2335996D01*
X-3521240D01*
X-3495840Y2310596D01*
X-3686340D02*
X-3660940Y2335996D01*
X-3635540D01*
X-3660940Y2361396D01*
X-3635540Y2386796D01*
X-3660940D01*
X-3686340Y2412196D01*
X-3711740Y2386796D01*
X-3737140D01*
X-3711740Y2361396D01*
X-3737140Y2335996D01*
X-3711740D01*
X-3686340Y2310596D01*
X-3775240D02*
X-3749840Y2335996D01*
X-3724440D01*
X-3749840Y2361396D01*
X-3724440Y2386796D01*
X-3749840D01*
X-3775240Y2412196D01*
X-3800640Y2386796D01*
X-3826040D01*
X-3800640Y2361396D01*
X-3826040Y2335996D01*
X-3800640D01*
X-3775240Y2310596D01*
X-3965740D02*
X-3940340Y2335996D01*
X-3914940D01*
X-3940340Y2361396D01*
X-3914940Y2386796D01*
X-3940340D01*
X-3965740Y2412196D01*
X-3991140Y2386796D01*
X-4016540D01*
X-3991140Y2361396D01*
X-4016540Y2335996D01*
X-3991140D01*
X-3965740Y2310596D01*
X-4054640D02*
X-4029240Y2335996D01*
X-4003840D01*
X-4029240Y2361396D01*
X-4003840Y2386796D01*
X-4029240D01*
X-4054640Y2412196D01*
X-4080040Y2386796D01*
X-4105440D01*
X-4080040Y2361396D01*
X-4105440Y2335996D01*
X-4080040D01*
X-4054640Y2310596D01*
X-4245140D02*
X-4219740Y2335996D01*
X-4194340D01*
X-4219740Y2361396D01*
X-4194340Y2386796D01*
X-4219740D01*
X-4245140Y2412196D01*
X-4270540Y2386796D01*
X-4295940D01*
X-4270540Y2361396D01*
X-4295940Y2335996D01*
X-4270540D01*
X-4245140Y2310596D01*
X-4334040D02*
X-4308640Y2335996D01*
X-4283240D01*
X-4308640Y2361396D01*
X-4283240Y2386796D01*
X-4308640D01*
X-4334040Y2412196D01*
X-4359440Y2386796D01*
X-4384840D01*
X-4359440Y2361396D01*
X-4384840Y2335996D01*
X-4359440D01*
X-4334040Y2310596D01*
X-4524540D02*
X-4499140Y2335996D01*
X-4473740D01*
X-4499140Y2361396D01*
X-4473740Y2386796D01*
X-4499140D01*
X-4524540Y2412196D01*
X-4549940Y2386796D01*
X-4575340D01*
X-4549940Y2361396D01*
X-4575340Y2335996D01*
X-4549940D01*
X-4524540Y2310596D01*
X-4613440D02*
X-4588040Y2335996D01*
X-4562640D01*
X-4588040Y2361396D01*
X-4562640Y2386796D01*
X-4588040D01*
X-4613440Y2412196D01*
X-4638840Y2386796D01*
X-4664240D01*
X-4638840Y2361396D01*
X-4664240Y2335996D01*
X-4638840D01*
X-4613440Y2310596D01*
X-549440Y2170896D02*
X-524040Y2196296D01*
X-498640D01*
X-524040Y2221696D01*
X-498640Y2247096D01*
X-524040D01*
X-549440Y2272496D01*
X-574840Y2247096D01*
X-600240D01*
X-574840Y2221696D01*
X-600240Y2196296D01*
X-574840D01*
X-549440Y2170896D01*
Y2018496D02*
X-524040Y2043896D01*
X-498640D01*
X-524040Y2069296D01*
X-498640Y2094696D01*
X-524040D01*
X-549440Y2120096D01*
X-574840Y2094696D01*
X-600240D01*
X-574840Y2069296D01*
X-600240Y2043896D01*
X-574840D01*
X-549440Y2018496D01*
X-435140D02*
X-409740Y2043896D01*
X-384340D01*
X-409740Y2069296D01*
X-384340Y2094696D01*
X-409740D01*
X-435140Y2120096D01*
X-460540Y2094696D01*
X-485940D01*
X-460540Y2069296D01*
X-485940Y2043896D01*
X-460540D01*
X-435140Y2018496D01*
X-676440D02*
X-651040Y2043896D01*
X-625640D01*
X-651040Y2069296D01*
X-625640Y2094696D01*
X-651040D01*
X-676440Y2120096D01*
X-701840Y2094696D01*
X-727240D01*
X-701840Y2069296D01*
X-727240Y2043896D01*
X-701840D01*
X-676440Y2018496D01*
X-435140Y2170896D02*
X-409740Y2196296D01*
X-384340D01*
X-409740Y2221696D01*
X-384340Y2247096D01*
X-409740D01*
X-435140Y2272496D01*
X-460540Y2247096D01*
X-485940D01*
X-460540Y2221696D01*
X-485940Y2196296D01*
X-460540D01*
X-435140Y2170896D01*
Y2297896D02*
X-409740Y2323296D01*
X-384340D01*
X-409740Y2348696D01*
X-384340Y2374096D01*
X-409740D01*
X-435140Y2399496D01*
X-460540Y2374096D01*
X-485940D01*
X-460540Y2348696D01*
X-485940Y2323296D01*
X-460540D01*
X-435140Y2297896D01*
X-2606324Y2058668D02*
X-2580924Y2084068D01*
X-2555524D01*
X-2580924Y2109468D01*
X-2555524Y2134868D01*
X-2580924D01*
X-2606324Y2160268D01*
X-2631724Y2134868D01*
X-2657124D01*
X-2631724Y2109468D01*
X-2657124Y2084068D01*
X-2631724D01*
X-2606324Y2058668D01*
Y2147568D02*
X-2580924Y2172968D01*
X-2555524D01*
X-2580924Y2198368D01*
X-2555524Y2223768D01*
X-2580924D01*
X-2606324Y2249168D01*
X-2631724Y2223768D01*
X-2657124D01*
X-2631724Y2198368D01*
X-2657124Y2172968D01*
X-2631724D01*
X-2606324Y2147568D01*
Y2236468D02*
X-2580924Y2261868D01*
X-2555524D01*
X-2580924Y2287268D01*
X-2555524Y2312668D01*
X-2580924D01*
X-2606324Y2338068D01*
X-2631724Y2312668D01*
X-2657124D01*
X-2631724Y2287268D01*
X-2657124Y2261868D01*
X-2631724D01*
X-2606324Y2236468D01*
Y2325368D02*
X-2580924Y2350768D01*
X-2555524D01*
X-2580924Y2376168D01*
X-2555524Y2401568D01*
X-2580924D01*
X-2606324Y2426968D01*
X-2631724Y2401568D01*
X-2657124D01*
X-2631724Y2376168D01*
X-2657124Y2350768D01*
X-2631724D01*
X-2606324Y2325368D01*
Y2414268D02*
X-2580924Y2439668D01*
X-2555524D01*
X-2580924Y2465068D01*
X-2555524Y2490468D01*
X-2580924D01*
X-2606324Y2515868D01*
X-2631724Y2490468D01*
X-2657124D01*
X-2631724Y2465068D01*
X-2657124Y2439668D01*
X-2631724D01*
X-2606324Y2414268D01*
X-2682524Y2007868D02*
X-2657124Y2033268D01*
X-2631724D01*
X-2657124Y2058668D01*
X-2631724Y2084068D01*
X-2657124D01*
X-2682524Y2109468D01*
X-2707924Y2084068D01*
X-2733324D01*
X-2707924Y2058668D01*
X-2733324Y2033268D01*
X-2707924D01*
X-2682524Y2007868D01*
Y2096768D02*
X-2657124Y2122168D01*
X-2631724D01*
X-2657124Y2147568D01*
X-2631724Y2172968D01*
X-2657124D01*
X-2682524Y2198368D01*
X-2707924Y2172968D01*
X-2733324D01*
X-2707924Y2147568D01*
X-2733324Y2122168D01*
X-2707924D01*
X-2682524Y2096768D01*
Y2185668D02*
X-2657124Y2211068D01*
X-2631724D01*
X-2657124Y2236468D01*
X-2631724Y2261868D01*
X-2657124D01*
X-2682524Y2287268D01*
X-2707924Y2261868D01*
X-2733324D01*
X-2707924Y2236468D01*
X-2733324Y2211068D01*
X-2707924D01*
X-2682524Y2185668D01*
Y2274568D02*
X-2657124Y2299968D01*
X-2631724D01*
X-2657124Y2325368D01*
X-2631724Y2350768D01*
X-2657124D01*
X-2682524Y2376168D01*
X-2707924Y2350768D01*
X-2733324D01*
X-2707924Y2325368D01*
X-2733324Y2299968D01*
X-2707924D01*
X-2682524Y2274568D01*
Y2363468D02*
X-2657124Y2388868D01*
X-2631724D01*
X-2657124Y2414268D01*
X-2631724Y2439668D01*
X-2657124D01*
X-2682524Y2465068D01*
X-2707924Y2439668D01*
X-2733324D01*
X-2707924Y2414268D01*
X-2733324Y2388868D01*
X-2707924D01*
X-2682524Y2363468D01*
X-2758724Y2045968D02*
X-2733324Y2071368D01*
X-2707924D01*
X-2733324Y2096768D01*
X-2707924Y2122168D01*
X-2733324D01*
X-2758724Y2147568D01*
X-2784124Y2122168D01*
X-2809524D01*
X-2784124Y2096768D01*
X-2809524Y2071368D01*
X-2784124D01*
X-2758724Y2045968D01*
Y2134868D02*
X-2733324Y2160268D01*
X-2707924D01*
X-2733324Y2185668D01*
X-2707924Y2211068D01*
X-2733324D01*
X-2758724Y2236468D01*
X-2784124Y2211068D01*
X-2809524D01*
X-2784124Y2185668D01*
X-2809524Y2160268D01*
X-2784124D01*
X-2758724Y2134868D01*
Y2223768D02*
X-2733324Y2249168D01*
X-2707924D01*
X-2733324Y2274568D01*
X-2707924Y2299968D01*
X-2733324D01*
X-2758724Y2325368D01*
X-2784124Y2299968D01*
X-2809524D01*
X-2784124Y2274568D01*
X-2809524Y2249168D01*
X-2784124D01*
X-2758724Y2223768D01*
Y2312668D02*
X-2733324Y2338068D01*
X-2707924D01*
X-2733324Y2363468D01*
X-2707924Y2388868D01*
X-2733324D01*
X-2758724Y2414268D01*
X-2784124Y2388868D01*
X-2809524D01*
X-2784124Y2363468D01*
X-2809524Y2338068D01*
X-2784124D01*
X-2758724Y2312668D01*
Y2401568D02*
X-2733324Y2426968D01*
X-2707924D01*
X-2733324Y2452368D01*
X-2707924Y2477768D01*
X-2733324D01*
X-2758724Y2503168D01*
X-2784124Y2477768D01*
X-2809524D01*
X-2784124Y2452368D01*
X-2809524Y2426968D01*
X-2784124D01*
X-2758724Y2401568D01*
X-2834924Y2363468D02*
X-2809524Y2388868D01*
X-2784124D01*
X-2809524Y2414268D01*
X-2784124Y2439668D01*
X-2809524D01*
X-2834924Y2465068D01*
X-2860324Y2439668D01*
X-2885724D01*
X-2860324Y2414268D01*
X-2885724Y2388868D01*
X-2860324D01*
X-2834924Y2363468D01*
Y2274568D02*
X-2809524Y2299968D01*
X-2784124D01*
X-2809524Y2325368D01*
X-2784124Y2350768D01*
X-2809524D01*
X-2834924Y2376168D01*
X-2860324Y2350768D01*
X-2885724D01*
X-2860324Y2325368D01*
X-2885724Y2299968D01*
X-2860324D01*
X-2834924Y2274568D01*
Y2185668D02*
X-2809524Y2211068D01*
X-2784124D01*
X-2809524Y2236468D01*
X-2784124Y2261868D01*
X-2809524D01*
X-2834924Y2287268D01*
X-2860324Y2261868D01*
X-2885724D01*
X-2860324Y2236468D01*
X-2885724Y2211068D01*
X-2860324D01*
X-2834924Y2185668D01*
Y2096768D02*
X-2809524Y2122168D01*
X-2784124D01*
X-2809524Y2147568D01*
X-2784124Y2172968D01*
X-2809524D01*
X-2834924Y2198368D01*
X-2860324Y2172968D01*
X-2885724D01*
X-2860324Y2147568D01*
X-2885724Y2122168D01*
X-2860324D01*
X-2834924Y2096768D01*
Y2007868D02*
X-2809524Y2033268D01*
X-2784124D01*
X-2809524Y2058668D01*
X-2784124Y2084068D01*
X-2809524D01*
X-2834924Y2109468D01*
X-2860324Y2084068D01*
X-2885724D01*
X-2860324Y2058668D01*
X-2885724Y2033268D01*
X-2860324D01*
X-2834924Y2007868D01*
X-2911124Y2058668D02*
X-2885724Y2084068D01*
X-2860324D01*
X-2885724Y2109468D01*
X-2860324Y2134868D01*
X-2885724D01*
X-2911124Y2160268D01*
X-2936524Y2134868D01*
X-2961924D01*
X-2936524Y2109468D01*
X-2961924Y2084068D01*
X-2936524D01*
X-2911124Y2058668D01*
Y2147568D02*
X-2885724Y2172968D01*
X-2860324D01*
X-2885724Y2198368D01*
X-2860324Y2223768D01*
X-2885724D01*
X-2911124Y2249168D01*
X-2936524Y2223768D01*
X-2961924D01*
X-2936524Y2198368D01*
X-2961924Y2172968D01*
X-2936524D01*
X-2911124Y2147568D01*
Y2236468D02*
X-2885724Y2261868D01*
X-2860324D01*
X-2885724Y2287268D01*
X-2860324Y2312668D01*
X-2885724D01*
X-2911124Y2338068D01*
X-2936524Y2312668D01*
X-2961924D01*
X-2936524Y2287268D01*
X-2961924Y2261868D01*
X-2936524D01*
X-2911124Y2236468D01*
Y2325368D02*
X-2885724Y2350768D01*
X-2860324D01*
X-2885724Y2376168D01*
X-2860324Y2401568D01*
X-2885724D01*
X-2911124Y2426968D01*
X-2936524Y2401568D01*
X-2961924D01*
X-2936524Y2376168D01*
X-2961924Y2350768D01*
X-2936524D01*
X-2911124Y2325368D01*
Y2414268D02*
X-2885724Y2439668D01*
X-2860324D01*
X-2885724Y2465068D01*
X-2860324Y2490468D01*
X-2885724D01*
X-2911124Y2515868D01*
X-2936524Y2490468D01*
X-2961924D01*
X-2936524Y2465068D01*
X-2961924Y2439668D01*
X-2936524D01*
X-2911124Y2414268D01*
D167*
X-1818924Y276168D02*
G03*
X-1818924Y276168I-50800J0D01*
G01*
Y164168D02*
G03*
X-1818924Y164168I-50800J0D01*
G01*
Y412168D02*
G03*
X-1818924Y412168I-50800J0D01*
G01*
Y524168D02*
G03*
X-1818924Y524168I-50800J0D01*
G01*
X-1898924Y276168D02*
G03*
X-1898924Y276168I-50800J0D01*
G01*
X-1738924D02*
G03*
X-1738924Y276168I-50800J0D01*
G01*
Y412168D02*
G03*
X-1738924Y412168I-50800J0D01*
G01*
X-1898924D02*
G03*
X-1898924Y412168I-50800J0D01*
G01*
%TF.MD5,5f5b05e05431a3b83624c0fd6135f964*%
M02*
