%TF.GenerationSoftware,Altium Limited,Altium Designer,23.0.1 (38)*%
G04 Layer_Color=128*
%FSLAX45Y45*%
%MOMM*%
%TF.SameCoordinates,101474F7-9C50-4871-B5BA-03F38F38C57F*%
%TF.FilePolarity,Positive*%
%TF.FileFunction,Drillmap*%
%TF.Part,Single*%
G01*
G75*
%TA.AperFunction,NonConductor*%
%ADD74C,0.12700*%
D74*
X-8960000Y1221196D02*
X-8840000D01*
X-8900000Y1161196D02*
Y1281196D01*
X-8960000Y1571196D02*
X-8840000D01*
X-8900000Y1511196D02*
Y1631196D01*
X-8460000Y1221196D02*
X-8340000D01*
X-8400000Y1161196D02*
Y1281196D01*
X-8460000Y1571196D02*
X-8340000D01*
X-8400000Y1511196D02*
Y1631196D01*
X-8975000Y2799968D02*
X-8625000D01*
X-8800000Y2624968D02*
Y2974968D01*
X-465740Y1221196D02*
X-345740D01*
X-405740Y1161196D02*
Y1281196D01*
X-465740Y1571196D02*
X-345740D01*
X-405740Y1511196D02*
Y1631196D01*
X34260Y1221196D02*
X154260D01*
X94260Y1161196D02*
Y1281196D01*
X34260Y1571196D02*
X154260D01*
X94260Y1511196D02*
Y1631196D01*
X-8960000Y0D02*
X-8640000D01*
X-8800000Y-160000D02*
Y160000D01*
X-160000Y0D02*
X160000D01*
X0Y-160000D02*
Y160000D01*
X-160000Y2800000D02*
X160000D01*
X0Y2640000D02*
Y2960000D01*
X-307340Y2641600D02*
X-276860D01*
X-292100Y2626360D02*
Y2656840D01*
X-256540Y3048000D02*
X-226060D01*
X-241300Y3032760D02*
Y3063240D01*
X-1094740Y2730500D02*
X-1064260D01*
X-1079500Y2715260D02*
Y2745740D01*
X-523240Y2973800D02*
X-492760D01*
X-508000Y2958560D02*
Y2989040D01*
X-3583940Y2971800D02*
X-3553460D01*
X-3568700Y2956560D02*
Y2987040D01*
X-3583940Y3060700D02*
X-3553460D01*
X-3568700Y3045460D02*
Y3075940D01*
X-3685540Y2971800D02*
X-3655060D01*
X-3670300Y2956560D02*
Y2987040D01*
X-3685540Y3060700D02*
X-3655060D01*
X-3670300Y3045460D02*
Y3075940D01*
X-3863340Y2971800D02*
X-3832860D01*
X-3848100Y2956560D02*
Y2987040D01*
X-3863340Y3060700D02*
X-3832860D01*
X-3848100Y3045460D02*
Y3075940D01*
X-3964940Y2971800D02*
X-3934460D01*
X-3949700Y2956560D02*
Y2987040D01*
X-3964940Y3060700D02*
X-3934460D01*
X-3949700Y3045460D02*
Y3075940D01*
X-7889240Y2374900D02*
X-7858760D01*
X-7874000Y2359660D02*
Y2390140D01*
X-8079740Y2374900D02*
X-8049260D01*
X-8064500Y2359660D02*
Y2390140D01*
X-8257540Y2374900D02*
X-8227060D01*
X-8242300Y2359660D02*
Y2390140D01*
X-1564640Y3073400D02*
X-1534160D01*
X-1549400Y3058160D02*
Y3088640D01*
X-1920240Y3073400D02*
X-1889760D01*
X-1905000Y3058160D02*
Y3088640D01*
X-2263140Y3073400D02*
X-2232660D01*
X-2247900Y3058160D02*
Y3088640D01*
X-1653540Y-215900D02*
X-1623060D01*
X-1638300Y-231140D02*
Y-200660D01*
X-1818640Y-215900D02*
X-1788160D01*
X-1803400Y-231140D02*
Y-200660D01*
X-1983740Y-215900D02*
X-1953260D01*
X-1968500Y-231140D02*
Y-200660D01*
X-2123440Y-215900D02*
X-2092960D01*
X-2108200Y-231140D02*
Y-200660D01*
X-1313980Y951696D02*
X-1283500D01*
X-1298740Y936456D02*
Y966936D01*
X-1491780Y951696D02*
X-1461300D01*
X-1476540Y936456D02*
Y966936D01*
X-2593340Y571500D02*
X-2562860D01*
X-2578100Y556260D02*
Y586740D01*
X-1501140Y698500D02*
X-1470660D01*
X-1485900Y683260D02*
Y713740D01*
X-1132840Y495300D02*
X-1102360D01*
X-1117600Y480060D02*
Y510540D01*
X137160Y762000D02*
X167640D01*
X152400Y746760D02*
Y777240D01*
X124460Y330200D02*
X154940D01*
X139700Y314960D02*
Y345440D01*
X-2453640Y3060700D02*
X-2423160D01*
X-2438400Y3045460D02*
Y3075940D01*
X-2758440Y3022600D02*
X-2727960D01*
X-2743200Y3007360D02*
Y3037840D01*
X-3012440Y2997200D02*
X-2981960D01*
X-2997200Y2981960D02*
Y3012440D01*
X-1399540Y3035300D02*
X-1369060D01*
X-1384300Y3020060D02*
Y3050540D01*
X-1082040Y3060700D02*
X-1051560D01*
X-1066800Y3045460D02*
Y3075940D01*
X-980440Y3060700D02*
X-949960D01*
X-965200Y3045460D02*
Y3075940D01*
X-5704840Y2997200D02*
X-5674360D01*
X-5689600Y2981960D02*
Y3012440D01*
X-5704840Y2895600D02*
X-5674360D01*
X-5689600Y2880360D02*
Y2910840D01*
X-5425440Y3060700D02*
X-5394960D01*
X-5410200Y3045460D02*
Y3075940D01*
X-5184140Y3060700D02*
X-5153660D01*
X-5168900Y3045460D02*
Y3075940D01*
X-4942840Y3060700D02*
X-4912360D01*
X-4927600Y3045460D02*
Y3075940D01*
X-4701540Y3060700D02*
X-4671060D01*
X-4686300Y3045460D02*
Y3075940D01*
X-4472940Y3073400D02*
X-4442460D01*
X-4457700Y3058160D02*
Y3088640D01*
X-4452620Y2981960D02*
X-4422140D01*
X-4437380Y2966720D02*
Y2997200D01*
X-4696460Y2984500D02*
X-4665980D01*
X-4681220Y2969260D02*
Y2999740D01*
X-4940300Y2981960D02*
X-4909820D01*
X-4925060Y2966720D02*
Y2997200D01*
X-5181600Y2987040D02*
X-5151120D01*
X-5166360Y2971800D02*
Y3002280D01*
X-5422900Y2984500D02*
X-5392420D01*
X-5407660Y2969260D02*
Y2999740D01*
X-5628640Y3048000D02*
X-5598160D01*
X-5613400Y3032760D02*
Y3063240D01*
X-7546340Y1104900D02*
X-7515860D01*
X-7531100Y1089660D02*
Y1120140D01*
X-7698740Y1104900D02*
X-7668260D01*
X-7683500Y1089660D02*
Y1120140D01*
X-7851140Y1104900D02*
X-7820660D01*
X-7835900Y1089660D02*
Y1120140D01*
X-8003540Y1104900D02*
X-7973060D01*
X-7988300Y1089660D02*
Y1120140D01*
X-8155940Y1104900D02*
X-8125460D01*
X-8140700Y1089660D02*
Y1120140D01*
X-7482840Y1206500D02*
X-7452360D01*
X-7467600Y1191260D02*
Y1221740D01*
X-7635240Y1206500D02*
X-7604760D01*
X-7620000Y1191260D02*
Y1221740D01*
X-7787640Y1206500D02*
X-7757160D01*
X-7772400Y1191260D02*
Y1221740D01*
X-7940040Y1206500D02*
X-7909560D01*
X-7924800Y1191260D02*
Y1221740D01*
X-8092440Y1206500D02*
X-8061960D01*
X-8077200Y1191260D02*
Y1221740D01*
X-7546340Y1308100D02*
X-7515860D01*
X-7531100Y1292860D02*
Y1323340D01*
X-7698740Y1308100D02*
X-7668260D01*
X-7683500Y1292860D02*
Y1323340D01*
X-7851140Y1308100D02*
X-7820660D01*
X-7835900Y1292860D02*
Y1323340D01*
X-8003540Y1308100D02*
X-7973060D01*
X-7988300Y1292860D02*
Y1323340D01*
X-8155940Y1308100D02*
X-8125460D01*
X-8140700Y1292860D02*
Y1323340D01*
X-7470140Y1600200D02*
X-7439660D01*
X-7454900Y1584960D02*
Y1615440D01*
X-7622540Y1600200D02*
X-7592060D01*
X-7607300Y1584960D02*
Y1615440D01*
X-7774940Y1600200D02*
X-7744460D01*
X-7759700Y1584960D02*
Y1615440D01*
X-7927340Y1600200D02*
X-7896860D01*
X-7912100Y1584960D02*
Y1615440D01*
X-8079740Y1600200D02*
X-8049260D01*
X-8064500Y1584960D02*
Y1615440D01*
X-7546340Y1689100D02*
X-7515860D01*
X-7531100Y1673860D02*
Y1704340D01*
X-7698740Y1689100D02*
X-7668260D01*
X-7683500Y1673860D02*
Y1704340D01*
X-7851140Y1689100D02*
X-7820660D01*
X-7835900Y1673860D02*
Y1704340D01*
X-8003540Y1689100D02*
X-7973060D01*
X-7988300Y1673860D02*
Y1704340D01*
X-8155940Y1689100D02*
X-8125460D01*
X-8140700Y1673860D02*
Y1704340D01*
X-8079740Y1778000D02*
X-8049260D01*
X-8064500Y1762760D02*
Y1793240D01*
X-7927340Y1778000D02*
X-7896860D01*
X-7912100Y1762760D02*
Y1793240D01*
X-7774940Y1778000D02*
X-7744460D01*
X-7759700Y1762760D02*
Y1793240D01*
X-7622540Y1778000D02*
X-7592060D01*
X-7607300Y1762760D02*
Y1793240D01*
X-7470140Y1778000D02*
X-7439660D01*
X-7454900Y1762760D02*
Y1793240D01*
X-247180Y240496D02*
X-216700D01*
X-231940Y225256D02*
Y255736D01*
X-336080Y2907496D02*
X-305600D01*
X-320840Y2892256D02*
Y2922736D01*
X-424980Y596096D02*
X-394500D01*
X-409740Y580856D02*
Y611336D01*
X-424980Y240496D02*
X-394500D01*
X-409740Y225256D02*
Y255736D01*
X-336080Y62696D02*
X-305600D01*
X-320840Y47456D02*
Y77936D01*
X-602780Y240496D02*
X-572300D01*
X-587540Y225256D02*
Y255736D01*
X-513880Y62696D02*
X-483400D01*
X-498640Y47456D02*
Y77936D01*
X-780580Y240496D02*
X-750100D01*
X-765340Y225256D02*
Y255736D01*
X-691680Y62696D02*
X-661200D01*
X-676440Y47456D02*
Y77936D01*
X-958380Y1662896D02*
X-927900D01*
X-943140Y1647656D02*
Y1678136D01*
X-958380Y1307296D02*
X-927900D01*
X-943140Y1292056D02*
Y1322536D01*
X-958380Y951696D02*
X-927900D01*
X-943140Y936456D02*
Y966936D01*
X-869480Y773896D02*
X-839000D01*
X-854240Y758656D02*
Y789136D01*
X-958380Y596096D02*
X-927900D01*
X-943140Y580856D02*
Y611336D01*
X-869480Y418296D02*
X-839000D01*
X-854240Y403056D02*
Y433536D01*
X-958380Y240496D02*
X-927900D01*
X-943140Y225256D02*
Y255736D01*
X-869480Y62696D02*
X-839000D01*
X-854240Y47456D02*
Y77936D01*
X-958380Y-115104D02*
X-927900D01*
X-943140Y-130344D02*
Y-99864D01*
X-1047280Y1840696D02*
X-1016800D01*
X-1032040Y1825456D02*
Y1855936D01*
X-1136180Y1662896D02*
X-1105700D01*
X-1120940Y1647656D02*
Y1678136D01*
X-1047280Y1485096D02*
X-1016800D01*
X-1032040Y1469856D02*
Y1500336D01*
X-1136180Y1307296D02*
X-1105700D01*
X-1120940Y1292056D02*
Y1322536D01*
X-1136180Y240496D02*
X-1105700D01*
X-1120940Y225256D02*
Y255736D01*
X-1136180Y-115104D02*
X-1105700D01*
X-1120940Y-130344D02*
Y-99864D01*
X-1225080Y1840696D02*
X-1194600D01*
X-1209840Y1825456D02*
Y1855936D01*
X-1225080Y1485096D02*
X-1194600D01*
X-1209840Y1469856D02*
Y1500336D01*
X-1313980Y1307296D02*
X-1283500D01*
X-1298740Y1292056D02*
Y1322536D01*
X-1402880Y1840696D02*
X-1372400D01*
X-1387640Y1825456D02*
Y1855936D01*
X-1491780Y1307296D02*
X-1461300D01*
X-1476540Y1292056D02*
Y1322536D01*
X-1580680Y1840696D02*
X-1550200D01*
X-1565440Y1825456D02*
Y1855936D01*
X-1669580Y1307296D02*
X-1639100D01*
X-1654340Y1292056D02*
Y1322536D01*
X-1758480Y1840696D02*
X-1728000D01*
X-1743240Y1825456D02*
Y1855936D01*
X-1847380Y1662896D02*
X-1816900D01*
X-1832140Y1647656D02*
Y1678136D01*
X-1758480Y1485096D02*
X-1728000D01*
X-1743240Y1469856D02*
Y1500336D01*
X-1847380Y1307296D02*
X-1816900D01*
X-1832140Y1292056D02*
Y1322536D01*
X-2736380Y-115104D02*
X-2705900D01*
X-2721140Y-130344D02*
Y-99864D01*
X-2825280Y62696D02*
X-2794800D01*
X-2810040Y47456D02*
Y77936D01*
X-3003080Y62696D02*
X-2972600D01*
X-2987840Y47456D02*
Y77936D01*
X-3180880Y62696D02*
X-3150400D01*
X-3165640Y47456D02*
Y77936D01*
X-3358680Y62696D02*
X-3328200D01*
X-3343440Y47456D02*
Y77936D01*
X-3536480Y62696D02*
X-3506000D01*
X-3521240Y47456D02*
Y77936D01*
X-3803180Y596096D02*
X-3772700D01*
X-3787940Y580856D02*
Y611336D01*
X-3714280Y62696D02*
X-3683800D01*
X-3699040Y47456D02*
Y77936D01*
X-3892080Y62696D02*
X-3861600D01*
X-3876840Y47456D02*
Y77936D01*
X-4069880Y62696D02*
X-4039400D01*
X-4054640Y47456D02*
Y77936D01*
X-4247680Y62696D02*
X-4217200D01*
X-4232440Y47456D02*
Y77936D01*
X-4514380Y951696D02*
X-4483900D01*
X-4499140Y936456D02*
Y966936D01*
X-4425480Y62696D02*
X-4395000D01*
X-4410240Y47456D02*
Y77936D01*
X-4514380Y-115104D02*
X-4483900D01*
X-4499140Y-130344D02*
Y-99864D01*
X-4692180Y951696D02*
X-4661700D01*
X-4676940Y936456D02*
Y966936D01*
X-4692180Y-115104D02*
X-4661700D01*
X-4676940Y-130344D02*
Y-99864D01*
X-4869980Y951696D02*
X-4839500D01*
X-4854740Y936456D02*
Y966936D01*
X-4781080Y773896D02*
X-4750600D01*
X-4765840Y758656D02*
Y789136D01*
X-4869980Y596096D02*
X-4839500D01*
X-4854740Y580856D02*
Y611336D01*
X-4781080Y418296D02*
X-4750600D01*
X-4765840Y403056D02*
Y433536D01*
X-4781080Y62696D02*
X-4750600D01*
X-4765840Y47456D02*
Y77936D01*
X-4869980Y-115104D02*
X-4839500D01*
X-4854740Y-130344D02*
Y-99864D01*
X-5047780Y951696D02*
X-5017300D01*
X-5032540Y936456D02*
Y966936D01*
X-4958880Y773896D02*
X-4928400D01*
X-4943640Y758656D02*
Y789136D01*
X-5047780Y596096D02*
X-5017300D01*
X-5032540Y580856D02*
Y611336D01*
X-4958880Y418296D02*
X-4928400D01*
X-4943640Y403056D02*
Y433536D01*
X-4958880Y62696D02*
X-4928400D01*
X-4943640Y47456D02*
Y77936D01*
X-5225580Y1662896D02*
X-5195100D01*
X-5210340Y1647656D02*
Y1678136D01*
X-5136680Y1485096D02*
X-5106200D01*
X-5121440Y1469856D02*
Y1500336D01*
X-5225580Y1307296D02*
X-5195100D01*
X-5210340Y1292056D02*
Y1322536D01*
X-5136680Y1129496D02*
X-5106200D01*
X-5121440Y1114256D02*
Y1144736D01*
X-5225580Y951696D02*
X-5195100D01*
X-5210340Y936456D02*
Y966936D01*
X-5136680Y773896D02*
X-5106200D01*
X-5121440Y758656D02*
Y789136D01*
X-5136680Y62696D02*
X-5106200D01*
X-5121440Y47456D02*
Y77936D01*
X-5314480Y2196296D02*
X-5284000D01*
X-5299240Y2181056D02*
Y2211536D01*
X-5314480Y1840696D02*
X-5284000D01*
X-5299240Y1825456D02*
Y1855936D01*
X-5314480Y1485096D02*
X-5284000D01*
X-5299240Y1469856D02*
Y1500336D01*
X-5314480Y1129496D02*
X-5284000D01*
X-5299240Y1114256D02*
Y1144736D01*
X-5314480Y773896D02*
X-5284000D01*
X-5299240Y758656D02*
Y789136D01*
X-5403380Y596096D02*
X-5372900D01*
X-5388140Y580856D02*
Y611336D01*
X-5314480Y62696D02*
X-5284000D01*
X-5299240Y47456D02*
Y77936D01*
X-5492280Y2196296D02*
X-5461800D01*
X-5477040Y2181056D02*
Y2211536D01*
X-5581180Y596096D02*
X-5550700D01*
X-5565940Y580856D02*
Y611336D01*
X-5492280Y418296D02*
X-5461800D01*
X-5477040Y403056D02*
Y433536D01*
X-5492280Y62696D02*
X-5461800D01*
X-5477040Y47456D02*
Y77936D01*
X-5670080Y2196296D02*
X-5639600D01*
X-5654840Y2181056D02*
Y2211536D01*
X-5758980Y596096D02*
X-5728500D01*
X-5743740Y580856D02*
Y611336D01*
X-5670080Y418296D02*
X-5639600D01*
X-5654840Y403056D02*
Y433536D01*
X-5670080Y62696D02*
X-5639600D01*
X-5654840Y47456D02*
Y77936D01*
X-5758980Y-115104D02*
X-5728500D01*
X-5743740Y-130344D02*
Y-99864D01*
X-5847880Y2196296D02*
X-5817400D01*
X-5832640Y2181056D02*
Y2211536D01*
X-7714780Y2729696D02*
X-7684300D01*
X-7699540Y2714456D02*
Y2744936D01*
X-7714780Y2374096D02*
X-7684300D01*
X-7699540Y2358856D02*
Y2389336D01*
X-7714780Y596096D02*
X-7684300D01*
X-7699540Y580856D02*
Y611336D01*
X-7714780Y240496D02*
X-7684300D01*
X-7699540Y225256D02*
Y255736D01*
X-7714780Y-115104D02*
X-7684300D01*
X-7699540Y-130344D02*
Y-99864D01*
X-7803680Y2907496D02*
X-7773200D01*
X-7788440Y2892256D02*
Y2922736D01*
X-7892580Y2729696D02*
X-7862100D01*
X-7877340Y2714456D02*
Y2744936D01*
X-7803680Y2196296D02*
X-7773200D01*
X-7788440Y2181056D02*
Y2211536D01*
X-7892580Y596096D02*
X-7862100D01*
X-7877340Y580856D02*
Y611336D01*
X-7803680Y418296D02*
X-7773200D01*
X-7788440Y403056D02*
Y433536D01*
X-7803680Y62696D02*
X-7773200D01*
X-7788440Y47456D02*
Y77936D01*
X-7892580Y-115104D02*
X-7862100D01*
X-7877340Y-130344D02*
Y-99864D01*
X-7981480Y2907496D02*
X-7951000D01*
X-7966240Y2892256D02*
Y2922736D01*
X-8070380Y2729696D02*
X-8039900D01*
X-8055140Y2714456D02*
Y2744936D01*
X-7981480Y2196296D02*
X-7951000D01*
X-7966240Y2181056D02*
Y2211536D01*
X-8070380Y596096D02*
X-8039900D01*
X-8055140Y580856D02*
Y611336D01*
X-7981480Y62696D02*
X-7951000D01*
X-7966240Y47456D02*
Y77936D01*
X-8070380Y-115104D02*
X-8039900D01*
X-8055140Y-130344D02*
Y-99864D01*
X-8248180Y2729696D02*
X-8217700D01*
X-8232940Y2714456D02*
Y2744936D01*
X-8248180Y596096D02*
X-8217700D01*
X-8232940Y580856D02*
Y611336D01*
X-8248180Y-115104D02*
X-8217700D01*
X-8232940Y-130344D02*
Y-99864D01*
X-8337080Y2907496D02*
X-8306600D01*
X-8321840Y2892256D02*
Y2922736D01*
X-8425980Y2729696D02*
X-8395500D01*
X-8410740Y2714456D02*
Y2744936D01*
X-8425980Y2374096D02*
X-8395500D01*
X-8410740Y2358856D02*
Y2389336D01*
X-8337080Y2196296D02*
X-8306600D01*
X-8321840Y2181056D02*
Y2211536D01*
X-8425980Y596096D02*
X-8395500D01*
X-8410740Y580856D02*
Y611336D01*
X-8337080Y418296D02*
X-8306600D01*
X-8321840Y403056D02*
Y433536D01*
X-8425980Y240496D02*
X-8395500D01*
X-8410740Y225256D02*
Y255736D01*
X-8337080Y62696D02*
X-8306600D01*
X-8321840Y47456D02*
Y77936D01*
X-8425980Y-115104D02*
X-8395500D01*
X-8410740Y-130344D02*
Y-99864D01*
X-8514880Y2551896D02*
X-8484400D01*
X-8499640Y2536656D02*
Y2567136D01*
X-8603780Y2374096D02*
X-8573300D01*
X-8588540Y2358856D02*
Y2389336D01*
X-8514880Y2196296D02*
X-8484400D01*
X-8499640Y2181056D02*
Y2211536D01*
X-8603780Y596096D02*
X-8573300D01*
X-8588540Y580856D02*
Y611336D01*
X-8514880Y418296D02*
X-8484400D01*
X-8499640Y403056D02*
Y433536D01*
X-8781580Y2374096D02*
X-8751100D01*
X-8766340Y2358856D02*
Y2389336D01*
X-8692680Y2196296D02*
X-8662200D01*
X-8677440Y2181056D02*
Y2211536D01*
X-8781580Y596096D02*
X-8751100D01*
X-8766340Y580856D02*
Y611336D01*
X-8692680Y418296D02*
X-8662200D01*
X-8677440Y403056D02*
Y433536D01*
X-8959380Y2374096D02*
X-8928900D01*
X-8944140Y2358856D02*
Y2389336D01*
X-8870480Y2196296D02*
X-8840000D01*
X-8855240Y2181056D02*
Y2211536D01*
X-8959380Y596096D02*
X-8928900D01*
X-8944140Y580856D02*
Y611336D01*
X-8870480Y418296D02*
X-8840000D01*
X-8855240Y403056D02*
Y433536D01*
X-4193540Y3060700D02*
X-4163060D01*
X-4178300Y3045460D02*
Y3075940D01*
X-4193540Y2971800D02*
X-4163060D01*
X-4178300Y2956560D02*
Y2987040D01*
X-4091940Y3060700D02*
X-4061460D01*
X-4076700Y3045460D02*
Y3075940D01*
X-4091940Y2971800D02*
X-4061460D01*
X-4076700Y2956560D02*
Y2987040D01*
X-3393440Y3073400D02*
X-3362960D01*
X-3378200Y3058160D02*
Y3088640D01*
X-3393440Y2984500D02*
X-3362960D01*
X-3378200Y2969260D02*
Y2999740D01*
X-3291840Y3073400D02*
X-3261360D01*
X-3276600Y3058160D02*
Y3088640D01*
X-3291840Y2984500D02*
X-3261360D01*
X-3276600Y2969260D02*
Y2999740D01*
X-3926840Y2755900D02*
X-3896360D01*
X-3911600Y2740660D02*
Y2771140D01*
X-4155440Y2755900D02*
X-4124960D01*
X-4140200Y2740660D02*
Y2771140D01*
X-4003040Y2755900D02*
X-3972560D01*
X-3987800Y2740660D02*
Y2771140D01*
X-4079240Y2755900D02*
X-4048760D01*
X-4064000Y2740660D02*
Y2771140D01*
X-3622040Y2755900D02*
X-3591560D01*
X-3606800Y2740660D02*
Y2771140D01*
X-3850640Y2755900D02*
X-3820160D01*
X-3835400Y2740660D02*
Y2771140D01*
X-3698240Y2755900D02*
X-3667760D01*
X-3683000Y2740660D02*
Y2771140D01*
X-3774440Y2755900D02*
X-3743960D01*
X-3759200Y2740660D02*
Y2771140D01*
X-3317240Y2768600D02*
X-3286760D01*
X-3302000Y2753360D02*
Y2783840D01*
X-3545840Y2755900D02*
X-3515360D01*
X-3530600Y2740660D02*
Y2771140D01*
X-3393440Y2755900D02*
X-3362960D01*
X-3378200Y2740660D02*
Y2771140D01*
X-3469640Y2755900D02*
X-3439160D01*
X-3454400Y2740660D02*
Y2771140D01*
X-6997700Y1422400D02*
X-6967220D01*
X-6982460Y1407160D02*
Y1437640D01*
X-6924040Y1422400D02*
X-6893560D01*
X-6908800Y1407160D02*
Y1437640D01*
X-3736340Y2273300D02*
X-3705860D01*
X-3721100Y2258060D02*
Y2288540D01*
X-3736340Y2184400D02*
X-3705860D01*
X-3721100Y2169160D02*
Y2199640D01*
X-3736340Y2082800D02*
X-3705860D01*
X-3721100Y2067560D02*
Y2098040D01*
X-3736340Y1993900D02*
X-3705860D01*
X-3721100Y1978660D02*
Y2009140D01*
X-3736340Y1905000D02*
X-3705860D01*
X-3721100Y1889760D02*
Y1920240D01*
X-3736340Y1816100D02*
X-3705860D01*
X-3721100Y1800860D02*
Y1831340D01*
X-3088640Y2489200D02*
X-3058160D01*
X-3073400Y2473960D02*
Y2504440D01*
X-3177540Y2489200D02*
X-3147060D01*
X-3162300Y2473960D02*
Y2504440D01*
X-4257040Y2476500D02*
X-4226560D01*
X-4241800Y2461260D02*
Y2491740D01*
X-4345940Y2476500D02*
X-4315460D01*
X-4330700Y2461260D02*
Y2491740D01*
X-4536440Y2476500D02*
X-4505960D01*
X-4521200Y2461260D02*
Y2491740D01*
X-4625340Y2476500D02*
X-4594860D01*
X-4610100Y2461260D02*
Y2491740D01*
X-4803140Y2400300D02*
X-4772660D01*
X-4787900Y2385060D02*
Y2415540D01*
X-4803140Y2489200D02*
X-4772660D01*
X-4787900Y2473960D02*
Y2504440D01*
X-4904740Y2400300D02*
X-4874260D01*
X-4889500Y2385060D02*
Y2415540D01*
X-4904740Y2489200D02*
X-4874260D01*
X-4889500Y2473960D02*
Y2504440D01*
X-5006340Y2400300D02*
X-4975860D01*
X-4991100Y2385060D02*
Y2415540D01*
X-5006340Y2489200D02*
X-4975860D01*
X-4991100Y2473960D02*
Y2504440D01*
X-5107940Y2400300D02*
X-5077460D01*
X-5092700Y2385060D02*
Y2415540D01*
X-5107940Y2489200D02*
X-5077460D01*
X-5092700Y2473960D02*
Y2504440D01*
X-5209540Y2400300D02*
X-5179060D01*
X-5194300Y2385060D02*
Y2415540D01*
X-5209540Y2489200D02*
X-5179060D01*
X-5194300Y2473960D02*
Y2504440D01*
X-5311140Y2400300D02*
X-5280660D01*
X-5295900Y2385060D02*
Y2415540D01*
X-5311140Y2489200D02*
X-5280660D01*
X-5295900Y2473960D02*
Y2504440D01*
X-5400040Y2400300D02*
X-5369560D01*
X-5384800Y2385060D02*
Y2415540D01*
X-5400040Y2489200D02*
X-5369560D01*
X-5384800Y2473960D02*
Y2504440D01*
X-5488940Y2400300D02*
X-5458460D01*
X-5473700Y2385060D02*
Y2415540D01*
X-5488940Y2489200D02*
X-5458460D01*
X-5473700Y2473960D02*
Y2504440D01*
X-5577840Y2400300D02*
X-5547360D01*
X-5562600Y2385060D02*
Y2415540D01*
X-5577840Y2489200D02*
X-5547360D01*
X-5562600Y2473960D02*
Y2504440D01*
X-784860Y2678803D02*
X-754380D01*
X-769620Y2663563D02*
Y2694043D01*
X-691680Y2221696D02*
X-661200D01*
X-676440Y2206456D02*
Y2236936D01*
X-564680Y2348696D02*
X-534200D01*
X-549440Y2333456D02*
Y2363936D01*
X-691680Y2348696D02*
X-661200D01*
X-676440Y2333456D02*
Y2363936D01*
X-1029504Y2005796D02*
X-999024D01*
X-1014264Y1990556D02*
Y2021036D01*
X-3188988Y1791876D02*
X-3158508D01*
X-3173748Y1776636D02*
Y1807116D01*
X-3570680Y1791876D02*
X-3540200D01*
X-3555440Y1776636D02*
Y1807116D01*
X-2593340Y838200D02*
X-2562860D01*
X-2578100Y822960D02*
Y853440D01*
X-1602740Y508000D02*
X-1572260D01*
X-1587500Y492760D02*
Y523240D01*
X-2098040Y-12700D02*
X-2067560D01*
X-2082800Y-27940D02*
Y2540D01*
X-1630964Y648968D02*
X-1600484D01*
X-1615724Y633728D02*
Y664208D01*
X-1614479Y414997D02*
X-1583999D01*
X-1599239Y399757D02*
Y430237D01*
X-2583404Y206894D02*
X-2552924D01*
X-2568164Y191654D02*
Y222134D01*
X-2583464Y280668D02*
X-2552984D01*
X-2568224Y265428D02*
Y295908D01*
X-993140Y774700D02*
X-962660D01*
X-977900Y759460D02*
Y789940D01*
X-2174240Y368300D02*
X-2143760D01*
X-2159000Y353060D02*
Y383540D01*
X-2745740Y609600D02*
X-2715260D01*
X-2730500Y594360D02*
Y624840D01*
X-3900998Y1791854D02*
X-3870518D01*
X-3885758Y1776614D02*
Y1807094D01*
X-3114040Y368300D02*
X-3083560D01*
X-3098800Y353060D02*
Y383540D01*
X-3202940Y368300D02*
X-3172460D01*
X-3187700Y353060D02*
Y383540D01*
X-3117142Y481488D02*
X-3086662D01*
X-3101902Y466248D02*
Y496728D01*
X-3206042Y481488D02*
X-3175562D01*
X-3190802Y466248D02*
Y496728D01*
X-3291840Y368300D02*
X-3261360D01*
X-3276600Y353060D02*
Y383540D01*
X-3380740Y368300D02*
X-3350260D01*
X-3365500Y353060D02*
Y383540D01*
X-3291840Y482600D02*
X-3261360D01*
X-3276600Y467360D02*
Y497840D01*
X-3380740Y482600D02*
X-3350260D01*
X-3365500Y467360D02*
Y497840D01*
X-3469640Y368300D02*
X-3439160D01*
X-3454400Y353060D02*
Y383540D01*
X-3558540Y368300D02*
X-3528060D01*
X-3543300Y353060D02*
Y383540D01*
X-3469640Y482600D02*
X-3439160D01*
X-3454400Y467360D02*
Y497840D01*
X-3558540Y482600D02*
X-3528060D01*
X-3543300Y467360D02*
Y497840D01*
X-3660140Y368300D02*
X-3629660D01*
X-3644900Y353060D02*
Y383540D01*
X-3749040Y368300D02*
X-3718560D01*
X-3733800Y353060D02*
Y383540D01*
X-3749040Y482600D02*
X-3718560D01*
X-3733800Y467360D02*
Y497840D01*
X-3842715Y371203D02*
X-3812235D01*
X-3827475Y355963D02*
Y386443D01*
X-3931615Y371203D02*
X-3901135D01*
X-3916375Y355963D02*
Y386443D01*
X-3837940Y482600D02*
X-3807460D01*
X-3822700Y467360D02*
Y497840D01*
X-3926840Y482600D02*
X-3896360D01*
X-3911600Y467360D02*
Y497840D01*
X-4015740Y368300D02*
X-3985260D01*
X-4000500Y353060D02*
Y383540D01*
X-4104640Y368300D02*
X-4074160D01*
X-4089400Y353060D02*
Y383540D01*
X-4193540Y368300D02*
X-4163060D01*
X-4178300Y353060D02*
Y383540D01*
X-4282440Y368300D02*
X-4251960D01*
X-4267200Y353060D02*
Y383540D01*
X-4015740Y482600D02*
X-3985260D01*
X-4000500Y467360D02*
Y497840D01*
X-4104640Y482600D02*
X-4074160D01*
X-4089400Y467360D02*
Y497840D01*
X-4193540Y482600D02*
X-4163060D01*
X-4178300Y467360D02*
Y497840D01*
X-4282440Y482600D02*
X-4251960D01*
X-4267200Y467360D02*
Y497840D01*
X-5843724Y2796072D02*
X-5813244D01*
X-5828484Y2780832D02*
Y2811312D01*
X-5843724Y2884972D02*
X-5813244D01*
X-5828484Y2869732D02*
Y2900212D01*
X-5843724Y2440472D02*
X-5813244D01*
X-5828484Y2425232D02*
Y2455712D01*
X-5843724Y2529372D02*
X-5813244D01*
X-5828484Y2514132D02*
Y2544612D01*
X-5945324Y2199172D02*
X-5914844D01*
X-5930084Y2183932D02*
Y2214412D01*
X-5945324Y2288072D02*
X-5914844D01*
X-5930084Y2272832D02*
Y2303312D01*
X-5932924Y649772D02*
X-5902444D01*
X-5917684Y634532D02*
Y665012D01*
X-5844024Y649772D02*
X-5813544D01*
X-5828784Y634532D02*
Y665012D01*
X-5818624Y383072D02*
X-5788144D01*
X-5803384Y367832D02*
Y398312D01*
X-5818624Y471972D02*
X-5788144D01*
X-5803384Y456732D02*
Y487212D01*
X-5996424Y-175728D02*
X-5965944D01*
X-5981184Y-190968D02*
Y-160488D01*
X-5907524Y-175728D02*
X-5877044D01*
X-5892284Y-190968D02*
Y-160488D01*
X-5818624Y90972D02*
X-5788144D01*
X-5803384Y75732D02*
Y106212D01*
X-5818624Y2072D02*
X-5788144D01*
X-5803384Y-13168D02*
Y17312D01*
X-4536440Y1828800D02*
X-4505960D01*
X-4521200Y1813560D02*
Y1844040D01*
X-4536440Y1917700D02*
X-4505960D01*
X-4521200Y1902460D02*
Y1932940D01*
X-4536440Y2032000D02*
X-4505960D01*
X-4521200Y2016760D02*
Y2047240D01*
X-4536440Y2120900D02*
X-4505960D01*
X-4521200Y2105660D02*
Y2136140D01*
X-6686080Y1967696D02*
X-6655600D01*
X-6670840Y1952456D02*
Y1982936D01*
X-6686080Y1866096D02*
X-6655600D01*
X-6670840Y1850856D02*
Y1881336D01*
X-6686080Y1751796D02*
X-6655600D01*
X-6670840Y1736556D02*
Y1767036D01*
X-6686080Y951696D02*
X-6655600D01*
X-6670840Y936456D02*
Y966936D01*
X-6406680Y1319996D02*
X-6376200D01*
X-6391440Y1304756D02*
Y1335236D01*
X-6317780Y1319996D02*
X-6287300D01*
X-6302540Y1304756D02*
Y1335236D01*
X-6406680Y1561296D02*
X-6376200D01*
X-6391440Y1546056D02*
Y1576536D01*
X-6317780Y1561296D02*
X-6287300D01*
X-6302540Y1546056D02*
Y1576536D01*
X-6686080Y1065996D02*
X-6655600D01*
X-6670840Y1050756D02*
Y1081236D01*
X-6686080Y1167596D02*
X-6655600D01*
X-6670840Y1152356D02*
Y1182836D01*
X-6559080Y913596D02*
X-6528600D01*
X-6543840Y898356D02*
Y928836D01*
X-6381280Y913596D02*
X-6350800D01*
X-6366040Y898356D02*
Y928836D01*
X-6559080Y1015196D02*
X-6528600D01*
X-6543840Y999956D02*
Y1030436D01*
X-6381280Y1015196D02*
X-6350800D01*
X-6366040Y999956D02*
Y1030436D01*
X-6559080Y1116796D02*
X-6528600D01*
X-6543840Y1101556D02*
Y1132036D01*
X-6381280Y1116796D02*
X-6350800D01*
X-6366040Y1101556D02*
Y1132036D01*
X-6559080Y1218396D02*
X-6528600D01*
X-6543840Y1203156D02*
Y1233636D01*
X-6381280Y1218396D02*
X-6350800D01*
X-6366040Y1203156D02*
Y1233636D01*
X-6495580Y1319996D02*
X-6465100D01*
X-6480340Y1304756D02*
Y1335236D01*
X-6495580Y1561296D02*
X-6465100D01*
X-6480340Y1546056D02*
Y1576536D01*
X-6559080Y1688296D02*
X-6528600D01*
X-6543840Y1673056D02*
Y1703536D01*
X-6381280Y1688296D02*
X-6350800D01*
X-6366040Y1673056D02*
Y1703536D01*
X-6559080Y1802596D02*
X-6528600D01*
X-6543840Y1787356D02*
Y1817836D01*
X-6381280Y1802596D02*
X-6350800D01*
X-6366040Y1787356D02*
Y1817836D01*
X-6559080Y1904196D02*
X-6528600D01*
X-6543840Y1888956D02*
Y1919436D01*
X-6381280Y1904196D02*
X-6350800D01*
X-6366040Y1888956D02*
Y1919436D01*
X-3380180Y1791876D02*
X-3349700D01*
X-3364940Y1776636D02*
Y1807116D01*
X-3189680Y2091046D02*
X-3159200D01*
X-3174440Y2075806D02*
Y2106286D01*
X-3570680Y1938646D02*
X-3540200D01*
X-3555440Y1923406D02*
Y1953886D01*
X-3570680Y2091046D02*
X-3540200D01*
X-3555440Y2075806D02*
Y2106286D01*
X-3380180Y1938646D02*
X-3349700D01*
X-3364940Y1923406D02*
Y1953886D01*
X-3189680Y1938646D02*
X-3159200D01*
X-3174440Y1923406D02*
Y1953886D01*
X-3380180Y2078346D02*
X-3349700D01*
X-3364940Y2063106D02*
Y2093586D01*
X-3900880Y2091046D02*
X-3870400D01*
X-3885640Y2075806D02*
Y2106286D01*
X-4091380Y1786246D02*
X-4060900D01*
X-4076140Y1771006D02*
Y1801486D01*
X-4281880Y1786246D02*
X-4251400D01*
X-4266640Y1771006D02*
Y1801486D01*
X-4281880Y1938646D02*
X-4251400D01*
X-4266640Y1923406D02*
Y1953886D01*
X-4281880Y2091046D02*
X-4251400D01*
X-4266640Y2075806D02*
Y2106286D01*
X-4091380Y1938646D02*
X-4060900D01*
X-4076140Y1923406D02*
Y1953886D01*
X-3900880Y1938646D02*
X-3870400D01*
X-3885640Y1923406D02*
Y1953886D01*
X-4091380Y2078346D02*
X-4060900D01*
X-4076140Y2063106D02*
Y2093586D01*
X146520Y2335996D02*
X177000D01*
X161760Y2320756D02*
Y2351236D01*
X146520Y2247096D02*
X177000D01*
X161760Y2231856D02*
Y2262336D01*
X146520Y2158196D02*
X177000D01*
X161760Y2142956D02*
Y2173436D01*
X146520Y2069296D02*
X177000D01*
X161760Y2054056D02*
Y2084536D01*
X146520Y1980396D02*
X177000D01*
X161760Y1965156D02*
Y1995636D01*
X70320Y2297896D02*
X100800D01*
X85560Y2282656D02*
Y2313136D01*
X70320Y2208996D02*
X100800D01*
X85560Y2193756D02*
Y2224236D01*
X70320Y2120096D02*
X100800D01*
X85560Y2104856D02*
Y2135336D01*
X70320Y2031196D02*
X100800D01*
X85560Y2015956D02*
Y2046436D01*
X70320Y1942296D02*
X100800D01*
X85560Y1927056D02*
Y1957536D01*
X-196380Y1446996D02*
X-165900D01*
X-181140Y1431756D02*
Y1462236D01*
X-666280Y1446996D02*
X-635800D01*
X-651040Y1431756D02*
Y1462236D01*
X-5880Y2348696D02*
X24600D01*
X9360Y2333456D02*
Y2363936D01*
X-5880Y2247096D02*
X24600D01*
X9360Y2231856D02*
Y2262336D01*
X-5880Y2158196D02*
X24600D01*
X9360Y2142956D02*
Y2173436D01*
X-4169Y2076736D02*
X26311D01*
X11071Y2061496D02*
Y2091976D01*
X-5880Y1980396D02*
X24600D01*
X9360Y1965156D02*
Y1995636D01*
X-82080Y1942296D02*
X-51600D01*
X-66840Y1927056D02*
Y1957536D01*
X-82080Y2031196D02*
X-51600D01*
X-66840Y2015956D02*
Y2046436D01*
X-82080Y2120096D02*
X-51600D01*
X-66840Y2104856D02*
Y2135336D01*
X-82080Y2208996D02*
X-51600D01*
X-66840Y2193756D02*
Y2224236D01*
X-82080Y2297896D02*
X-51600D01*
X-66840Y2282656D02*
Y2313136D01*
X-158280Y1993096D02*
X-127800D01*
X-143040Y1977856D02*
Y2008336D01*
X-158280Y2081996D02*
X-127800D01*
X-143040Y2066756D02*
Y2097236D01*
X-158280Y2170896D02*
X-127800D01*
X-143040Y2155656D02*
Y2186136D01*
X-158280Y2259796D02*
X-127800D01*
X-143040Y2244556D02*
Y2275036D01*
X-158280Y2348696D02*
X-127800D01*
X-143040Y2333456D02*
Y2363936D01*
X-3155480Y2361396D02*
X-3125000D01*
X-3140240Y2346156D02*
Y2376636D01*
X-3244380Y2361396D02*
X-3213900D01*
X-3229140Y2346156D02*
Y2376636D01*
X-3422180Y2361396D02*
X-3391700D01*
X-3406940Y2346156D02*
Y2376636D01*
X-3511080Y2361396D02*
X-3480600D01*
X-3495840Y2346156D02*
Y2376636D01*
X-3701580Y2361396D02*
X-3671100D01*
X-3686340Y2346156D02*
Y2376636D01*
X-3790480Y2361396D02*
X-3760000D01*
X-3775240Y2346156D02*
Y2376636D01*
X-3980980Y2361396D02*
X-3950500D01*
X-3965740Y2346156D02*
Y2376636D01*
X-4069880Y2361396D02*
X-4039400D01*
X-4054640Y2346156D02*
Y2376636D01*
X-4260380Y2361396D02*
X-4229900D01*
X-4245140Y2346156D02*
Y2376636D01*
X-4349280Y2361396D02*
X-4318800D01*
X-4334040Y2346156D02*
Y2376636D01*
X-4539780Y2361396D02*
X-4509300D01*
X-4524540Y2346156D02*
Y2376636D01*
X-4628680Y2361396D02*
X-4598200D01*
X-4613440Y2346156D02*
Y2376636D01*
X-564680Y2221696D02*
X-534200D01*
X-549440Y2206456D02*
Y2236936D01*
X-564680Y2069296D02*
X-534200D01*
X-549440Y2054056D02*
Y2084536D01*
X-450380Y2069296D02*
X-419900D01*
X-435140Y2054056D02*
Y2084536D01*
X-691680Y2069296D02*
X-661200D01*
X-676440Y2054056D02*
Y2084536D01*
X-450380Y2221696D02*
X-419900D01*
X-435140Y2206456D02*
Y2236936D01*
X-450380Y2348696D02*
X-419900D01*
X-435140Y2333456D02*
Y2363936D01*
X-2621564Y2109468D02*
X-2591084D01*
X-2606324Y2094228D02*
Y2124708D01*
X-2621564Y2198368D02*
X-2591084D01*
X-2606324Y2183128D02*
Y2213608D01*
X-2621564Y2287268D02*
X-2591084D01*
X-2606324Y2272028D02*
Y2302508D01*
X-2621564Y2376168D02*
X-2591084D01*
X-2606324Y2360928D02*
Y2391408D01*
X-2621564Y2465068D02*
X-2591084D01*
X-2606324Y2449828D02*
Y2480308D01*
X-2697764Y2058668D02*
X-2667284D01*
X-2682524Y2043428D02*
Y2073908D01*
X-2697764Y2147568D02*
X-2667284D01*
X-2682524Y2132328D02*
Y2162808D01*
X-2697764Y2236468D02*
X-2667284D01*
X-2682524Y2221228D02*
Y2251708D01*
X-2697764Y2325368D02*
X-2667284D01*
X-2682524Y2310128D02*
Y2340608D01*
X-2697764Y2414268D02*
X-2667284D01*
X-2682524Y2399028D02*
Y2429508D01*
X-2773964Y2096768D02*
X-2743484D01*
X-2758724Y2081528D02*
Y2112008D01*
X-2773964Y2185668D02*
X-2743484D01*
X-2758724Y2170428D02*
Y2200908D01*
X-2773964Y2274568D02*
X-2743484D01*
X-2758724Y2259328D02*
Y2289808D01*
X-2773964Y2363468D02*
X-2743484D01*
X-2758724Y2348228D02*
Y2378708D01*
X-2773964Y2452368D02*
X-2743484D01*
X-2758724Y2437128D02*
Y2467608D01*
X-2850164Y2414268D02*
X-2819684D01*
X-2834924Y2399028D02*
Y2429508D01*
X-2850164Y2325368D02*
X-2819684D01*
X-2834924Y2310128D02*
Y2340608D01*
X-2850164Y2236468D02*
X-2819684D01*
X-2834924Y2221228D02*
Y2251708D01*
X-2850164Y2147568D02*
X-2819684D01*
X-2834924Y2132328D02*
Y2162808D01*
X-2850164Y2058668D02*
X-2819684D01*
X-2834924Y2043428D02*
Y2073908D01*
X-2926364Y2109468D02*
X-2895884D01*
X-2911124Y2094228D02*
Y2124708D01*
X-2926364Y2198368D02*
X-2895884D01*
X-2911124Y2183128D02*
Y2213608D01*
X-2926364Y2287268D02*
X-2895884D01*
X-2911124Y2272028D02*
Y2302508D01*
X-2926364Y2376168D02*
X-2895884D01*
X-2911124Y2360928D02*
Y2391408D01*
X-2926364Y2465068D02*
X-2895884D01*
X-2911124Y2449828D02*
Y2480308D01*
X-1879724Y276168D02*
X-1859724D01*
X-1869724Y266168D02*
Y286168D01*
X-1879724Y164168D02*
X-1859724D01*
X-1869724Y154168D02*
Y174168D01*
X-1879724Y412168D02*
X-1859724D01*
X-1869724Y402168D02*
Y422168D01*
X-1879724Y524168D02*
X-1859724D01*
X-1869724Y514168D02*
Y534168D01*
X-1959724Y276168D02*
X-1939724D01*
X-1949724Y266168D02*
Y286168D01*
X-1799724Y276168D02*
X-1779724D01*
X-1789724Y266168D02*
Y286168D01*
X-1799724Y412168D02*
X-1779724D01*
X-1789724Y402168D02*
Y422168D01*
X-1959724Y412168D02*
X-1939724D01*
X-1949724Y402168D02*
Y422168D01*
%TF.MD5,cb8f4b68a26e4aa1fbeacd78138ff1b6*%
M02*
