%TF.GenerationSoftware,Altium Limited,Altium Designer,23.0.1 (38)*%
G04 Layer_Physical_Order=1*
G04 Layer_Color=255*
%FSLAX45Y45*%
%MOMM*%
%TF.SameCoordinates,101474F7-9C50-4871-B5BA-03F38F38C57F*%
%TF.FilePolarity,Positive*%
%TF.FileFunction,Copper,L1,Top,Signal*%
%TF.Part,Single*%
G01*
G75*
%TA.AperFunction,SMDPad,CuDef*%
%ADD10C,1.00000*%
%AMCUSTOMSHAPE11*
4,1,6,-2.15000,-0.58750,-1.56250,-1.17500,2.15000,-1.17500,2.15000,1.17500,-1.56250,1.17500,-2.15000,0.58750,-2.15000,-0.58750,0.0*%
%ADD11CUSTOMSHAPE11*%

%AMCUSTOMSHAPE12*
4,1,6,-2.15000,-1.17500,1.56250,-1.17500,2.15000,-0.58750,2.15000,0.58750,1.56250,1.17500,-2.15000,1.17500,-2.15000,-1.17500,0.0*%
%ADD12CUSTOMSHAPE12*%

%AMCUSTOMSHAPE13*
4,1,6,2.15000,0.58750,1.56250,1.17500,-2.15000,1.17500,-2.15000,-1.17500,1.56250,-1.17500,2.15000,-0.58750,2.15000,0.58750,0.0*%
%ADD13CUSTOMSHAPE13*%

%AMCUSTOMSHAPE14*
4,1,6,2.15000,1.17500,-1.56250,1.17500,-2.15000,0.58750,-2.15000,-0.58750,-1.56250,-1.17500,2.15000,-1.17500,2.15000,1.17500,0.0*%
%ADD14CUSTOMSHAPE14*%

%AMCUSTOMSHAPE15*
4,1,6,0.19950,0.31000,0.28500,0.22450,0.28500,-0.22450,0.19950,-0.31000,-0.28500,-0.31000,-0.28500,0.31000,0.19950,0.31000,0.0*%
%ADD15CUSTOMSHAPE15*%

%AMCUSTOMSHAPE16*
4,1,6,0.28500,0.31000,-0.19950,0.31000,-0.28500,0.22450,-0.28500,-0.22450,-0.19950,-0.31000,0.28500,-0.31000,0.28500,0.31000,0.0*%
%ADD16CUSTOMSHAPE16*%

%AMCUSTOMSHAPE17*
4,1,6,0.72500,-0.50000,0.72500,0.30000,0.52500,0.50000,-0.52500,0.50000,-0.72500,0.30000,-0.72500,-0.50000,0.72500,-0.50000,0.0*%
%ADD17CUSTOMSHAPE17*%

%AMCUSTOMSHAPE18*
4,1,6,0.72500,-0.30000,0.52500,-0.50000,-0.52500,-0.50000,-0.72500,-0.30000,-0.72500,0.50000,0.72500,0.50000,0.72500,-0.30000,0.0*%
%ADD18CUSTOMSHAPE18*%

%AMCUSTOMSHAPE19*
4,1,6,0.72500,-0.50000,-0.72500,-0.50000,-0.72500,0.30620,-0.53120,0.50000,0.53120,0.50000,0.72500,0.30620,0.72500,-0.50000,0.0*%
%ADD19CUSTOMSHAPE19*%

%AMCUSTOMSHAPE20*
4,1,6,0.53120,-0.50000,-0.53120,-0.50000,-0.72500,-0.30620,-0.72500,0.50000,0.72500,0.50000,0.72500,-0.30620,0.53120,-0.50000,0.0*%
%ADD20CUSTOMSHAPE20*%

%AMCUSTOMSHAPE21*
4,1,6,0.47500,0.50000,0.47500,-0.50000,-0.32560,-0.50000,-0.47500,-0.35060,-0.47500,0.35060,-0.32560,0.50000,0.47500,0.50000,0.0*%
%ADD21CUSTOMSHAPE21*%

%AMCUSTOMSHAPE22*
4,1,6,0.47500,0.35060,0.47500,-0.35060,0.32560,-0.50000,-0.47500,-0.50000,-0.47500,0.50000,0.32560,0.50000,0.47500,0.35060,0.0*%
%ADD22CUSTOMSHAPE22*%

%AMCUSTOMSHAPE23*
4,1,6,-0.50000,0.47500,0.50000,0.47500,0.50000,-0.32560,0.35060,-0.47500,-0.35060,-0.47500,-0.50000,-0.32560,-0.50000,0.47500,0.0*%
%ADD23CUSTOMSHAPE23*%

%AMCUSTOMSHAPE24*
4,1,6,-0.35060,0.47500,0.35060,0.47500,0.50000,0.32560,0.50000,-0.47500,-0.50000,-0.47500,-0.50000,0.32560,-0.35060,0.47500,0.0*%
%ADD24CUSTOMSHAPE24*%

%ADD25R,2.20000X2.30000*%
%ADD26R,0.60000X1.40000*%
%ADD27R,0.60000X1.50000*%
%ADD28R,2.80500X0.56500*%
%ADD29R,4.41000X3.54500*%
%AMCUSTOMSHAPE30*
4,1,6,0.75000,1.20000,-0.56250,1.20000,-0.75000,1.01250,-0.75000,-1.01250,-0.56250,-1.20000,0.75000,-1.20000,0.75000,1.20000,0.0*%
%ADD30CUSTOMSHAPE30*%

%AMCUSTOMSHAPE31*
4,1,6,0.75000,1.01250,0.56250,1.20000,-0.75000,1.20000,-0.75000,-1.20000,0.56250,-1.20000,0.75000,-1.01250,0.75000,1.01250,0.0*%
%ADD31CUSTOMSHAPE31*%

%AMCUSTOMSHAPE32*
4,1,6,-0.75000,-1.20000,0.56250,-1.20000,0.75000,-1.01250,0.75000,1.01250,0.56250,1.20000,-0.75000,1.20000,-0.75000,-1.20000,0.0*%
%ADD32CUSTOMSHAPE32*%

%AMCUSTOMSHAPE33*
4,1,6,-0.75000,-1.01250,-0.56250,-1.20000,0.75000,-1.20000,0.75000,1.20000,-0.56250,1.20000,-0.75000,1.01250,-0.75000,-1.01250,0.0*%
%ADD33CUSTOMSHAPE33*%

%ADD34R,1.65000X3.42000*%
%AMCUSTOMSHAPE35*
4,1,6,0.90000,-0.57500,-0.90000,-0.57500,-0.90000,0.31700,-0.64200,0.57500,0.64201,0.57500,0.90000,0.31700,0.90000,-0.57500,0.0*%
%ADD35CUSTOMSHAPE35*%

%AMCUSTOMSHAPE36*
4,1,6,0.64200,-0.57501,-0.64200,-0.57500,-0.90000,-0.31700,-0.90000,0.57500,0.90000,0.57500,0.90000,-0.31700,0.64200,-0.57501,0.0*%
%ADD36CUSTOMSHAPE36*%

%AMCUSTOMSHAPE37*
4,1,6,0.50000,-0.47500,-0.50000,-0.47500,-0.50000,0.32560,-0.35060,0.47500,0.35060,0.47500,0.50000,0.32560,0.50000,-0.47500,0.0*%
%ADD37CUSTOMSHAPE37*%

%AMCUSTOMSHAPE38*
4,1,6,0.35060,-0.47500,-0.35060,-0.47500,-0.50000,-0.32560,-0.50000,0.47500,0.50000,0.47500,0.50000,-0.32560,0.35060,-0.47500,0.0*%
%ADD38CUSTOMSHAPE38*%

%AMCUSTOMSHAPE39*
4,1,6,-0.47500,-0.50000,-0.47500,0.50000,0.32560,0.50000,0.47500,0.35060,0.47500,-0.35060,0.32560,-0.50000,-0.47500,-0.50000,0.0*%
%ADD39CUSTOMSHAPE39*%

%AMCUSTOMSHAPE40*
4,1,6,-0.47500,-0.35060,-0.47500,0.35060,-0.32560,0.50000,0.47500,0.50000,0.47500,-0.50000,-0.32560,-0.50000,-0.47500,-0.35060,0.0*%
%ADD40CUSTOMSHAPE40*%

%AMCUSTOMSHAPE41*
4,1,6,-0.90000,0.57500,0.90000,0.57500,0.90000,-0.31700,0.64200,-0.57500,-0.64201,-0.57500,-0.90000,-0.31700,-0.90000,0.57500,0.0*%
%ADD41CUSTOMSHAPE41*%

%AMCUSTOMSHAPE42*
4,1,6,-0.64200,0.57501,0.64200,0.57500,0.90000,0.31700,0.90000,-0.57500,-0.90000,-0.57500,-0.90000,0.31700,-0.64200,0.57501,0.0*%
%ADD42CUSTOMSHAPE42*%

G04:AMPARAMS|DCode=43|XSize=0.41mm|YSize=0.82mm|CornerRadius=0mm|HoleSize=0mm|Usage=FLASHONLY|Rotation=270.000|XOffset=0mm|YOffset=0mm|HoleType=Round|Shape=RoundedRectangle|*
%AMROUNDEDRECTD43*
21,1,0.41000,0.82000,0,0,270.0*
21,1,0.41000,0.82000,0,0,270.0*
1,1,0.00000,-0.41000,-0.20500*
1,1,0.00000,-0.41000,0.20500*
1,1,0.00000,0.41000,0.20500*
1,1,0.00000,0.41000,-0.20500*
%
%ADD43ROUNDEDRECTD43*%
G04:AMPARAMS|DCode=44|XSize=0.595mm|YSize=0.61mm|CornerRadius=0mm|HoleSize=0mm|Usage=FLASHONLY|Rotation=270.000|XOffset=0mm|YOffset=0mm|HoleType=Round|Shape=RoundedRectangle|*
%AMROUNDEDRECTD44*
21,1,0.59500,0.61000,0,0,270.0*
21,1,0.59500,0.61000,0,0,270.0*
1,1,0.00000,-0.30500,-0.29750*
1,1,0.00000,-0.30500,0.29750*
1,1,0.00000,0.30500,0.29750*
1,1,0.00000,0.30500,-0.29750*
%
%ADD44ROUNDEDRECTD44*%
G04:AMPARAMS|DCode=45|XSize=4.061mm|YSize=3.63mm|CornerRadius=0mm|HoleSize=0mm|Usage=FLASHONLY|Rotation=270.000|XOffset=0mm|YOffset=0mm|HoleType=Round|Shape=RoundedRectangle|*
%AMROUNDEDRECTD45*
21,1,4.06100,3.63000,0,0,270.0*
21,1,4.06100,3.63000,0,0,270.0*
1,1,0.00000,-1.81500,-2.03050*
1,1,0.00000,-1.81500,2.03050*
1,1,0.00000,1.81500,2.03050*
1,1,0.00000,1.81500,-2.03050*
%
%ADD45ROUNDEDRECTD45*%
G04:AMPARAMS|DCode=46|XSize=5mm|YSize=0.51mm|CornerRadius=0.0255mm|HoleSize=0mm|Usage=FLASHONLY|Rotation=270.000|XOffset=0mm|YOffset=0mm|HoleType=Round|Shape=RoundedRectangle|*
%AMROUNDEDRECTD46*
21,1,5.00000,0.45900,0,0,270.0*
21,1,4.94900,0.51000,0,0,270.0*
1,1,0.05100,-0.22950,-2.47450*
1,1,0.05100,-0.22950,2.47450*
1,1,0.05100,0.22950,2.47450*
1,1,0.05100,0.22950,-2.47450*
%
%ADD46ROUNDEDRECTD46*%
%ADD47R,2.20980X4.19100*%
%ADD48R,0.25400X0.71120*%
%ADD49R,0.71120X0.25400*%
%ADD50R,2.50000X5.40000*%
%AMCUSTOMSHAPE51*
4,1,6,0.31000,-0.28500,0.31000,0.14250,0.16750,0.28500,-0.16750,0.28500,-0.31000,0.14250,-0.31000,-0.28500,0.31000,-0.28500,0.0*%
%ADD51CUSTOMSHAPE51*%

%AMCUSTOMSHAPE52*
4,1,6,0.31000,-0.14250,0.16750,-0.28500,-0.16750,-0.28500,-0.31000,-0.14250,-0.31000,0.28500,0.31000,0.28500,0.31000,-0.14250,0.0*%
%ADD52CUSTOMSHAPE52*%

%ADD53R,0.91000X1.22000*%
%TA.AperFunction,ConnectorPad*%
%AMCUSTOMSHAPE54*
4,1,6,0.64200,-0.57501,-0.64200,-0.57500,-0.90000,-0.31700,-0.90000,0.57500,0.90000,0.57500,0.90000,-0.31700,0.64200,-0.57501,0.0*%
%ADD54CUSTOMSHAPE54*%

%AMCUSTOMSHAPE55*
4,1,6,0.90000,-0.57500,-0.90000,-0.57500,-0.90000,0.31700,-0.64200,0.57500,0.64201,0.57500,0.90000,0.31700,0.90000,-0.57500,0.0*%
%ADD55CUSTOMSHAPE55*%

%TA.AperFunction,SMDPad,CuDef*%
%ADD56R,3.50000X5.40000*%
%ADD57R,0.70000X0.90000*%
%TA.AperFunction,ConnectorPad*%
%AMCUSTOMSHAPE58*
4,1,6,-0.64200,0.57501,0.64200,0.57500,0.90000,0.31700,0.90000,-0.57500,-0.90000,-0.57500,-0.90000,0.31700,-0.64200,0.57501,0.0*%
%ADD58CUSTOMSHAPE58*%

%AMCUSTOMSHAPE59*
4,1,6,-0.90000,0.57500,0.90000,0.57500,0.90000,-0.31700,0.64200,-0.57500,-0.64201,-0.57500,-0.90000,-0.31700,-0.90000,0.57500,0.0*%
%ADD59CUSTOMSHAPE59*%

%TA.AperFunction,Conductor*%
%ADD60C,0.38100*%
%ADD61C,0.20320*%
%ADD62C,0.25400*%
%TA.AperFunction,ComponentPad*%
%ADD63C,1.90000*%
%ADD64C,5.00000*%
%TA.AperFunction,ViaPad*%
%ADD65C,0.60960*%
%ADD66C,0.40000*%
G36*
X-1939098Y2955098D02*
X-1940153Y2953521D01*
X-1944095Y2933700D01*
Y2108200D01*
X-1940153Y2088379D01*
X-1928925Y2071575D01*
X-1917700Y2060350D01*
Y1244600D01*
X-1866900Y1193800D01*
X-1653824Y980724D01*
Y865349D01*
X-1657949Y862593D01*
X-1669177Y845789D01*
X-1673119Y825968D01*
Y725968D01*
X-1669893Y709747D01*
X-1680764Y698875D01*
X-1691465Y680341D01*
X-1697004Y659669D01*
Y652496D01*
X-1716775Y632725D01*
X-1780824D01*
Y604518D01*
X-1841500D01*
Y977900D01*
X-2247900Y1384300D01*
X-2552700D01*
X-2753008Y1584608D01*
X-2757075Y1590695D01*
X-2765625Y1599245D01*
X-2771711Y1603311D01*
X-2933700Y1765300D01*
X-4360710D01*
X-4377203Y1776321D01*
X-4397024Y1780263D01*
X-4904463D01*
X-4953000Y1828800D01*
Y2222500D01*
X-5080000Y2349500D01*
X-5613400Y2349500D01*
X-5676900Y2413000D01*
X-5676900Y2710292D01*
X-5617324Y2769868D01*
X-5616056Y2768600D01*
X-4267200D01*
X-4216400Y2717800D01*
Y2578100D01*
X-4191000Y2552700D01*
X-4158225D01*
X-4152900Y2551641D01*
X-4052900D01*
X-4047575Y2552700D01*
X-4005825D01*
X-4000500Y2551641D01*
X-3900500D01*
X-3895175Y2552700D01*
X-3853425D01*
X-3848100Y2551641D01*
X-3748100D01*
X-3742775Y2552700D01*
X-3695945D01*
X-3690620Y2551641D01*
X-3590620D01*
X-3585295Y2552700D01*
X-3543545D01*
X-3538220Y2551641D01*
X-3438220D01*
X-3432895Y2552700D01*
X-3263900D01*
X-3238500Y2578100D01*
Y2594987D01*
X-3236565Y2604716D01*
Y2684776D01*
X-3238500Y2694505D01*
Y2717153D01*
X-3236960Y2718693D01*
X-3236076Y2720224D01*
X-3175804Y2780496D01*
X-2769404D01*
X-2641600Y2908300D01*
X-2438400D01*
X-2374900Y2971800D01*
X-1955800D01*
X-1939098Y2955098D01*
D02*
G37*
G36*
X275920Y2424099D02*
X279085Y924245D01*
X230336Y875496D01*
X75396D01*
X38100Y838200D01*
Y457200D01*
X0Y419100D01*
X-215900D01*
X-254000Y457200D01*
Y825500D01*
X-303996Y875496D01*
X-727240D01*
X-765341Y913597D01*
X-765340Y2456645D01*
X-720889Y2501096D01*
X-35643Y2501096D01*
X-23674Y2499200D01*
X23674D01*
X35643Y2501096D01*
X198924D01*
X275920Y2424099D01*
D02*
G37*
G36*
X32220Y3115079D02*
Y3115079D01*
X44621Y3114358D01*
X74269Y3112025D01*
X115283Y3102178D01*
X154252Y3086037D01*
X190216Y3063998D01*
X222289Y3036605D01*
X249683Y3004532D01*
X271721Y2968568D01*
X287863Y2929599D01*
X297709Y2888585D01*
X300042Y2858937D01*
X300763Y2846536D01*
X300928Y2845707D01*
X300953Y2833840D01*
X301682Y2488187D01*
X289954Y2483315D01*
X235549Y2537720D01*
X218746Y2548948D01*
X198925Y2552891D01*
X147118D01*
X146284Y2556362D01*
X145902Y2565591D01*
X179411Y2589937D01*
X210063Y2620589D01*
X235543Y2655659D01*
X255223Y2694283D01*
X268619Y2735510D01*
X275400Y2778325D01*
Y2821675D01*
X268619Y2864490D01*
X255223Y2905717D01*
X235543Y2944341D01*
X210063Y2979411D01*
X179411Y3010063D01*
X144341Y3035543D01*
X105717Y3055223D01*
X64490Y3068619D01*
X21675Y3075400D01*
X-21675D01*
X-64490Y3068619D01*
X-105717Y3055223D01*
X-144341Y3035543D01*
X-179411Y3010063D01*
X-210063Y2979411D01*
X-235543Y2944341D01*
X-255223Y2905717D01*
X-268619Y2864490D01*
X-275400Y2821675D01*
Y2778325D01*
X-268619Y2735510D01*
X-255223Y2694283D01*
X-235543Y2655659D01*
X-210063Y2620589D01*
X-179411Y2589937D01*
X-145902Y2565591D01*
X-146284Y2556363D01*
X-147118Y2552891D01*
X-720889Y2552891D01*
X-740710Y2548948D01*
X-748305Y2543874D01*
X-761005Y2550662D01*
Y2609879D01*
X-761073Y2610223D01*
X-758504Y2622923D01*
X-737967Y2631430D01*
X-734666Y2634731D01*
X-663400D01*
Y2610900D01*
X-542600D01*
Y2751700D01*
X-663400D01*
Y2725372D01*
X-724299D01*
Y2894319D01*
X-724299Y2894320D01*
X-727749Y2911663D01*
X-737573Y2926367D01*
X-737574Y2926367D01*
X-761002Y2949795D01*
Y2994160D01*
X-762974Y3004070D01*
X-768587Y3012472D01*
X-783528Y3027412D01*
X-791929Y3033026D01*
X-801840Y3034998D01*
X-813206D01*
X-817057Y3037571D01*
X-834400Y3041021D01*
X-851743Y3037571D01*
X-855594Y3034998D01*
X-881900D01*
X-891811Y3033026D01*
X-900212Y3027413D01*
X-905826Y3019011D01*
X-907798Y3009100D01*
Y2920519D01*
X-924505D01*
X-933154Y2930683D01*
Y2940051D01*
X-994400D01*
X-1055647D01*
Y2934933D01*
X-1061877Y2923628D01*
X-1067380Y2923263D01*
X-1326014D01*
X-1411175Y3008425D01*
X-1427979Y3019653D01*
X-1447800Y3023595D01*
X-1854200D01*
X-1874021Y3019653D01*
X-1890825Y3008425D01*
X-1905000Y2994250D01*
X-1919175Y3008425D01*
X-1935979Y3019653D01*
X-1955800Y3023595D01*
X-2374900D01*
X-2394721Y3019653D01*
X-2411525Y3008425D01*
X-2459854Y2960095D01*
X-2641600D01*
X-2661421Y2956153D01*
X-2678225Y2944925D01*
X-2790859Y2832291D01*
X-3175804D01*
X-3195626Y2828348D01*
X-3212429Y2817121D01*
X-3272700Y2756849D01*
X-3274004Y2754899D01*
X-3275125Y2753778D01*
X-3278027Y2749435D01*
X-3280931Y2746123D01*
X-3281815Y2744591D01*
X-3282386Y2742911D01*
X-3286353Y2736974D01*
X-3290295Y2717153D01*
Y2694505D01*
X-3289300Y2689502D01*
Y2684401D01*
X-3288360Y2679675D01*
Y2609817D01*
X-3289300Y2605091D01*
Y2604495D01*
X-3432895D01*
X-3437898Y2603500D01*
X-3443000D01*
X-3443322Y2603436D01*
X-3533119D01*
X-3533440Y2603500D01*
X-3538542D01*
X-3543545Y2604495D01*
X-3585295D01*
X-3590298Y2603500D01*
X-3595400D01*
X-3595722Y2603436D01*
X-3685519D01*
X-3685840Y2603500D01*
X-3690942D01*
X-3695945Y2604495D01*
X-3742775D01*
X-3747778Y2603500D01*
X-3752880D01*
X-3753202Y2603436D01*
X-3842999D01*
X-3843320Y2603500D01*
X-3848422D01*
X-3853425Y2604495D01*
X-3895175D01*
X-3900178Y2603500D01*
X-3905280D01*
X-3905602Y2603436D01*
X-3995399D01*
X-3995720Y2603500D01*
X-4000822D01*
X-4005825Y2604495D01*
X-4047575D01*
X-4052578Y2603500D01*
X-4057680D01*
X-4058002Y2603436D01*
X-4147799D01*
X-4148120Y2603500D01*
X-4153222D01*
X-4158225Y2604495D01*
X-4164605D01*
Y2717800D01*
X-4168547Y2737621D01*
X-4179775Y2754425D01*
X-4230575Y2805225D01*
X-4247379Y2816453D01*
X-4267200Y2820395D01*
X-5610949D01*
X-5617324Y2821663D01*
X-5637145Y2817721D01*
X-5653949Y2806493D01*
X-5713525Y2746917D01*
X-5724753Y2730113D01*
X-5728695Y2710292D01*
X-5728695Y2413001D01*
X-5728696Y2413000D01*
X-5724753Y2393179D01*
X-5713525Y2376375D01*
X-5650025Y2312875D01*
X-5633221Y2301647D01*
X-5613400Y2297705D01*
X-5101454Y2297705D01*
X-5004795Y2201046D01*
Y1828800D01*
X-5000853Y1808979D01*
X-4989625Y1792175D01*
X-4963548Y1766099D01*
X-4968409Y1754366D01*
X-5006624D01*
X-5016535Y1752394D01*
X-5024937Y1746780D01*
X-5030551Y1738379D01*
X-5032522Y1728468D01*
Y1169668D01*
X-5030551Y1159757D01*
X-5024937Y1151356D01*
X-5016535Y1145742D01*
X-5006624Y1143770D01*
X-4407751D01*
X-4346722Y1082741D01*
Y886166D01*
X-4423053D01*
X-4423054Y886167D01*
X-4440398Y882717D01*
X-4455101Y872892D01*
X-4542416Y785578D01*
X-4606720D01*
X-4616631Y783607D01*
X-4625032Y777993D01*
X-4645032Y757993D01*
X-4650646Y749591D01*
X-4652618Y739680D01*
Y659680D01*
X-4650646Y649769D01*
X-4645032Y641368D01*
X-4636631Y635754D01*
X-4626720Y633782D01*
X-4481720D01*
X-4471809Y635754D01*
X-4463408Y641368D01*
X-4457794Y649769D01*
X-4455822Y659680D01*
Y739680D01*
X-4456536Y743270D01*
X-4404282Y795525D01*
X-4313391D01*
X-4305335Y790142D01*
X-4295424Y788170D01*
X-3925476D01*
X-3920616Y776437D01*
X-3925867Y771187D01*
X-3935691Y756484D01*
X-3939141Y739140D01*
Y732696D01*
X-3944940D01*
Y531896D01*
X-3834140D01*
Y716679D01*
X-3233740D01*
Y536596D01*
X-3122940D01*
Y591675D01*
X-3026770D01*
X-3009426Y595125D01*
X-2994723Y604949D01*
X-2914183Y685490D01*
X-2893503D01*
X-2892230Y684085D01*
X-2887402Y673630D01*
X-2892435Y668597D01*
X-2902362Y651403D01*
X-2907500Y632227D01*
Y612373D01*
X-2902362Y593197D01*
X-2892435Y576003D01*
X-2878397Y561965D01*
X-2861203Y552038D01*
X-2842027Y546900D01*
X-2822173D01*
X-2802997Y552038D01*
X-2785803Y561965D01*
X-2779115Y568653D01*
X-2768579D01*
X-2762153Y562227D01*
X-2741615Y553720D01*
X-2719385D01*
X-2698847Y562227D01*
X-2683127Y577947D01*
X-2674620Y598485D01*
Y620715D01*
X-2683127Y641253D01*
X-2698847Y656973D01*
X-2719385Y665480D01*
X-2741615D01*
X-2756548Y659295D01*
X-2766394D01*
X-2771765Y668597D01*
X-2785323Y682154D01*
X-2785133Y695058D01*
X-2778566Y701625D01*
X-2772952Y710027D01*
X-2772216Y713728D01*
X-2538325D01*
X-2533065Y701028D01*
X-2540345Y693748D01*
X-2544371Y684028D01*
X-2544371Y684027D01*
Y668017D01*
X-2483124D01*
X-2421878D01*
Y698968D01*
X-2422238Y699837D01*
X-2415375Y710265D01*
X-2403928Y710451D01*
X-2396189Y700642D01*
X-2396522Y698968D01*
Y598968D01*
X-2394550Y589057D01*
X-2388937Y580655D01*
X-2388562Y580405D01*
Y565131D01*
X-2388937Y564881D01*
X-2394550Y556479D01*
X-2396522Y546568D01*
Y446568D01*
X-2394550Y436657D01*
X-2390073Y429957D01*
X-2392010Y422972D01*
X-2395335Y417257D01*
X-2628899D01*
X-2628900Y417257D01*
X-2642775Y414497D01*
X-2654537Y406637D01*
X-2654538Y406637D01*
X-2705337Y355837D01*
X-2713197Y344075D01*
X-2715957Y330200D01*
X-2715957Y330199D01*
Y38101D01*
X-2715957Y38100D01*
X-2713197Y24225D01*
X-2705337Y12463D01*
X-2655805Y-37070D01*
X-2654300Y-38075D01*
Y-38100D01*
X-2623820Y-68580D01*
X-2557861D01*
X-2546696Y-79745D01*
X-2538295Y-85359D01*
X-2528384Y-87330D01*
X-2448324Y-87330D01*
X-2438414Y-85358D01*
X-2430012Y-79745D01*
X-2424398Y-71343D01*
X-2423848Y-68580D01*
X-2407800D01*
X-2407250Y-71343D01*
X-2401637Y-79745D01*
X-2393235Y-85358D01*
X-2383324Y-87330D01*
X-2303264D01*
X-2293354Y-85358D01*
X-2284952Y-79745D01*
X-2273787Y-68580D01*
X-2253552D01*
X-2249561Y-72571D01*
X-2232368Y-82498D01*
X-2213191Y-87636D01*
X-2193338D01*
X-2174161Y-82498D01*
X-2156968Y-72571D01*
X-2152976Y-68580D01*
X-2071685D01*
X-2051147Y-60073D01*
X-2035427Y-44353D01*
X-2026920Y-23815D01*
Y-1585D01*
X-2035427Y18953D01*
X-2051147Y34673D01*
X-2071685Y43180D01*
X-2093915D01*
Y181036D01*
X-1984024D01*
Y231049D01*
Y357262D01*
X-2090623D01*
X-2101748Y368387D01*
X-2099808Y381087D01*
X-1984024D01*
Y431099D01*
Y545325D01*
X-1982824Y557528D01*
X-1906624D01*
Y585627D01*
X-1903142Y588924D01*
X-1889353Y584697D01*
X-1878125Y567893D01*
X-1861321Y556665D01*
X-1858224Y556049D01*
Y532128D01*
X-1755424D01*
Y531125D01*
X-1649835D01*
X-1642780Y520565D01*
X-1643380Y519115D01*
Y507299D01*
X-1755424D01*
Y381087D01*
X-1644356D01*
X-1633037Y369768D01*
X-1636025Y359089D01*
X-1637124Y357262D01*
X-1755424D01*
Y231049D01*
Y131024D01*
X-1659103D01*
X-1646901Y118822D01*
Y-7611D01*
X-1646901Y-7612D01*
X-1644141Y-21487D01*
X-1636282Y-33250D01*
X-1489722Y-179809D01*
Y-236992D01*
X-1487751Y-246902D01*
X-1482137Y-255304D01*
X-1467197Y-270244D01*
X-1458795Y-275858D01*
X-1448884Y-277830D01*
X-1368824D01*
X-1358914Y-275858D01*
X-1350512Y-270245D01*
X-1344898Y-261843D01*
X-1342927Y-251932D01*
Y-151932D01*
X-1344898Y-142021D01*
X-1350512Y-133619D01*
X-1350887Y-133369D01*
Y-118095D01*
X-1350512Y-117845D01*
X-1344898Y-109443D01*
X-1342927Y-99532D01*
Y468D01*
X-1344898Y10379D01*
X-1350512Y18781D01*
X-1350887Y19031D01*
Y34305D01*
X-1350512Y34555D01*
X-1344898Y42957D01*
X-1343338Y50800D01*
X-1329311D01*
X-1327750Y42957D01*
X-1322137Y34555D01*
X-1313735Y28942D01*
X-1303824Y26970D01*
X-1223764D01*
X-1213854Y28942D01*
X-1205452Y34555D01*
X-1191770Y48237D01*
X-1187860Y49496D01*
X-1181387D01*
X-1176078Y48237D01*
X-1162397Y34556D01*
X-1153995Y28942D01*
X-1144084Y26970D01*
X-1064024D01*
X-1054114Y28942D01*
X-1045712Y34555D01*
X-1040098Y42957D01*
X-1038127Y52868D01*
Y152868D01*
X-1040098Y162779D01*
X-1045712Y171181D01*
X-1054114Y176794D01*
X-1064024Y178766D01*
X-1144084D01*
X-1153995Y176794D01*
X-1162396Y171181D01*
X-1176078Y157499D01*
X-1181383Y156240D01*
X-1186465D01*
X-1191770Y157499D01*
X-1204712Y170441D01*
X-1205268Y172895D01*
X-1203926Y185436D01*
X-1201652Y186955D01*
X-1186711Y201896D01*
X-1181097Y210298D01*
X-1179126Y220208D01*
Y290328D01*
X-1181097Y300238D01*
X-1186711Y308640D01*
X-1201652Y323581D01*
X-1210054Y329195D01*
X-1219964Y331166D01*
X-1238279D01*
X-1251034Y343921D01*
X-1245773Y356621D01*
X-1224574D01*
Y401318D01*
X-1266771D01*
Y377618D01*
X-1279471Y372358D01*
X-1292127Y385014D01*
Y470368D01*
X-1294098Y480279D01*
X-1299712Y488681D01*
X-1300087Y488931D01*
Y504205D01*
X-1299712Y504455D01*
X-1294098Y512857D01*
X-1292127Y522768D01*
Y622768D01*
X-1294098Y632679D01*
X-1299712Y641081D01*
X-1308114Y646694D01*
X-1318024Y648666D01*
X-1398084D01*
X-1407995Y646694D01*
X-1416396Y641081D01*
X-1431337Y626140D01*
X-1436717Y618089D01*
X-1451257D01*
X-1465003Y631835D01*
X-1482197Y641762D01*
X-1501373Y646900D01*
X-1521227D01*
X-1540403Y641762D01*
X-1547144Y637870D01*
X-1559844Y645202D01*
Y660083D01*
X-1568351Y680621D01*
X-1584071Y696341D01*
X-1604609Y704848D01*
X-1614077D01*
X-1618098Y709747D01*
X-1619093Y714750D01*
Y719851D01*
X-1621324Y731069D01*
Y820867D01*
X-1620387Y825580D01*
X-1619162Y827413D01*
X-1617199Y828724D01*
X-1614365Y832965D01*
X-1610758Y836573D01*
X-1608806Y841286D01*
X-1605971Y845528D01*
X-1604976Y850531D01*
X-1603024Y855244D01*
Y860346D01*
X-1602029Y865349D01*
Y980724D01*
X-1605971Y1000545D01*
X-1616731Y1016647D01*
X-1615540Y1022260D01*
X-1612604Y1029347D01*
X-1187960D01*
X-1178825Y1015675D01*
X-1162022Y1004448D01*
X-1161742Y1003773D01*
X-1166126Y997211D01*
X-1168098Y987300D01*
Y907240D01*
X-1166126Y897330D01*
X-1160513Y888928D01*
X-1145572Y873987D01*
X-1141870Y871514D01*
X-1143981Y860903D01*
X-1143981Y860901D01*
Y842100D01*
X-1154021Y836303D01*
X-1154922Y835402D01*
X-1172028Y836256D01*
X-1180052Y844280D01*
X-1188454Y849894D01*
X-1198364Y851866D01*
X-1278424D01*
X-1288335Y849894D01*
X-1296737Y844281D01*
X-1302350Y835879D01*
X-1304322Y825968D01*
Y725968D01*
X-1302350Y716057D01*
X-1296737Y707655D01*
X-1288335Y702042D01*
X-1278424Y700070D01*
X-1198364D01*
X-1188454Y702042D01*
X-1180052Y707655D01*
X-1171326Y716381D01*
X-1154922Y716534D01*
X-1154021Y715633D01*
X-1136828Y705706D01*
X-1117651Y700568D01*
X-1097798D01*
X-1078621Y705706D01*
X-1061428Y715633D01*
X-1047389Y729671D01*
X-1041959Y739077D01*
X-1021304D01*
X-1009553Y727327D01*
X-989015Y718820D01*
X-966785D01*
X-946247Y727327D01*
X-930527Y743047D01*
X-922020Y763585D01*
Y785815D01*
X-930527Y806353D01*
X-946247Y822073D01*
X-966785Y830580D01*
X-989015D01*
X-1009553Y822073D01*
X-1020036Y811591D01*
X-1041227D01*
X-1047389Y822265D01*
X-1061428Y836303D01*
X-1062480Y836911D01*
X-1065212Y846197D01*
X-1065047Y853057D01*
X-1058703Y862552D01*
X-1057937Y866402D01*
X-1057140D01*
X-1047230Y868373D01*
X-1038828Y873987D01*
X-1023887Y888928D01*
X-1018273Y897330D01*
X-1016302Y907240D01*
X-1016302Y987300D01*
X-1018274Y997211D01*
X-1022658Y1003773D01*
X-1022378Y1004448D01*
X-1005575Y1015675D01*
X-994347Y1032479D01*
X-990405Y1052300D01*
Y1132360D01*
X-994347Y1152181D01*
X-1005575Y1168985D01*
X-1020515Y1183925D01*
X-1037319Y1195153D01*
X-1057140Y1199095D01*
X-1127260D01*
X-1147081Y1195153D01*
X-1163884Y1183925D01*
X-1163885Y1183924D01*
X-1177557Y1170253D01*
X-1770103D01*
X-1830275Y1230425D01*
X-1865905Y1266054D01*
Y2031005D01*
X-1075736D01*
X-1068680Y2020445D01*
X-1070144Y2016911D01*
Y1994681D01*
X-1061637Y1974142D01*
X-1045918Y1958423D01*
X-1025379Y1949916D01*
X-1003149D01*
X-982611Y1958423D01*
X-981138Y1959896D01*
X-851040D01*
Y2031005D01*
X-838200D01*
X-829836Y2032669D01*
X-817136Y2022246D01*
X-817137Y913597D01*
X-813194Y893775D01*
X-801966Y876972D01*
X-801965Y876971D01*
X-763866Y838872D01*
X-763865Y838871D01*
X-747061Y827643D01*
X-727240Y823701D01*
X-325450D01*
X-305795Y804046D01*
Y457200D01*
X-301853Y437379D01*
X-290625Y420575D01*
X-269400Y399350D01*
Y393000D01*
X-263050D01*
X-252525Y382475D01*
X-235721Y371247D01*
X-215900Y367305D01*
X0D01*
X19821Y371247D01*
X36625Y382475D01*
X47150Y393000D01*
X52200D01*
Y398051D01*
X74725Y420575D01*
X85953Y437379D01*
X89895Y457200D01*
Y816746D01*
X96850Y823701D01*
X230335D01*
X230336Y823700D01*
X250157Y827643D01*
X266961Y838871D01*
X266961Y838872D01*
X293378Y865289D01*
X305117Y860441D01*
X307011Y-37357D01*
X306874Y-50000D01*
X306313Y-62467D01*
X302593Y-100244D01*
X287937Y-148557D01*
X264138Y-193082D01*
X232109Y-232109D01*
X193082Y-264138D01*
X148557Y-287937D01*
X100244Y-302593D01*
X62467Y-306313D01*
X50000Y-306874D01*
Y-306875D01*
X49179Y-307038D01*
X-6191876Y-307037D01*
X-6196736Y-295304D01*
X-6124882Y-223450D01*
X-6119268Y-215048D01*
X-6117297Y-205138D01*
Y673698D01*
X-6119268Y683609D01*
X-6124882Y692011D01*
X-6181647Y748775D01*
X-6176786Y760509D01*
X-5492564D01*
X-5482654Y762480D01*
X-5474252Y768094D01*
X-5423452Y818894D01*
X-5417838Y827296D01*
X-5415867Y837206D01*
Y2056406D01*
X-5417838Y2066317D01*
X-5423452Y2074719D01*
X-5474252Y2125519D01*
X-5482654Y2131133D01*
X-5492564Y2133104D01*
X-6154571D01*
X-6159431Y2144837D01*
X-6124882Y2179386D01*
X-6119268Y2187788D01*
X-6117297Y2197698D01*
Y3065443D01*
X-6119268Y3075353D01*
X-6124882Y3083755D01*
X-6144220Y3103093D01*
X-6139360Y3114827D01*
X31399Y3115242D01*
X32220Y3115079D01*
D02*
G37*
G36*
X-6143194Y3065443D02*
Y2197698D01*
X-6205891Y2135002D01*
X-6736991Y2135003D01*
X-6955239Y1902670D01*
X-6951974Y1458252D01*
X-6956173Y1454053D01*
X-6964680Y1433515D01*
Y1411285D01*
X-6956173Y1390747D01*
X-6951444Y1386018D01*
X-6948724Y1015782D01*
X-6733824Y750568D01*
X-6220064D01*
X-6143194Y673698D01*
Y-205138D01*
X-6228755Y-290697D01*
X-7511454D01*
X-7590995Y-211157D01*
X-7590994Y648298D01*
X-7895794Y953098D01*
X-9115938D01*
X-9116705Y1934714D01*
X-9107728Y1943698D01*
X-7895794D01*
X-7590994Y2248498D01*
Y3058762D01*
X-7535024Y3114732D01*
X-6192575Y3114823D01*
X-6143194Y3065443D01*
D02*
G37*
G36*
X-1349724Y2873724D02*
Y2871468D01*
X-1062078D01*
X-1046781Y2861247D01*
X-1026960Y2857304D01*
X-1026960D01*
D01*
X-946900Y2857305D01*
X-927079Y2861247D01*
X-914400Y2869719D01*
X-901721Y2861247D01*
X-890519Y2859019D01*
X-840073Y2808573D01*
Y2719335D01*
X-845361Y2710176D01*
X-850900Y2689504D01*
Y2668102D01*
X-845361Y2647430D01*
X-834660Y2628896D01*
X-819527Y2613763D01*
X-812800Y2609879D01*
Y2477054D01*
X-813193Y2476466D01*
X-817136Y2456645D01*
X-817136Y2103864D01*
X-838200Y2082800D01*
X-987606D01*
X-1003563Y2087076D01*
X-1024965D01*
X-1040922Y2082800D01*
X-1866900D01*
X-1892300Y2108200D01*
Y2933700D01*
X-1854200Y2971800D01*
X-1447800D01*
X-1349724Y2873724D01*
D02*
G37*
G36*
X-7583386Y3102996D02*
X-7609307Y3077075D01*
X-7614921Y3068673D01*
X-7616892Y3058762D01*
Y2259226D01*
X-7906522Y1969596D01*
X-9107728D01*
X-9107772Y1969636D01*
X-9116740Y1980064D01*
X-9117421Y2851660D01*
X-9117267Y2864297D01*
X-9116675Y2876751D01*
X-9113084Y2913202D01*
X-9098819Y2960228D01*
X-9075654Y3003568D01*
X-9044478Y3041556D01*
X-9006491Y3072731D01*
X-8963151Y3095897D01*
X-8916125Y3110162D01*
X-8879674Y3113752D01*
X-8867220Y3114345D01*
X-8865721Y3114642D01*
X-8854519Y3114644D01*
X-7588246Y3114729D01*
X-7583386Y3102996D01*
D02*
G37*
G36*
X-4320824Y1652268D02*
X-3990624D01*
X-3965224Y1626868D01*
Y1474468D01*
X-3939824Y1449068D01*
X-3838224D01*
X-3812824Y1474468D01*
Y1601468D01*
X-3768067Y1646225D01*
X-3273381D01*
X-3254024Y1626868D01*
Y1474468D01*
X-3228624Y1449068D01*
X-3177824D01*
X-3127024Y1398268D01*
Y839468D01*
X-3152424Y814068D01*
X-4295424D01*
X-4320824Y839468D01*
Y1093468D01*
X-4397024Y1169668D01*
X-5006624D01*
Y1728468D01*
X-4397024D01*
X-4320824Y1652268D01*
D02*
G37*
G36*
X-5441764Y2056406D02*
Y837206D01*
X-5492564Y786406D01*
X-6701094D01*
X-6911624Y1049569D01*
Y1899367D01*
X-6759602Y2073107D01*
X-6727570Y2107206D01*
X-5492564D01*
X-5441764Y2056406D01*
D02*
G37*
G36*
X-7616892Y637571D02*
X-7616893Y-211157D01*
X-7614921Y-221068D01*
X-7609307Y-229470D01*
X-7609307Y-229470D01*
X-7543473Y-295303D01*
X-7548333Y-307037D01*
X-8867890Y-307037D01*
X-8879767Y-307036D01*
X-8880590Y-306873D01*
X-8893015Y-306207D01*
X-8926425Y-302917D01*
X-8970499Y-289547D01*
X-9011117Y-267836D01*
X-9046719Y-238618D01*
X-9075937Y-203016D01*
X-9097648Y-162397D01*
X-9111018Y-118324D01*
X-9114308Y-84913D01*
X-9114974Y-72489D01*
X-9115138Y-71665D01*
X-9115147Y-59791D01*
X-9115911Y918217D01*
X-9106934Y927201D01*
X-7906522D01*
X-7616892Y637571D01*
D02*
G37*
%LPC*%
G36*
X113455Y1366996D02*
X75065D01*
X37983Y1357060D01*
X4737Y1337865D01*
X-22409Y1310719D01*
X-41604Y1277472D01*
X-51540Y1240391D01*
Y1202001D01*
X-41604Y1164919D01*
X-22409Y1131673D01*
X4737Y1104527D01*
X37983Y1085332D01*
X75065Y1075396D01*
X113455D01*
X150536Y1085332D01*
X183783Y1104527D01*
X210929Y1131673D01*
X230124Y1164919D01*
X240060Y1202001D01*
Y1240391D01*
X230124Y1277472D01*
X210929Y1310719D01*
X183783Y1337865D01*
X150536Y1357060D01*
X113455Y1366996D01*
D02*
G37*
G36*
X-386545D02*
X-424935D01*
X-462017Y1357060D01*
X-495263Y1337865D01*
X-522409Y1310719D01*
X-541604Y1277472D01*
X-551540Y1240391D01*
Y1202001D01*
X-541604Y1164919D01*
X-522409Y1131673D01*
X-495263Y1104527D01*
X-462017Y1085332D01*
X-424935Y1075396D01*
X-386545D01*
X-349464Y1085332D01*
X-316217Y1104527D01*
X-289071Y1131673D01*
X-269876Y1164919D01*
X-259940Y1202001D01*
Y1240391D01*
X-269876Y1277472D01*
X-289071Y1310719D01*
X-316217Y1337865D01*
X-349464Y1357060D01*
X-386545Y1366996D01*
D02*
G37*
%LPD*%
G36*
X130545Y1308794D02*
X151980Y1296419D01*
X169482Y1278916D01*
X181858Y1257481D01*
X188265Y1233571D01*
Y1208821D01*
X181858Y1184911D01*
X169483Y1163476D01*
X151980Y1145974D01*
X130545Y1133598D01*
X106635Y1127191D01*
X81885D01*
X57975Y1133598D01*
X36540Y1145973D01*
X19038Y1163476D01*
X6662Y1184911D01*
X255Y1208821D01*
Y1233571D01*
X6662Y1257481D01*
X19037Y1278916D01*
X36540Y1296418D01*
X57975Y1308794D01*
X81885Y1315201D01*
X106635D01*
X130545Y1308794D01*
D02*
G37*
G36*
X-369455D02*
X-348020Y1296419D01*
X-330518Y1278916D01*
X-318142Y1257481D01*
X-311735Y1233571D01*
Y1208821D01*
X-318142Y1184911D01*
X-330518Y1163476D01*
X-348020Y1145974D01*
X-369455Y1133598D01*
X-393365Y1127191D01*
X-418115D01*
X-442025Y1133598D01*
X-463460Y1145973D01*
X-480962Y1163476D01*
X-493338Y1184911D01*
X-499745Y1208821D01*
Y1233571D01*
X-493338Y1257481D01*
X-480963Y1278916D01*
X-463460Y1296418D01*
X-442025Y1308794D01*
X-418115Y1315201D01*
X-393365D01*
X-369455Y1308794D01*
D02*
G37*
%LPC*%
G36*
X-946900Y3022847D02*
X-975350D01*
Y2978151D01*
X-933154D01*
Y3009100D01*
X-937180Y3018820D01*
X-946900Y3022847D01*
D02*
G37*
G36*
X-1013450D02*
X-1026960D01*
X-1036680Y3018820D01*
X-1036680Y3018820D01*
X-1051621Y3003880D01*
X-1055647Y2994160D01*
X-1055647Y2994159D01*
Y2978151D01*
X-1013450D01*
Y3022847D01*
D02*
G37*
G36*
X-497299Y3055080D02*
X-518701D01*
X-539373Y3049541D01*
X-557907Y3038840D01*
X-573040Y3023707D01*
X-583741Y3005173D01*
X-589280Y2984501D01*
Y2977100D01*
X-593800D01*
Y2785500D01*
X-422200D01*
Y2977100D01*
X-426720D01*
Y2984501D01*
X-432259Y3005173D01*
X-442960Y3023707D01*
X-458093Y3038840D01*
X-476627Y3049541D01*
X-497299Y3055080D01*
D02*
G37*
G36*
X-352600Y2751700D02*
X-473400D01*
Y2610900D01*
X-352600D01*
Y2751700D01*
D02*
G37*
G36*
X-1343424Y839715D02*
X-1371874D01*
Y795017D01*
X-1329678D01*
Y825968D01*
X-1333704Y835688D01*
X-1343424Y839715D01*
D02*
G37*
G36*
X-1409974D02*
X-1423484D01*
X-1433204Y835688D01*
X-1433205Y835688D01*
X-1448145Y820748D01*
X-1452171Y811028D01*
X-1452171Y811027D01*
Y795017D01*
X-1409974D01*
Y839715D01*
D02*
G37*
G36*
X-1329678Y756917D02*
X-1371874D01*
Y712221D01*
X-1343424D01*
X-1333704Y716247D01*
X-1329678Y725968D01*
Y756917D01*
D02*
G37*
G36*
X-1409974D02*
X-1452171D01*
Y740908D01*
X-1448145Y731188D01*
X-1448144Y731188D01*
X-1433204Y716247D01*
X-1423484Y712221D01*
X-1423484Y712221D01*
X-1409974D01*
Y756917D01*
D02*
G37*
G36*
X-1172964Y636515D02*
X-1172965Y636515D01*
X-1186474D01*
Y591818D01*
X-1144277D01*
Y607828D01*
X-1148304Y617548D01*
X-1148304Y617548D01*
X-1163244Y632489D01*
X-1172964Y636515D01*
D02*
G37*
G36*
X-1224574Y636515D02*
X-1253024D01*
X-1262744Y632488D01*
X-1266771Y622768D01*
Y591818D01*
X-1224574D01*
Y636515D01*
D02*
G37*
G36*
X-2421878Y629917D02*
X-2464074D01*
Y585221D01*
X-2435624D01*
X-2425904Y589247D01*
X-2421878Y598968D01*
Y629917D01*
D02*
G37*
G36*
X-2502174D02*
X-2544371D01*
Y613908D01*
X-2540345Y604188D01*
X-2540344Y604188D01*
X-2525404Y589247D01*
X-2515684Y585221D01*
X-2515684Y585221D01*
X-2502174D01*
Y629917D01*
D02*
G37*
G36*
X-2435624Y560315D02*
X-2464074D01*
Y515618D01*
X-2421878D01*
Y546568D01*
X-2425904Y556288D01*
X-2435624Y560315D01*
D02*
G37*
G36*
X-2515684Y560315D02*
X-2525404Y556288D01*
X-2540345Y541348D01*
X-2544371Y531628D01*
X-2544371Y531627D01*
Y515618D01*
X-2502174D01*
Y560315D01*
X-2515684D01*
X-2515684Y560315D01*
D02*
G37*
G36*
X-1144277Y553718D02*
X-1186474D01*
Y509021D01*
X-1172964D01*
X-1163244Y513047D01*
X-1163244Y513048D01*
X-1148304Y527988D01*
X-1144277Y537708D01*
X-1144277Y537709D01*
Y553718D01*
D02*
G37*
G36*
X-1224574D02*
X-1266771D01*
Y522768D01*
X-1262744Y513047D01*
X-1253024Y509021D01*
X-1224574D01*
Y553718D01*
D02*
G37*
G36*
X-1172964Y484115D02*
X-1172965Y484115D01*
X-1186474D01*
Y439418D01*
X-1144277D01*
Y455428D01*
X-1148304Y465148D01*
X-1148304Y465148D01*
X-1163244Y480089D01*
X-1172964Y484115D01*
D02*
G37*
G36*
X-1224574Y484115D02*
X-1253024D01*
X-1262744Y480088D01*
X-1266771Y470368D01*
Y439418D01*
X-1224574D01*
Y484115D01*
D02*
G37*
G36*
X-2421878Y477518D02*
X-2464074D01*
Y432821D01*
X-2435624D01*
X-2425904Y436847D01*
X-2421878Y446568D01*
Y477518D01*
D02*
G37*
G36*
X-2502174D02*
X-2544371D01*
Y461510D01*
X-2544372Y461509D01*
X-2540345Y451788D01*
X-2540344Y451787D01*
X-2525405Y436849D01*
X-2525405Y436847D01*
X-2515684Y432820D01*
X-2515683Y432821D01*
X-2502174D01*
Y477518D01*
D02*
G37*
G36*
X-1144277Y401318D02*
X-1186474D01*
Y356621D01*
X-1172964D01*
X-1163244Y360647D01*
X-1163244Y360648D01*
X-1148304Y375588D01*
X-1144277Y385308D01*
X-1144277Y385309D01*
Y401318D01*
D02*
G37*
G36*
X-4481720Y595578D02*
X-4626720D01*
X-4636631Y593606D01*
X-4645032Y587992D01*
X-4650646Y579591D01*
X-4652618Y569680D01*
Y489680D01*
X-4650646Y479769D01*
X-4645032Y471367D01*
X-4625032Y451367D01*
X-4616631Y445753D01*
X-4606720Y443782D01*
X-4599541D01*
Y391878D01*
X-4607340D01*
X-4617250Y389906D01*
X-4625652Y384292D01*
X-4645032Y364913D01*
X-4645032Y364912D01*
X-4650646Y356511D01*
X-4652618Y346600D01*
Y265980D01*
X-4650646Y256069D01*
X-4645032Y247668D01*
X-4636631Y242054D01*
X-4626720Y240082D01*
X-4481720D01*
X-4471809Y242054D01*
X-4463408Y247668D01*
X-4457794Y256069D01*
X-4455822Y265980D01*
Y346600D01*
X-4457794Y356511D01*
X-4463408Y364912D01*
X-4482788Y384292D01*
X-4491189Y389906D01*
X-4501100Y391878D01*
X-4508899D01*
Y443782D01*
X-4501720D01*
X-4491809Y445753D01*
X-4483408Y451367D01*
X-4463408Y471367D01*
X-4457794Y479769D01*
X-4455822Y489680D01*
Y569680D01*
X-4457794Y579591D01*
X-4463408Y587992D01*
X-4471809Y593606D01*
X-4481720Y595578D01*
D02*
G37*
G36*
Y189727D02*
X-4535169D01*
Y145030D01*
X-4467974D01*
Y175980D01*
X-4472000Y185700D01*
X-4481720Y189727D01*
D02*
G37*
G36*
X-4573269D02*
X-4626720D01*
X-4636440Y185700D01*
X-4640466Y175980D01*
Y145030D01*
X-4573269D01*
Y189727D01*
D02*
G37*
G36*
X-918964Y166615D02*
X-918965Y166615D01*
X-932474D01*
Y121918D01*
X-890277D01*
Y137928D01*
X-894304Y147648D01*
X-894304Y147648D01*
X-909244Y162589D01*
X-918964Y166615D01*
D02*
G37*
G36*
X-970574Y166615D02*
X-999024D01*
X-1008744Y162588D01*
X-1012771Y152868D01*
Y121918D01*
X-970574D01*
Y166615D01*
D02*
G37*
G36*
X-4467974Y106930D02*
X-4535169D01*
Y62233D01*
X-4501100D01*
X-4491380Y66259D01*
X-4491380Y66260D01*
X-4472000Y85640D01*
X-4467973Y95360D01*
X-4467974Y95360D01*
Y106930D01*
D02*
G37*
G36*
X-4573269D02*
X-4640466D01*
Y95360D01*
X-4636440Y85640D01*
X-4636440Y85639D01*
X-4617061Y66260D01*
X-4617060Y66259D01*
X-4607340Y62232D01*
X-4607338Y62233D01*
X-4573269D01*
Y106930D01*
D02*
G37*
G36*
X-890277Y83818D02*
X-932474D01*
Y39121D01*
X-918964D01*
X-909244Y43147D01*
X-909244Y43148D01*
X-894304Y58088D01*
X-890277Y67808D01*
X-890277Y67809D01*
Y83818D01*
D02*
G37*
G36*
X-970574D02*
X-1012771D01*
Y52868D01*
X-1008744Y43147D01*
X-999024Y39121D01*
X-970574D01*
Y83818D01*
D02*
G37*
G36*
X-1223764Y14215D02*
X-1223765Y14215D01*
X-1237274D01*
Y-30482D01*
X-1195077D01*
Y-14472D01*
X-1199104Y-4752D01*
X-1199104Y-4752D01*
X-1214044Y10189D01*
X-1223764Y14215D01*
D02*
G37*
G36*
X-1275374Y14215D02*
X-1303824D01*
X-1313544Y10188D01*
X-1317571Y468D01*
Y-30482D01*
X-1275374D01*
Y14215D01*
D02*
G37*
G36*
X-1195077Y-68582D02*
X-1237274D01*
Y-113279D01*
X-1223764D01*
X-1214044Y-109253D01*
X-1214044Y-109252D01*
X-1199104Y-94312D01*
X-1195077Y-84592D01*
X-1195077Y-84591D01*
Y-68582D01*
D02*
G37*
G36*
X-1275374D02*
X-1317571D01*
Y-99532D01*
X-1313544Y-109253D01*
X-1303824Y-113279D01*
X-1275374D01*
Y-68582D01*
D02*
G37*
G36*
X-1223764Y-138185D02*
X-1223765Y-138185D01*
X-1237274D01*
Y-182882D01*
X-1195077D01*
Y-166872D01*
X-1199104Y-157152D01*
X-1199104Y-157152D01*
X-1214044Y-142211D01*
X-1223764Y-138185D01*
D02*
G37*
G36*
X-1275374Y-138185D02*
X-1303824D01*
X-1313544Y-142212D01*
X-1317571Y-151932D01*
Y-182882D01*
X-1275374D01*
Y-138185D01*
D02*
G37*
G36*
X-1195077Y-220982D02*
X-1237274D01*
Y-265679D01*
X-1223764D01*
X-1214044Y-261653D01*
X-1214044Y-261652D01*
X-1199104Y-246712D01*
X-1195077Y-236992D01*
X-1195077Y-236991D01*
Y-220982D01*
D02*
G37*
G36*
X-1275374D02*
X-1317571D01*
Y-251932D01*
X-1313544Y-261653D01*
X-1303824Y-265679D01*
X-1275374D01*
Y-220982D01*
D02*
G37*
G36*
X21675Y275400D02*
X-21675D01*
X-64490Y268619D01*
X-105717Y255223D01*
X-144341Y235543D01*
X-179411Y210063D01*
X-210063Y179411D01*
X-235543Y144341D01*
X-255223Y105717D01*
X-268619Y64490D01*
X-275400Y21675D01*
Y-21675D01*
X-268619Y-64490D01*
X-255223Y-105717D01*
X-235543Y-144341D01*
X-210063Y-179411D01*
X-179411Y-210063D01*
X-144341Y-235543D01*
X-105717Y-255223D01*
X-64490Y-268619D01*
X-21675Y-275400D01*
X21675D01*
X64490Y-268619D01*
X105717Y-255223D01*
X144341Y-235543D01*
X179411Y-210063D01*
X210063Y-179411D01*
X235543Y-144341D01*
X255223Y-105717D01*
X268619Y-64490D01*
X275400Y-21675D01*
Y21675D01*
X268619Y64490D01*
X255223Y105717D01*
X235543Y144341D01*
X210063Y179411D01*
X179411Y210063D01*
X144341Y235543D01*
X105717Y255223D01*
X64490Y268619D01*
X21675Y275400D01*
D02*
G37*
G36*
X-8384149Y1341595D02*
X-8415851D01*
X-8446473Y1333390D01*
X-8473927Y1317539D01*
X-8496344Y1295123D01*
X-8512195Y1267668D01*
X-8520400Y1237047D01*
Y1205345D01*
X-8512195Y1174723D01*
X-8496344Y1147268D01*
X-8473927Y1124852D01*
X-8446473Y1109001D01*
X-8415851Y1100796D01*
X-8384149D01*
X-8353527Y1109001D01*
X-8326073Y1124852D01*
X-8303656Y1147268D01*
X-8287805Y1174723D01*
X-8279600Y1205345D01*
Y1237047D01*
X-8287805Y1267668D01*
X-8303656Y1295123D01*
X-8326073Y1317539D01*
X-8353527Y1333390D01*
X-8384149Y1341595D01*
D02*
G37*
G36*
X-8884149D02*
X-8915851D01*
X-8946473Y1333390D01*
X-8973927Y1317539D01*
X-8996344Y1295123D01*
X-9012195Y1267668D01*
X-9020400Y1237047D01*
Y1205345D01*
X-9012195Y1174723D01*
X-8996344Y1147268D01*
X-8973927Y1124852D01*
X-8946473Y1109001D01*
X-8915851Y1100796D01*
X-8884149D01*
X-8853527Y1109001D01*
X-8826073Y1124852D01*
X-8803656Y1147268D01*
X-8787805Y1174723D01*
X-8779600Y1205345D01*
Y1237047D01*
X-8787805Y1267668D01*
X-8803656Y1295123D01*
X-8826073Y1317539D01*
X-8853527Y1333390D01*
X-8884149Y1341595D01*
D02*
G37*
%LPD*%
G36*
X-8363523Y1309257D02*
X-8341975Y1296817D01*
X-8324380Y1279221D01*
X-8311938Y1257673D01*
X-8305498Y1233637D01*
Y1208755D01*
X-8311938Y1184719D01*
X-8324379Y1163170D01*
X-8341974Y1145575D01*
X-8363523Y1133134D01*
X-8387559Y1126693D01*
X-8412441D01*
X-8436477Y1133134D01*
X-8458025Y1145575D01*
X-8475620Y1163170D01*
X-8488062Y1184719D01*
X-8494502Y1208755D01*
Y1233637D01*
X-8488062Y1257673D01*
X-8475621Y1279221D01*
X-8458026Y1296816D01*
X-8436477Y1309257D01*
X-8412441Y1315698D01*
X-8387559D01*
X-8363523Y1309257D01*
D02*
G37*
G36*
X-8863523D02*
X-8841975Y1296817D01*
X-8824380Y1279221D01*
X-8811938Y1257673D01*
X-8805498Y1233637D01*
Y1208755D01*
X-8811938Y1184719D01*
X-8824379Y1163170D01*
X-8841974Y1145575D01*
X-8863523Y1133134D01*
X-8887559Y1126693D01*
X-8912441D01*
X-8936477Y1133134D01*
X-8958025Y1145575D01*
X-8975620Y1163170D01*
X-8988062Y1184719D01*
X-8994502Y1208755D01*
Y1233637D01*
X-8988062Y1257673D01*
X-8975621Y1279221D01*
X-8958026Y1296816D01*
X-8936477Y1309257D01*
X-8912441Y1315698D01*
X-8887559D01*
X-8863523Y1309257D01*
D02*
G37*
%LPC*%
G36*
X-8778325Y3075368D02*
X-8821675D01*
X-8864490Y3068587D01*
X-8905717Y3055191D01*
X-8944341Y3035511D01*
X-8979411Y3010031D01*
X-9010063Y2979379D01*
X-9035543Y2944309D01*
X-9055223Y2905685D01*
X-9068619Y2864458D01*
X-9075400Y2821643D01*
Y2778293D01*
X-9068619Y2735478D01*
X-9055223Y2694251D01*
X-9035543Y2655627D01*
X-9010063Y2620557D01*
X-8979411Y2589905D01*
X-8944341Y2564425D01*
X-8905717Y2544745D01*
X-8864490Y2531349D01*
X-8821675Y2524568D01*
X-8778325D01*
X-8735510Y2531349D01*
X-8694283Y2544745D01*
X-8655659Y2564425D01*
X-8620589Y2589905D01*
X-8589937Y2620557D01*
X-8564457Y2655627D01*
X-8544777Y2694251D01*
X-8531381Y2735478D01*
X-8524600Y2778293D01*
Y2821643D01*
X-8531381Y2864458D01*
X-8544777Y2905685D01*
X-8564457Y2944309D01*
X-8589937Y2979379D01*
X-8620589Y3010031D01*
X-8655659Y3035511D01*
X-8694283Y3055191D01*
X-8735510Y3068587D01*
X-8778325Y3075368D01*
D02*
G37*
G36*
Y275400D02*
X-8821675D01*
X-8864490Y268619D01*
X-8905717Y255223D01*
X-8944341Y235543D01*
X-8979411Y210063D01*
X-9010063Y179411D01*
X-9035543Y144341D01*
X-9055223Y105717D01*
X-9068619Y64490D01*
X-9075400Y21675D01*
Y-21675D01*
X-9068619Y-64490D01*
X-9055223Y-105717D01*
X-9035543Y-144341D01*
X-9010063Y-179411D01*
X-8979411Y-210063D01*
X-8944341Y-235543D01*
X-8905717Y-255223D01*
X-8864490Y-268619D01*
X-8821675Y-275400D01*
X-8778325D01*
X-8735510Y-268619D01*
X-8694283Y-255223D01*
X-8655659Y-235543D01*
X-8620589Y-210063D01*
X-8589937Y-179411D01*
X-8564457Y-144341D01*
X-8544777Y-105717D01*
X-8531381Y-64490D01*
X-8524600Y-21675D01*
Y21675D01*
X-8531381Y64490D01*
X-8544777Y105717D01*
X-8564457Y144341D01*
X-8589937Y179411D01*
X-8620589Y210063D01*
X-8655659Y235543D01*
X-8694283Y255223D01*
X-8735510Y268619D01*
X-8778325Y275400D01*
D02*
G37*
%LPD*%
D10*
X-1107724Y775968D02*
D03*
X-2203264Y-12236D02*
D03*
X-7632700Y1447800D02*
D03*
X-1488724Y420368D02*
D03*
X-1730024Y915668D02*
D03*
X-1234724Y2452368D02*
D03*
X-1511300Y571500D02*
D03*
X-2822224Y1220468D02*
D03*
X-6404140Y1446996D02*
D03*
X-3724440Y1408896D02*
D03*
X-2832100Y622300D02*
D03*
X-2205004Y542288D02*
D03*
D11*
X-2358024Y1601468D02*
D03*
D12*
X-1483024D02*
D03*
D13*
X-7198024Y293368D02*
D03*
X-7185324Y2541268D02*
D03*
D14*
X-8073024Y293368D02*
D03*
X-8060324Y2541268D02*
D03*
D15*
X-2822200Y1422400D02*
D03*
X-2825119Y851607D02*
D03*
X-2825379Y742387D02*
D03*
X-2822200Y1531620D02*
D03*
X-2380524Y293368D02*
D03*
Y191768D02*
D03*
D16*
X-2918200Y1422400D02*
D03*
X-2921118Y851607D02*
D03*
X-2921378Y742387D02*
D03*
X-2918200Y1531620D02*
D03*
X-2476524Y293368D02*
D03*
Y191768D02*
D03*
D17*
X-4554220Y709680D02*
D03*
D18*
Y519680D02*
D03*
D19*
Y315980D02*
D03*
D20*
Y125980D02*
D03*
D21*
X-6216924Y648968D02*
D03*
X-2483124Y496568D02*
D03*
X-1416324Y-201932D02*
D03*
Y-49532D02*
D03*
X-2213600Y838200D02*
D03*
X-1365524Y420368D02*
D03*
Y572768D02*
D03*
X-1412524Y255268D02*
D03*
X-1416324Y102868D02*
D03*
X-1111524D02*
D03*
X-6216624Y2249168D02*
D03*
X-1733824Y775968D02*
D03*
D22*
X-6056924Y648968D02*
D03*
X-2323124Y496568D02*
D03*
X-1256324Y-201932D02*
D03*
Y-49532D02*
D03*
X-2053600Y838200D02*
D03*
X-1205524Y420368D02*
D03*
Y572768D02*
D03*
X-1252524Y255268D02*
D03*
X-1256324Y102868D02*
D03*
X-951524D02*
D03*
X-6056624Y2249168D02*
D03*
X-1573824Y775968D02*
D03*
D23*
X-3338360Y2492216D02*
D03*
X-3488220Y2490936D02*
D03*
X-3798100D02*
D03*
D24*
X-3338360Y2652216D02*
D03*
X-3488220Y2650936D02*
D03*
X-3798100D02*
D03*
D25*
X-602600Y558800D02*
D03*
X-108600D02*
D03*
D26*
X-3559340Y1248496D02*
D03*
X-3432340D02*
D03*
X-3305340D02*
D03*
X-3178340D02*
D03*
X-4270540Y1243796D02*
D03*
X-4143540D02*
D03*
X-4016540D02*
D03*
X-3889540D02*
D03*
X-3555440Y2183396D02*
D03*
X-3428440D02*
D03*
X-3301440D02*
D03*
X-3174440D02*
D03*
X-4266640D02*
D03*
X-4139640D02*
D03*
X-4012640D02*
D03*
X-3885640D02*
D03*
D27*
X-3178340Y636996D02*
D03*
X-3305340D02*
D03*
X-3432340D02*
D03*
X-3559340D02*
D03*
X-3889540Y632296D02*
D03*
X-4016540D02*
D03*
X-4143540D02*
D03*
X-4270540D02*
D03*
X-3174440Y1571896D02*
D03*
X-3301440D02*
D03*
X-3428440D02*
D03*
X-3555440D02*
D03*
X-3885640D02*
D03*
X-4012640D02*
D03*
X-4139640D02*
D03*
X-4266640D02*
D03*
D28*
X-3445040Y683746D02*
D03*
X-4156240Y679046D02*
D03*
X-3441140Y1618646D02*
D03*
X-4152340D02*
D03*
D29*
X-3368840Y1003746D02*
D03*
X-4080040Y999046D02*
D03*
X-3364940Y1938646D02*
D03*
X-4076140D02*
D03*
D30*
X-6251524Y52068D02*
D03*
D31*
X-5971524D02*
D03*
D32*
Y407668D02*
D03*
Y2833368D02*
D03*
X-5971224Y2477768D02*
D03*
D33*
X-6251524Y407668D02*
D03*
Y2833368D02*
D03*
X-6251224Y2477768D02*
D03*
D34*
X-7233740Y1446996D02*
D03*
X-6666740D02*
D03*
D35*
X-2860840Y2925496D02*
D03*
X-3127540D02*
D03*
X-4320824Y2914868D02*
D03*
X-4562124D02*
D03*
X-4803424D02*
D03*
X-5044724D02*
D03*
D36*
X-2860840Y2635496D02*
D03*
X-3127540D02*
D03*
X-4320824Y2624868D02*
D03*
X-4562124D02*
D03*
X-4803424D02*
D03*
X-5044724D02*
D03*
D37*
X-1092200Y1099800D02*
D03*
X-3640620Y2650936D02*
D03*
X-3950500D02*
D03*
X-4102900D02*
D03*
D38*
X-1092200Y939800D02*
D03*
X-3640620Y2490936D02*
D03*
X-3950500D02*
D03*
X-4102900D02*
D03*
D39*
X-1230924Y775968D02*
D03*
X-834400Y2959100D02*
D03*
X-2335824Y-11432D02*
D03*
X-2323124Y648968D02*
D03*
D40*
X-1390924Y775968D02*
D03*
X-994400Y2959100D02*
D03*
X-2495824Y-11432D02*
D03*
X-2483124Y648968D02*
D03*
D41*
X-1234724Y2726468D02*
D03*
X-2606324Y2731768D02*
D03*
D42*
X-1234724Y3016468D02*
D03*
X-2606324Y3021768D02*
D03*
D43*
X-917440Y2005796D02*
D03*
X-917740Y2132796D02*
D03*
X-917440Y2259796D02*
D03*
Y2386796D02*
D03*
D44*
X-645940Y1967696D02*
D03*
Y2424896D02*
D03*
D45*
X-562140Y2196296D02*
D03*
D46*
X-358940D02*
D03*
D47*
X-1869724Y344168D02*
D03*
D48*
X-1944724Y69848D02*
D03*
Y618488D02*
D03*
X-1794724D02*
D03*
Y69848D02*
D03*
D49*
X-2044984Y119111D02*
D03*
Y169124D02*
D03*
Y219136D02*
D03*
Y269149D02*
D03*
Y319162D02*
D03*
Y369174D02*
D03*
Y419187D02*
D03*
Y469199D02*
D03*
Y519212D02*
D03*
Y569225D02*
D03*
X-1694464D02*
D03*
Y519212D02*
D03*
Y469199D02*
D03*
Y419187D02*
D03*
Y369174D02*
D03*
Y319162D02*
D03*
Y269149D02*
D03*
Y219136D02*
D03*
Y169124D02*
D03*
Y119111D02*
D03*
D50*
X-2283024Y2630168D02*
D03*
X-1558024D02*
D03*
D51*
X-2225324Y290568D02*
D03*
D52*
Y194568D02*
D03*
D53*
X-2680924Y839468D02*
D03*
X-2353924D02*
D03*
D54*
X-5286540Y2622796D02*
D03*
D55*
Y2912796D02*
D03*
D56*
X-4813140Y1450796D02*
D03*
X-5963140D02*
D03*
D57*
X-603000Y2681300D02*
D03*
X-413000D02*
D03*
X-508000Y2881300D02*
D03*
D58*
X-5527324Y2914868D02*
D03*
D59*
Y2624868D02*
D03*
D60*
X-2822224Y1133124D02*
X-2743200Y1054100D01*
X-2108200D01*
X-2822224Y1133124D02*
Y1422376D01*
X-2108200Y1054100D02*
X-1944724Y890625D01*
Y618488D02*
Y890625D01*
X-2100644Y885244D02*
Y885606D01*
X-2159956Y944918D02*
X-2100644Y885606D01*
X-3310012Y944918D02*
X-2159956D01*
X-3368840Y1003746D02*
X-3310012Y944918D01*
X-2100644Y885244D02*
X-2053600Y838200D01*
X-1234724Y2726468D02*
X-1230692Y2730500D01*
X-1079500D01*
X-508000Y2881300D02*
Y2973800D01*
X-2358024Y1596024D02*
Y1601468D01*
Y1596024D02*
X-1861800Y1099800D01*
X-1092200D01*
X-834400Y2959100D02*
X-769620Y2894320D01*
Y2678803D02*
Y2894320D01*
Y2678803D02*
X-768372Y2680051D01*
X-604249D02*
X-603000Y2681300D01*
X-768372Y2680051D02*
X-604249D01*
X-1014264Y2005796D02*
X-917440D01*
X-3026770Y636996D02*
X-2921378Y742387D01*
X-3178340Y636996D02*
X-3026770D01*
X-3893820Y636576D02*
Y739140D01*
Y636576D02*
X-3889540Y632296D01*
X-3893820Y739140D02*
X-3870960Y762000D01*
X-3081020D01*
X-2991413Y851607D01*
X-2921118D01*
X-2822200Y1422400D02*
Y1531620D01*
X-2822224Y1422376D02*
X-2822200Y1422400D01*
X-3174440Y1571896D02*
X-3169724Y1567180D01*
X-3129280D01*
X-2984500Y1422400D01*
X-2918200D01*
X-3847701Y1691546D02*
X-3078126D01*
X-2918200Y1531619D01*
X-3874690Y1664556D02*
X-3847701Y1691546D01*
X-3874690Y1582846D02*
Y1664556D01*
X-3885640Y1571896D02*
X-3874690Y1582846D01*
X-1365524Y394318D02*
X-1252524Y281318D01*
X-1365524Y394318D02*
Y420368D01*
X-1252524Y255268D02*
Y281318D01*
X-2679656Y838200D02*
X-2578100D01*
X-2680924Y839468D02*
X-2679656Y838200D01*
X-2203724Y713728D02*
X-2116104Y626108D01*
X-2049260Y576362D02*
Y833860D01*
X-2353924Y839468D02*
Y854968D01*
X-2053600Y838200D02*
X-2049260Y833860D01*
X-2203724Y713728D02*
Y839468D01*
X-2832100Y622300D02*
Y735666D01*
X-2825379Y742387D01*
X-2823774Y613974D02*
X-2734874D01*
X-2832100Y622300D02*
X-2823774Y613974D01*
X-2734874D02*
X-2730500Y609600D01*
X-2323124Y496568D02*
Y648968D01*
X-2353924Y839468D02*
X-2203724D01*
X-2822200Y1531620D02*
X-2819306Y1528726D01*
X-4554220Y315980D02*
Y519680D01*
X-4423054Y840846D02*
X-4238240D01*
X-4554220Y709680D02*
X-4423054Y840846D01*
X-4238240D02*
X-4080040Y999046D01*
X-2825379Y742387D02*
X-2825119Y742647D01*
Y851607D01*
X-3368840Y1003746D02*
X-3353590Y1018996D01*
X-834400Y2959100D02*
Y2995700D01*
X-1558024Y2630168D02*
X-1554732Y2626876D01*
X-1489324Y571507D02*
X-1488063Y572768D01*
X-1365524D01*
X-2205004Y542288D02*
X-2152557Y489841D01*
X-2240564Y537208D02*
X-2225324Y521968D01*
X-2278684Y537208D02*
X-2240564D01*
X-2319324Y496568D02*
X-2278684Y537208D01*
X-1488724Y420368D02*
X-1365524D01*
D61*
X-2568224Y280668D02*
X-2489224D01*
X-2476524Y293368D01*
X-2491650Y206894D02*
X-2476524Y191768D01*
X-2568164Y206894D02*
X-2491650D01*
X-6897803Y1422400D02*
X-6873207Y1446996D01*
X-6908800Y1422400D02*
X-6897803D01*
X-7233740Y1446996D02*
X-7018053D01*
X-6993457Y1422400D01*
X-6982460D01*
X-6873207Y1446996D02*
X-6666740D01*
X-1256324Y102868D02*
X-1111524D01*
X-1610644Y-7612D02*
Y133840D01*
Y-7612D02*
X-1416324Y-201932D01*
X-1564924Y99068D02*
Y152778D01*
Y99068D02*
X-1416324Y-49532D01*
X-1450356Y102868D02*
X-1416324D01*
X-1454424Y255268D02*
X-1412524D01*
X-1518318Y319162D02*
X-1454424Y255268D01*
X-1692712Y470952D02*
X-1624548D01*
X-1587500Y508000D01*
X-1694464Y469199D02*
X-1692712Y470952D01*
X-2335020Y-12236D02*
X-2203264D01*
X-2335824Y-11432D02*
X-2335020Y-12236D01*
X-2203032Y-12468D02*
X-2083032D01*
X-2082800Y-12700D01*
X-2203264Y-12236D02*
X-2203032Y-12468D01*
X-1623500Y590392D02*
Y641192D01*
X-1615724Y648968D01*
X-1692712Y417434D02*
X-1601066D01*
X-1600667Y417034D01*
X-1694464Y419187D02*
X-1692712Y417434D01*
X-2679700Y330200D02*
X-2628900Y381000D01*
X-2255675D01*
X-2200496Y436179D01*
X-2679700Y38100D02*
Y330200D01*
X-1230924Y775968D02*
X-1107724D01*
X-1107090Y775334D01*
X-978534D02*
X-977900Y774700D01*
X-1107724Y860903D02*
X-1092200Y876427D01*
X-1107724Y775968D02*
Y860903D01*
X-1107090Y775334D02*
X-978534D01*
X-1092200Y876427D02*
Y939800D01*
X-2275017Y266864D02*
X-2267810Y274071D01*
X-2241821D01*
X-2354020Y266864D02*
X-2275017D01*
X-2241821Y274071D02*
X-2225324Y290568D01*
X-2380524Y293368D02*
X-2354020Y266864D01*
X-2225324Y290568D02*
X-2203905Y269149D01*
X-2276352Y222476D02*
X-2264825Y210948D01*
X-2241704D01*
X-2225324Y194568D02*
X-2200756Y219136D01*
X-2380524Y191768D02*
X-2349817Y222476D01*
X-2276352D01*
X-2241704Y210948D02*
X-2225324Y194568D01*
X-2200496Y436179D02*
X-2117344D01*
X-2203905Y269149D02*
X-2044984D01*
X-2152557Y489841D02*
X-2131916Y469199D01*
X-2044984D01*
X-2116104Y541795D02*
Y626108D01*
X-2159000Y368300D02*
X-2152936D01*
X-2103404Y318768D01*
X-2630168Y-11432D02*
X-2495824D01*
X-2679700Y38100D02*
X-2630168Y-11432D01*
X-1949724Y389504D02*
Y412168D01*
X-2044984Y369174D02*
X-1970054D01*
X-1949724Y389504D01*
X-1864768Y519212D02*
X-1694464D01*
X-1869724Y524168D02*
X-1864768Y519212D01*
X-1789724Y389504D02*
X-1769394Y369174D01*
X-1789724Y389504D02*
Y412168D01*
X-1769394Y369174D02*
X-1694464D01*
X-2117344Y436179D02*
X-2102104Y420939D01*
X-2046737Y370927D02*
X-2044984Y369174D01*
X-2102104Y420939D02*
X-2046737D01*
X-2044984Y419187D01*
X-2116104Y541795D02*
X-2095273Y520965D01*
X-2046737D01*
X-1694464Y269149D02*
X-1616637D01*
X-1694464Y319162D02*
X-1518318D01*
X-1616637Y269149D02*
X-1450356Y102868D01*
X-2045378Y318768D02*
X-2044984Y319162D01*
X-2103404Y318768D02*
X-2045378D01*
X-2200756Y219136D02*
X-2044984D01*
X-2046737Y520965D02*
X-2044984Y519212D01*
X-1111524Y102868D02*
X-1107724Y99068D01*
X-1644175Y167371D02*
X-1610644Y133840D01*
X-1416324Y-201932D02*
Y-182381D01*
X-1629530Y217384D02*
X-1564924Y152778D01*
X-1418864Y105408D02*
X-1416324Y102868D01*
X-1692712Y167371D02*
X-1644175D01*
X-1692712Y217384D02*
X-1629530D01*
X-1694464Y169124D02*
X-1692712Y167371D01*
X-1694464Y219136D02*
X-1692712Y217384D01*
X-1694000Y569689D02*
X-1644203D01*
X-1623500Y590392D01*
X-1694464Y569225D02*
X-1694000Y569689D01*
D62*
X-1538267Y557233D02*
X-1503598D01*
X-1587500Y508000D02*
X-1538267Y557233D01*
X-1493966Y571500D02*
X-1479691Y585774D01*
X-1491410Y417682D02*
X-1488724Y420368D01*
X-1596554Y417682D02*
X-1491410D01*
X-1599239Y414997D02*
X-1596554Y417682D01*
D63*
X-8900000Y1221196D02*
D03*
Y1571196D02*
D03*
X-8400000Y1221196D02*
D03*
Y1571196D02*
D03*
X-405740Y1221196D02*
D03*
Y1571196D02*
D03*
X94260Y1221196D02*
D03*
Y1571196D02*
D03*
D64*
X-8800000Y2799968D02*
D03*
Y0D02*
D03*
X0D02*
D03*
Y2800000D02*
D03*
D65*
X-292100Y2641600D02*
D03*
X-241300Y3048000D02*
D03*
X-1079500Y2730500D02*
D03*
X-508000Y2973800D02*
D03*
X-3568700Y2971800D02*
D03*
Y3060700D02*
D03*
X-3670300Y2971800D02*
D03*
Y3060700D02*
D03*
X-3848100Y2971800D02*
D03*
Y3060700D02*
D03*
X-3949700Y2971800D02*
D03*
Y3060700D02*
D03*
X-7874000Y2374900D02*
D03*
X-8064500D02*
D03*
X-8242300D02*
D03*
X-1549400Y3073400D02*
D03*
X-1905000D02*
D03*
X-2247900D02*
D03*
X-1638300Y-215900D02*
D03*
X-1803400D02*
D03*
X-1968500D02*
D03*
X-2108200D02*
D03*
X-1298740Y951696D02*
D03*
X-1476540D02*
D03*
X-2578100Y571500D02*
D03*
X-1485900Y698500D02*
D03*
X-1117600Y495300D02*
D03*
X152400Y762000D02*
D03*
X139700Y330200D02*
D03*
X-2438400Y3060700D02*
D03*
X-2743200Y3022600D02*
D03*
X-2997200Y2997200D02*
D03*
X-1384300Y3035300D02*
D03*
X-1066800Y3060700D02*
D03*
X-965200D02*
D03*
X-5689600Y2997200D02*
D03*
Y2895600D02*
D03*
X-5410200Y3060700D02*
D03*
X-5168900D02*
D03*
X-4927600D02*
D03*
X-4686300D02*
D03*
X-4457700Y3073400D02*
D03*
X-4437380Y2981960D02*
D03*
X-4681220Y2984500D02*
D03*
X-4925060Y2981960D02*
D03*
X-5166360Y2987040D02*
D03*
X-5407660Y2984500D02*
D03*
X-5613400Y3048000D02*
D03*
X-7531100Y1104900D02*
D03*
X-7683500D02*
D03*
X-7835900D02*
D03*
X-7988300D02*
D03*
X-8140700D02*
D03*
X-7467600Y1206500D02*
D03*
X-7620000D02*
D03*
X-7772400D02*
D03*
X-7924800D02*
D03*
X-8077200D02*
D03*
X-7531100Y1308100D02*
D03*
X-7683500D02*
D03*
X-7835900D02*
D03*
X-7988300D02*
D03*
X-8140700D02*
D03*
X-7454900Y1600200D02*
D03*
X-7607300D02*
D03*
X-7759700D02*
D03*
X-7912100D02*
D03*
X-8064500D02*
D03*
X-7531100Y1689100D02*
D03*
X-7683500D02*
D03*
X-7835900D02*
D03*
X-7988300D02*
D03*
X-8140700D02*
D03*
X-8064500Y1778000D02*
D03*
X-7912100D02*
D03*
X-7759700D02*
D03*
X-7607300D02*
D03*
X-7454900D02*
D03*
X-231940Y240496D02*
D03*
X-320840Y2907496D02*
D03*
X-409740Y596096D02*
D03*
Y240496D02*
D03*
X-320840Y62696D02*
D03*
X-587540Y240496D02*
D03*
X-498640Y62696D02*
D03*
X-765340Y240496D02*
D03*
X-676440Y62696D02*
D03*
X-943140Y1662896D02*
D03*
Y1307296D02*
D03*
Y951696D02*
D03*
X-854240Y773896D02*
D03*
X-943140Y596096D02*
D03*
X-854240Y418296D02*
D03*
X-943140Y240496D02*
D03*
X-854240Y62696D02*
D03*
X-943140Y-115104D02*
D03*
X-1032040Y1840696D02*
D03*
X-1120940Y1662896D02*
D03*
X-1032040Y1485096D02*
D03*
X-1120940Y1307296D02*
D03*
Y240496D02*
D03*
Y-115104D02*
D03*
X-1209840Y1840696D02*
D03*
Y1485096D02*
D03*
X-1298740Y1307296D02*
D03*
X-1387640Y1840696D02*
D03*
X-1476540Y1307296D02*
D03*
X-1565440Y1840696D02*
D03*
X-1654340Y1307296D02*
D03*
X-1743240Y1840696D02*
D03*
X-1832140Y1662896D02*
D03*
X-1743240Y1485096D02*
D03*
X-1832140Y1307296D02*
D03*
X-2721140Y-115104D02*
D03*
X-2810040Y62696D02*
D03*
X-2987840D02*
D03*
X-3165640D02*
D03*
X-3343440D02*
D03*
X-3521240D02*
D03*
X-3787940Y596096D02*
D03*
X-3699040Y62696D02*
D03*
X-3876840D02*
D03*
X-4054640D02*
D03*
X-4232440D02*
D03*
X-4499140Y951696D02*
D03*
X-4410240Y62696D02*
D03*
X-4499140Y-115104D02*
D03*
X-4676940Y951696D02*
D03*
Y-115104D02*
D03*
X-4854740Y951696D02*
D03*
X-4765840Y773896D02*
D03*
X-4854740Y596096D02*
D03*
X-4765840Y418296D02*
D03*
Y62696D02*
D03*
X-4854740Y-115104D02*
D03*
X-5032540Y951696D02*
D03*
X-4943640Y773896D02*
D03*
X-5032540Y596096D02*
D03*
X-4943640Y418296D02*
D03*
Y62696D02*
D03*
X-5210340Y1662896D02*
D03*
X-5121440Y1485096D02*
D03*
X-5210340Y1307296D02*
D03*
X-5121440Y1129496D02*
D03*
X-5210340Y951696D02*
D03*
X-5121440Y773896D02*
D03*
Y62696D02*
D03*
X-5299240Y2196296D02*
D03*
Y1840696D02*
D03*
Y1485096D02*
D03*
Y1129496D02*
D03*
Y773896D02*
D03*
X-5388140Y596096D02*
D03*
X-5299240Y62696D02*
D03*
X-5477040Y2196296D02*
D03*
X-5565940Y596096D02*
D03*
X-5477040Y418296D02*
D03*
Y62696D02*
D03*
X-5654840Y2196296D02*
D03*
X-5743740Y596096D02*
D03*
X-5654840Y418296D02*
D03*
Y62696D02*
D03*
X-5743740Y-115104D02*
D03*
X-5832640Y2196296D02*
D03*
X-7699540Y2729696D02*
D03*
Y2374096D02*
D03*
Y596096D02*
D03*
Y240496D02*
D03*
Y-115104D02*
D03*
X-7788440Y2907496D02*
D03*
X-7877340Y2729696D02*
D03*
X-7788440Y2196296D02*
D03*
X-7877340Y596096D02*
D03*
X-7788440Y418296D02*
D03*
Y62696D02*
D03*
X-7877340Y-115104D02*
D03*
X-7966240Y2907496D02*
D03*
X-8055140Y2729696D02*
D03*
X-7966240Y2196296D02*
D03*
X-8055140Y596096D02*
D03*
X-7966240Y62696D02*
D03*
X-8055140Y-115104D02*
D03*
X-8232940Y2729696D02*
D03*
Y596096D02*
D03*
Y-115104D02*
D03*
X-8321840Y2907496D02*
D03*
X-8410740Y2729696D02*
D03*
Y2374096D02*
D03*
X-8321840Y2196296D02*
D03*
X-8410740Y596096D02*
D03*
X-8321840Y418296D02*
D03*
X-8410740Y240496D02*
D03*
X-8321840Y62696D02*
D03*
X-8410740Y-115104D02*
D03*
X-8499640Y2551896D02*
D03*
X-8588540Y2374096D02*
D03*
X-8499640Y2196296D02*
D03*
X-8588540Y596096D02*
D03*
X-8499640Y418296D02*
D03*
X-8766340Y2374096D02*
D03*
X-8677440Y2196296D02*
D03*
X-8766340Y596096D02*
D03*
X-8677440Y418296D02*
D03*
X-8944140Y2374096D02*
D03*
X-8855240Y2196296D02*
D03*
X-8944140Y596096D02*
D03*
X-8855240Y418296D02*
D03*
X-4178300Y3060700D02*
D03*
Y2971800D02*
D03*
X-4076700Y3060700D02*
D03*
Y2971800D02*
D03*
X-3378200Y3073400D02*
D03*
Y2984500D02*
D03*
X-3276600Y3073400D02*
D03*
Y2984500D02*
D03*
X-3911600Y2755900D02*
D03*
X-4140200D02*
D03*
X-3987800D02*
D03*
X-4064000D02*
D03*
X-3606800D02*
D03*
X-3835400D02*
D03*
X-3683000D02*
D03*
X-3759200D02*
D03*
X-3302000Y2768600D02*
D03*
X-3530600Y2755900D02*
D03*
X-3378200D02*
D03*
X-3454400D02*
D03*
X-6982460Y1422400D02*
D03*
X-6908800D02*
D03*
X-3721100Y2273300D02*
D03*
Y2184400D02*
D03*
Y2082800D02*
D03*
Y1993900D02*
D03*
Y1905000D02*
D03*
Y1816100D02*
D03*
X-3073400Y2489200D02*
D03*
X-3162300D02*
D03*
X-4241800Y2476500D02*
D03*
X-4330700D02*
D03*
X-4521200D02*
D03*
X-4610100D02*
D03*
X-4787900Y2400300D02*
D03*
Y2489200D02*
D03*
X-4889500Y2400300D02*
D03*
Y2489200D02*
D03*
X-4991100Y2400300D02*
D03*
Y2489200D02*
D03*
X-5092700Y2400300D02*
D03*
Y2489200D02*
D03*
X-5194300Y2400300D02*
D03*
Y2489200D02*
D03*
X-5295900Y2400300D02*
D03*
Y2489200D02*
D03*
X-5384800Y2400300D02*
D03*
Y2489200D02*
D03*
X-5473700Y2400300D02*
D03*
Y2489200D02*
D03*
X-5562600Y2400300D02*
D03*
Y2489200D02*
D03*
X-769620Y2678803D02*
D03*
X-676440Y2221696D02*
D03*
X-549440Y2348696D02*
D03*
X-676440D02*
D03*
X-1014264Y2005796D02*
D03*
X-3173748Y1791876D02*
D03*
X-3555440D02*
D03*
X-2578100Y838200D02*
D03*
X-1587500Y508000D02*
D03*
X-2082800Y-12700D02*
D03*
X-1615724Y648968D02*
D03*
X-1599239Y414997D02*
D03*
X-2568164Y206894D02*
D03*
X-2568224Y280668D02*
D03*
X-977900Y774700D02*
D03*
X-2159000Y368300D02*
D03*
X-2730500Y609600D02*
D03*
X-3885758Y1791854D02*
D03*
X-3098800Y368300D02*
D03*
X-3187700D02*
D03*
X-3101902Y481488D02*
D03*
X-3190802D02*
D03*
X-3276600Y368300D02*
D03*
X-3365500D02*
D03*
X-3276600Y482600D02*
D03*
X-3365500D02*
D03*
X-3454400Y368300D02*
D03*
X-3543300D02*
D03*
X-3454400Y482600D02*
D03*
X-3543300D02*
D03*
X-3644900Y368300D02*
D03*
X-3733800D02*
D03*
Y482600D02*
D03*
X-3827475Y371203D02*
D03*
X-3916375D02*
D03*
X-3822700Y482600D02*
D03*
X-3911600D02*
D03*
X-4000500Y368300D02*
D03*
X-4089400D02*
D03*
X-4178300D02*
D03*
X-4267200D02*
D03*
X-4000500Y482600D02*
D03*
X-4089400D02*
D03*
X-4178300D02*
D03*
X-4267200D02*
D03*
X-5828484Y2796072D02*
D03*
Y2884972D02*
D03*
Y2440472D02*
D03*
Y2529372D02*
D03*
X-5930084Y2199172D02*
D03*
Y2288072D02*
D03*
X-5917684Y649772D02*
D03*
X-5828784D02*
D03*
X-5803384Y383072D02*
D03*
Y471972D02*
D03*
X-5981184Y-175728D02*
D03*
X-5892284D02*
D03*
X-5803384Y90972D02*
D03*
Y2072D02*
D03*
X-4521200Y1828800D02*
D03*
Y1917700D02*
D03*
Y2032000D02*
D03*
Y2120900D02*
D03*
X-6670840Y1967696D02*
D03*
Y1866096D02*
D03*
Y1751796D02*
D03*
Y951696D02*
D03*
X-6391440Y1319996D02*
D03*
X-6302540D02*
D03*
X-6391440Y1561296D02*
D03*
X-6302540D02*
D03*
X-6670840Y1065996D02*
D03*
Y1167596D02*
D03*
X-6543840Y913596D02*
D03*
X-6366040D02*
D03*
X-6543840Y1015196D02*
D03*
X-6366040D02*
D03*
X-6543840Y1116796D02*
D03*
X-6366040D02*
D03*
X-6543840Y1218396D02*
D03*
X-6366040D02*
D03*
X-6480340Y1319996D02*
D03*
Y1561296D02*
D03*
X-6543840Y1688296D02*
D03*
X-6366040D02*
D03*
X-6543840Y1802596D02*
D03*
X-6366040D02*
D03*
X-6543840Y1904196D02*
D03*
X-6366040D02*
D03*
X-3364940Y1791876D02*
D03*
X-3174440Y2091046D02*
D03*
X-3555440Y1938646D02*
D03*
Y2091046D02*
D03*
X-3364940Y1938646D02*
D03*
X-3174440D02*
D03*
X-3364940Y2078346D02*
D03*
X-3885640Y2091046D02*
D03*
X-4076140Y1786246D02*
D03*
X-4266640D02*
D03*
Y1938646D02*
D03*
Y2091046D02*
D03*
X-4076140Y1938646D02*
D03*
X-3885640D02*
D03*
X-4076140Y2078346D02*
D03*
X161760Y2335996D02*
D03*
Y2247096D02*
D03*
Y2158196D02*
D03*
Y2069296D02*
D03*
Y1980396D02*
D03*
X85560Y2297896D02*
D03*
Y2208996D02*
D03*
Y2120096D02*
D03*
Y2031196D02*
D03*
Y1942296D02*
D03*
X-181140Y1446996D02*
D03*
X-651040D02*
D03*
X9360Y2348696D02*
D03*
Y2247096D02*
D03*
Y2158196D02*
D03*
X11071Y2076736D02*
D03*
X9360Y1980396D02*
D03*
X-66840Y1942296D02*
D03*
Y2031196D02*
D03*
Y2120096D02*
D03*
Y2208996D02*
D03*
Y2297896D02*
D03*
X-143040Y1993096D02*
D03*
Y2081996D02*
D03*
Y2170896D02*
D03*
Y2259796D02*
D03*
Y2348696D02*
D03*
X-3140240Y2361396D02*
D03*
X-3229140D02*
D03*
X-3406940D02*
D03*
X-3495840D02*
D03*
X-3686340D02*
D03*
X-3775240D02*
D03*
X-3965740D02*
D03*
X-4054640D02*
D03*
X-4245140D02*
D03*
X-4334040D02*
D03*
X-4524540D02*
D03*
X-4613440D02*
D03*
X-549440Y2221696D02*
D03*
Y2069296D02*
D03*
X-435140D02*
D03*
X-676440D02*
D03*
X-435140Y2221696D02*
D03*
Y2348696D02*
D03*
X-2606324Y2109468D02*
D03*
Y2198368D02*
D03*
Y2287268D02*
D03*
Y2376168D02*
D03*
Y2465068D02*
D03*
X-2682524Y2058668D02*
D03*
Y2147568D02*
D03*
Y2236468D02*
D03*
Y2325368D02*
D03*
Y2414268D02*
D03*
X-2758724Y2096768D02*
D03*
Y2185668D02*
D03*
Y2274568D02*
D03*
Y2363468D02*
D03*
Y2452368D02*
D03*
X-2834924Y2414268D02*
D03*
Y2325368D02*
D03*
Y2236468D02*
D03*
Y2147568D02*
D03*
Y2058668D02*
D03*
X-2911124Y2109468D02*
D03*
Y2198368D02*
D03*
Y2287268D02*
D03*
Y2376168D02*
D03*
Y2465068D02*
D03*
D66*
X-1869724Y276168D02*
D03*
Y164168D02*
D03*
Y412168D02*
D03*
Y524168D02*
D03*
X-1949724Y276168D02*
D03*
X-1789724D02*
D03*
Y412168D02*
D03*
X-1949724D02*
D03*
%TF.MD5,963b78a6ffa8f99cc17ae94825e558f0*%
M02*
