%TF.GenerationSoftware,Altium Limited,Altium Designer,23.0.1 (38)*%
G04 Layer_Color=0*
%FSLAX45Y45*%
%MOMM*%
%TF.SameCoordinates,101474F7-9C50-4871-B5BA-03F38F38C57F*%
%TF.FilePolarity,Positive*%
%TF.FileFunction,Plated,1,4,PTH,Drill*%
%TF.Part,Single*%
G01*
G75*
%TA.AperFunction,ComponentDrill*%
%ADD161C,1.20000*%
%ADD162C,3.50000*%
%ADD163C,3.20000*%
%TA.AperFunction,ViaDrill,NotFilled*%
%ADD164C,0.30480*%
%ADD165C,0.20000*%
D161*
X-8900000Y1221196D02*
D03*
Y1571196D02*
D03*
X-8400000Y1221196D02*
D03*
Y1571196D02*
D03*
X-405740Y1221196D02*
D03*
Y1571196D02*
D03*
X94260Y1221196D02*
D03*
Y1571196D02*
D03*
D162*
X-8800000Y2799968D02*
D03*
D163*
Y0D02*
D03*
X0D02*
D03*
Y2800000D02*
D03*
D164*
X-292100Y2641600D02*
D03*
X-241300Y3048000D02*
D03*
X-1079500Y2730500D02*
D03*
X-508000Y2973800D02*
D03*
X-3568700Y2971800D02*
D03*
Y3060700D02*
D03*
X-3670300Y2971800D02*
D03*
Y3060700D02*
D03*
X-3848100Y2971800D02*
D03*
Y3060700D02*
D03*
X-3949700Y2971800D02*
D03*
Y3060700D02*
D03*
X-7874000Y2374900D02*
D03*
X-8064500D02*
D03*
X-8242300D02*
D03*
X-1549400Y3073400D02*
D03*
X-1905000D02*
D03*
X-2247900D02*
D03*
X-1638300Y-215900D02*
D03*
X-1803400D02*
D03*
X-1968500D02*
D03*
X-2108200D02*
D03*
X-1298740Y951696D02*
D03*
X-1476540D02*
D03*
X-2578100Y571500D02*
D03*
X-1485900Y698500D02*
D03*
X-1117600Y495300D02*
D03*
X152400Y762000D02*
D03*
X139700Y330200D02*
D03*
X-2438400Y3060700D02*
D03*
X-2743200Y3022600D02*
D03*
X-2997200Y2997200D02*
D03*
X-1384300Y3035300D02*
D03*
X-1066800Y3060700D02*
D03*
X-965200D02*
D03*
X-5689600Y2997200D02*
D03*
Y2895600D02*
D03*
X-5410200Y3060700D02*
D03*
X-5168900D02*
D03*
X-4927600D02*
D03*
X-4686300D02*
D03*
X-4457700Y3073400D02*
D03*
X-4437380Y2981960D02*
D03*
X-4681220Y2984500D02*
D03*
X-4925060Y2981960D02*
D03*
X-5166360Y2987040D02*
D03*
X-5407660Y2984500D02*
D03*
X-5613400Y3048000D02*
D03*
X-7531100Y1104900D02*
D03*
X-7683500D02*
D03*
X-7835900D02*
D03*
X-7988300D02*
D03*
X-8140700D02*
D03*
X-7467600Y1206500D02*
D03*
X-7620000D02*
D03*
X-7772400D02*
D03*
X-7924800D02*
D03*
X-8077200D02*
D03*
X-7531100Y1308100D02*
D03*
X-7683500D02*
D03*
X-7835900D02*
D03*
X-7988300D02*
D03*
X-8140700D02*
D03*
X-7454900Y1600200D02*
D03*
X-7607300D02*
D03*
X-7759700D02*
D03*
X-7912100D02*
D03*
X-8064500D02*
D03*
X-7531100Y1689100D02*
D03*
X-7683500D02*
D03*
X-7835900D02*
D03*
X-7988300D02*
D03*
X-8140700D02*
D03*
X-8064500Y1778000D02*
D03*
X-7912100D02*
D03*
X-7759700D02*
D03*
X-7607300D02*
D03*
X-7454900D02*
D03*
X-231940Y240496D02*
D03*
X-320840Y2907496D02*
D03*
X-409740Y596096D02*
D03*
Y240496D02*
D03*
X-320840Y62696D02*
D03*
X-587540Y240496D02*
D03*
X-498640Y62696D02*
D03*
X-765340Y240496D02*
D03*
X-676440Y62696D02*
D03*
X-943140Y1662896D02*
D03*
Y1307296D02*
D03*
Y951696D02*
D03*
X-854240Y773896D02*
D03*
X-943140Y596096D02*
D03*
X-854240Y418296D02*
D03*
X-943140Y240496D02*
D03*
X-854240Y62696D02*
D03*
X-943140Y-115104D02*
D03*
X-1032040Y1840696D02*
D03*
X-1120940Y1662896D02*
D03*
X-1032040Y1485096D02*
D03*
X-1120940Y1307296D02*
D03*
Y240496D02*
D03*
Y-115104D02*
D03*
X-1209840Y1840696D02*
D03*
Y1485096D02*
D03*
X-1298740Y1307296D02*
D03*
X-1387640Y1840696D02*
D03*
X-1476540Y1307296D02*
D03*
X-1565440Y1840696D02*
D03*
X-1654340Y1307296D02*
D03*
X-1743240Y1840696D02*
D03*
X-1832140Y1662896D02*
D03*
X-1743240Y1485096D02*
D03*
X-1832140Y1307296D02*
D03*
X-2721140Y-115104D02*
D03*
X-2810040Y62696D02*
D03*
X-2987840D02*
D03*
X-3165640D02*
D03*
X-3343440D02*
D03*
X-3521240D02*
D03*
X-3787940Y596096D02*
D03*
X-3699040Y62696D02*
D03*
X-3876840D02*
D03*
X-4054640D02*
D03*
X-4232440D02*
D03*
X-4499140Y951696D02*
D03*
X-4410240Y62696D02*
D03*
X-4499140Y-115104D02*
D03*
X-4676940Y951696D02*
D03*
Y-115104D02*
D03*
X-4854740Y951696D02*
D03*
X-4765840Y773896D02*
D03*
X-4854740Y596096D02*
D03*
X-4765840Y418296D02*
D03*
Y62696D02*
D03*
X-4854740Y-115104D02*
D03*
X-5032540Y951696D02*
D03*
X-4943640Y773896D02*
D03*
X-5032540Y596096D02*
D03*
X-4943640Y418296D02*
D03*
Y62696D02*
D03*
X-5210340Y1662896D02*
D03*
X-5121440Y1485096D02*
D03*
X-5210340Y1307296D02*
D03*
X-5121440Y1129496D02*
D03*
X-5210340Y951696D02*
D03*
X-5121440Y773896D02*
D03*
Y62696D02*
D03*
X-5299240Y2196296D02*
D03*
Y1840696D02*
D03*
Y1485096D02*
D03*
Y1129496D02*
D03*
Y773896D02*
D03*
X-5388140Y596096D02*
D03*
X-5299240Y62696D02*
D03*
X-5477040Y2196296D02*
D03*
X-5565940Y596096D02*
D03*
X-5477040Y418296D02*
D03*
Y62696D02*
D03*
X-5654840Y2196296D02*
D03*
X-5743740Y596096D02*
D03*
X-5654840Y418296D02*
D03*
Y62696D02*
D03*
X-5743740Y-115104D02*
D03*
X-5832640Y2196296D02*
D03*
X-7699540Y2729696D02*
D03*
Y2374096D02*
D03*
Y596096D02*
D03*
Y240496D02*
D03*
Y-115104D02*
D03*
X-7788440Y2907496D02*
D03*
X-7877340Y2729696D02*
D03*
X-7788440Y2196296D02*
D03*
X-7877340Y596096D02*
D03*
X-7788440Y418296D02*
D03*
Y62696D02*
D03*
X-7877340Y-115104D02*
D03*
X-7966240Y2907496D02*
D03*
X-8055140Y2729696D02*
D03*
X-7966240Y2196296D02*
D03*
X-8055140Y596096D02*
D03*
X-7966240Y62696D02*
D03*
X-8055140Y-115104D02*
D03*
X-8232940Y2729696D02*
D03*
Y596096D02*
D03*
Y-115104D02*
D03*
X-8321840Y2907496D02*
D03*
X-8410740Y2729696D02*
D03*
Y2374096D02*
D03*
X-8321840Y2196296D02*
D03*
X-8410740Y596096D02*
D03*
X-8321840Y418296D02*
D03*
X-8410740Y240496D02*
D03*
X-8321840Y62696D02*
D03*
X-8410740Y-115104D02*
D03*
X-8499640Y2551896D02*
D03*
X-8588540Y2374096D02*
D03*
X-8499640Y2196296D02*
D03*
X-8588540Y596096D02*
D03*
X-8499640Y418296D02*
D03*
X-8766340Y2374096D02*
D03*
X-8677440Y2196296D02*
D03*
X-8766340Y596096D02*
D03*
X-8677440Y418296D02*
D03*
X-8944140Y2374096D02*
D03*
X-8855240Y2196296D02*
D03*
X-8944140Y596096D02*
D03*
X-8855240Y418296D02*
D03*
X-4178300Y3060700D02*
D03*
Y2971800D02*
D03*
X-4076700Y3060700D02*
D03*
Y2971800D02*
D03*
X-3378200Y3073400D02*
D03*
Y2984500D02*
D03*
X-3276600Y3073400D02*
D03*
Y2984500D02*
D03*
X-3911600Y2755900D02*
D03*
X-4140200D02*
D03*
X-3987800D02*
D03*
X-4064000D02*
D03*
X-3606800D02*
D03*
X-3835400D02*
D03*
X-3683000D02*
D03*
X-3759200D02*
D03*
X-3302000Y2768600D02*
D03*
X-3530600Y2755900D02*
D03*
X-3378200D02*
D03*
X-3454400D02*
D03*
X-6982460Y1422400D02*
D03*
X-6908800D02*
D03*
X-3721100Y2273300D02*
D03*
Y2184400D02*
D03*
Y2082800D02*
D03*
Y1993900D02*
D03*
Y1905000D02*
D03*
Y1816100D02*
D03*
X-3073400Y2489200D02*
D03*
X-3162300D02*
D03*
X-4241800Y2476500D02*
D03*
X-4330700D02*
D03*
X-4521200D02*
D03*
X-4610100D02*
D03*
X-4787900Y2400300D02*
D03*
Y2489200D02*
D03*
X-4889500Y2400300D02*
D03*
Y2489200D02*
D03*
X-4991100Y2400300D02*
D03*
Y2489200D02*
D03*
X-5092700Y2400300D02*
D03*
Y2489200D02*
D03*
X-5194300Y2400300D02*
D03*
Y2489200D02*
D03*
X-5295900Y2400300D02*
D03*
Y2489200D02*
D03*
X-5384800Y2400300D02*
D03*
Y2489200D02*
D03*
X-5473700Y2400300D02*
D03*
Y2489200D02*
D03*
X-5562600Y2400300D02*
D03*
Y2489200D02*
D03*
X-769620Y2678803D02*
D03*
X-676440Y2221696D02*
D03*
X-549440Y2348696D02*
D03*
X-676440D02*
D03*
X-1014264Y2005796D02*
D03*
X-3173748Y1791876D02*
D03*
X-3555440D02*
D03*
X-2578100Y838200D02*
D03*
X-1587500Y508000D02*
D03*
X-2082800Y-12700D02*
D03*
X-1615724Y648968D02*
D03*
X-1599239Y414997D02*
D03*
X-2568164Y206894D02*
D03*
X-2568224Y280668D02*
D03*
X-977900Y774700D02*
D03*
X-2159000Y368300D02*
D03*
X-2730500Y609600D02*
D03*
X-3885758Y1791854D02*
D03*
X-3098800Y368300D02*
D03*
X-3187700D02*
D03*
X-3101902Y481488D02*
D03*
X-3190802D02*
D03*
X-3276600Y368300D02*
D03*
X-3365500D02*
D03*
X-3276600Y482600D02*
D03*
X-3365500D02*
D03*
X-3454400Y368300D02*
D03*
X-3543300D02*
D03*
X-3454400Y482600D02*
D03*
X-3543300D02*
D03*
X-3644900Y368300D02*
D03*
X-3733800D02*
D03*
Y482600D02*
D03*
X-3827475Y371203D02*
D03*
X-3916375D02*
D03*
X-3822700Y482600D02*
D03*
X-3911600D02*
D03*
X-4000500Y368300D02*
D03*
X-4089400D02*
D03*
X-4178300D02*
D03*
X-4267200D02*
D03*
X-4000500Y482600D02*
D03*
X-4089400D02*
D03*
X-4178300D02*
D03*
X-4267200D02*
D03*
X-5828484Y2796072D02*
D03*
Y2884972D02*
D03*
Y2440472D02*
D03*
Y2529372D02*
D03*
X-5930084Y2199172D02*
D03*
Y2288072D02*
D03*
X-5917684Y649772D02*
D03*
X-5828784D02*
D03*
X-5803384Y383072D02*
D03*
Y471972D02*
D03*
X-5981184Y-175728D02*
D03*
X-5892284D02*
D03*
X-5803384Y90972D02*
D03*
Y2072D02*
D03*
X-4521200Y1828800D02*
D03*
Y1917700D02*
D03*
Y2032000D02*
D03*
Y2120900D02*
D03*
X-6670840Y1967696D02*
D03*
Y1866096D02*
D03*
Y1751796D02*
D03*
Y951696D02*
D03*
X-6391440Y1319996D02*
D03*
X-6302540D02*
D03*
X-6391440Y1561296D02*
D03*
X-6302540D02*
D03*
X-6670840Y1065996D02*
D03*
Y1167596D02*
D03*
X-6543840Y913596D02*
D03*
X-6366040D02*
D03*
X-6543840Y1015196D02*
D03*
X-6366040D02*
D03*
X-6543840Y1116796D02*
D03*
X-6366040D02*
D03*
X-6543840Y1218396D02*
D03*
X-6366040D02*
D03*
X-6480340Y1319996D02*
D03*
Y1561296D02*
D03*
X-6543840Y1688296D02*
D03*
X-6366040D02*
D03*
X-6543840Y1802596D02*
D03*
X-6366040D02*
D03*
X-6543840Y1904196D02*
D03*
X-6366040D02*
D03*
X-3364940Y1791876D02*
D03*
X-3174440Y2091046D02*
D03*
X-3555440Y1938646D02*
D03*
Y2091046D02*
D03*
X-3364940Y1938646D02*
D03*
X-3174440D02*
D03*
X-3364940Y2078346D02*
D03*
X-3885640Y2091046D02*
D03*
X-4076140Y1786246D02*
D03*
X-4266640D02*
D03*
Y1938646D02*
D03*
Y2091046D02*
D03*
X-4076140Y1938646D02*
D03*
X-3885640D02*
D03*
X-4076140Y2078346D02*
D03*
X161760Y2335996D02*
D03*
Y2247096D02*
D03*
Y2158196D02*
D03*
Y2069296D02*
D03*
Y1980396D02*
D03*
X85560Y2297896D02*
D03*
Y2208996D02*
D03*
Y2120096D02*
D03*
Y2031196D02*
D03*
Y1942296D02*
D03*
X-181140Y1446996D02*
D03*
X-651040D02*
D03*
X9360Y2348696D02*
D03*
Y2247096D02*
D03*
Y2158196D02*
D03*
X11071Y2076736D02*
D03*
X9360Y1980396D02*
D03*
X-66840Y1942296D02*
D03*
Y2031196D02*
D03*
Y2120096D02*
D03*
Y2208996D02*
D03*
Y2297896D02*
D03*
X-143040Y1993096D02*
D03*
Y2081996D02*
D03*
Y2170896D02*
D03*
Y2259796D02*
D03*
Y2348696D02*
D03*
X-3140240Y2361396D02*
D03*
X-3229140D02*
D03*
X-3406940D02*
D03*
X-3495840D02*
D03*
X-3686340D02*
D03*
X-3775240D02*
D03*
X-3965740D02*
D03*
X-4054640D02*
D03*
X-4245140D02*
D03*
X-4334040D02*
D03*
X-4524540D02*
D03*
X-4613440D02*
D03*
X-549440Y2221696D02*
D03*
Y2069296D02*
D03*
X-435140D02*
D03*
X-676440D02*
D03*
X-435140Y2221696D02*
D03*
Y2348696D02*
D03*
X-2606324Y2109468D02*
D03*
Y2198368D02*
D03*
Y2287268D02*
D03*
Y2376168D02*
D03*
Y2465068D02*
D03*
X-2682524Y2058668D02*
D03*
Y2147568D02*
D03*
Y2236468D02*
D03*
Y2325368D02*
D03*
Y2414268D02*
D03*
X-2758724Y2096768D02*
D03*
Y2185668D02*
D03*
Y2274568D02*
D03*
Y2363468D02*
D03*
Y2452368D02*
D03*
X-2834924Y2414268D02*
D03*
Y2325368D02*
D03*
Y2236468D02*
D03*
Y2147568D02*
D03*
Y2058668D02*
D03*
X-2911124Y2109468D02*
D03*
Y2198368D02*
D03*
Y2287268D02*
D03*
Y2376168D02*
D03*
Y2465068D02*
D03*
D165*
X-1869724Y276168D02*
D03*
Y164168D02*
D03*
Y412168D02*
D03*
Y524168D02*
D03*
X-1949724Y276168D02*
D03*
X-1789724D02*
D03*
Y412168D02*
D03*
X-1949724D02*
D03*
%TF.MD5,bf44a84727f612b0957f413a0b97c81e*%
M02*
