%TF.GenerationSoftware,Altium Limited,Altium Designer,23.0.1 (38)*%
G04 Layer_Color=16711935*
%FSLAX45Y45*%
%MOMM*%
%TF.SameCoordinates,101474F7-9C50-4871-B5BA-03F38F38C57F*%
%TF.FilePolarity,Positive*%
%TF.FileFunction,Other,Mechanical_13*%
%TF.Part,Single*%
G01*
G75*
%TA.AperFunction,NonConductor*%
%ADD71C,0.10000*%
%ADD74C,0.12700*%
%ADD154C,0.50800*%
%ADD155C,0.02540*%
%ADD156C,0.07620*%
%ADD157R,1.19570X8.89000*%
%ADD158R,1.88300X12.80000*%
D71*
X-2435524Y1917718D02*
X-2236774Y2116468D01*
X-1405524D01*
Y1086468D02*
Y2116468D01*
X-2236774Y1086468D02*
X-1405524D01*
X-2435524Y1285218D02*
X-2236774Y1086468D01*
X-2435524Y1285218D02*
Y1917718D01*
X-7319274Y-221632D02*
X-7120524Y-22882D01*
X-8150524Y-221632D02*
X-7319274D01*
X-8150524D02*
Y808368D01*
X-7319274D01*
X-7120524Y609618D01*
Y-22882D02*
Y609618D01*
X-7306574Y2026268D02*
X-7107824Y2225018D01*
X-8137824Y2026268D02*
X-7306574D01*
X-8137824D02*
Y3056268D01*
X-7306574D01*
X-7107824Y2857518D01*
Y2225018D02*
Y2857518D01*
X-4483100Y505460D02*
Y723900D01*
X-4625340Y505460D02*
Y723900D01*
X-4483100D01*
X-4625340Y505460D02*
X-4483100D01*
X-4481720Y110980D02*
Y330980D01*
X-4626720Y110980D02*
Y330980D01*
X-4481720D01*
X-4626720Y110980D02*
X-4481720D01*
X-6224424Y696468D02*
X-6049424D01*
X-6224424Y601468D02*
X-6049424D01*
X-6224424D02*
Y696468D01*
X-6049424Y601468D02*
Y696468D01*
X-3385860Y2484716D02*
Y2659716D01*
X-3290860Y2484716D02*
Y2659716D01*
X-3385860Y2484716D02*
X-3290860D01*
X-3385860Y2659716D02*
X-3290860D01*
X-632460Y756920D02*
X-76200D01*
X-632460Y360680D02*
X-76200D01*
X-632460D02*
Y756920D01*
X-76200Y360680D02*
Y756920D01*
X-6276624Y181608D02*
X-5946424D01*
X-6276624Y-77472D02*
X-5946424D01*
X-6276624D02*
Y181608D01*
X-5946424Y-77472D02*
Y181608D01*
X-6276624Y278128D02*
X-5946424D01*
X-6276624Y537208D02*
X-5946424D01*
Y278128D02*
Y537208D01*
X-6276624Y278128D02*
Y537208D01*
Y2703828D02*
X-5946424D01*
X-6276624Y2962908D02*
X-5946424D01*
Y2703828D02*
Y2962908D01*
X-6276624Y2703828D02*
Y2962908D01*
X-6276324Y2348228D02*
X-5946124D01*
X-6276324Y2607308D02*
X-5946124D01*
Y2348228D02*
Y2607308D01*
X-6276324Y2348228D02*
Y2607308D01*
X-2770840Y2610496D02*
Y2950496D01*
X-2950840Y2610496D02*
Y2950496D01*
X-2770840D01*
X-2950840Y2610496D02*
X-2770840D01*
X-3037540D02*
Y2950496D01*
X-3217540Y2610496D02*
Y2950496D01*
X-3037540D01*
X-3217540Y2610496D02*
X-3037540D01*
X-4230824Y2599868D02*
Y2939868D01*
X-4410824Y2599868D02*
Y2939868D01*
X-4230824D01*
X-4410824Y2599868D02*
X-4230824D01*
X-1044700Y932300D02*
Y1107300D01*
X-1139700Y932300D02*
Y1107300D01*
X-1044700D01*
X-1139700Y932300D02*
X-1044700D01*
X-1398424Y728468D02*
X-1223424D01*
X-1398424Y823468D02*
X-1223424D01*
Y728468D02*
Y823468D01*
X-1398424Y728468D02*
Y823468D01*
X-4472124Y2599868D02*
Y2939868D01*
X-4652124Y2599868D02*
Y2939868D01*
X-4472124D01*
X-4652124Y2599868D02*
X-4472124D01*
X-1324724Y2701468D02*
Y3041468D01*
X-1144724Y2701468D02*
Y3041468D01*
X-1324724Y2701468D02*
X-1144724D01*
X-1324724Y3041468D02*
X-1144724D01*
X-1001900Y2911600D02*
X-826900D01*
X-1001900Y3006600D02*
X-826900D01*
Y2911600D02*
Y3006600D01*
X-1001900Y2911600D02*
Y3006600D01*
X-2490624Y544068D02*
X-2315624D01*
X-2490624Y449068D02*
X-2315624D01*
X-2490624D02*
Y544068D01*
X-2315624Y449068D02*
Y544068D01*
X-2365024Y3074668D02*
X-1476024D01*
X-2365024Y2185668D02*
X-1476024D01*
X-2365024D02*
Y3074668D01*
X-1476024Y2185668D02*
Y3074668D01*
X-2696324Y2706768D02*
Y3046768D01*
X-2516324Y2706768D02*
Y3046768D01*
X-2696324Y2706768D02*
X-2516324D01*
X-2696324Y3046768D02*
X-2516324D01*
X-1248824Y-249432D02*
Y-154432D01*
X-1423824Y-249432D02*
Y-154432D01*
Y-249432D02*
X-1248824D01*
X-1423824Y-154432D02*
X-1248824D01*
X-1423824Y-2032D02*
X-1248824D01*
X-1423824Y-97032D02*
X-1248824D01*
X-1423824D02*
Y-2032D01*
X-1248824Y-97032D02*
Y-2032D01*
X-2503324Y-58932D02*
Y36068D01*
X-2328324Y-58932D02*
Y36068D01*
X-2503324D02*
X-2328324D01*
X-2503324Y-58932D02*
X-2328324D01*
X-2490624Y601468D02*
X-2315624D01*
X-2490624Y696468D02*
X-2315624D01*
Y601468D02*
Y696468D01*
X-2490624Y601468D02*
Y696468D01*
X-2659424Y749468D02*
Y929468D01*
X-2375424Y749468D02*
Y929468D01*
X-2659424D02*
X-2375424D01*
X-2659424Y749468D02*
X-2375424D01*
X-2046100Y790700D02*
Y885700D01*
X-2221100Y790700D02*
Y885700D01*
Y790700D02*
X-2046100D01*
X-2221100Y885700D02*
X-2046100D01*
X-1198024Y372868D02*
Y467868D01*
X-1373024Y372868D02*
Y467868D01*
Y372868D02*
X-1198024D01*
X-1373024Y467868D02*
X-1198024D01*
Y525268D02*
Y620268D01*
X-1373024Y525268D02*
Y620268D01*
Y525268D02*
X-1198024D01*
X-1373024Y620268D02*
X-1198024D01*
X-1420024Y302768D02*
X-1245024D01*
X-1420024Y207768D02*
X-1245024D01*
X-1420024D02*
Y302768D01*
X-1245024Y207768D02*
Y302768D01*
X-1248824Y55368D02*
Y150368D01*
X-1423824Y55368D02*
Y150368D01*
Y55368D02*
X-1248824D01*
X-1423824Y150368D02*
X-1248824D01*
X-944024Y55368D02*
Y150368D01*
X-1119024Y55368D02*
Y150368D01*
Y55368D02*
X-944024D01*
X-1119024Y150368D02*
X-944024D01*
X-4893424Y2599868D02*
X-4713424D01*
X-4893424Y2939868D02*
X-4713424D01*
X-4893424Y2599868D02*
Y2939868D01*
X-4713424Y2599868D02*
Y2939868D01*
X-3688120Y2483436D02*
X-3593120D01*
X-3688120Y2658436D02*
X-3593120D01*
X-3688120Y2483436D02*
Y2658436D01*
X-3593120Y2483436D02*
Y2658436D01*
X-3535720Y2658436D02*
X-3440720D01*
X-3535720Y2483436D02*
X-3440720D01*
Y2658436D01*
X-3535720Y2483436D02*
Y2658436D01*
X-3845600D02*
X-3750600D01*
X-3845600Y2483436D02*
X-3750600D01*
Y2658436D01*
X-3845600Y2483436D02*
Y2658436D01*
X-3998000Y2483436D02*
X-3903000D01*
X-3998000Y2658436D02*
X-3903000D01*
X-3998000Y2483436D02*
Y2658436D01*
X-3903000Y2483436D02*
Y2658436D01*
X-4150400Y2483436D02*
X-4055400D01*
X-4150400Y2658436D02*
X-4055400D01*
X-4150400Y2483436D02*
Y2658436D01*
X-4055400Y2483436D02*
Y2658436D01*
X-5376540Y2597796D02*
X-5196540D01*
X-5376540Y2937796D02*
X-5196540D01*
X-5376540Y2597796D02*
Y2937796D01*
X-5196540Y2597796D02*
Y2937796D01*
X-4688140Y810796D02*
Y2090796D01*
X-6088140Y810796D02*
Y2090796D01*
Y810796D02*
X-4688140D01*
X-6088140Y2090796D02*
X-4688140D01*
X-658000Y2711300D02*
X-358000D01*
X-658000Y2851300D02*
X-358000D01*
X-658000Y2711300D02*
Y2851300D01*
X-358000Y2711300D02*
Y2851300D01*
X-6049124Y2201668D02*
Y2296668D01*
X-6224124Y2201668D02*
Y2296668D01*
Y2201668D02*
X-6049124D01*
X-6224124Y2296668D02*
X-6049124D01*
X-1566324Y728468D02*
Y823468D01*
X-1741324Y728468D02*
Y823468D01*
Y728468D02*
X-1566324D01*
X-1741324Y823468D02*
X-1566324D01*
X-5134724Y2599868D02*
X-4954724D01*
X-5134724Y2939868D02*
X-4954724D01*
X-5134724Y2599868D02*
Y2939868D01*
X-4954724Y2599868D02*
Y2939868D01*
X-5617324D02*
X-5437324D01*
X-5617324Y2599868D02*
X-5437324D01*
Y2939868D01*
X-5617324Y2599868D02*
Y2939868D01*
D74*
X-6620240Y1276996D02*
Y1616996D01*
X-7280240Y1276996D02*
Y1616996D01*
Y1276996D02*
X-6620240D01*
X-7280240Y1616996D02*
X-6620240D01*
D154*
X-8171400Y1571196D02*
G03*
X-8171400Y1571196I-38100J0D01*
G01*
X-558140Y1221196D02*
G03*
X-558140Y1221196I-38100J0D01*
G01*
D155*
X-8903400Y1891196D02*
X-8315000D01*
X-8903400Y1816196D02*
Y1891196D01*
X-8315000Y1816196D02*
Y1891196D01*
X-9652500Y1096196D02*
Y1406196D01*
Y1446196D02*
Y1756196D01*
Y1096196D02*
X-9435000D01*
X-9652500Y1446196D02*
X-9435000D01*
X-9652500Y1406196D02*
X-9435000D01*
X-9652500Y1756196D02*
X-9435000D01*
Y1816196D02*
X-7985000D01*
X-9435000Y966196D02*
Y1816196D01*
Y966196D02*
X-7985000D01*
Y1816196D01*
X-820740Y976196D02*
Y1826196D01*
X629260D01*
Y976196D02*
Y1826196D01*
X-820740Y976196D02*
X629260D01*
Y1036196D02*
X846760D01*
X629260Y1386196D02*
X846760D01*
X629260Y1346196D02*
X846760D01*
X629260Y1696196D02*
X846760D01*
Y1036196D02*
Y1346196D01*
Y1386196D02*
Y1696196D01*
X-490740Y901196D02*
Y976196D01*
X97660Y901196D02*
Y976196D01*
X-490740Y901196D02*
X97660D01*
X-1689384Y64768D02*
Y623568D01*
X-2050064Y64768D02*
X-1689384D01*
X-2050064D02*
Y623568D01*
X-1689384D01*
X-1816384Y64768D02*
X-1689384Y191768D01*
D156*
X-1762974Y63109D02*
X-1847614Y147748D01*
X-1762974D02*
X-1847614Y63109D01*
X-1762974Y105429D02*
X-1847614D01*
X-1805294Y147748D02*
Y63109D01*
D157*
X-1535903Y2630117D02*
D03*
D158*
X-4782290Y1450796D02*
D03*
%TF.MD5,ceafdca4257a3fbd3c165adaebaadd64*%
M02*
