%TF.GenerationSoftware,Altium Limited,Altium Designer,23.0.1 (38)*%
G04 Layer_Color=0*
%FSLAX45Y45*%
%MOMM*%
%TF.SameCoordinates,3EE063B3-4F93-4FDD-BE50-ED7C6B7A8C7B*%
%TF.FilePolarity,Positive*%
%TF.FileFunction,Plated,1,4,PTH,Drill*%
%TF.Part,Single*%
G01*
G75*
%TA.AperFunction,ComponentDrill*%
%ADD121C,1.00000*%
%ADD122C,1.00000*%
%ADD123C,3.50000*%
%TA.AperFunction,ViaDrill,NotFilled*%
%ADD124C,0.30480*%
%ADD125C,0.20000*%
D121*
X279400Y1473200D02*
D03*
Y965200D02*
D03*
X8991600Y939800D02*
D03*
Y1447800D02*
D03*
D122*
X6096000Y0D02*
D03*
X5842000D02*
D03*
X5588000D02*
D03*
X5334000D02*
D03*
D123*
X0Y2667000D02*
D03*
Y0D02*
D03*
X9321800D02*
D03*
Y2667000D02*
D03*
D124*
X6032500Y2374900D02*
D03*
X5981700Y2082800D02*
D03*
X9372600Y1168400D02*
D03*
X9245600Y914400D02*
D03*
Y406400D02*
D03*
X8991600D02*
D03*
Y-101600D02*
D03*
X8864600Y2692400D02*
D03*
X8737600Y914400D02*
D03*
Y406400D02*
D03*
X8864600Y152400D02*
D03*
X8737600Y-101600D02*
D03*
X8610600Y2692400D02*
D03*
X8483600Y1422400D02*
D03*
X8610600Y1168400D02*
D03*
X8483600Y914400D02*
D03*
Y406400D02*
D03*
X8610600Y152400D02*
D03*
X8483600Y-101600D02*
D03*
X8229600Y1930400D02*
D03*
X8356600Y1168400D02*
D03*
X8229600Y914400D02*
D03*
X8356600Y660400D02*
D03*
Y152400D02*
D03*
X8229600Y-101600D02*
D03*
X7975600Y914400D02*
D03*
X8102600Y660400D02*
D03*
X7975600Y-101600D02*
D03*
X7721600Y1422400D02*
D03*
X7848600Y1168400D02*
D03*
X7721600Y914400D02*
D03*
X7848600Y660400D02*
D03*
X7721600Y-101600D02*
D03*
X7467600Y2438400D02*
D03*
Y1930400D02*
D03*
X7594600Y1676400D02*
D03*
Y1168400D02*
D03*
X7467600Y914400D02*
D03*
X7594600Y660400D02*
D03*
X7467600Y-101600D02*
D03*
X7340600Y660400D02*
D03*
X7213600Y-101600D02*
D03*
X7086600Y660400D02*
D03*
X6959600Y-101600D02*
D03*
X6705600Y914400D02*
D03*
X6832600Y660400D02*
D03*
X6705600Y406400D02*
D03*
X6832600Y152400D02*
D03*
X6705600Y-101600D02*
D03*
X6451600Y1930400D02*
D03*
Y1422400D02*
D03*
X6578600Y1168400D02*
D03*
Y660400D02*
D03*
X6451600Y406400D02*
D03*
X6578600Y152400D02*
D03*
X6451600Y-101600D02*
D03*
X6324600Y1168400D02*
D03*
Y152400D02*
D03*
X6070600Y2692400D02*
D03*
X5943600Y914400D02*
D03*
X5816600Y2692400D02*
D03*
X5562600D02*
D03*
X5308600D02*
D03*
X5181600Y1930400D02*
D03*
X5054600Y2692400D02*
D03*
Y1676400D02*
D03*
X4927600Y406400D02*
D03*
Y-101600D02*
D03*
X4800600Y2692400D02*
D03*
X4673600Y406400D02*
D03*
X4800600Y152400D02*
D03*
X4673600Y-101600D02*
D03*
X4546600Y152400D02*
D03*
X4419600Y-101600D02*
D03*
X4292600Y152400D02*
D03*
X4165600Y-101600D02*
D03*
X4038600Y152400D02*
D03*
X3911600Y-101600D02*
D03*
X3657600Y914400D02*
D03*
X3784600Y660400D02*
D03*
X3657600Y406400D02*
D03*
X3784600Y152400D02*
D03*
X3657600Y-101600D02*
D03*
X3530600Y2692400D02*
D03*
Y1676400D02*
D03*
X3403600Y914400D02*
D03*
X3530600Y660400D02*
D03*
X3403600Y406400D02*
D03*
X3530600Y152400D02*
D03*
X3276600Y2692400D02*
D03*
Y1676400D02*
D03*
X3149600Y1422400D02*
D03*
X3276600Y1168400D02*
D03*
X3149600Y914400D02*
D03*
X3276600Y660400D02*
D03*
X3149600Y406400D02*
D03*
X3276600Y152400D02*
D03*
X3022600Y2692400D02*
D03*
X2895600Y2438400D02*
D03*
X3022600Y2184400D02*
D03*
Y1676400D02*
D03*
Y1168400D02*
D03*
Y660400D02*
D03*
X2895600Y406400D02*
D03*
X3022600Y152400D02*
D03*
X2768600Y2692400D02*
D03*
X2641600Y2438400D02*
D03*
X2768600Y2184400D02*
D03*
Y660400D02*
D03*
X2641600Y406400D02*
D03*
X2768600Y152400D02*
D03*
X2641600Y-101600D02*
D03*
X2514600Y2692400D02*
D03*
Y2184400D02*
D03*
Y660400D02*
D03*
Y152400D02*
D03*
X2260600Y660400D02*
D03*
X863600Y-101600D02*
D03*
X736600Y2692400D02*
D03*
X609600Y2438400D02*
D03*
X736600Y2184400D02*
D03*
X609600Y1930400D02*
D03*
Y914400D02*
D03*
Y406400D02*
D03*
X736600Y152400D02*
D03*
X609600Y-101600D02*
D03*
X482600Y2692400D02*
D03*
X355600Y2438400D02*
D03*
X482600Y2184400D02*
D03*
X355600Y1930400D02*
D03*
X482600Y660400D02*
D03*
X355600Y406400D02*
D03*
X482600Y152400D02*
D03*
X355600Y-101600D02*
D03*
X228600Y2184400D02*
D03*
X101600Y1930400D02*
D03*
X228600Y660400D02*
D03*
X101600Y406400D02*
D03*
X-25400Y2184400D02*
D03*
X-152400Y1930400D02*
D03*
X-25400Y660400D02*
D03*
X-152400Y406400D02*
D03*
X6197600Y1473200D02*
D03*
X6210300Y1333500D02*
D03*
X6223000Y1219200D02*
D03*
Y1092200D02*
D03*
X5905500Y1435100D02*
D03*
X5981700Y1308100D02*
D03*
X5918200Y1117600D02*
D03*
X5880100Y1016000D02*
D03*
X5143500Y1270000D02*
D03*
X4178300Y2032000D02*
D03*
X8610600Y1790700D02*
D03*
X8737600Y1752600D02*
D03*
X8890000D02*
D03*
X9118600D02*
D03*
Y1892300D02*
D03*
Y2044700D02*
D03*
Y2184400D02*
D03*
Y2311400D02*
D03*
X8750300Y2286000D02*
D03*
Y2159000D02*
D03*
Y2006600D02*
D03*
X8864600D02*
D03*
X8623300D02*
D03*
X8864600Y2159000D02*
D03*
X8623300D02*
D03*
X8864600Y2286000D02*
D03*
X8623300D02*
D03*
X4953000Y1625600D02*
D03*
X5092700Y1752600D02*
D03*
X4368800Y1892300D02*
D03*
X4178300D02*
D03*
X3987800Y2044700D02*
D03*
Y1892300D02*
D03*
Y1739900D02*
D03*
X4178300D02*
D03*
X4368800D02*
D03*
Y2044700D02*
D03*
X1155700Y-177800D02*
D03*
X1028700D02*
D03*
X952500Y-114300D02*
D03*
Y-38100D02*
D03*
Y114300D02*
D03*
Y203200D02*
D03*
Y304800D02*
D03*
Y457200D02*
D03*
Y533400D02*
D03*
X850900D02*
D03*
X863600Y698500D02*
D03*
Y800100D02*
D03*
X889000Y952500D02*
D03*
X1003300Y977900D02*
D03*
X876300Y1752600D02*
D03*
X825500Y1905000D02*
D03*
X889000Y1968500D02*
D03*
X952500Y2044700D02*
D03*
Y2222500D02*
D03*
Y2311400D02*
D03*
Y2413000D02*
D03*
Y2578100D02*
D03*
Y2667000D02*
D03*
X1028700Y2717800D02*
D03*
X1168400D02*
D03*
X2095500D02*
D03*
X2235200D02*
D03*
X2324100Y2654300D02*
D03*
Y2565400D02*
D03*
Y2413000D02*
D03*
Y2336800D02*
D03*
Y2247900D02*
D03*
Y2082800D02*
D03*
Y2006600D02*
D03*
X2159000Y1943100D02*
D03*
X2019300Y1879600D02*
D03*
X2108200Y1866900D02*
D03*
X2019300Y1689100D02*
D03*
X2032000Y838200D02*
D03*
Y647700D02*
D03*
X2146300Y622300D02*
D03*
X2362200Y546100D02*
D03*
Y457200D02*
D03*
X2336800Y152400D02*
D03*
Y-63500D02*
D03*
X2324100Y-177800D02*
D03*
X2171700Y-165100D02*
D03*
X3848100Y558800D02*
D03*
X3771900D02*
D03*
X3849193Y487057D02*
D03*
X3772993D02*
D03*
X3848100Y419100D02*
D03*
X3771900D02*
D03*
Y342900D02*
D03*
X3848100D02*
D03*
X4305300D02*
D03*
X4229100D02*
D03*
X4152900D02*
D03*
X4076700D02*
D03*
X4000500D02*
D03*
X5219700Y546100D02*
D03*
X5321300D02*
D03*
X5829300Y571500D02*
D03*
X5664200Y292100D02*
D03*
X5727700Y203200D02*
D03*
X5892800D02*
D03*
X5943600Y292100D02*
D03*
X6413500Y1816100D02*
D03*
X6489700Y1651000D02*
D03*
X6642100D02*
D03*
X8204200Y76200D02*
D03*
X8191500Y495300D02*
D03*
X8369300Y304800D02*
D03*
X8534400Y1536700D02*
D03*
X8559800Y1358900D02*
D03*
X8293100Y1320800D02*
D03*
X8280400Y1854200D02*
D03*
X8115300Y1587500D02*
D03*
X7975600Y1701800D02*
D03*
X4521200Y2057400D02*
D03*
X4610100D02*
D03*
X4521200Y2133600D02*
D03*
X4610100D02*
D03*
X4521200Y2209800D02*
D03*
X4610100D02*
D03*
X4584700Y2387600D02*
D03*
Y2286000D02*
D03*
X4508500Y2387600D02*
D03*
Y2286000D02*
D03*
X4432300Y2387600D02*
D03*
Y2286000D02*
D03*
X4356100Y2387600D02*
D03*
Y2286000D02*
D03*
X4279900Y2387600D02*
D03*
Y2286000D02*
D03*
X4203700Y2387600D02*
D03*
Y2286000D02*
D03*
X4127500Y2387600D02*
D03*
Y2286000D02*
D03*
X4051300Y2387600D02*
D03*
Y2286000D02*
D03*
X3975100Y2387600D02*
D03*
Y2286000D02*
D03*
X3898900Y2387600D02*
D03*
Y2286000D02*
D03*
X3810000Y2387600D02*
D03*
X3708400D02*
D03*
X3810000Y2311400D02*
D03*
X3708400D02*
D03*
X3810000Y2235200D02*
D03*
X3708400D02*
D03*
X3810000Y2159000D02*
D03*
X3708400D02*
D03*
Y2082800D02*
D03*
X3810000D02*
D03*
X6667500Y2286000D02*
D03*
Y2374900D02*
D03*
Y2463800D02*
D03*
Y2552700D02*
D03*
Y2641600D02*
D03*
X6591300Y2235200D02*
D03*
Y2324100D02*
D03*
Y2413000D02*
D03*
Y2501900D02*
D03*
Y2590800D02*
D03*
X6515100Y2273300D02*
D03*
Y2362200D02*
D03*
Y2451100D02*
D03*
Y2540000D02*
D03*
Y2628900D02*
D03*
X6438900Y2590800D02*
D03*
Y2501900D02*
D03*
Y2413000D02*
D03*
Y2324100D02*
D03*
Y2235200D02*
D03*
X6362700Y2286000D02*
D03*
Y2374900D02*
D03*
Y2463800D02*
D03*
Y2552700D02*
D03*
Y2641600D02*
D03*
X4856480Y1427480D02*
D03*
X4902200Y1516380D02*
D03*
X1858010Y1262380D02*
D03*
X1784350D02*
D03*
X5675630Y551180D02*
D03*
X5601970D02*
D03*
X5196840Y1661160D02*
D03*
X4864100Y596900D02*
D03*
X5438140Y932180D02*
D03*
X5506720Y1008478D02*
D03*
X6250940Y782690D02*
D03*
X5948680Y784860D02*
D03*
X5466371Y1540485D02*
D03*
X5232400Y1524000D02*
D03*
X6070600Y1145540D02*
D03*
X5029200Y1270000D02*
D03*
X4546600Y457200D02*
D03*
X4603000Y1193800D02*
D03*
D125*
X5605200Y1270000D02*
D03*
X5717200D02*
D03*
X5469200D02*
D03*
X5357200D02*
D03*
X5605200Y1190000D02*
D03*
Y1350000D02*
D03*
X5469200D02*
D03*
Y1190000D02*
D03*
%TF.MD5,6c347a6b37b8b7d9066d4ada51fae97a*%
M02*
