%TF.GenerationSoftware,Altium Limited,Altium Designer,23.0.1 (38)*%
G04 Layer_Physical_Order=1*
G04 Layer_Color=255*
%FSLAX45Y45*%
%MOMM*%
%TF.SameCoordinates,3EE063B3-4F93-4FDD-BE50-ED7C6B7A8C7B*%
%TF.FilePolarity,Positive*%
%TF.FileFunction,Copper,L1,Top,Signal*%
%TF.Part,Single*%
G01*
G75*
%TA.AperFunction,SMDPad,CuDef*%
%AMCUSTOMSHAPE10*
4,1,6,-0.47500,-0.35060,-0.47500,0.35060,-0.32560,0.50000,0.47500,0.50000,0.47500,-0.50000,-0.32560,-0.50000,-0.47500,-0.35060,0.0*%
%ADD10CUSTOMSHAPE10*%

%AMCUSTOMSHAPE11*
4,1,6,-0.47500,-0.50000,-0.47500,0.50000,0.32560,0.50000,0.47500,0.35060,0.47500,-0.35060,0.32560,-0.50000,-0.47500,-0.50000,0.0*%
%ADD11CUSTOMSHAPE11*%

%AMCUSTOMSHAPE12*
4,1,6,-0.31000,0.19950,-0.22450,0.28500,0.22450,0.28500,0.31000,0.19950,0.31000,-0.28500,-0.31000,-0.28500,-0.31000,0.19950,0.0*%
%ADD12CUSTOMSHAPE12*%

%AMCUSTOMSHAPE13*
4,1,6,-0.31000,0.28500,-0.31000,-0.19950,-0.22450,-0.28500,0.22450,-0.28500,0.31000,-0.19950,0.31000,0.28500,-0.31000,0.28500,0.0*%
%ADD13CUSTOMSHAPE13*%

%AMCUSTOMSHAPE14*
4,1,6,0.90000,-0.57500,-0.90000,-0.57500,-0.90000,0.31700,-0.64200,0.57500,0.64201,0.57500,0.90000,0.31700,0.90000,-0.57500,0.0*%
%ADD14CUSTOMSHAPE14*%

%AMCUSTOMSHAPE15*
4,1,6,0.64200,-0.57501,-0.64200,-0.57500,-0.90000,-0.31700,-0.90000,0.57500,0.90000,0.57500,0.90000,-0.31700,0.64200,-0.57501,0.0*%
%ADD15CUSTOMSHAPE15*%

G04:AMPARAMS|DCode=16|XSize=0.41mm|YSize=0.82mm|CornerRadius=0mm|HoleSize=0mm|Usage=FLASHONLY|Rotation=270.000|XOffset=0mm|YOffset=0mm|HoleType=Round|Shape=RoundedRectangle|*
%AMROUNDEDRECTD16*
21,1,0.41000,0.82000,0,0,270.0*
21,1,0.41000,0.82000,0,0,270.0*
1,1,0.00000,-0.41000,-0.20500*
1,1,0.00000,-0.41000,0.20500*
1,1,0.00000,0.41000,0.20500*
1,1,0.00000,0.41000,-0.20500*
%
%ADD16ROUNDEDRECTD16*%
G04:AMPARAMS|DCode=17|XSize=0.595mm|YSize=0.61mm|CornerRadius=0mm|HoleSize=0mm|Usage=FLASHONLY|Rotation=270.000|XOffset=0mm|YOffset=0mm|HoleType=Round|Shape=RoundedRectangle|*
%AMROUNDEDRECTD17*
21,1,0.59500,0.61000,0,0,270.0*
21,1,0.59500,0.61000,0,0,270.0*
1,1,0.00000,-0.30500,-0.29750*
1,1,0.00000,-0.30500,0.29750*
1,1,0.00000,0.30500,0.29750*
1,1,0.00000,0.30500,-0.29750*
%
%ADD17ROUNDEDRECTD17*%
G04:AMPARAMS|DCode=18|XSize=4.061mm|YSize=3.63mm|CornerRadius=0mm|HoleSize=0mm|Usage=FLASHONLY|Rotation=270.000|XOffset=0mm|YOffset=0mm|HoleType=Round|Shape=RoundedRectangle|*
%AMROUNDEDRECTD18*
21,1,4.06100,3.63000,0,0,270.0*
21,1,4.06100,3.63000,0,0,270.0*
1,1,0.00000,-1.81500,-2.03050*
1,1,0.00000,-1.81500,2.03050*
1,1,0.00000,1.81500,2.03050*
1,1,0.00000,1.81500,-2.03050*
%
%ADD18ROUNDEDRECTD18*%
G04:AMPARAMS|DCode=19|XSize=5mm|YSize=0.51mm|CornerRadius=0.0255mm|HoleSize=0mm|Usage=FLASHONLY|Rotation=270.000|XOffset=0mm|YOffset=0mm|HoleType=Round|Shape=RoundedRectangle|*
%AMROUNDEDRECTD19*
21,1,5.00000,0.45900,0,0,270.0*
21,1,4.94900,0.51000,0,0,270.0*
1,1,0.05100,-0.22950,-2.47450*
1,1,0.05100,-0.22950,2.47450*
1,1,0.05100,0.22950,2.47450*
1,1,0.05100,0.22950,-2.47450*
%
%ADD19ROUNDEDRECTD19*%
%AMCUSTOMSHAPE20*
4,1,6,0.50000,-0.47500,-0.50000,-0.47500,-0.50000,0.32560,-0.35060,0.47500,0.35060,0.47500,0.50000,0.32560,0.50000,-0.47500,0.0*%
%ADD20CUSTOMSHAPE20*%

%AMCUSTOMSHAPE21*
4,1,6,0.35060,-0.47500,-0.35060,-0.47500,-0.50000,-0.32560,-0.50000,0.47500,0.50000,0.47500,0.50000,-0.32560,0.35060,-0.47500,0.0*%
%ADD21CUSTOMSHAPE21*%

%AMCUSTOMSHAPE22*
4,1,6,0.57500,0.90000,-0.34500,0.90000,-0.57500,0.67000,-0.57500,-0.67000,-0.34500,-0.90000,0.57500,-0.90000,0.57500,0.90000,0.0*%
%ADD22CUSTOMSHAPE22*%

%AMCUSTOMSHAPE23*
4,1,6,0.34500,0.90000,0.57500,0.67000,0.57500,-0.67000,0.34500,-0.90000,-0.57500,-0.90000,-0.57500,0.90000,0.34500,0.90000,0.0*%
%ADD23CUSTOMSHAPE23*%

%AMCUSTOMSHAPE24*
4,1,6,-0.50000,0.47500,0.50000,0.47500,0.50000,-0.32560,0.35060,-0.47500,-0.35060,-0.47500,-0.50000,-0.32560,-0.50000,0.47500,0.0*%
%ADD24CUSTOMSHAPE24*%

%AMCUSTOMSHAPE25*
4,1,6,-0.35060,0.47500,0.35060,0.47500,0.50000,0.32560,0.50000,-0.47500,-0.50000,-0.47500,-0.50000,0.32560,-0.35060,0.47500,0.0*%
%ADD25CUSTOMSHAPE25*%

%ADD26R,4.19100X2.20980*%
%ADD27R,0.71120X0.25400*%
%ADD28R,0.25400X0.71120*%
%ADD29R,2.50000X5.40000*%
%ADD30C,1.00000*%
%AMCUSTOMSHAPE31*
4,1,6,0.28500,0.31000,-0.14250,0.31000,-0.28500,0.16750,-0.28500,-0.16750,-0.14250,-0.31000,0.28500,-0.31000,0.28500,0.31000,0.0*%
%ADD31CUSTOMSHAPE31*%

%AMCUSTOMSHAPE32*
4,1,6,0.14250,0.31000,0.28500,0.16750,0.28500,-0.16750,0.14250,-0.31000,-0.28500,-0.31000,-0.28500,0.31000,0.14250,0.31000,0.0*%
%ADD32CUSTOMSHAPE32*%

%AMCUSTOMSHAPE33*
4,1,6,0.47500,0.35060,0.47500,-0.35060,0.32560,-0.50000,-0.47500,-0.50000,-0.47500,0.50000,0.32560,0.50000,0.47500,0.35060,0.0*%
%ADD33CUSTOMSHAPE33*%

%AMCUSTOMSHAPE34*
4,1,6,0.47500,0.50000,0.47500,-0.50000,-0.32560,-0.50000,-0.47500,-0.35060,-0.47500,0.35060,-0.32560,0.50000,0.47500,0.50000,0.0*%
%ADD34CUSTOMSHAPE34*%

%ADD35R,1.22000X0.91000*%
%AMCUSTOMSHAPE36*
4,1,6,0.28500,0.31000,-0.19950,0.31000,-0.28500,0.22450,-0.28500,-0.22450,-0.19950,-0.31000,0.28500,-0.31000,0.28500,0.31000,0.0*%
%ADD36CUSTOMSHAPE36*%

%AMCUSTOMSHAPE37*
4,1,6,0.19950,0.31000,0.28500,0.22450,0.28500,-0.22450,0.19950,-0.31000,-0.28500,-0.31000,-0.28500,0.31000,0.19950,0.31000,0.0*%
%ADD37CUSTOMSHAPE37*%

%AMCUSTOMSHAPE38*
4,1,6,-0.57501,-0.64200,-0.57500,0.64200,-0.31700,0.90000,0.57500,0.90000,0.57500,-0.90000,-0.31700,-0.90000,-0.57501,-0.64200,0.0*%
%ADD38CUSTOMSHAPE38*%

%AMCUSTOMSHAPE39*
4,1,6,-0.57500,-0.90000,-0.57500,0.90000,0.31700,0.90000,0.57500,0.64200,0.57500,-0.64201,0.31700,-0.90000,-0.57500,-0.90000,0.0*%
%ADD39CUSTOMSHAPE39*%

%AMCUSTOMSHAPE40*
4,1,6,0.57501,0.64200,0.57500,-0.64200,0.31700,-0.90000,-0.57500,-0.90000,-0.57500,0.90000,0.31700,0.90000,0.57501,0.64200,0.0*%
%ADD40CUSTOMSHAPE40*%

%AMCUSTOMSHAPE41*
4,1,6,0.57500,0.90000,0.57500,-0.90000,-0.31700,-0.90000,-0.57500,-0.64200,-0.57500,0.64201,-0.31700,0.90000,0.57500,0.90000,0.0*%
%ADD41CUSTOMSHAPE41*%

%ADD42R,3.50000X5.40000*%
%AMCUSTOMSHAPE43*
4,1,6,0.75000,1.01250,0.56250,1.20000,-0.75000,1.20000,-0.75000,-1.20000,0.56250,-1.20000,0.75000,-1.01250,0.75000,1.01250,0.0*%
%ADD43CUSTOMSHAPE43*%

%AMCUSTOMSHAPE44*
4,1,6,0.75000,1.20000,-0.56250,1.20000,-0.75000,1.01250,-0.75000,-1.01250,-0.56250,-1.20000,0.75000,-1.20000,0.75000,1.20000,0.0*%
%ADD44CUSTOMSHAPE44*%

%AMCUSTOMSHAPE45*
4,1,6,0.58750,-2.15000,1.17500,-1.56250,1.17500,2.15000,-1.17500,2.15000,-1.17500,-1.56250,-0.58750,-2.15000,0.58750,-2.15000,0.0*%
%ADD45CUSTOMSHAPE45*%

%AMCUSTOMSHAPE46*
4,1,6,1.17500,-2.15000,1.17500,1.56250,0.58750,2.15000,-0.58750,2.15000,-1.17500,1.56250,-1.17500,-2.15000,1.17500,-2.15000,0.0*%
%ADD46CUSTOMSHAPE46*%

%ADD47R,0.70000X0.90000*%
%ADD48R,1.25000X5.65000*%
%ADD49R,4.41000X3.54500*%
%ADD50R,2.80500X0.56500*%
%ADD51R,0.60000X1.50000*%
%ADD52R,0.60000X1.40000*%
%AMCUSTOMSHAPE53*
4,1,6,-0.75000,-1.01250,-0.56250,-1.20000,0.75000,-1.20000,0.75000,1.20000,-0.56250,1.20000,-0.75000,1.01250,-0.75000,-1.01250,0.0*%
%ADD53CUSTOMSHAPE53*%

%AMCUSTOMSHAPE54*
4,1,6,-0.75000,-1.20000,0.56250,-1.20000,0.75000,-1.01250,0.75000,1.01250,0.56250,1.20000,-0.75000,1.20000,-0.75000,-1.20000,0.0*%
%ADD54CUSTOMSHAPE54*%

%TA.AperFunction,Conductor*%
%ADD55C,0.20320*%
%ADD56C,0.38100*%
%ADD57C,0.25400*%
%TA.AperFunction,ComponentPad*%
G04:AMPARAMS|DCode=58|XSize=2.5mm|YSize=2.5mm|CornerRadius=0.625mm|HoleSize=0mm|Usage=FLASHONLY|Rotation=270.000|XOffset=0mm|YOffset=0mm|HoleType=Round|Shape=RoundedRectangle|*
%AMROUNDEDRECTD58*
21,1,2.50000,1.25000,0,0,270.0*
21,1,1.25000,2.50000,0,0,270.0*
1,1,1.25000,-0.62500,-0.62500*
1,1,1.25000,-0.62500,0.62500*
1,1,1.25000,0.62500,0.62500*
1,1,1.25000,0.62500,-0.62500*
%
%ADD58ROUNDEDRECTD58*%
%ADD59C,1.80000*%
%ADD60C,5.00000*%
%TA.AperFunction,ViaPad*%
%ADD61C,0.60960*%
%ADD62C,0.40000*%
G36*
X9362797Y2932577D02*
X9403811Y2922730D01*
X9442779Y2906589D01*
X9478743Y2884550D01*
X9510816Y2857157D01*
X9538210Y2825084D01*
X9560248Y2789120D01*
X9576390Y2750151D01*
X9586236Y2709137D01*
X9589473Y2668007D01*
X9589290Y2667088D01*
Y88D01*
X9589473Y-832D01*
X9586236Y-41962D01*
X9576390Y-82976D01*
X9560248Y-121944D01*
X9538210Y-157908D01*
X9510816Y-189982D01*
X9478743Y-217375D01*
X9442779Y-239414D01*
X9403811Y-255555D01*
X9362797Y-265402D01*
X9321667Y-268639D01*
X9320747Y-268456D01*
X-10434Y-268457D01*
X-12680Y-268903D01*
X-60727Y-264171D01*
X-109088Y-249501D01*
X-153658Y-225678D01*
X-192724Y-193618D01*
X-224784Y-154552D01*
X-248607Y-109982D01*
X-263277Y-61621D01*
X-267003Y-23796D01*
X-267562Y-11328D01*
X-267572Y1371D01*
X-269596Y2667115D01*
X-269778Y2668024D01*
X-266542Y2709137D01*
X-256695Y2750151D01*
X-240554Y2789120D01*
X-218515Y2825084D01*
X-191122Y2857157D01*
X-159049Y2884550D01*
X-123085Y2906589D01*
X-84116Y2922730D01*
X-43102Y2932577D01*
X-1972Y2935814D01*
X-1053Y2935631D01*
X9320747D01*
X9321667Y2935814D01*
X9362797Y2932577D01*
D02*
G37*
%LPC*%
G36*
X4457700Y2722598D02*
X4435340D01*
X4425430Y2720627D01*
X4417028Y2715013D01*
X4402087Y2700072D01*
X4401837Y2699698D01*
X4386563D01*
X4386313Y2700072D01*
X4371372Y2715013D01*
X4362970Y2720627D01*
X4353060Y2722598D01*
X4330700D01*
Y2649199D01*
X4318000D01*
Y2636499D01*
X4242102D01*
Y2601700D01*
X4244074Y2591790D01*
X4249687Y2583388D01*
X4249784Y2568049D01*
X4248194Y2565898D01*
X4133806D01*
X4132216Y2568049D01*
X4132313Y2583388D01*
X4137926Y2591790D01*
X4139898Y2601700D01*
Y2636500D01*
X4064000D01*
Y2649200D01*
X4051300D01*
Y2722598D01*
X4028940D01*
X4019030Y2720627D01*
X4010628Y2715013D01*
X3995687Y2700072D01*
X3995437Y2699698D01*
X3980163D01*
X3979913Y2700072D01*
X3964972Y2715013D01*
X3956570Y2720627D01*
X3946660Y2722598D01*
X3924300D01*
Y2649199D01*
X3898900D01*
Y2722598D01*
X3876540D01*
X3866630Y2720627D01*
X3858228Y2715013D01*
X3843288Y2700073D01*
X3843037Y2699698D01*
X3835573Y2698318D01*
X3827763Y2699698D01*
X3827513Y2700072D01*
X3812572Y2715013D01*
X3804170Y2720627D01*
X3794260Y2722598D01*
X3771900D01*
Y2649199D01*
X3759200D01*
Y2636499D01*
X3683302D01*
Y2601700D01*
X3685274Y2591790D01*
X3690887Y2583388D01*
X3690984Y2568049D01*
X3689394Y2565898D01*
X3505200D01*
X3495289Y2563926D01*
X3486888Y2558312D01*
X3461488Y2532912D01*
X3455874Y2524511D01*
X3453902Y2514600D01*
Y2032000D01*
X3455874Y2022089D01*
X3461488Y2013688D01*
X3486888Y1988288D01*
X3495289Y1982674D01*
X3505200Y1980702D01*
X3773873D01*
X3784102Y1970473D01*
Y1676400D01*
X3786074Y1666489D01*
X3791688Y1658088D01*
X3809468Y1640308D01*
X3816334Y1635720D01*
X3818469Y1630776D01*
X3819913Y1621338D01*
X3773873Y1575298D01*
X3378200D01*
X3368289Y1573326D01*
X3359888Y1567712D01*
X3354274Y1559311D01*
X3352302Y1549400D01*
Y990600D01*
X3354274Y980689D01*
X3359888Y972288D01*
X3368289Y966674D01*
X3378200Y964702D01*
X3773873D01*
X3809502Y929073D01*
Y787400D01*
X3811474Y777489D01*
X3817088Y769088D01*
X3944088Y642088D01*
X3952489Y636474D01*
X3962400Y634502D01*
X4394200D01*
X4404111Y636474D01*
X4412512Y642088D01*
X4437912Y667488D01*
X4443526Y675889D01*
X4445498Y685800D01*
Y827529D01*
X4619350D01*
X4636694Y830979D01*
X4651397Y840803D01*
X4683472Y872879D01*
X4724702D01*
Y870700D01*
X4726674Y860789D01*
X4732287Y852388D01*
X4740689Y846774D01*
X4750600Y844802D01*
X4812188D01*
X4818976Y832102D01*
X4818639Y831598D01*
X4750600D01*
X4740689Y829626D01*
X4732287Y824012D01*
X4726674Y815611D01*
X4724702Y805700D01*
Y725640D01*
X4726674Y715730D01*
X4732287Y707328D01*
X4747228Y692387D01*
X4755630Y686774D01*
X4765540Y684802D01*
X4835660D01*
X4845570Y686774D01*
X4853972Y692387D01*
X4868912Y707328D01*
X4874526Y715729D01*
X4876498Y725640D01*
Y749605D01*
X4981493Y854600D01*
X5090200D01*
Y880179D01*
X5149390D01*
X5158272Y868803D01*
X5156617Y862271D01*
X5141914Y852447D01*
X5141913Y852446D01*
X5096032Y806566D01*
X5086208Y791863D01*
X5082758Y774519D01*
Y669400D01*
X4917400D01*
Y643821D01*
X4896206D01*
X4895753Y644273D01*
X4875215Y652780D01*
X4852985D01*
X4832447Y644273D01*
X4816727Y628553D01*
X4808220Y608015D01*
Y585785D01*
X4816727Y565247D01*
X4832447Y549527D01*
X4852985Y541020D01*
X4875215D01*
X4895753Y549527D01*
X4899405Y553179D01*
X4917400D01*
Y527600D01*
X5082758D01*
Y483411D01*
X4992073Y392727D01*
X4982249Y378024D01*
X4978799Y360680D01*
Y-13242D01*
X4982249Y-30585D01*
X4992073Y-45288D01*
X5113281Y-166496D01*
X5113282Y-166497D01*
X5127985Y-176321D01*
X5145329Y-179771D01*
X5453550D01*
X5470894Y-176321D01*
X5485597Y-166497D01*
X5544325Y-107768D01*
X5572807Y-115400D01*
X5603193D01*
X5632543Y-107535D01*
X5658857Y-92343D01*
X5680343Y-70857D01*
X5695535Y-44543D01*
X5703400Y-15193D01*
Y15193D01*
X5695535Y44543D01*
X5680343Y70857D01*
X5658857Y92343D01*
X5632543Y107535D01*
X5603193Y115400D01*
X5572807D01*
X5543457Y107535D01*
X5517143Y92343D01*
X5495657Y70857D01*
X5480465Y44543D01*
X5472600Y15193D01*
Y-15193D01*
X5480232Y-43675D01*
X5436397Y-87509D01*
X5428303Y-86576D01*
X5423404Y-73796D01*
X5426343Y-70857D01*
X5441535Y-44543D01*
X5449400Y-15193D01*
Y15193D01*
X5441535Y44543D01*
X5426343Y70857D01*
X5404857Y92343D01*
X5378543Y107535D01*
X5352169Y114602D01*
Y123671D01*
X5348720Y141015D01*
X5338895Y155718D01*
X5338895Y155719D01*
X5328865Y165748D01*
X5332752Y179266D01*
X5336811Y180074D01*
X5345212Y185687D01*
X5350826Y194089D01*
X5352798Y204000D01*
Y304000D01*
X5350826Y313911D01*
X5345212Y322313D01*
X5336811Y327926D01*
X5326900Y329898D01*
X5246840D01*
X5236930Y327926D01*
X5228528Y322313D01*
X5217361Y311146D01*
X5213539Y307386D01*
X5200743Y311009D01*
X5194877Y316875D01*
X5177683Y326802D01*
X5158507Y331940D01*
X5138653D01*
X5119477Y326802D01*
X5102283Y316875D01*
X5088245Y302837D01*
X5082141Y292264D01*
X5069441Y295667D01*
Y341907D01*
X5160125Y432592D01*
X5160126Y432592D01*
X5169950Y447295D01*
X5173400Y464639D01*
Y583074D01*
X5186100Y589862D01*
X5187430Y588973D01*
X5197340Y587002D01*
X5219700D01*
Y660400D01*
X5245100D01*
Y587002D01*
X5267460D01*
X5277370Y588973D01*
X5285772Y594587D01*
X5300713Y609528D01*
X5300963Y609902D01*
X5316237D01*
X5316487Y609528D01*
X5331428Y594588D01*
X5339830Y588974D01*
X5349740Y587002D01*
X5372100D01*
Y660400D01*
X5397500D01*
Y587002D01*
X5419860D01*
X5429770Y588974D01*
X5438172Y594587D01*
X5453112Y609528D01*
X5455173Y612612D01*
X5467873Y608760D01*
Y591667D01*
X5407353Y531147D01*
X5397529Y516444D01*
X5395790Y507698D01*
X5391900D01*
X5381989Y505726D01*
X5373588Y500113D01*
X5367974Y491711D01*
X5366002Y481800D01*
Y381800D01*
X5367974Y371889D01*
X5373588Y363487D01*
X5381989Y357874D01*
X5391900Y355902D01*
X5394079D01*
Y329898D01*
X5391900D01*
X5381989Y327926D01*
X5373588Y322313D01*
X5367974Y313911D01*
X5366002Y304000D01*
Y204000D01*
X5367974Y194089D01*
X5373588Y185687D01*
X5381989Y180074D01*
X5391900Y178102D01*
X5471960D01*
X5481870Y180074D01*
X5490272Y185687D01*
X5505213Y200628D01*
X5510826Y209030D01*
X5512798Y218940D01*
Y289060D01*
X5510826Y298970D01*
X5505213Y307372D01*
X5490272Y322312D01*
X5484721Y326022D01*
Y359778D01*
X5490272Y363487D01*
X5498998Y372213D01*
X5515402Y372366D01*
X5516303Y371465D01*
X5533497Y361538D01*
X5552673Y356400D01*
X5572527D01*
X5591703Y361538D01*
X5608897Y371465D01*
X5609798Y372366D01*
X5626904Y371512D01*
X5634928Y363488D01*
X5643329Y357874D01*
X5653240Y355902D01*
X5733300D01*
X5743211Y357874D01*
X5751612Y363487D01*
X5757226Y371889D01*
X5759198Y381800D01*
Y481800D01*
X5757226Y491711D01*
X5751612Y500113D01*
X5743211Y505726D01*
X5733300Y507698D01*
X5727768D01*
X5722907Y519431D01*
X5723003Y519527D01*
X5731510Y540065D01*
Y562295D01*
X5723003Y582833D01*
X5709734Y596102D01*
X5711462Y605579D01*
X5711724Y606227D01*
X5713366Y609064D01*
X5721961Y610774D01*
X5730362Y616388D01*
X5738912Y624938D01*
X5744526Y633339D01*
X5746498Y643250D01*
Y691700D01*
X5744526Y701611D01*
X5739531Y711200D01*
X5744526Y720790D01*
X5746498Y730700D01*
Y779150D01*
X5744526Y789061D01*
X5738912Y797462D01*
X5730362Y806012D01*
X5721961Y811626D01*
X5712050Y813598D01*
X5695149D01*
Y848354D01*
X5696056Y849262D01*
X5696057Y849262D01*
X5701642Y857620D01*
X5710961Y859474D01*
X5719362Y865088D01*
X5733612Y879338D01*
X5739226Y887739D01*
X5741198Y897650D01*
Y931150D01*
X5739226Y941061D01*
X5733612Y949462D01*
X5719362Y963712D01*
X5710961Y969326D01*
X5701050Y971298D01*
X5698488D01*
Y1033780D01*
X5700338D01*
Y1094740D01*
X5724945D01*
Y1033780D01*
X5749556D01*
Y1094740D01*
X5762256D01*
Y1107440D01*
X5800357D01*
Y1155700D01*
X5812560Y1156900D01*
X5872480D01*
Y1182300D01*
X5811520D01*
Y1195000D01*
X5798820D01*
Y1233100D01*
X5772150D01*
Y1257300D01*
X5537200D01*
X5302250D01*
Y1233100D01*
X5201920D01*
Y1233100D01*
X5192523Y1236871D01*
X5175180Y1240321D01*
X5157836Y1236871D01*
X5143133Y1227047D01*
X5079007Y1162921D01*
X4985698D01*
X4985135Y1163897D01*
X4971096Y1177935D01*
X4956295Y1186481D01*
X4955886Y1195047D01*
X4957272Y1200066D01*
X4973897Y1209665D01*
X4987935Y1223703D01*
X4997547Y1222627D01*
X5018085Y1214120D01*
X5040315D01*
X5060853Y1222627D01*
X5076573Y1238347D01*
X5085080Y1258885D01*
Y1281115D01*
X5080421Y1292362D01*
X5088907Y1305062D01*
X5300980D01*
X5302250Y1304020D01*
Y1282700D01*
X5537200D01*
X5772150D01*
Y1306900D01*
X5798820D01*
Y1345000D01*
X5811520D01*
Y1357700D01*
X5872480D01*
Y1383100D01*
X5812560D01*
X5800357Y1384300D01*
Y1432560D01*
X5762256D01*
Y1457960D01*
X5800357D01*
Y1492823D01*
X6059928D01*
X6059929Y1492823D01*
X6073804Y1495583D01*
X6085567Y1503443D01*
X6233223Y1651100D01*
X6238740Y1650002D01*
X6308860D01*
X6318770Y1651974D01*
X6327172Y1657587D01*
X6342112Y1672528D01*
X6347726Y1680929D01*
X6349698Y1690840D01*
Y1770900D01*
X6347726Y1780811D01*
X6342113Y1789212D01*
X6333711Y1794826D01*
X6323800Y1796798D01*
X6223800D01*
X6213889Y1794826D01*
X6205487Y1789212D01*
X6205237Y1788838D01*
X6189963D01*
X6189713Y1789212D01*
X6181311Y1794826D01*
X6171400Y1796798D01*
X6071400D01*
X6061489Y1794826D01*
X6053087Y1789212D01*
X6052837Y1788838D01*
X6037563D01*
X6037313Y1789212D01*
X6028911Y1794826D01*
X6019000Y1796798D01*
X5919000D01*
X5909089Y1794826D01*
X5905449Y1792394D01*
X5894685Y1797611D01*
Y1809189D01*
X5905449Y1814406D01*
X5909089Y1811974D01*
X5919000Y1810002D01*
X5956300D01*
Y1883400D01*
Y1956798D01*
X5933940D01*
X5924030Y1954827D01*
X5915628Y1949213D01*
X5905198Y1938783D01*
X5892498Y1944043D01*
Y1979460D01*
X5890526Y1989370D01*
X5884913Y1997772D01*
X5869972Y2012713D01*
X5861570Y2018327D01*
X5852857Y2020060D01*
Y2159302D01*
X5860300D01*
X5870211Y2161274D01*
X5878612Y2166887D01*
X5884226Y2175289D01*
X5886198Y2185200D01*
Y2285200D01*
X5884226Y2295111D01*
X5878612Y2303513D01*
X5870211Y2309126D01*
X5860300Y2311098D01*
X5780240D01*
X5770330Y2309126D01*
X5761928Y2303513D01*
X5746987Y2288572D01*
X5736293Y2287519D01*
X5728277Y2295535D01*
X5711083Y2305462D01*
X5691907Y2310600D01*
X5672053D01*
X5652877Y2305462D01*
X5635683Y2295535D01*
X5621645Y2281497D01*
X5611718Y2264303D01*
X5606580Y2245127D01*
Y2225273D01*
X5611718Y2206097D01*
X5621645Y2188903D01*
X5635683Y2174865D01*
X5652877Y2164938D01*
X5672053Y2159800D01*
X5691907D01*
X5711083Y2164938D01*
X5728277Y2174865D01*
X5733969Y2180557D01*
X5736686Y2180822D01*
X5750094Y2178722D01*
X5761928Y2166888D01*
X5770329Y2161274D01*
X5780240Y2159302D01*
X5780343Y2147319D01*
Y2020060D01*
X5771630Y2018327D01*
X5763228Y2012713D01*
X5748287Y1997772D01*
X5742673Y1989370D01*
X5740702Y1979460D01*
Y1944043D01*
X5728002Y1938783D01*
X5717572Y1949213D01*
X5709170Y1954827D01*
X5699260Y1956798D01*
X5629140D01*
X5619230Y1954827D01*
X5610828Y1949213D01*
X5595887Y1934272D01*
X5590273Y1925870D01*
X5588302Y1915960D01*
Y1893195D01*
X5569227Y1874121D01*
X5547255D01*
X5536898Y1886700D01*
Y1921500D01*
X5461000D01*
Y1934200D01*
X5448300D01*
Y2007598D01*
X5425940D01*
X5416030Y2005627D01*
X5407628Y2000013D01*
X5392687Y1985072D01*
X5392437Y1984698D01*
X5377163D01*
X5376913Y1985072D01*
X5361972Y2000013D01*
X5353570Y2005627D01*
X5343660Y2007598D01*
X5321300D01*
Y1934200D01*
Y1860802D01*
X5358600D01*
X5368511Y1862774D01*
X5376913Y1868388D01*
X5377163Y1868762D01*
X5392437D01*
X5392687Y1868388D01*
X5401089Y1862774D01*
X5411000Y1860802D01*
X5452188D01*
X5458976Y1848102D01*
X5458639Y1847598D01*
X5411000D01*
X5401089Y1845626D01*
X5392687Y1840012D01*
X5392437Y1839638D01*
X5377163D01*
X5376913Y1840012D01*
X5368511Y1845626D01*
X5358600Y1847598D01*
X5258600D01*
X5248689Y1845626D01*
X5240287Y1840012D01*
X5234674Y1831611D01*
X5232702Y1821700D01*
Y1741640D01*
X5234674Y1731730D01*
X5240287Y1723328D01*
X5244028Y1719587D01*
X5239440Y1706214D01*
X5231814Y1705212D01*
X5228493Y1708533D01*
X5207955Y1717040D01*
X5185725D01*
X5165187Y1708533D01*
X5149467Y1692813D01*
X5140960Y1672275D01*
Y1650045D01*
X5144028Y1642637D01*
X5143205Y1639812D01*
X5135351Y1630398D01*
X5118100D01*
Y1557000D01*
X5105400D01*
Y1544300D01*
X5029502D01*
Y1543896D01*
X5017769Y1539036D01*
X4989092Y1567712D01*
X4980691Y1573326D01*
X4970780Y1575298D01*
X4836160D01*
X4826249Y1573326D01*
X4817847Y1567712D01*
X4801701Y1551566D01*
X4801700Y1551565D01*
X4796086Y1543163D01*
X4794115Y1533253D01*
Y1377587D01*
X4796086Y1367676D01*
X4801700Y1359275D01*
X4801701Y1359274D01*
X4825468Y1335508D01*
X4833869Y1329894D01*
X4843780Y1327922D01*
X4843543Y1315321D01*
X4817454D01*
X4813463Y1319312D01*
X4805061Y1324926D01*
X4795150Y1326898D01*
X4746700D01*
X4736789Y1324926D01*
X4727200Y1319931D01*
X4717611Y1324926D01*
X4707700Y1326898D01*
X4659250D01*
X4649339Y1324926D01*
X4640938Y1319312D01*
X4632388Y1310762D01*
X4626774Y1302361D01*
X4624803Y1292450D01*
Y1279696D01*
X4594787Y1249680D01*
X4591885D01*
X4579221Y1244434D01*
X4566521Y1252920D01*
Y1346199D01*
X4566521Y1346200D01*
X4563071Y1363544D01*
X4553247Y1378247D01*
X4553246Y1378247D01*
X4424200Y1507293D01*
Y1632722D01*
X4528820D01*
X4538731Y1634694D01*
X4547132Y1640308D01*
X4564912Y1658088D01*
X4570526Y1666489D01*
X4572498Y1676400D01*
X4572497Y1945073D01*
X4582727Y1955302D01*
X4775200Y1955302D01*
X4785111Y1957274D01*
X4793512Y1962888D01*
X4818912Y1988288D01*
X4824526Y1996689D01*
X4826498Y2006600D01*
Y2514600D01*
X4824526Y2524511D01*
X4818912Y2532912D01*
X4793512Y2558312D01*
X4785111Y2563926D01*
X4775200Y2565898D01*
X4540206D01*
X4538616Y2568049D01*
X4538713Y2583388D01*
X4544326Y2591790D01*
X4546298Y2601700D01*
Y2636500D01*
X4470400D01*
Y2649200D01*
X4457700D01*
Y2722598D01*
D02*
G37*
G36*
X4505460D02*
X4483100D01*
Y2661900D01*
X4546298D01*
Y2681760D01*
X4544326Y2691671D01*
X4538713Y2700072D01*
X4523772Y2715013D01*
X4515370Y2720627D01*
X4505460Y2722598D01*
D02*
G37*
G36*
X4099060D02*
X4076700D01*
Y2661900D01*
X4139898D01*
Y2681760D01*
X4137926Y2691671D01*
X4132313Y2700072D01*
X4117372Y2715013D01*
X4108970Y2720627D01*
X4099060Y2722598D01*
D02*
G37*
G36*
X3746500Y2722598D02*
X3724140D01*
X3714230Y2720627D01*
X3705828Y2715013D01*
X3690888Y2700073D01*
X3685274Y2691671D01*
X3683302Y2681760D01*
Y2661899D01*
X3746500D01*
Y2722598D01*
D02*
G37*
G36*
X4305300D02*
X4282940D01*
X4273030Y2720627D01*
X4264628Y2715013D01*
X4249688Y2700073D01*
X4244074Y2691671D01*
X4242102Y2681760D01*
Y2661899D01*
X4305300D01*
Y2722598D01*
D02*
G37*
G36*
X2215550Y2647798D02*
X2172000D01*
Y2514600D01*
X2260198D01*
Y2603150D01*
X2258226Y2613061D01*
X2252612Y2621462D01*
X2233862Y2640212D01*
X2225461Y2645826D01*
X2215550Y2647798D01*
D02*
G37*
G36*
X2146600D02*
X2084300D01*
X2074389Y2645826D01*
X2065987Y2640212D01*
X2060374Y2631811D01*
X2058402Y2621900D01*
Y2514600D01*
X2146600D01*
Y2647798D01*
D02*
G37*
G36*
X1192600Y2635098D02*
X1130300D01*
Y2501900D01*
X1218498D01*
Y2609200D01*
X1216526Y2619111D01*
X1210912Y2627512D01*
X1202511Y2633126D01*
X1192600Y2635098D01*
D02*
G37*
G36*
X1104900D02*
X1061350D01*
X1051439Y2633126D01*
X1043038Y2627512D01*
X1024288Y2608762D01*
X1018674Y2600361D01*
X1016702Y2590450D01*
Y2501900D01*
X1104900D01*
Y2635098D01*
D02*
G37*
G36*
X5053500Y2503498D02*
X5034499D01*
Y2400301D01*
X5105197D01*
X5105198Y2451800D01*
X5103226Y2461711D01*
X5097612Y2470112D01*
X5071812Y2495912D01*
X5063410Y2501526D01*
X5053500Y2503498D01*
D02*
G37*
G36*
X5009099D02*
X4964300D01*
X4954389Y2501526D01*
X4945988Y2495912D01*
X4940374Y2487511D01*
X4938402Y2477600D01*
Y2400301D01*
X5009099D01*
Y2503498D01*
D02*
G37*
G36*
X3323500D02*
X3278700D01*
Y2400300D01*
X3349398D01*
Y2477600D01*
X3347426Y2487511D01*
X3341812Y2495912D01*
X3333411Y2501526D01*
X3323500Y2503498D01*
D02*
G37*
G36*
X3253300D02*
X3234300D01*
X3224390Y2501526D01*
X3215988Y2495912D01*
X3190188Y2470113D01*
X3184574Y2461711D01*
X3182603Y2451801D01*
X3182603Y2400300D01*
X3253300D01*
Y2503498D01*
D02*
G37*
G36*
X2260198Y2489200D02*
X2172000D01*
Y2356002D01*
X2215550D01*
X2225461Y2357974D01*
X2233862Y2363588D01*
X2252612Y2382338D01*
X2258226Y2390739D01*
X2260198Y2400650D01*
Y2489200D01*
D02*
G37*
G36*
X2146600D02*
X2058402D01*
Y2381900D01*
X2060374Y2371989D01*
X2065987Y2363588D01*
X2074389Y2357974D01*
X2084300Y2356002D01*
X2146600D01*
Y2489200D01*
D02*
G37*
G36*
X1218498Y2476500D02*
X1130300D01*
Y2343302D01*
X1192600D01*
X1202511Y2345274D01*
X1210912Y2350888D01*
X1216526Y2359289D01*
X1218498Y2369200D01*
Y2476500D01*
D02*
G37*
G36*
X1104900D02*
X1016702D01*
Y2387950D01*
X1018674Y2378039D01*
X1024288Y2369638D01*
X1043038Y2350888D01*
X1051439Y2345274D01*
X1061350Y2343302D01*
X1104900D01*
Y2476500D01*
D02*
G37*
G36*
X5105197Y2374901D02*
X5034499D01*
Y2271702D01*
X5053500D01*
X5063410Y2273674D01*
X5071812Y2279288D01*
X5097612Y2305087D01*
X5103226Y2313489D01*
X5105197Y2323399D01*
X5105197Y2374901D01*
D02*
G37*
G36*
X5009099D02*
X4938402D01*
Y2297600D01*
X4940374Y2287689D01*
X4945988Y2279288D01*
X4954389Y2273674D01*
X4964300Y2271702D01*
X5009099D01*
Y2374901D01*
D02*
G37*
G36*
X3349398Y2374900D02*
X3278700D01*
Y2271702D01*
X3323500D01*
X3333411Y2273674D01*
X3341812Y2279288D01*
X3347426Y2287689D01*
X3349398Y2297600D01*
Y2374900D01*
D02*
G37*
G36*
X3253300D02*
X3182603D01*
X3182602Y2323400D01*
X3184574Y2313489D01*
X3190188Y2305088D01*
X3215988Y2279288D01*
X3224390Y2273674D01*
X3234300Y2271702D01*
X3253300D01*
Y2374900D01*
D02*
G37*
G36*
X6005360Y2311098D02*
X5985500D01*
Y2247900D01*
X6046198D01*
Y2270260D01*
X6044227Y2280170D01*
X6038613Y2288572D01*
X6023672Y2303513D01*
X6015270Y2309127D01*
X6005360Y2311098D01*
D02*
G37*
G36*
X5960100Y2311098D02*
X5925300D01*
X5915389Y2309126D01*
X5906988Y2303513D01*
X5901374Y2295111D01*
X5899402Y2285200D01*
Y2247900D01*
X5960100D01*
Y2311098D01*
D02*
G37*
G36*
X6046198Y2222500D02*
X5985500D01*
Y2159302D01*
X6005360D01*
X6015270Y2161274D01*
X6023672Y2166887D01*
X6038613Y2181828D01*
X6044227Y2190230D01*
X6046198Y2200140D01*
Y2222500D01*
D02*
G37*
G36*
X5960100D02*
X5899402D01*
Y2185200D01*
X5901374Y2175289D01*
X5906988Y2166887D01*
X5915389Y2161274D01*
X5925300Y2159302D01*
X5960100D01*
Y2222500D01*
D02*
G37*
G36*
X2215550Y2292198D02*
X2172000D01*
Y2159000D01*
X2260198D01*
Y2247550D01*
X2258226Y2257461D01*
X2252612Y2265862D01*
X2233862Y2284612D01*
X2225461Y2290226D01*
X2215550Y2292198D01*
D02*
G37*
G36*
X2146600D02*
X2084300D01*
X2074389Y2290226D01*
X2065987Y2284612D01*
X2060374Y2276211D01*
X2058402Y2266300D01*
Y2159000D01*
X2146600D01*
Y2292198D01*
D02*
G37*
G36*
X5053500Y2249498D02*
X5034499D01*
Y2146301D01*
X5105197D01*
X5105198Y2197800D01*
X5103226Y2207711D01*
X5097612Y2216112D01*
X5071812Y2241912D01*
X5063410Y2247526D01*
X5053500Y2249498D01*
D02*
G37*
G36*
X5009099D02*
X4964300D01*
X4954389Y2247526D01*
X4945988Y2241912D01*
X4940374Y2233511D01*
X4938402Y2223600D01*
Y2146301D01*
X5009099D01*
Y2249498D01*
D02*
G37*
G36*
X3323500D02*
X3278700D01*
Y2146300D01*
X3349398D01*
Y2223600D01*
X3347426Y2233511D01*
X3341812Y2241912D01*
X3333411Y2247526D01*
X3323500Y2249498D01*
D02*
G37*
G36*
X1192600Y2279498D02*
X1130300D01*
Y2146300D01*
X1218498D01*
Y2253600D01*
X1216526Y2263511D01*
X1210912Y2271912D01*
X1202511Y2277526D01*
X1192600Y2279498D01*
D02*
G37*
G36*
X1104900D02*
X1061350D01*
X1051439Y2277526D01*
X1043038Y2271912D01*
X1024288Y2253162D01*
X1018674Y2244761D01*
X1016702Y2234850D01*
Y2146300D01*
X1104900D01*
Y2279498D01*
D02*
G37*
G36*
X3253300Y2249498D02*
X3234300D01*
X3224390Y2247526D01*
X3215988Y2241912D01*
X3190188Y2216112D01*
X3184574Y2207711D01*
X3182602Y2197800D01*
X3182602Y2146300D01*
X3253300D01*
Y2249498D01*
D02*
G37*
G36*
X5105197Y2120901D02*
X5034499D01*
Y2017702D01*
X5053500D01*
X5063410Y2019674D01*
X5071812Y2025288D01*
X5097612Y2051087D01*
X5103226Y2059489D01*
X5105197Y2069399D01*
X5105197Y2120901D01*
D02*
G37*
G36*
X5009099D02*
X4938402D01*
Y2043600D01*
X4940374Y2033689D01*
X4945988Y2025288D01*
X4954389Y2019674D01*
X4964300Y2017702D01*
X5009099D01*
Y2120901D01*
D02*
G37*
G36*
X3349398Y2120900D02*
X3278700D01*
Y2017702D01*
X3323500Y2017702D01*
X3333411Y2019674D01*
X3341812Y2025288D01*
X3347426Y2033689D01*
X3349398Y2043600D01*
Y2120900D01*
D02*
G37*
G36*
X3253300D02*
X3182602D01*
X3182602Y2069400D01*
X3184573Y2059489D01*
X3190187Y2051087D01*
X3215988Y2025287D01*
X3224390Y2019673D01*
X3234300Y2017702D01*
X3253300D01*
Y2120900D01*
D02*
G37*
G36*
X1955800Y2743698D02*
X1320800D01*
X1310889Y2741726D01*
X1302488Y2736112D01*
X1277088Y2710712D01*
X1271474Y2702311D01*
X1269502Y2692400D01*
Y2042727D01*
X1229230Y2002454D01*
X1217525Y2008710D01*
X1218498Y2013600D01*
Y2120900D01*
X1130300D01*
Y1987702D01*
X1192600D01*
X1197490Y1988675D01*
X1203746Y1976970D01*
X1200888Y1974112D01*
X1195274Y1965711D01*
X1193302Y1955800D01*
Y1610927D01*
X1157673Y1575298D01*
X874327D01*
X864098Y1585527D01*
Y1701800D01*
X862126Y1711711D01*
X856512Y1720112D01*
X754912Y1821712D01*
X746511Y1827326D01*
X736600Y1829298D01*
X-76200D01*
X-86111Y1827326D01*
X-94512Y1821712D01*
X-170712Y1745512D01*
X-176326Y1737111D01*
X-178298Y1727200D01*
Y1270000D01*
X-176326Y1260089D01*
X-170712Y1251688D01*
X-119913Y1200888D01*
X-111511Y1195274D01*
X-101600Y1193302D01*
X471873D01*
X616688Y1048488D01*
X625089Y1042874D01*
X635000Y1040902D01*
X1056073D01*
X1167902Y929073D01*
Y635000D01*
X1169874Y625089D01*
X1175488Y616688D01*
X1200888Y591288D01*
X1209289Y585674D01*
X1219200Y583702D01*
X1259273D01*
X1269502Y573473D01*
Y-127000D01*
X1271474Y-136911D01*
X1277088Y-145312D01*
X1327888Y-196112D01*
X1336289Y-201726D01*
X1346200Y-203698D01*
X1930400D01*
X1940311Y-201726D01*
X1948712Y-196112D01*
X1999512Y-145312D01*
X2005126Y-136911D01*
X2007098Y-127000D01*
Y558800D01*
X2005126Y568711D01*
X1999512Y577112D01*
X1974112Y602512D01*
X1965711Y608126D01*
X1955800Y610098D01*
X1839527D01*
X1829298Y620327D01*
Y691317D01*
X1841998Y695169D01*
X1842988Y693687D01*
X1851389Y688074D01*
X1861300Y686102D01*
X1896100D01*
Y762000D01*
Y837898D01*
X1861300D01*
X1851389Y835926D01*
X1842988Y830313D01*
X1841998Y828831D01*
X1829298Y832683D01*
Y838200D01*
X1827326Y848111D01*
X1821712Y856512D01*
X1803898Y874327D01*
Y962100D01*
X1804200D01*
Y1210118D01*
X1816003Y1215007D01*
X1828302Y1209346D01*
Y939800D01*
X1830274Y929889D01*
X1835888Y921488D01*
X1861288Y896088D01*
X1869689Y890474D01*
X1879600Y888502D01*
X2072073D01*
X2191488Y769088D01*
X2199889Y763474D01*
X2209800Y761502D01*
X2717800D01*
X2727711Y763474D01*
X2736112Y769088D01*
X2863112Y896088D01*
X2868726Y904489D01*
X2870698Y914400D01*
Y1600200D01*
X2868726Y1610111D01*
X2863112Y1618512D01*
X2736112Y1745512D01*
X2727711Y1751126D01*
X2717800Y1753098D01*
X2209800D01*
X2199889Y1751126D01*
X2191488Y1745512D01*
X2072073Y1626098D01*
X1879600D01*
X1869689Y1624126D01*
X1861288Y1618512D01*
X1835888Y1593112D01*
X1830274Y1584711D01*
X1828302Y1574800D01*
Y1315414D01*
X1816003Y1309753D01*
X1804200Y1314642D01*
Y1577899D01*
X1804200Y1577900D01*
X1804200D01*
X1804783Y1590358D01*
X1821712Y1607288D01*
X1827326Y1615689D01*
X1829298Y1625600D01*
Y1707317D01*
X1841998Y1711169D01*
X1842988Y1709687D01*
X1851389Y1704074D01*
X1861300Y1702102D01*
X1896100D01*
Y1778000D01*
X1908800D01*
D01*
X1896100D01*
Y1853898D01*
X1861300D01*
X1851389Y1851926D01*
X1842988Y1846313D01*
X1841998Y1844831D01*
X1829298Y1848683D01*
Y1894273D01*
X1839527Y1904502D01*
X1981200D01*
X1991111Y1906474D01*
X1999512Y1912088D01*
X2024912Y1937488D01*
X2030526Y1945889D01*
X2032498Y1955800D01*
Y2667000D01*
X2030526Y2676911D01*
X2024912Y2685312D01*
X1974112Y2736112D01*
X1965711Y2741726D01*
X1955800Y2743698D01*
D02*
G37*
G36*
X2260198Y2133600D02*
X2172000D01*
Y2000402D01*
X2215550D01*
X2225461Y2002374D01*
X2233862Y2007988D01*
X2252612Y2026738D01*
X2258226Y2035139D01*
X2260198Y2045050D01*
Y2133600D01*
D02*
G37*
G36*
X2146600D02*
X2058402D01*
Y2026300D01*
X2060374Y2016389D01*
X2065987Y2007988D01*
X2074389Y2002374D01*
X2084300Y2000402D01*
X2146600D01*
Y2133600D01*
D02*
G37*
G36*
X1104900Y2120900D02*
X1016702D01*
Y2032350D01*
X1018674Y2022439D01*
X1024288Y2014038D01*
X1043038Y1995288D01*
X1051439Y1989674D01*
X1061350Y1987702D01*
X1104900D01*
Y2120900D01*
D02*
G37*
G36*
X5496060Y2007598D02*
X5473700D01*
Y1946900D01*
X5536898D01*
Y1966760D01*
X5534926Y1976670D01*
X5529313Y1985072D01*
X5514372Y2000013D01*
X5505970Y2005627D01*
X5496060Y2007598D01*
D02*
G37*
G36*
X5295900D02*
X5273540D01*
X5263630Y2005627D01*
X5255228Y2000013D01*
X5240287Y1985072D01*
X5234673Y1976670D01*
X5232702Y1966760D01*
Y1946900D01*
X5295900D01*
Y2007598D01*
D02*
G37*
G36*
X6261100Y1956798D02*
X6238740D01*
X6228830Y1954827D01*
X6220428Y1949213D01*
X6205487Y1934272D01*
X6205237Y1933898D01*
X6189963D01*
X6189713Y1934272D01*
X6174772Y1949213D01*
X6166370Y1954827D01*
X6156460Y1956798D01*
X6134100D01*
Y1883400D01*
Y1810002D01*
X6171400D01*
X6181311Y1811974D01*
X6189713Y1817588D01*
X6189963Y1817962D01*
X6205237D01*
X6205487Y1817588D01*
X6213889Y1811974D01*
X6223800Y1810002D01*
X6261100D01*
Y1883400D01*
Y1956798D01*
D02*
G37*
G36*
X6108700D02*
X6086340D01*
X6076430Y1954827D01*
X6068028Y1949213D01*
X6053087Y1934272D01*
X6052837Y1933898D01*
X6037563D01*
X6037313Y1934272D01*
X6022372Y1949213D01*
X6013970Y1954827D01*
X6004060Y1956798D01*
X5981700D01*
Y1883400D01*
Y1810002D01*
X6019000D01*
X6028911Y1811974D01*
X6037313Y1817588D01*
X6037563Y1817962D01*
X6052837D01*
X6053087Y1817588D01*
X6061489Y1811974D01*
X6071400Y1810002D01*
X6108700D01*
Y1883400D01*
Y1956798D01*
D02*
G37*
G36*
X7239000Y2743698D02*
X6324600D01*
X6314689Y2741726D01*
X6306288Y2736112D01*
X6255488Y2685312D01*
X6249874Y2676911D01*
X6247902Y2667000D01*
Y2108200D01*
X6249874Y2098289D01*
X6255488Y2089888D01*
X6357088Y1988288D01*
X6365489Y1982674D01*
X6375400Y1980702D01*
X6694873D01*
X6730502Y1945073D01*
Y1898085D01*
X6717926Y1896211D01*
X6712312Y1904612D01*
X6703911Y1910226D01*
X6694000Y1912198D01*
X6616700D01*
Y1828800D01*
Y1745402D01*
X6668200Y1745402D01*
X6678111Y1747373D01*
X6686513Y1752987D01*
X6712313Y1778788D01*
X6717927Y1787190D01*
X6730502Y1785313D01*
Y939800D01*
X6732474Y929889D01*
X6738088Y921488D01*
X6788887Y870688D01*
X6797289Y865074D01*
X6807200Y863102D01*
X7366000Y863102D01*
X7375911Y865073D01*
X7384312Y870687D01*
X7384313Y870688D01*
X7435112Y921488D01*
X7440726Y929889D01*
X7442698Y939800D01*
Y1701800D01*
X7440726Y1711711D01*
X7435112Y1720112D01*
X7315698Y1839527D01*
Y2667000D01*
X7313726Y2676910D01*
X7308112Y2685312D01*
X7257312Y2736112D01*
X7248910Y2741726D01*
X7239000Y2743698D01*
D02*
G37*
G36*
X6308860Y1956798D02*
X6286500D01*
Y1896100D01*
X6349698D01*
Y1915960D01*
X6347726Y1925870D01*
X6342113Y1934272D01*
X6327172Y1949213D01*
X6318770Y1954827D01*
X6308860Y1956798D01*
D02*
G37*
G36*
X5295900Y1921500D02*
X5232702D01*
Y1886700D01*
X5234674Y1876789D01*
X5240287Y1868388D01*
X5248689Y1862774D01*
X5258600Y1860802D01*
X5295900D01*
Y1921500D01*
D02*
G37*
G36*
X6591300Y1912198D02*
X6514000D01*
X6504089Y1910226D01*
X6495688Y1904612D01*
X6490074Y1896211D01*
X6488102Y1886300D01*
Y1841500D01*
X6591300D01*
Y1912198D01*
D02*
G37*
G36*
X6349698Y1870700D02*
X6286500D01*
Y1810002D01*
X6323800D01*
X6333711Y1811974D01*
X6342113Y1817588D01*
X6347726Y1825989D01*
X6349698Y1835900D01*
Y1870700D01*
D02*
G37*
G36*
X1103400Y1923898D02*
X1041100D01*
Y1790700D01*
X1129298D01*
Y1898000D01*
X1127326Y1907911D01*
X1121713Y1916312D01*
X1113311Y1921926D01*
X1103400Y1923898D01*
D02*
G37*
G36*
X1941360Y1853898D02*
X1921500D01*
Y1790700D01*
X1982198D01*
Y1813060D01*
X1980227Y1822970D01*
X1974613Y1831372D01*
X1959672Y1846313D01*
X1951270Y1851927D01*
X1941360Y1853898D01*
D02*
G37*
G36*
X1015700Y1923898D02*
X972150D01*
X962239Y1921926D01*
X953838Y1916312D01*
X935088Y1897562D01*
X929474Y1889161D01*
X927502Y1879250D01*
Y1790700D01*
X1015700D01*
Y1923898D01*
D02*
G37*
G36*
X6591300Y1816100D02*
X6488102D01*
Y1797100D01*
X6490074Y1787189D01*
X6495688Y1778788D01*
X6521488Y1752988D01*
X6529889Y1747374D01*
X6539800Y1745402D01*
X6591300Y1745402D01*
Y1816100D01*
D02*
G37*
G36*
X1982198Y1765300D02*
X1921500D01*
Y1702102D01*
X1941360D01*
X1951270Y1704074D01*
X1959672Y1709687D01*
X1974613Y1724628D01*
X1980227Y1733030D01*
X1982198Y1742940D01*
Y1765300D01*
D02*
G37*
G36*
X1129298D02*
X1041100D01*
Y1632102D01*
X1103400D01*
X1113311Y1634074D01*
X1121713Y1639688D01*
X1127326Y1648089D01*
X1129298Y1658000D01*
Y1765300D01*
D02*
G37*
G36*
X1015700D02*
X927502D01*
Y1676750D01*
X929474Y1666839D01*
X935088Y1658438D01*
X953838Y1639688D01*
X962239Y1634074D01*
X972150Y1632102D01*
X1015700D01*
Y1765300D01*
D02*
G37*
G36*
X5092700Y1630398D02*
X5070340D01*
X5060430Y1628427D01*
X5052028Y1622813D01*
X5037087Y1607872D01*
X5031473Y1599471D01*
X5029502Y1589560D01*
Y1569700D01*
X5092700D01*
Y1630398D01*
D02*
G37*
G36*
X8381200Y1542798D02*
X8343900D01*
Y1482100D01*
X8407098D01*
Y1516900D01*
X8405126Y1526811D01*
X8399513Y1535212D01*
X8391111Y1540826D01*
X8381200Y1542798D01*
D02*
G37*
G36*
X8407400Y2743698D02*
X7594600D01*
X7584689Y2741726D01*
X7576288Y2736112D01*
X7525488Y2685312D01*
X7519874Y2676911D01*
X7517902Y2667000D01*
Y1854200D01*
X7519874Y1844289D01*
X7525488Y1835888D01*
X7550888Y1810488D01*
X7559289Y1804874D01*
X7569200Y1802902D01*
X7693564D01*
X7968134Y1528333D01*
X7963274Y1516600D01*
X7871000D01*
Y1375800D01*
X7981079D01*
Y1316600D01*
X7966000D01*
Y1175800D01*
X8086800D01*
Y1316600D01*
X8071721D01*
Y1375800D01*
X8181800D01*
Y1452507D01*
X8242602Y1513309D01*
X8255302Y1508048D01*
Y1482100D01*
X8318500D01*
Y1542798D01*
X8304779D01*
X8297991Y1555498D01*
X8298328Y1556002D01*
X8381200D01*
X8391111Y1557974D01*
X8399513Y1563588D01*
X8405126Y1571989D01*
X8407098Y1581900D01*
Y1661960D01*
X8405126Y1671870D01*
X8399513Y1680272D01*
X8384572Y1695213D01*
X8376521Y1700592D01*
Y1752178D01*
X8414347Y1790004D01*
X8424171Y1804707D01*
X8427621Y1822050D01*
X8427621Y1822051D01*
Y1897200D01*
X8448700D01*
Y1989000D01*
X8443018D01*
X8438158Y2000733D01*
X8476512Y2039088D01*
X8482126Y2047489D01*
X8484098Y2057400D01*
Y2667000D01*
X8482126Y2676911D01*
X8476512Y2685312D01*
X8425712Y2736112D01*
X8417311Y2741726D01*
X8407400Y2743698D01*
D02*
G37*
G36*
X8407098Y1456700D02*
X8343900D01*
Y1396002D01*
X8366260D01*
X8376170Y1397973D01*
X8384572Y1403587D01*
X8399513Y1418528D01*
X8405127Y1426930D01*
X8407098Y1436840D01*
Y1456700D01*
D02*
G37*
G36*
X8318500D02*
X8255302D01*
Y1436840D01*
X8257274Y1426930D01*
X8262887Y1418528D01*
X8277828Y1403587D01*
X8286230Y1397973D01*
X8296140Y1396002D01*
X8318500D01*
Y1456700D01*
D02*
G37*
G36*
X5872480Y1332300D02*
X5824220D01*
Y1306900D01*
X5872480D01*
Y1332300D01*
D02*
G37*
G36*
Y1233100D02*
X5824220D01*
Y1207700D01*
X5872480D01*
Y1233100D01*
D02*
G37*
G36*
X9108440Y2464298D02*
X8559800D01*
X8549889Y2462326D01*
X8541488Y2456712D01*
X8516088Y2431312D01*
X8510474Y2422911D01*
X8508502Y2413000D01*
Y1778000D01*
X8510474Y1768089D01*
X8516088Y1759688D01*
X8660902Y1614873D01*
Y1295400D01*
X8662874Y1285489D01*
X8668488Y1277088D01*
X8744688Y1200888D01*
X8753089Y1195274D01*
X8763000Y1193302D01*
X9194800D01*
X9204711Y1195274D01*
X9213112Y1200888D01*
X9263912Y1251688D01*
X9269526Y1260089D01*
X9271498Y1270000D01*
Y1701800D01*
X9269526Y1711711D01*
X9263912Y1720112D01*
X9220698Y1763327D01*
Y2352040D01*
X9218726Y2361951D01*
X9213112Y2370352D01*
X9126752Y2456712D01*
X9118351Y2462326D01*
X9108440Y2464298D01*
D02*
G37*
G36*
X5800357Y1082040D02*
X5774956D01*
Y1033780D01*
X5800357D01*
Y1082040D01*
D02*
G37*
G36*
X6081715Y1201420D02*
X6059485D01*
X6038947Y1192913D01*
X6023227Y1177193D01*
X6014720Y1156655D01*
Y1134425D01*
X6023227Y1113887D01*
X6025279Y1111834D01*
Y1014792D01*
X6017228Y1009413D01*
X6002288Y994472D01*
X5996674Y986071D01*
X5994702Y976160D01*
Y896100D01*
X5996674Y886189D01*
X6002287Y877788D01*
X6010689Y872174D01*
X6020600Y870202D01*
X6120600D01*
X6130511Y872174D01*
X6138913Y877788D01*
X6144526Y886189D01*
X6146498Y896100D01*
Y898279D01*
X6159907D01*
X6162665Y893503D01*
X6176703Y879465D01*
X6193897Y869538D01*
X6213073Y864400D01*
X6232927D01*
X6252103Y869538D01*
X6269297Y879465D01*
X6283335Y893503D01*
X6286093Y898279D01*
X6299502D01*
Y896100D01*
X6301474Y886189D01*
X6307087Y877788D01*
X6315489Y872174D01*
X6325400Y870202D01*
X6425400D01*
X6435311Y872174D01*
X6443713Y877788D01*
X6449326Y886189D01*
X6451298Y896100D01*
Y976160D01*
X6449326Y986070D01*
X6443713Y994472D01*
X6428772Y1009413D01*
X6420370Y1015026D01*
X6410460Y1016998D01*
X6340340D01*
X6330430Y1015026D01*
X6322028Y1009413D01*
X6307088Y994472D01*
X6303378Y988921D01*
X6280511D01*
X6269297Y1000135D01*
X6252103Y1010062D01*
X6232927Y1015200D01*
X6213073D01*
X6193897Y1010062D01*
X6176703Y1000135D01*
X6165489Y988921D01*
X6142622D01*
X6138913Y994472D01*
X6123972Y1009413D01*
X6115921Y1014792D01*
Y1111834D01*
X6117973Y1113887D01*
X6126480Y1134425D01*
Y1156655D01*
X6117973Y1177193D01*
X6102253Y1192913D01*
X6081715Y1201420D01*
D02*
G37*
G36*
X6120600Y856998D02*
X6020600D01*
X6010689Y855026D01*
X6002287Y849412D01*
X5996674Y841011D01*
X5994943Y832308D01*
X5988738Y830848D01*
X5982002Y830564D01*
X5980333Y832233D01*
X5959795Y840740D01*
X5937565D01*
X5917027Y832233D01*
X5901307Y816513D01*
X5892800Y795975D01*
Y773745D01*
X5901307Y753207D01*
X5917027Y737487D01*
X5937565Y728980D01*
X5959795D01*
X5980333Y737487D01*
X5981125Y738279D01*
X5998578D01*
X6002287Y732728D01*
X6017228Y717787D01*
X6025279Y712408D01*
Y659192D01*
X6017228Y653813D01*
X6002288Y638872D01*
X5996674Y630471D01*
X5994702Y620560D01*
Y540500D01*
X5996674Y530589D01*
X6002287Y522188D01*
X6010689Y516574D01*
X6020600Y514602D01*
X6120600D01*
X6130511Y516574D01*
X6138913Y522188D01*
X6144526Y530589D01*
X6146498Y540500D01*
Y620560D01*
X6144526Y630470D01*
X6138913Y638872D01*
X6123972Y653813D01*
X6115921Y659192D01*
Y712407D01*
X6123972Y717787D01*
X6138913Y732728D01*
X6144527Y741130D01*
X6146498Y751040D01*
X6146498Y831100D01*
X6144526Y841011D01*
X6138913Y849412D01*
X6130511Y855026D01*
X6120600Y856998D01*
D02*
G37*
G36*
X6425400D02*
X6325400D01*
X6315489Y855026D01*
X6307087Y849412D01*
X6301474Y841011D01*
X6299502Y831100D01*
Y828921D01*
X6283735D01*
X6282593Y830063D01*
X6262055Y838570D01*
X6239825D01*
X6219287Y830063D01*
X6203567Y814343D01*
X6195060Y793805D01*
Y771575D01*
X6203567Y751036D01*
X6219287Y735317D01*
X6239825Y726810D01*
X6262055D01*
X6282593Y735317D01*
X6285556Y738279D01*
X6303378D01*
X6307087Y732728D01*
X6322028Y717787D01*
X6330079Y712408D01*
Y695899D01*
X6329103Y695335D01*
X6315065Y681297D01*
X6305138Y664103D01*
X6300000Y644927D01*
Y625073D01*
X6300292Y623985D01*
X6221433Y545127D01*
X6211609Y530424D01*
X6208159Y513080D01*
Y399772D01*
X5905169Y96782D01*
X5886543Y107535D01*
X5857193Y115400D01*
X5826807D01*
X5797457Y107535D01*
X5771143Y92343D01*
X5749657Y70857D01*
X5734465Y44543D01*
X5726600Y15193D01*
Y-15193D01*
X5734465Y-44543D01*
X5749657Y-70857D01*
X5771143Y-92343D01*
X5797457Y-107535D01*
X5826807Y-115400D01*
X5857193D01*
X5886543Y-107535D01*
X5912857Y-92343D01*
X5934343Y-70857D01*
X5949535Y-44543D01*
X5957400Y-15193D01*
Y15193D01*
X5956209Y19636D01*
X5973194Y36620D01*
X5984580Y30046D01*
X5980600Y15193D01*
Y12700D01*
X6083300D01*
Y115400D01*
X6080807D01*
X6065954Y111420D01*
X6059380Y122806D01*
X6285526Y348953D01*
X6285527Y348953D01*
X6295351Y363657D01*
X6298801Y381000D01*
Y494307D01*
X6364385Y559892D01*
X6365473Y559600D01*
X6385327D01*
X6404503Y564738D01*
X6421697Y574665D01*
X6435735Y588703D01*
X6445662Y605897D01*
X6450800Y625073D01*
Y644927D01*
X6445662Y664103D01*
X6435735Y681297D01*
X6421697Y695335D01*
X6420721Y695899D01*
Y712407D01*
X6428772Y717787D01*
X6443713Y732728D01*
X6449327Y741130D01*
X6451298Y751040D01*
X6451298Y831100D01*
X6449326Y841011D01*
X6443713Y849412D01*
X6435311Y855026D01*
X6425400Y856998D01*
D02*
G37*
G36*
X1103400Y907898D02*
X1041100D01*
Y774700D01*
X1129298D01*
Y882000D01*
X1127326Y891911D01*
X1121713Y900312D01*
X1113311Y905926D01*
X1103400Y907898D01*
D02*
G37*
G36*
X1015700D02*
X972150D01*
X962239Y905926D01*
X953838Y900312D01*
X935088Y881562D01*
X929474Y873161D01*
X927502Y863250D01*
Y774700D01*
X1015700D01*
Y907898D01*
D02*
G37*
G36*
X1941360Y837898D02*
X1921500D01*
Y774700D01*
X1982198D01*
Y797060D01*
X1980227Y806970D01*
X1974613Y815372D01*
X1959672Y830313D01*
X1951270Y835927D01*
X1941360Y837898D01*
D02*
G37*
G36*
X1982198Y749300D02*
X1921500D01*
Y686102D01*
X1941360D01*
X1951270Y688074D01*
X1959672Y693687D01*
X1974613Y708628D01*
X1980227Y717030D01*
X1982198Y726940D01*
Y749300D01*
D02*
G37*
G36*
X1129298Y749300D02*
X1041100D01*
Y616102D01*
X1103400D01*
X1113311Y618074D01*
X1121713Y623688D01*
X1127326Y632089D01*
X1129298Y642000D01*
Y749300D01*
D02*
G37*
G36*
X1015700D02*
X927502D01*
Y660750D01*
X929474Y650839D01*
X935088Y642438D01*
X953838Y623688D01*
X962239Y618074D01*
X972150Y616102D01*
X1015700D01*
Y749300D01*
D02*
G37*
G36*
X5326900Y507698D02*
X5292100D01*
Y444500D01*
X5352798D01*
Y481800D01*
X5350826Y491711D01*
X5345212Y500113D01*
X5336811Y505726D01*
X5326900Y507698D01*
D02*
G37*
G36*
X5878360Y507698D02*
X5858500D01*
Y444500D01*
X5919198D01*
Y466860D01*
X5917227Y476770D01*
X5911613Y485172D01*
X5896672Y500113D01*
X5888270Y505727D01*
X5878360Y507698D01*
D02*
G37*
G36*
X5833100Y507698D02*
X5798300D01*
X5788389Y505726D01*
X5779988Y500113D01*
X5774374Y491711D01*
X5772402Y481800D01*
Y444500D01*
X5833100D01*
Y507698D01*
D02*
G37*
G36*
X5266700D02*
X5246840D01*
X5236930Y505726D01*
X5228528Y500113D01*
X5213587Y485172D01*
X5207973Y476770D01*
X5206002Y466860D01*
Y444500D01*
X5266700D01*
Y507698D01*
D02*
G37*
G36*
X6120600Y501398D02*
X6083300D01*
Y440700D01*
X6146498D01*
Y475500D01*
X6144526Y485411D01*
X6138913Y493812D01*
X6130511Y499426D01*
X6120600Y501398D01*
D02*
G37*
G36*
X6057900D02*
X6020600D01*
X6010689Y499426D01*
X6002287Y493812D01*
X5996674Y485411D01*
X5994702Y475500D01*
Y440700D01*
X6057900D01*
Y501398D01*
D02*
G37*
G36*
X2228250Y552298D02*
X2184700D01*
Y419100D01*
X2272898D01*
Y507650D01*
X2270926Y517561D01*
X2265312Y525962D01*
X2246562Y544712D01*
X2238161Y550326D01*
X2228250Y552298D01*
D02*
G37*
G36*
X2159300D02*
X2097000D01*
X2087089Y550326D01*
X2078687Y544712D01*
X2073074Y536311D01*
X2071102Y526400D01*
Y419100D01*
X2159300D01*
Y552298D01*
D02*
G37*
G36*
X1205300Y539598D02*
X1143000D01*
Y406400D01*
X1231198D01*
Y513700D01*
X1229226Y523611D01*
X1223612Y532012D01*
X1215211Y537626D01*
X1205300Y539598D01*
D02*
G37*
G36*
X1117600D02*
X1074050D01*
X1064139Y537626D01*
X1055738Y532012D01*
X1036988Y513262D01*
X1031374Y504861D01*
X1029402Y494950D01*
Y406400D01*
X1117600D01*
Y539598D01*
D02*
G37*
G36*
X4424200Y606500D02*
X4313400D01*
Y405700D01*
X4424200D01*
Y411879D01*
X4512894D01*
X4514947Y409827D01*
X4535485Y401320D01*
X4557715D01*
X4578253Y409827D01*
X4593973Y425547D01*
X4602480Y446085D01*
Y468315D01*
X4593973Y488853D01*
X4578253Y504573D01*
X4557715Y513080D01*
X4535485D01*
X4514947Y504573D01*
X4512894Y502521D01*
X4424200D01*
Y606500D01*
D02*
G37*
G36*
X5919198Y419100D02*
X5858500D01*
Y355902D01*
X5878360D01*
X5888270Y357874D01*
X5896672Y363487D01*
X5911613Y378428D01*
X5917227Y386830D01*
X5919198Y396740D01*
Y419100D01*
D02*
G37*
G36*
X5833100D02*
X5772402D01*
Y381800D01*
X5774374Y371889D01*
X5779988Y363487D01*
X5788389Y357874D01*
X5798300Y355902D01*
X5833100D01*
Y419100D01*
D02*
G37*
G36*
X5352798D02*
X5292100D01*
Y355902D01*
X5326900D01*
X5336811Y357874D01*
X5345212Y363487D01*
X5350826Y371889D01*
X5352798Y381800D01*
Y419100D01*
D02*
G37*
G36*
X5266700D02*
X5206002D01*
Y396740D01*
X5207973Y386830D01*
X5213587Y378428D01*
X5228528Y363487D01*
X5236930Y357873D01*
X5246840Y355902D01*
X5266700D01*
Y419100D01*
D02*
G37*
G36*
X6146498Y415300D02*
X6083300D01*
Y354602D01*
X6105660D01*
X6115570Y356573D01*
X6123972Y362187D01*
X6138913Y377128D01*
X6144527Y385530D01*
X6146498Y395440D01*
Y415300D01*
D02*
G37*
G36*
X6057900D02*
X5994702D01*
Y395440D01*
X5996674Y385530D01*
X6002287Y377128D01*
X6017228Y362187D01*
X6025630Y356573D01*
X6035540Y354602D01*
X6057900D01*
Y415300D01*
D02*
G37*
G36*
X8231300Y420698D02*
X8209499D01*
Y317499D01*
X8280198D01*
Y371800D01*
X8278226Y381711D01*
X8272612Y390113D01*
X8249612Y413112D01*
X8241211Y418726D01*
X8231300Y420698D01*
D02*
G37*
G36*
X8184099D02*
X8139300D01*
X8129389Y418726D01*
X8120988Y413112D01*
X8115374Y404711D01*
X8113402Y394800D01*
Y317499D01*
X8184099D01*
Y420698D01*
D02*
G37*
G36*
X2272898Y393700D02*
X2184700D01*
Y260502D01*
X2228250D01*
X2238161Y262474D01*
X2246562Y268088D01*
X2265312Y286838D01*
X2270926Y295239D01*
X2272898Y305150D01*
Y393700D01*
D02*
G37*
G36*
X2159300D02*
X2071102D01*
Y286400D01*
X2073074Y276489D01*
X2078687Y268088D01*
X2087089Y262474D01*
X2097000Y260502D01*
X2159300D01*
Y393700D01*
D02*
G37*
G36*
X1231198Y381000D02*
X1143000D01*
Y247802D01*
X1205300D01*
X1215211Y249774D01*
X1223612Y255388D01*
X1229226Y263789D01*
X1231198Y273700D01*
Y381000D01*
D02*
G37*
G36*
X1117600D02*
X1029402D01*
Y292450D01*
X1031374Y282539D01*
X1036988Y274138D01*
X1055738Y255388D01*
X1064139Y249774D01*
X1074050Y247802D01*
X1117600D01*
Y381000D01*
D02*
G37*
G36*
X8280198Y292099D02*
X8209499D01*
Y188902D01*
X8231300D01*
X8241211Y190874D01*
X8249612Y196488D01*
X8272612Y219487D01*
X8278226Y227889D01*
X8280198Y237800D01*
Y292099D01*
D02*
G37*
G36*
X8184099D02*
X8113402D01*
Y214800D01*
X8115374Y204889D01*
X8120988Y196488D01*
X8129389Y190874D01*
X8139300Y188902D01*
X8184099D01*
Y292099D01*
D02*
G37*
G36*
X2228250Y196698D02*
X2184700D01*
Y63500D01*
X2272898D01*
Y152050D01*
X2270926Y161961D01*
X2265312Y170362D01*
X2246562Y189112D01*
X2238161Y194726D01*
X2228250Y196698D01*
D02*
G37*
G36*
X2159300D02*
X2097000D01*
X2087089Y194726D01*
X2078687Y189112D01*
X2073074Y180711D01*
X2071102Y170800D01*
Y63500D01*
X2159300D01*
Y196698D01*
D02*
G37*
G36*
X1205000D02*
X1142700D01*
Y63500D01*
X1230898D01*
Y170800D01*
X1228926Y180711D01*
X1223313Y189112D01*
X1214911Y194726D01*
X1205000Y196698D01*
D02*
G37*
G36*
X1117300D02*
X1073750D01*
X1063839Y194726D01*
X1055438Y189112D01*
X1036688Y170362D01*
X1031074Y161961D01*
X1029102Y152050D01*
Y63500D01*
X1117300D01*
Y196698D01*
D02*
G37*
G36*
X6111193Y115400D02*
X6108700D01*
Y12700D01*
X6211400D01*
Y15193D01*
X6203535Y44543D01*
X6188343Y70857D01*
X6166857Y92343D01*
X6140543Y107535D01*
X6111193Y115400D01*
D02*
G37*
G36*
X7975600Y610098D02*
X6985000D01*
X6975089Y608126D01*
X6966688Y602512D01*
X6890488Y526312D01*
X6884874Y517911D01*
X6882902Y508000D01*
Y76200D01*
X6884874Y66289D01*
X6890488Y57888D01*
X6966688Y-18312D01*
X6975089Y-23926D01*
X6985000Y-25898D01*
X7950200D01*
X7960111Y-23926D01*
X7968512Y-18312D01*
X8019312Y32488D01*
X8024926Y40889D01*
X8026898Y50800D01*
Y558800D01*
X8024926Y568711D01*
X8019312Y577112D01*
X7993912Y602512D01*
X7985511Y608126D01*
X7975600Y610098D01*
D02*
G37*
G36*
X2272898Y38100D02*
X2184700D01*
Y-95098D01*
X2228250D01*
X2238161Y-93126D01*
X2246562Y-87512D01*
X2265312Y-68762D01*
X2270926Y-60361D01*
X2272898Y-50450D01*
Y38100D01*
D02*
G37*
G36*
X2159300D02*
X2071102D01*
Y-69200D01*
X2073074Y-79111D01*
X2078687Y-87512D01*
X2087089Y-93126D01*
X2097000Y-95098D01*
X2159300D01*
Y38100D01*
D02*
G37*
G36*
X1230898Y38100D02*
X1142700D01*
Y-95098D01*
X1205000D01*
X1214911Y-93126D01*
X1223313Y-87512D01*
X1228926Y-79111D01*
X1230898Y-69200D01*
Y38100D01*
D02*
G37*
G36*
X1117300D02*
X1029102D01*
Y-50450D01*
X1031074Y-60361D01*
X1036688Y-68762D01*
X1055438Y-87512D01*
X1063839Y-93126D01*
X1073750Y-95098D01*
X1117300D01*
Y38100D01*
D02*
G37*
G36*
X6211400Y-12700D02*
X6108700D01*
Y-115400D01*
X6111193D01*
X6140543Y-107535D01*
X6166857Y-92343D01*
X6188343Y-70857D01*
X6203535Y-44543D01*
X6211400Y-15193D01*
Y-12700D01*
D02*
G37*
G36*
X6083300D02*
X5980600D01*
Y-15193D01*
X5988465Y-44543D01*
X6003657Y-70857D01*
X6025143Y-92343D01*
X6051457Y-107535D01*
X6080807Y-115400D01*
X6083300D01*
Y-12700D01*
D02*
G37*
%LPD*%
G36*
X4800600Y2514600D02*
Y2006600D01*
X4775200Y1981200D01*
X4572000Y1981200D01*
X4546600Y1955800D01*
X4546600Y1676400D01*
X4528820Y1658620D01*
X3827780D01*
X3810000Y1676400D01*
Y1981200D01*
X3784600Y2006600D01*
X3505200D01*
X3479800Y2032000D01*
Y2514600D01*
X3505200Y2540000D01*
X4775200D01*
X4800600Y2514600D01*
D02*
G37*
G36*
X5067300Y1452880D02*
X5168900D01*
X5176520Y1445260D01*
Y1402080D01*
X5214620Y1363980D01*
X5295900D01*
X5302250Y1357630D01*
Y1332230D01*
X5300980Y1330960D01*
X4986020D01*
X4963160Y1353820D01*
X4843780D01*
X4820013Y1377587D01*
Y1533253D01*
X4836160Y1549400D01*
X4970780D01*
X5067300Y1452880D01*
D02*
G37*
G36*
X4292600Y1600200D02*
Y1397000D01*
X4318000Y1371600D01*
X4394200D01*
X4419600Y1346200D01*
Y685800D01*
X4394200Y660400D01*
X3962400D01*
X3835400Y787400D01*
Y939800D01*
X3784600Y990600D01*
X3378200D01*
Y1549400D01*
X3784600D01*
X3860800Y1625600D01*
X4267200D01*
X4292600Y1600200D01*
D02*
G37*
G36*
X2006600Y2667000D02*
Y1955800D01*
X1981200Y1930400D01*
X1828800D01*
X1803400Y1905000D01*
Y1625600D01*
X1778000Y1600200D01*
Y1318260D01*
X1773235D01*
X1752697Y1309753D01*
X1736977Y1294033D01*
X1729126Y1275080D01*
X1784350D01*
Y1249680D01*
X1729126D01*
X1736977Y1230727D01*
X1752697Y1215007D01*
X1773235Y1206500D01*
X1778000D01*
Y863600D01*
X1803400Y838200D01*
Y609600D01*
X1828800Y584200D01*
X1955800D01*
X1981200Y558800D01*
Y-127000D01*
X1930400Y-177800D01*
X1346200D01*
X1295400Y-127000D01*
Y584200D01*
X1270000Y609600D01*
X1219200D01*
X1193800Y635000D01*
Y939800D01*
X1066800Y1066800D01*
X635000D01*
X482600Y1219200D01*
X-101600D01*
X-152400Y1270000D01*
Y1727200D01*
X-76200Y1803400D01*
X736600D01*
X838200Y1701800D01*
Y1574800D01*
X863600Y1549400D01*
X1168400D01*
X1219200Y1600200D01*
Y1955800D01*
X1295400Y2032000D01*
Y2692400D01*
X1320800Y2717800D01*
X1955800D01*
X2006600Y2667000D01*
D02*
G37*
G36*
X2844800Y1600200D02*
Y914400D01*
X2717800Y787400D01*
X2209800D01*
X2082800Y914400D01*
X1879600D01*
X1854200Y939800D01*
Y1222996D01*
X1858010Y1226123D01*
X1933679D01*
X1933680Y1226123D01*
X1947555Y1228883D01*
X1959317Y1236743D01*
X1966937Y1244363D01*
X1974797Y1256125D01*
X1977557Y1270000D01*
X1974797Y1283875D01*
X1966937Y1295637D01*
X1955175Y1303497D01*
X1941300Y1306257D01*
X1927425Y1303497D01*
X1920151Y1298637D01*
X1858010D01*
X1854200Y1301764D01*
Y1574800D01*
X1879600Y1600200D01*
X2082800D01*
X2209800Y1727200D01*
X2717800D01*
X2844800Y1600200D01*
D02*
G37*
G36*
X7289800Y2667000D02*
Y1828800D01*
X7416800Y1701800D01*
Y939800D01*
X7366000Y889000D01*
X6807200Y889000D01*
X6756400Y939800D01*
Y1955800D01*
X6705600Y2006600D01*
X6375400D01*
X6273800Y2108200D01*
Y2667000D01*
X6324600Y2717800D01*
X7239000D01*
X7289800Y2667000D01*
D02*
G37*
G36*
X8458200Y2667000D02*
Y2057400D01*
X8407400Y2006600D01*
X7975600D01*
X7924800Y1955800D01*
Y1854200D01*
X7899400Y1828800D01*
X7569200D01*
X7543800Y1854200D01*
Y2667000D01*
X7594600Y2717800D01*
X8407400D01*
X8458200Y2667000D01*
D02*
G37*
G36*
X8315900Y1897200D02*
X8336979D01*
Y1840823D01*
X8299153Y1802997D01*
X8289329Y1788294D01*
X8285879Y1770950D01*
Y1700592D01*
X8277828Y1695213D01*
X8262888Y1680272D01*
X8257274Y1671871D01*
X8255302Y1661960D01*
Y1654196D01*
X8117707Y1516600D01*
X8071721D01*
Y1534160D01*
X8068271Y1551504D01*
X8058447Y1566207D01*
X8058446Y1566207D01*
X7833484Y1791169D01*
X7838344Y1802902D01*
X7899400D01*
X7909311Y1804874D01*
X7917712Y1810488D01*
X7943112Y1835888D01*
X7948726Y1844289D01*
X7961302Y1842415D01*
Y1804500D01*
X7963274Y1794590D01*
X7968888Y1786188D01*
X7994688Y1760388D01*
X8003089Y1754774D01*
X8013000Y1752802D01*
X8064500Y1752802D01*
Y1836201D01*
Y1919598D01*
X7987200D01*
X7977289Y1917626D01*
X7968888Y1912012D01*
X7963274Y1903611D01*
X7950698Y1905485D01*
Y1945073D01*
X7986327Y1980702D01*
X8315900D01*
Y1897200D01*
D02*
G37*
%LPC*%
G36*
X8167200Y1919598D02*
X8089900D01*
Y1848901D01*
X8193098D01*
X8193098Y1893700D01*
X8191126Y1903611D01*
X8185512Y1912012D01*
X8177111Y1917626D01*
X8167200Y1919598D01*
D02*
G37*
G36*
X8193098Y1823501D02*
X8089900D01*
Y1752802D01*
X8141400Y1752802D01*
X8151311Y1754773D01*
X8159713Y1760387D01*
X8185513Y1786188D01*
X8191127Y1794590D01*
X8193098Y1804500D01*
Y1823501D01*
D02*
G37*
%LPD*%
G36*
X9194800Y2352040D02*
Y1752600D01*
X9245600Y1701800D01*
Y1270000D01*
X9194800Y1219200D01*
X8763000D01*
X8686800Y1295400D01*
Y1625600D01*
X8534400Y1778000D01*
Y2413000D01*
X8559800Y2438400D01*
X9108440D01*
X9194800Y2352040D01*
D02*
G37*
G36*
X8001000Y558800D02*
Y50800D01*
X7950200Y0D01*
X6985000D01*
X6908800Y76200D01*
Y508000D01*
X6985000Y584200D01*
X7975600D01*
X8001000Y558800D01*
D02*
G37*
D10*
X5279400Y254000D02*
D03*
Y431800D02*
D03*
D11*
X5439400Y254000D02*
D03*
Y431800D02*
D03*
D12*
X5588000Y759200D02*
D03*
X5689600D02*
D03*
D13*
X5588000Y663200D02*
D03*
X5689600D02*
D03*
D14*
X8077200Y2126200D02*
D03*
X6604000Y2118800D02*
D03*
D15*
X8077200Y1836200D02*
D03*
X6604000Y1828800D02*
D03*
D16*
X8382300Y1943100D02*
D03*
X8382000Y2070100D02*
D03*
X8382300Y2197100D02*
D03*
Y2324100D02*
D03*
D17*
X8653800Y1905000D02*
D03*
Y2362200D02*
D03*
D18*
X8737600Y2133600D02*
D03*
D19*
X8940800D02*
D03*
D20*
X8331200Y1629400D02*
D03*
X6375400Y943600D02*
D03*
X6070600D02*
D03*
Y588000D02*
D03*
X5232400Y820400D02*
D03*
X4318000Y2649200D02*
D03*
X3911600D02*
D03*
X3759200D02*
D03*
D21*
X8331200Y1469400D02*
D03*
X6375400Y783600D02*
D03*
X6070600D02*
D03*
Y428000D02*
D03*
X5232400Y660400D02*
D03*
X4318000Y2489200D02*
D03*
X3911600D02*
D03*
X3759200D02*
D03*
D22*
X7906800Y304800D02*
D03*
D23*
X8196800D02*
D03*
D24*
X5384800Y660400D02*
D03*
X6273800Y1723400D02*
D03*
X6121400D02*
D03*
X4800600Y758200D02*
D03*
X5461000Y1774200D02*
D03*
X5308600D02*
D03*
X5664200Y1723400D02*
D03*
X5816600Y1786900D02*
D03*
X4470400Y2489200D02*
D03*
X4064000D02*
D03*
X5969000Y1723400D02*
D03*
X5105400Y1397000D02*
D03*
D25*
X5384800Y820400D02*
D03*
X6273800Y1883400D02*
D03*
X6121400D02*
D03*
X4800600Y918200D02*
D03*
X5461000Y1934200D02*
D03*
X5308600D02*
D03*
X5664200Y1883400D02*
D03*
X5816600Y1946900D02*
D03*
X4470400Y2649200D02*
D03*
X4064000D02*
D03*
X5969000Y1883400D02*
D03*
X5105400Y1557000D02*
D03*
D26*
X5537200Y1270000D02*
D03*
D27*
X5811520Y1195000D02*
D03*
X5262880D02*
D03*
Y1345000D02*
D03*
X5811520D02*
D03*
D28*
X5762257Y1094740D02*
D03*
X5712244D02*
D03*
X5662232D02*
D03*
X5612219D02*
D03*
X5562206D02*
D03*
X5512194D02*
D03*
X5462181D02*
D03*
X5412168D02*
D03*
X5362156D02*
D03*
X5312143D02*
D03*
Y1445260D02*
D03*
X5362156D02*
D03*
X5412168D02*
D03*
X5462181D02*
D03*
X5512194D02*
D03*
X5562206D02*
D03*
X5612219D02*
D03*
X5662232D02*
D03*
X5712244D02*
D03*
X5762257D02*
D03*
D29*
X6978100Y2159000D02*
D03*
X7703100D02*
D03*
D30*
X6223000Y939800D02*
D03*
X1524000Y1270000D02*
D03*
X5461000Y1651000D02*
D03*
X5148580Y256540D02*
D03*
X4973320Y1417320D02*
D03*
X8077200Y2387600D02*
D03*
X5309861Y1650401D02*
D03*
X4924800Y1117600D02*
D03*
X5562600Y431800D02*
D03*
X2133600Y1270000D02*
D03*
X4114800Y1320800D02*
D03*
X4927600Y1270000D02*
D03*
X5814060Y1661160D02*
D03*
X5681980Y2235200D02*
D03*
X5339080Y934720D02*
D03*
X6375400Y635000D02*
D03*
D31*
X5590800Y914400D02*
D03*
D32*
X5686800D02*
D03*
D33*
X5845800Y431800D02*
D03*
X5972800Y2235200D02*
D03*
X1908800Y762000D02*
D03*
Y1778000D02*
D03*
D34*
X5685800Y431800D02*
D03*
X5812800Y2235200D02*
D03*
X1748800Y762000D02*
D03*
Y1778000D02*
D03*
D35*
X5003800Y598500D02*
D03*
Y925500D02*
D03*
D36*
X4679200Y1270000D02*
D03*
X4673600Y1117600D02*
D03*
D37*
X4775200Y1270000D02*
D03*
X4769600Y1117600D02*
D03*
D38*
X4731800Y2133600D02*
D03*
Y2387600D02*
D03*
X3266000Y2133600D02*
D03*
D39*
X5021800D02*
D03*
Y2387600D02*
D03*
X3556000Y2133600D02*
D03*
D40*
Y2387600D02*
D03*
D41*
X3266000D02*
D03*
D42*
X3572200Y1270000D02*
D03*
X2422200D02*
D03*
D43*
X2159300Y2501900D02*
D03*
X1397600Y2133600D02*
D03*
X1410300Y393700D02*
D03*
X1308400Y762000D02*
D03*
X2172000Y406400D02*
D03*
D44*
X1879300Y2501900D02*
D03*
X1117600Y2133600D02*
D03*
X1130300Y393700D02*
D03*
X1028400Y762000D02*
D03*
X1892000Y406400D02*
D03*
D45*
X7162800Y299100D02*
D03*
D46*
Y1174100D02*
D03*
D47*
X8121400Y1446200D02*
D03*
X7931400D02*
D03*
X8026400Y1246200D02*
D03*
D48*
X1941300Y1270000D02*
D03*
X1716300D02*
D03*
D49*
X4178300Y1900750D02*
D03*
Y872850D02*
D03*
D50*
X4102100Y1580750D02*
D03*
Y552850D02*
D03*
D51*
X3987800Y1534000D02*
D03*
X4114800D02*
D03*
X4241800D02*
D03*
X4368800D02*
D03*
X3987800Y506100D02*
D03*
X4114800D02*
D03*
X4241800D02*
D03*
X4368800D02*
D03*
D52*
Y2145500D02*
D03*
X4241800D02*
D03*
X4114800D02*
D03*
X3987800D02*
D03*
X4368800Y1117600D02*
D03*
X4241800D02*
D03*
X4114800D02*
D03*
X3987800D02*
D03*
D53*
X1117600Y2489200D02*
D03*
X1028400Y1778000D02*
D03*
X1879300Y2146300D02*
D03*
X1130000Y50800D02*
D03*
X1892000D02*
D03*
D54*
X1397600Y2489200D02*
D03*
X1308400Y1778000D02*
D03*
X2159300Y2146300D02*
D03*
X1410000Y50800D02*
D03*
X2172000D02*
D03*
D55*
X5362156Y1274956D02*
Y1445260D01*
X5357200Y1270000D02*
X5362156Y1274956D01*
X5491864Y1350000D02*
X5512194Y1370330D01*
X5469200Y1350000D02*
X5491864D01*
X5512194Y1370330D02*
Y1445260D01*
X5607297Y871914D02*
X5614504Y864707D01*
X5590800Y914400D02*
X5607297Y897903D01*
Y871914D02*
Y897903D01*
X5614504Y785704D02*
Y864707D01*
X5588000Y759200D02*
X5614504Y785704D01*
X5658892Y789907D02*
X5689600Y759200D01*
X5658892Y863372D02*
X5670420Y874900D01*
X5658892Y789907D02*
Y863372D01*
X1933680Y1262380D02*
X1941300Y1270000D01*
X1858010Y1262380D02*
X1933680D01*
X1776730Y1270000D02*
X1784350Y1262380D01*
X1716300Y1270000D02*
X1776730D01*
X5661660Y589280D02*
X5667854Y583086D01*
Y558956D02*
Y583086D01*
X5609746D02*
X5615940Y589280D01*
X5667854Y558956D02*
X5675630Y551180D01*
X5615940Y589280D02*
Y651297D01*
X5661660Y589280D02*
Y651297D01*
X5604037Y663200D02*
X5615940Y651297D01*
X5673563Y663200D02*
X5689600D01*
X5588000D02*
X5604037D01*
X5661660Y651297D02*
X5673563Y663200D01*
X5670420Y874900D02*
Y898020D01*
X5686800Y914400D01*
X5590800D02*
X5612219Y935819D01*
X5445188Y939228D02*
Y1022380D01*
X5438140Y932180D02*
X5445188Y939228D01*
Y1022380D02*
X5460428Y1037620D01*
X5391527Y987167D02*
X5412168Y1007808D01*
Y1094740D01*
X5506720Y1008478D02*
X5510441Y1012199D01*
Y1092987D02*
X5512194Y1094740D01*
X5510441Y1012199D02*
Y1092987D01*
X5460428Y1037620D02*
Y1092987D01*
X5462181Y1094740D01*
X5339573Y1023620D02*
X5360403Y1044451D01*
Y1092987D01*
X5255260Y1023620D02*
X5339573D01*
X5410416Y1447013D02*
X5412168Y1445260D01*
X5410416Y1447013D02*
Y1500924D01*
X5410200Y1501140D02*
X5410416Y1500924D01*
X5463934Y1538658D02*
X5464333Y1539058D01*
X5462181Y1445260D02*
X5463934Y1447013D01*
Y1538658D01*
X5612219Y1445260D02*
Y1523087D01*
X5562206Y1445260D02*
Y1621406D01*
X5612219Y1523087D02*
X5735046Y1645914D01*
X5562206Y1621406D02*
X5664200Y1723400D01*
X5240176Y1516224D02*
X5290976D01*
X5232400Y1524000D02*
X5240176Y1516224D01*
X5562206Y1094740D02*
X5562600Y1094346D01*
Y1036320D02*
Y1094346D01*
X5662232Y938968D02*
X5686800Y914400D01*
X5662232Y938968D02*
Y1094740D01*
X5612219Y935819D02*
Y1094740D01*
X5360403Y1092987D02*
X5362156Y1094740D01*
X5175180Y1195000D02*
X5262880D01*
X5681980Y2235200D02*
X5812800D01*
X5816600Y1946900D02*
Y2231400D01*
X5812800Y2235200D02*
X5816600Y2231400D01*
X5972800Y1574800D02*
X6121400Y1723400D01*
X5728590Y1574800D02*
X5972800D01*
X5713997Y1495549D02*
X5747527Y1529080D01*
X6059929D01*
X6254249Y1723400D01*
X6273800D01*
X5663984Y1510194D02*
X5728590Y1574800D01*
X5880100Y1723400D02*
X5969000D01*
X5816600Y1786900D02*
X5880100Y1723400D01*
X5814060Y1661160D02*
Y1784360D01*
X5816600Y1786900D01*
X5735046Y1645914D02*
X5798814D01*
X5814060Y1661160D01*
X5713997Y1447013D02*
Y1495549D01*
X5663984Y1447013D02*
Y1510194D01*
X5712244Y1445260D02*
X5713997Y1447013D01*
X5662232Y1445260D02*
X5663984Y1447013D01*
X5311679Y1445724D02*
Y1495521D01*
X5290976Y1516224D02*
X5311679Y1495521D01*
Y1445724D02*
X5312143Y1445260D01*
D56*
X5024120Y-13242D02*
X5145329Y-134450D01*
X5024120Y-13242D02*
Y360680D01*
X5453550Y-134450D02*
X5588000Y0D01*
X5145329Y-134450D02*
X5453550D01*
X5128079Y464639D02*
Y774519D01*
X5024120Y360680D02*
X5128079Y464639D01*
X5173960Y820400D02*
X5384800D01*
X5128079Y774519D02*
X5173960Y820400D01*
X5157140Y925500D02*
X5255260Y1023620D01*
X5003800Y925500D02*
X5157140D01*
X4988300D02*
X5003800D01*
X5439400Y431800D02*
Y499100D01*
X5506720Y566420D01*
X8331200Y1770950D02*
X8382300Y1822050D01*
X8331200Y1629400D02*
Y1770950D01*
X8382300Y1822050D02*
Y1943100D01*
X8121400Y1456200D02*
X8294600Y1629400D01*
X8121400Y1446200D02*
Y1456200D01*
X8294600Y1629400D02*
X8331200D01*
X7706392Y1854169D02*
Y2155708D01*
X8026400Y1246200D02*
Y1534160D01*
X7706392Y1854169D02*
X8026400Y1534160D01*
X7703100Y2159000D02*
X7706392Y2155708D01*
X5308600Y1651661D02*
X5309861Y1650401D01*
X5303475Y1656786D02*
X5308600Y1651661D01*
Y1774200D01*
X5196840Y1661160D02*
X5201214Y1656786D01*
X5303475D01*
X4864100Y596900D02*
X4865700Y598500D01*
X5003800D01*
X5339080Y934720D02*
X5391527Y987167D01*
X6250940Y782320D02*
X6252220Y783600D01*
X5344160Y899160D02*
X5359400Y914400D01*
X5344160Y861040D02*
Y899160D01*
Y861040D02*
X5384800Y820400D01*
X6250940Y782320D02*
Y782690D01*
X6252220Y783600D02*
X6375400D01*
X5948680Y784860D02*
X5949940Y783600D01*
X6070600D01*
X5515600Y1828800D02*
X5588000D01*
X5642600Y1883400D01*
X5461000Y1774200D02*
X5515600Y1828800D01*
X5461000Y1651000D02*
Y1774200D01*
X6070600Y943600D02*
X6375400D01*
X6070600D02*
Y1145540D01*
X5872480Y0D02*
X6253480Y381000D01*
X5842000Y0D02*
X5872480D01*
X6253480Y381000D02*
Y513080D01*
X6375400Y635000D01*
Y783600D01*
X6070600Y588000D02*
Y783600D01*
X5148580Y233680D02*
X5168900Y254000D01*
X5279400D01*
Y151120D02*
Y254000D01*
Y151120D02*
X5306849Y123671D01*
Y27151D02*
Y123671D01*
Y27151D02*
X5334000Y0D01*
X4927600Y1270000D02*
X5029200D01*
X4775200D02*
X4927600D01*
X5140410Y1015450D02*
X5217160Y1092200D01*
X5285740D01*
X4897850Y1015450D02*
X5140410D01*
X5562600Y431800D02*
X5685800D01*
X5439400D02*
X5562600D01*
X5439400Y254000D02*
Y431800D01*
X4800600Y758200D02*
X4821000D01*
X4988300Y925500D01*
X4800600Y918200D02*
X4897850Y1015450D01*
X4664700Y918200D02*
X4800600D01*
X4619350Y872850D02*
X4664700Y918200D01*
X4178300Y872850D02*
X4619350D01*
X4769600Y1117600D02*
X4924800D01*
X5097780D02*
X5175180Y1195000D01*
X4924800Y1117600D02*
X5097780D01*
X4368800Y468150D02*
Y506100D01*
Y468150D02*
X4379750Y457200D01*
X4546600D01*
X4603000Y1193800D02*
X4679200Y1270000D01*
X4521200Y1168400D02*
X4572000Y1117600D01*
X4673600D01*
X4521200Y1168400D02*
Y1346200D01*
X4389350Y1478050D02*
X4521200Y1346200D01*
X4379750Y1478050D02*
X4389350D01*
X4368800Y1489000D02*
Y1534000D01*
Y1489000D02*
X4379750Y1478050D01*
D57*
X5506720Y566420D02*
Y929452D01*
X5562600Y985332D01*
Y1036320D01*
X5309861Y1623439D02*
Y1650401D01*
Y1623439D02*
X5394288Y1539012D01*
Y1517052D02*
Y1539012D01*
X5463686Y1543170D02*
Y1648314D01*
Y1543170D02*
X5466371Y1540485D01*
X5461000Y1651000D02*
X5463686Y1648314D01*
X5394288Y1517052D02*
X5410200Y1501140D01*
X5288280Y1094740D02*
X5311356D01*
X5285740Y1092200D02*
X5288280Y1094740D01*
D58*
X279400Y1473200D02*
D03*
Y965200D02*
D03*
X8991600Y939800D02*
D03*
Y1447800D02*
D03*
D59*
X6096000Y0D02*
D03*
X5842000D02*
D03*
X5588000D02*
D03*
X5334000D02*
D03*
D60*
X0Y2667000D02*
D03*
Y0D02*
D03*
X9321800D02*
D03*
Y2667000D02*
D03*
D61*
X6032500Y2374900D02*
D03*
X5981700Y2082800D02*
D03*
X9372600Y1168400D02*
D03*
X9245600Y914400D02*
D03*
Y406400D02*
D03*
X8991600D02*
D03*
Y-101600D02*
D03*
X8864600Y2692400D02*
D03*
X8737600Y914400D02*
D03*
Y406400D02*
D03*
X8864600Y152400D02*
D03*
X8737600Y-101600D02*
D03*
X8610600Y2692400D02*
D03*
X8483600Y1422400D02*
D03*
X8610600Y1168400D02*
D03*
X8483600Y914400D02*
D03*
Y406400D02*
D03*
X8610600Y152400D02*
D03*
X8483600Y-101600D02*
D03*
X8229600Y1930400D02*
D03*
X8356600Y1168400D02*
D03*
X8229600Y914400D02*
D03*
X8356600Y660400D02*
D03*
Y152400D02*
D03*
X8229600Y-101600D02*
D03*
X7975600Y914400D02*
D03*
X8102600Y660400D02*
D03*
X7975600Y-101600D02*
D03*
X7721600Y1422400D02*
D03*
X7848600Y1168400D02*
D03*
X7721600Y914400D02*
D03*
X7848600Y660400D02*
D03*
X7721600Y-101600D02*
D03*
X7467600Y2438400D02*
D03*
Y1930400D02*
D03*
X7594600Y1676400D02*
D03*
Y1168400D02*
D03*
X7467600Y914400D02*
D03*
X7594600Y660400D02*
D03*
X7467600Y-101600D02*
D03*
X7340600Y660400D02*
D03*
X7213600Y-101600D02*
D03*
X7086600Y660400D02*
D03*
X6959600Y-101600D02*
D03*
X6705600Y914400D02*
D03*
X6832600Y660400D02*
D03*
X6705600Y406400D02*
D03*
X6832600Y152400D02*
D03*
X6705600Y-101600D02*
D03*
X6451600Y1930400D02*
D03*
Y1422400D02*
D03*
X6578600Y1168400D02*
D03*
Y660400D02*
D03*
X6451600Y406400D02*
D03*
X6578600Y152400D02*
D03*
X6451600Y-101600D02*
D03*
X6324600Y1168400D02*
D03*
Y152400D02*
D03*
X6070600Y2692400D02*
D03*
X5943600Y914400D02*
D03*
X5816600Y2692400D02*
D03*
X5562600D02*
D03*
X5308600D02*
D03*
X5181600Y1930400D02*
D03*
X5054600Y2692400D02*
D03*
Y1676400D02*
D03*
X4927600Y406400D02*
D03*
Y-101600D02*
D03*
X4800600Y2692400D02*
D03*
X4673600Y406400D02*
D03*
X4800600Y152400D02*
D03*
X4673600Y-101600D02*
D03*
X4546600Y152400D02*
D03*
X4419600Y-101600D02*
D03*
X4292600Y152400D02*
D03*
X4165600Y-101600D02*
D03*
X4038600Y152400D02*
D03*
X3911600Y-101600D02*
D03*
X3657600Y914400D02*
D03*
X3784600Y660400D02*
D03*
X3657600Y406400D02*
D03*
X3784600Y152400D02*
D03*
X3657600Y-101600D02*
D03*
X3530600Y2692400D02*
D03*
Y1676400D02*
D03*
X3403600Y914400D02*
D03*
X3530600Y660400D02*
D03*
X3403600Y406400D02*
D03*
X3530600Y152400D02*
D03*
X3276600Y2692400D02*
D03*
Y1676400D02*
D03*
X3149600Y1422400D02*
D03*
X3276600Y1168400D02*
D03*
X3149600Y914400D02*
D03*
X3276600Y660400D02*
D03*
X3149600Y406400D02*
D03*
X3276600Y152400D02*
D03*
X3022600Y2692400D02*
D03*
X2895600Y2438400D02*
D03*
X3022600Y2184400D02*
D03*
Y1676400D02*
D03*
Y1168400D02*
D03*
Y660400D02*
D03*
X2895600Y406400D02*
D03*
X3022600Y152400D02*
D03*
X2768600Y2692400D02*
D03*
X2641600Y2438400D02*
D03*
X2768600Y2184400D02*
D03*
Y660400D02*
D03*
X2641600Y406400D02*
D03*
X2768600Y152400D02*
D03*
X2641600Y-101600D02*
D03*
X2514600Y2692400D02*
D03*
Y2184400D02*
D03*
Y660400D02*
D03*
Y152400D02*
D03*
X2260600Y660400D02*
D03*
X863600Y-101600D02*
D03*
X736600Y2692400D02*
D03*
X609600Y2438400D02*
D03*
X736600Y2184400D02*
D03*
X609600Y1930400D02*
D03*
Y914400D02*
D03*
Y406400D02*
D03*
X736600Y152400D02*
D03*
X609600Y-101600D02*
D03*
X482600Y2692400D02*
D03*
X355600Y2438400D02*
D03*
X482600Y2184400D02*
D03*
X355600Y1930400D02*
D03*
X482600Y660400D02*
D03*
X355600Y406400D02*
D03*
X482600Y152400D02*
D03*
X355600Y-101600D02*
D03*
X228600Y2184400D02*
D03*
X101600Y1930400D02*
D03*
X228600Y660400D02*
D03*
X101600Y406400D02*
D03*
X-25400Y2184400D02*
D03*
X-152400Y1930400D02*
D03*
X-25400Y660400D02*
D03*
X-152400Y406400D02*
D03*
X6197600Y1473200D02*
D03*
X6210300Y1333500D02*
D03*
X6223000Y1219200D02*
D03*
Y1092200D02*
D03*
X5905500Y1435100D02*
D03*
X5981700Y1308100D02*
D03*
X5918200Y1117600D02*
D03*
X5880100Y1016000D02*
D03*
X5143500Y1270000D02*
D03*
X4178300Y2032000D02*
D03*
X8610600Y1790700D02*
D03*
X8737600Y1752600D02*
D03*
X8890000D02*
D03*
X9118600D02*
D03*
Y1892300D02*
D03*
Y2044700D02*
D03*
Y2184400D02*
D03*
Y2311400D02*
D03*
X8750300Y2286000D02*
D03*
Y2159000D02*
D03*
Y2006600D02*
D03*
X8864600D02*
D03*
X8623300D02*
D03*
X8864600Y2159000D02*
D03*
X8623300D02*
D03*
X8864600Y2286000D02*
D03*
X8623300D02*
D03*
X4953000Y1625600D02*
D03*
X5092700Y1752600D02*
D03*
X4368800Y1892300D02*
D03*
X4178300D02*
D03*
X3987800Y2044700D02*
D03*
Y1892300D02*
D03*
Y1739900D02*
D03*
X4178300D02*
D03*
X4368800D02*
D03*
Y2044700D02*
D03*
X1155700Y-177800D02*
D03*
X1028700D02*
D03*
X952500Y-114300D02*
D03*
Y-38100D02*
D03*
Y114300D02*
D03*
Y203200D02*
D03*
Y304800D02*
D03*
Y457200D02*
D03*
Y533400D02*
D03*
X850900D02*
D03*
X863600Y698500D02*
D03*
Y800100D02*
D03*
X889000Y952500D02*
D03*
X1003300Y977900D02*
D03*
X876300Y1752600D02*
D03*
X825500Y1905000D02*
D03*
X889000Y1968500D02*
D03*
X952500Y2044700D02*
D03*
Y2222500D02*
D03*
Y2311400D02*
D03*
Y2413000D02*
D03*
Y2578100D02*
D03*
Y2667000D02*
D03*
X1028700Y2717800D02*
D03*
X1168400D02*
D03*
X2095500D02*
D03*
X2235200D02*
D03*
X2324100Y2654300D02*
D03*
Y2565400D02*
D03*
Y2413000D02*
D03*
Y2336800D02*
D03*
Y2247900D02*
D03*
Y2082800D02*
D03*
Y2006600D02*
D03*
X2159000Y1943100D02*
D03*
X2019300Y1879600D02*
D03*
X2108200Y1866900D02*
D03*
X2019300Y1689100D02*
D03*
X2032000Y838200D02*
D03*
Y647700D02*
D03*
X2146300Y622300D02*
D03*
X2362200Y546100D02*
D03*
Y457200D02*
D03*
X2336800Y152400D02*
D03*
Y-63500D02*
D03*
X2324100Y-177800D02*
D03*
X2171700Y-165100D02*
D03*
X3848100Y558800D02*
D03*
X3771900D02*
D03*
X3849193Y487057D02*
D03*
X3772993D02*
D03*
X3848100Y419100D02*
D03*
X3771900D02*
D03*
Y342900D02*
D03*
X3848100D02*
D03*
X4305300D02*
D03*
X4229100D02*
D03*
X4152900D02*
D03*
X4076700D02*
D03*
X4000500D02*
D03*
X5219700Y546100D02*
D03*
X5321300D02*
D03*
X5829300Y571500D02*
D03*
X5664200Y292100D02*
D03*
X5727700Y203200D02*
D03*
X5892800D02*
D03*
X5943600Y292100D02*
D03*
X6413500Y1816100D02*
D03*
X6489700Y1651000D02*
D03*
X6642100D02*
D03*
X8204200Y76200D02*
D03*
X8191500Y495300D02*
D03*
X8369300Y304800D02*
D03*
X8534400Y1536700D02*
D03*
X8559800Y1358900D02*
D03*
X8293100Y1320800D02*
D03*
X8280400Y1854200D02*
D03*
X8115300Y1587500D02*
D03*
X7975600Y1701800D02*
D03*
X4521200Y2057400D02*
D03*
X4610100D02*
D03*
X4521200Y2133600D02*
D03*
X4610100D02*
D03*
X4521200Y2209800D02*
D03*
X4610100D02*
D03*
X4584700Y2387600D02*
D03*
Y2286000D02*
D03*
X4508500Y2387600D02*
D03*
Y2286000D02*
D03*
X4432300Y2387600D02*
D03*
Y2286000D02*
D03*
X4356100Y2387600D02*
D03*
Y2286000D02*
D03*
X4279900Y2387600D02*
D03*
Y2286000D02*
D03*
X4203700Y2387600D02*
D03*
Y2286000D02*
D03*
X4127500Y2387600D02*
D03*
Y2286000D02*
D03*
X4051300Y2387600D02*
D03*
Y2286000D02*
D03*
X3975100Y2387600D02*
D03*
Y2286000D02*
D03*
X3898900Y2387600D02*
D03*
Y2286000D02*
D03*
X3810000Y2387600D02*
D03*
X3708400D02*
D03*
X3810000Y2311400D02*
D03*
X3708400D02*
D03*
X3810000Y2235200D02*
D03*
X3708400D02*
D03*
X3810000Y2159000D02*
D03*
X3708400D02*
D03*
Y2082800D02*
D03*
X3810000D02*
D03*
X6667500Y2286000D02*
D03*
Y2374900D02*
D03*
Y2463800D02*
D03*
Y2552700D02*
D03*
Y2641600D02*
D03*
X6591300Y2235200D02*
D03*
Y2324100D02*
D03*
Y2413000D02*
D03*
Y2501900D02*
D03*
Y2590800D02*
D03*
X6515100Y2273300D02*
D03*
Y2362200D02*
D03*
Y2451100D02*
D03*
Y2540000D02*
D03*
Y2628900D02*
D03*
X6438900Y2590800D02*
D03*
Y2501900D02*
D03*
Y2413000D02*
D03*
Y2324100D02*
D03*
Y2235200D02*
D03*
X6362700Y2286000D02*
D03*
Y2374900D02*
D03*
Y2463800D02*
D03*
Y2552700D02*
D03*
Y2641600D02*
D03*
X4856480Y1427480D02*
D03*
X4902200Y1516380D02*
D03*
X1858010Y1262380D02*
D03*
X1784350D02*
D03*
X5675630Y551180D02*
D03*
X5601970D02*
D03*
X5196840Y1661160D02*
D03*
X4864100Y596900D02*
D03*
X5438140Y932180D02*
D03*
X5506720Y1008478D02*
D03*
X6250940Y782690D02*
D03*
X5948680Y784860D02*
D03*
X5466371Y1540485D02*
D03*
X5232400Y1524000D02*
D03*
X6070600Y1145540D02*
D03*
X5029200Y1270000D02*
D03*
X4546600Y457200D02*
D03*
X4603000Y1193800D02*
D03*
D62*
X5605200Y1270000D02*
D03*
X5717200D02*
D03*
X5469200D02*
D03*
X5357200D02*
D03*
X5605200Y1190000D02*
D03*
Y1350000D02*
D03*
X5469200D02*
D03*
Y1190000D02*
D03*
%TF.MD5,4103703a223a1ab081f3b77e7e79cffa*%
M02*
