%TF.GenerationSoftware,Altium Limited,Altium Designer,23.0.1 (38)*%
G04 Layer_Color=2752767*
%FSLAX45Y45*%
%MOMM*%
%TF.SameCoordinates,3EE063B3-4F93-4FDD-BE50-ED7C6B7A8C7B*%
%TF.FilePolarity,Positive*%
%TF.FileFunction,Drawing*%
%TF.Part,Single*%
G01*
G75*
%TA.AperFunction,NonConductor*%
%ADD127C,0.12700*%
%ADD128C,0.16933*%
D127*
X228600Y1422400D02*
Y1524000D01*
X330200D01*
Y1422400D01*
X228600D01*
Y914400D02*
Y1016000D01*
X330200D01*
Y914400D01*
X228600D01*
X6045200Y-50800D02*
Y50800D01*
X6146800D01*
Y-50800D01*
X6045200D01*
X5791200D02*
Y50800D01*
X5892800D01*
Y-50800D01*
X5791200D01*
X5537200D02*
Y50800D01*
X5638800D01*
Y-50800D01*
X5537200D01*
X5283200D02*
Y50800D01*
X5384800D01*
Y-50800D01*
X5283200D01*
X8940800Y889000D02*
Y990600D01*
X9042400D01*
Y889000D01*
X8940800D01*
Y1397000D02*
Y1498600D01*
X9042400D01*
Y1397000D01*
X8940800D01*
X0Y2616200D02*
X-50800Y2717800D01*
X50800D01*
X0Y2616200D01*
Y-50800D02*
X-50800Y50800D01*
X50800D01*
X0Y-50800D01*
X9321800D02*
X9271000Y50800D01*
X9372600D01*
X9321800Y-50800D01*
Y2616200D02*
X9271000Y2717800D01*
X9372600D01*
X9321800Y2616200D01*
X6032500Y2324100D02*
X6057900Y2349500D01*
X6083300D01*
X6057900Y2374900D01*
X6083300Y2400300D01*
X6057900D01*
X6032500Y2425700D01*
X6007100Y2400300D01*
X5981700D01*
X6007100Y2374900D01*
X5981700Y2349500D01*
X6007100D01*
X6032500Y2324100D01*
X5981700Y2032000D02*
X6007100Y2057400D01*
X6032500D01*
X6007100Y2082800D01*
X6032500Y2108200D01*
X6007100D01*
X5981700Y2133600D01*
X5956300Y2108200D01*
X5930900D01*
X5956300Y2082800D01*
X5930900Y2057400D01*
X5956300D01*
X5981700Y2032000D01*
X9372600Y1117600D02*
X9398000Y1143000D01*
X9423400D01*
X9398000Y1168400D01*
X9423400Y1193800D01*
X9398000D01*
X9372600Y1219200D01*
X9347200Y1193800D01*
X9321800D01*
X9347200Y1168400D01*
X9321800Y1143000D01*
X9347200D01*
X9372600Y1117600D01*
X9245600Y863600D02*
X9271000Y889000D01*
X9296400D01*
X9271000Y914400D01*
X9296400Y939800D01*
X9271000D01*
X9245600Y965200D01*
X9220200Y939800D01*
X9194800D01*
X9220200Y914400D01*
X9194800Y889000D01*
X9220200D01*
X9245600Y863600D01*
Y355600D02*
X9271000Y381000D01*
X9296400D01*
X9271000Y406400D01*
X9296400Y431800D01*
X9271000D01*
X9245600Y457200D01*
X9220200Y431800D01*
X9194800D01*
X9220200Y406400D01*
X9194800Y381000D01*
X9220200D01*
X9245600Y355600D01*
X8991600D02*
X9017000Y381000D01*
X9042400D01*
X9017000Y406400D01*
X9042400Y431800D01*
X9017000D01*
X8991600Y457200D01*
X8966200Y431800D01*
X8940800D01*
X8966200Y406400D01*
X8940800Y381000D01*
X8966200D01*
X8991600Y355600D01*
Y-152400D02*
X9017000Y-127000D01*
X9042400D01*
X9017000Y-101600D01*
X9042400Y-76200D01*
X9017000D01*
X8991600Y-50800D01*
X8966200Y-76200D01*
X8940800D01*
X8966200Y-101600D01*
X8940800Y-127000D01*
X8966200D01*
X8991600Y-152400D01*
X8864600Y2641600D02*
X8890000Y2667000D01*
X8915400D01*
X8890000Y2692400D01*
X8915400Y2717800D01*
X8890000D01*
X8864600Y2743200D01*
X8839200Y2717800D01*
X8813800D01*
X8839200Y2692400D01*
X8813800Y2667000D01*
X8839200D01*
X8864600Y2641600D01*
X8737600Y863600D02*
X8763000Y889000D01*
X8788400D01*
X8763000Y914400D01*
X8788400Y939800D01*
X8763000D01*
X8737600Y965200D01*
X8712200Y939800D01*
X8686800D01*
X8712200Y914400D01*
X8686800Y889000D01*
X8712200D01*
X8737600Y863600D01*
Y355600D02*
X8763000Y381000D01*
X8788400D01*
X8763000Y406400D01*
X8788400Y431800D01*
X8763000D01*
X8737600Y457200D01*
X8712200Y431800D01*
X8686800D01*
X8712200Y406400D01*
X8686800Y381000D01*
X8712200D01*
X8737600Y355600D01*
X8864600Y101600D02*
X8890000Y127000D01*
X8915400D01*
X8890000Y152400D01*
X8915400Y177800D01*
X8890000D01*
X8864600Y203200D01*
X8839200Y177800D01*
X8813800D01*
X8839200Y152400D01*
X8813800Y127000D01*
X8839200D01*
X8864600Y101600D01*
X8737600Y-152400D02*
X8763000Y-127000D01*
X8788400D01*
X8763000Y-101600D01*
X8788400Y-76200D01*
X8763000D01*
X8737600Y-50800D01*
X8712200Y-76200D01*
X8686800D01*
X8712200Y-101600D01*
X8686800Y-127000D01*
X8712200D01*
X8737600Y-152400D01*
X8610600Y2641600D02*
X8636000Y2667000D01*
X8661400D01*
X8636000Y2692400D01*
X8661400Y2717800D01*
X8636000D01*
X8610600Y2743200D01*
X8585200Y2717800D01*
X8559800D01*
X8585200Y2692400D01*
X8559800Y2667000D01*
X8585200D01*
X8610600Y2641600D01*
X8483600Y1371600D02*
X8509000Y1397000D01*
X8534400D01*
X8509000Y1422400D01*
X8534400Y1447800D01*
X8509000D01*
X8483600Y1473200D01*
X8458200Y1447800D01*
X8432800D01*
X8458200Y1422400D01*
X8432800Y1397000D01*
X8458200D01*
X8483600Y1371600D01*
X8610600Y1117600D02*
X8636000Y1143000D01*
X8661400D01*
X8636000Y1168400D01*
X8661400Y1193800D01*
X8636000D01*
X8610600Y1219200D01*
X8585200Y1193800D01*
X8559800D01*
X8585200Y1168400D01*
X8559800Y1143000D01*
X8585200D01*
X8610600Y1117600D01*
X8483600Y863600D02*
X8509000Y889000D01*
X8534400D01*
X8509000Y914400D01*
X8534400Y939800D01*
X8509000D01*
X8483600Y965200D01*
X8458200Y939800D01*
X8432800D01*
X8458200Y914400D01*
X8432800Y889000D01*
X8458200D01*
X8483600Y863600D01*
Y355600D02*
X8509000Y381000D01*
X8534400D01*
X8509000Y406400D01*
X8534400Y431800D01*
X8509000D01*
X8483600Y457200D01*
X8458200Y431800D01*
X8432800D01*
X8458200Y406400D01*
X8432800Y381000D01*
X8458200D01*
X8483600Y355600D01*
X8610600Y101600D02*
X8636000Y127000D01*
X8661400D01*
X8636000Y152400D01*
X8661400Y177800D01*
X8636000D01*
X8610600Y203200D01*
X8585200Y177800D01*
X8559800D01*
X8585200Y152400D01*
X8559800Y127000D01*
X8585200D01*
X8610600Y101600D01*
X8483600Y-152400D02*
X8509000Y-127000D01*
X8534400D01*
X8509000Y-101600D01*
X8534400Y-76200D01*
X8509000D01*
X8483600Y-50800D01*
X8458200Y-76200D01*
X8432800D01*
X8458200Y-101600D01*
X8432800Y-127000D01*
X8458200D01*
X8483600Y-152400D01*
X8229600Y1879600D02*
X8255000Y1905000D01*
X8280400D01*
X8255000Y1930400D01*
X8280400Y1955800D01*
X8255000D01*
X8229600Y1981200D01*
X8204200Y1955800D01*
X8178800D01*
X8204200Y1930400D01*
X8178800Y1905000D01*
X8204200D01*
X8229600Y1879600D01*
X8356600Y1117600D02*
X8382000Y1143000D01*
X8407400D01*
X8382000Y1168400D01*
X8407400Y1193800D01*
X8382000D01*
X8356600Y1219200D01*
X8331200Y1193800D01*
X8305800D01*
X8331200Y1168400D01*
X8305800Y1143000D01*
X8331200D01*
X8356600Y1117600D01*
X8229600Y863600D02*
X8255000Y889000D01*
X8280400D01*
X8255000Y914400D01*
X8280400Y939800D01*
X8255000D01*
X8229600Y965200D01*
X8204200Y939800D01*
X8178800D01*
X8204200Y914400D01*
X8178800Y889000D01*
X8204200D01*
X8229600Y863600D01*
X8356600Y609600D02*
X8382000Y635000D01*
X8407400D01*
X8382000Y660400D01*
X8407400Y685800D01*
X8382000D01*
X8356600Y711200D01*
X8331200Y685800D01*
X8305800D01*
X8331200Y660400D01*
X8305800Y635000D01*
X8331200D01*
X8356600Y609600D01*
Y101600D02*
X8382000Y127000D01*
X8407400D01*
X8382000Y152400D01*
X8407400Y177800D01*
X8382000D01*
X8356600Y203200D01*
X8331200Y177800D01*
X8305800D01*
X8331200Y152400D01*
X8305800Y127000D01*
X8331200D01*
X8356600Y101600D01*
X8229600Y-152400D02*
X8255000Y-127000D01*
X8280400D01*
X8255000Y-101600D01*
X8280400Y-76200D01*
X8255000D01*
X8229600Y-50800D01*
X8204200Y-76200D01*
X8178800D01*
X8204200Y-101600D01*
X8178800Y-127000D01*
X8204200D01*
X8229600Y-152400D01*
X7975600Y863600D02*
X8001000Y889000D01*
X8026400D01*
X8001000Y914400D01*
X8026400Y939800D01*
X8001000D01*
X7975600Y965200D01*
X7950200Y939800D01*
X7924800D01*
X7950200Y914400D01*
X7924800Y889000D01*
X7950200D01*
X7975600Y863600D01*
X8102600Y609600D02*
X8128000Y635000D01*
X8153400D01*
X8128000Y660400D01*
X8153400Y685800D01*
X8128000D01*
X8102600Y711200D01*
X8077200Y685800D01*
X8051800D01*
X8077200Y660400D01*
X8051800Y635000D01*
X8077200D01*
X8102600Y609600D01*
X7975600Y-152400D02*
X8001000Y-127000D01*
X8026400D01*
X8001000Y-101600D01*
X8026400Y-76200D01*
X8001000D01*
X7975600Y-50800D01*
X7950200Y-76200D01*
X7924800D01*
X7950200Y-101600D01*
X7924800Y-127000D01*
X7950200D01*
X7975600Y-152400D01*
X7721600Y1371600D02*
X7747000Y1397000D01*
X7772400D01*
X7747000Y1422400D01*
X7772400Y1447800D01*
X7747000D01*
X7721600Y1473200D01*
X7696200Y1447800D01*
X7670800D01*
X7696200Y1422400D01*
X7670800Y1397000D01*
X7696200D01*
X7721600Y1371600D01*
X7848600Y1117600D02*
X7874000Y1143000D01*
X7899400D01*
X7874000Y1168400D01*
X7899400Y1193800D01*
X7874000D01*
X7848600Y1219200D01*
X7823200Y1193800D01*
X7797800D01*
X7823200Y1168400D01*
X7797800Y1143000D01*
X7823200D01*
X7848600Y1117600D01*
X7721600Y863600D02*
X7747000Y889000D01*
X7772400D01*
X7747000Y914400D01*
X7772400Y939800D01*
X7747000D01*
X7721600Y965200D01*
X7696200Y939800D01*
X7670800D01*
X7696200Y914400D01*
X7670800Y889000D01*
X7696200D01*
X7721600Y863600D01*
X7848600Y609600D02*
X7874000Y635000D01*
X7899400D01*
X7874000Y660400D01*
X7899400Y685800D01*
X7874000D01*
X7848600Y711200D01*
X7823200Y685800D01*
X7797800D01*
X7823200Y660400D01*
X7797800Y635000D01*
X7823200D01*
X7848600Y609600D01*
X7721600Y-152400D02*
X7747000Y-127000D01*
X7772400D01*
X7747000Y-101600D01*
X7772400Y-76200D01*
X7747000D01*
X7721600Y-50800D01*
X7696200Y-76200D01*
X7670800D01*
X7696200Y-101600D01*
X7670800Y-127000D01*
X7696200D01*
X7721600Y-152400D01*
X7467600Y2387600D02*
X7493000Y2413000D01*
X7518400D01*
X7493000Y2438400D01*
X7518400Y2463800D01*
X7493000D01*
X7467600Y2489200D01*
X7442200Y2463800D01*
X7416800D01*
X7442200Y2438400D01*
X7416800Y2413000D01*
X7442200D01*
X7467600Y2387600D01*
Y1879600D02*
X7493000Y1905000D01*
X7518400D01*
X7493000Y1930400D01*
X7518400Y1955800D01*
X7493000D01*
X7467600Y1981200D01*
X7442200Y1955800D01*
X7416800D01*
X7442200Y1930400D01*
X7416800Y1905000D01*
X7442200D01*
X7467600Y1879600D01*
X7594600Y1625600D02*
X7620000Y1651000D01*
X7645400D01*
X7620000Y1676400D01*
X7645400Y1701800D01*
X7620000D01*
X7594600Y1727200D01*
X7569200Y1701800D01*
X7543800D01*
X7569200Y1676400D01*
X7543800Y1651000D01*
X7569200D01*
X7594600Y1625600D01*
Y1117600D02*
X7620000Y1143000D01*
X7645400D01*
X7620000Y1168400D01*
X7645400Y1193800D01*
X7620000D01*
X7594600Y1219200D01*
X7569200Y1193800D01*
X7543800D01*
X7569200Y1168400D01*
X7543800Y1143000D01*
X7569200D01*
X7594600Y1117600D01*
X7467600Y863600D02*
X7493000Y889000D01*
X7518400D01*
X7493000Y914400D01*
X7518400Y939800D01*
X7493000D01*
X7467600Y965200D01*
X7442200Y939800D01*
X7416800D01*
X7442200Y914400D01*
X7416800Y889000D01*
X7442200D01*
X7467600Y863600D01*
X7594600Y609600D02*
X7620000Y635000D01*
X7645400D01*
X7620000Y660400D01*
X7645400Y685800D01*
X7620000D01*
X7594600Y711200D01*
X7569200Y685800D01*
X7543800D01*
X7569200Y660400D01*
X7543800Y635000D01*
X7569200D01*
X7594600Y609600D01*
X7467600Y-152400D02*
X7493000Y-127000D01*
X7518400D01*
X7493000Y-101600D01*
X7518400Y-76200D01*
X7493000D01*
X7467600Y-50800D01*
X7442200Y-76200D01*
X7416800D01*
X7442200Y-101600D01*
X7416800Y-127000D01*
X7442200D01*
X7467600Y-152400D01*
X7340600Y609600D02*
X7366000Y635000D01*
X7391400D01*
X7366000Y660400D01*
X7391400Y685800D01*
X7366000D01*
X7340600Y711200D01*
X7315200Y685800D01*
X7289800D01*
X7315200Y660400D01*
X7289800Y635000D01*
X7315200D01*
X7340600Y609600D01*
X7213600Y-152400D02*
X7239000Y-127000D01*
X7264400D01*
X7239000Y-101600D01*
X7264400Y-76200D01*
X7239000D01*
X7213600Y-50800D01*
X7188200Y-76200D01*
X7162800D01*
X7188200Y-101600D01*
X7162800Y-127000D01*
X7188200D01*
X7213600Y-152400D01*
X7086600Y609600D02*
X7112000Y635000D01*
X7137400D01*
X7112000Y660400D01*
X7137400Y685800D01*
X7112000D01*
X7086600Y711200D01*
X7061200Y685800D01*
X7035800D01*
X7061200Y660400D01*
X7035800Y635000D01*
X7061200D01*
X7086600Y609600D01*
X6959600Y-152400D02*
X6985000Y-127000D01*
X7010400D01*
X6985000Y-101600D01*
X7010400Y-76200D01*
X6985000D01*
X6959600Y-50800D01*
X6934200Y-76200D01*
X6908800D01*
X6934200Y-101600D01*
X6908800Y-127000D01*
X6934200D01*
X6959600Y-152400D01*
X6705600Y863600D02*
X6731000Y889000D01*
X6756400D01*
X6731000Y914400D01*
X6756400Y939800D01*
X6731000D01*
X6705600Y965200D01*
X6680200Y939800D01*
X6654800D01*
X6680200Y914400D01*
X6654800Y889000D01*
X6680200D01*
X6705600Y863600D01*
X6832600Y609600D02*
X6858000Y635000D01*
X6883400D01*
X6858000Y660400D01*
X6883400Y685800D01*
X6858000D01*
X6832600Y711200D01*
X6807200Y685800D01*
X6781800D01*
X6807200Y660400D01*
X6781800Y635000D01*
X6807200D01*
X6832600Y609600D01*
X6705600Y355600D02*
X6731000Y381000D01*
X6756400D01*
X6731000Y406400D01*
X6756400Y431800D01*
X6731000D01*
X6705600Y457200D01*
X6680200Y431800D01*
X6654800D01*
X6680200Y406400D01*
X6654800Y381000D01*
X6680200D01*
X6705600Y355600D01*
X6832600Y101600D02*
X6858000Y127000D01*
X6883400D01*
X6858000Y152400D01*
X6883400Y177800D01*
X6858000D01*
X6832600Y203200D01*
X6807200Y177800D01*
X6781800D01*
X6807200Y152400D01*
X6781800Y127000D01*
X6807200D01*
X6832600Y101600D01*
X6705600Y-152400D02*
X6731000Y-127000D01*
X6756400D01*
X6731000Y-101600D01*
X6756400Y-76200D01*
X6731000D01*
X6705600Y-50800D01*
X6680200Y-76200D01*
X6654800D01*
X6680200Y-101600D01*
X6654800Y-127000D01*
X6680200D01*
X6705600Y-152400D01*
X6451600Y1879600D02*
X6477000Y1905000D01*
X6502400D01*
X6477000Y1930400D01*
X6502400Y1955800D01*
X6477000D01*
X6451600Y1981200D01*
X6426200Y1955800D01*
X6400800D01*
X6426200Y1930400D01*
X6400800Y1905000D01*
X6426200D01*
X6451600Y1879600D01*
Y1371600D02*
X6477000Y1397000D01*
X6502400D01*
X6477000Y1422400D01*
X6502400Y1447800D01*
X6477000D01*
X6451600Y1473200D01*
X6426200Y1447800D01*
X6400800D01*
X6426200Y1422400D01*
X6400800Y1397000D01*
X6426200D01*
X6451600Y1371600D01*
X6578600Y1117600D02*
X6604000Y1143000D01*
X6629400D01*
X6604000Y1168400D01*
X6629400Y1193800D01*
X6604000D01*
X6578600Y1219200D01*
X6553200Y1193800D01*
X6527800D01*
X6553200Y1168400D01*
X6527800Y1143000D01*
X6553200D01*
X6578600Y1117600D01*
Y609600D02*
X6604000Y635000D01*
X6629400D01*
X6604000Y660400D01*
X6629400Y685800D01*
X6604000D01*
X6578600Y711200D01*
X6553200Y685800D01*
X6527800D01*
X6553200Y660400D01*
X6527800Y635000D01*
X6553200D01*
X6578600Y609600D01*
X6451600Y355600D02*
X6477000Y381000D01*
X6502400D01*
X6477000Y406400D01*
X6502400Y431800D01*
X6477000D01*
X6451600Y457200D01*
X6426200Y431800D01*
X6400800D01*
X6426200Y406400D01*
X6400800Y381000D01*
X6426200D01*
X6451600Y355600D01*
X6578600Y101600D02*
X6604000Y127000D01*
X6629400D01*
X6604000Y152400D01*
X6629400Y177800D01*
X6604000D01*
X6578600Y203200D01*
X6553200Y177800D01*
X6527800D01*
X6553200Y152400D01*
X6527800Y127000D01*
X6553200D01*
X6578600Y101600D01*
X6451600Y-152400D02*
X6477000Y-127000D01*
X6502400D01*
X6477000Y-101600D01*
X6502400Y-76200D01*
X6477000D01*
X6451600Y-50800D01*
X6426200Y-76200D01*
X6400800D01*
X6426200Y-101600D01*
X6400800Y-127000D01*
X6426200D01*
X6451600Y-152400D01*
X6324600Y1117600D02*
X6350000Y1143000D01*
X6375400D01*
X6350000Y1168400D01*
X6375400Y1193800D01*
X6350000D01*
X6324600Y1219200D01*
X6299200Y1193800D01*
X6273800D01*
X6299200Y1168400D01*
X6273800Y1143000D01*
X6299200D01*
X6324600Y1117600D01*
Y101600D02*
X6350000Y127000D01*
X6375400D01*
X6350000Y152400D01*
X6375400Y177800D01*
X6350000D01*
X6324600Y203200D01*
X6299200Y177800D01*
X6273800D01*
X6299200Y152400D01*
X6273800Y127000D01*
X6299200D01*
X6324600Y101600D01*
X6070600Y2641600D02*
X6096000Y2667000D01*
X6121400D01*
X6096000Y2692400D01*
X6121400Y2717800D01*
X6096000D01*
X6070600Y2743200D01*
X6045200Y2717800D01*
X6019800D01*
X6045200Y2692400D01*
X6019800Y2667000D01*
X6045200D01*
X6070600Y2641600D01*
X5943600Y863600D02*
X5969000Y889000D01*
X5994400D01*
X5969000Y914400D01*
X5994400Y939800D01*
X5969000D01*
X5943600Y965200D01*
X5918200Y939800D01*
X5892800D01*
X5918200Y914400D01*
X5892800Y889000D01*
X5918200D01*
X5943600Y863600D01*
X5816600Y2641600D02*
X5842000Y2667000D01*
X5867400D01*
X5842000Y2692400D01*
X5867400Y2717800D01*
X5842000D01*
X5816600Y2743200D01*
X5791200Y2717800D01*
X5765800D01*
X5791200Y2692400D01*
X5765800Y2667000D01*
X5791200D01*
X5816600Y2641600D01*
X5562600D02*
X5588000Y2667000D01*
X5613400D01*
X5588000Y2692400D01*
X5613400Y2717800D01*
X5588000D01*
X5562600Y2743200D01*
X5537200Y2717800D01*
X5511800D01*
X5537200Y2692400D01*
X5511800Y2667000D01*
X5537200D01*
X5562600Y2641600D01*
X5308600D02*
X5334000Y2667000D01*
X5359400D01*
X5334000Y2692400D01*
X5359400Y2717800D01*
X5334000D01*
X5308600Y2743200D01*
X5283200Y2717800D01*
X5257800D01*
X5283200Y2692400D01*
X5257800Y2667000D01*
X5283200D01*
X5308600Y2641600D01*
X5181600Y1879600D02*
X5207000Y1905000D01*
X5232400D01*
X5207000Y1930400D01*
X5232400Y1955800D01*
X5207000D01*
X5181600Y1981200D01*
X5156200Y1955800D01*
X5130800D01*
X5156200Y1930400D01*
X5130800Y1905000D01*
X5156200D01*
X5181600Y1879600D01*
X5054600Y2641600D02*
X5080000Y2667000D01*
X5105400D01*
X5080000Y2692400D01*
X5105400Y2717800D01*
X5080000D01*
X5054600Y2743200D01*
X5029200Y2717800D01*
X5003800D01*
X5029200Y2692400D01*
X5003800Y2667000D01*
X5029200D01*
X5054600Y2641600D01*
Y1625600D02*
X5080000Y1651000D01*
X5105400D01*
X5080000Y1676400D01*
X5105400Y1701800D01*
X5080000D01*
X5054600Y1727200D01*
X5029200Y1701800D01*
X5003800D01*
X5029200Y1676400D01*
X5003800Y1651000D01*
X5029200D01*
X5054600Y1625600D01*
X4927600Y355600D02*
X4953000Y381000D01*
X4978400D01*
X4953000Y406400D01*
X4978400Y431800D01*
X4953000D01*
X4927600Y457200D01*
X4902200Y431800D01*
X4876800D01*
X4902200Y406400D01*
X4876800Y381000D01*
X4902200D01*
X4927600Y355600D01*
Y-152400D02*
X4953000Y-127000D01*
X4978400D01*
X4953000Y-101600D01*
X4978400Y-76200D01*
X4953000D01*
X4927600Y-50800D01*
X4902200Y-76200D01*
X4876800D01*
X4902200Y-101600D01*
X4876800Y-127000D01*
X4902200D01*
X4927600Y-152400D01*
X4800600Y2641600D02*
X4826000Y2667000D01*
X4851400D01*
X4826000Y2692400D01*
X4851400Y2717800D01*
X4826000D01*
X4800600Y2743200D01*
X4775200Y2717800D01*
X4749800D01*
X4775200Y2692400D01*
X4749800Y2667000D01*
X4775200D01*
X4800600Y2641600D01*
X4673600Y355600D02*
X4699000Y381000D01*
X4724400D01*
X4699000Y406400D01*
X4724400Y431800D01*
X4699000D01*
X4673600Y457200D01*
X4648200Y431800D01*
X4622800D01*
X4648200Y406400D01*
X4622800Y381000D01*
X4648200D01*
X4673600Y355600D01*
X4800600Y101600D02*
X4826000Y127000D01*
X4851400D01*
X4826000Y152400D01*
X4851400Y177800D01*
X4826000D01*
X4800600Y203200D01*
X4775200Y177800D01*
X4749800D01*
X4775200Y152400D01*
X4749800Y127000D01*
X4775200D01*
X4800600Y101600D01*
X4673600Y-152400D02*
X4699000Y-127000D01*
X4724400D01*
X4699000Y-101600D01*
X4724400Y-76200D01*
X4699000D01*
X4673600Y-50800D01*
X4648200Y-76200D01*
X4622800D01*
X4648200Y-101600D01*
X4622800Y-127000D01*
X4648200D01*
X4673600Y-152400D01*
X4546600Y101600D02*
X4572000Y127000D01*
X4597400D01*
X4572000Y152400D01*
X4597400Y177800D01*
X4572000D01*
X4546600Y203200D01*
X4521200Y177800D01*
X4495800D01*
X4521200Y152400D01*
X4495800Y127000D01*
X4521200D01*
X4546600Y101600D01*
X4419600Y-152400D02*
X4445000Y-127000D01*
X4470400D01*
X4445000Y-101600D01*
X4470400Y-76200D01*
X4445000D01*
X4419600Y-50800D01*
X4394200Y-76200D01*
X4368800D01*
X4394200Y-101600D01*
X4368800Y-127000D01*
X4394200D01*
X4419600Y-152400D01*
X4292600Y101600D02*
X4318000Y127000D01*
X4343400D01*
X4318000Y152400D01*
X4343400Y177800D01*
X4318000D01*
X4292600Y203200D01*
X4267200Y177800D01*
X4241800D01*
X4267200Y152400D01*
X4241800Y127000D01*
X4267200D01*
X4292600Y101600D01*
X4165600Y-152400D02*
X4191000Y-127000D01*
X4216400D01*
X4191000Y-101600D01*
X4216400Y-76200D01*
X4191000D01*
X4165600Y-50800D01*
X4140200Y-76200D01*
X4114800D01*
X4140200Y-101600D01*
X4114800Y-127000D01*
X4140200D01*
X4165600Y-152400D01*
X4038600Y101600D02*
X4064000Y127000D01*
X4089400D01*
X4064000Y152400D01*
X4089400Y177800D01*
X4064000D01*
X4038600Y203200D01*
X4013200Y177800D01*
X3987800D01*
X4013200Y152400D01*
X3987800Y127000D01*
X4013200D01*
X4038600Y101600D01*
X3911600Y-152400D02*
X3937000Y-127000D01*
X3962400D01*
X3937000Y-101600D01*
X3962400Y-76200D01*
X3937000D01*
X3911600Y-50800D01*
X3886200Y-76200D01*
X3860800D01*
X3886200Y-101600D01*
X3860800Y-127000D01*
X3886200D01*
X3911600Y-152400D01*
X3657600Y863600D02*
X3683000Y889000D01*
X3708400D01*
X3683000Y914400D01*
X3708400Y939800D01*
X3683000D01*
X3657600Y965200D01*
X3632200Y939800D01*
X3606800D01*
X3632200Y914400D01*
X3606800Y889000D01*
X3632200D01*
X3657600Y863600D01*
X3784600Y609600D02*
X3810000Y635000D01*
X3835400D01*
X3810000Y660400D01*
X3835400Y685800D01*
X3810000D01*
X3784600Y711200D01*
X3759200Y685800D01*
X3733800D01*
X3759200Y660400D01*
X3733800Y635000D01*
X3759200D01*
X3784600Y609600D01*
X3657600Y355600D02*
X3683000Y381000D01*
X3708400D01*
X3683000Y406400D01*
X3708400Y431800D01*
X3683000D01*
X3657600Y457200D01*
X3632200Y431800D01*
X3606800D01*
X3632200Y406400D01*
X3606800Y381000D01*
X3632200D01*
X3657600Y355600D01*
X3784600Y101600D02*
X3810000Y127000D01*
X3835400D01*
X3810000Y152400D01*
X3835400Y177800D01*
X3810000D01*
X3784600Y203200D01*
X3759200Y177800D01*
X3733800D01*
X3759200Y152400D01*
X3733800Y127000D01*
X3759200D01*
X3784600Y101600D01*
X3657600Y-152400D02*
X3683000Y-127000D01*
X3708400D01*
X3683000Y-101600D01*
X3708400Y-76200D01*
X3683000D01*
X3657600Y-50800D01*
X3632200Y-76200D01*
X3606800D01*
X3632200Y-101600D01*
X3606800Y-127000D01*
X3632200D01*
X3657600Y-152400D01*
X3530600Y2641600D02*
X3556000Y2667000D01*
X3581400D01*
X3556000Y2692400D01*
X3581400Y2717800D01*
X3556000D01*
X3530600Y2743200D01*
X3505200Y2717800D01*
X3479800D01*
X3505200Y2692400D01*
X3479800Y2667000D01*
X3505200D01*
X3530600Y2641600D01*
Y1625600D02*
X3556000Y1651000D01*
X3581400D01*
X3556000Y1676400D01*
X3581400Y1701800D01*
X3556000D01*
X3530600Y1727200D01*
X3505200Y1701800D01*
X3479800D01*
X3505200Y1676400D01*
X3479800Y1651000D01*
X3505200D01*
X3530600Y1625600D01*
X3403600Y863600D02*
X3429000Y889000D01*
X3454400D01*
X3429000Y914400D01*
X3454400Y939800D01*
X3429000D01*
X3403600Y965200D01*
X3378200Y939800D01*
X3352800D01*
X3378200Y914400D01*
X3352800Y889000D01*
X3378200D01*
X3403600Y863600D01*
X3530600Y609600D02*
X3556000Y635000D01*
X3581400D01*
X3556000Y660400D01*
X3581400Y685800D01*
X3556000D01*
X3530600Y711200D01*
X3505200Y685800D01*
X3479800D01*
X3505200Y660400D01*
X3479800Y635000D01*
X3505200D01*
X3530600Y609600D01*
X3403600Y355600D02*
X3429000Y381000D01*
X3454400D01*
X3429000Y406400D01*
X3454400Y431800D01*
X3429000D01*
X3403600Y457200D01*
X3378200Y431800D01*
X3352800D01*
X3378200Y406400D01*
X3352800Y381000D01*
X3378200D01*
X3403600Y355600D01*
X3530600Y101600D02*
X3556000Y127000D01*
X3581400D01*
X3556000Y152400D01*
X3581400Y177800D01*
X3556000D01*
X3530600Y203200D01*
X3505200Y177800D01*
X3479800D01*
X3505200Y152400D01*
X3479800Y127000D01*
X3505200D01*
X3530600Y101600D01*
X3276600Y2641600D02*
X3302000Y2667000D01*
X3327400D01*
X3302000Y2692400D01*
X3327400Y2717800D01*
X3302000D01*
X3276600Y2743200D01*
X3251200Y2717800D01*
X3225800D01*
X3251200Y2692400D01*
X3225800Y2667000D01*
X3251200D01*
X3276600Y2641600D01*
Y1625600D02*
X3302000Y1651000D01*
X3327400D01*
X3302000Y1676400D01*
X3327400Y1701800D01*
X3302000D01*
X3276600Y1727200D01*
X3251200Y1701800D01*
X3225800D01*
X3251200Y1676400D01*
X3225800Y1651000D01*
X3251200D01*
X3276600Y1625600D01*
X3149600Y1371600D02*
X3175000Y1397000D01*
X3200400D01*
X3175000Y1422400D01*
X3200400Y1447800D01*
X3175000D01*
X3149600Y1473200D01*
X3124200Y1447800D01*
X3098800D01*
X3124200Y1422400D01*
X3098800Y1397000D01*
X3124200D01*
X3149600Y1371600D01*
X3276600Y1117600D02*
X3302000Y1143000D01*
X3327400D01*
X3302000Y1168400D01*
X3327400Y1193800D01*
X3302000D01*
X3276600Y1219200D01*
X3251200Y1193800D01*
X3225800D01*
X3251200Y1168400D01*
X3225800Y1143000D01*
X3251200D01*
X3276600Y1117600D01*
X3149600Y863600D02*
X3175000Y889000D01*
X3200400D01*
X3175000Y914400D01*
X3200400Y939800D01*
X3175000D01*
X3149600Y965200D01*
X3124200Y939800D01*
X3098800D01*
X3124200Y914400D01*
X3098800Y889000D01*
X3124200D01*
X3149600Y863600D01*
X3276600Y609600D02*
X3302000Y635000D01*
X3327400D01*
X3302000Y660400D01*
X3327400Y685800D01*
X3302000D01*
X3276600Y711200D01*
X3251200Y685800D01*
X3225800D01*
X3251200Y660400D01*
X3225800Y635000D01*
X3251200D01*
X3276600Y609600D01*
X3149600Y355600D02*
X3175000Y381000D01*
X3200400D01*
X3175000Y406400D01*
X3200400Y431800D01*
X3175000D01*
X3149600Y457200D01*
X3124200Y431800D01*
X3098800D01*
X3124200Y406400D01*
X3098800Y381000D01*
X3124200D01*
X3149600Y355600D01*
X3276600Y101600D02*
X3302000Y127000D01*
X3327400D01*
X3302000Y152400D01*
X3327400Y177800D01*
X3302000D01*
X3276600Y203200D01*
X3251200Y177800D01*
X3225800D01*
X3251200Y152400D01*
X3225800Y127000D01*
X3251200D01*
X3276600Y101600D01*
X3022600Y2641600D02*
X3048000Y2667000D01*
X3073400D01*
X3048000Y2692400D01*
X3073400Y2717800D01*
X3048000D01*
X3022600Y2743200D01*
X2997200Y2717800D01*
X2971800D01*
X2997200Y2692400D01*
X2971800Y2667000D01*
X2997200D01*
X3022600Y2641600D01*
X2895600Y2387600D02*
X2921000Y2413000D01*
X2946400D01*
X2921000Y2438400D01*
X2946400Y2463800D01*
X2921000D01*
X2895600Y2489200D01*
X2870200Y2463800D01*
X2844800D01*
X2870200Y2438400D01*
X2844800Y2413000D01*
X2870200D01*
X2895600Y2387600D01*
X3022600Y2133600D02*
X3048000Y2159000D01*
X3073400D01*
X3048000Y2184400D01*
X3073400Y2209800D01*
X3048000D01*
X3022600Y2235200D01*
X2997200Y2209800D01*
X2971800D01*
X2997200Y2184400D01*
X2971800Y2159000D01*
X2997200D01*
X3022600Y2133600D01*
Y1625600D02*
X3048000Y1651000D01*
X3073400D01*
X3048000Y1676400D01*
X3073400Y1701800D01*
X3048000D01*
X3022600Y1727200D01*
X2997200Y1701800D01*
X2971800D01*
X2997200Y1676400D01*
X2971800Y1651000D01*
X2997200D01*
X3022600Y1625600D01*
Y1117600D02*
X3048000Y1143000D01*
X3073400D01*
X3048000Y1168400D01*
X3073400Y1193800D01*
X3048000D01*
X3022600Y1219200D01*
X2997200Y1193800D01*
X2971800D01*
X2997200Y1168400D01*
X2971800Y1143000D01*
X2997200D01*
X3022600Y1117600D01*
Y609600D02*
X3048000Y635000D01*
X3073400D01*
X3048000Y660400D01*
X3073400Y685800D01*
X3048000D01*
X3022600Y711200D01*
X2997200Y685800D01*
X2971800D01*
X2997200Y660400D01*
X2971800Y635000D01*
X2997200D01*
X3022600Y609600D01*
X2895600Y355600D02*
X2921000Y381000D01*
X2946400D01*
X2921000Y406400D01*
X2946400Y431800D01*
X2921000D01*
X2895600Y457200D01*
X2870200Y431800D01*
X2844800D01*
X2870200Y406400D01*
X2844800Y381000D01*
X2870200D01*
X2895600Y355600D01*
X3022600Y101600D02*
X3048000Y127000D01*
X3073400D01*
X3048000Y152400D01*
X3073400Y177800D01*
X3048000D01*
X3022600Y203200D01*
X2997200Y177800D01*
X2971800D01*
X2997200Y152400D01*
X2971800Y127000D01*
X2997200D01*
X3022600Y101600D01*
X2768600Y2641600D02*
X2794000Y2667000D01*
X2819400D01*
X2794000Y2692400D01*
X2819400Y2717800D01*
X2794000D01*
X2768600Y2743200D01*
X2743200Y2717800D01*
X2717800D01*
X2743200Y2692400D01*
X2717800Y2667000D01*
X2743200D01*
X2768600Y2641600D01*
X2641600Y2387600D02*
X2667000Y2413000D01*
X2692400D01*
X2667000Y2438400D01*
X2692400Y2463800D01*
X2667000D01*
X2641600Y2489200D01*
X2616200Y2463800D01*
X2590800D01*
X2616200Y2438400D01*
X2590800Y2413000D01*
X2616200D01*
X2641600Y2387600D01*
X2768600Y2133600D02*
X2794000Y2159000D01*
X2819400D01*
X2794000Y2184400D01*
X2819400Y2209800D01*
X2794000D01*
X2768600Y2235200D01*
X2743200Y2209800D01*
X2717800D01*
X2743200Y2184400D01*
X2717800Y2159000D01*
X2743200D01*
X2768600Y2133600D01*
Y609600D02*
X2794000Y635000D01*
X2819400D01*
X2794000Y660400D01*
X2819400Y685800D01*
X2794000D01*
X2768600Y711200D01*
X2743200Y685800D01*
X2717800D01*
X2743200Y660400D01*
X2717800Y635000D01*
X2743200D01*
X2768600Y609600D01*
X2641600Y355600D02*
X2667000Y381000D01*
X2692400D01*
X2667000Y406400D01*
X2692400Y431800D01*
X2667000D01*
X2641600Y457200D01*
X2616200Y431800D01*
X2590800D01*
X2616200Y406400D01*
X2590800Y381000D01*
X2616200D01*
X2641600Y355600D01*
X2768600Y101600D02*
X2794000Y127000D01*
X2819400D01*
X2794000Y152400D01*
X2819400Y177800D01*
X2794000D01*
X2768600Y203200D01*
X2743200Y177800D01*
X2717800D01*
X2743200Y152400D01*
X2717800Y127000D01*
X2743200D01*
X2768600Y101600D01*
X2641600Y-152400D02*
X2667000Y-127000D01*
X2692400D01*
X2667000Y-101600D01*
X2692400Y-76200D01*
X2667000D01*
X2641600Y-50800D01*
X2616200Y-76200D01*
X2590800D01*
X2616200Y-101600D01*
X2590800Y-127000D01*
X2616200D01*
X2641600Y-152400D01*
X2514600Y2641600D02*
X2540000Y2667000D01*
X2565400D01*
X2540000Y2692400D01*
X2565400Y2717800D01*
X2540000D01*
X2514600Y2743200D01*
X2489200Y2717800D01*
X2463800D01*
X2489200Y2692400D01*
X2463800Y2667000D01*
X2489200D01*
X2514600Y2641600D01*
Y2133600D02*
X2540000Y2159000D01*
X2565400D01*
X2540000Y2184400D01*
X2565400Y2209800D01*
X2540000D01*
X2514600Y2235200D01*
X2489200Y2209800D01*
X2463800D01*
X2489200Y2184400D01*
X2463800Y2159000D01*
X2489200D01*
X2514600Y2133600D01*
Y609600D02*
X2540000Y635000D01*
X2565400D01*
X2540000Y660400D01*
X2565400Y685800D01*
X2540000D01*
X2514600Y711200D01*
X2489200Y685800D01*
X2463800D01*
X2489200Y660400D01*
X2463800Y635000D01*
X2489200D01*
X2514600Y609600D01*
Y101600D02*
X2540000Y127000D01*
X2565400D01*
X2540000Y152400D01*
X2565400Y177800D01*
X2540000D01*
X2514600Y203200D01*
X2489200Y177800D01*
X2463800D01*
X2489200Y152400D01*
X2463800Y127000D01*
X2489200D01*
X2514600Y101600D01*
X2260600Y609600D02*
X2286000Y635000D01*
X2311400D01*
X2286000Y660400D01*
X2311400Y685800D01*
X2286000D01*
X2260600Y711200D01*
X2235200Y685800D01*
X2209800D01*
X2235200Y660400D01*
X2209800Y635000D01*
X2235200D01*
X2260600Y609600D01*
X863600Y-152400D02*
X889000Y-127000D01*
X914400D01*
X889000Y-101600D01*
X914400Y-76200D01*
X889000D01*
X863600Y-50800D01*
X838200Y-76200D01*
X812800D01*
X838200Y-101600D01*
X812800Y-127000D01*
X838200D01*
X863600Y-152400D01*
X736600Y2641600D02*
X762000Y2667000D01*
X787400D01*
X762000Y2692400D01*
X787400Y2717800D01*
X762000D01*
X736600Y2743200D01*
X711200Y2717800D01*
X685800D01*
X711200Y2692400D01*
X685800Y2667000D01*
X711200D01*
X736600Y2641600D01*
X609600Y2387600D02*
X635000Y2413000D01*
X660400D01*
X635000Y2438400D01*
X660400Y2463800D01*
X635000D01*
X609600Y2489200D01*
X584200Y2463800D01*
X558800D01*
X584200Y2438400D01*
X558800Y2413000D01*
X584200D01*
X609600Y2387600D01*
X736600Y2133600D02*
X762000Y2159000D01*
X787400D01*
X762000Y2184400D01*
X787400Y2209800D01*
X762000D01*
X736600Y2235200D01*
X711200Y2209800D01*
X685800D01*
X711200Y2184400D01*
X685800Y2159000D01*
X711200D01*
X736600Y2133600D01*
X609600Y1879600D02*
X635000Y1905000D01*
X660400D01*
X635000Y1930400D01*
X660400Y1955800D01*
X635000D01*
X609600Y1981200D01*
X584200Y1955800D01*
X558800D01*
X584200Y1930400D01*
X558800Y1905000D01*
X584200D01*
X609600Y1879600D01*
Y863600D02*
X635000Y889000D01*
X660400D01*
X635000Y914400D01*
X660400Y939800D01*
X635000D01*
X609600Y965200D01*
X584200Y939800D01*
X558800D01*
X584200Y914400D01*
X558800Y889000D01*
X584200D01*
X609600Y863600D01*
Y355600D02*
X635000Y381000D01*
X660400D01*
X635000Y406400D01*
X660400Y431800D01*
X635000D01*
X609600Y457200D01*
X584200Y431800D01*
X558800D01*
X584200Y406400D01*
X558800Y381000D01*
X584200D01*
X609600Y355600D01*
X736600Y101600D02*
X762000Y127000D01*
X787400D01*
X762000Y152400D01*
X787400Y177800D01*
X762000D01*
X736600Y203200D01*
X711200Y177800D01*
X685800D01*
X711200Y152400D01*
X685800Y127000D01*
X711200D01*
X736600Y101600D01*
X609600Y-152400D02*
X635000Y-127000D01*
X660400D01*
X635000Y-101600D01*
X660400Y-76200D01*
X635000D01*
X609600Y-50800D01*
X584200Y-76200D01*
X558800D01*
X584200Y-101600D01*
X558800Y-127000D01*
X584200D01*
X609600Y-152400D01*
X482600Y2641600D02*
X508000Y2667000D01*
X533400D01*
X508000Y2692400D01*
X533400Y2717800D01*
X508000D01*
X482600Y2743200D01*
X457200Y2717800D01*
X431800D01*
X457200Y2692400D01*
X431800Y2667000D01*
X457200D01*
X482600Y2641600D01*
X355600Y2387600D02*
X381000Y2413000D01*
X406400D01*
X381000Y2438400D01*
X406400Y2463800D01*
X381000D01*
X355600Y2489200D01*
X330200Y2463800D01*
X304800D01*
X330200Y2438400D01*
X304800Y2413000D01*
X330200D01*
X355600Y2387600D01*
X482600Y2133600D02*
X508000Y2159000D01*
X533400D01*
X508000Y2184400D01*
X533400Y2209800D01*
X508000D01*
X482600Y2235200D01*
X457200Y2209800D01*
X431800D01*
X457200Y2184400D01*
X431800Y2159000D01*
X457200D01*
X482600Y2133600D01*
X355600Y1879600D02*
X381000Y1905000D01*
X406400D01*
X381000Y1930400D01*
X406400Y1955800D01*
X381000D01*
X355600Y1981200D01*
X330200Y1955800D01*
X304800D01*
X330200Y1930400D01*
X304800Y1905000D01*
X330200D01*
X355600Y1879600D01*
X482600Y609600D02*
X508000Y635000D01*
X533400D01*
X508000Y660400D01*
X533400Y685800D01*
X508000D01*
X482600Y711200D01*
X457200Y685800D01*
X431800D01*
X457200Y660400D01*
X431800Y635000D01*
X457200D01*
X482600Y609600D01*
X355600Y355600D02*
X381000Y381000D01*
X406400D01*
X381000Y406400D01*
X406400Y431800D01*
X381000D01*
X355600Y457200D01*
X330200Y431800D01*
X304800D01*
X330200Y406400D01*
X304800Y381000D01*
X330200D01*
X355600Y355600D01*
X482600Y101600D02*
X508000Y127000D01*
X533400D01*
X508000Y152400D01*
X533400Y177800D01*
X508000D01*
X482600Y203200D01*
X457200Y177800D01*
X431800D01*
X457200Y152400D01*
X431800Y127000D01*
X457200D01*
X482600Y101600D01*
X355600Y-152400D02*
X381000Y-127000D01*
X406400D01*
X381000Y-101600D01*
X406400Y-76200D01*
X381000D01*
X355600Y-50800D01*
X330200Y-76200D01*
X304800D01*
X330200Y-101600D01*
X304800Y-127000D01*
X330200D01*
X355600Y-152400D01*
X228600Y2133600D02*
X254000Y2159000D01*
X279400D01*
X254000Y2184400D01*
X279400Y2209800D01*
X254000D01*
X228600Y2235200D01*
X203200Y2209800D01*
X177800D01*
X203200Y2184400D01*
X177800Y2159000D01*
X203200D01*
X228600Y2133600D01*
X101600Y1879600D02*
X127000Y1905000D01*
X152400D01*
X127000Y1930400D01*
X152400Y1955800D01*
X127000D01*
X101600Y1981200D01*
X76200Y1955800D01*
X50800D01*
X76200Y1930400D01*
X50800Y1905000D01*
X76200D01*
X101600Y1879600D01*
X228600Y609600D02*
X254000Y635000D01*
X279400D01*
X254000Y660400D01*
X279400Y685800D01*
X254000D01*
X228600Y711200D01*
X203200Y685800D01*
X177800D01*
X203200Y660400D01*
X177800Y635000D01*
X203200D01*
X228600Y609600D01*
X101600Y355600D02*
X127000Y381000D01*
X152400D01*
X127000Y406400D01*
X152400Y431800D01*
X127000D01*
X101600Y457200D01*
X76200Y431800D01*
X50800D01*
X76200Y406400D01*
X50800Y381000D01*
X76200D01*
X101600Y355600D01*
X-25400Y2133600D02*
X0Y2159000D01*
X25400D01*
X0Y2184400D01*
X25400Y2209800D01*
X0D01*
X-25400Y2235200D01*
X-50800Y2209800D01*
X-76200D01*
X-50800Y2184400D01*
X-76200Y2159000D01*
X-50800D01*
X-25400Y2133600D01*
X-152400Y1879600D02*
X-127000Y1905000D01*
X-101600D01*
X-127000Y1930400D01*
X-101600Y1955800D01*
X-127000D01*
X-152400Y1981200D01*
X-177800Y1955800D01*
X-203200D01*
X-177800Y1930400D01*
X-203200Y1905000D01*
X-177800D01*
X-152400Y1879600D01*
X-25400Y609600D02*
X0Y635000D01*
X25400D01*
X0Y660400D01*
X25400Y685800D01*
X0D01*
X-25400Y711200D01*
X-50800Y685800D01*
X-76200D01*
X-50800Y660400D01*
X-76200Y635000D01*
X-50800D01*
X-25400Y609600D01*
X-152400Y355600D02*
X-127000Y381000D01*
X-101600D01*
X-127000Y406400D01*
X-101600Y431800D01*
X-127000D01*
X-152400Y457200D01*
X-177800Y431800D01*
X-203200D01*
X-177800Y406400D01*
X-203200Y381000D01*
X-177800D01*
X-152400Y355600D01*
X6197600Y1422400D02*
X6223000Y1447800D01*
X6248400D01*
X6223000Y1473200D01*
X6248400Y1498600D01*
X6223000D01*
X6197600Y1524000D01*
X6172200Y1498600D01*
X6146800D01*
X6172200Y1473200D01*
X6146800Y1447800D01*
X6172200D01*
X6197600Y1422400D01*
X6210300Y1282700D02*
X6235700Y1308100D01*
X6261100D01*
X6235700Y1333500D01*
X6261100Y1358900D01*
X6235700D01*
X6210300Y1384300D01*
X6184900Y1358900D01*
X6159500D01*
X6184900Y1333500D01*
X6159500Y1308100D01*
X6184900D01*
X6210300Y1282700D01*
X6223000Y1168400D02*
X6248400Y1193800D01*
X6273800D01*
X6248400Y1219200D01*
X6273800Y1244600D01*
X6248400D01*
X6223000Y1270000D01*
X6197600Y1244600D01*
X6172200D01*
X6197600Y1219200D01*
X6172200Y1193800D01*
X6197600D01*
X6223000Y1168400D01*
Y1041400D02*
X6248400Y1066800D01*
X6273800D01*
X6248400Y1092200D01*
X6273800Y1117600D01*
X6248400D01*
X6223000Y1143000D01*
X6197600Y1117600D01*
X6172200D01*
X6197600Y1092200D01*
X6172200Y1066800D01*
X6197600D01*
X6223000Y1041400D01*
X5905500Y1384300D02*
X5930900Y1409700D01*
X5956300D01*
X5930900Y1435100D01*
X5956300Y1460500D01*
X5930900D01*
X5905500Y1485900D01*
X5880100Y1460500D01*
X5854700D01*
X5880100Y1435100D01*
X5854700Y1409700D01*
X5880100D01*
X5905500Y1384300D01*
X5981700Y1257300D02*
X6007100Y1282700D01*
X6032500D01*
X6007100Y1308100D01*
X6032500Y1333500D01*
X6007100D01*
X5981700Y1358900D01*
X5956300Y1333500D01*
X5930900D01*
X5956300Y1308100D01*
X5930900Y1282700D01*
X5956300D01*
X5981700Y1257300D01*
X5918200Y1066800D02*
X5943600Y1092200D01*
X5969000D01*
X5943600Y1117600D01*
X5969000Y1143000D01*
X5943600D01*
X5918200Y1168400D01*
X5892800Y1143000D01*
X5867400D01*
X5892800Y1117600D01*
X5867400Y1092200D01*
X5892800D01*
X5918200Y1066800D01*
X5880100Y965200D02*
X5905500Y990600D01*
X5930900D01*
X5905500Y1016000D01*
X5930900Y1041400D01*
X5905500D01*
X5880100Y1066800D01*
X5854700Y1041400D01*
X5829300D01*
X5854700Y1016000D01*
X5829300Y990600D01*
X5854700D01*
X5880100Y965200D01*
X5143500Y1219200D02*
X5168900Y1244600D01*
X5194300D01*
X5168900Y1270000D01*
X5194300Y1295400D01*
X5168900D01*
X5143500Y1320800D01*
X5118100Y1295400D01*
X5092700D01*
X5118100Y1270000D01*
X5092700Y1244600D01*
X5118100D01*
X5143500Y1219200D01*
X4178300Y1981200D02*
X4203700Y2006600D01*
X4229100D01*
X4203700Y2032000D01*
X4229100Y2057400D01*
X4203700D01*
X4178300Y2082800D01*
X4152900Y2057400D01*
X4127500D01*
X4152900Y2032000D01*
X4127500Y2006600D01*
X4152900D01*
X4178300Y1981200D01*
X8610600Y1739900D02*
X8636000Y1765300D01*
X8661400D01*
X8636000Y1790700D01*
X8661400Y1816100D01*
X8636000D01*
X8610600Y1841500D01*
X8585200Y1816100D01*
X8559800D01*
X8585200Y1790700D01*
X8559800Y1765300D01*
X8585200D01*
X8610600Y1739900D01*
X8737600Y1701800D02*
X8763000Y1727200D01*
X8788400D01*
X8763000Y1752600D01*
X8788400Y1778000D01*
X8763000D01*
X8737600Y1803400D01*
X8712200Y1778000D01*
X8686800D01*
X8712200Y1752600D01*
X8686800Y1727200D01*
X8712200D01*
X8737600Y1701800D01*
X8890000D02*
X8915400Y1727200D01*
X8940800D01*
X8915400Y1752600D01*
X8940800Y1778000D01*
X8915400D01*
X8890000Y1803400D01*
X8864600Y1778000D01*
X8839200D01*
X8864600Y1752600D01*
X8839200Y1727200D01*
X8864600D01*
X8890000Y1701800D01*
X9118600D02*
X9144000Y1727200D01*
X9169400D01*
X9144000Y1752600D01*
X9169400Y1778000D01*
X9144000D01*
X9118600Y1803400D01*
X9093200Y1778000D01*
X9067800D01*
X9093200Y1752600D01*
X9067800Y1727200D01*
X9093200D01*
X9118600Y1701800D01*
Y1841500D02*
X9144000Y1866900D01*
X9169400D01*
X9144000Y1892300D01*
X9169400Y1917700D01*
X9144000D01*
X9118600Y1943100D01*
X9093200Y1917700D01*
X9067800D01*
X9093200Y1892300D01*
X9067800Y1866900D01*
X9093200D01*
X9118600Y1841500D01*
Y1993900D02*
X9144000Y2019300D01*
X9169400D01*
X9144000Y2044700D01*
X9169400Y2070100D01*
X9144000D01*
X9118600Y2095500D01*
X9093200Y2070100D01*
X9067800D01*
X9093200Y2044700D01*
X9067800Y2019300D01*
X9093200D01*
X9118600Y1993900D01*
Y2133600D02*
X9144000Y2159000D01*
X9169400D01*
X9144000Y2184400D01*
X9169400Y2209800D01*
X9144000D01*
X9118600Y2235200D01*
X9093200Y2209800D01*
X9067800D01*
X9093200Y2184400D01*
X9067800Y2159000D01*
X9093200D01*
X9118600Y2133600D01*
Y2260600D02*
X9144000Y2286000D01*
X9169400D01*
X9144000Y2311400D01*
X9169400Y2336800D01*
X9144000D01*
X9118600Y2362200D01*
X9093200Y2336800D01*
X9067800D01*
X9093200Y2311400D01*
X9067800Y2286000D01*
X9093200D01*
X9118600Y2260600D01*
X8750300Y2235200D02*
X8775700Y2260600D01*
X8801100D01*
X8775700Y2286000D01*
X8801100Y2311400D01*
X8775700D01*
X8750300Y2336800D01*
X8724900Y2311400D01*
X8699500D01*
X8724900Y2286000D01*
X8699500Y2260600D01*
X8724900D01*
X8750300Y2235200D01*
Y2108200D02*
X8775700Y2133600D01*
X8801100D01*
X8775700Y2159000D01*
X8801100Y2184400D01*
X8775700D01*
X8750300Y2209800D01*
X8724900Y2184400D01*
X8699500D01*
X8724900Y2159000D01*
X8699500Y2133600D01*
X8724900D01*
X8750300Y2108200D01*
Y1955800D02*
X8775700Y1981200D01*
X8801100D01*
X8775700Y2006600D01*
X8801100Y2032000D01*
X8775700D01*
X8750300Y2057400D01*
X8724900Y2032000D01*
X8699500D01*
X8724900Y2006600D01*
X8699500Y1981200D01*
X8724900D01*
X8750300Y1955800D01*
X8864600D02*
X8890000Y1981200D01*
X8915400D01*
X8890000Y2006600D01*
X8915400Y2032000D01*
X8890000D01*
X8864600Y2057400D01*
X8839200Y2032000D01*
X8813800D01*
X8839200Y2006600D01*
X8813800Y1981200D01*
X8839200D01*
X8864600Y1955800D01*
X8623300D02*
X8648700Y1981200D01*
X8674100D01*
X8648700Y2006600D01*
X8674100Y2032000D01*
X8648700D01*
X8623300Y2057400D01*
X8597900Y2032000D01*
X8572500D01*
X8597900Y2006600D01*
X8572500Y1981200D01*
X8597900D01*
X8623300Y1955800D01*
X8864600Y2108200D02*
X8890000Y2133600D01*
X8915400D01*
X8890000Y2159000D01*
X8915400Y2184400D01*
X8890000D01*
X8864600Y2209800D01*
X8839200Y2184400D01*
X8813800D01*
X8839200Y2159000D01*
X8813800Y2133600D01*
X8839200D01*
X8864600Y2108200D01*
X8623300D02*
X8648700Y2133600D01*
X8674100D01*
X8648700Y2159000D01*
X8674100Y2184400D01*
X8648700D01*
X8623300Y2209800D01*
X8597900Y2184400D01*
X8572500D01*
X8597900Y2159000D01*
X8572500Y2133600D01*
X8597900D01*
X8623300Y2108200D01*
X8864600Y2235200D02*
X8890000Y2260600D01*
X8915400D01*
X8890000Y2286000D01*
X8915400Y2311400D01*
X8890000D01*
X8864600Y2336800D01*
X8839200Y2311400D01*
X8813800D01*
X8839200Y2286000D01*
X8813800Y2260600D01*
X8839200D01*
X8864600Y2235200D01*
X8623300D02*
X8648700Y2260600D01*
X8674100D01*
X8648700Y2286000D01*
X8674100Y2311400D01*
X8648700D01*
X8623300Y2336800D01*
X8597900Y2311400D01*
X8572500D01*
X8597900Y2286000D01*
X8572500Y2260600D01*
X8597900D01*
X8623300Y2235200D01*
X4953000Y1574800D02*
X4978400Y1600200D01*
X5003800D01*
X4978400Y1625600D01*
X5003800Y1651000D01*
X4978400D01*
X4953000Y1676400D01*
X4927600Y1651000D01*
X4902200D01*
X4927600Y1625600D01*
X4902200Y1600200D01*
X4927600D01*
X4953000Y1574800D01*
X5092700Y1701800D02*
X5118100Y1727200D01*
X5143500D01*
X5118100Y1752600D01*
X5143500Y1778000D01*
X5118100D01*
X5092700Y1803400D01*
X5067300Y1778000D01*
X5041900D01*
X5067300Y1752600D01*
X5041900Y1727200D01*
X5067300D01*
X5092700Y1701800D01*
X4368800Y1841500D02*
X4394200Y1866900D01*
X4419600D01*
X4394200Y1892300D01*
X4419600Y1917700D01*
X4394200D01*
X4368800Y1943100D01*
X4343400Y1917700D01*
X4318000D01*
X4343400Y1892300D01*
X4318000Y1866900D01*
X4343400D01*
X4368800Y1841500D01*
X4178300D02*
X4203700Y1866900D01*
X4229100D01*
X4203700Y1892300D01*
X4229100Y1917700D01*
X4203700D01*
X4178300Y1943100D01*
X4152900Y1917700D01*
X4127500D01*
X4152900Y1892300D01*
X4127500Y1866900D01*
X4152900D01*
X4178300Y1841500D01*
X3987800Y1993900D02*
X4013200Y2019300D01*
X4038600D01*
X4013200Y2044700D01*
X4038600Y2070100D01*
X4013200D01*
X3987800Y2095500D01*
X3962400Y2070100D01*
X3937000D01*
X3962400Y2044700D01*
X3937000Y2019300D01*
X3962400D01*
X3987800Y1993900D01*
Y1841500D02*
X4013200Y1866900D01*
X4038600D01*
X4013200Y1892300D01*
X4038600Y1917700D01*
X4013200D01*
X3987800Y1943100D01*
X3962400Y1917700D01*
X3937000D01*
X3962400Y1892300D01*
X3937000Y1866900D01*
X3962400D01*
X3987800Y1841500D01*
Y1689100D02*
X4013200Y1714500D01*
X4038600D01*
X4013200Y1739900D01*
X4038600Y1765300D01*
X4013200D01*
X3987800Y1790700D01*
X3962400Y1765300D01*
X3937000D01*
X3962400Y1739900D01*
X3937000Y1714500D01*
X3962400D01*
X3987800Y1689100D01*
X4178300D02*
X4203700Y1714500D01*
X4229100D01*
X4203700Y1739900D01*
X4229100Y1765300D01*
X4203700D01*
X4178300Y1790700D01*
X4152900Y1765300D01*
X4127500D01*
X4152900Y1739900D01*
X4127500Y1714500D01*
X4152900D01*
X4178300Y1689100D01*
X4368800D02*
X4394200Y1714500D01*
X4419600D01*
X4394200Y1739900D01*
X4419600Y1765300D01*
X4394200D01*
X4368800Y1790700D01*
X4343400Y1765300D01*
X4318000D01*
X4343400Y1739900D01*
X4318000Y1714500D01*
X4343400D01*
X4368800Y1689100D01*
Y1993900D02*
X4394200Y2019300D01*
X4419600D01*
X4394200Y2044700D01*
X4419600Y2070100D01*
X4394200D01*
X4368800Y2095500D01*
X4343400Y2070100D01*
X4318000D01*
X4343400Y2044700D01*
X4318000Y2019300D01*
X4343400D01*
X4368800Y1993900D01*
X1155700Y-228600D02*
X1181100Y-203200D01*
X1206500D01*
X1181100Y-177800D01*
X1206500Y-152400D01*
X1181100D01*
X1155700Y-127000D01*
X1130300Y-152400D01*
X1104900D01*
X1130300Y-177800D01*
X1104900Y-203200D01*
X1130300D01*
X1155700Y-228600D01*
X1028700D02*
X1054100Y-203200D01*
X1079500D01*
X1054100Y-177800D01*
X1079500Y-152400D01*
X1054100D01*
X1028700Y-127000D01*
X1003300Y-152400D01*
X977900D01*
X1003300Y-177800D01*
X977900Y-203200D01*
X1003300D01*
X1028700Y-228600D01*
X952500Y-165100D02*
X977900Y-139700D01*
X1003300D01*
X977900Y-114300D01*
X1003300Y-88900D01*
X977900D01*
X952500Y-63500D01*
X927100Y-88900D01*
X901700D01*
X927100Y-114300D01*
X901700Y-139700D01*
X927100D01*
X952500Y-165100D01*
Y-88900D02*
X977900Y-63500D01*
X1003300D01*
X977900Y-38100D01*
X1003300Y-12700D01*
X977900D01*
X952500Y12700D01*
X927100Y-12700D01*
X901700D01*
X927100Y-38100D01*
X901700Y-63500D01*
X927100D01*
X952500Y-88900D01*
Y63500D02*
X977900Y88900D01*
X1003300D01*
X977900Y114300D01*
X1003300Y139700D01*
X977900D01*
X952500Y165100D01*
X927100Y139700D01*
X901700D01*
X927100Y114300D01*
X901700Y88900D01*
X927100D01*
X952500Y63500D01*
Y152400D02*
X977900Y177800D01*
X1003300D01*
X977900Y203200D01*
X1003300Y228600D01*
X977900D01*
X952500Y254000D01*
X927100Y228600D01*
X901700D01*
X927100Y203200D01*
X901700Y177800D01*
X927100D01*
X952500Y152400D01*
Y254000D02*
X977900Y279400D01*
X1003300D01*
X977900Y304800D01*
X1003300Y330200D01*
X977900D01*
X952500Y355600D01*
X927100Y330200D01*
X901700D01*
X927100Y304800D01*
X901700Y279400D01*
X927100D01*
X952500Y254000D01*
Y406400D02*
X977900Y431800D01*
X1003300D01*
X977900Y457200D01*
X1003300Y482600D01*
X977900D01*
X952500Y508000D01*
X927100Y482600D01*
X901700D01*
X927100Y457200D01*
X901700Y431800D01*
X927100D01*
X952500Y406400D01*
Y482600D02*
X977900Y508000D01*
X1003300D01*
X977900Y533400D01*
X1003300Y558800D01*
X977900D01*
X952500Y584200D01*
X927100Y558800D01*
X901700D01*
X927100Y533400D01*
X901700Y508000D01*
X927100D01*
X952500Y482600D01*
X850900D02*
X876300Y508000D01*
X901700D01*
X876300Y533400D01*
X901700Y558800D01*
X876300D01*
X850900Y584200D01*
X825500Y558800D01*
X800100D01*
X825500Y533400D01*
X800100Y508000D01*
X825500D01*
X850900Y482600D01*
X863600Y647700D02*
X889000Y673100D01*
X914400D01*
X889000Y698500D01*
X914400Y723900D01*
X889000D01*
X863600Y749300D01*
X838200Y723900D01*
X812800D01*
X838200Y698500D01*
X812800Y673100D01*
X838200D01*
X863600Y647700D01*
Y749300D02*
X889000Y774700D01*
X914400D01*
X889000Y800100D01*
X914400Y825500D01*
X889000D01*
X863600Y850900D01*
X838200Y825500D01*
X812800D01*
X838200Y800100D01*
X812800Y774700D01*
X838200D01*
X863600Y749300D01*
X889000Y901700D02*
X914400Y927100D01*
X939800D01*
X914400Y952500D01*
X939800Y977900D01*
X914400D01*
X889000Y1003300D01*
X863600Y977900D01*
X838200D01*
X863600Y952500D01*
X838200Y927100D01*
X863600D01*
X889000Y901700D01*
X1003300Y927100D02*
X1028700Y952500D01*
X1054100D01*
X1028700Y977900D01*
X1054100Y1003300D01*
X1028700D01*
X1003300Y1028700D01*
X977900Y1003300D01*
X952500D01*
X977900Y977900D01*
X952500Y952500D01*
X977900D01*
X1003300Y927100D01*
X876300Y1701800D02*
X901700Y1727200D01*
X927100D01*
X901700Y1752600D01*
X927100Y1778000D01*
X901700D01*
X876300Y1803400D01*
X850900Y1778000D01*
X825500D01*
X850900Y1752600D01*
X825500Y1727200D01*
X850900D01*
X876300Y1701800D01*
X825500Y1854200D02*
X850900Y1879600D01*
X876300D01*
X850900Y1905000D01*
X876300Y1930400D01*
X850900D01*
X825500Y1955800D01*
X800100Y1930400D01*
X774700D01*
X800100Y1905000D01*
X774700Y1879600D01*
X800100D01*
X825500Y1854200D01*
X889000Y1917700D02*
X914400Y1943100D01*
X939800D01*
X914400Y1968500D01*
X939800Y1993900D01*
X914400D01*
X889000Y2019300D01*
X863600Y1993900D01*
X838200D01*
X863600Y1968500D01*
X838200Y1943100D01*
X863600D01*
X889000Y1917700D01*
X952500Y1993900D02*
X977900Y2019300D01*
X1003300D01*
X977900Y2044700D01*
X1003300Y2070100D01*
X977900D01*
X952500Y2095500D01*
X927100Y2070100D01*
X901700D01*
X927100Y2044700D01*
X901700Y2019300D01*
X927100D01*
X952500Y1993900D01*
Y2171700D02*
X977900Y2197100D01*
X1003300D01*
X977900Y2222500D01*
X1003300Y2247900D01*
X977900D01*
X952500Y2273300D01*
X927100Y2247900D01*
X901700D01*
X927100Y2222500D01*
X901700Y2197100D01*
X927100D01*
X952500Y2171700D01*
Y2260600D02*
X977900Y2286000D01*
X1003300D01*
X977900Y2311400D01*
X1003300Y2336800D01*
X977900D01*
X952500Y2362200D01*
X927100Y2336800D01*
X901700D01*
X927100Y2311400D01*
X901700Y2286000D01*
X927100D01*
X952500Y2260600D01*
Y2362200D02*
X977900Y2387600D01*
X1003300D01*
X977900Y2413000D01*
X1003300Y2438400D01*
X977900D01*
X952500Y2463800D01*
X927100Y2438400D01*
X901700D01*
X927100Y2413000D01*
X901700Y2387600D01*
X927100D01*
X952500Y2362200D01*
Y2527300D02*
X977900Y2552700D01*
X1003300D01*
X977900Y2578100D01*
X1003300Y2603500D01*
X977900D01*
X952500Y2628900D01*
X927100Y2603500D01*
X901700D01*
X927100Y2578100D01*
X901700Y2552700D01*
X927100D01*
X952500Y2527300D01*
Y2616200D02*
X977900Y2641600D01*
X1003300D01*
X977900Y2667000D01*
X1003300Y2692400D01*
X977900D01*
X952500Y2717800D01*
X927100Y2692400D01*
X901700D01*
X927100Y2667000D01*
X901700Y2641600D01*
X927100D01*
X952500Y2616200D01*
X1028700Y2667000D02*
X1054100Y2692400D01*
X1079500D01*
X1054100Y2717800D01*
X1079500Y2743200D01*
X1054100D01*
X1028700Y2768600D01*
X1003300Y2743200D01*
X977900D01*
X1003300Y2717800D01*
X977900Y2692400D01*
X1003300D01*
X1028700Y2667000D01*
X1168400D02*
X1193800Y2692400D01*
X1219200D01*
X1193800Y2717800D01*
X1219200Y2743200D01*
X1193800D01*
X1168400Y2768600D01*
X1143000Y2743200D01*
X1117600D01*
X1143000Y2717800D01*
X1117600Y2692400D01*
X1143000D01*
X1168400Y2667000D01*
X2095500D02*
X2120900Y2692400D01*
X2146300D01*
X2120900Y2717800D01*
X2146300Y2743200D01*
X2120900D01*
X2095500Y2768600D01*
X2070100Y2743200D01*
X2044700D01*
X2070100Y2717800D01*
X2044700Y2692400D01*
X2070100D01*
X2095500Y2667000D01*
X2235200D02*
X2260600Y2692400D01*
X2286000D01*
X2260600Y2717800D01*
X2286000Y2743200D01*
X2260600D01*
X2235200Y2768600D01*
X2209800Y2743200D01*
X2184400D01*
X2209800Y2717800D01*
X2184400Y2692400D01*
X2209800D01*
X2235200Y2667000D01*
X2324100Y2603500D02*
X2349500Y2628900D01*
X2374900D01*
X2349500Y2654300D01*
X2374900Y2679700D01*
X2349500D01*
X2324100Y2705100D01*
X2298700Y2679700D01*
X2273300D01*
X2298700Y2654300D01*
X2273300Y2628900D01*
X2298700D01*
X2324100Y2603500D01*
Y2514600D02*
X2349500Y2540000D01*
X2374900D01*
X2349500Y2565400D01*
X2374900Y2590800D01*
X2349500D01*
X2324100Y2616200D01*
X2298700Y2590800D01*
X2273300D01*
X2298700Y2565400D01*
X2273300Y2540000D01*
X2298700D01*
X2324100Y2514600D01*
Y2362200D02*
X2349500Y2387600D01*
X2374900D01*
X2349500Y2413000D01*
X2374900Y2438400D01*
X2349500D01*
X2324100Y2463800D01*
X2298700Y2438400D01*
X2273300D01*
X2298700Y2413000D01*
X2273300Y2387600D01*
X2298700D01*
X2324100Y2362200D01*
Y2286000D02*
X2349500Y2311400D01*
X2374900D01*
X2349500Y2336800D01*
X2374900Y2362200D01*
X2349500D01*
X2324100Y2387600D01*
X2298700Y2362200D01*
X2273300D01*
X2298700Y2336800D01*
X2273300Y2311400D01*
X2298700D01*
X2324100Y2286000D01*
Y2197100D02*
X2349500Y2222500D01*
X2374900D01*
X2349500Y2247900D01*
X2374900Y2273300D01*
X2349500D01*
X2324100Y2298700D01*
X2298700Y2273300D01*
X2273300D01*
X2298700Y2247900D01*
X2273300Y2222500D01*
X2298700D01*
X2324100Y2197100D01*
Y2032000D02*
X2349500Y2057400D01*
X2374900D01*
X2349500Y2082800D01*
X2374900Y2108200D01*
X2349500D01*
X2324100Y2133600D01*
X2298700Y2108200D01*
X2273300D01*
X2298700Y2082800D01*
X2273300Y2057400D01*
X2298700D01*
X2324100Y2032000D01*
Y1955800D02*
X2349500Y1981200D01*
X2374900D01*
X2349500Y2006600D01*
X2374900Y2032000D01*
X2349500D01*
X2324100Y2057400D01*
X2298700Y2032000D01*
X2273300D01*
X2298700Y2006600D01*
X2273300Y1981200D01*
X2298700D01*
X2324100Y1955800D01*
X2159000Y1892300D02*
X2184400Y1917700D01*
X2209800D01*
X2184400Y1943100D01*
X2209800Y1968500D01*
X2184400D01*
X2159000Y1993900D01*
X2133600Y1968500D01*
X2108200D01*
X2133600Y1943100D01*
X2108200Y1917700D01*
X2133600D01*
X2159000Y1892300D01*
X2019300Y1828800D02*
X2044700Y1854200D01*
X2070100D01*
X2044700Y1879600D01*
X2070100Y1905000D01*
X2044700D01*
X2019300Y1930400D01*
X1993900Y1905000D01*
X1968500D01*
X1993900Y1879600D01*
X1968500Y1854200D01*
X1993900D01*
X2019300Y1828800D01*
X2108200Y1816100D02*
X2133600Y1841500D01*
X2159000D01*
X2133600Y1866900D01*
X2159000Y1892300D01*
X2133600D01*
X2108200Y1917700D01*
X2082800Y1892300D01*
X2057400D01*
X2082800Y1866900D01*
X2057400Y1841500D01*
X2082800D01*
X2108200Y1816100D01*
X2019300Y1638300D02*
X2044700Y1663700D01*
X2070100D01*
X2044700Y1689100D01*
X2070100Y1714500D01*
X2044700D01*
X2019300Y1739900D01*
X1993900Y1714500D01*
X1968500D01*
X1993900Y1689100D01*
X1968500Y1663700D01*
X1993900D01*
X2019300Y1638300D01*
X2032000Y787400D02*
X2057400Y812800D01*
X2082800D01*
X2057400Y838200D01*
X2082800Y863600D01*
X2057400D01*
X2032000Y889000D01*
X2006600Y863600D01*
X1981200D01*
X2006600Y838200D01*
X1981200Y812800D01*
X2006600D01*
X2032000Y787400D01*
Y596900D02*
X2057400Y622300D01*
X2082800D01*
X2057400Y647700D01*
X2082800Y673100D01*
X2057400D01*
X2032000Y698500D01*
X2006600Y673100D01*
X1981200D01*
X2006600Y647700D01*
X1981200Y622300D01*
X2006600D01*
X2032000Y596900D01*
X2146300Y571500D02*
X2171700Y596900D01*
X2197100D01*
X2171700Y622300D01*
X2197100Y647700D01*
X2171700D01*
X2146300Y673100D01*
X2120900Y647700D01*
X2095500D01*
X2120900Y622300D01*
X2095500Y596900D01*
X2120900D01*
X2146300Y571500D01*
X2362200Y495300D02*
X2387600Y520700D01*
X2413000D01*
X2387600Y546100D01*
X2413000Y571500D01*
X2387600D01*
X2362200Y596900D01*
X2336800Y571500D01*
X2311400D01*
X2336800Y546100D01*
X2311400Y520700D01*
X2336800D01*
X2362200Y495300D01*
Y406400D02*
X2387600Y431800D01*
X2413000D01*
X2387600Y457200D01*
X2413000Y482600D01*
X2387600D01*
X2362200Y508000D01*
X2336800Y482600D01*
X2311400D01*
X2336800Y457200D01*
X2311400Y431800D01*
X2336800D01*
X2362200Y406400D01*
X2336800Y101600D02*
X2362200Y127000D01*
X2387600D01*
X2362200Y152400D01*
X2387600Y177800D01*
X2362200D01*
X2336800Y203200D01*
X2311400Y177800D01*
X2286000D01*
X2311400Y152400D01*
X2286000Y127000D01*
X2311400D01*
X2336800Y101600D01*
Y-114300D02*
X2362200Y-88900D01*
X2387600D01*
X2362200Y-63500D01*
X2387600Y-38100D01*
X2362200D01*
X2336800Y-12700D01*
X2311400Y-38100D01*
X2286000D01*
X2311400Y-63500D01*
X2286000Y-88900D01*
X2311400D01*
X2336800Y-114300D01*
X2324100Y-228600D02*
X2349500Y-203200D01*
X2374900D01*
X2349500Y-177800D01*
X2374900Y-152400D01*
X2349500D01*
X2324100Y-127000D01*
X2298700Y-152400D01*
X2273300D01*
X2298700Y-177800D01*
X2273300Y-203200D01*
X2298700D01*
X2324100Y-228600D01*
X2171700Y-215900D02*
X2197100Y-190500D01*
X2222500D01*
X2197100Y-165100D01*
X2222500Y-139700D01*
X2197100D01*
X2171700Y-114300D01*
X2146300Y-139700D01*
X2120900D01*
X2146300Y-165100D01*
X2120900Y-190500D01*
X2146300D01*
X2171700Y-215900D01*
X3848100Y508000D02*
X3873500Y533400D01*
X3898900D01*
X3873500Y558800D01*
X3898900Y584200D01*
X3873500D01*
X3848100Y609600D01*
X3822700Y584200D01*
X3797300D01*
X3822700Y558800D01*
X3797300Y533400D01*
X3822700D01*
X3848100Y508000D01*
X3771900D02*
X3797300Y533400D01*
X3822700D01*
X3797300Y558800D01*
X3822700Y584200D01*
X3797300D01*
X3771900Y609600D01*
X3746500Y584200D01*
X3721100D01*
X3746500Y558800D01*
X3721100Y533400D01*
X3746500D01*
X3771900Y508000D01*
X3849193Y436257D02*
X3874593Y461657D01*
X3899993D01*
X3874593Y487057D01*
X3899993Y512457D01*
X3874593D01*
X3849193Y537857D01*
X3823793Y512457D01*
X3798393D01*
X3823793Y487057D01*
X3798393Y461657D01*
X3823793D01*
X3849193Y436257D01*
X3772993D02*
X3798393Y461657D01*
X3823793D01*
X3798393Y487057D01*
X3823793Y512457D01*
X3798393D01*
X3772993Y537857D01*
X3747593Y512457D01*
X3722193D01*
X3747593Y487057D01*
X3722193Y461657D01*
X3747593D01*
X3772993Y436257D01*
X3848100Y368300D02*
X3873500Y393700D01*
X3898900D01*
X3873500Y419100D01*
X3898900Y444500D01*
X3873500D01*
X3848100Y469900D01*
X3822700Y444500D01*
X3797300D01*
X3822700Y419100D01*
X3797300Y393700D01*
X3822700D01*
X3848100Y368300D01*
X3771900D02*
X3797300Y393700D01*
X3822700D01*
X3797300Y419100D01*
X3822700Y444500D01*
X3797300D01*
X3771900Y469900D01*
X3746500Y444500D01*
X3721100D01*
X3746500Y419100D01*
X3721100Y393700D01*
X3746500D01*
X3771900Y368300D01*
Y292100D02*
X3797300Y317500D01*
X3822700D01*
X3797300Y342900D01*
X3822700Y368300D01*
X3797300D01*
X3771900Y393700D01*
X3746500Y368300D01*
X3721100D01*
X3746500Y342900D01*
X3721100Y317500D01*
X3746500D01*
X3771900Y292100D01*
X3848100D02*
X3873500Y317500D01*
X3898900D01*
X3873500Y342900D01*
X3898900Y368300D01*
X3873500D01*
X3848100Y393700D01*
X3822700Y368300D01*
X3797300D01*
X3822700Y342900D01*
X3797300Y317500D01*
X3822700D01*
X3848100Y292100D01*
X4305300D02*
X4330700Y317500D01*
X4356100D01*
X4330700Y342900D01*
X4356100Y368300D01*
X4330700D01*
X4305300Y393700D01*
X4279900Y368300D01*
X4254500D01*
X4279900Y342900D01*
X4254500Y317500D01*
X4279900D01*
X4305300Y292100D01*
X4229100D02*
X4254500Y317500D01*
X4279900D01*
X4254500Y342900D01*
X4279900Y368300D01*
X4254500D01*
X4229100Y393700D01*
X4203700Y368300D01*
X4178300D01*
X4203700Y342900D01*
X4178300Y317500D01*
X4203700D01*
X4229100Y292100D01*
X4152900D02*
X4178300Y317500D01*
X4203700D01*
X4178300Y342900D01*
X4203700Y368300D01*
X4178300D01*
X4152900Y393700D01*
X4127500Y368300D01*
X4102100D01*
X4127500Y342900D01*
X4102100Y317500D01*
X4127500D01*
X4152900Y292100D01*
X4076700D02*
X4102100Y317500D01*
X4127500D01*
X4102100Y342900D01*
X4127500Y368300D01*
X4102100D01*
X4076700Y393700D01*
X4051300Y368300D01*
X4025900D01*
X4051300Y342900D01*
X4025900Y317500D01*
X4051300D01*
X4076700Y292100D01*
X4000500D02*
X4025900Y317500D01*
X4051300D01*
X4025900Y342900D01*
X4051300Y368300D01*
X4025900D01*
X4000500Y393700D01*
X3975100Y368300D01*
X3949700D01*
X3975100Y342900D01*
X3949700Y317500D01*
X3975100D01*
X4000500Y292100D01*
X5219700Y495300D02*
X5245100Y520700D01*
X5270500D01*
X5245100Y546100D01*
X5270500Y571500D01*
X5245100D01*
X5219700Y596900D01*
X5194300Y571500D01*
X5168900D01*
X5194300Y546100D01*
X5168900Y520700D01*
X5194300D01*
X5219700Y495300D01*
X5321300D02*
X5346700Y520700D01*
X5372100D01*
X5346700Y546100D01*
X5372100Y571500D01*
X5346700D01*
X5321300Y596900D01*
X5295900Y571500D01*
X5270500D01*
X5295900Y546100D01*
X5270500Y520700D01*
X5295900D01*
X5321300Y495300D01*
X5829300Y520700D02*
X5854700Y546100D01*
X5880100D01*
X5854700Y571500D01*
X5880100Y596900D01*
X5854700D01*
X5829300Y622300D01*
X5803900Y596900D01*
X5778500D01*
X5803900Y571500D01*
X5778500Y546100D01*
X5803900D01*
X5829300Y520700D01*
X5664200Y241300D02*
X5689600Y266700D01*
X5715000D01*
X5689600Y292100D01*
X5715000Y317500D01*
X5689600D01*
X5664200Y342900D01*
X5638800Y317500D01*
X5613400D01*
X5638800Y292100D01*
X5613400Y266700D01*
X5638800D01*
X5664200Y241300D01*
X5727700Y152400D02*
X5753100Y177800D01*
X5778500D01*
X5753100Y203200D01*
X5778500Y228600D01*
X5753100D01*
X5727700Y254000D01*
X5702300Y228600D01*
X5676900D01*
X5702300Y203200D01*
X5676900Y177800D01*
X5702300D01*
X5727700Y152400D01*
X5892800D02*
X5918200Y177800D01*
X5943600D01*
X5918200Y203200D01*
X5943600Y228600D01*
X5918200D01*
X5892800Y254000D01*
X5867400Y228600D01*
X5842000D01*
X5867400Y203200D01*
X5842000Y177800D01*
X5867400D01*
X5892800Y152400D01*
X5943600Y241300D02*
X5969000Y266700D01*
X5994400D01*
X5969000Y292100D01*
X5994400Y317500D01*
X5969000D01*
X5943600Y342900D01*
X5918200Y317500D01*
X5892800D01*
X5918200Y292100D01*
X5892800Y266700D01*
X5918200D01*
X5943600Y241300D01*
X6413500Y1765300D02*
X6438900Y1790700D01*
X6464300D01*
X6438900Y1816100D01*
X6464300Y1841500D01*
X6438900D01*
X6413500Y1866900D01*
X6388100Y1841500D01*
X6362700D01*
X6388100Y1816100D01*
X6362700Y1790700D01*
X6388100D01*
X6413500Y1765300D01*
X6489700Y1600200D02*
X6515100Y1625600D01*
X6540500D01*
X6515100Y1651000D01*
X6540500Y1676400D01*
X6515100D01*
X6489700Y1701800D01*
X6464300Y1676400D01*
X6438900D01*
X6464300Y1651000D01*
X6438900Y1625600D01*
X6464300D01*
X6489700Y1600200D01*
X6642100D02*
X6667500Y1625600D01*
X6692900D01*
X6667500Y1651000D01*
X6692900Y1676400D01*
X6667500D01*
X6642100Y1701800D01*
X6616700Y1676400D01*
X6591300D01*
X6616700Y1651000D01*
X6591300Y1625600D01*
X6616700D01*
X6642100Y1600200D01*
X8204200Y25400D02*
X8229600Y50800D01*
X8255000D01*
X8229600Y76200D01*
X8255000Y101600D01*
X8229600D01*
X8204200Y127000D01*
X8178800Y101600D01*
X8153400D01*
X8178800Y76200D01*
X8153400Y50800D01*
X8178800D01*
X8204200Y25400D01*
X8191500Y444500D02*
X8216900Y469900D01*
X8242300D01*
X8216900Y495300D01*
X8242300Y520700D01*
X8216900D01*
X8191500Y546100D01*
X8166100Y520700D01*
X8140700D01*
X8166100Y495300D01*
X8140700Y469900D01*
X8166100D01*
X8191500Y444500D01*
X8369300Y254000D02*
X8394700Y279400D01*
X8420100D01*
X8394700Y304800D01*
X8420100Y330200D01*
X8394700D01*
X8369300Y355600D01*
X8343900Y330200D01*
X8318500D01*
X8343900Y304800D01*
X8318500Y279400D01*
X8343900D01*
X8369300Y254000D01*
X8534400Y1485900D02*
X8559800Y1511300D01*
X8585200D01*
X8559800Y1536700D01*
X8585200Y1562100D01*
X8559800D01*
X8534400Y1587500D01*
X8509000Y1562100D01*
X8483600D01*
X8509000Y1536700D01*
X8483600Y1511300D01*
X8509000D01*
X8534400Y1485900D01*
X8559800Y1308100D02*
X8585200Y1333500D01*
X8610600D01*
X8585200Y1358900D01*
X8610600Y1384300D01*
X8585200D01*
X8559800Y1409700D01*
X8534400Y1384300D01*
X8509000D01*
X8534400Y1358900D01*
X8509000Y1333500D01*
X8534400D01*
X8559800Y1308100D01*
X8293100Y1270000D02*
X8318500Y1295400D01*
X8343900D01*
X8318500Y1320800D01*
X8343900Y1346200D01*
X8318500D01*
X8293100Y1371600D01*
X8267700Y1346200D01*
X8242300D01*
X8267700Y1320800D01*
X8242300Y1295400D01*
X8267700D01*
X8293100Y1270000D01*
X8280400Y1803400D02*
X8305800Y1828800D01*
X8331200D01*
X8305800Y1854200D01*
X8331200Y1879600D01*
X8305800D01*
X8280400Y1905000D01*
X8255000Y1879600D01*
X8229600D01*
X8255000Y1854200D01*
X8229600Y1828800D01*
X8255000D01*
X8280400Y1803400D01*
X8115300Y1536700D02*
X8140700Y1562100D01*
X8166100D01*
X8140700Y1587500D01*
X8166100Y1612900D01*
X8140700D01*
X8115300Y1638300D01*
X8089900Y1612900D01*
X8064500D01*
X8089900Y1587500D01*
X8064500Y1562100D01*
X8089900D01*
X8115300Y1536700D01*
X7975600Y1651000D02*
X8001000Y1676400D01*
X8026400D01*
X8001000Y1701800D01*
X8026400Y1727200D01*
X8001000D01*
X7975600Y1752600D01*
X7950200Y1727200D01*
X7924800D01*
X7950200Y1701800D01*
X7924800Y1676400D01*
X7950200D01*
X7975600Y1651000D01*
X4521200Y2006600D02*
X4546600Y2032000D01*
X4572000D01*
X4546600Y2057400D01*
X4572000Y2082800D01*
X4546600D01*
X4521200Y2108200D01*
X4495800Y2082800D01*
X4470400D01*
X4495800Y2057400D01*
X4470400Y2032000D01*
X4495800D01*
X4521200Y2006600D01*
X4610100D02*
X4635500Y2032000D01*
X4660900D01*
X4635500Y2057400D01*
X4660900Y2082800D01*
X4635500D01*
X4610100Y2108200D01*
X4584700Y2082800D01*
X4559300D01*
X4584700Y2057400D01*
X4559300Y2032000D01*
X4584700D01*
X4610100Y2006600D01*
X4521200Y2082800D02*
X4546600Y2108200D01*
X4572000D01*
X4546600Y2133600D01*
X4572000Y2159000D01*
X4546600D01*
X4521200Y2184400D01*
X4495800Y2159000D01*
X4470400D01*
X4495800Y2133600D01*
X4470400Y2108200D01*
X4495800D01*
X4521200Y2082800D01*
X4610100D02*
X4635500Y2108200D01*
X4660900D01*
X4635500Y2133600D01*
X4660900Y2159000D01*
X4635500D01*
X4610100Y2184400D01*
X4584700Y2159000D01*
X4559300D01*
X4584700Y2133600D01*
X4559300Y2108200D01*
X4584700D01*
X4610100Y2082800D01*
X4521200Y2159000D02*
X4546600Y2184400D01*
X4572000D01*
X4546600Y2209800D01*
X4572000Y2235200D01*
X4546600D01*
X4521200Y2260600D01*
X4495800Y2235200D01*
X4470400D01*
X4495800Y2209800D01*
X4470400Y2184400D01*
X4495800D01*
X4521200Y2159000D01*
X4610100D02*
X4635500Y2184400D01*
X4660900D01*
X4635500Y2209800D01*
X4660900Y2235200D01*
X4635500D01*
X4610100Y2260600D01*
X4584700Y2235200D01*
X4559300D01*
X4584700Y2209800D01*
X4559300Y2184400D01*
X4584700D01*
X4610100Y2159000D01*
X4584700Y2336800D02*
X4610100Y2362200D01*
X4635500D01*
X4610100Y2387600D01*
X4635500Y2413000D01*
X4610100D01*
X4584700Y2438400D01*
X4559300Y2413000D01*
X4533900D01*
X4559300Y2387600D01*
X4533900Y2362200D01*
X4559300D01*
X4584700Y2336800D01*
Y2235200D02*
X4610100Y2260600D01*
X4635500D01*
X4610100Y2286000D01*
X4635500Y2311400D01*
X4610100D01*
X4584700Y2336800D01*
X4559300Y2311400D01*
X4533900D01*
X4559300Y2286000D01*
X4533900Y2260600D01*
X4559300D01*
X4584700Y2235200D01*
X4508500Y2336800D02*
X4533900Y2362200D01*
X4559300D01*
X4533900Y2387600D01*
X4559300Y2413000D01*
X4533900D01*
X4508500Y2438400D01*
X4483100Y2413000D01*
X4457700D01*
X4483100Y2387600D01*
X4457700Y2362200D01*
X4483100D01*
X4508500Y2336800D01*
Y2235200D02*
X4533900Y2260600D01*
X4559300D01*
X4533900Y2286000D01*
X4559300Y2311400D01*
X4533900D01*
X4508500Y2336800D01*
X4483100Y2311400D01*
X4457700D01*
X4483100Y2286000D01*
X4457700Y2260600D01*
X4483100D01*
X4508500Y2235200D01*
X4432300Y2336800D02*
X4457700Y2362200D01*
X4483100D01*
X4457700Y2387600D01*
X4483100Y2413000D01*
X4457700D01*
X4432300Y2438400D01*
X4406900Y2413000D01*
X4381500D01*
X4406900Y2387600D01*
X4381500Y2362200D01*
X4406900D01*
X4432300Y2336800D01*
Y2235200D02*
X4457700Y2260600D01*
X4483100D01*
X4457700Y2286000D01*
X4483100Y2311400D01*
X4457700D01*
X4432300Y2336800D01*
X4406900Y2311400D01*
X4381500D01*
X4406900Y2286000D01*
X4381500Y2260600D01*
X4406900D01*
X4432300Y2235200D01*
X4356100Y2336800D02*
X4381500Y2362200D01*
X4406900D01*
X4381500Y2387600D01*
X4406900Y2413000D01*
X4381500D01*
X4356100Y2438400D01*
X4330700Y2413000D01*
X4305300D01*
X4330700Y2387600D01*
X4305300Y2362200D01*
X4330700D01*
X4356100Y2336800D01*
Y2235200D02*
X4381500Y2260600D01*
X4406900D01*
X4381500Y2286000D01*
X4406900Y2311400D01*
X4381500D01*
X4356100Y2336800D01*
X4330700Y2311400D01*
X4305300D01*
X4330700Y2286000D01*
X4305300Y2260600D01*
X4330700D01*
X4356100Y2235200D01*
X4279900Y2336800D02*
X4305300Y2362200D01*
X4330700D01*
X4305300Y2387600D01*
X4330700Y2413000D01*
X4305300D01*
X4279900Y2438400D01*
X4254500Y2413000D01*
X4229100D01*
X4254500Y2387600D01*
X4229100Y2362200D01*
X4254500D01*
X4279900Y2336800D01*
Y2235200D02*
X4305300Y2260600D01*
X4330700D01*
X4305300Y2286000D01*
X4330700Y2311400D01*
X4305300D01*
X4279900Y2336800D01*
X4254500Y2311400D01*
X4229100D01*
X4254500Y2286000D01*
X4229100Y2260600D01*
X4254500D01*
X4279900Y2235200D01*
X4203700Y2336800D02*
X4229100Y2362200D01*
X4254500D01*
X4229100Y2387600D01*
X4254500Y2413000D01*
X4229100D01*
X4203700Y2438400D01*
X4178300Y2413000D01*
X4152900D01*
X4178300Y2387600D01*
X4152900Y2362200D01*
X4178300D01*
X4203700Y2336800D01*
Y2235200D02*
X4229100Y2260600D01*
X4254500D01*
X4229100Y2286000D01*
X4254500Y2311400D01*
X4229100D01*
X4203700Y2336800D01*
X4178300Y2311400D01*
X4152900D01*
X4178300Y2286000D01*
X4152900Y2260600D01*
X4178300D01*
X4203700Y2235200D01*
X4127500Y2336800D02*
X4152900Y2362200D01*
X4178300D01*
X4152900Y2387600D01*
X4178300Y2413000D01*
X4152900D01*
X4127500Y2438400D01*
X4102100Y2413000D01*
X4076700D01*
X4102100Y2387600D01*
X4076700Y2362200D01*
X4102100D01*
X4127500Y2336800D01*
Y2235200D02*
X4152900Y2260600D01*
X4178300D01*
X4152900Y2286000D01*
X4178300Y2311400D01*
X4152900D01*
X4127500Y2336800D01*
X4102100Y2311400D01*
X4076700D01*
X4102100Y2286000D01*
X4076700Y2260600D01*
X4102100D01*
X4127500Y2235200D01*
X4051300Y2336800D02*
X4076700Y2362200D01*
X4102100D01*
X4076700Y2387600D01*
X4102100Y2413000D01*
X4076700D01*
X4051300Y2438400D01*
X4025900Y2413000D01*
X4000500D01*
X4025900Y2387600D01*
X4000500Y2362200D01*
X4025900D01*
X4051300Y2336800D01*
Y2235200D02*
X4076700Y2260600D01*
X4102100D01*
X4076700Y2286000D01*
X4102100Y2311400D01*
X4076700D01*
X4051300Y2336800D01*
X4025900Y2311400D01*
X4000500D01*
X4025900Y2286000D01*
X4000500Y2260600D01*
X4025900D01*
X4051300Y2235200D01*
X3975100Y2336800D02*
X4000500Y2362200D01*
X4025900D01*
X4000500Y2387600D01*
X4025900Y2413000D01*
X4000500D01*
X3975100Y2438400D01*
X3949700Y2413000D01*
X3924300D01*
X3949700Y2387600D01*
X3924300Y2362200D01*
X3949700D01*
X3975100Y2336800D01*
Y2235200D02*
X4000500Y2260600D01*
X4025900D01*
X4000500Y2286000D01*
X4025900Y2311400D01*
X4000500D01*
X3975100Y2336800D01*
X3949700Y2311400D01*
X3924300D01*
X3949700Y2286000D01*
X3924300Y2260600D01*
X3949700D01*
X3975100Y2235200D01*
X3898900Y2336800D02*
X3924300Y2362200D01*
X3949700D01*
X3924300Y2387600D01*
X3949700Y2413000D01*
X3924300D01*
X3898900Y2438400D01*
X3873500Y2413000D01*
X3848100D01*
X3873500Y2387600D01*
X3848100Y2362200D01*
X3873500D01*
X3898900Y2336800D01*
Y2235200D02*
X3924300Y2260600D01*
X3949700D01*
X3924300Y2286000D01*
X3949700Y2311400D01*
X3924300D01*
X3898900Y2336800D01*
X3873500Y2311400D01*
X3848100D01*
X3873500Y2286000D01*
X3848100Y2260600D01*
X3873500D01*
X3898900Y2235200D01*
X3810000Y2336800D02*
X3835400Y2362200D01*
X3860800D01*
X3835400Y2387600D01*
X3860800Y2413000D01*
X3835400D01*
X3810000Y2438400D01*
X3784600Y2413000D01*
X3759200D01*
X3784600Y2387600D01*
X3759200Y2362200D01*
X3784600D01*
X3810000Y2336800D01*
X3708400D02*
X3733800Y2362200D01*
X3759200D01*
X3733800Y2387600D01*
X3759200Y2413000D01*
X3733800D01*
X3708400Y2438400D01*
X3683000Y2413000D01*
X3657600D01*
X3683000Y2387600D01*
X3657600Y2362200D01*
X3683000D01*
X3708400Y2336800D01*
X3810000Y2260600D02*
X3835400Y2286000D01*
X3860800D01*
X3835400Y2311400D01*
X3860800Y2336800D01*
X3835400D01*
X3810000Y2362200D01*
X3784600Y2336800D01*
X3759200D01*
X3784600Y2311400D01*
X3759200Y2286000D01*
X3784600D01*
X3810000Y2260600D01*
X3708400D02*
X3733800Y2286000D01*
X3759200D01*
X3733800Y2311400D01*
X3759200Y2336800D01*
X3733800D01*
X3708400Y2362200D01*
X3683000Y2336800D01*
X3657600D01*
X3683000Y2311400D01*
X3657600Y2286000D01*
X3683000D01*
X3708400Y2260600D01*
X3810000Y2184400D02*
X3835400Y2209800D01*
X3860800D01*
X3835400Y2235200D01*
X3860800Y2260600D01*
X3835400D01*
X3810000Y2286000D01*
X3784600Y2260600D01*
X3759200D01*
X3784600Y2235200D01*
X3759200Y2209800D01*
X3784600D01*
X3810000Y2184400D01*
X3708400D02*
X3733800Y2209800D01*
X3759200D01*
X3733800Y2235200D01*
X3759200Y2260600D01*
X3733800D01*
X3708400Y2286000D01*
X3683000Y2260600D01*
X3657600D01*
X3683000Y2235200D01*
X3657600Y2209800D01*
X3683000D01*
X3708400Y2184400D01*
X3810000Y2108200D02*
X3835400Y2133600D01*
X3860800D01*
X3835400Y2159000D01*
X3860800Y2184400D01*
X3835400D01*
X3810000Y2209800D01*
X3784600Y2184400D01*
X3759200D01*
X3784600Y2159000D01*
X3759200Y2133600D01*
X3784600D01*
X3810000Y2108200D01*
X3708400D02*
X3733800Y2133600D01*
X3759200D01*
X3733800Y2159000D01*
X3759200Y2184400D01*
X3733800D01*
X3708400Y2209800D01*
X3683000Y2184400D01*
X3657600D01*
X3683000Y2159000D01*
X3657600Y2133600D01*
X3683000D01*
X3708400Y2108200D01*
Y2032000D02*
X3733800Y2057400D01*
X3759200D01*
X3733800Y2082800D01*
X3759200Y2108200D01*
X3733800D01*
X3708400Y2133600D01*
X3683000Y2108200D01*
X3657600D01*
X3683000Y2082800D01*
X3657600Y2057400D01*
X3683000D01*
X3708400Y2032000D01*
X3810000D02*
X3835400Y2057400D01*
X3860800D01*
X3835400Y2082800D01*
X3860800Y2108200D01*
X3835400D01*
X3810000Y2133600D01*
X3784600Y2108200D01*
X3759200D01*
X3784600Y2082800D01*
X3759200Y2057400D01*
X3784600D01*
X3810000Y2032000D01*
X6667500Y2235200D02*
X6692900Y2260600D01*
X6718300D01*
X6692900Y2286000D01*
X6718300Y2311400D01*
X6692900D01*
X6667500Y2336800D01*
X6642100Y2311400D01*
X6616700D01*
X6642100Y2286000D01*
X6616700Y2260600D01*
X6642100D01*
X6667500Y2235200D01*
Y2324100D02*
X6692900Y2349500D01*
X6718300D01*
X6692900Y2374900D01*
X6718300Y2400300D01*
X6692900D01*
X6667500Y2425700D01*
X6642100Y2400300D01*
X6616700D01*
X6642100Y2374900D01*
X6616700Y2349500D01*
X6642100D01*
X6667500Y2324100D01*
Y2413000D02*
X6692900Y2438400D01*
X6718300D01*
X6692900Y2463800D01*
X6718300Y2489200D01*
X6692900D01*
X6667500Y2514600D01*
X6642100Y2489200D01*
X6616700D01*
X6642100Y2463800D01*
X6616700Y2438400D01*
X6642100D01*
X6667500Y2413000D01*
Y2501900D02*
X6692900Y2527300D01*
X6718300D01*
X6692900Y2552700D01*
X6718300Y2578100D01*
X6692900D01*
X6667500Y2603500D01*
X6642100Y2578100D01*
X6616700D01*
X6642100Y2552700D01*
X6616700Y2527300D01*
X6642100D01*
X6667500Y2501900D01*
Y2590800D02*
X6692900Y2616200D01*
X6718300D01*
X6692900Y2641600D01*
X6718300Y2667000D01*
X6692900D01*
X6667500Y2692400D01*
X6642100Y2667000D01*
X6616700D01*
X6642100Y2641600D01*
X6616700Y2616200D01*
X6642100D01*
X6667500Y2590800D01*
X6591300Y2184400D02*
X6616700Y2209800D01*
X6642100D01*
X6616700Y2235200D01*
X6642100Y2260600D01*
X6616700D01*
X6591300Y2286000D01*
X6565900Y2260600D01*
X6540500D01*
X6565900Y2235200D01*
X6540500Y2209800D01*
X6565900D01*
X6591300Y2184400D01*
Y2273300D02*
X6616700Y2298700D01*
X6642100D01*
X6616700Y2324100D01*
X6642100Y2349500D01*
X6616700D01*
X6591300Y2374900D01*
X6565900Y2349500D01*
X6540500D01*
X6565900Y2324100D01*
X6540500Y2298700D01*
X6565900D01*
X6591300Y2273300D01*
Y2362200D02*
X6616700Y2387600D01*
X6642100D01*
X6616700Y2413000D01*
X6642100Y2438400D01*
X6616700D01*
X6591300Y2463800D01*
X6565900Y2438400D01*
X6540500D01*
X6565900Y2413000D01*
X6540500Y2387600D01*
X6565900D01*
X6591300Y2362200D01*
Y2451100D02*
X6616700Y2476500D01*
X6642100D01*
X6616700Y2501900D01*
X6642100Y2527300D01*
X6616700D01*
X6591300Y2552700D01*
X6565900Y2527300D01*
X6540500D01*
X6565900Y2501900D01*
X6540500Y2476500D01*
X6565900D01*
X6591300Y2451100D01*
Y2540000D02*
X6616700Y2565400D01*
X6642100D01*
X6616700Y2590800D01*
X6642100Y2616200D01*
X6616700D01*
X6591300Y2641600D01*
X6565900Y2616200D01*
X6540500D01*
X6565900Y2590800D01*
X6540500Y2565400D01*
X6565900D01*
X6591300Y2540000D01*
X6515100Y2222500D02*
X6540500Y2247900D01*
X6565900D01*
X6540500Y2273300D01*
X6565900Y2298700D01*
X6540500D01*
X6515100Y2324100D01*
X6489700Y2298700D01*
X6464300D01*
X6489700Y2273300D01*
X6464300Y2247900D01*
X6489700D01*
X6515100Y2222500D01*
Y2311400D02*
X6540500Y2336800D01*
X6565900D01*
X6540500Y2362200D01*
X6565900Y2387600D01*
X6540500D01*
X6515100Y2413000D01*
X6489700Y2387600D01*
X6464300D01*
X6489700Y2362200D01*
X6464300Y2336800D01*
X6489700D01*
X6515100Y2311400D01*
Y2400300D02*
X6540500Y2425700D01*
X6565900D01*
X6540500Y2451100D01*
X6565900Y2476500D01*
X6540500D01*
X6515100Y2501900D01*
X6489700Y2476500D01*
X6464300D01*
X6489700Y2451100D01*
X6464300Y2425700D01*
X6489700D01*
X6515100Y2400300D01*
Y2489200D02*
X6540500Y2514600D01*
X6565900D01*
X6540500Y2540000D01*
X6565900Y2565400D01*
X6540500D01*
X6515100Y2590800D01*
X6489700Y2565400D01*
X6464300D01*
X6489700Y2540000D01*
X6464300Y2514600D01*
X6489700D01*
X6515100Y2489200D01*
Y2578100D02*
X6540500Y2603500D01*
X6565900D01*
X6540500Y2628900D01*
X6565900Y2654300D01*
X6540500D01*
X6515100Y2679700D01*
X6489700Y2654300D01*
X6464300D01*
X6489700Y2628900D01*
X6464300Y2603500D01*
X6489700D01*
X6515100Y2578100D01*
X6438900Y2540000D02*
X6464300Y2565400D01*
X6489700D01*
X6464300Y2590800D01*
X6489700Y2616200D01*
X6464300D01*
X6438900Y2641600D01*
X6413500Y2616200D01*
X6388100D01*
X6413500Y2590800D01*
X6388100Y2565400D01*
X6413500D01*
X6438900Y2540000D01*
Y2451100D02*
X6464300Y2476500D01*
X6489700D01*
X6464300Y2501900D01*
X6489700Y2527300D01*
X6464300D01*
X6438900Y2552700D01*
X6413500Y2527300D01*
X6388100D01*
X6413500Y2501900D01*
X6388100Y2476500D01*
X6413500D01*
X6438900Y2451100D01*
Y2362200D02*
X6464300Y2387600D01*
X6489700D01*
X6464300Y2413000D01*
X6489700Y2438400D01*
X6464300D01*
X6438900Y2463800D01*
X6413500Y2438400D01*
X6388100D01*
X6413500Y2413000D01*
X6388100Y2387600D01*
X6413500D01*
X6438900Y2362200D01*
Y2273300D02*
X6464300Y2298700D01*
X6489700D01*
X6464300Y2324100D01*
X6489700Y2349500D01*
X6464300D01*
X6438900Y2374900D01*
X6413500Y2349500D01*
X6388100D01*
X6413500Y2324100D01*
X6388100Y2298700D01*
X6413500D01*
X6438900Y2273300D01*
Y2184400D02*
X6464300Y2209800D01*
X6489700D01*
X6464300Y2235200D01*
X6489700Y2260600D01*
X6464300D01*
X6438900Y2286000D01*
X6413500Y2260600D01*
X6388100D01*
X6413500Y2235200D01*
X6388100Y2209800D01*
X6413500D01*
X6438900Y2184400D01*
X6362700Y2235200D02*
X6388100Y2260600D01*
X6413500D01*
X6388100Y2286000D01*
X6413500Y2311400D01*
X6388100D01*
X6362700Y2336800D01*
X6337300Y2311400D01*
X6311900D01*
X6337300Y2286000D01*
X6311900Y2260600D01*
X6337300D01*
X6362700Y2235200D01*
Y2324100D02*
X6388100Y2349500D01*
X6413500D01*
X6388100Y2374900D01*
X6413500Y2400300D01*
X6388100D01*
X6362700Y2425700D01*
X6337300Y2400300D01*
X6311900D01*
X6337300Y2374900D01*
X6311900Y2349500D01*
X6337300D01*
X6362700Y2324100D01*
Y2413000D02*
X6388100Y2438400D01*
X6413500D01*
X6388100Y2463800D01*
X6413500Y2489200D01*
X6388100D01*
X6362700Y2514600D01*
X6337300Y2489200D01*
X6311900D01*
X6337300Y2463800D01*
X6311900Y2438400D01*
X6337300D01*
X6362700Y2413000D01*
Y2501900D02*
X6388100Y2527300D01*
X6413500D01*
X6388100Y2552700D01*
X6413500Y2578100D01*
X6388100D01*
X6362700Y2603500D01*
X6337300Y2578100D01*
X6311900D01*
X6337300Y2552700D01*
X6311900Y2527300D01*
X6337300D01*
X6362700Y2501900D01*
Y2590800D02*
X6388100Y2616200D01*
X6413500D01*
X6388100Y2641600D01*
X6413500Y2667000D01*
X6388100D01*
X6362700Y2692400D01*
X6337300Y2667000D01*
X6311900D01*
X6337300Y2641600D01*
X6311900Y2616200D01*
X6337300D01*
X6362700Y2590800D01*
X4856480Y1376680D02*
X4881880Y1402080D01*
X4907280D01*
X4881880Y1427480D01*
X4907280Y1452880D01*
X4881880D01*
X4856480Y1478280D01*
X4831080Y1452880D01*
X4805680D01*
X4831080Y1427480D01*
X4805680Y1402080D01*
X4831080D01*
X4856480Y1376680D01*
X4902200Y1465580D02*
X4927600Y1490980D01*
X4953000D01*
X4927600Y1516380D01*
X4953000Y1541780D01*
X4927600D01*
X4902200Y1567180D01*
X4876800Y1541780D01*
X4851400D01*
X4876800Y1516380D01*
X4851400Y1490980D01*
X4876800D01*
X4902200Y1465580D01*
X1858010Y1211580D02*
X1883410Y1236980D01*
X1908810D01*
X1883410Y1262380D01*
X1908810Y1287780D01*
X1883410D01*
X1858010Y1313180D01*
X1832610Y1287780D01*
X1807210D01*
X1832610Y1262380D01*
X1807210Y1236980D01*
X1832610D01*
X1858010Y1211580D01*
X1784350D02*
X1809750Y1236980D01*
X1835150D01*
X1809750Y1262380D01*
X1835150Y1287780D01*
X1809750D01*
X1784350Y1313180D01*
X1758950Y1287780D01*
X1733550D01*
X1758950Y1262380D01*
X1733550Y1236980D01*
X1758950D01*
X1784350Y1211580D01*
X5675630Y500380D02*
X5701030Y525780D01*
X5726430D01*
X5701030Y551180D01*
X5726430Y576580D01*
X5701030D01*
X5675630Y601980D01*
X5650230Y576580D01*
X5624830D01*
X5650230Y551180D01*
X5624830Y525780D01*
X5650230D01*
X5675630Y500380D01*
X5601970D02*
X5627370Y525780D01*
X5652770D01*
X5627370Y551180D01*
X5652770Y576580D01*
X5627370D01*
X5601970Y601980D01*
X5576570Y576580D01*
X5551170D01*
X5576570Y551180D01*
X5551170Y525780D01*
X5576570D01*
X5601970Y500380D01*
X5196840Y1610360D02*
X5222240Y1635760D01*
X5247640D01*
X5222240Y1661160D01*
X5247640Y1686560D01*
X5222240D01*
X5196840Y1711960D01*
X5171440Y1686560D01*
X5146040D01*
X5171440Y1661160D01*
X5146040Y1635760D01*
X5171440D01*
X5196840Y1610360D01*
X4864100Y546100D02*
X4889500Y571500D01*
X4914900D01*
X4889500Y596900D01*
X4914900Y622300D01*
X4889500D01*
X4864100Y647700D01*
X4838700Y622300D01*
X4813300D01*
X4838700Y596900D01*
X4813300Y571500D01*
X4838700D01*
X4864100Y546100D01*
X5438140Y881380D02*
X5463540Y906780D01*
X5488940D01*
X5463540Y932180D01*
X5488940Y957580D01*
X5463540D01*
X5438140Y982980D01*
X5412740Y957580D01*
X5387340D01*
X5412740Y932180D01*
X5387340Y906780D01*
X5412740D01*
X5438140Y881380D01*
X5506720Y957678D02*
X5532120Y983078D01*
X5557520D01*
X5532120Y1008478D01*
X5557520Y1033878D01*
X5532120D01*
X5506720Y1059278D01*
X5481320Y1033878D01*
X5455920D01*
X5481320Y1008478D01*
X5455920Y983078D01*
X5481320D01*
X5506720Y957678D01*
X6250940Y731890D02*
X6276340Y757290D01*
X6301740D01*
X6276340Y782690D01*
X6301740Y808090D01*
X6276340D01*
X6250940Y833490D01*
X6225540Y808090D01*
X6200140D01*
X6225540Y782690D01*
X6200140Y757290D01*
X6225540D01*
X6250940Y731890D01*
X5948680Y734060D02*
X5974080Y759460D01*
X5999480D01*
X5974080Y784860D01*
X5999480Y810260D01*
X5974080D01*
X5948680Y835660D01*
X5923280Y810260D01*
X5897880D01*
X5923280Y784860D01*
X5897880Y759460D01*
X5923280D01*
X5948680Y734060D01*
X5466371Y1489685D02*
X5491771Y1515085D01*
X5517171D01*
X5491771Y1540485D01*
X5517171Y1565885D01*
X5491771D01*
X5466371Y1591285D01*
X5440971Y1565885D01*
X5415571D01*
X5440971Y1540485D01*
X5415571Y1515085D01*
X5440971D01*
X5466371Y1489685D01*
X5232400Y1473200D02*
X5257800Y1498600D01*
X5283200D01*
X5257800Y1524000D01*
X5283200Y1549400D01*
X5257800D01*
X5232400Y1574800D01*
X5207000Y1549400D01*
X5181600D01*
X5207000Y1524000D01*
X5181600Y1498600D01*
X5207000D01*
X5232400Y1473200D01*
X6070600Y1094740D02*
X6096000Y1120140D01*
X6121400D01*
X6096000Y1145540D01*
X6121400Y1170940D01*
X6096000D01*
X6070600Y1196340D01*
X6045200Y1170940D01*
X6019800D01*
X6045200Y1145540D01*
X6019800Y1120140D01*
X6045200D01*
X6070600Y1094740D01*
X5029200Y1219200D02*
X5054600Y1244600D01*
X5080000D01*
X5054600Y1270000D01*
X5080000Y1295400D01*
X5054600D01*
X5029200Y1320800D01*
X5003800Y1295400D01*
X4978400D01*
X5003800Y1270000D01*
X4978400Y1244600D01*
X5003800D01*
X5029200Y1219200D01*
X4546600Y406400D02*
X4572000Y431800D01*
X4597400D01*
X4572000Y457200D01*
X4597400Y482600D01*
X4572000D01*
X4546600Y508000D01*
X4521200Y482600D01*
X4495800D01*
X4521200Y457200D01*
X4495800Y431800D01*
X4521200D01*
X4546600Y406400D01*
X4603000Y1143000D02*
X4628400Y1168400D01*
X4653800D01*
X4628400Y1193800D01*
X4653800Y1219200D01*
X4628400D01*
X4603000Y1244600D01*
X4577600Y1219200D01*
X4552200D01*
X4577600Y1193800D01*
X4552200Y1168400D01*
X4577600D01*
X4603000Y1143000D01*
D128*
X5656000Y1270000D02*
G03*
X5656000Y1270000I-50800J0D01*
G01*
X5768000D02*
G03*
X5768000Y1270000I-50800J0D01*
G01*
X5520000D02*
G03*
X5520000Y1270000I-50800J0D01*
G01*
X5408000D02*
G03*
X5408000Y1270000I-50800J0D01*
G01*
X5656000Y1190000D02*
G03*
X5656000Y1190000I-50800J0D01*
G01*
Y1350000D02*
G03*
X5656000Y1350000I-50800J0D01*
G01*
X5520000D02*
G03*
X5520000Y1350000I-50800J0D01*
G01*
Y1190000D02*
G03*
X5520000Y1190000I-50800J0D01*
G01*
%TF.MD5,9095b750af8f800dfc4581a3b0284011*%
M02*
