%TF.GenerationSoftware,Altium Limited,Altium Designer,23.0.1 (38)*%
G04 Layer_Color=8388736*
%FSLAX45Y45*%
%MOMM*%
%TF.SameCoordinates,3EE063B3-4F93-4FDD-BE50-ED7C6B7A8C7B*%
%TF.FilePolarity,Negative*%
%TF.FileFunction,Soldermask,Top*%
%TF.Part,Single*%
G01*
G75*
%TA.AperFunction,SMDPad,CuDef*%
%ADD30C,1.00000*%
%TA.AperFunction,ViaPad*%
%ADD61C,0.60960*%
%ADD62C,0.40000*%
%TA.AperFunction,SMDPad,CuDef*%
G04:AMPARAMS|DCode=69|XSize=0.6132mm|YSize=1.0232mm|CornerRadius=0mm|HoleSize=0mm|Usage=FLASHONLY|Rotation=270.000|XOffset=0mm|YOffset=0mm|HoleType=Round|Shape=RoundedRectangle|*
%AMROUNDEDRECTD69*
21,1,0.61320,1.02320,0,0,270.0*
21,1,0.61320,1.02320,0,0,270.0*
1,1,0.00000,-0.51160,-0.30660*
1,1,0.00000,-0.51160,0.30660*
1,1,0.00000,0.51160,0.30660*
1,1,0.00000,0.51160,-0.30660*
%
%ADD69ROUNDEDRECTD69*%
G04:AMPARAMS|DCode=70|XSize=0.7982mm|YSize=0.8132mm|CornerRadius=0mm|HoleSize=0mm|Usage=FLASHONLY|Rotation=270.000|XOffset=0mm|YOffset=0mm|HoleType=Round|Shape=RoundedRectangle|*
%AMROUNDEDRECTD70*
21,1,0.79820,0.81320,0,0,270.0*
21,1,0.79820,0.81320,0,0,270.0*
1,1,0.00000,-0.40660,-0.39910*
1,1,0.00000,-0.40660,0.39910*
1,1,0.00000,0.40660,0.39910*
1,1,0.00000,0.40660,-0.39910*
%
%ADD70ROUNDEDRECTD70*%
G04:AMPARAMS|DCode=71|XSize=4.2642mm|YSize=3.8332mm|CornerRadius=0mm|HoleSize=0mm|Usage=FLASHONLY|Rotation=270.000|XOffset=0mm|YOffset=0mm|HoleType=Round|Shape=RoundedRectangle|*
%AMROUNDEDRECTD71*
21,1,4.26420,3.83320,0,0,270.0*
21,1,4.26420,3.83320,0,0,270.0*
1,1,0.00000,-1.91660,-2.13210*
1,1,0.00000,-1.91660,2.13210*
1,1,0.00000,1.91660,2.13210*
1,1,0.00000,1.91660,-2.13210*
%
%ADD71ROUNDEDRECTD71*%
G04:AMPARAMS|DCode=72|XSize=5.2032mm|YSize=0.7132mm|CornerRadius=0.1271mm|HoleSize=0mm|Usage=FLASHONLY|Rotation=270.000|XOffset=0mm|YOffset=0mm|HoleType=Round|Shape=RoundedRectangle|*
%AMROUNDEDRECTD72*
21,1,5.20320,0.45900,0,0,270.0*
21,1,4.94900,0.71320,0,0,270.0*
1,1,0.25420,-0.22950,-2.47450*
1,1,0.25420,-0.22950,2.47450*
1,1,0.25420,0.22950,2.47450*
1,1,0.25420,0.22950,-2.47450*
%
%ADD72ROUNDEDRECTD72*%
%ADD73R,4.33100X2.34980*%
%ADD74R,0.85120X0.39400*%
%ADD75R,0.39400X0.85120*%
%ADD76R,2.70320X5.60320*%
%ADD77R,1.42320X1.11320*%
%ADD78R,3.70320X5.60320*%
%ADD79R,0.90320X1.10320*%
%ADD80R,1.45320X5.85320*%
%ADD81R,4.61320X3.74820*%
%ADD82R,3.00820X0.76820*%
%ADD83R,0.80320X1.70320*%
%ADD84R,0.80320X1.60320*%
%TA.AperFunction,ComponentPad*%
G04:AMPARAMS|DCode=85|XSize=2.7032mm|YSize=2.7032mm|CornerRadius=0.7266mm|HoleSize=0mm|Usage=FLASHONLY|Rotation=270.000|XOffset=0mm|YOffset=0mm|HoleType=Round|Shape=RoundedRectangle|*
%AMROUNDEDRECTD85*
21,1,2.70320,1.25000,0,0,270.0*
21,1,1.25000,2.70320,0,0,270.0*
1,1,1.45320,-0.62500,-0.62500*
1,1,1.45320,-0.62500,0.62500*
1,1,1.45320,0.62500,0.62500*
1,1,1.45320,0.62500,-0.62500*
%
%ADD85ROUNDEDRECTD85*%
%ADD86C,2.00320*%
%ADD87C,5.20320*%
%TA.AperFunction,ViaPad*%
%ADD88C,0.81280*%
G36*
X4506789Y2706795D02*
X4508095Y2706535D01*
X4509356Y2706107D01*
X4510551Y2705518D01*
X4511658Y2704778D01*
X4512659Y2703900D01*
X4527600Y2688960D01*
X4528478Y2687958D01*
X4529218Y2686851D01*
X4529807Y2685656D01*
X4530235Y2684395D01*
X4530495Y2683089D01*
X4530582Y2681760D01*
Y2601700D01*
X4530495Y2600371D01*
X4530235Y2599065D01*
X4529807Y2597804D01*
X4529218Y2596609D01*
X4528478Y2595502D01*
X4527600Y2594501D01*
X4526599Y2593622D01*
X4525491Y2592883D01*
X4524297Y2592293D01*
X4523035Y2591865D01*
X4521729Y2591605D01*
X4520400Y2591518D01*
X4420400D01*
X4419071Y2591605D01*
X4417765Y2591865D01*
X4416503Y2592293D01*
X4415309Y2592883D01*
X4414201Y2593622D01*
X4413200Y2594501D01*
X4412322Y2595502D01*
X4411582Y2596609D01*
X4410993Y2597804D01*
X4410565Y2599065D01*
X4410305Y2600371D01*
X4410218Y2601700D01*
X4410218Y2681760D01*
X4410305Y2683089D01*
X4410565Y2684395D01*
X4410993Y2685657D01*
X4411582Y2686851D01*
X4412322Y2687958D01*
X4413200Y2688960D01*
X4428140Y2703900D01*
X4429142Y2704778D01*
X4430249Y2705518D01*
X4431444Y2706107D01*
X4432705Y2706535D01*
X4434011Y2706795D01*
X4435340Y2706882D01*
X4505460D01*
X4506789Y2706795D01*
D02*
G37*
G36*
X4354389Y2706795D02*
X4355695Y2706535D01*
X4356956Y2706107D01*
X4358151Y2705518D01*
X4359258Y2704778D01*
X4360260Y2703900D01*
X4375200Y2688960D01*
X4376078Y2687958D01*
X4376818Y2686851D01*
X4377407Y2685657D01*
X4377835Y2684395D01*
X4378095Y2683089D01*
X4378182Y2681760D01*
Y2601700D01*
X4378095Y2600371D01*
X4377835Y2599065D01*
X4377407Y2597804D01*
X4376818Y2596609D01*
X4376078Y2595502D01*
X4375200Y2594501D01*
X4374199Y2593622D01*
X4373091Y2592883D01*
X4371897Y2592293D01*
X4370635Y2591865D01*
X4369329Y2591605D01*
X4368000Y2591518D01*
X4268000D01*
X4266671Y2591605D01*
X4265365Y2591865D01*
X4264103Y2592293D01*
X4262909Y2592883D01*
X4261801Y2593622D01*
X4260800Y2594501D01*
X4259922Y2595502D01*
X4259182Y2596609D01*
X4258593Y2597804D01*
X4258165Y2599065D01*
X4257905Y2600371D01*
X4257818Y2601700D01*
Y2681760D01*
X4257905Y2683089D01*
X4258165Y2684395D01*
X4258593Y2685657D01*
X4259182Y2686851D01*
X4259922Y2687958D01*
X4260800Y2688960D01*
X4275741Y2703900D01*
X4276742Y2704778D01*
X4277850Y2705518D01*
X4279044Y2706107D01*
X4280305Y2706535D01*
X4281611Y2706795D01*
X4282940Y2706882D01*
X4353060D01*
X4354389Y2706795D01*
D02*
G37*
G36*
X4100389Y2706795D02*
X4101695Y2706535D01*
X4102956Y2706107D01*
X4104151Y2705518D01*
X4105258Y2704778D01*
X4106259Y2703900D01*
X4121200Y2688960D01*
X4122078Y2687958D01*
X4122818Y2686851D01*
X4123407Y2685656D01*
X4123835Y2684395D01*
X4124095Y2683089D01*
X4124182Y2681760D01*
Y2601700D01*
X4124095Y2600371D01*
X4123835Y2599065D01*
X4123407Y2597804D01*
X4122818Y2596609D01*
X4122078Y2595502D01*
X4121200Y2594501D01*
X4120199Y2593622D01*
X4119091Y2592883D01*
X4117897Y2592293D01*
X4116635Y2591865D01*
X4115329Y2591605D01*
X4114000Y2591518D01*
X4014000D01*
X4012671Y2591605D01*
X4011365Y2591865D01*
X4010103Y2592293D01*
X4008909Y2592883D01*
X4007801Y2593622D01*
X4006800Y2594501D01*
X4005922Y2595502D01*
X4005182Y2596609D01*
X4004593Y2597804D01*
X4004165Y2599065D01*
X4003905Y2600371D01*
X4003818Y2601700D01*
X4003818Y2681760D01*
X4003905Y2683089D01*
X4004165Y2684395D01*
X4004593Y2685657D01*
X4005182Y2686851D01*
X4005922Y2687958D01*
X4006800Y2688960D01*
X4021740Y2703900D01*
X4022742Y2704778D01*
X4023849Y2705518D01*
X4025044Y2706107D01*
X4026305Y2706535D01*
X4027611Y2706795D01*
X4028940Y2706882D01*
X4099060D01*
X4100389Y2706795D01*
D02*
G37*
G36*
X3947989Y2706795D02*
X3949295Y2706535D01*
X3950556Y2706107D01*
X3951751Y2705518D01*
X3952858Y2704778D01*
X3953860Y2703900D01*
X3968800Y2688960D01*
X3969678Y2687958D01*
X3970418Y2686851D01*
X3971007Y2685657D01*
X3971435Y2684395D01*
X3971695Y2683089D01*
X3971782Y2681760D01*
Y2601700D01*
X3971695Y2600371D01*
X3971435Y2599065D01*
X3971007Y2597804D01*
X3970418Y2596609D01*
X3969678Y2595502D01*
X3968800Y2594501D01*
X3967799Y2593622D01*
X3966691Y2592883D01*
X3965497Y2592293D01*
X3964235Y2591865D01*
X3962929Y2591605D01*
X3961600Y2591518D01*
X3861600D01*
X3860271Y2591605D01*
X3858965Y2591865D01*
X3857703Y2592293D01*
X3856509Y2592883D01*
X3855401Y2593622D01*
X3854400Y2594501D01*
X3853522Y2595502D01*
X3852782Y2596609D01*
X3852193Y2597804D01*
X3851765Y2599065D01*
X3851505Y2600371D01*
X3851418Y2601700D01*
Y2681760D01*
X3851505Y2683089D01*
X3851765Y2684395D01*
X3852193Y2685657D01*
X3852782Y2686851D01*
X3853522Y2687958D01*
X3854400Y2688960D01*
X3869341Y2703900D01*
X3870342Y2704778D01*
X3871450Y2705518D01*
X3872644Y2706107D01*
X3873905Y2706535D01*
X3875211Y2706795D01*
X3876540Y2706882D01*
X3946660D01*
X3947989Y2706795D01*
D02*
G37*
G36*
X3795589D02*
X3796895Y2706535D01*
X3798156Y2706107D01*
X3799351Y2705518D01*
X3800458Y2704778D01*
X3801460Y2703900D01*
X3816400Y2688960D01*
X3817278Y2687958D01*
X3818018Y2686851D01*
X3818607Y2685657D01*
X3819035Y2684395D01*
X3819295Y2683089D01*
X3819382Y2681760D01*
Y2601700D01*
X3819295Y2600371D01*
X3819035Y2599065D01*
X3818607Y2597804D01*
X3818018Y2596609D01*
X3817278Y2595502D01*
X3816400Y2594501D01*
X3815399Y2593622D01*
X3814291Y2592883D01*
X3813097Y2592293D01*
X3811835Y2591865D01*
X3810529Y2591605D01*
X3809200Y2591518D01*
X3709200D01*
X3707871Y2591605D01*
X3706565Y2591865D01*
X3705303Y2592293D01*
X3704109Y2592883D01*
X3703001Y2593622D01*
X3702000Y2594501D01*
X3701122Y2595502D01*
X3700382Y2596609D01*
X3699793Y2597804D01*
X3699365Y2599065D01*
X3699105Y2600371D01*
X3699018Y2601700D01*
Y2681760D01*
X3699105Y2683089D01*
X3699365Y2684395D01*
X3699793Y2685657D01*
X3700382Y2686851D01*
X3701122Y2687958D01*
X3702000Y2688960D01*
X3716941Y2703900D01*
X3717942Y2704778D01*
X3719050Y2705518D01*
X3720244Y2706107D01*
X3721505Y2706535D01*
X3722811Y2706795D01*
X3724140Y2706882D01*
X3794260D01*
X3795589Y2706795D01*
D02*
G37*
G36*
X3589029Y2487695D02*
X3590335Y2487435D01*
X3591596Y2487007D01*
X3592790Y2486418D01*
X3593158Y2486173D01*
X3593898Y2485678D01*
X3594366Y2485268D01*
X3594899Y2484800D01*
X3620700Y2459000D01*
X3621578Y2457999D01*
X3622318Y2456891D01*
X3622907Y2455697D01*
X3623335Y2454436D01*
X3623595Y2453129D01*
X3623682Y2451800D01*
X3623682Y2323400D01*
X3623595Y2322071D01*
X3623335Y2320765D01*
X3622907Y2319503D01*
X3622318Y2318309D01*
X3621578Y2317202D01*
X3620700Y2316200D01*
X3594900Y2290400D01*
X3593898Y2289522D01*
X3592791Y2288782D01*
X3591596Y2288193D01*
X3590335Y2287765D01*
X3589029Y2287505D01*
X3587700Y2287418D01*
X3498500D01*
X3497171Y2287505D01*
X3495865Y2287765D01*
X3494604Y2288193D01*
X3493409Y2288782D01*
X3492302Y2289522D01*
X3491300Y2290400D01*
X3490422Y2291402D01*
X3489682Y2292509D01*
X3489093Y2293704D01*
X3488665Y2294965D01*
X3488405Y2296271D01*
X3488318Y2297600D01*
Y2477600D01*
X3488405Y2478929D01*
X3488665Y2480235D01*
X3489093Y2481496D01*
X3489682Y2482691D01*
X3490422Y2483798D01*
X3491300Y2484800D01*
X3492302Y2485678D01*
X3493409Y2486418D01*
X3494604Y2487007D01*
X3495865Y2487435D01*
X3497171Y2487695D01*
X3498500Y2487782D01*
X3587699Y2487782D01*
D01*
D01*
X3587700D01*
X3589029Y2487695D01*
D02*
G37*
G36*
X4521729Y2546795D02*
X4523035Y2546535D01*
X4524297Y2546107D01*
X4525491Y2545518D01*
X4526599Y2544778D01*
X4527600Y2543900D01*
X4528478Y2542898D01*
X4529218Y2541791D01*
X4529807Y2540596D01*
X4530235Y2539335D01*
X4530495Y2538029D01*
X4530582Y2536700D01*
Y2456640D01*
X4530495Y2455311D01*
X4530235Y2454005D01*
X4529807Y2452744D01*
X4529218Y2451549D01*
X4528478Y2450442D01*
X4527600Y2449441D01*
X4512659Y2434500D01*
X4511658Y2433622D01*
X4510550Y2432882D01*
X4509356Y2432293D01*
X4508095Y2431865D01*
X4506789Y2431605D01*
X4505460Y2431518D01*
X4435340D01*
X4434011Y2431605D01*
X4432705Y2431865D01*
X4431444Y2432293D01*
X4430249Y2432882D01*
X4429142Y2433622D01*
X4428140Y2434500D01*
X4413200Y2449441D01*
X4412322Y2450442D01*
X4411582Y2451549D01*
X4410993Y2452744D01*
X4410565Y2454005D01*
X4410305Y2455311D01*
X4410218Y2456640D01*
Y2536700D01*
X4410305Y2538029D01*
X4410565Y2539335D01*
X4410993Y2540596D01*
X4411582Y2541791D01*
X4412322Y2542898D01*
X4413200Y2543900D01*
X4414201Y2544778D01*
X4415309Y2545518D01*
X4416503Y2546107D01*
X4417765Y2546535D01*
X4419071Y2546795D01*
X4420400Y2546882D01*
X4520400D01*
X4521729Y2546795D01*
D02*
G37*
G36*
X4115329D02*
X4116635Y2546535D01*
X4117897Y2546107D01*
X4119091Y2545518D01*
X4120199Y2544778D01*
X4121200Y2543900D01*
X4122078Y2542898D01*
X4122818Y2541791D01*
X4123407Y2540596D01*
X4123835Y2539335D01*
X4124095Y2538029D01*
X4124182Y2536700D01*
Y2456640D01*
X4124095Y2455311D01*
X4123835Y2454005D01*
X4123407Y2452744D01*
X4122818Y2451549D01*
X4122078Y2450442D01*
X4121200Y2449441D01*
X4106259Y2434500D01*
X4105258Y2433622D01*
X4104150Y2432882D01*
X4102956Y2432293D01*
X4101695Y2431865D01*
X4100389Y2431605D01*
X4099060Y2431518D01*
X4028940D01*
X4027611Y2431605D01*
X4026305Y2431865D01*
X4025044Y2432293D01*
X4023849Y2432882D01*
X4022742Y2433622D01*
X4021740Y2434500D01*
X4006800Y2449441D01*
X4005922Y2450442D01*
X4005182Y2451549D01*
X4004593Y2452744D01*
X4004165Y2454005D01*
X4003905Y2455311D01*
X4003818Y2456640D01*
Y2536700D01*
X4003905Y2538029D01*
X4004165Y2539335D01*
X4004593Y2540596D01*
X4005182Y2541791D01*
X4005922Y2542898D01*
X4006800Y2543900D01*
X4007801Y2544778D01*
X4008909Y2545518D01*
X4010103Y2546107D01*
X4011365Y2546535D01*
X4012671Y2546795D01*
X4014000Y2546882D01*
X4114000D01*
X4115329Y2546795D01*
D02*
G37*
G36*
X4369329D02*
X4370635Y2546535D01*
X4371897Y2546107D01*
X4373091Y2545518D01*
X4374199Y2544778D01*
X4375200Y2543900D01*
X4376078Y2542898D01*
X4376818Y2541791D01*
X4377407Y2540596D01*
X4377835Y2539335D01*
X4378095Y2538029D01*
X4378182Y2536700D01*
X4378182Y2456640D01*
X4378095Y2455311D01*
X4377835Y2454005D01*
X4377407Y2452744D01*
X4376818Y2451549D01*
X4376078Y2450442D01*
X4375200Y2449441D01*
X4360260Y2434500D01*
X4359258Y2433622D01*
X4358151Y2432882D01*
X4356956Y2432293D01*
X4355695Y2431865D01*
X4354389Y2431605D01*
X4353060Y2431518D01*
X4282940D01*
X4281611Y2431605D01*
X4280305Y2431865D01*
X4279044Y2432293D01*
X4277849Y2432882D01*
X4276742Y2433622D01*
X4275741Y2434500D01*
X4260800Y2449441D01*
X4259922Y2450442D01*
X4259182Y2451549D01*
X4258593Y2452744D01*
X4258165Y2454005D01*
X4257905Y2455311D01*
X4257818Y2456640D01*
Y2536700D01*
X4257905Y2538029D01*
X4258165Y2539335D01*
X4258593Y2540596D01*
X4259182Y2541791D01*
X4259922Y2542898D01*
X4260800Y2543900D01*
X4261801Y2544778D01*
X4262909Y2545518D01*
X4264103Y2546107D01*
X4265365Y2546535D01*
X4266671Y2546795D01*
X4268000Y2546882D01*
X4368000D01*
X4369329Y2546795D01*
D02*
G37*
G36*
X3962929D02*
X3964235Y2546535D01*
X3965497Y2546107D01*
X3966691Y2545518D01*
X3967799Y2544778D01*
X3968800Y2543900D01*
X3969678Y2542898D01*
X3970418Y2541791D01*
X3971007Y2540596D01*
X3971435Y2539335D01*
X3971695Y2538029D01*
X3971782Y2536700D01*
X3971782Y2456640D01*
X3971695Y2455311D01*
X3971435Y2454005D01*
X3971007Y2452744D01*
X3970418Y2451549D01*
X3969678Y2450442D01*
X3968800Y2449441D01*
X3953860Y2434500D01*
X3952858Y2433622D01*
X3951751Y2432882D01*
X3950556Y2432293D01*
X3949295Y2431865D01*
X3947989Y2431605D01*
X3946660Y2431518D01*
X3876540D01*
X3875211Y2431605D01*
X3873905Y2431865D01*
X3872644Y2432293D01*
X3871449Y2432882D01*
X3870342Y2433622D01*
X3869341Y2434500D01*
X3854400Y2449441D01*
X3853522Y2450442D01*
X3852782Y2451549D01*
X3852193Y2452744D01*
X3851765Y2454005D01*
X3851505Y2455311D01*
X3851418Y2456640D01*
Y2536700D01*
X3851505Y2538029D01*
X3851765Y2539335D01*
X3852193Y2540596D01*
X3852782Y2541791D01*
X3853522Y2542898D01*
X3854400Y2543900D01*
X3855401Y2544778D01*
X3856509Y2545518D01*
X3857703Y2546107D01*
X3858965Y2546535D01*
X3860271Y2546795D01*
X3861600Y2546882D01*
X3961600D01*
X3962929Y2546795D01*
D02*
G37*
G36*
X3810529D02*
X3811835Y2546535D01*
X3813097Y2546107D01*
X3814291Y2545518D01*
X3815399Y2544778D01*
X3816400Y2543900D01*
X3817278Y2542898D01*
X3818018Y2541791D01*
X3818607Y2540596D01*
X3819035Y2539335D01*
X3819295Y2538029D01*
X3819382Y2536700D01*
X3819382Y2456640D01*
X3819295Y2455311D01*
X3819035Y2454005D01*
X3818607Y2452744D01*
X3818018Y2451549D01*
X3817278Y2450442D01*
X3816400Y2449441D01*
X3801460Y2434500D01*
X3800458Y2433622D01*
X3799351Y2432882D01*
X3798156Y2432293D01*
X3796895Y2431865D01*
X3795589Y2431605D01*
X3794260Y2431518D01*
X3724140D01*
X3722811Y2431605D01*
X3721505Y2431865D01*
X3720244Y2432293D01*
X3719049Y2432882D01*
X3717942Y2433622D01*
X3716941Y2434500D01*
X3702000Y2449441D01*
X3701122Y2450442D01*
X3700382Y2451549D01*
X3699793Y2452744D01*
X3699365Y2454005D01*
X3699105Y2455311D01*
X3699018Y2456640D01*
Y2536700D01*
X3699105Y2538029D01*
X3699365Y2539335D01*
X3699793Y2540596D01*
X3700382Y2541791D01*
X3701122Y2542898D01*
X3702000Y2543900D01*
X3703001Y2544778D01*
X3704109Y2545518D01*
X3705303Y2546107D01*
X3706565Y2546535D01*
X3707871Y2546795D01*
X3709200Y2546882D01*
X3809200D01*
X3810529Y2546795D01*
D02*
G37*
G36*
X2216879Y2631995D02*
X2218185Y2631735D01*
X2219447Y2631307D01*
X2220641Y2630718D01*
X2221748Y2629978D01*
X2222750Y2629100D01*
X2241500Y2610350D01*
X2242378Y2609348D01*
X2243118Y2608241D01*
X2243707Y2607047D01*
X2244135Y2605785D01*
X2244395Y2604479D01*
X2244482Y2603150D01*
Y2400650D01*
X2244395Y2399321D01*
X2244135Y2398015D01*
X2243707Y2396753D01*
X2243118Y2395559D01*
X2242378Y2394452D01*
X2241500Y2393450D01*
X2222750Y2374700D01*
X2221748Y2373822D01*
X2220641Y2373082D01*
X2219447Y2372493D01*
X2218185Y2372065D01*
X2216879Y2371805D01*
X2215550Y2371718D01*
X2084300D01*
X2082971Y2371805D01*
X2081665Y2372065D01*
X2080404Y2372493D01*
X2079209Y2373082D01*
X2078102Y2373822D01*
X2077100Y2374700D01*
X2076222Y2375702D01*
X2075482Y2376809D01*
X2074893Y2378004D01*
X2074465Y2379265D01*
X2074205Y2380571D01*
X2074118Y2381900D01*
Y2621900D01*
X2074205Y2623229D01*
X2074465Y2624535D01*
X2074893Y2625796D01*
X2075482Y2626991D01*
X2076222Y2628098D01*
X2077100Y2629100D01*
X2078102Y2629978D01*
X2079209Y2630718D01*
X2080404Y2631307D01*
X2081665Y2631735D01*
X2082971Y2631995D01*
X2084300Y2632082D01*
X2215550D01*
X2216879Y2631995D01*
D02*
G37*
G36*
X1955629D02*
X1956935Y2631735D01*
X1958196Y2631307D01*
X1959391Y2630718D01*
X1960498Y2629978D01*
X1961500Y2629100D01*
X1962378Y2628098D01*
X1963118Y2626991D01*
X1963707Y2625796D01*
X1964135Y2624535D01*
X1964395Y2623229D01*
X1964482Y2621900D01*
Y2381900D01*
X1964395Y2380571D01*
X1964135Y2379265D01*
X1963707Y2378004D01*
X1963118Y2376809D01*
X1962378Y2375702D01*
X1961500Y2374700D01*
X1960498Y2373822D01*
X1959391Y2373082D01*
X1958196Y2372493D01*
X1956935Y2372065D01*
X1955629Y2371805D01*
X1954300Y2371718D01*
X1823050D01*
X1821721Y2371805D01*
X1820415Y2372065D01*
X1819153Y2372493D01*
X1817959Y2373082D01*
X1816852Y2373822D01*
X1815850Y2374700D01*
X1797100Y2393450D01*
X1796222Y2394452D01*
X1795482Y2395559D01*
X1794893Y2396753D01*
X1794465Y2398015D01*
X1794205Y2399321D01*
X1794118Y2400650D01*
Y2603150D01*
X1794205Y2604479D01*
X1794465Y2605785D01*
X1794893Y2607047D01*
X1795482Y2608241D01*
X1796222Y2609348D01*
X1797100Y2610350D01*
X1815850Y2629100D01*
X1816852Y2629978D01*
X1817959Y2630718D01*
X1819153Y2631307D01*
X1820415Y2631735D01*
X1821721Y2631995D01*
X1823050Y2632082D01*
X1954300D01*
X1955629Y2631995D01*
D02*
G37*
G36*
X1455179Y2619295D02*
X1456485Y2619035D01*
X1457747Y2618607D01*
X1458941Y2618018D01*
X1460048Y2617278D01*
X1461050Y2616400D01*
X1479800Y2597650D01*
X1480678Y2596648D01*
X1481418Y2595541D01*
X1482007Y2594347D01*
X1482435Y2593085D01*
X1482695Y2591779D01*
X1482782Y2590450D01*
Y2387950D01*
X1482695Y2386621D01*
X1482435Y2385315D01*
X1482007Y2384053D01*
X1481418Y2382859D01*
X1480678Y2381752D01*
X1479800Y2380750D01*
X1461050Y2362000D01*
X1460048Y2361122D01*
X1458941Y2360382D01*
X1457747Y2359793D01*
X1456485Y2359365D01*
X1455179Y2359105D01*
X1453850Y2359018D01*
X1322600D01*
X1321271Y2359105D01*
X1319965Y2359365D01*
X1318703Y2359793D01*
X1317509Y2360382D01*
X1316401Y2361122D01*
X1315400Y2362000D01*
X1314522Y2363002D01*
X1313782Y2364109D01*
X1313193Y2365304D01*
X1312765Y2366565D01*
X1312505Y2367871D01*
X1312418Y2369200D01*
Y2609200D01*
X1312505Y2610529D01*
X1312765Y2611835D01*
X1313193Y2613096D01*
X1313782Y2614291D01*
X1314522Y2615398D01*
X1315400Y2616400D01*
X1316401Y2617278D01*
X1317509Y2618018D01*
X1318703Y2618607D01*
X1319965Y2619035D01*
X1321271Y2619295D01*
X1322600Y2619382D01*
X1453850D01*
X1455179Y2619295D01*
D02*
G37*
G36*
X1193929D02*
X1195235Y2619035D01*
X1196496Y2618607D01*
X1197691Y2618018D01*
X1198798Y2617278D01*
X1199800Y2616400D01*
X1200678Y2615398D01*
X1201418Y2614291D01*
X1202007Y2613096D01*
X1202435Y2611835D01*
X1202695Y2610529D01*
X1202782Y2609200D01*
Y2369200D01*
X1202695Y2367871D01*
X1202435Y2366565D01*
X1202007Y2365304D01*
X1201418Y2364109D01*
X1200678Y2363002D01*
X1199800Y2362000D01*
X1198798Y2361122D01*
X1197691Y2360382D01*
X1196496Y2359793D01*
X1195235Y2359365D01*
X1193929Y2359105D01*
X1192600Y2359018D01*
X1061350D01*
X1060021Y2359105D01*
X1058715Y2359365D01*
X1057453Y2359793D01*
X1056259Y2360382D01*
X1055152Y2361122D01*
X1054150Y2362000D01*
X1035400Y2380750D01*
X1034522Y2381752D01*
X1033782Y2382859D01*
X1033193Y2384053D01*
X1032765Y2385315D01*
X1032505Y2386621D01*
X1032418Y2387950D01*
Y2590450D01*
X1032505Y2591779D01*
X1032765Y2593085D01*
X1033193Y2594347D01*
X1033782Y2595541D01*
X1034522Y2596648D01*
X1035400Y2597650D01*
X1054150Y2616400D01*
X1055152Y2617278D01*
X1056259Y2618018D01*
X1057453Y2618607D01*
X1058715Y2619035D01*
X1060021Y2619295D01*
X1061350Y2619382D01*
X1192600D01*
X1193929Y2619295D01*
D02*
G37*
G36*
X5054829Y2487695D02*
X5056135Y2487435D01*
X5057396Y2487007D01*
X5058591Y2486418D01*
X5059698Y2485678D01*
X5060699Y2484800D01*
X5086500Y2459000D01*
X5087378Y2457998D01*
X5088118Y2456891D01*
X5088707Y2455696D01*
X5089135Y2454435D01*
X5089395Y2453129D01*
X5089482Y2451800D01*
Y2451800D01*
D01*
X5089481Y2323399D01*
X5089394Y2322071D01*
X5089134Y2320764D01*
X5088706Y2319503D01*
X5088117Y2318309D01*
X5087377Y2317201D01*
X5086499Y2316200D01*
X5060700Y2290400D01*
X5059698Y2289522D01*
X5058591Y2288782D01*
X5057397Y2288193D01*
X5056135Y2287765D01*
X5054829Y2287505D01*
X5053500Y2287418D01*
X4964300D01*
X4962971Y2287505D01*
X4961665Y2287765D01*
X4960404Y2288193D01*
X4959209Y2288782D01*
X4958102Y2289522D01*
X4957100Y2290400D01*
X4956222Y2291402D01*
X4955482Y2292509D01*
X4954893Y2293704D01*
X4954465Y2294965D01*
X4954205Y2296271D01*
X4954118Y2297600D01*
Y2477600D01*
X4954205Y2478929D01*
X4954465Y2480235D01*
X4954893Y2481496D01*
X4955482Y2482691D01*
X4956222Y2483798D01*
X4957100Y2484800D01*
X4958102Y2485678D01*
X4959209Y2486418D01*
X4960404Y2487007D01*
X4961665Y2487435D01*
X4962971Y2487695D01*
X4964300Y2487782D01*
X5053500D01*
X5054829Y2487695D01*
D02*
G37*
G36*
X3324829D02*
X3326135Y2487435D01*
X3327396Y2487007D01*
X3328591Y2486418D01*
X3329698Y2485678D01*
X3330700Y2484800D01*
X3331578Y2483798D01*
X3332318Y2482691D01*
X3332907Y2481496D01*
X3333335Y2480235D01*
X3333595Y2478929D01*
X3333682Y2477600D01*
Y2297600D01*
X3333595Y2296271D01*
X3333335Y2294965D01*
X3332907Y2293704D01*
X3332318Y2292509D01*
X3331578Y2291402D01*
X3330700Y2290400D01*
X3329698Y2289522D01*
X3328591Y2288782D01*
X3327396Y2288193D01*
X3326135Y2287765D01*
X3324829Y2287505D01*
X3323500Y2287418D01*
X3234300D01*
X3232971Y2287505D01*
X3231665Y2287765D01*
X3230404Y2288193D01*
X3229209Y2288782D01*
X3228102Y2289522D01*
X3227101Y2290400D01*
X3201300Y2316200D01*
X3200422Y2317202D01*
X3199682Y2318309D01*
X3199093Y2319504D01*
X3198665Y2320765D01*
X3198405Y2322071D01*
X3198318Y2323400D01*
Y2323400D01*
D01*
X3198319Y2451801D01*
X3198406Y2453129D01*
X3198666Y2454436D01*
X3199094Y2455697D01*
X3199683Y2456891D01*
X3200423Y2457999D01*
X3201301Y2459000D01*
X3227100Y2484800D01*
X3228102Y2485678D01*
X3229209Y2486418D01*
X3230403Y2487007D01*
X3231665Y2487435D01*
X3232971Y2487695D01*
X3234300Y2487782D01*
X3323500D01*
X3324829Y2487695D01*
D02*
G37*
G36*
X4790629D02*
X4791935Y2487435D01*
X4793196Y2487007D01*
X4794391Y2486418D01*
X4795498Y2485678D01*
X4796500Y2484800D01*
X4797378Y2483798D01*
X4798118Y2482691D01*
X4798707Y2481496D01*
X4799135Y2480235D01*
X4799395Y2478929D01*
X4799482Y2477600D01*
Y2297600D01*
X4799395Y2296271D01*
X4799135Y2294965D01*
X4798707Y2293704D01*
X4798118Y2292509D01*
X4797378Y2291402D01*
X4796500Y2290400D01*
X4795498Y2289522D01*
X4794391Y2288782D01*
X4793196Y2288193D01*
X4791935Y2287765D01*
X4790629Y2287505D01*
X4789300Y2287418D01*
X4700101Y2287418D01*
D01*
D01*
X4700100D01*
X4698771Y2287505D01*
X4697465Y2287765D01*
X4696204Y2288193D01*
X4695010Y2288782D01*
X4694642Y2289027D01*
X4693902Y2289522D01*
X4693434Y2289932D01*
X4692901Y2290400D01*
X4667100Y2316200D01*
X4666222Y2317201D01*
X4665482Y2318309D01*
X4664893Y2319503D01*
X4664465Y2320764D01*
X4664205Y2322071D01*
X4664118Y2323400D01*
X4664118Y2451800D01*
X4664205Y2453129D01*
X4664465Y2454435D01*
X4664893Y2455697D01*
X4665482Y2456891D01*
X4666222Y2457998D01*
X4667100Y2459000D01*
X4692900Y2484800D01*
X4693902Y2485678D01*
X4695009Y2486418D01*
X4696204Y2487007D01*
X4697465Y2487435D01*
X4698771Y2487695D01*
X4700100Y2487782D01*
X4789300D01*
X4790629Y2487695D01*
D02*
G37*
G36*
X8141401Y2193881D02*
X8142729Y2193794D01*
X8144036Y2193534D01*
X8145297Y2193106D01*
X8146491Y2192517D01*
X8147599Y2191777D01*
X8148600Y2190899D01*
X8174400Y2165100D01*
X8175278Y2164098D01*
X8176018Y2162991D01*
X8176607Y2161797D01*
X8177035Y2160535D01*
X8177295Y2159229D01*
X8177382Y2157900D01*
Y2068700D01*
X8177295Y2067371D01*
X8177035Y2066065D01*
X8176607Y2064804D01*
X8176018Y2063609D01*
X8175278Y2062502D01*
X8174400Y2061500D01*
X8173398Y2060622D01*
X8172291Y2059882D01*
X8171096Y2059293D01*
X8169835Y2058865D01*
X8168529Y2058605D01*
X8167200Y2058518D01*
X7987200D01*
X7985871Y2058605D01*
X7984565Y2058865D01*
X7983304Y2059293D01*
X7982109Y2059882D01*
X7981002Y2060622D01*
X7980000Y2061500D01*
X7979122Y2062502D01*
X7978382Y2063609D01*
X7977793Y2064804D01*
X7977365Y2066065D01*
X7977105Y2067371D01*
X7977018Y2068700D01*
Y2157900D01*
X7977105Y2159229D01*
X7977365Y2160535D01*
X7977793Y2161796D01*
X7978382Y2162991D01*
X7979122Y2164098D01*
X7980000Y2165099D01*
X8005800Y2190900D01*
X8006802Y2191778D01*
X8007909Y2192518D01*
X8009104Y2193107D01*
X8010365Y2193535D01*
X8011671Y2193795D01*
X8013000Y2193882D01*
X8013000D01*
D01*
X8141401Y2193881D01*
D02*
G37*
G36*
X6668201Y2186481D02*
X6669529Y2186394D01*
X6670836Y2186134D01*
X6672097Y2185706D01*
X6673291Y2185117D01*
X6674399Y2184377D01*
X6675400Y2183499D01*
X6701200Y2157700D01*
X6702078Y2156698D01*
X6702818Y2155591D01*
X6703407Y2154397D01*
X6703835Y2153135D01*
X6704095Y2151829D01*
X6704182Y2150500D01*
Y2061300D01*
X6704095Y2059971D01*
X6703835Y2058665D01*
X6703407Y2057404D01*
X6702818Y2056209D01*
X6702078Y2055102D01*
X6701200Y2054100D01*
X6700198Y2053222D01*
X6699091Y2052482D01*
X6697896Y2051893D01*
X6696635Y2051465D01*
X6695329Y2051205D01*
X6694000Y2051118D01*
X6514000D01*
X6512671Y2051205D01*
X6511365Y2051465D01*
X6510104Y2051893D01*
X6508909Y2052482D01*
X6507802Y2053222D01*
X6506800Y2054100D01*
X6505922Y2055102D01*
X6505182Y2056209D01*
X6504593Y2057404D01*
X6504165Y2058665D01*
X6503905Y2059971D01*
X6503818Y2061300D01*
Y2150500D01*
X6503905Y2151829D01*
X6504165Y2153135D01*
X6504593Y2154396D01*
X6505182Y2155591D01*
X6505922Y2156698D01*
X6506800Y2157699D01*
X6532600Y2183500D01*
X6533602Y2184378D01*
X6534709Y2185118D01*
X6535904Y2185707D01*
X6537165Y2186135D01*
X6538471Y2186395D01*
X6539800Y2186482D01*
X6539800D01*
D01*
X6668201Y2186481D01*
D02*
G37*
G36*
X6006689Y2295295D02*
X6007995Y2295035D01*
X6009256Y2294607D01*
X6010451Y2294018D01*
X6011558Y2293278D01*
X6012559Y2292400D01*
X6027500Y2277460D01*
X6028378Y2276458D01*
X6029118Y2275351D01*
X6029707Y2274156D01*
X6030135Y2272895D01*
X6030395Y2271589D01*
X6030482Y2270260D01*
Y2200140D01*
X6030395Y2198811D01*
X6030135Y2197505D01*
X6029707Y2196244D01*
X6029118Y2195049D01*
X6028378Y2193942D01*
X6027500Y2192941D01*
X6012559Y2178000D01*
X6011558Y2177122D01*
X6010451Y2176382D01*
X6009256Y2175793D01*
X6007995Y2175365D01*
X6006689Y2175105D01*
X6005360Y2175018D01*
X5925300D01*
X5923971Y2175105D01*
X5922665Y2175365D01*
X5921404Y2175793D01*
X5920209Y2176382D01*
X5919102Y2177122D01*
X5918100Y2178000D01*
X5917222Y2179001D01*
X5916482Y2180109D01*
X5915893Y2181303D01*
X5915465Y2182565D01*
X5915205Y2183871D01*
X5915118Y2185200D01*
Y2285200D01*
X5915205Y2286529D01*
X5915465Y2287835D01*
X5915893Y2289097D01*
X5916482Y2290291D01*
X5917222Y2291399D01*
X5918100Y2292400D01*
X5919102Y2293278D01*
X5920209Y2294018D01*
X5921404Y2294607D01*
X5922665Y2295035D01*
X5923971Y2295295D01*
X5925300Y2295382D01*
X6005360Y2295382D01*
X6006689Y2295295D01*
D02*
G37*
G36*
X5861629Y2295295D02*
X5862935Y2295035D01*
X5864196Y2294607D01*
X5865391Y2294018D01*
X5866498Y2293278D01*
X5867500Y2292400D01*
X5868378Y2291399D01*
X5869118Y2290291D01*
X5869707Y2289097D01*
X5870135Y2287835D01*
X5870395Y2286529D01*
X5870482Y2285200D01*
Y2185200D01*
X5870395Y2183871D01*
X5870135Y2182565D01*
X5869707Y2181303D01*
X5869118Y2180109D01*
X5868378Y2179001D01*
X5867500Y2178000D01*
X5866498Y2177122D01*
X5865391Y2176382D01*
X5864196Y2175793D01*
X5862935Y2175365D01*
X5861629Y2175105D01*
X5860300Y2175018D01*
X5780240D01*
X5778911Y2175105D01*
X5777605Y2175365D01*
X5776344Y2175793D01*
X5775149Y2176382D01*
X5774042Y2177122D01*
X5773041Y2178000D01*
X5758100Y2192941D01*
X5757222Y2193942D01*
X5756482Y2195050D01*
X5755893Y2196244D01*
X5755465Y2197505D01*
X5755205Y2198811D01*
X5755118Y2200140D01*
Y2270260D01*
X5755205Y2271589D01*
X5755465Y2272895D01*
X5755893Y2274156D01*
X5756482Y2275351D01*
X5757222Y2276458D01*
X5758100Y2277460D01*
X5773041Y2292400D01*
X5774042Y2293278D01*
X5775149Y2294018D01*
X5776344Y2294607D01*
X5777605Y2295035D01*
X5778911Y2295295D01*
X5780240Y2295382D01*
X5860300D01*
X5861629Y2295295D01*
D02*
G37*
G36*
X5054829Y2233695D02*
X5056135Y2233435D01*
X5057396Y2233007D01*
X5058591Y2232418D01*
X5059698Y2231678D01*
X5060699Y2230800D01*
X5086500Y2205000D01*
X5087378Y2203998D01*
X5088118Y2202891D01*
X5088707Y2201696D01*
X5089135Y2200435D01*
X5089395Y2199129D01*
X5089482Y2197800D01*
Y2197800D01*
D01*
X5089481Y2069399D01*
X5089394Y2068071D01*
X5089134Y2066764D01*
X5088706Y2065503D01*
X5088117Y2064309D01*
X5087377Y2063201D01*
X5086499Y2062200D01*
X5060700Y2036400D01*
X5059698Y2035522D01*
X5058591Y2034782D01*
X5057397Y2034193D01*
X5056135Y2033765D01*
X5054829Y2033505D01*
X5053500Y2033418D01*
X4964300D01*
X4962971Y2033505D01*
X4961665Y2033765D01*
X4960404Y2034193D01*
X4959209Y2034782D01*
X4958102Y2035522D01*
X4957100Y2036400D01*
X4956222Y2037402D01*
X4955482Y2038509D01*
X4954893Y2039704D01*
X4954465Y2040965D01*
X4954205Y2042271D01*
X4954118Y2043600D01*
Y2223600D01*
X4954205Y2224929D01*
X4954465Y2226235D01*
X4954893Y2227496D01*
X4955482Y2228691D01*
X4956222Y2229798D01*
X4957100Y2230800D01*
X4958102Y2231678D01*
X4959209Y2232418D01*
X4960404Y2233007D01*
X4961665Y2233435D01*
X4962971Y2233695D01*
X4964300Y2233782D01*
X5053500D01*
X5054829Y2233695D01*
D02*
G37*
G36*
X3589029D02*
X3590335Y2233435D01*
X3591596Y2233007D01*
X3592791Y2232418D01*
X3593898Y2231678D01*
X3594899Y2230800D01*
X3620700Y2205000D01*
X3621578Y2203998D01*
X3622318Y2202891D01*
X3622907Y2201696D01*
X3623335Y2200435D01*
X3623595Y2199129D01*
X3623682Y2197800D01*
Y2197800D01*
D01*
X3623681Y2069399D01*
X3623594Y2068071D01*
X3623334Y2066764D01*
X3622906Y2065503D01*
X3622317Y2064309D01*
X3621577Y2063201D01*
X3620699Y2062200D01*
X3594900Y2036400D01*
X3593898Y2035522D01*
X3592791Y2034782D01*
X3591597Y2034193D01*
X3590335Y2033765D01*
X3589029Y2033505D01*
X3587700Y2033418D01*
X3498500D01*
X3497171Y2033505D01*
X3495865Y2033765D01*
X3494604Y2034193D01*
X3493409Y2034782D01*
X3492302Y2035522D01*
X3491300Y2036400D01*
X3490422Y2037402D01*
X3489682Y2038509D01*
X3489093Y2039704D01*
X3488665Y2040965D01*
X3488405Y2042271D01*
X3488318Y2043600D01*
Y2223600D01*
X3488405Y2224929D01*
X3488665Y2226235D01*
X3489093Y2227496D01*
X3489682Y2228691D01*
X3490422Y2229798D01*
X3491300Y2230800D01*
X3492302Y2231678D01*
X3493409Y2232418D01*
X3494604Y2233007D01*
X3495865Y2233435D01*
X3497171Y2233695D01*
X3498500Y2233782D01*
X3587700D01*
X3589029Y2233695D01*
D02*
G37*
G36*
X4790629D02*
X4791935Y2233435D01*
X4793196Y2233007D01*
X4794391Y2232418D01*
X4795498Y2231678D01*
X4796500Y2230800D01*
X4797378Y2229798D01*
X4798118Y2228691D01*
X4798707Y2227496D01*
X4799135Y2226235D01*
X4799395Y2224929D01*
X4799482Y2223600D01*
Y2043600D01*
X4799395Y2042271D01*
X4799135Y2040965D01*
X4798707Y2039704D01*
X4798118Y2038509D01*
X4797378Y2037402D01*
X4796500Y2036400D01*
X4795498Y2035522D01*
X4794391Y2034782D01*
X4793196Y2034193D01*
X4791935Y2033765D01*
X4790629Y2033505D01*
X4789300Y2033418D01*
X4700101Y2033418D01*
D01*
D01*
X4700100D01*
X4698771Y2033505D01*
X4697465Y2033765D01*
X4696204Y2034193D01*
X4695010Y2034782D01*
X4694642Y2035027D01*
X4693902Y2035522D01*
X4693434Y2035932D01*
X4692901Y2036400D01*
X4667100Y2062200D01*
X4666222Y2063201D01*
X4665482Y2064309D01*
X4664893Y2065503D01*
X4664465Y2066764D01*
X4664205Y2068071D01*
X4664118Y2069400D01*
X4664118Y2197800D01*
X4664205Y2199129D01*
X4664465Y2200435D01*
X4664893Y2201697D01*
X4665482Y2202891D01*
X4666222Y2203998D01*
X4667100Y2205000D01*
X4692900Y2230800D01*
X4693902Y2231678D01*
X4695009Y2232418D01*
X4696204Y2233007D01*
X4697465Y2233435D01*
X4698771Y2233695D01*
X4700100Y2233782D01*
X4789300D01*
X4790629Y2233695D01*
D02*
G37*
G36*
X3324829D02*
X3326135Y2233435D01*
X3327396Y2233007D01*
X3328591Y2232418D01*
X3329698Y2231678D01*
X3330700Y2230800D01*
X3331578Y2229798D01*
X3332318Y2228691D01*
X3332907Y2227496D01*
X3333335Y2226235D01*
X3333595Y2224929D01*
X3333682Y2223600D01*
Y2043600D01*
X3333595Y2042271D01*
X3333335Y2040965D01*
X3332907Y2039704D01*
X3332318Y2038509D01*
X3331578Y2037402D01*
X3330700Y2036400D01*
X3329698Y2035522D01*
X3328591Y2034782D01*
X3327396Y2034193D01*
X3326135Y2033765D01*
X3324829Y2033505D01*
X3323500Y2033418D01*
X3234301Y2033418D01*
D01*
D01*
X3234300D01*
X3232971Y2033505D01*
X3231665Y2033765D01*
X3230404Y2034193D01*
X3229210Y2034782D01*
X3228842Y2035027D01*
X3228102Y2035522D01*
X3227634Y2035932D01*
X3227101Y2036400D01*
X3201300Y2062200D01*
X3200422Y2063201D01*
X3199682Y2064309D01*
X3199093Y2065503D01*
X3198665Y2066764D01*
X3198405Y2068071D01*
X3198318Y2069400D01*
X3198318Y2197800D01*
X3198405Y2199129D01*
X3198665Y2200435D01*
X3199093Y2201697D01*
X3199682Y2202891D01*
X3200422Y2203998D01*
X3201300Y2205000D01*
X3227100Y2230800D01*
X3228102Y2231678D01*
X3229209Y2232418D01*
X3230404Y2233007D01*
X3231665Y2233435D01*
X3232971Y2233695D01*
X3234300Y2233782D01*
X3323500D01*
X3324829Y2233695D01*
D02*
G37*
G36*
X2216879Y2276395D02*
X2218185Y2276135D01*
X2219447Y2275707D01*
X2220641Y2275118D01*
X2221748Y2274378D01*
X2222750Y2273500D01*
X2241500Y2254750D01*
X2242378Y2253748D01*
X2243118Y2252641D01*
X2243707Y2251447D01*
X2244135Y2250185D01*
X2244395Y2248879D01*
X2244482Y2247550D01*
Y2045050D01*
X2244395Y2043721D01*
X2244135Y2042415D01*
X2243707Y2041153D01*
X2243118Y2039959D01*
X2242378Y2038852D01*
X2241500Y2037850D01*
X2222750Y2019100D01*
X2221748Y2018222D01*
X2220641Y2017482D01*
X2219447Y2016893D01*
X2218185Y2016465D01*
X2216879Y2016205D01*
X2215550Y2016118D01*
X2084300D01*
X2082971Y2016205D01*
X2081665Y2016465D01*
X2080404Y2016893D01*
X2079209Y2017482D01*
X2078102Y2018222D01*
X2077100Y2019100D01*
X2076222Y2020102D01*
X2075482Y2021209D01*
X2074893Y2022404D01*
X2074465Y2023665D01*
X2074205Y2024971D01*
X2074118Y2026300D01*
Y2266300D01*
X2074205Y2267629D01*
X2074465Y2268935D01*
X2074893Y2270196D01*
X2075482Y2271391D01*
X2076222Y2272498D01*
X2077100Y2273500D01*
X2078102Y2274378D01*
X2079209Y2275118D01*
X2080404Y2275707D01*
X2081665Y2276135D01*
X2082971Y2276395D01*
X2084300Y2276482D01*
X2215550D01*
X2216879Y2276395D01*
D02*
G37*
G36*
X1955629D02*
X1956935Y2276135D01*
X1958196Y2275707D01*
X1959391Y2275118D01*
X1960498Y2274378D01*
X1961500Y2273500D01*
X1962378Y2272498D01*
X1963118Y2271391D01*
X1963707Y2270196D01*
X1964135Y2268935D01*
X1964395Y2267629D01*
X1964482Y2266300D01*
Y2026300D01*
X1964395Y2024971D01*
X1964135Y2023665D01*
X1963707Y2022404D01*
X1963118Y2021209D01*
X1962378Y2020102D01*
X1961500Y2019100D01*
X1960498Y2018222D01*
X1959391Y2017482D01*
X1958196Y2016893D01*
X1956935Y2016465D01*
X1955629Y2016205D01*
X1954300Y2016118D01*
X1823050D01*
X1821721Y2016205D01*
X1820415Y2016465D01*
X1819153Y2016893D01*
X1817959Y2017482D01*
X1816852Y2018222D01*
X1815850Y2019100D01*
X1797100Y2037850D01*
X1796222Y2038852D01*
X1795482Y2039959D01*
X1794893Y2041153D01*
X1794465Y2042415D01*
X1794205Y2043721D01*
X1794118Y2045050D01*
Y2247550D01*
X1794205Y2248879D01*
X1794465Y2250185D01*
X1794893Y2251447D01*
X1795482Y2252641D01*
X1796222Y2253748D01*
X1797100Y2254750D01*
X1815850Y2273500D01*
X1816852Y2274378D01*
X1817959Y2275118D01*
X1819153Y2275707D01*
X1820415Y2276135D01*
X1821721Y2276395D01*
X1823050Y2276482D01*
X1954300D01*
X1955629Y2276395D01*
D02*
G37*
G36*
X1455179Y2263695D02*
X1456485Y2263435D01*
X1457747Y2263007D01*
X1458941Y2262418D01*
X1460048Y2261678D01*
X1461050Y2260800D01*
X1479800Y2242050D01*
X1480678Y2241048D01*
X1481418Y2239941D01*
X1482007Y2238747D01*
X1482435Y2237485D01*
X1482695Y2236179D01*
X1482782Y2234850D01*
Y2032350D01*
X1482695Y2031021D01*
X1482435Y2029715D01*
X1482007Y2028453D01*
X1481418Y2027259D01*
X1480678Y2026152D01*
X1479800Y2025150D01*
X1461050Y2006400D01*
X1460048Y2005522D01*
X1458941Y2004782D01*
X1457747Y2004193D01*
X1456485Y2003765D01*
X1455179Y2003505D01*
X1453850Y2003418D01*
X1322600D01*
X1321271Y2003505D01*
X1319965Y2003765D01*
X1318703Y2004193D01*
X1317509Y2004782D01*
X1316401Y2005522D01*
X1315400Y2006400D01*
X1314522Y2007402D01*
X1313782Y2008509D01*
X1313193Y2009704D01*
X1312765Y2010965D01*
X1312505Y2012271D01*
X1312418Y2013600D01*
Y2253600D01*
X1312505Y2254929D01*
X1312765Y2256235D01*
X1313193Y2257496D01*
X1313782Y2258691D01*
X1314522Y2259798D01*
X1315400Y2260800D01*
X1316401Y2261678D01*
X1317509Y2262418D01*
X1318703Y2263007D01*
X1319965Y2263435D01*
X1321271Y2263695D01*
X1322600Y2263782D01*
X1453850D01*
X1455179Y2263695D01*
D02*
G37*
G36*
X1193929D02*
X1195235Y2263435D01*
X1196496Y2263007D01*
X1197691Y2262418D01*
X1198798Y2261678D01*
X1199800Y2260800D01*
X1200678Y2259798D01*
X1201418Y2258691D01*
X1202007Y2257496D01*
X1202435Y2256235D01*
X1202695Y2254929D01*
X1202782Y2253600D01*
Y2013600D01*
X1202695Y2012271D01*
X1202435Y2010965D01*
X1202007Y2009704D01*
X1201418Y2008509D01*
X1200678Y2007402D01*
X1199800Y2006400D01*
X1198798Y2005522D01*
X1197691Y2004782D01*
X1196496Y2004193D01*
X1195235Y2003765D01*
X1193929Y2003505D01*
X1192600Y2003418D01*
X1061350D01*
X1060021Y2003505D01*
X1058715Y2003765D01*
X1057453Y2004193D01*
X1056259Y2004782D01*
X1055152Y2005522D01*
X1054150Y2006400D01*
X1035400Y2025150D01*
X1034522Y2026152D01*
X1033782Y2027259D01*
X1033193Y2028453D01*
X1032765Y2029715D01*
X1032505Y2031021D01*
X1032418Y2032350D01*
Y2234850D01*
X1032505Y2236179D01*
X1032765Y2237485D01*
X1033193Y2238747D01*
X1033782Y2239941D01*
X1034522Y2241048D01*
X1035400Y2242050D01*
X1054150Y2260800D01*
X1055152Y2261678D01*
X1056259Y2262418D01*
X1057453Y2263007D01*
X1058715Y2263435D01*
X1060021Y2263695D01*
X1061350Y2263782D01*
X1192600D01*
X1193929Y2263695D01*
D02*
G37*
G36*
X5852989Y2004495D02*
X5854295Y2004235D01*
X5855556Y2003807D01*
X5856751Y2003218D01*
X5857858Y2002478D01*
X5858859Y2001600D01*
X5873800Y1986659D01*
X5874678Y1985658D01*
X5875418Y1984551D01*
X5876007Y1983356D01*
X5876435Y1982095D01*
X5876695Y1980789D01*
X5876782Y1979460D01*
Y1899400D01*
X5876695Y1898071D01*
X5876435Y1896765D01*
X5876007Y1895504D01*
X5875418Y1894309D01*
X5874678Y1893202D01*
X5873800Y1892200D01*
X5872799Y1891322D01*
X5871691Y1890582D01*
X5870497Y1889993D01*
X5869235Y1889565D01*
X5867929Y1889305D01*
X5866600Y1889218D01*
X5766600D01*
X5765271Y1889305D01*
X5763965Y1889565D01*
X5762703Y1889993D01*
X5761509Y1890582D01*
X5760401Y1891322D01*
X5759400Y1892200D01*
X5758522Y1893202D01*
X5757782Y1894309D01*
X5757193Y1895504D01*
X5756765Y1896765D01*
X5756505Y1898071D01*
X5756418Y1899400D01*
X5756418Y1979460D01*
X5756505Y1980789D01*
X5756765Y1982095D01*
X5757193Y1983356D01*
X5757782Y1984551D01*
X5758522Y1985658D01*
X5759400Y1986659D01*
X5774340Y2001600D01*
X5775342Y2002478D01*
X5776449Y2003218D01*
X5777644Y2003807D01*
X5778905Y2004235D01*
X5780211Y2004495D01*
X5781540Y2004582D01*
X5851660D01*
X5852989Y2004495D01*
D02*
G37*
G36*
X5497389Y1991795D02*
X5498695Y1991535D01*
X5499956Y1991107D01*
X5501151Y1990518D01*
X5502258Y1989778D01*
X5503259Y1988900D01*
X5518200Y1973959D01*
X5519078Y1972958D01*
X5519818Y1971851D01*
X5520407Y1970656D01*
X5520835Y1969395D01*
X5521095Y1968089D01*
X5521182Y1966760D01*
Y1886700D01*
X5521095Y1885371D01*
X5520835Y1884065D01*
X5520407Y1882804D01*
X5519818Y1881609D01*
X5519078Y1880502D01*
X5518200Y1879500D01*
X5517199Y1878622D01*
X5516091Y1877882D01*
X5514897Y1877293D01*
X5513635Y1876865D01*
X5512329Y1876605D01*
X5511000Y1876518D01*
X5411000D01*
X5409671Y1876605D01*
X5408365Y1876865D01*
X5407103Y1877293D01*
X5405909Y1877882D01*
X5404801Y1878622D01*
X5403800Y1879500D01*
X5402922Y1880502D01*
X5402182Y1881609D01*
X5401593Y1882804D01*
X5401165Y1884065D01*
X5400905Y1885371D01*
X5400818Y1886700D01*
X5400818Y1966760D01*
X5400905Y1968089D01*
X5401165Y1969395D01*
X5401593Y1970656D01*
X5402182Y1971851D01*
X5402922Y1972958D01*
X5403800Y1973959D01*
X5418740Y1988900D01*
X5419742Y1989778D01*
X5420849Y1990518D01*
X5422044Y1991107D01*
X5423305Y1991535D01*
X5424611Y1991795D01*
X5425940Y1991882D01*
X5496060D01*
X5497389Y1991795D01*
D02*
G37*
G36*
X5344989D02*
X5346295Y1991535D01*
X5347556Y1991107D01*
X5348751Y1990518D01*
X5349858Y1989778D01*
X5350859Y1988900D01*
X5365800Y1973959D01*
X5366678Y1972958D01*
X5367418Y1971851D01*
X5368007Y1970656D01*
X5368435Y1969395D01*
X5368695Y1968089D01*
X5368782Y1966760D01*
Y1886700D01*
X5368695Y1885371D01*
X5368435Y1884065D01*
X5368007Y1882804D01*
X5367418Y1881609D01*
X5366678Y1880502D01*
X5365800Y1879500D01*
X5364799Y1878622D01*
X5363691Y1877882D01*
X5362497Y1877293D01*
X5361235Y1876865D01*
X5359929Y1876605D01*
X5358600Y1876518D01*
X5258600D01*
X5257271Y1876605D01*
X5255965Y1876865D01*
X5254703Y1877293D01*
X5253509Y1877882D01*
X5252401Y1878622D01*
X5251400Y1879500D01*
X5250522Y1880502D01*
X5249782Y1881609D01*
X5249193Y1882804D01*
X5248765Y1884065D01*
X5248505Y1885371D01*
X5248418Y1886700D01*
X5248418Y1966760D01*
X5248505Y1968089D01*
X5248765Y1969395D01*
X5249193Y1970656D01*
X5249782Y1971851D01*
X5250522Y1972958D01*
X5251400Y1973959D01*
X5266340Y1988900D01*
X5267342Y1989778D01*
X5268449Y1990518D01*
X5269644Y1991107D01*
X5270905Y1991535D01*
X5272211Y1991795D01*
X5273540Y1991882D01*
X5343660D01*
X5344989Y1991795D01*
D02*
G37*
G36*
X6310189Y1940995D02*
X6311495Y1940735D01*
X6312756Y1940307D01*
X6313951Y1939718D01*
X6315058Y1938978D01*
X6316059Y1938100D01*
X6331000Y1923159D01*
X6331878Y1922158D01*
X6332618Y1921051D01*
X6333207Y1919856D01*
X6333635Y1918595D01*
X6333895Y1917289D01*
X6333982Y1915960D01*
Y1835900D01*
X6333895Y1834571D01*
X6333635Y1833265D01*
X6333207Y1832004D01*
X6332618Y1830809D01*
X6331878Y1829702D01*
X6331000Y1828700D01*
X6329999Y1827822D01*
X6328891Y1827082D01*
X6327697Y1826493D01*
X6326435Y1826065D01*
X6325129Y1825805D01*
X6323800Y1825718D01*
X6223800D01*
X6222471Y1825805D01*
X6221165Y1826065D01*
X6219903Y1826493D01*
X6218709Y1827082D01*
X6217601Y1827822D01*
X6216600Y1828700D01*
X6215722Y1829702D01*
X6214982Y1830809D01*
X6214393Y1832004D01*
X6213965Y1833265D01*
X6213705Y1834571D01*
X6213618Y1835900D01*
X6213618Y1915960D01*
X6213705Y1917289D01*
X6213965Y1918595D01*
X6214393Y1919856D01*
X6214982Y1921051D01*
X6215722Y1922158D01*
X6216600Y1923159D01*
X6231540Y1938100D01*
X6232542Y1938978D01*
X6233649Y1939718D01*
X6234844Y1940307D01*
X6236105Y1940735D01*
X6237411Y1940995D01*
X6238740Y1941082D01*
X6308860D01*
X6310189Y1940995D01*
D02*
G37*
G36*
X6157789D02*
X6159095Y1940735D01*
X6160356Y1940307D01*
X6161551Y1939718D01*
X6162658Y1938978D01*
X6163659Y1938100D01*
X6178600Y1923159D01*
X6179478Y1922158D01*
X6180218Y1921051D01*
X6180807Y1919856D01*
X6181235Y1918595D01*
X6181495Y1917289D01*
X6181582Y1915960D01*
Y1835900D01*
X6181495Y1834571D01*
X6181235Y1833265D01*
X6180807Y1832004D01*
X6180218Y1830809D01*
X6179478Y1829702D01*
X6178600Y1828700D01*
X6177599Y1827822D01*
X6176491Y1827082D01*
X6175297Y1826493D01*
X6174035Y1826065D01*
X6172729Y1825805D01*
X6171400Y1825718D01*
X6071400D01*
X6070071Y1825805D01*
X6068765Y1826065D01*
X6067503Y1826493D01*
X6066309Y1827082D01*
X6065201Y1827822D01*
X6064200Y1828700D01*
X6063322Y1829702D01*
X6062582Y1830809D01*
X6061993Y1832004D01*
X6061565Y1833265D01*
X6061305Y1834571D01*
X6061218Y1835900D01*
X6061218Y1915960D01*
X6061305Y1917289D01*
X6061565Y1918595D01*
X6061993Y1919856D01*
X6062582Y1921051D01*
X6063322Y1922158D01*
X6064200Y1923159D01*
X6079140Y1938100D01*
X6080142Y1938978D01*
X6081249Y1939718D01*
X6082444Y1940307D01*
X6083705Y1940735D01*
X6085011Y1940995D01*
X6086340Y1941082D01*
X6156460D01*
X6157789Y1940995D01*
D02*
G37*
G36*
X6005389D02*
X6006695Y1940735D01*
X6007956Y1940307D01*
X6009151Y1939718D01*
X6010258Y1938978D01*
X6011259Y1938100D01*
X6026200Y1923159D01*
X6027078Y1922158D01*
X6027818Y1921051D01*
X6028407Y1919856D01*
X6028835Y1918595D01*
X6029095Y1917289D01*
X6029182Y1915960D01*
Y1835900D01*
X6029095Y1834571D01*
X6028835Y1833265D01*
X6028407Y1832004D01*
X6027818Y1830809D01*
X6027078Y1829702D01*
X6026200Y1828700D01*
X6025199Y1827822D01*
X6024091Y1827082D01*
X6022897Y1826493D01*
X6021635Y1826065D01*
X6020329Y1825805D01*
X6019000Y1825718D01*
X5919000D01*
X5917671Y1825805D01*
X5916365Y1826065D01*
X5915103Y1826493D01*
X5913909Y1827082D01*
X5912801Y1827822D01*
X5911800Y1828700D01*
X5910922Y1829702D01*
X5910182Y1830809D01*
X5909593Y1832004D01*
X5909165Y1833265D01*
X5908905Y1834571D01*
X5908818Y1835900D01*
X5908818Y1915960D01*
X5908905Y1917289D01*
X5909165Y1918595D01*
X5909593Y1919856D01*
X5910182Y1921051D01*
X5910922Y1922158D01*
X5911800Y1923159D01*
X5926740Y1938100D01*
X5927742Y1938978D01*
X5928849Y1939718D01*
X5930044Y1940307D01*
X5931305Y1940735D01*
X5932611Y1940995D01*
X5933940Y1941082D01*
X6004060D01*
X6005389Y1940995D01*
D02*
G37*
G36*
X5700589D02*
X5701895Y1940735D01*
X5703156Y1940307D01*
X5704351Y1939718D01*
X5705458Y1938978D01*
X5706459Y1938100D01*
X5721400Y1923159D01*
X5722278Y1922158D01*
X5723018Y1921051D01*
X5723607Y1919856D01*
X5724035Y1918595D01*
X5724295Y1917289D01*
X5724382Y1915960D01*
Y1835900D01*
X5724295Y1834571D01*
X5724035Y1833265D01*
X5723607Y1832004D01*
X5723018Y1830809D01*
X5722278Y1829702D01*
X5721400Y1828700D01*
X5720399Y1827822D01*
X5719291Y1827082D01*
X5718097Y1826493D01*
X5716835Y1826065D01*
X5715529Y1825805D01*
X5714200Y1825718D01*
X5614200D01*
X5612871Y1825805D01*
X5611565Y1826065D01*
X5610303Y1826493D01*
X5609109Y1827082D01*
X5608001Y1827822D01*
X5607000Y1828700D01*
X5606122Y1829702D01*
X5605382Y1830809D01*
X5604793Y1832004D01*
X5604365Y1833265D01*
X5604105Y1834571D01*
X5604018Y1835900D01*
X5604018Y1915960D01*
X5604105Y1917289D01*
X5604365Y1918595D01*
X5604793Y1919856D01*
X5605382Y1921051D01*
X5606122Y1922158D01*
X5607000Y1923159D01*
X5621940Y1938100D01*
X5622942Y1938978D01*
X5624049Y1939718D01*
X5625244Y1940307D01*
X5626505Y1940735D01*
X5627811Y1940995D01*
X5629140Y1941082D01*
X5699260D01*
X5700589Y1940995D01*
D02*
G37*
G36*
X8168529Y1903795D02*
X8169835Y1903535D01*
X8171096Y1903107D01*
X8172291Y1902518D01*
X8173398Y1901778D01*
X8174400Y1900900D01*
X8175278Y1899898D01*
X8176018Y1898791D01*
X8176607Y1897596D01*
X8177035Y1896335D01*
X8177295Y1895029D01*
X8177382Y1893700D01*
X8177382Y1804501D01*
D01*
D01*
Y1804500D01*
X8177295Y1803171D01*
X8177035Y1801865D01*
X8176607Y1800604D01*
X8176018Y1799410D01*
X8175773Y1799042D01*
X8175278Y1798302D01*
X8174868Y1797834D01*
X8174400Y1797301D01*
X8148600Y1771500D01*
X8147599Y1770622D01*
X8146491Y1769882D01*
X8145297Y1769293D01*
X8144036Y1768865D01*
X8142729Y1768605D01*
X8141400Y1768518D01*
X8013000Y1768518D01*
X8011671Y1768605D01*
X8010365Y1768865D01*
X8009103Y1769293D01*
X8007909Y1769882D01*
X8006802Y1770622D01*
X8005800Y1771500D01*
X7980000Y1797300D01*
X7979122Y1798302D01*
X7978382Y1799409D01*
X7977793Y1800604D01*
X7977365Y1801865D01*
X7977105Y1803171D01*
X7977018Y1804500D01*
Y1893700D01*
X7977105Y1895029D01*
X7977365Y1896335D01*
X7977793Y1897596D01*
X7978382Y1898791D01*
X7979122Y1899898D01*
X7980000Y1900900D01*
X7981002Y1901778D01*
X7982109Y1902518D01*
X7983304Y1903107D01*
X7984565Y1903535D01*
X7985871Y1903795D01*
X7987200Y1903882D01*
X8167200D01*
X8168529Y1903795D01*
D02*
G37*
G36*
X6695329Y1896395D02*
X6696635Y1896135D01*
X6697896Y1895707D01*
X6699091Y1895118D01*
X6700198Y1894378D01*
X6701200Y1893500D01*
X6702078Y1892498D01*
X6702818Y1891391D01*
X6703407Y1890196D01*
X6703835Y1888935D01*
X6704095Y1887629D01*
X6704182Y1886300D01*
X6704182Y1797101D01*
D01*
D01*
Y1797100D01*
X6704095Y1795771D01*
X6703835Y1794465D01*
X6703407Y1793204D01*
X6702818Y1792010D01*
X6702573Y1791642D01*
X6702078Y1790902D01*
X6701668Y1790434D01*
X6701200Y1789901D01*
X6675400Y1764100D01*
X6674399Y1763222D01*
X6673291Y1762482D01*
X6672097Y1761893D01*
X6670836Y1761465D01*
X6669529Y1761205D01*
X6668200Y1761118D01*
X6539800Y1761118D01*
X6538471Y1761205D01*
X6537165Y1761465D01*
X6535903Y1761893D01*
X6534709Y1762482D01*
X6533602Y1763222D01*
X6532600Y1764100D01*
X6506800Y1789900D01*
X6505922Y1790902D01*
X6505182Y1792009D01*
X6504593Y1793204D01*
X6504165Y1794465D01*
X6503905Y1795771D01*
X6503818Y1797100D01*
Y1886300D01*
X6503905Y1887629D01*
X6504165Y1888935D01*
X6504593Y1890196D01*
X6505182Y1891391D01*
X6505922Y1892498D01*
X6506800Y1893500D01*
X6507802Y1894378D01*
X6508909Y1895118D01*
X6510104Y1895707D01*
X6511365Y1896135D01*
X6512671Y1896395D01*
X6514000Y1896482D01*
X6694000D01*
X6695329Y1896395D01*
D02*
G37*
G36*
X5867929Y1844495D02*
X5869235Y1844235D01*
X5870497Y1843807D01*
X5871691Y1843218D01*
X5872799Y1842478D01*
X5873800Y1841600D01*
X5874678Y1840598D01*
X5875418Y1839491D01*
X5876007Y1838296D01*
X5876435Y1837035D01*
X5876695Y1835729D01*
X5876782Y1834400D01*
Y1754340D01*
X5876695Y1753011D01*
X5876435Y1751705D01*
X5876007Y1750444D01*
X5875418Y1749249D01*
X5874678Y1748142D01*
X5873800Y1747141D01*
X5858859Y1732200D01*
X5857858Y1731322D01*
X5856750Y1730582D01*
X5855556Y1729993D01*
X5854295Y1729565D01*
X5852989Y1729305D01*
X5851660Y1729218D01*
X5781540D01*
X5780211Y1729305D01*
X5778905Y1729565D01*
X5777644Y1729993D01*
X5776449Y1730582D01*
X5775342Y1731322D01*
X5774340Y1732200D01*
X5759400Y1747141D01*
X5758522Y1748142D01*
X5757782Y1749249D01*
X5757193Y1750444D01*
X5756765Y1751705D01*
X5756505Y1753011D01*
X5756418Y1754340D01*
Y1834400D01*
X5756505Y1835729D01*
X5756765Y1837035D01*
X5757193Y1838296D01*
X5757782Y1839491D01*
X5758522Y1840598D01*
X5759400Y1841600D01*
X5760401Y1842478D01*
X5761509Y1843218D01*
X5762703Y1843807D01*
X5763965Y1844235D01*
X5765271Y1844495D01*
X5766600Y1844582D01*
X5866600D01*
X5867929Y1844495D01*
D02*
G37*
G36*
X1942689Y1838095D02*
X1943995Y1837835D01*
X1945256Y1837407D01*
X1946451Y1836818D01*
X1947558Y1836078D01*
X1948559Y1835200D01*
X1963500Y1820260D01*
X1964378Y1819258D01*
X1965118Y1818151D01*
X1965707Y1816956D01*
X1966135Y1815695D01*
X1966395Y1814389D01*
X1966482Y1813060D01*
Y1742940D01*
X1966395Y1741611D01*
X1966135Y1740305D01*
X1965707Y1739044D01*
X1965118Y1737849D01*
X1964378Y1736742D01*
X1963500Y1735741D01*
X1948559Y1720800D01*
X1947558Y1719922D01*
X1946451Y1719182D01*
X1945256Y1718593D01*
X1943995Y1718165D01*
X1942689Y1717905D01*
X1941360Y1717818D01*
X1861300D01*
X1859971Y1717905D01*
X1858665Y1718165D01*
X1857404Y1718593D01*
X1856209Y1719182D01*
X1855102Y1719922D01*
X1854100Y1720800D01*
X1853222Y1721801D01*
X1852482Y1722909D01*
X1851893Y1724103D01*
X1851465Y1725365D01*
X1851205Y1726671D01*
X1851118Y1728000D01*
Y1828000D01*
X1851205Y1829329D01*
X1851465Y1830635D01*
X1851893Y1831897D01*
X1852482Y1833091D01*
X1853222Y1834199D01*
X1854100Y1835200D01*
X1855102Y1836078D01*
X1856209Y1836818D01*
X1857404Y1837407D01*
X1858665Y1837835D01*
X1859971Y1838095D01*
X1861300Y1838182D01*
X1941360Y1838182D01*
X1942689Y1838095D01*
D02*
G37*
G36*
X1797629Y1838095D02*
X1798935Y1837835D01*
X1800196Y1837407D01*
X1801391Y1836818D01*
X1802498Y1836078D01*
X1803500Y1835200D01*
X1804378Y1834199D01*
X1805118Y1833091D01*
X1805707Y1831897D01*
X1806135Y1830635D01*
X1806395Y1829329D01*
X1806482Y1828000D01*
Y1728000D01*
X1806395Y1726671D01*
X1806135Y1725365D01*
X1805707Y1724103D01*
X1805118Y1722909D01*
X1804378Y1721801D01*
X1803500Y1720800D01*
X1802498Y1719922D01*
X1801391Y1719182D01*
X1800196Y1718593D01*
X1798935Y1718165D01*
X1797629Y1717905D01*
X1796300Y1717818D01*
X1716240D01*
X1714911Y1717905D01*
X1713605Y1718165D01*
X1712344Y1718593D01*
X1711149Y1719182D01*
X1710042Y1719922D01*
X1709041Y1720800D01*
X1694100Y1735741D01*
X1693222Y1736742D01*
X1692482Y1737850D01*
X1691893Y1739044D01*
X1691465Y1740305D01*
X1691205Y1741611D01*
X1691118Y1742940D01*
Y1813060D01*
X1691205Y1814389D01*
X1691465Y1815695D01*
X1691893Y1816956D01*
X1692482Y1818151D01*
X1693222Y1819258D01*
X1694100Y1820260D01*
X1709041Y1835200D01*
X1710042Y1836078D01*
X1711149Y1836818D01*
X1712344Y1837407D01*
X1713605Y1837835D01*
X1714911Y1838095D01*
X1716240Y1838182D01*
X1796300D01*
X1797629Y1838095D01*
D02*
G37*
G36*
X5512329Y1831795D02*
X5513635Y1831535D01*
X5514897Y1831107D01*
X5516091Y1830518D01*
X5517199Y1829778D01*
X5518200Y1828900D01*
X5519078Y1827898D01*
X5519818Y1826791D01*
X5520407Y1825596D01*
X5520835Y1824335D01*
X5521095Y1823029D01*
X5521182Y1821700D01*
Y1741640D01*
X5521095Y1740311D01*
X5520835Y1739005D01*
X5520407Y1737744D01*
X5519818Y1736549D01*
X5519078Y1735442D01*
X5518200Y1734441D01*
X5503259Y1719500D01*
X5502258Y1718622D01*
X5501150Y1717882D01*
X5499956Y1717293D01*
X5498695Y1716865D01*
X5497389Y1716605D01*
X5496060Y1716518D01*
X5425940D01*
X5424611Y1716605D01*
X5423305Y1716865D01*
X5422044Y1717293D01*
X5420849Y1717882D01*
X5419742Y1718622D01*
X5418740Y1719500D01*
X5403800Y1734441D01*
X5402922Y1735442D01*
X5402182Y1736549D01*
X5401593Y1737744D01*
X5401165Y1739005D01*
X5400905Y1740311D01*
X5400818Y1741640D01*
Y1821700D01*
X5400905Y1823029D01*
X5401165Y1824335D01*
X5401593Y1825596D01*
X5402182Y1826791D01*
X5402922Y1827898D01*
X5403800Y1828900D01*
X5404801Y1829778D01*
X5405909Y1830518D01*
X5407103Y1831107D01*
X5408365Y1831535D01*
X5409671Y1831795D01*
X5411000Y1831882D01*
X5511000D01*
X5512329Y1831795D01*
D02*
G37*
G36*
X5359929D02*
X5361235Y1831535D01*
X5362497Y1831107D01*
X5363691Y1830518D01*
X5364799Y1829778D01*
X5365800Y1828900D01*
X5366678Y1827898D01*
X5367418Y1826791D01*
X5368007Y1825596D01*
X5368435Y1824335D01*
X5368695Y1823029D01*
X5368782Y1821700D01*
Y1741640D01*
X5368695Y1740311D01*
X5368435Y1739005D01*
X5368007Y1737744D01*
X5367418Y1736549D01*
X5366678Y1735442D01*
X5365800Y1734441D01*
X5350859Y1719500D01*
X5349858Y1718622D01*
X5348750Y1717882D01*
X5347556Y1717293D01*
X5346295Y1716865D01*
X5344989Y1716605D01*
X5343660Y1716518D01*
X5273540D01*
X5272211Y1716605D01*
X5270905Y1716865D01*
X5269644Y1717293D01*
X5268449Y1717882D01*
X5267342Y1718622D01*
X5266340Y1719500D01*
X5251400Y1734441D01*
X5250522Y1735442D01*
X5249782Y1736549D01*
X5249193Y1737744D01*
X5248765Y1739005D01*
X5248505Y1740311D01*
X5248418Y1741640D01*
Y1821700D01*
X5248505Y1823029D01*
X5248765Y1824335D01*
X5249193Y1825596D01*
X5249782Y1826791D01*
X5250522Y1827898D01*
X5251400Y1828900D01*
X5252401Y1829778D01*
X5253509Y1830518D01*
X5254703Y1831107D01*
X5255965Y1831535D01*
X5257271Y1831795D01*
X5258600Y1831882D01*
X5358600D01*
X5359929Y1831795D01*
D02*
G37*
G36*
X6325129Y1780995D02*
X6326435Y1780735D01*
X6327697Y1780307D01*
X6328891Y1779718D01*
X6329999Y1778978D01*
X6331000Y1778100D01*
X6331878Y1777098D01*
X6332618Y1775991D01*
X6333207Y1774796D01*
X6333635Y1773535D01*
X6333895Y1772229D01*
X6333982Y1770900D01*
Y1690840D01*
X6333895Y1689511D01*
X6333635Y1688205D01*
X6333207Y1686944D01*
X6332618Y1685749D01*
X6331878Y1684642D01*
X6331000Y1683641D01*
X6316059Y1668700D01*
X6315058Y1667822D01*
X6313950Y1667082D01*
X6312756Y1666493D01*
X6311495Y1666065D01*
X6310189Y1665805D01*
X6308860Y1665718D01*
X6238740D01*
X6237411Y1665805D01*
X6236105Y1666065D01*
X6234844Y1666493D01*
X6233649Y1667082D01*
X6232542Y1667822D01*
X6231540Y1668700D01*
X6216600Y1683641D01*
X6215722Y1684642D01*
X6214982Y1685749D01*
X6214393Y1686944D01*
X6213965Y1688205D01*
X6213705Y1689511D01*
X6213618Y1690840D01*
Y1770900D01*
X6213705Y1772229D01*
X6213965Y1773535D01*
X6214393Y1774796D01*
X6214982Y1775991D01*
X6215722Y1777098D01*
X6216600Y1778100D01*
X6217601Y1778978D01*
X6218709Y1779718D01*
X6219903Y1780307D01*
X6221165Y1780735D01*
X6222471Y1780995D01*
X6223800Y1781082D01*
X6323800D01*
X6325129Y1780995D01*
D02*
G37*
G36*
X6172729D02*
X6174035Y1780735D01*
X6175297Y1780307D01*
X6176491Y1779718D01*
X6177599Y1778978D01*
X6178600Y1778100D01*
X6179478Y1777098D01*
X6180218Y1775991D01*
X6180807Y1774796D01*
X6181235Y1773535D01*
X6181495Y1772229D01*
X6181582Y1770900D01*
Y1690840D01*
X6181495Y1689511D01*
X6181235Y1688205D01*
X6180807Y1686944D01*
X6180218Y1685749D01*
X6179478Y1684642D01*
X6178600Y1683641D01*
X6163659Y1668700D01*
X6162658Y1667822D01*
X6161550Y1667082D01*
X6160356Y1666493D01*
X6159095Y1666065D01*
X6157789Y1665805D01*
X6156460Y1665718D01*
X6086340D01*
X6085011Y1665805D01*
X6083705Y1666065D01*
X6082444Y1666493D01*
X6081249Y1667082D01*
X6080142Y1667822D01*
X6079140Y1668700D01*
X6064200Y1683641D01*
X6063322Y1684642D01*
X6062582Y1685749D01*
X6061993Y1686944D01*
X6061565Y1688205D01*
X6061305Y1689511D01*
X6061218Y1690840D01*
Y1770900D01*
X6061305Y1772229D01*
X6061565Y1773535D01*
X6061993Y1774796D01*
X6062582Y1775991D01*
X6063322Y1777098D01*
X6064200Y1778100D01*
X6065201Y1778978D01*
X6066309Y1779718D01*
X6067503Y1780307D01*
X6068765Y1780735D01*
X6070071Y1780995D01*
X6071400Y1781082D01*
X6171400D01*
X6172729Y1780995D01*
D02*
G37*
G36*
X6020329D02*
X6021635Y1780735D01*
X6022897Y1780307D01*
X6024091Y1779718D01*
X6025199Y1778978D01*
X6026200Y1778100D01*
X6027078Y1777098D01*
X6027818Y1775991D01*
X6028407Y1774796D01*
X6028835Y1773535D01*
X6029095Y1772229D01*
X6029182Y1770900D01*
Y1690840D01*
X6029095Y1689511D01*
X6028835Y1688205D01*
X6028407Y1686944D01*
X6027818Y1685749D01*
X6027078Y1684642D01*
X6026200Y1683641D01*
X6011259Y1668700D01*
X6010258Y1667822D01*
X6009150Y1667082D01*
X6007956Y1666493D01*
X6006695Y1666065D01*
X6005389Y1665805D01*
X6004060Y1665718D01*
X5933940D01*
X5932611Y1665805D01*
X5931305Y1666065D01*
X5930044Y1666493D01*
X5928849Y1667082D01*
X5927742Y1667822D01*
X5926740Y1668700D01*
X5911800Y1683641D01*
X5910922Y1684642D01*
X5910182Y1685749D01*
X5909593Y1686944D01*
X5909165Y1688205D01*
X5908905Y1689511D01*
X5908818Y1690840D01*
Y1770900D01*
X5908905Y1772229D01*
X5909165Y1773535D01*
X5909593Y1774796D01*
X5910182Y1775991D01*
X5910922Y1777098D01*
X5911800Y1778100D01*
X5912801Y1778978D01*
X5913909Y1779718D01*
X5915103Y1780307D01*
X5916365Y1780735D01*
X5917671Y1780995D01*
X5919000Y1781082D01*
X6019000D01*
X6020329Y1780995D01*
D02*
G37*
G36*
X5715529D02*
X5716835Y1780735D01*
X5718097Y1780307D01*
X5719291Y1779718D01*
X5720399Y1778978D01*
X5721400Y1778100D01*
X5722278Y1777098D01*
X5723018Y1775991D01*
X5723607Y1774796D01*
X5724035Y1773535D01*
X5724295Y1772229D01*
X5724382Y1770900D01*
Y1690840D01*
X5724295Y1689511D01*
X5724035Y1688205D01*
X5723607Y1686944D01*
X5723018Y1685749D01*
X5722278Y1684642D01*
X5721400Y1683641D01*
X5706459Y1668700D01*
X5705458Y1667822D01*
X5704350Y1667082D01*
X5703156Y1666493D01*
X5701895Y1666065D01*
X5700589Y1665805D01*
X5699260Y1665718D01*
X5629140D01*
X5627811Y1665805D01*
X5626505Y1666065D01*
X5625244Y1666493D01*
X5624049Y1667082D01*
X5622942Y1667822D01*
X5621940Y1668700D01*
X5607000Y1683641D01*
X5606122Y1684642D01*
X5605382Y1685749D01*
X5604793Y1686944D01*
X5604365Y1688205D01*
X5604105Y1689511D01*
X5604018Y1690840D01*
Y1770900D01*
X5604105Y1772229D01*
X5604365Y1773535D01*
X5604793Y1774796D01*
X5605382Y1775991D01*
X5606122Y1777098D01*
X5607000Y1778100D01*
X5608001Y1778978D01*
X5609109Y1779718D01*
X5610303Y1780307D01*
X5611565Y1780735D01*
X5612871Y1780995D01*
X5614200Y1781082D01*
X5714200D01*
X5715529Y1780995D01*
D02*
G37*
G36*
X1365979Y1908095D02*
X1367285Y1907835D01*
X1368547Y1907407D01*
X1369741Y1906818D01*
X1370848Y1906078D01*
X1371850Y1905200D01*
X1390600Y1886450D01*
X1391478Y1885448D01*
X1392218Y1884341D01*
X1392807Y1883147D01*
X1393235Y1881885D01*
X1393495Y1880579D01*
X1393582Y1879250D01*
Y1676750D01*
X1393495Y1675421D01*
X1393235Y1674115D01*
X1392807Y1672853D01*
X1392218Y1671659D01*
X1391478Y1670552D01*
X1390600Y1669550D01*
X1371850Y1650800D01*
X1370848Y1649922D01*
X1369741Y1649182D01*
X1368547Y1648593D01*
X1367285Y1648165D01*
X1365979Y1647905D01*
X1364650Y1647818D01*
X1233400D01*
X1232071Y1647905D01*
X1230765Y1648165D01*
X1229504Y1648593D01*
X1228309Y1649182D01*
X1227202Y1649922D01*
X1226200Y1650800D01*
X1225322Y1651802D01*
X1224582Y1652909D01*
X1223993Y1654104D01*
X1223565Y1655365D01*
X1223305Y1656671D01*
X1223218Y1658000D01*
Y1898000D01*
X1223305Y1899329D01*
X1223565Y1900635D01*
X1223993Y1901896D01*
X1224582Y1903091D01*
X1225322Y1904198D01*
X1226200Y1905200D01*
X1227202Y1906078D01*
X1228309Y1906818D01*
X1229504Y1907407D01*
X1230765Y1907835D01*
X1232071Y1908095D01*
X1233400Y1908182D01*
X1364650D01*
X1365979Y1908095D01*
D02*
G37*
G36*
X1104729D02*
X1106035Y1907835D01*
X1107296Y1907407D01*
X1108491Y1906818D01*
X1109598Y1906078D01*
X1110600Y1905200D01*
X1111478Y1904198D01*
X1112218Y1903091D01*
X1112807Y1901896D01*
X1113235Y1900635D01*
X1113495Y1899329D01*
X1113582Y1898000D01*
Y1658000D01*
X1113495Y1656671D01*
X1113235Y1655365D01*
X1112807Y1654104D01*
X1112218Y1652909D01*
X1111478Y1651802D01*
X1110600Y1650800D01*
X1109598Y1649922D01*
X1108491Y1649182D01*
X1107296Y1648593D01*
X1106035Y1648165D01*
X1104729Y1647905D01*
X1103400Y1647818D01*
X972150D01*
X970821Y1647905D01*
X969515Y1648165D01*
X968253Y1648593D01*
X967059Y1649182D01*
X965952Y1649922D01*
X964950Y1650800D01*
X946200Y1669550D01*
X945322Y1670552D01*
X944582Y1671659D01*
X943993Y1672853D01*
X943565Y1674115D01*
X943305Y1675421D01*
X943218Y1676750D01*
Y1879250D01*
X943305Y1880579D01*
X943565Y1881885D01*
X943993Y1883147D01*
X944582Y1884341D01*
X945322Y1885448D01*
X946200Y1886450D01*
X964950Y1905200D01*
X965952Y1906078D01*
X967059Y1906818D01*
X968253Y1907407D01*
X969515Y1907835D01*
X970821Y1908095D01*
X972150Y1908182D01*
X1103400D01*
X1104729Y1908095D01*
D02*
G37*
G36*
X8367589Y1686995D02*
X8368895Y1686735D01*
X8370156Y1686307D01*
X8371351Y1685718D01*
X8372458Y1684978D01*
X8373460Y1684100D01*
X8388400Y1669159D01*
X8389278Y1668158D01*
X8390018Y1667051D01*
X8390607Y1665856D01*
X8391035Y1664595D01*
X8391295Y1663289D01*
X8391382Y1661960D01*
Y1581900D01*
X8391295Y1580571D01*
X8391035Y1579265D01*
X8390607Y1578004D01*
X8390018Y1576809D01*
X8389278Y1575702D01*
X8388400Y1574700D01*
X8387399Y1573822D01*
X8386291Y1573082D01*
X8385097Y1572493D01*
X8383835Y1572065D01*
X8382529Y1571805D01*
X8381200Y1571718D01*
X8281200D01*
X8279871Y1571805D01*
X8278565Y1572065D01*
X8277303Y1572493D01*
X8276109Y1573082D01*
X8275001Y1573822D01*
X8274000Y1574700D01*
X8273122Y1575702D01*
X8272382Y1576809D01*
X8271793Y1578004D01*
X8271365Y1579265D01*
X8271105Y1580571D01*
X8271018Y1581900D01*
Y1661960D01*
X8271105Y1663289D01*
X8271365Y1664595D01*
X8271793Y1665856D01*
X8272382Y1667051D01*
X8273122Y1668158D01*
X8274000Y1669159D01*
X8288941Y1684100D01*
X8289942Y1684978D01*
X8291050Y1685718D01*
X8292244Y1686307D01*
X8293505Y1686735D01*
X8294811Y1686995D01*
X8296140Y1687082D01*
X8366260D01*
X8367589Y1686995D01*
D02*
G37*
G36*
X5141789Y1614595D02*
X5143095Y1614335D01*
X5144356Y1613907D01*
X5145551Y1613318D01*
X5146658Y1612578D01*
X5147659Y1611700D01*
X5162600Y1596760D01*
X5163478Y1595758D01*
X5164218Y1594651D01*
X5164807Y1593456D01*
X5165235Y1592195D01*
X5165495Y1590889D01*
X5165582Y1589560D01*
Y1509500D01*
X5165495Y1508171D01*
X5165235Y1506865D01*
X5164807Y1505604D01*
X5164218Y1504409D01*
X5163478Y1503302D01*
X5162600Y1502301D01*
X5161599Y1501422D01*
X5160491Y1500683D01*
X5159297Y1500093D01*
X5158035Y1499665D01*
X5156729Y1499405D01*
X5155400Y1499318D01*
X5055400D01*
X5054071Y1499405D01*
X5052765Y1499665D01*
X5051503Y1500093D01*
X5050309Y1500683D01*
X5049201Y1501422D01*
X5048200Y1502301D01*
X5047322Y1503302D01*
X5046582Y1504409D01*
X5045993Y1505604D01*
X5045565Y1506865D01*
X5045305Y1508171D01*
X5045218Y1509500D01*
X5045218Y1589560D01*
X5045305Y1590889D01*
X5045565Y1592195D01*
X5045993Y1593457D01*
X5046582Y1594651D01*
X5047322Y1595758D01*
X5048200Y1596760D01*
X5063140Y1611700D01*
X5064142Y1612578D01*
X5065249Y1613318D01*
X5066444Y1613907D01*
X5067705Y1614335D01*
X5069011Y1614595D01*
X5070340Y1614682D01*
X5140460D01*
X5141789Y1614595D01*
D02*
G37*
G36*
X8382529Y1526995D02*
X8383835Y1526735D01*
X8385097Y1526307D01*
X8386291Y1525718D01*
X8387399Y1524978D01*
X8388400Y1524100D01*
X8389278Y1523098D01*
X8390018Y1521991D01*
X8390607Y1520796D01*
X8391035Y1519535D01*
X8391295Y1518229D01*
X8391382Y1516900D01*
X8391382Y1436840D01*
X8391295Y1435511D01*
X8391035Y1434205D01*
X8390607Y1432944D01*
X8390018Y1431749D01*
X8389278Y1430642D01*
X8388400Y1429641D01*
X8373460Y1414700D01*
X8372458Y1413822D01*
X8371351Y1413082D01*
X8370156Y1412493D01*
X8368895Y1412065D01*
X8367589Y1411805D01*
X8366260Y1411718D01*
X8296140D01*
X8294811Y1411805D01*
X8293505Y1412065D01*
X8292244Y1412493D01*
X8291049Y1413082D01*
X8289942Y1413822D01*
X8288941Y1414700D01*
X8274000Y1429641D01*
X8273122Y1430642D01*
X8272382Y1431749D01*
X8271793Y1432944D01*
X8271365Y1434205D01*
X8271105Y1435511D01*
X8271018Y1436840D01*
Y1516900D01*
X8271105Y1518229D01*
X8271365Y1519535D01*
X8271793Y1520796D01*
X8272382Y1521991D01*
X8273122Y1523098D01*
X8274000Y1524100D01*
X8275001Y1524978D01*
X8276109Y1525718D01*
X8277303Y1526307D01*
X8278565Y1526735D01*
X8279871Y1526995D01*
X8281200Y1527082D01*
X8381200D01*
X8382529Y1526995D01*
D02*
G37*
G36*
X5156729Y1454595D02*
X5158035Y1454335D01*
X5159297Y1453907D01*
X5160491Y1453318D01*
X5161599Y1452578D01*
X5162600Y1451700D01*
X5163478Y1450698D01*
X5164218Y1449591D01*
X5164807Y1448396D01*
X5165235Y1447135D01*
X5165495Y1445829D01*
X5165582Y1444500D01*
Y1364440D01*
X5165495Y1363111D01*
X5165235Y1361805D01*
X5164807Y1360544D01*
X5164218Y1359349D01*
X5163478Y1358242D01*
X5162600Y1357241D01*
X5147659Y1342300D01*
X5146658Y1341422D01*
X5145550Y1340682D01*
X5144356Y1340093D01*
X5143095Y1339665D01*
X5141789Y1339405D01*
X5140460Y1339318D01*
X5070340D01*
X5069011Y1339405D01*
X5067705Y1339665D01*
X5066444Y1340093D01*
X5065249Y1340682D01*
X5064142Y1341422D01*
X5063140Y1342300D01*
X5048200Y1357241D01*
X5047322Y1358242D01*
X5046582Y1359349D01*
X5045993Y1360544D01*
X5045565Y1361805D01*
X5045305Y1363111D01*
X5045218Y1364440D01*
Y1444500D01*
X5045305Y1445829D01*
X5045565Y1447135D01*
X5045993Y1448396D01*
X5046582Y1449591D01*
X5047322Y1450698D01*
X5048200Y1451700D01*
X5049201Y1452578D01*
X5050309Y1453318D01*
X5051503Y1453907D01*
X5052765Y1454335D01*
X5054071Y1454595D01*
X5055400Y1454682D01*
X5155400D01*
X5156729Y1454595D01*
D02*
G37*
G36*
X4795640Y1305976D02*
X4796130Y1305928D01*
X4796853Y1305708D01*
X4797073Y1305642D01*
X4797941Y1305177D01*
X4798703Y1304553D01*
X4807251Y1296004D01*
X4807253Y1296003D01*
X4807534Y1295660D01*
X4807878Y1295241D01*
X4808342Y1294373D01*
X4808628Y1293430D01*
X4808724Y1292450D01*
X4808724Y1292448D01*
Y1247552D01*
X4808724Y1247550D01*
X4808676Y1247060D01*
X4808628Y1246570D01*
X4808408Y1245847D01*
X4808342Y1245627D01*
X4807878Y1244759D01*
X4807253Y1243997D01*
X4798704Y1235449D01*
X4798703Y1235447D01*
X4798360Y1235166D01*
X4797941Y1234823D01*
X4797073Y1234358D01*
X4796130Y1234072D01*
X4795150Y1233976D01*
X4795148Y1233976D01*
X4746700D01*
X4745720Y1234072D01*
X4744777Y1234358D01*
X4743909Y1234823D01*
X4743147Y1235447D01*
X4742523Y1236209D01*
X4742058Y1237078D01*
X4741772Y1238020D01*
X4741676Y1239000D01*
Y1301000D01*
X4741772Y1301980D01*
X4742058Y1302922D01*
X4742523Y1303791D01*
X4743147Y1304553D01*
X4743909Y1305177D01*
X4744777Y1305642D01*
X4745720Y1305928D01*
X4746700Y1306024D01*
X4795148D01*
X4795150Y1306024D01*
X4795640Y1305976D01*
D02*
G37*
G36*
X4659253Y1306024D02*
X4707700D01*
X4708680Y1305928D01*
X4709623Y1305642D01*
X4710491Y1305177D01*
X4711253Y1304553D01*
X4711878Y1303791D01*
X4712342Y1302922D01*
X4712628Y1301980D01*
X4712724Y1301000D01*
Y1239000D01*
X4712628Y1238020D01*
X4712342Y1237078D01*
X4711878Y1236209D01*
X4711253Y1235447D01*
X4710491Y1234823D01*
X4709623Y1234358D01*
X4708680Y1234072D01*
X4707700Y1233976D01*
X4659253D01*
X4659250Y1233976D01*
X4658270Y1234072D01*
X4657327Y1234358D01*
X4656459Y1234823D01*
X4656040Y1235166D01*
X4655697Y1235447D01*
X4655696Y1235449D01*
X4647147Y1243997D01*
X4646523Y1244759D01*
X4646059Y1245627D01*
X4645992Y1245847D01*
X4645773Y1246570D01*
X4645724Y1247060D01*
X4645676Y1247550D01*
X4645676Y1247552D01*
Y1292448D01*
X4645676Y1292450D01*
X4645773Y1293430D01*
X4646059Y1294373D01*
X4646523Y1295241D01*
X4646866Y1295660D01*
X4647147Y1296003D01*
X4647149Y1296004D01*
X4655697Y1304553D01*
X4656459Y1305177D01*
X4657327Y1305642D01*
X4657547Y1305708D01*
X4658270Y1305928D01*
X4658760Y1305976D01*
X4659250Y1306024D01*
X4659253Y1306024D01*
D02*
G37*
G36*
X4790040Y1153576D02*
X4790530Y1153528D01*
X4791253Y1153308D01*
X4791473Y1153242D01*
X4792341Y1152777D01*
X4793103Y1152153D01*
X4801651Y1143604D01*
X4801653Y1143603D01*
X4801934Y1143260D01*
X4802277Y1142841D01*
X4802741Y1141973D01*
X4803027Y1141030D01*
X4803124Y1140050D01*
X4803124Y1140048D01*
Y1095152D01*
X4803124Y1095150D01*
X4803076Y1094660D01*
X4803027Y1094170D01*
X4802808Y1093447D01*
X4802741Y1093227D01*
X4802277Y1092359D01*
X4801653Y1091597D01*
X4793104Y1083049D01*
X4793103Y1083047D01*
X4792760Y1082766D01*
X4792341Y1082423D01*
X4791473Y1081958D01*
X4790530Y1081672D01*
X4789550Y1081576D01*
X4789547Y1081576D01*
X4741100D01*
X4740120Y1081672D01*
X4739177Y1081958D01*
X4738309Y1082423D01*
X4737547Y1083047D01*
X4736922Y1083809D01*
X4736458Y1084678D01*
X4736172Y1085620D01*
X4736076Y1086600D01*
Y1148600D01*
X4736172Y1149580D01*
X4736458Y1150522D01*
X4736922Y1151391D01*
X4737547Y1152153D01*
X4738309Y1152777D01*
X4739177Y1153242D01*
X4740120Y1153528D01*
X4741100Y1153624D01*
X4789547D01*
X4789550Y1153624D01*
X4790040Y1153576D01*
D02*
G37*
G36*
X4653652Y1153624D02*
X4702100D01*
X4703080Y1153528D01*
X4704023Y1153242D01*
X4704891Y1152777D01*
X4705653Y1152153D01*
X4706277Y1151391D01*
X4706742Y1150522D01*
X4707028Y1149580D01*
X4707124Y1148600D01*
Y1086600D01*
X4707028Y1085620D01*
X4706742Y1084678D01*
X4706277Y1083809D01*
X4705653Y1083047D01*
X4704891Y1082423D01*
X4704023Y1081958D01*
X4703080Y1081672D01*
X4702100Y1081576D01*
X4653652D01*
X4653650Y1081576D01*
X4652670Y1081672D01*
X4651727Y1081958D01*
X4650859Y1082423D01*
X4650440Y1082766D01*
X4650097Y1083047D01*
X4650096Y1083049D01*
X4641547Y1091597D01*
X4640922Y1092359D01*
X4640458Y1093227D01*
X4640392Y1093447D01*
X4640172Y1094170D01*
X4640124Y1094660D01*
X4640076Y1095150D01*
X4640076Y1095152D01*
Y1140048D01*
X4640076Y1140050D01*
X4640172Y1141030D01*
X4640458Y1141973D01*
X4640922Y1142841D01*
X4641266Y1143260D01*
X4641547Y1143603D01*
X4641549Y1143604D01*
X4650097Y1152153D01*
X4650859Y1152777D01*
X4651727Y1153242D01*
X4651946Y1153308D01*
X4652670Y1153528D01*
X4653160Y1153576D01*
X4653650Y1153624D01*
X4653652Y1153624D01*
D02*
G37*
G36*
X7222879Y1399195D02*
X7224185Y1398935D01*
X7225447Y1398507D01*
X7226641Y1397918D01*
X7227749Y1397178D01*
X7228750Y1396300D01*
X7287500Y1337550D01*
X7288378Y1336549D01*
X7289118Y1335441D01*
X7289707Y1334247D01*
X7290135Y1332985D01*
X7290395Y1331679D01*
X7290482Y1330350D01*
Y959100D01*
X7290395Y957771D01*
X7290135Y956465D01*
X7289707Y955204D01*
X7289118Y954009D01*
X7288378Y952902D01*
X7287500Y951900D01*
X7286499Y951022D01*
X7285391Y950282D01*
X7284197Y949693D01*
X7282935Y949265D01*
X7281629Y949005D01*
X7280300Y948918D01*
X7045300D01*
X7043971Y949005D01*
X7042665Y949265D01*
X7041403Y949693D01*
X7040209Y950282D01*
X7039101Y951022D01*
X7038100Y951900D01*
X7037222Y952902D01*
X7036482Y954009D01*
X7035893Y955204D01*
X7035465Y956465D01*
X7035205Y957771D01*
X7035118Y959100D01*
Y1330350D01*
X7035205Y1331679D01*
X7035465Y1332985D01*
X7035893Y1334247D01*
X7036482Y1335441D01*
X7037222Y1336549D01*
X7038100Y1337550D01*
X7096850Y1396300D01*
X7097851Y1397178D01*
X7098959Y1397918D01*
X7100153Y1398507D01*
X7101415Y1398935D01*
X7102721Y1399195D01*
X7104050Y1399282D01*
X7221550D01*
X7222879Y1399195D01*
D02*
G37*
G36*
X6411789Y1001195D02*
X6413095Y1000935D01*
X6414356Y1000507D01*
X6415551Y999918D01*
X6416658Y999178D01*
X6417660Y998300D01*
X6432600Y983359D01*
X6433478Y982358D01*
X6434218Y981251D01*
X6434807Y980056D01*
X6435235Y978795D01*
X6435495Y977489D01*
X6435582Y976160D01*
Y896100D01*
X6435495Y894771D01*
X6435235Y893465D01*
X6434807Y892204D01*
X6434218Y891009D01*
X6433478Y889902D01*
X6432600Y888900D01*
X6431599Y888022D01*
X6430491Y887282D01*
X6429297Y886693D01*
X6428035Y886265D01*
X6426729Y886005D01*
X6425400Y885918D01*
X6325400D01*
X6324071Y886005D01*
X6322765Y886265D01*
X6321503Y886693D01*
X6320309Y887282D01*
X6319201Y888022D01*
X6318200Y888900D01*
X6317322Y889902D01*
X6316582Y891009D01*
X6315993Y892204D01*
X6315565Y893465D01*
X6315305Y894771D01*
X6315218Y896100D01*
Y976160D01*
X6315305Y977489D01*
X6315565Y978795D01*
X6315993Y980056D01*
X6316582Y981251D01*
X6317322Y982358D01*
X6318200Y983359D01*
X6333141Y998300D01*
X6334142Y999178D01*
X6335250Y999918D01*
X6336444Y1000507D01*
X6337705Y1000935D01*
X6339011Y1001195D01*
X6340340Y1001282D01*
X6410460D01*
X6411789Y1001195D01*
D02*
G37*
G36*
X6106989D02*
X6108295Y1000935D01*
X6109556Y1000507D01*
X6110751Y999918D01*
X6111858Y999178D01*
X6112860Y998300D01*
X6127800Y983359D01*
X6128678Y982358D01*
X6129418Y981251D01*
X6130007Y980056D01*
X6130435Y978795D01*
X6130695Y977489D01*
X6130782Y976160D01*
Y896100D01*
X6130695Y894771D01*
X6130435Y893465D01*
X6130007Y892204D01*
X6129418Y891009D01*
X6128678Y889902D01*
X6127800Y888900D01*
X6126799Y888022D01*
X6125691Y887282D01*
X6124497Y886693D01*
X6123235Y886265D01*
X6121929Y886005D01*
X6120600Y885918D01*
X6020600D01*
X6019271Y886005D01*
X6017965Y886265D01*
X6016703Y886693D01*
X6015509Y887282D01*
X6014401Y888022D01*
X6013400Y888900D01*
X6012522Y889902D01*
X6011782Y891009D01*
X6011193Y892204D01*
X6010765Y893465D01*
X6010505Y894771D01*
X6010418Y896100D01*
Y976160D01*
X6010505Y977489D01*
X6010765Y978795D01*
X6011193Y980056D01*
X6011782Y981251D01*
X6012522Y982358D01*
X6013400Y983359D01*
X6028341Y998300D01*
X6029342Y999178D01*
X6030450Y999918D01*
X6031644Y1000507D01*
X6032905Y1000935D01*
X6034211Y1001195D01*
X6035540Y1001282D01*
X6105660D01*
X6106989Y1001195D01*
D02*
G37*
G36*
X5701540Y950376D02*
X5702030Y950328D01*
X5702753Y950108D01*
X5702973Y950042D01*
X5703841Y949577D01*
X5704603Y948953D01*
X5718851Y934704D01*
X5718853Y934703D01*
X5719477Y933941D01*
X5719942Y933073D01*
X5720008Y932853D01*
X5720228Y932130D01*
X5720324Y931150D01*
Y897653D01*
X5720324Y897650D01*
X5720276Y897160D01*
X5720228Y896670D01*
X5720008Y895947D01*
X5719942Y895727D01*
X5719478Y894859D01*
X5718853Y894097D01*
X5704604Y879849D01*
X5704603Y879847D01*
X5703841Y879223D01*
X5702973Y878758D01*
X5702753Y878692D01*
X5702030Y878472D01*
X5701050Y878376D01*
X5658300D01*
X5657320Y878472D01*
X5656377Y878758D01*
X5655509Y879223D01*
X5654747Y879847D01*
X5654123Y880609D01*
X5653658Y881478D01*
X5653372Y882420D01*
X5653276Y883400D01*
Y945400D01*
X5653372Y946380D01*
X5653658Y947322D01*
X5654123Y948191D01*
X5654747Y948953D01*
X5655509Y949577D01*
X5656377Y950042D01*
X5657320Y950328D01*
X5658300Y950424D01*
X5701048D01*
X5701050Y950424D01*
X5701540Y950376D01*
D02*
G37*
G36*
X5576552Y950424D02*
X5619300D01*
X5620280Y950328D01*
X5621223Y950042D01*
X5622091Y949577D01*
X5622853Y948953D01*
X5623477Y948191D01*
X5623942Y947322D01*
X5624228Y946380D01*
X5624324Y945400D01*
Y883400D01*
X5624228Y882420D01*
X5623942Y881478D01*
X5623477Y880609D01*
X5622853Y879847D01*
X5622091Y879223D01*
X5621223Y878758D01*
X5620280Y878472D01*
X5619300Y878376D01*
X5576550D01*
X5575570Y878472D01*
X5574847Y878692D01*
X5574627Y878758D01*
X5573759Y879223D01*
X5572997Y879847D01*
X5572996Y879849D01*
X5558747Y894097D01*
X5558122Y894859D01*
X5557658Y895727D01*
X5557592Y895947D01*
X5557372Y896670D01*
X5557324Y897160D01*
X5557276Y897650D01*
X5557276Y897653D01*
Y931150D01*
X5557372Y932130D01*
X5557592Y932853D01*
X5557658Y933073D01*
X5558123Y933941D01*
X5558747Y934703D01*
X5558749Y934704D01*
X5572997Y948953D01*
X5573759Y949577D01*
X5574627Y950042D01*
X5574847Y950108D01*
X5575570Y950328D01*
X5576060Y950376D01*
X5576550Y950424D01*
X5576552Y950424D01*
D02*
G37*
G36*
X4836989Y975795D02*
X4838295Y975535D01*
X4839556Y975107D01*
X4840751Y974518D01*
X4841858Y973778D01*
X4842859Y972900D01*
X4857800Y957959D01*
X4858678Y956958D01*
X4859418Y955851D01*
X4860007Y954656D01*
X4860435Y953395D01*
X4860695Y952089D01*
X4860782Y950760D01*
Y870700D01*
X4860695Y869371D01*
X4860435Y868065D01*
X4860007Y866804D01*
X4859418Y865609D01*
X4858678Y864502D01*
X4857800Y863500D01*
X4856799Y862622D01*
X4855691Y861882D01*
X4854497Y861293D01*
X4853235Y860865D01*
X4851929Y860605D01*
X4850600Y860518D01*
X4750600D01*
X4749271Y860605D01*
X4747965Y860865D01*
X4746703Y861293D01*
X4745509Y861882D01*
X4744401Y862622D01*
X4743400Y863500D01*
X4742522Y864502D01*
X4741782Y865609D01*
X4741193Y866804D01*
X4740765Y868065D01*
X4740505Y869371D01*
X4740418Y870700D01*
X4740418Y950760D01*
X4740505Y952089D01*
X4740765Y953395D01*
X4741193Y954656D01*
X4741782Y955851D01*
X4742522Y956958D01*
X4743400Y957959D01*
X4758340Y972900D01*
X4759342Y973778D01*
X4760449Y974518D01*
X4761644Y975107D01*
X4762905Y975535D01*
X4764211Y975795D01*
X4765540Y975882D01*
X4835660D01*
X4836989Y975795D01*
D02*
G37*
G36*
X5712540Y792676D02*
X5713030Y792628D01*
X5713753Y792408D01*
X5713973Y792342D01*
X5714841Y791878D01*
X5715603Y791253D01*
X5724151Y782704D01*
X5724153Y782703D01*
X5724434Y782360D01*
X5724777Y781941D01*
X5725242Y781073D01*
X5725528Y780130D01*
X5725624Y779150D01*
X5725624Y779148D01*
Y730700D01*
X5725528Y729720D01*
X5725242Y728777D01*
X5724777Y727909D01*
X5724153Y727147D01*
X5723391Y726523D01*
X5722522Y726058D01*
X5721580Y725772D01*
X5720600Y725676D01*
X5658600D01*
X5657620Y725772D01*
X5656678Y726058D01*
X5655809Y726523D01*
X5655047Y727147D01*
X5654423Y727909D01*
X5653958Y728777D01*
X5653672Y729720D01*
X5653576Y730700D01*
Y779148D01*
X5653576Y779150D01*
X5653624Y779640D01*
X5653672Y780130D01*
X5653892Y780853D01*
X5653958Y781073D01*
X5654423Y781941D01*
X5655047Y782703D01*
X5663596Y791251D01*
X5663597Y791253D01*
X5663940Y791534D01*
X5664359Y791878D01*
X5665227Y792342D01*
X5666170Y792628D01*
X5667150Y792724D01*
X5667152Y792724D01*
X5712048D01*
X5712050Y792724D01*
X5712540Y792676D01*
D02*
G37*
G36*
X5610940D02*
X5611430Y792628D01*
X5612153Y792408D01*
X5612373Y792342D01*
X5613241Y791878D01*
X5614003Y791253D01*
X5622551Y782704D01*
X5622553Y782703D01*
X5622834Y782360D01*
X5623177Y781941D01*
X5623642Y781073D01*
X5623928Y780130D01*
X5624024Y779150D01*
X5624024Y779148D01*
Y730700D01*
X5623928Y729720D01*
X5623642Y728777D01*
X5623177Y727909D01*
X5622553Y727147D01*
X5621791Y726523D01*
X5620922Y726058D01*
X5619980Y725772D01*
X5619000Y725676D01*
X5557000D01*
X5556020Y725772D01*
X5555078Y726058D01*
X5554209Y726523D01*
X5553447Y727147D01*
X5552823Y727909D01*
X5552358Y728777D01*
X5552072Y729720D01*
X5551976Y730700D01*
Y779148D01*
X5551976Y779150D01*
X5552024Y779640D01*
X5552072Y780130D01*
X5552292Y780853D01*
X5552358Y781073D01*
X5552823Y781941D01*
X5553447Y782703D01*
X5561996Y791251D01*
X5561997Y791253D01*
X5562340Y791534D01*
X5562759Y791878D01*
X5563627Y792342D01*
X5564570Y792628D01*
X5565550Y792724D01*
X5565552Y792724D01*
X5610448D01*
X5610450Y792724D01*
X5610940Y792676D01*
D02*
G37*
G36*
X5421189Y877995D02*
X5422495Y877735D01*
X5423756Y877307D01*
X5424951Y876718D01*
X5426058Y875978D01*
X5427059Y875100D01*
X5442000Y860160D01*
X5442878Y859158D01*
X5443618Y858051D01*
X5444207Y856856D01*
X5444635Y855595D01*
X5444895Y854289D01*
X5444982Y852960D01*
Y772900D01*
X5444895Y771571D01*
X5444635Y770265D01*
X5444207Y769004D01*
X5443618Y767809D01*
X5442878Y766702D01*
X5442000Y765701D01*
X5440999Y764822D01*
X5439891Y764083D01*
X5438697Y763493D01*
X5437435Y763065D01*
X5436129Y762805D01*
X5434800Y762718D01*
X5334800D01*
X5333471Y762805D01*
X5332165Y763065D01*
X5330903Y763493D01*
X5329709Y764083D01*
X5328601Y764822D01*
X5327600Y765701D01*
X5326722Y766702D01*
X5325982Y767809D01*
X5325393Y769004D01*
X5324965Y770265D01*
X5324705Y771571D01*
X5324618Y772900D01*
X5324618Y852960D01*
X5324705Y854289D01*
X5324965Y855595D01*
X5325393Y856857D01*
X5325982Y858051D01*
X5326722Y859158D01*
X5327600Y860160D01*
X5342540Y875100D01*
X5343542Y875978D01*
X5344649Y876718D01*
X5345844Y877307D01*
X5347105Y877735D01*
X5348411Y877995D01*
X5349740Y878082D01*
X5419860D01*
X5421189Y877995D01*
D02*
G37*
G36*
X5268789Y877995D02*
X5270095Y877735D01*
X5271356Y877307D01*
X5272551Y876718D01*
X5273658Y875978D01*
X5274660Y875100D01*
X5289600Y860160D01*
X5290478Y859158D01*
X5291218Y858051D01*
X5291807Y856857D01*
X5292235Y855595D01*
X5292495Y854289D01*
X5292582Y852960D01*
Y772900D01*
X5292495Y771571D01*
X5292235Y770265D01*
X5291807Y769004D01*
X5291218Y767809D01*
X5290478Y766702D01*
X5289600Y765701D01*
X5288599Y764822D01*
X5287491Y764083D01*
X5286297Y763493D01*
X5285035Y763065D01*
X5283729Y762805D01*
X5282400Y762718D01*
X5182400D01*
X5181071Y762805D01*
X5179765Y763065D01*
X5178503Y763493D01*
X5177309Y764083D01*
X5176201Y764822D01*
X5175200Y765701D01*
X5174322Y766702D01*
X5173582Y767809D01*
X5172993Y769004D01*
X5172565Y770265D01*
X5172305Y771571D01*
X5172218Y772900D01*
Y852960D01*
X5172305Y854289D01*
X5172565Y855595D01*
X5172993Y856857D01*
X5173582Y858051D01*
X5174322Y859158D01*
X5175200Y860160D01*
X5190141Y875100D01*
X5191142Y875978D01*
X5192250Y876718D01*
X5193444Y877307D01*
X5194705Y877735D01*
X5196011Y877995D01*
X5197340Y878082D01*
X5267460D01*
X5268789Y877995D01*
D02*
G37*
G36*
X6426729Y841195D02*
X6428035Y840935D01*
X6429297Y840507D01*
X6430491Y839918D01*
X6431599Y839178D01*
X6432600Y838300D01*
X6433478Y837298D01*
X6434218Y836191D01*
X6434807Y834996D01*
X6435235Y833735D01*
X6435495Y832429D01*
X6435582Y831100D01*
X6435582Y751040D01*
X6435495Y749711D01*
X6435235Y748405D01*
X6434807Y747144D01*
X6434218Y745949D01*
X6433478Y744842D01*
X6432600Y743841D01*
X6417660Y728900D01*
X6416658Y728022D01*
X6415551Y727282D01*
X6414356Y726693D01*
X6413095Y726265D01*
X6411789Y726005D01*
X6410460Y725918D01*
X6340340D01*
X6339011Y726005D01*
X6337705Y726265D01*
X6336444Y726693D01*
X6335249Y727282D01*
X6334142Y728022D01*
X6333141Y728900D01*
X6318200Y743841D01*
X6317322Y744842D01*
X6316582Y745949D01*
X6315993Y747144D01*
X6315565Y748405D01*
X6315305Y749711D01*
X6315218Y751040D01*
Y831100D01*
X6315305Y832429D01*
X6315565Y833735D01*
X6315993Y834996D01*
X6316582Y836191D01*
X6317322Y837298D01*
X6318200Y838300D01*
X6319201Y839178D01*
X6320309Y839918D01*
X6321503Y840507D01*
X6322765Y840935D01*
X6324071Y841195D01*
X6325400Y841282D01*
X6425400D01*
X6426729Y841195D01*
D02*
G37*
G36*
X6121929D02*
X6123235Y840935D01*
X6124497Y840507D01*
X6125691Y839918D01*
X6126799Y839178D01*
X6127800Y838300D01*
X6128678Y837298D01*
X6129418Y836191D01*
X6130007Y834996D01*
X6130435Y833735D01*
X6130695Y832429D01*
X6130782Y831100D01*
X6130782Y751040D01*
X6130695Y749711D01*
X6130435Y748405D01*
X6130007Y747144D01*
X6129418Y745949D01*
X6128678Y744842D01*
X6127800Y743841D01*
X6112860Y728900D01*
X6111858Y728022D01*
X6110751Y727282D01*
X6109556Y726693D01*
X6108295Y726265D01*
X6106989Y726005D01*
X6105660Y725918D01*
X6035540D01*
X6034211Y726005D01*
X6032905Y726265D01*
X6031644Y726693D01*
X6030449Y727282D01*
X6029342Y728022D01*
X6028341Y728900D01*
X6013400Y743841D01*
X6012522Y744842D01*
X6011782Y745949D01*
X6011193Y747144D01*
X6010765Y748405D01*
X6010505Y749711D01*
X6010418Y751040D01*
Y831100D01*
X6010505Y832429D01*
X6010765Y833735D01*
X6011193Y834996D01*
X6011782Y836191D01*
X6012522Y837298D01*
X6013400Y838300D01*
X6014401Y839178D01*
X6015509Y839918D01*
X6016703Y840507D01*
X6017965Y840935D01*
X6019271Y841195D01*
X6020600Y841282D01*
X6120600D01*
X6121929Y841195D01*
D02*
G37*
G36*
X1942689Y822095D02*
X1943995Y821835D01*
X1945256Y821407D01*
X1946451Y820818D01*
X1947558Y820078D01*
X1948559Y819200D01*
X1963500Y804260D01*
X1964378Y803258D01*
X1965118Y802151D01*
X1965707Y800956D01*
X1966135Y799695D01*
X1966395Y798389D01*
X1966482Y797060D01*
Y726940D01*
X1966395Y725611D01*
X1966135Y724305D01*
X1965707Y723044D01*
X1965118Y721849D01*
X1964378Y720742D01*
X1963500Y719741D01*
X1948559Y704800D01*
X1947558Y703922D01*
X1946451Y703182D01*
X1945256Y702593D01*
X1943995Y702165D01*
X1942689Y701905D01*
X1941360Y701818D01*
X1861300D01*
X1859971Y701905D01*
X1858665Y702165D01*
X1857404Y702593D01*
X1856209Y703182D01*
X1855102Y703922D01*
X1854100Y704800D01*
X1853222Y705801D01*
X1852482Y706909D01*
X1851893Y708103D01*
X1851465Y709365D01*
X1851205Y710671D01*
X1851118Y712000D01*
Y812000D01*
X1851205Y813329D01*
X1851465Y814635D01*
X1851893Y815897D01*
X1852482Y817091D01*
X1853222Y818199D01*
X1854100Y819200D01*
X1855102Y820078D01*
X1856209Y820818D01*
X1857404Y821407D01*
X1858665Y821835D01*
X1859971Y822095D01*
X1861300Y822182D01*
X1941360Y822182D01*
X1942689Y822095D01*
D02*
G37*
G36*
X1797629Y822095D02*
X1798935Y821835D01*
X1800196Y821407D01*
X1801391Y820818D01*
X1802498Y820078D01*
X1803500Y819200D01*
X1804378Y818199D01*
X1805118Y817091D01*
X1805707Y815897D01*
X1806135Y814635D01*
X1806395Y813329D01*
X1806482Y812000D01*
Y712000D01*
X1806395Y710671D01*
X1806135Y709365D01*
X1805707Y708103D01*
X1805118Y706909D01*
X1804378Y705801D01*
X1803500Y704800D01*
X1802498Y703922D01*
X1801391Y703182D01*
X1800196Y702593D01*
X1798935Y702165D01*
X1797629Y701905D01*
X1796300Y701818D01*
X1716240D01*
X1714911Y701905D01*
X1713605Y702165D01*
X1712344Y702593D01*
X1711149Y703182D01*
X1710042Y703922D01*
X1709041Y704800D01*
X1694100Y719741D01*
X1693222Y720742D01*
X1692482Y721850D01*
X1691893Y723044D01*
X1691465Y724305D01*
X1691205Y725611D01*
X1691118Y726940D01*
Y797060D01*
X1691205Y798389D01*
X1691465Y799695D01*
X1691893Y800956D01*
X1692482Y802151D01*
X1693222Y803258D01*
X1694100Y804260D01*
X1709041Y819200D01*
X1710042Y820078D01*
X1711149Y820818D01*
X1712344Y821407D01*
X1713605Y821835D01*
X1714911Y822095D01*
X1716240Y822182D01*
X1796300D01*
X1797629Y822095D01*
D02*
G37*
G36*
X4851929Y815795D02*
X4853235Y815535D01*
X4854497Y815107D01*
X4855691Y814518D01*
X4856799Y813778D01*
X4857800Y812900D01*
X4858678Y811898D01*
X4859418Y810791D01*
X4860007Y809596D01*
X4860435Y808335D01*
X4860695Y807029D01*
X4860782Y805700D01*
Y725640D01*
X4860695Y724311D01*
X4860435Y723005D01*
X4860007Y721744D01*
X4859418Y720549D01*
X4858678Y719442D01*
X4857800Y718441D01*
X4842859Y703500D01*
X4841858Y702622D01*
X4840750Y701882D01*
X4839556Y701293D01*
X4838295Y700865D01*
X4836989Y700605D01*
X4835660Y700518D01*
X4765540D01*
X4764211Y700605D01*
X4762905Y700865D01*
X4761644Y701293D01*
X4760449Y701882D01*
X4759342Y702622D01*
X4758340Y703500D01*
X4743400Y718441D01*
X4742522Y719442D01*
X4741782Y720549D01*
X4741193Y721744D01*
X4740765Y723005D01*
X4740505Y724311D01*
X4740418Y725640D01*
Y805700D01*
X4740505Y807029D01*
X4740765Y808335D01*
X4741193Y809596D01*
X4741782Y810791D01*
X4742522Y811898D01*
X4743400Y812900D01*
X4744401Y813778D01*
X4745509Y814518D01*
X4746703Y815107D01*
X4747965Y815535D01*
X4749271Y815795D01*
X4750600Y815882D01*
X4850600D01*
X4851929Y815795D01*
D02*
G37*
G36*
X1365979Y892095D02*
X1367285Y891835D01*
X1368547Y891407D01*
X1369741Y890818D01*
X1370848Y890078D01*
X1371850Y889200D01*
X1390600Y870450D01*
X1391478Y869448D01*
X1392218Y868341D01*
X1392807Y867147D01*
X1393235Y865885D01*
X1393495Y864579D01*
X1393582Y863250D01*
Y660750D01*
X1393495Y659421D01*
X1393235Y658115D01*
X1392807Y656853D01*
X1392218Y655659D01*
X1391478Y654552D01*
X1390600Y653550D01*
X1371850Y634800D01*
X1370848Y633922D01*
X1369741Y633182D01*
X1368547Y632593D01*
X1367285Y632165D01*
X1365979Y631905D01*
X1364650Y631818D01*
X1233400D01*
X1232071Y631905D01*
X1230765Y632165D01*
X1229504Y632593D01*
X1228309Y633182D01*
X1227202Y633922D01*
X1226200Y634800D01*
X1225322Y635802D01*
X1224582Y636909D01*
X1223993Y638104D01*
X1223565Y639365D01*
X1223305Y640671D01*
X1223218Y642000D01*
Y882000D01*
X1223305Y883329D01*
X1223565Y884635D01*
X1223993Y885896D01*
X1224582Y887091D01*
X1225322Y888198D01*
X1226200Y889200D01*
X1227202Y890078D01*
X1228309Y890818D01*
X1229504Y891407D01*
X1230765Y891835D01*
X1232071Y892095D01*
X1233400Y892182D01*
X1364650D01*
X1365979Y892095D01*
D02*
G37*
G36*
X1104729D02*
X1106035Y891835D01*
X1107296Y891407D01*
X1108491Y890818D01*
X1109598Y890078D01*
X1110600Y889200D01*
X1111478Y888198D01*
X1112218Y887091D01*
X1112807Y885896D01*
X1113235Y884635D01*
X1113495Y883329D01*
X1113582Y882000D01*
Y642000D01*
X1113495Y640671D01*
X1113235Y639365D01*
X1112807Y638104D01*
X1112218Y636909D01*
X1111478Y635802D01*
X1110600Y634800D01*
X1109598Y633922D01*
X1108491Y633182D01*
X1107296Y632593D01*
X1106035Y632165D01*
X1104729Y631905D01*
X1103400Y631818D01*
X972150D01*
X970821Y631905D01*
X969515Y632165D01*
X968253Y632593D01*
X967059Y633182D01*
X965952Y633922D01*
X964950Y634800D01*
X946200Y653550D01*
X945322Y654552D01*
X944582Y655659D01*
X943993Y656853D01*
X943565Y658115D01*
X943305Y659421D01*
X943218Y660750D01*
Y863250D01*
X943305Y864579D01*
X943565Y865885D01*
X943993Y867147D01*
X944582Y868341D01*
X945322Y869448D01*
X946200Y870450D01*
X964950Y889200D01*
X965952Y890078D01*
X967059Y890818D01*
X968253Y891407D01*
X969515Y891835D01*
X970821Y892095D01*
X972150Y892182D01*
X1103400D01*
X1104729Y892095D01*
D02*
G37*
G36*
X5721580Y696628D02*
X5722522Y696342D01*
X5723391Y695877D01*
X5724153Y695253D01*
X5724777Y694491D01*
X5725242Y693623D01*
X5725528Y692680D01*
X5725624Y691700D01*
Y643252D01*
X5725624Y643250D01*
X5725528Y642270D01*
X5725242Y641327D01*
X5724777Y640459D01*
X5724434Y640040D01*
X5724153Y639697D01*
X5724151Y639696D01*
X5715603Y631147D01*
X5714841Y630522D01*
X5713973Y630058D01*
X5713753Y629992D01*
X5713030Y629772D01*
X5712540Y629724D01*
X5712050Y629676D01*
X5712048Y629676D01*
X5667152D01*
X5667150Y629676D01*
X5666170Y629772D01*
X5665227Y630058D01*
X5664359Y630522D01*
X5663940Y630866D01*
X5663597Y631147D01*
X5663596Y631149D01*
X5655047Y639697D01*
X5654423Y640459D01*
X5653958Y641327D01*
X5653892Y641547D01*
X5653672Y642270D01*
X5653624Y642760D01*
X5653576Y643250D01*
X5653576Y643252D01*
Y691700D01*
X5653672Y692680D01*
X5653958Y693623D01*
X5654423Y694491D01*
X5655047Y695253D01*
X5655809Y695877D01*
X5656678Y696342D01*
X5657620Y696628D01*
X5658600Y696724D01*
X5720600D01*
X5721580Y696628D01*
D02*
G37*
G36*
X5619980D02*
X5620922Y696342D01*
X5621791Y695877D01*
X5622553Y695253D01*
X5623177Y694491D01*
X5623642Y693623D01*
X5623928Y692680D01*
X5624024Y691700D01*
Y643252D01*
X5624024Y643250D01*
X5623928Y642270D01*
X5623642Y641327D01*
X5623177Y640459D01*
X5622834Y640040D01*
X5622553Y639697D01*
X5622551Y639696D01*
X5614003Y631147D01*
X5613241Y630522D01*
X5612373Y630058D01*
X5612153Y629992D01*
X5611430Y629772D01*
X5610940Y629724D01*
X5610450Y629676D01*
X5610448Y629676D01*
X5565552D01*
X5565550Y629676D01*
X5564570Y629772D01*
X5563627Y630058D01*
X5562759Y630522D01*
X5562340Y630866D01*
X5561997Y631147D01*
X5561996Y631149D01*
X5553447Y639697D01*
X5552823Y640459D01*
X5552358Y641327D01*
X5552292Y641547D01*
X5552072Y642270D01*
X5552024Y642760D01*
X5551976Y643250D01*
X5551976Y643252D01*
Y691700D01*
X5552072Y692680D01*
X5552358Y693623D01*
X5552823Y694491D01*
X5553447Y695253D01*
X5554209Y695877D01*
X5555078Y696342D01*
X5556020Y696628D01*
X5557000Y696724D01*
X5619000D01*
X5619980Y696628D01*
D02*
G37*
G36*
X5436129Y717995D02*
X5437435Y717735D01*
X5438697Y717307D01*
X5439891Y716718D01*
X5440999Y715978D01*
X5442000Y715100D01*
X5442878Y714098D01*
X5443618Y712991D01*
X5444207Y711796D01*
X5444635Y710535D01*
X5444895Y709229D01*
X5444982Y707900D01*
Y627840D01*
X5444895Y626511D01*
X5444635Y625205D01*
X5444207Y623944D01*
X5443618Y622749D01*
X5442878Y621642D01*
X5442000Y620641D01*
X5427059Y605700D01*
X5426058Y604822D01*
X5424950Y604082D01*
X5423756Y603493D01*
X5422495Y603065D01*
X5421189Y602805D01*
X5419860Y602718D01*
X5349740D01*
X5348411Y602805D01*
X5347105Y603065D01*
X5345844Y603493D01*
X5344649Y604082D01*
X5343542Y604822D01*
X5342540Y605700D01*
X5327600Y620641D01*
X5326722Y621642D01*
X5325982Y622749D01*
X5325393Y623944D01*
X5324965Y625205D01*
X5324705Y626511D01*
X5324618Y627840D01*
Y707900D01*
X5324705Y709229D01*
X5324965Y710535D01*
X5325393Y711796D01*
X5325982Y712991D01*
X5326722Y714098D01*
X5327600Y715100D01*
X5328601Y715978D01*
X5329709Y716718D01*
X5330903Y717307D01*
X5332165Y717735D01*
X5333471Y717995D01*
X5334800Y718082D01*
X5434800D01*
X5436129Y717995D01*
D02*
G37*
G36*
X5283729D02*
X5285035Y717735D01*
X5286297Y717307D01*
X5287491Y716718D01*
X5288599Y715978D01*
X5289600Y715100D01*
X5290478Y714098D01*
X5291218Y712991D01*
X5291807Y711796D01*
X5292235Y710535D01*
X5292495Y709229D01*
X5292582Y707900D01*
X5292582Y627840D01*
X5292495Y626511D01*
X5292235Y625205D01*
X5291807Y623944D01*
X5291218Y622749D01*
X5290478Y621642D01*
X5289600Y620641D01*
X5274660Y605700D01*
X5273658Y604822D01*
X5272551Y604082D01*
X5271356Y603493D01*
X5270095Y603065D01*
X5268789Y602805D01*
X5267460Y602718D01*
X5197340D01*
X5196011Y602805D01*
X5194705Y603065D01*
X5193444Y603493D01*
X5192249Y604082D01*
X5191142Y604822D01*
X5190141Y605700D01*
X5175200Y620641D01*
X5174322Y621642D01*
X5173582Y622749D01*
X5172993Y623944D01*
X5172565Y625205D01*
X5172305Y626511D01*
X5172218Y627840D01*
Y707900D01*
X5172305Y709229D01*
X5172565Y710535D01*
X5172993Y711796D01*
X5173582Y712991D01*
X5174322Y714098D01*
X5175200Y715100D01*
X5176201Y715978D01*
X5177309Y716718D01*
X5178503Y717307D01*
X5179765Y717735D01*
X5181071Y717995D01*
X5182400Y718082D01*
X5282400D01*
X5283729Y717995D01*
D02*
G37*
G36*
X6106989Y645595D02*
X6108295Y645335D01*
X6109556Y644907D01*
X6110751Y644318D01*
X6111858Y643578D01*
X6112860Y642700D01*
X6127800Y627759D01*
X6128678Y626758D01*
X6129418Y625651D01*
X6130007Y624456D01*
X6130435Y623195D01*
X6130695Y621889D01*
X6130782Y620560D01*
Y540500D01*
X6130695Y539171D01*
X6130435Y537865D01*
X6130007Y536604D01*
X6129418Y535409D01*
X6128678Y534302D01*
X6127800Y533300D01*
X6126799Y532422D01*
X6125691Y531682D01*
X6124497Y531093D01*
X6123235Y530665D01*
X6121929Y530405D01*
X6120600Y530318D01*
X6020600D01*
X6019271Y530405D01*
X6017965Y530665D01*
X6016703Y531093D01*
X6015509Y531682D01*
X6014401Y532422D01*
X6013400Y533300D01*
X6012522Y534302D01*
X6011782Y535409D01*
X6011193Y536604D01*
X6010765Y537865D01*
X6010505Y539171D01*
X6010418Y540500D01*
Y620560D01*
X6010505Y621889D01*
X6010765Y623195D01*
X6011193Y624456D01*
X6011782Y625651D01*
X6012522Y626758D01*
X6013400Y627759D01*
X6028341Y642700D01*
X6029342Y643578D01*
X6030450Y644318D01*
X6031644Y644907D01*
X6032905Y645335D01*
X6034211Y645595D01*
X6035540Y645682D01*
X6105660D01*
X6106989Y645595D01*
D02*
G37*
G36*
X5879689Y491895D02*
X5880995Y491635D01*
X5882256Y491207D01*
X5883451Y490618D01*
X5884558Y489878D01*
X5885559Y489000D01*
X5900500Y474060D01*
X5901378Y473058D01*
X5902118Y471951D01*
X5902707Y470756D01*
X5903135Y469495D01*
X5903395Y468189D01*
X5903482Y466860D01*
Y396740D01*
X5903395Y395411D01*
X5903135Y394105D01*
X5902707Y392844D01*
X5902118Y391649D01*
X5901378Y390542D01*
X5900500Y389541D01*
X5885559Y374600D01*
X5884558Y373722D01*
X5883451Y372982D01*
X5882256Y372393D01*
X5880995Y371965D01*
X5879689Y371705D01*
X5878360Y371618D01*
X5798300D01*
X5796971Y371705D01*
X5795665Y371965D01*
X5794404Y372393D01*
X5793209Y372982D01*
X5792102Y373722D01*
X5791100Y374600D01*
X5790222Y375601D01*
X5789482Y376709D01*
X5788893Y377903D01*
X5788465Y379165D01*
X5788205Y380471D01*
X5788118Y381800D01*
Y481800D01*
X5788205Y483129D01*
X5788465Y484435D01*
X5788893Y485697D01*
X5789482Y486891D01*
X5790222Y487999D01*
X5791100Y489000D01*
X5792102Y489878D01*
X5793209Y490618D01*
X5794404Y491207D01*
X5795665Y491635D01*
X5796971Y491895D01*
X5798300Y491982D01*
X5878360Y491982D01*
X5879689Y491895D01*
D02*
G37*
G36*
X5734629Y491895D02*
X5735935Y491635D01*
X5737196Y491207D01*
X5738391Y490618D01*
X5739498Y489878D01*
X5740500Y489000D01*
X5741378Y487999D01*
X5742118Y486891D01*
X5742707Y485697D01*
X5743135Y484435D01*
X5743395Y483129D01*
X5743482Y481800D01*
Y381800D01*
X5743395Y380471D01*
X5743135Y379165D01*
X5742707Y377903D01*
X5742118Y376709D01*
X5741378Y375601D01*
X5740500Y374600D01*
X5739498Y373722D01*
X5738391Y372982D01*
X5737196Y372393D01*
X5735935Y371965D01*
X5734629Y371705D01*
X5733300Y371618D01*
X5653240D01*
X5651911Y371705D01*
X5650605Y371965D01*
X5649344Y372393D01*
X5648149Y372982D01*
X5647042Y373722D01*
X5646041Y374600D01*
X5631100Y389541D01*
X5630222Y390542D01*
X5629482Y391650D01*
X5628893Y392844D01*
X5628465Y394105D01*
X5628205Y395411D01*
X5628118Y396740D01*
Y466860D01*
X5628205Y468189D01*
X5628465Y469495D01*
X5628893Y470756D01*
X5629482Y471951D01*
X5630222Y473058D01*
X5631100Y474060D01*
X5646041Y489000D01*
X5647042Y489878D01*
X5648149Y490618D01*
X5649344Y491207D01*
X5650605Y491635D01*
X5651911Y491895D01*
X5653240Y491982D01*
X5733300D01*
X5734629Y491895D01*
D02*
G37*
G36*
X5473289D02*
X5474595Y491635D01*
X5475856Y491207D01*
X5477051Y490618D01*
X5478158Y489878D01*
X5479159Y489000D01*
X5494100Y474059D01*
X5494978Y473058D01*
X5495718Y471950D01*
X5496307Y470756D01*
X5496735Y469495D01*
X5496995Y468189D01*
X5497082Y466860D01*
Y396740D01*
X5496995Y395411D01*
X5496735Y394105D01*
X5496307Y392844D01*
X5495718Y391649D01*
X5494978Y390542D01*
X5494100Y389540D01*
X5479159Y374600D01*
X5478158Y373722D01*
X5477051Y372982D01*
X5475856Y372393D01*
X5474595Y371965D01*
X5473289Y371705D01*
X5471960Y371618D01*
X5391900D01*
X5390571Y371705D01*
X5389265Y371965D01*
X5388004Y372393D01*
X5386809Y372982D01*
X5385702Y373722D01*
X5384700Y374600D01*
X5383822Y375601D01*
X5383082Y376709D01*
X5382493Y377903D01*
X5382065Y379165D01*
X5381805Y380471D01*
X5381718Y381800D01*
Y481800D01*
X5381805Y483129D01*
X5382065Y484435D01*
X5382493Y485697D01*
X5383082Y486891D01*
X5383822Y487999D01*
X5384700Y489000D01*
X5385702Y489878D01*
X5386809Y490618D01*
X5388004Y491207D01*
X5389265Y491635D01*
X5390571Y491895D01*
X5391900Y491982D01*
X5471960D01*
X5473289Y491895D01*
D02*
G37*
G36*
X5328229D02*
X5329535Y491635D01*
X5330796Y491207D01*
X5331991Y490618D01*
X5333098Y489878D01*
X5334100Y489000D01*
X5334978Y487999D01*
X5335718Y486891D01*
X5336307Y485697D01*
X5336735Y484435D01*
X5336995Y483129D01*
X5337082Y481800D01*
Y381800D01*
X5336995Y380471D01*
X5336735Y379165D01*
X5336307Y377903D01*
X5335718Y376709D01*
X5334978Y375601D01*
X5334100Y374600D01*
X5333098Y373722D01*
X5331991Y372982D01*
X5330796Y372393D01*
X5329535Y371965D01*
X5328229Y371705D01*
X5326900Y371618D01*
X5246840Y371618D01*
X5245511Y371705D01*
X5244205Y371965D01*
X5242944Y372393D01*
X5241749Y372982D01*
X5240642Y373722D01*
X5239641Y374600D01*
X5224700Y389540D01*
X5223822Y390542D01*
X5223082Y391649D01*
X5222493Y392844D01*
X5222065Y394105D01*
X5221805Y395411D01*
X5221718Y396740D01*
Y466860D01*
X5221805Y468189D01*
X5222065Y469495D01*
X5222493Y470756D01*
X5223082Y471951D01*
X5223822Y473058D01*
X5224700Y474059D01*
X5239641Y489000D01*
X5240642Y489878D01*
X5241749Y490618D01*
X5242944Y491207D01*
X5244205Y491635D01*
X5245511Y491895D01*
X5246840Y491982D01*
X5326900D01*
X5328229Y491895D01*
D02*
G37*
G36*
X6121929Y485595D02*
X6123235Y485335D01*
X6124497Y484907D01*
X6125691Y484318D01*
X6126799Y483578D01*
X6127800Y482700D01*
X6128678Y481698D01*
X6129418Y480591D01*
X6130007Y479396D01*
X6130435Y478135D01*
X6130695Y476829D01*
X6130782Y475500D01*
X6130782Y395440D01*
X6130695Y394111D01*
X6130435Y392805D01*
X6130007Y391544D01*
X6129418Y390349D01*
X6128678Y389242D01*
X6127800Y388241D01*
X6112860Y373300D01*
X6111858Y372422D01*
X6110751Y371682D01*
X6109556Y371093D01*
X6108295Y370665D01*
X6106989Y370405D01*
X6105660Y370318D01*
X6035540D01*
X6034211Y370405D01*
X6032905Y370665D01*
X6031644Y371093D01*
X6030449Y371682D01*
X6029342Y372422D01*
X6028341Y373300D01*
X6013400Y388241D01*
X6012522Y389242D01*
X6011782Y390349D01*
X6011193Y391544D01*
X6010765Y392805D01*
X6010505Y394111D01*
X6010418Y395440D01*
Y475500D01*
X6010505Y476829D01*
X6010765Y478135D01*
X6011193Y479396D01*
X6011782Y480591D01*
X6012522Y481698D01*
X6013400Y482700D01*
X6014401Y483578D01*
X6015509Y484318D01*
X6016703Y484907D01*
X6017965Y485335D01*
X6019271Y485595D01*
X6020600Y485682D01*
X6120600D01*
X6121929Y485595D01*
D02*
G37*
G36*
X2229579Y536495D02*
X2230885Y536235D01*
X2232147Y535807D01*
X2233341Y535218D01*
X2234448Y534478D01*
X2235450Y533600D01*
X2254200Y514850D01*
X2255078Y513848D01*
X2255818Y512741D01*
X2256407Y511547D01*
X2256835Y510285D01*
X2257095Y508979D01*
X2257182Y507650D01*
Y305150D01*
X2257095Y303821D01*
X2256835Y302515D01*
X2256407Y301253D01*
X2255818Y300059D01*
X2255078Y298952D01*
X2254200Y297950D01*
X2235450Y279200D01*
X2234448Y278322D01*
X2233341Y277582D01*
X2232147Y276993D01*
X2230885Y276565D01*
X2229579Y276305D01*
X2228250Y276218D01*
X2097000D01*
X2095671Y276305D01*
X2094365Y276565D01*
X2093104Y276993D01*
X2091909Y277582D01*
X2090802Y278322D01*
X2089800Y279200D01*
X2088922Y280202D01*
X2088182Y281309D01*
X2087593Y282504D01*
X2087165Y283765D01*
X2086905Y285071D01*
X2086818Y286400D01*
Y526400D01*
X2086905Y527729D01*
X2087165Y529035D01*
X2087593Y530296D01*
X2088182Y531491D01*
X2088922Y532598D01*
X2089800Y533600D01*
X2090802Y534478D01*
X2091909Y535218D01*
X2093104Y535807D01*
X2094365Y536235D01*
X2095671Y536495D01*
X2097000Y536582D01*
X2228250D01*
X2229579Y536495D01*
D02*
G37*
G36*
X1968329D02*
X1969635Y536235D01*
X1970896Y535807D01*
X1972091Y535218D01*
X1973198Y534478D01*
X1974200Y533600D01*
X1975078Y532598D01*
X1975818Y531491D01*
X1976407Y530296D01*
X1976835Y529035D01*
X1977095Y527729D01*
X1977182Y526400D01*
Y286400D01*
X1977095Y285071D01*
X1976835Y283765D01*
X1976407Y282504D01*
X1975818Y281309D01*
X1975078Y280202D01*
X1974200Y279200D01*
X1973198Y278322D01*
X1972091Y277582D01*
X1970896Y276993D01*
X1969635Y276565D01*
X1968329Y276305D01*
X1967000Y276218D01*
X1835750D01*
X1834421Y276305D01*
X1833115Y276565D01*
X1831853Y276993D01*
X1830659Y277582D01*
X1829552Y278322D01*
X1828550Y279200D01*
X1809800Y297950D01*
X1808922Y298952D01*
X1808182Y300059D01*
X1807593Y301253D01*
X1807165Y302515D01*
X1806905Y303821D01*
X1806818Y305150D01*
Y507650D01*
X1806905Y508979D01*
X1807165Y510285D01*
X1807593Y511547D01*
X1808182Y512741D01*
X1808922Y513848D01*
X1809800Y514850D01*
X1828550Y533600D01*
X1829552Y534478D01*
X1830659Y535218D01*
X1831853Y535807D01*
X1833115Y536235D01*
X1834421Y536495D01*
X1835750Y536582D01*
X1967000D01*
X1968329Y536495D01*
D02*
G37*
G36*
X1467879Y523795D02*
X1469185Y523535D01*
X1470447Y523107D01*
X1471641Y522518D01*
X1472748Y521778D01*
X1473750Y520900D01*
X1492500Y502150D01*
X1493378Y501148D01*
X1494118Y500041D01*
X1494707Y498847D01*
X1495135Y497585D01*
X1495395Y496279D01*
X1495482Y494950D01*
Y292450D01*
X1495395Y291121D01*
X1495135Y289815D01*
X1494707Y288553D01*
X1494118Y287359D01*
X1493378Y286252D01*
X1492500Y285250D01*
X1473750Y266500D01*
X1472748Y265622D01*
X1471641Y264882D01*
X1470447Y264293D01*
X1469185Y263865D01*
X1467879Y263605D01*
X1466550Y263518D01*
X1335300D01*
X1333971Y263605D01*
X1332665Y263865D01*
X1331403Y264293D01*
X1330209Y264882D01*
X1329101Y265622D01*
X1328100Y266500D01*
X1327222Y267502D01*
X1326482Y268609D01*
X1325893Y269804D01*
X1325465Y271065D01*
X1325205Y272371D01*
X1325118Y273700D01*
Y513700D01*
X1325205Y515029D01*
X1325465Y516335D01*
X1325893Y517596D01*
X1326482Y518791D01*
X1327222Y519898D01*
X1328100Y520900D01*
X1329101Y521778D01*
X1330209Y522518D01*
X1331403Y523107D01*
X1332665Y523535D01*
X1333971Y523795D01*
X1335300Y523882D01*
X1466550D01*
X1467879Y523795D01*
D02*
G37*
G36*
X1206629D02*
X1207935Y523535D01*
X1209196Y523107D01*
X1210391Y522518D01*
X1211498Y521778D01*
X1212500Y520900D01*
X1213378Y519898D01*
X1214118Y518791D01*
X1214707Y517596D01*
X1215135Y516335D01*
X1215395Y515029D01*
X1215482Y513700D01*
Y273700D01*
X1215395Y272371D01*
X1215135Y271065D01*
X1214707Y269804D01*
X1214118Y268609D01*
X1213378Y267502D01*
X1212500Y266500D01*
X1211498Y265622D01*
X1210391Y264882D01*
X1209196Y264293D01*
X1207935Y263865D01*
X1206629Y263605D01*
X1205300Y263518D01*
X1074050D01*
X1072721Y263605D01*
X1071415Y263865D01*
X1070153Y264293D01*
X1068959Y264882D01*
X1067852Y265622D01*
X1066850Y266500D01*
X1048100Y285250D01*
X1047222Y286252D01*
X1046482Y287359D01*
X1045893Y288553D01*
X1045465Y289815D01*
X1045205Y291121D01*
X1045118Y292450D01*
Y494950D01*
X1045205Y496279D01*
X1045465Y497585D01*
X1045893Y498847D01*
X1046482Y500041D01*
X1047222Y501148D01*
X1048100Y502150D01*
X1066850Y520900D01*
X1067852Y521778D01*
X1068959Y522518D01*
X1070153Y523107D01*
X1071415Y523535D01*
X1072721Y523795D01*
X1074050Y523882D01*
X1205300D01*
X1206629Y523795D01*
D02*
G37*
G36*
X8232629Y404895D02*
X8233935Y404635D01*
X8235197Y404207D01*
X8236391Y403618D01*
X8237498Y402878D01*
X8238500Y402000D01*
X8261500Y379000D01*
X8262378Y377998D01*
X8263118Y376891D01*
X8263707Y375696D01*
X8264135Y374435D01*
X8264395Y373129D01*
X8264482Y371800D01*
Y237800D01*
X8264395Y236471D01*
X8264135Y235165D01*
X8263707Y233903D01*
X8263118Y232709D01*
X8262378Y231602D01*
X8261500Y230600D01*
X8238500Y207600D01*
X8237498Y206722D01*
X8236391Y205982D01*
X8235196Y205393D01*
X8233935Y204965D01*
X8232629Y204705D01*
X8231300Y204618D01*
X8139300D01*
X8137971Y204705D01*
X8136665Y204965D01*
X8135404Y205393D01*
X8134209Y205982D01*
X8133102Y206722D01*
X8132100Y207600D01*
X8131222Y208602D01*
X8130482Y209709D01*
X8129893Y210904D01*
X8129465Y212165D01*
X8129205Y213471D01*
X8129118Y214800D01*
Y394800D01*
X8129205Y396129D01*
X8129465Y397435D01*
X8129893Y398696D01*
X8130482Y399891D01*
X8131222Y400998D01*
X8132100Y402000D01*
X8133102Y402878D01*
X8134209Y403618D01*
X8135404Y404207D01*
X8136665Y404635D01*
X8137971Y404895D01*
X8139300Y404982D01*
X8231300D01*
X8232629Y404895D01*
D02*
G37*
G36*
X7965629D02*
X7966935Y404635D01*
X7968196Y404207D01*
X7969391Y403618D01*
X7970498Y402878D01*
X7971500Y402000D01*
X7972378Y400998D01*
X7973118Y399891D01*
X7973707Y398696D01*
X7974135Y397435D01*
X7974395Y396129D01*
X7974482Y394800D01*
Y214800D01*
X7974395Y213471D01*
X7974135Y212165D01*
X7973707Y210904D01*
X7973118Y209709D01*
X7972378Y208602D01*
X7971500Y207600D01*
X7970498Y206722D01*
X7969391Y205982D01*
X7968196Y205393D01*
X7966935Y204965D01*
X7965629Y204705D01*
X7964300Y204618D01*
X7872300D01*
X7870971Y204705D01*
X7869665Y204965D01*
X7868404Y205393D01*
X7867209Y205982D01*
X7866102Y206722D01*
X7865100Y207600D01*
X7842100Y230600D01*
X7841222Y231602D01*
X7840482Y232709D01*
X7839893Y233903D01*
X7839465Y235165D01*
X7839205Y236471D01*
X7839118Y237800D01*
Y371800D01*
X7839205Y373129D01*
X7839465Y374435D01*
X7839893Y375696D01*
X7840482Y376891D01*
X7841222Y377998D01*
X7842100Y379000D01*
X7865100Y402000D01*
X7866102Y402878D01*
X7867209Y403618D01*
X7868403Y404207D01*
X7869665Y404635D01*
X7870971Y404895D01*
X7872300Y404982D01*
X7964300D01*
X7965629Y404895D01*
D02*
G37*
G36*
X5473289Y314095D02*
X5474595Y313835D01*
X5475856Y313407D01*
X5477051Y312818D01*
X5478158Y312078D01*
X5479159Y311200D01*
X5494100Y296259D01*
X5494978Y295258D01*
X5495718Y294150D01*
X5496307Y292956D01*
X5496735Y291695D01*
X5496995Y290389D01*
X5497082Y289060D01*
Y218940D01*
X5496995Y217611D01*
X5496735Y216305D01*
X5496307Y215044D01*
X5495718Y213849D01*
X5494978Y212742D01*
X5494100Y211740D01*
X5479159Y196800D01*
X5478158Y195922D01*
X5477051Y195182D01*
X5475856Y194593D01*
X5474595Y194165D01*
X5473289Y193905D01*
X5471960Y193818D01*
X5391900D01*
X5390571Y193905D01*
X5389265Y194165D01*
X5388004Y194593D01*
X5386809Y195182D01*
X5385702Y195922D01*
X5384700Y196800D01*
X5383822Y197801D01*
X5383082Y198909D01*
X5382493Y200103D01*
X5382065Y201365D01*
X5381805Y202671D01*
X5381718Y204000D01*
Y304000D01*
X5381805Y305329D01*
X5382065Y306635D01*
X5382493Y307897D01*
X5383082Y309091D01*
X5383822Y310199D01*
X5384700Y311200D01*
X5385702Y312078D01*
X5386809Y312818D01*
X5388004Y313407D01*
X5389265Y313835D01*
X5390571Y314095D01*
X5391900Y314182D01*
X5471960D01*
X5473289Y314095D01*
D02*
G37*
G36*
X5328229D02*
X5329535Y313835D01*
X5330796Y313407D01*
X5331991Y312818D01*
X5333098Y312078D01*
X5334100Y311200D01*
X5334978Y310199D01*
X5335718Y309091D01*
X5336307Y307897D01*
X5336735Y306635D01*
X5336995Y305329D01*
X5337082Y304000D01*
Y204000D01*
X5336995Y202671D01*
X5336735Y201365D01*
X5336307Y200103D01*
X5335718Y198909D01*
X5334978Y197801D01*
X5334100Y196800D01*
X5333098Y195922D01*
X5331991Y195182D01*
X5330796Y194593D01*
X5329535Y194165D01*
X5328229Y193905D01*
X5326900Y193818D01*
X5246840Y193818D01*
X5245511Y193905D01*
X5244205Y194165D01*
X5242944Y194593D01*
X5241749Y195182D01*
X5240642Y195922D01*
X5239641Y196800D01*
X5224700Y211740D01*
X5223822Y212742D01*
X5223082Y213849D01*
X5222493Y215044D01*
X5222065Y216305D01*
X5221805Y217611D01*
X5221718Y218940D01*
Y289060D01*
X5221805Y290389D01*
X5222065Y291695D01*
X5222493Y292956D01*
X5223082Y294151D01*
X5223822Y295258D01*
X5224700Y296259D01*
X5239641Y311200D01*
X5240642Y312078D01*
X5241749Y312818D01*
X5242944Y313407D01*
X5244205Y313835D01*
X5245511Y314095D01*
X5246840Y314182D01*
X5326900D01*
X5328229Y314095D01*
D02*
G37*
G36*
X7281629Y524195D02*
X7282935Y523935D01*
X7284197Y523507D01*
X7285391Y522918D01*
X7286499Y522178D01*
X7287500Y521300D01*
X7288378Y520298D01*
X7289118Y519191D01*
X7289707Y517996D01*
X7290135Y516735D01*
X7290395Y515429D01*
X7290482Y514100D01*
Y142850D01*
X7290395Y141521D01*
X7290135Y140215D01*
X7289707Y138953D01*
X7289118Y137759D01*
X7288378Y136651D01*
X7287500Y135650D01*
X7228750Y76900D01*
X7227749Y76022D01*
X7226641Y75282D01*
X7225447Y74693D01*
X7224185Y74265D01*
X7222879Y74005D01*
X7221550Y73918D01*
X7104050D01*
X7102721Y74005D01*
X7101415Y74265D01*
X7100153Y74693D01*
X7098959Y75282D01*
X7097851Y76022D01*
X7096850Y76900D01*
X7038100Y135650D01*
X7037222Y136651D01*
X7036482Y137759D01*
X7035893Y138953D01*
X7035465Y140215D01*
X7035205Y141521D01*
X7035118Y142850D01*
Y514100D01*
X7035205Y515429D01*
X7035465Y516735D01*
X7035893Y517996D01*
X7036482Y519191D01*
X7037222Y520298D01*
X7038100Y521300D01*
X7039101Y522178D01*
X7040209Y522918D01*
X7041403Y523507D01*
X7042665Y523935D01*
X7043971Y524195D01*
X7045300Y524282D01*
X7280300D01*
X7281629Y524195D01*
D02*
G37*
G36*
X2229579Y180895D02*
X2230885Y180635D01*
X2232147Y180207D01*
X2233341Y179618D01*
X2234448Y178878D01*
X2235450Y178000D01*
X2254200Y159250D01*
X2255078Y158248D01*
X2255818Y157141D01*
X2256407Y155947D01*
X2256835Y154685D01*
X2257095Y153379D01*
X2257182Y152050D01*
Y-50450D01*
X2257095Y-51779D01*
X2256835Y-53085D01*
X2256407Y-54347D01*
X2255818Y-55541D01*
X2255078Y-56648D01*
X2254200Y-57650D01*
X2235450Y-76400D01*
X2234448Y-77278D01*
X2233341Y-78018D01*
X2232147Y-78607D01*
X2230885Y-79035D01*
X2229579Y-79295D01*
X2228250Y-79382D01*
X2097000D01*
X2095671Y-79295D01*
X2094365Y-79035D01*
X2093104Y-78607D01*
X2091909Y-78018D01*
X2090802Y-77278D01*
X2089800Y-76400D01*
X2088922Y-75398D01*
X2088182Y-74291D01*
X2087593Y-73096D01*
X2087165Y-71835D01*
X2086905Y-70529D01*
X2086818Y-69200D01*
Y170800D01*
X2086905Y172129D01*
X2087165Y173435D01*
X2087593Y174696D01*
X2088182Y175891D01*
X2088922Y176998D01*
X2089800Y178000D01*
X2090802Y178878D01*
X2091909Y179618D01*
X2093104Y180207D01*
X2094365Y180635D01*
X2095671Y180895D01*
X2097000Y180982D01*
X2228250D01*
X2229579Y180895D01*
D02*
G37*
G36*
X1968329D02*
X1969635Y180635D01*
X1970896Y180207D01*
X1972091Y179618D01*
X1973198Y178878D01*
X1974200Y178000D01*
X1975078Y176998D01*
X1975818Y175891D01*
X1976407Y174696D01*
X1976835Y173435D01*
X1977095Y172129D01*
X1977182Y170800D01*
Y-69200D01*
X1977095Y-70529D01*
X1976835Y-71835D01*
X1976407Y-73096D01*
X1975818Y-74291D01*
X1975078Y-75398D01*
X1974200Y-76400D01*
X1973198Y-77278D01*
X1972091Y-78018D01*
X1970896Y-78607D01*
X1969635Y-79035D01*
X1968329Y-79295D01*
X1967000Y-79382D01*
X1835750D01*
X1834421Y-79295D01*
X1833115Y-79035D01*
X1831853Y-78607D01*
X1830659Y-78018D01*
X1829552Y-77278D01*
X1828550Y-76400D01*
X1809800Y-57650D01*
X1808922Y-56648D01*
X1808182Y-55541D01*
X1807593Y-54347D01*
X1807165Y-53085D01*
X1806905Y-51779D01*
X1806818Y-50450D01*
Y152050D01*
X1806905Y153379D01*
X1807165Y154685D01*
X1807593Y155947D01*
X1808182Y157141D01*
X1808922Y158248D01*
X1809800Y159250D01*
X1828550Y178000D01*
X1829552Y178878D01*
X1830659Y179618D01*
X1831853Y180207D01*
X1833115Y180635D01*
X1834421Y180895D01*
X1835750Y180982D01*
X1967000D01*
X1968329Y180895D01*
D02*
G37*
G36*
X1467579D02*
X1468885Y180635D01*
X1470147Y180207D01*
X1471341Y179618D01*
X1472448Y178878D01*
X1473450Y178000D01*
X1492200Y159250D01*
X1493078Y158248D01*
X1493818Y157141D01*
X1494407Y155947D01*
X1494835Y154685D01*
X1495095Y153379D01*
X1495182Y152050D01*
Y-50450D01*
X1495095Y-51779D01*
X1494835Y-53085D01*
X1494407Y-54347D01*
X1493818Y-55541D01*
X1493078Y-56648D01*
X1492200Y-57650D01*
X1473450Y-76400D01*
X1472448Y-77278D01*
X1471341Y-78018D01*
X1470147Y-78607D01*
X1468885Y-79035D01*
X1467579Y-79295D01*
X1466250Y-79382D01*
X1335000D01*
X1333671Y-79295D01*
X1332365Y-79035D01*
X1331104Y-78607D01*
X1329909Y-78018D01*
X1328802Y-77278D01*
X1327800Y-76400D01*
X1326922Y-75398D01*
X1326182Y-74291D01*
X1325593Y-73096D01*
X1325165Y-71835D01*
X1324905Y-70529D01*
X1324818Y-69200D01*
Y170800D01*
X1324905Y172129D01*
X1325165Y173435D01*
X1325593Y174696D01*
X1326182Y175891D01*
X1326922Y176998D01*
X1327800Y178000D01*
X1328802Y178878D01*
X1329909Y179618D01*
X1331104Y180207D01*
X1332365Y180635D01*
X1333671Y180895D01*
X1335000Y180982D01*
X1466250D01*
X1467579Y180895D01*
D02*
G37*
G36*
X1206329D02*
X1207635Y180635D01*
X1208896Y180207D01*
X1210091Y179618D01*
X1211198Y178878D01*
X1212200Y178000D01*
X1213078Y176998D01*
X1213818Y175891D01*
X1214407Y174696D01*
X1214835Y173435D01*
X1215095Y172129D01*
X1215182Y170800D01*
Y-69200D01*
X1215095Y-70529D01*
X1214835Y-71835D01*
X1214407Y-73096D01*
X1213818Y-74291D01*
X1213078Y-75398D01*
X1212200Y-76400D01*
X1211198Y-77278D01*
X1210091Y-78018D01*
X1208896Y-78607D01*
X1207635Y-79035D01*
X1206329Y-79295D01*
X1205000Y-79382D01*
X1073750D01*
X1072421Y-79295D01*
X1071115Y-79035D01*
X1069853Y-78607D01*
X1068659Y-78018D01*
X1067552Y-77278D01*
X1066550Y-76400D01*
X1047800Y-57650D01*
X1046922Y-56648D01*
X1046182Y-55541D01*
X1045593Y-54347D01*
X1045165Y-53085D01*
X1044905Y-51779D01*
X1044818Y-50450D01*
Y152050D01*
X1044905Y153379D01*
X1045165Y154685D01*
X1045593Y155947D01*
X1046182Y157141D01*
X1046922Y158248D01*
X1047800Y159250D01*
X1066550Y178000D01*
X1067552Y178878D01*
X1068659Y179618D01*
X1069853Y180207D01*
X1071115Y180635D01*
X1072421Y180895D01*
X1073750Y180982D01*
X1205000D01*
X1206329Y180895D01*
D02*
G37*
D30*
X6223000Y939800D02*
D03*
X1524000Y1270000D02*
D03*
X5461000Y1651000D02*
D03*
X5148580Y256540D02*
D03*
X4973320Y1417320D02*
D03*
X8077200Y2387600D02*
D03*
X5309861Y1650401D02*
D03*
X4924800Y1117600D02*
D03*
X5562600Y431800D02*
D03*
X2133600Y1270000D02*
D03*
X4114800Y1320800D02*
D03*
X4927600Y1270000D02*
D03*
X5814060Y1661160D02*
D03*
X5681980Y2235200D02*
D03*
X5339080Y934720D02*
D03*
X6375400Y635000D02*
D03*
D61*
X6032500Y2374900D02*
D03*
X5981700Y2082800D02*
D03*
X6197600Y1473200D02*
D03*
X6210300Y1333500D02*
D03*
X6223000Y1219200D02*
D03*
Y1092200D02*
D03*
X5905500Y1435100D02*
D03*
X5981700Y1308100D02*
D03*
X5918200Y1117600D02*
D03*
X5880100Y1016000D02*
D03*
X5143500Y1270000D02*
D03*
X4178300Y2032000D02*
D03*
X8610600Y1790700D02*
D03*
X8737600Y1752600D02*
D03*
X8890000D02*
D03*
X9118600D02*
D03*
Y1892300D02*
D03*
Y2044700D02*
D03*
Y2184400D02*
D03*
Y2311400D02*
D03*
X8750300Y2286000D02*
D03*
Y2159000D02*
D03*
Y2006600D02*
D03*
X8864600D02*
D03*
X8623300D02*
D03*
X8864600Y2159000D02*
D03*
X8623300D02*
D03*
X8864600Y2286000D02*
D03*
X8623300D02*
D03*
X4953000Y1625600D02*
D03*
X5092700Y1752600D02*
D03*
X4368800Y1892300D02*
D03*
X4178300D02*
D03*
X3987800Y2044700D02*
D03*
Y1892300D02*
D03*
Y1739900D02*
D03*
X4178300D02*
D03*
X4368800D02*
D03*
Y2044700D02*
D03*
X1155700Y-177800D02*
D03*
X1028700D02*
D03*
X952500Y-114300D02*
D03*
Y-38100D02*
D03*
Y114300D02*
D03*
Y203200D02*
D03*
Y304800D02*
D03*
Y457200D02*
D03*
Y533400D02*
D03*
X850900D02*
D03*
X863600Y698500D02*
D03*
Y800100D02*
D03*
X889000Y952500D02*
D03*
X1003300Y977900D02*
D03*
X876300Y1752600D02*
D03*
X825500Y1905000D02*
D03*
X889000Y1968500D02*
D03*
X952500Y2044700D02*
D03*
Y2222500D02*
D03*
Y2311400D02*
D03*
Y2413000D02*
D03*
Y2578100D02*
D03*
Y2667000D02*
D03*
X1028700Y2717800D02*
D03*
X1168400D02*
D03*
X2095500D02*
D03*
X2235200D02*
D03*
X2324100Y2654300D02*
D03*
Y2565400D02*
D03*
Y2413000D02*
D03*
Y2336800D02*
D03*
Y2247900D02*
D03*
Y2082800D02*
D03*
Y2006600D02*
D03*
X2159000Y1943100D02*
D03*
X2019300Y1879600D02*
D03*
X2108200Y1866900D02*
D03*
X2019300Y1689100D02*
D03*
X2032000Y838200D02*
D03*
Y647700D02*
D03*
X2146300Y622300D02*
D03*
X2362200Y546100D02*
D03*
Y457200D02*
D03*
X2336800Y152400D02*
D03*
Y-63500D02*
D03*
X2324100Y-177800D02*
D03*
X2171700Y-165100D02*
D03*
X3848100Y558800D02*
D03*
X3771900D02*
D03*
X3849193Y487057D02*
D03*
X3772993D02*
D03*
X3848100Y419100D02*
D03*
X3771900D02*
D03*
Y342900D02*
D03*
X3848100D02*
D03*
X4305300D02*
D03*
X4229100D02*
D03*
X4152900D02*
D03*
X4076700D02*
D03*
X4000500D02*
D03*
X5219700Y546100D02*
D03*
X5321300D02*
D03*
X5829300Y571500D02*
D03*
X5664200Y292100D02*
D03*
X5727700Y203200D02*
D03*
X5892800D02*
D03*
X5943600Y292100D02*
D03*
X6413500Y1816100D02*
D03*
X6489700Y1651000D02*
D03*
X6642100D02*
D03*
X8204200Y76200D02*
D03*
X8191500Y495300D02*
D03*
X8369300Y304800D02*
D03*
X8534400Y1536700D02*
D03*
X8559800Y1358900D02*
D03*
X8293100Y1320800D02*
D03*
X8280400Y1854200D02*
D03*
X8115300Y1587500D02*
D03*
X7975600Y1701800D02*
D03*
X4521200Y2057400D02*
D03*
X4610100D02*
D03*
X4521200Y2133600D02*
D03*
X4610100D02*
D03*
X4521200Y2209800D02*
D03*
X4610100D02*
D03*
X4584700Y2387600D02*
D03*
Y2286000D02*
D03*
X4508500Y2387600D02*
D03*
Y2286000D02*
D03*
X4432300Y2387600D02*
D03*
Y2286000D02*
D03*
X4356100Y2387600D02*
D03*
Y2286000D02*
D03*
X4279900Y2387600D02*
D03*
Y2286000D02*
D03*
X4203700Y2387600D02*
D03*
Y2286000D02*
D03*
X4127500Y2387600D02*
D03*
Y2286000D02*
D03*
X4051300Y2387600D02*
D03*
Y2286000D02*
D03*
X3975100Y2387600D02*
D03*
Y2286000D02*
D03*
X3898900Y2387600D02*
D03*
Y2286000D02*
D03*
X3810000Y2387600D02*
D03*
X3708400D02*
D03*
X3810000Y2311400D02*
D03*
X3708400D02*
D03*
X3810000Y2235200D02*
D03*
X3708400D02*
D03*
X3810000Y2159000D02*
D03*
X3708400D02*
D03*
Y2082800D02*
D03*
X3810000D02*
D03*
X6667500Y2286000D02*
D03*
Y2374900D02*
D03*
Y2463800D02*
D03*
Y2552700D02*
D03*
Y2641600D02*
D03*
X6591300Y2235200D02*
D03*
Y2324100D02*
D03*
Y2413000D02*
D03*
Y2501900D02*
D03*
Y2590800D02*
D03*
X6515100Y2273300D02*
D03*
Y2362200D02*
D03*
Y2451100D02*
D03*
Y2540000D02*
D03*
Y2628900D02*
D03*
X6438900Y2590800D02*
D03*
Y2501900D02*
D03*
Y2413000D02*
D03*
Y2324100D02*
D03*
Y2235200D02*
D03*
X6362700Y2286000D02*
D03*
Y2374900D02*
D03*
Y2463800D02*
D03*
Y2552700D02*
D03*
Y2641600D02*
D03*
X4856480Y1427480D02*
D03*
X4902200Y1516380D02*
D03*
X1858010Y1262380D02*
D03*
X1784350D02*
D03*
X5675630Y551180D02*
D03*
X5601970D02*
D03*
X5196840Y1661160D02*
D03*
X4864100Y596900D02*
D03*
X5438140Y932180D02*
D03*
X5506720Y1008478D02*
D03*
X6250940Y782690D02*
D03*
X5948680Y784860D02*
D03*
X5466371Y1540485D02*
D03*
X5232400Y1524000D02*
D03*
X6070600Y1145540D02*
D03*
X5029200Y1270000D02*
D03*
X4546600Y457200D02*
D03*
X4603000Y1193800D02*
D03*
D62*
X5605200Y1270000D02*
D03*
X5717200D02*
D03*
X5469200D02*
D03*
X5357200D02*
D03*
X5605200Y1190000D02*
D03*
Y1350000D02*
D03*
X5469200D02*
D03*
Y1190000D02*
D03*
D69*
X8382300Y1943100D02*
D03*
X8382000Y2070100D02*
D03*
X8382300Y2197100D02*
D03*
Y2324100D02*
D03*
D70*
X8653800Y1905000D02*
D03*
Y2362200D02*
D03*
D71*
X8737600Y2133600D02*
D03*
D72*
X8940800D02*
D03*
D73*
X5537200Y1270000D02*
D03*
D74*
X5811520Y1195000D02*
D03*
X5262880D02*
D03*
Y1345000D02*
D03*
X5811520D02*
D03*
D75*
X5762257Y1094740D02*
D03*
X5712244D02*
D03*
X5662232D02*
D03*
X5612219D02*
D03*
X5562206D02*
D03*
X5512194D02*
D03*
X5462181D02*
D03*
X5412168D02*
D03*
X5362156D02*
D03*
X5312143D02*
D03*
Y1445260D02*
D03*
X5362156D02*
D03*
X5412168D02*
D03*
X5462181D02*
D03*
X5512194D02*
D03*
X5562206D02*
D03*
X5612219D02*
D03*
X5662232D02*
D03*
X5712244D02*
D03*
X5762257D02*
D03*
D76*
X6978100Y2159000D02*
D03*
X7703100D02*
D03*
D77*
X5003800Y598500D02*
D03*
Y925500D02*
D03*
D78*
X3572200Y1270000D02*
D03*
X2422200D02*
D03*
D79*
X8121400Y1446200D02*
D03*
X7931400D02*
D03*
X8026400Y1246200D02*
D03*
D80*
X1941300Y1270000D02*
D03*
X1716300D02*
D03*
D81*
X4178300Y1900750D02*
D03*
Y872850D02*
D03*
D82*
X4102100Y1580750D02*
D03*
Y552850D02*
D03*
D83*
X3987800Y1534000D02*
D03*
X4114800D02*
D03*
X4241800D02*
D03*
X4368800D02*
D03*
X3987800Y506100D02*
D03*
X4114800D02*
D03*
X4241800D02*
D03*
X4368800D02*
D03*
D84*
Y2145500D02*
D03*
X4241800D02*
D03*
X4114800D02*
D03*
X3987800D02*
D03*
X4368800Y1117600D02*
D03*
X4241800D02*
D03*
X4114800D02*
D03*
X3987800D02*
D03*
D85*
X279400Y1473200D02*
D03*
Y965200D02*
D03*
X8991600Y939800D02*
D03*
Y1447800D02*
D03*
D86*
X6096000Y0D02*
D03*
X5842000D02*
D03*
X5588000D02*
D03*
X5334000D02*
D03*
D87*
X0Y2667000D02*
D03*
Y0D02*
D03*
X9321800D02*
D03*
Y2667000D02*
D03*
D88*
X9372600Y1168400D02*
D03*
X9245600Y914400D02*
D03*
Y406400D02*
D03*
X8991600D02*
D03*
Y-101600D02*
D03*
X8864600Y2692400D02*
D03*
X8737600Y914400D02*
D03*
Y406400D02*
D03*
X8864600Y152400D02*
D03*
X8737600Y-101600D02*
D03*
X8610600Y2692400D02*
D03*
X8483600Y1422400D02*
D03*
X8610600Y1168400D02*
D03*
X8483600Y914400D02*
D03*
Y406400D02*
D03*
X8610600Y152400D02*
D03*
X8483600Y-101600D02*
D03*
X8229600Y1930400D02*
D03*
X8356600Y1168400D02*
D03*
X8229600Y914400D02*
D03*
X8356600Y660400D02*
D03*
Y152400D02*
D03*
X8229600Y-101600D02*
D03*
X7975600Y914400D02*
D03*
X8102600Y660400D02*
D03*
X7975600Y-101600D02*
D03*
X7721600Y1422400D02*
D03*
X7848600Y1168400D02*
D03*
X7721600Y914400D02*
D03*
X7848600Y660400D02*
D03*
X7721600Y-101600D02*
D03*
X7467600Y2438400D02*
D03*
Y1930400D02*
D03*
X7594600Y1676400D02*
D03*
Y1168400D02*
D03*
X7467600Y914400D02*
D03*
X7594600Y660400D02*
D03*
X7467600Y-101600D02*
D03*
X7340600Y660400D02*
D03*
X7213600Y-101600D02*
D03*
X7086600Y660400D02*
D03*
X6959600Y-101600D02*
D03*
X6705600Y914400D02*
D03*
X6832600Y660400D02*
D03*
Y152400D02*
D03*
X6705600Y-101600D02*
D03*
X6451600Y1930400D02*
D03*
Y1422400D02*
D03*
X6578600Y1168400D02*
D03*
Y660400D02*
D03*
X6451600Y406400D02*
D03*
X6578600Y152400D02*
D03*
X6451600Y-101600D02*
D03*
X6324600Y1168400D02*
D03*
Y152400D02*
D03*
X6070600Y2692400D02*
D03*
X5943600Y914400D02*
D03*
X5816600Y2692400D02*
D03*
X5562600D02*
D03*
X5308600D02*
D03*
X5181600Y1930400D02*
D03*
X5054600Y2692400D02*
D03*
X4927600Y406400D02*
D03*
Y-101600D02*
D03*
X4800600Y2692400D02*
D03*
X4673600Y406400D02*
D03*
X4800600Y152400D02*
D03*
X4673600Y-101600D02*
D03*
X4546600Y152400D02*
D03*
X4419600Y-101600D02*
D03*
X4292600Y152400D02*
D03*
X4165600Y-101600D02*
D03*
X4038600Y152400D02*
D03*
X3911600Y-101600D02*
D03*
X3657600Y914400D02*
D03*
X3784600Y660400D02*
D03*
X3657600Y406400D02*
D03*
X3784600Y152400D02*
D03*
X3657600Y-101600D02*
D03*
X3530600Y2692400D02*
D03*
Y1676400D02*
D03*
X3403600Y914400D02*
D03*
Y406400D02*
D03*
X3530600Y152400D02*
D03*
X3276600Y2692400D02*
D03*
Y1676400D02*
D03*
X3149600Y914400D02*
D03*
Y406400D02*
D03*
X3276600Y152400D02*
D03*
X3022600Y2692400D02*
D03*
Y1676400D02*
D03*
X2895600Y406400D02*
D03*
X3022600Y152400D02*
D03*
X2641600Y406400D02*
D03*
X2768600Y152400D02*
D03*
X2641600Y-101600D02*
D03*
X2514600Y2692400D02*
D03*
Y152400D02*
D03*
X863600Y-101600D02*
D03*
X736600Y2692400D02*
D03*
X609600Y2438400D02*
D03*
X736600Y2184400D02*
D03*
X609600Y914400D02*
D03*
Y406400D02*
D03*
X736600Y152400D02*
D03*
X609600Y-101600D02*
D03*
X482600Y2692400D02*
D03*
X355600Y2438400D02*
D03*
X482600Y660400D02*
D03*
X355600Y406400D02*
D03*
X482600Y152400D02*
D03*
X355600Y-101600D02*
D03*
X228600Y660400D02*
D03*
X101600Y406400D02*
D03*
X-25400Y660400D02*
D03*
X-152400Y406400D02*
D03*
%TF.MD5,b16a1bdc955c0c3d30325c33682c4ecb*%
M02*
