%TF.GenerationSoftware,Altium Limited,Altium Designer,23.0.1 (38)*%
G04 Layer_Color=8421504*
%FSLAX45Y45*%
%MOMM*%
%TF.SameCoordinates,3EE063B3-4F93-4FDD-BE50-ED7C6B7A8C7B*%
%TF.FilePolarity,Positive*%
%TF.FileFunction,Paste,Top*%
%TF.Part,Single*%
G01*
G75*
%TA.AperFunction,SMDPad,CuDef*%
G04:AMPARAMS|DCode=16|XSize=0.41mm|YSize=0.82mm|CornerRadius=0mm|HoleSize=0mm|Usage=FLASHONLY|Rotation=270.000|XOffset=0mm|YOffset=0mm|HoleType=Round|Shape=RoundedRectangle|*
%AMROUNDEDRECTD16*
21,1,0.41000,0.82000,0,0,270.0*
21,1,0.41000,0.82000,0,0,270.0*
1,1,0.00000,-0.41000,-0.20500*
1,1,0.00000,-0.41000,0.20500*
1,1,0.00000,0.41000,0.20500*
1,1,0.00000,0.41000,-0.20500*
%
%ADD16ROUNDEDRECTD16*%
G04:AMPARAMS|DCode=17|XSize=0.595mm|YSize=0.61mm|CornerRadius=0mm|HoleSize=0mm|Usage=FLASHONLY|Rotation=270.000|XOffset=0mm|YOffset=0mm|HoleType=Round|Shape=RoundedRectangle|*
%AMROUNDEDRECTD17*
21,1,0.59500,0.61000,0,0,270.0*
21,1,0.59500,0.61000,0,0,270.0*
1,1,0.00000,-0.30500,-0.29750*
1,1,0.00000,-0.30500,0.29750*
1,1,0.00000,0.30500,0.29750*
1,1,0.00000,0.30500,-0.29750*
%
%ADD17ROUNDEDRECTD17*%
G04:AMPARAMS|DCode=18|XSize=4.061mm|YSize=3.63mm|CornerRadius=0mm|HoleSize=0mm|Usage=FLASHONLY|Rotation=270.000|XOffset=0mm|YOffset=0mm|HoleType=Round|Shape=RoundedRectangle|*
%AMROUNDEDRECTD18*
21,1,4.06100,3.63000,0,0,270.0*
21,1,4.06100,3.63000,0,0,270.0*
1,1,0.00000,-1.81500,-2.03050*
1,1,0.00000,-1.81500,2.03050*
1,1,0.00000,1.81500,2.03050*
1,1,0.00000,1.81500,-2.03050*
%
%ADD18ROUNDEDRECTD18*%
G04:AMPARAMS|DCode=19|XSize=5mm|YSize=0.51mm|CornerRadius=0.0255mm|HoleSize=0mm|Usage=FLASHONLY|Rotation=270.000|XOffset=0mm|YOffset=0mm|HoleType=Round|Shape=RoundedRectangle|*
%AMROUNDEDRECTD19*
21,1,5.00000,0.45900,0,0,270.0*
21,1,4.94900,0.51000,0,0,270.0*
1,1,0.05100,-0.22950,-2.47450*
1,1,0.05100,-0.22950,2.47450*
1,1,0.05100,0.22950,2.47450*
1,1,0.05100,0.22950,-2.47450*
%
%ADD19ROUNDEDRECTD19*%
%ADD27R,0.71120X0.25400*%
%ADD28R,0.25400X0.71120*%
%ADD29R,2.50000X5.40000*%
%ADD30C,1.00000*%
%ADD35R,1.22000X0.91000*%
%ADD42R,3.50000X5.40000*%
%ADD47R,0.70000X0.90000*%
%ADD48R,1.25000X5.65000*%
%TA.AperFunction,OtherPad,Pad Q1-1 (40.053mm,15.815mm)*%
%ADD89R,0.85000X0.45000*%
%TA.AperFunction,OtherPad,Pad Q1-1 (41.148mm,15.815mm)*%
%ADD90R,0.85000X0.45000*%
%TA.AperFunction,OtherPad,Pad Q1-1 (39.878mm,15.015mm)*%
%ADD91R,0.50000X0.75000*%
%TA.AperFunction,OtherPad,Pad Q1-1 (41.148mm,15.015mm)*%
%ADD92R,0.50000X0.75000*%
%TA.AperFunction,OtherPad,Pad Q1-1 (43.688mm,15.24mm)*%
%ADD93R,0.50000X1.20000*%
%TA.AperFunction,OtherPad,Pad Q1-1 (43.688mm,21.48mm)*%
%ADD94R,0.50000X1.20000*%
%TA.AperFunction,OtherPad,Pad Q1-1 (42.418mm,21.48mm)*%
%ADD95R,0.50000X1.20000*%
%TA.AperFunction,OtherPad,Pad Q1-1 (41.148mm,21.48mm)*%
%ADD96R,0.50000X1.20000*%
%TA.AperFunction,OtherPad,Pad Q1-1 (42.633mm,19.855mm)*%
%ADD97R,1.50000X1.50000*%
%TA.AperFunction,OtherPad,Pad Q1-1 (40.933mm,18.155mm)*%
%ADD98R,1.50000X1.50000*%
%TA.AperFunction,OtherPad,Pad Q1-1 (42.633mm,18.155mm)*%
%ADD99R,1.50000X1.50000*%
%TA.AperFunction,OtherPad,Pad Q1-1 (40.933mm,19.855mm)*%
%ADD100R,1.50000X1.50000*%
%TA.AperFunction,OtherPad,Pad Q1-1 (42.243mm,15.815mm)*%
%ADD101R,0.85000X0.45000*%
%TA.AperFunction,OtherPad,Pad Q1-1 (39.878mm,21.48mm)*%
%ADD102R,0.50000X1.20000*%
%TA.AperFunction,OtherPad,Pad Q1-1 (42.418mm,15.015mm)*%
%ADD103R,0.50000X0.75000*%
%TA.AperFunction,OtherPad,Pad Q2-1 (40.053mm,5.536mm)*%
%ADD104R,0.85000X0.45000*%
%TA.AperFunction,OtherPad,Pad Q2-1 (41.148mm,5.536mm)*%
%ADD105R,0.85000X0.45000*%
%TA.AperFunction,OtherPad,Pad Q2-1 (39.878mm,4.736mm)*%
%ADD106R,0.50000X0.75000*%
%TA.AperFunction,OtherPad,Pad Q2-1 (41.148mm,4.736mm)*%
%ADD107R,0.50000X0.75000*%
%TA.AperFunction,OtherPad,Pad Q2-1 (43.688mm,4.961mm)*%
%ADD108R,0.50000X1.20000*%
%TA.AperFunction,OtherPad,Pad Q2-1 (43.688mm,11.201mm)*%
%ADD109R,0.50000X1.20000*%
%TA.AperFunction,OtherPad,Pad Q2-1 (42.418mm,11.201mm)*%
%ADD110R,0.50000X1.20000*%
%TA.AperFunction,OtherPad,Pad Q2-1 (41.148mm,11.201mm)*%
%ADD111R,0.50000X1.20000*%
%TA.AperFunction,OtherPad,Pad Q2-1 (42.633mm,9.576mm)*%
%ADD112R,1.50000X1.50000*%
%TA.AperFunction,OtherPad,Pad Q2-1 (40.933mm,7.876mm)*%
%ADD113R,1.50000X1.50000*%
%TA.AperFunction,OtherPad,Pad Q2-1 (42.633mm,7.876mm)*%
%ADD114R,1.50000X1.50000*%
%TA.AperFunction,OtherPad,Pad Q2-1 (40.933mm,9.576mm)*%
%ADD115R,1.50000X1.50000*%
%TA.AperFunction,OtherPad,Pad Q2-1 (42.243mm,5.536mm)*%
%ADD116R,0.85000X0.45000*%
%TA.AperFunction,OtherPad,Pad Q2-1 (39.878mm,11.201mm)*%
%ADD117R,0.50000X1.20000*%
%TA.AperFunction,OtherPad,Pad Q2-1 (42.418mm,4.736mm)*%
%ADD118R,0.50000X0.75000*%
G36*
X4520400Y2681760D02*
Y2601700D01*
X4420400D01*
X4420400Y2681760D01*
X4435340Y2696700D01*
X4505460D01*
X4520400Y2681760D01*
D02*
G37*
G36*
X4368000D02*
Y2601700D01*
X4268000D01*
Y2681760D01*
X4282940Y2696700D01*
X4353060D01*
X4368000Y2681760D01*
D02*
G37*
G36*
X4114000D02*
Y2601700D01*
X4014000D01*
X4014000Y2681760D01*
X4028940Y2696700D01*
X4099060D01*
X4114000Y2681760D01*
D02*
G37*
G36*
X3961600D02*
Y2601700D01*
X3861600D01*
Y2681760D01*
X3876540Y2696700D01*
X3946660D01*
X3961600Y2681760D01*
D02*
G37*
G36*
X3809200D02*
Y2601700D01*
X3709200D01*
Y2681760D01*
X3724140Y2696700D01*
X3794260D01*
X3809200Y2681760D01*
D02*
G37*
G36*
X4520400Y2456640D02*
X4505460Y2441700D01*
X4435340D01*
X4420400Y2456640D01*
Y2536700D01*
X4520400D01*
Y2456640D01*
D02*
G37*
G36*
X4114000D02*
X4099060Y2441700D01*
X4028940D01*
X4014000Y2456640D01*
Y2536700D01*
X4114000D01*
Y2456640D01*
D02*
G37*
G36*
X4368000D02*
X4353060Y2441700D01*
X4282940D01*
X4268000Y2456640D01*
Y2536700D01*
X4368000D01*
X4368000Y2456640D01*
D02*
G37*
G36*
X3961600D02*
X3946660Y2441700D01*
X3876540D01*
X3861600Y2456640D01*
Y2536700D01*
X3961600D01*
X3961600Y2456640D01*
D02*
G37*
G36*
X3809200D02*
X3794260Y2441700D01*
X3724140D01*
X3709200Y2456640D01*
Y2536700D01*
X3809200D01*
X3809200Y2456640D01*
D02*
G37*
G36*
X2234300Y2603150D02*
Y2400650D01*
X2215550Y2381900D01*
X2084300D01*
Y2621900D01*
X2215550D01*
X2234300Y2603150D01*
D02*
G37*
G36*
X1954300Y2381900D02*
X1823050D01*
X1804300Y2400650D01*
Y2603150D01*
X1823050Y2621900D01*
X1954300D01*
Y2381900D01*
D02*
G37*
G36*
X1472600Y2590450D02*
Y2387950D01*
X1453850Y2369200D01*
X1322600D01*
Y2609200D01*
X1453850D01*
X1472600Y2590450D01*
D02*
G37*
G36*
X1192600Y2369200D02*
X1061350D01*
X1042600Y2387950D01*
Y2590450D01*
X1061350Y2609200D01*
X1192600D01*
Y2369200D01*
D02*
G37*
G36*
X5079300Y2451800D02*
X5079299Y2323399D01*
X5053500Y2297600D01*
X4964300D01*
Y2477600D01*
X5053500D01*
X5079300Y2451800D01*
D02*
G37*
G36*
X3613501Y2451800D02*
X3613500Y2323400D01*
X3587700Y2297600D01*
X3498500D01*
Y2477600D01*
X3587700Y2477600D01*
X3613501Y2451800D01*
D02*
G37*
G36*
X3323500Y2297600D02*
X3234300D01*
X3208500Y2323400D01*
X3208501Y2451801D01*
X3234300Y2477600D01*
X3323500D01*
Y2297600D01*
D02*
G37*
G36*
X4789300D02*
X4700100Y2297600D01*
X4674300Y2323400D01*
X4674300Y2451800D01*
X4700100Y2477600D01*
X4789300D01*
Y2297600D01*
D02*
G37*
G36*
X6020300Y2270260D02*
Y2200140D01*
X6005360Y2185200D01*
X5925300D01*
Y2285200D01*
X6005360Y2285200D01*
X6020300Y2270260D01*
D02*
G37*
G36*
X5860300Y2185200D02*
X5780240D01*
X5765300Y2200140D01*
Y2270260D01*
X5780240Y2285200D01*
X5860300D01*
Y2185200D01*
D02*
G37*
G36*
X8141401Y2183699D02*
X8167200Y2157900D01*
Y2068700D01*
X7987200D01*
Y2157900D01*
X8013000Y2183700D01*
X8141401Y2183699D01*
D02*
G37*
G36*
X6668201Y2176299D02*
X6694000Y2150500D01*
Y2061300D01*
X6514000D01*
Y2150500D01*
X6539800Y2176300D01*
X6668201Y2176299D01*
D02*
G37*
G36*
X5079300Y2197800D02*
X5079299Y2069399D01*
X5053500Y2043600D01*
X4964300D01*
Y2223600D01*
X5053500D01*
X5079300Y2197800D01*
D02*
G37*
G36*
X3613500D02*
X3613500Y2069399D01*
X3587700Y2043600D01*
X3498500D01*
Y2223600D01*
X3587700D01*
X3613500Y2197800D01*
D02*
G37*
G36*
X4789300Y2043600D02*
X4700100Y2043600D01*
X4674300Y2069400D01*
X4674300Y2197800D01*
X4700100Y2223600D01*
X4789300D01*
Y2043600D01*
D02*
G37*
G36*
X3323500D02*
X3234300Y2043600D01*
X3208500Y2069400D01*
X3208500Y2197800D01*
X3234300Y2223600D01*
X3323500D01*
Y2043600D01*
D02*
G37*
G36*
X2234300Y2247550D02*
Y2045050D01*
X2215550Y2026300D01*
X2084300D01*
Y2266300D01*
X2215550D01*
X2234300Y2247550D01*
D02*
G37*
G36*
X1954300Y2026300D02*
X1823050D01*
X1804300Y2045050D01*
Y2247550D01*
X1823050Y2266300D01*
X1954300D01*
Y2026300D01*
D02*
G37*
G36*
X1472600Y2234850D02*
Y2032350D01*
X1453850Y2013600D01*
X1322600D01*
Y2253600D01*
X1453850D01*
X1472600Y2234850D01*
D02*
G37*
G36*
X1192600Y2013600D02*
X1061350D01*
X1042600Y2032350D01*
Y2234850D01*
X1061350Y2253600D01*
X1192600D01*
Y2013600D01*
D02*
G37*
G36*
X5866600Y1979460D02*
Y1899400D01*
X5766600D01*
X5766600Y1979460D01*
X5781540Y1994400D01*
X5851660D01*
X5866600Y1979460D01*
D02*
G37*
G36*
X5511000Y1966760D02*
Y1886700D01*
X5411000D01*
X5411000Y1966760D01*
X5425940Y1981700D01*
X5496060D01*
X5511000Y1966760D01*
D02*
G37*
G36*
X5358600D02*
Y1886700D01*
X5258600D01*
X5258600Y1966760D01*
X5273540Y1981700D01*
X5343660D01*
X5358600Y1966760D01*
D02*
G37*
G36*
X6323800Y1915960D02*
Y1835900D01*
X6223800D01*
X6223800Y1915960D01*
X6238740Y1930900D01*
X6308860D01*
X6323800Y1915960D01*
D02*
G37*
G36*
X6171400D02*
Y1835900D01*
X6071400D01*
X6071400Y1915960D01*
X6086340Y1930900D01*
X6156460D01*
X6171400Y1915960D01*
D02*
G37*
G36*
X6019000D02*
Y1835900D01*
X5919000D01*
X5919000Y1915960D01*
X5933940Y1930900D01*
X6004060D01*
X6019000Y1915960D01*
D02*
G37*
G36*
X5714200D02*
Y1835900D01*
X5614200D01*
X5614200Y1915960D01*
X5629140Y1930900D01*
X5699260D01*
X5714200Y1915960D01*
D02*
G37*
G36*
X8167200Y1804500D02*
X8141400Y1778700D01*
X8013000Y1778700D01*
X7987200Y1804500D01*
Y1893700D01*
X8167200D01*
X8167200Y1804500D01*
D02*
G37*
G36*
X6694000Y1797100D02*
X6668200Y1771299D01*
X6539800Y1771300D01*
X6514000Y1797100D01*
Y1886300D01*
X6694000D01*
X6694000Y1797100D01*
D02*
G37*
G36*
X5866600Y1754340D02*
X5851660Y1739400D01*
X5781540D01*
X5766600Y1754340D01*
Y1834400D01*
X5866600D01*
Y1754340D01*
D02*
G37*
G36*
X1956300Y1813060D02*
Y1742940D01*
X1941360Y1728000D01*
X1861300D01*
Y1828000D01*
X1941360Y1828000D01*
X1956300Y1813060D01*
D02*
G37*
G36*
X1796300Y1728000D02*
X1716240D01*
X1701300Y1742940D01*
Y1813060D01*
X1716240Y1828000D01*
X1796300D01*
Y1728000D01*
D02*
G37*
G36*
X5511000Y1741640D02*
X5496060Y1726700D01*
X5425940D01*
X5411000Y1741640D01*
Y1821700D01*
X5511000D01*
Y1741640D01*
D02*
G37*
G36*
X5358600D02*
X5343660Y1726700D01*
X5273540D01*
X5258600Y1741640D01*
Y1821700D01*
X5358600D01*
Y1741640D01*
D02*
G37*
G36*
X6323800Y1690840D02*
X6308860Y1675900D01*
X6238740D01*
X6223800Y1690840D01*
Y1770900D01*
X6323800D01*
Y1690840D01*
D02*
G37*
G36*
X6171400D02*
X6156460Y1675900D01*
X6086340D01*
X6071400Y1690840D01*
Y1770900D01*
X6171400D01*
Y1690840D01*
D02*
G37*
G36*
X6019000D02*
X6004060Y1675900D01*
X5933940D01*
X5919000Y1690840D01*
Y1770900D01*
X6019000D01*
Y1690840D01*
D02*
G37*
G36*
X5714200D02*
X5699260Y1675900D01*
X5629140D01*
X5614200Y1690840D01*
Y1770900D01*
X5714200D01*
Y1690840D01*
D02*
G37*
G36*
X1383400Y1879250D02*
Y1676750D01*
X1364650Y1658000D01*
X1233400D01*
Y1898000D01*
X1364650D01*
X1383400Y1879250D01*
D02*
G37*
G36*
X1103400Y1658000D02*
X972150D01*
X953400Y1676750D01*
Y1879250D01*
X972150Y1898000D01*
X1103400D01*
Y1658000D01*
D02*
G37*
G36*
X8381200Y1661960D02*
Y1581900D01*
X8281200D01*
Y1661960D01*
X8296140Y1676900D01*
X8366260D01*
X8381200Y1661960D01*
D02*
G37*
G36*
X5155400Y1589560D02*
Y1509500D01*
X5055400D01*
X5055400Y1589560D01*
X5070340Y1604500D01*
X5140460D01*
X5155400Y1589560D01*
D02*
G37*
G36*
X8381200Y1436840D02*
X8366260Y1421900D01*
X8296140D01*
X8281200Y1436840D01*
Y1516900D01*
X8381200D01*
X8381200Y1436840D01*
D02*
G37*
G36*
X5155400Y1364440D02*
X5140460Y1349500D01*
X5070340D01*
X5055400Y1364440D01*
Y1444500D01*
X5155400D01*
Y1364440D01*
D02*
G37*
G36*
X4803700Y1292450D02*
Y1247550D01*
X4795150Y1239000D01*
X4746700D01*
Y1301000D01*
X4795150D01*
X4803700Y1292450D01*
D02*
G37*
G36*
X4707700Y1239000D02*
X4659250D01*
X4650700Y1247550D01*
Y1292450D01*
X4659250Y1301000D01*
X4707700D01*
Y1239000D01*
D02*
G37*
G36*
X5736750Y1169510D02*
X5617050D01*
Y1370490D01*
X5736750D01*
Y1169510D01*
D02*
G37*
G36*
X5597050D02*
X5477350D01*
Y1370490D01*
X5597050D01*
Y1169510D01*
D02*
G37*
G36*
X5457350D02*
X5337650D01*
Y1370490D01*
X5457350D01*
Y1169510D01*
D02*
G37*
G36*
X4798100Y1140050D02*
Y1095150D01*
X4789550Y1086600D01*
X4741100D01*
Y1148600D01*
X4789550D01*
X4798100Y1140050D01*
D02*
G37*
G36*
X4702100Y1086600D02*
X4653650D01*
X4645100Y1095150D01*
Y1140050D01*
X4653650Y1148600D01*
X4702100D01*
Y1086600D01*
D02*
G37*
G36*
X7280300Y1330350D02*
Y959100D01*
X7045300D01*
Y1330350D01*
X7104050Y1389100D01*
X7221550D01*
X7280300Y1330350D01*
D02*
G37*
G36*
X6425400Y976160D02*
Y896100D01*
X6325400D01*
Y976160D01*
X6340340Y991100D01*
X6410460D01*
X6425400Y976160D01*
D02*
G37*
G36*
X6120600D02*
Y896100D01*
X6020600D01*
Y976160D01*
X6035540Y991100D01*
X6105660D01*
X6120600Y976160D01*
D02*
G37*
G36*
X5715300Y931150D02*
Y897650D01*
X5701050Y883400D01*
X5658300D01*
Y945400D01*
X5701050D01*
X5715300Y931150D01*
D02*
G37*
G36*
X5619300Y883400D02*
X5576550D01*
X5562300Y897650D01*
Y931150D01*
X5576550Y945400D01*
X5619300D01*
Y883400D01*
D02*
G37*
G36*
X4850600Y950760D02*
Y870700D01*
X4750600D01*
X4750600Y950760D01*
X4765540Y965700D01*
X4835660D01*
X4850600Y950760D01*
D02*
G37*
G36*
X5434800Y852960D02*
Y772900D01*
X5334800D01*
X5334800Y852960D01*
X5349740Y867900D01*
X5419860D01*
X5434800Y852960D01*
D02*
G37*
G36*
X5282400D02*
Y772900D01*
X5182400D01*
Y852960D01*
X5197340Y867900D01*
X5267460D01*
X5282400Y852960D01*
D02*
G37*
G36*
X6425400Y751040D02*
X6410460Y736100D01*
X6340340D01*
X6325400Y751040D01*
Y831100D01*
X6425400D01*
X6425400Y751040D01*
D02*
G37*
G36*
X6120600D02*
X6105660Y736100D01*
X6035540D01*
X6020600Y751040D01*
Y831100D01*
X6120600D01*
X6120600Y751040D01*
D02*
G37*
G36*
X5720600Y779150D02*
Y730700D01*
X5658600D01*
Y779150D01*
X5667150Y787700D01*
X5712050D01*
X5720600Y779150D01*
D02*
G37*
G36*
X5619000D02*
Y730700D01*
X5557000D01*
Y779150D01*
X5565550Y787700D01*
X5610450D01*
X5619000Y779150D01*
D02*
G37*
G36*
X1956300Y797060D02*
Y726940D01*
X1941360Y712000D01*
X1861300D01*
Y812000D01*
X1941360Y812000D01*
X1956300Y797060D01*
D02*
G37*
G36*
X1796300Y712000D02*
X1716240D01*
X1701300Y726940D01*
Y797060D01*
X1716240Y812000D01*
X1796300D01*
Y712000D01*
D02*
G37*
G36*
X4850600Y725640D02*
X4835660Y710700D01*
X4765540D01*
X4750600Y725640D01*
Y805700D01*
X4850600D01*
Y725640D01*
D02*
G37*
G36*
X1383400Y863250D02*
Y660750D01*
X1364650Y642000D01*
X1233400D01*
Y882000D01*
X1364650D01*
X1383400Y863250D01*
D02*
G37*
G36*
X1103400Y642000D02*
X972150D01*
X953400Y660750D01*
Y863250D01*
X972150Y882000D01*
X1103400D01*
Y642000D01*
D02*
G37*
G36*
X5720600Y643250D02*
X5712050Y634700D01*
X5667150D01*
X5658600Y643250D01*
Y691700D01*
X5720600D01*
Y643250D01*
D02*
G37*
G36*
X5619000D02*
X5610450Y634700D01*
X5565550D01*
X5557000Y643250D01*
Y691700D01*
X5619000D01*
Y643250D01*
D02*
G37*
G36*
X5434800Y627840D02*
X5419860Y612900D01*
X5349740D01*
X5334800Y627840D01*
Y707900D01*
X5434800D01*
Y627840D01*
D02*
G37*
G36*
X5282400D02*
X5267460Y612900D01*
X5197340D01*
X5182400Y627840D01*
Y707900D01*
X5282400D01*
X5282400Y627840D01*
D02*
G37*
G36*
X6120600Y620560D02*
Y540500D01*
X6020600D01*
Y620560D01*
X6035540Y635500D01*
X6105660D01*
X6120600Y620560D01*
D02*
G37*
G36*
X5893300Y466860D02*
Y396740D01*
X5878360Y381800D01*
X5798300D01*
Y481800D01*
X5878360Y481800D01*
X5893300Y466860D01*
D02*
G37*
G36*
X5733300Y381800D02*
X5653240D01*
X5638300Y396740D01*
Y466860D01*
X5653240Y481800D01*
X5733300D01*
Y381800D01*
D02*
G37*
G36*
X5486900Y466860D02*
Y396740D01*
X5471960Y381800D01*
X5391900D01*
Y481800D01*
X5471960D01*
X5486900Y466860D01*
D02*
G37*
G36*
X5326900Y381800D02*
X5246840Y381800D01*
X5231900Y396740D01*
Y466860D01*
X5246840Y481800D01*
X5326900D01*
Y381800D01*
D02*
G37*
G36*
X6120600Y395440D02*
X6105660Y380500D01*
X6035540D01*
X6020600Y395440D01*
Y475500D01*
X6120600D01*
X6120600Y395440D01*
D02*
G37*
G36*
X2247000Y507650D02*
Y305150D01*
X2228250Y286400D01*
X2097000D01*
Y526400D01*
X2228250D01*
X2247000Y507650D01*
D02*
G37*
G36*
X1967000Y286400D02*
X1835750D01*
X1817000Y305150D01*
Y507650D01*
X1835750Y526400D01*
X1967000D01*
Y286400D01*
D02*
G37*
G36*
X1485300Y494950D02*
Y292450D01*
X1466550Y273700D01*
X1335300D01*
Y513700D01*
X1466550D01*
X1485300Y494950D01*
D02*
G37*
G36*
X1205300Y273700D02*
X1074050D01*
X1055300Y292450D01*
Y494950D01*
X1074050Y513700D01*
X1205300D01*
Y273700D01*
D02*
G37*
G36*
X8254300Y371800D02*
Y237800D01*
X8231300Y214800D01*
X8139300D01*
Y394800D01*
X8231300D01*
X8254300Y371800D01*
D02*
G37*
G36*
X7964300Y214800D02*
X7872300D01*
X7849300Y237800D01*
Y371800D01*
X7872300Y394800D01*
X7964300D01*
Y214800D01*
D02*
G37*
G36*
X5486900Y289060D02*
Y218940D01*
X5471960Y204000D01*
X5391900D01*
Y304000D01*
X5471960D01*
X5486900Y289060D01*
D02*
G37*
G36*
X5326900Y204000D02*
X5246840Y204000D01*
X5231900Y218940D01*
Y289060D01*
X5246840Y304000D01*
X5326900D01*
Y204000D01*
D02*
G37*
G36*
X7280300Y142850D02*
X7221550Y84100D01*
X7104050D01*
X7045300Y142850D01*
Y514100D01*
X7280300D01*
Y142850D01*
D02*
G37*
G36*
X2247000Y152050D02*
Y-50450D01*
X2228250Y-69200D01*
X2097000D01*
Y170800D01*
X2228250D01*
X2247000Y152050D01*
D02*
G37*
G36*
X1967000Y-69200D02*
X1835750D01*
X1817000Y-50450D01*
Y152050D01*
X1835750Y170800D01*
X1967000D01*
Y-69200D01*
D02*
G37*
G36*
X1485000Y152050D02*
Y-50450D01*
X1466250Y-69200D01*
X1335000D01*
Y170800D01*
X1466250D01*
X1485000Y152050D01*
D02*
G37*
G36*
X1205000Y-69200D02*
X1073750D01*
X1055000Y-50450D01*
Y152050D01*
X1073750Y170800D01*
X1205000D01*
Y-69200D01*
D02*
G37*
D16*
X8382300Y1943100D02*
D03*
X8382000Y2070100D02*
D03*
X8382300Y2197100D02*
D03*
Y2324100D02*
D03*
D17*
X8653800Y1905000D02*
D03*
Y2362200D02*
D03*
D18*
X8737600Y2133600D02*
D03*
D19*
X8940800D02*
D03*
D27*
X5811520Y1195000D02*
D03*
X5262880D02*
D03*
Y1345000D02*
D03*
X5811520D02*
D03*
D28*
X5762257Y1094740D02*
D03*
X5712244D02*
D03*
X5662232D02*
D03*
X5612219D02*
D03*
X5562206D02*
D03*
X5512194D02*
D03*
X5462181D02*
D03*
X5412168D02*
D03*
X5362156D02*
D03*
X5312143D02*
D03*
Y1445260D02*
D03*
X5362156D02*
D03*
X5412168D02*
D03*
X5462181D02*
D03*
X5512194D02*
D03*
X5562206D02*
D03*
X5612219D02*
D03*
X5662232D02*
D03*
X5712244D02*
D03*
X5762257D02*
D03*
D29*
X6978100Y2159000D02*
D03*
X7703100D02*
D03*
D30*
X6223000Y939800D02*
D03*
X1524000Y1270000D02*
D03*
X5461000Y1651000D02*
D03*
X5148580Y256540D02*
D03*
X4973320Y1417320D02*
D03*
X8077200Y2387600D02*
D03*
X5309861Y1650401D02*
D03*
X4924800Y1117600D02*
D03*
X5562600Y431800D02*
D03*
X2133600Y1270000D02*
D03*
X4114800Y1320800D02*
D03*
X4927600Y1270000D02*
D03*
X5814060Y1661160D02*
D03*
X5681980Y2235200D02*
D03*
X5339080Y934720D02*
D03*
X6375400Y635000D02*
D03*
D35*
X5003800Y598500D02*
D03*
Y925500D02*
D03*
D42*
X3572200Y1270000D02*
D03*
X2422200D02*
D03*
D47*
X8121400Y1446200D02*
D03*
X7931400D02*
D03*
X8026400Y1246200D02*
D03*
D48*
X1941300Y1270000D02*
D03*
X1716300D02*
D03*
D89*
X4005300Y1581500D02*
D03*
D90*
X4114800D02*
D03*
D91*
X3987800Y1501500D02*
D03*
D92*
X4114800D02*
D03*
D93*
X4368800Y1524000D02*
D03*
D94*
Y2148000D02*
D03*
D95*
X4241800D02*
D03*
D96*
X4114800D02*
D03*
D97*
X4263300Y1985500D02*
D03*
D98*
X4093300Y1815500D02*
D03*
D99*
X4263300D02*
D03*
D100*
X4093300Y1985500D02*
D03*
D101*
X4224300Y1581500D02*
D03*
D102*
X3987800Y2148000D02*
D03*
D103*
X4241800Y1501500D02*
D03*
D104*
X4005300Y553600D02*
D03*
D105*
X4114800D02*
D03*
D106*
X3987800Y473600D02*
D03*
D107*
X4114800D02*
D03*
D108*
X4368800Y496100D02*
D03*
D109*
Y1120100D02*
D03*
D110*
X4241800D02*
D03*
D111*
X4114800D02*
D03*
D112*
X4263300Y957600D02*
D03*
D113*
X4093300Y787600D02*
D03*
D114*
X4263300D02*
D03*
D115*
X4093300Y957600D02*
D03*
D116*
X4224300Y553600D02*
D03*
D117*
X3987800Y1120100D02*
D03*
D118*
X4241800Y473600D02*
D03*
%TF.MD5,a05be93eb43b29b93acb0dba08363a88*%
M02*
