%TF.GenerationSoftware,Altium Limited,Altium Designer,23.0.1 (38)*%
G04 Layer_Physical_Order=3*
G04 Layer_Color=16440176*
%FSLAX45Y45*%
%MOMM*%
%TF.SameCoordinates,3EE063B3-4F93-4FDD-BE50-ED7C6B7A8C7B*%
%TF.FilePolarity,Positive*%
%TF.FileFunction,Copper,L3,Inr,Signal*%
%TF.Part,Single*%
G01*
G75*
%TA.AperFunction,Conductor*%
%ADD55C,0.20320*%
%TA.AperFunction,ComponentPad*%
G04:AMPARAMS|DCode=58|XSize=2.5mm|YSize=2.5mm|CornerRadius=0.625mm|HoleSize=0mm|Usage=FLASHONLY|Rotation=270.000|XOffset=0mm|YOffset=0mm|HoleType=Round|Shape=RoundedRectangle|*
%AMROUNDEDRECTD58*
21,1,2.50000,1.25000,0,0,270.0*
21,1,1.25000,2.50000,0,0,270.0*
1,1,1.25000,-0.62500,-0.62500*
1,1,1.25000,-0.62500,0.62500*
1,1,1.25000,0.62500,0.62500*
1,1,1.25000,0.62500,-0.62500*
%
%ADD58ROUNDEDRECTD58*%
%ADD59C,1.80000*%
%ADD60C,5.00000*%
%TA.AperFunction,ViaPad*%
%ADD61C,0.60960*%
%ADD62C,0.40000*%
G36*
X9362797Y2932577D02*
X9403811Y2922730D01*
X9442779Y2906589D01*
X9478743Y2884550D01*
X9510816Y2857157D01*
X9538210Y2825084D01*
X9560248Y2789120D01*
X9576390Y2750151D01*
X9586236Y2709137D01*
X9589473Y2668007D01*
X9589290Y2667088D01*
Y88D01*
X9589473Y-832D01*
X9586236Y-41962D01*
X9576390Y-82976D01*
X9560248Y-121944D01*
X9538210Y-157908D01*
X9510816Y-189982D01*
X9478743Y-217375D01*
X9442779Y-239414D01*
X9403811Y-255555D01*
X9362797Y-265402D01*
X9321667Y-268639D01*
X9320747Y-268456D01*
X-10434Y-268457D01*
X-12680Y-268903D01*
X-60727Y-264171D01*
X-109088Y-249501D01*
X-153658Y-225678D01*
X-192724Y-193618D01*
X-224784Y-154552D01*
X-248607Y-109982D01*
X-263277Y-61621D01*
X-267003Y-23796D01*
X-267562Y-11328D01*
X-267572Y1371D01*
X-269596Y2667115D01*
X-269778Y2668024D01*
X-266542Y2709137D01*
X-256695Y2750151D01*
X-240554Y2789120D01*
X-218515Y2825084D01*
X-191122Y2857157D01*
X-159049Y2884550D01*
X-123085Y2906589D01*
X-84116Y2922730D01*
X-43102Y2932577D01*
X-1972Y2935814D01*
X-1053Y2935631D01*
X9320747D01*
X9321667Y2935814D01*
X9362797Y2932577D01*
D02*
G37*
%LPC*%
G36*
X7233920Y2746238D02*
X6332220D01*
X6322309Y2744266D01*
X6313908Y2738652D01*
X6138613Y2563358D01*
X3500120D01*
X3490209Y2561386D01*
X3481808Y2555772D01*
X3461488Y2535452D01*
X3455874Y2527051D01*
X3453902Y2517140D01*
Y2044700D01*
X3455874Y2034789D01*
X3461488Y2026388D01*
X3499588Y1988288D01*
X3507989Y1982674D01*
X3517900Y1980702D01*
X3778953D01*
X3781562Y1978093D01*
Y1668780D01*
X3783534Y1658869D01*
X3789148Y1650468D01*
X3804388Y1635228D01*
X3812789Y1629614D01*
X3822700Y1627642D01*
X4572147D01*
X4581662Y1618127D01*
X4581662Y1361440D01*
X4583633Y1351529D01*
X4589247Y1343128D01*
X4617187Y1315188D01*
X4625589Y1309574D01*
X4635500Y1307602D01*
X4960620D01*
X4970531Y1309574D01*
X4974317Y1312104D01*
X4982412Y1302239D01*
X4981827Y1301653D01*
X4973320Y1281115D01*
Y1258885D01*
X4981827Y1238347D01*
X4997547Y1222627D01*
X5018085Y1214120D01*
X5040315D01*
X5060853Y1222627D01*
X5076573Y1238347D01*
X5085080Y1258885D01*
Y1281115D01*
X5076573Y1301653D01*
X5060853Y1317373D01*
X5040315Y1325880D01*
X5018085D01*
X5000161Y1318456D01*
X4992967Y1329222D01*
X5011952Y1348208D01*
X5017566Y1356609D01*
X5019538Y1366520D01*
Y1570620D01*
X5018683Y1574916D01*
X5018058Y1579248D01*
X5017702Y1579847D01*
X5017566Y1580531D01*
X5015134Y1584171D01*
X5012898Y1587935D01*
X5012340Y1588353D01*
X5011952Y1588933D01*
X5008313Y1591364D01*
X5004806Y1593987D01*
X4992106Y1600056D01*
X4991430Y1600228D01*
X4990850Y1600615D01*
X4986557Y1601469D01*
X4982314Y1602550D01*
X4981623Y1602451D01*
X4980940Y1602587D01*
X4976646Y1601733D01*
X4972312Y1601107D01*
X4971713Y1600751D01*
X4971029Y1600615D01*
X4958964Y1595618D01*
X4947036D01*
X4936016Y1600182D01*
X4927582Y1608616D01*
X4923018Y1619636D01*
Y1631564D01*
X4927582Y1642584D01*
X4936016Y1651018D01*
X4947036Y1655582D01*
X4958964D01*
X4971029Y1650585D01*
X4971713Y1650449D01*
X4972312Y1650093D01*
X4976644Y1649468D01*
X4980939Y1648613D01*
X4981624Y1648750D01*
X4982314Y1648650D01*
X4986554Y1649730D01*
X4990850Y1650585D01*
X4991430Y1650972D01*
X4992106Y1651144D01*
X5004806Y1657213D01*
X5008311Y1659834D01*
X5011952Y1662267D01*
X5012340Y1662847D01*
X5012898Y1663265D01*
X5015134Y1667029D01*
X5017566Y1670669D01*
X5017702Y1671353D01*
X5018058Y1671952D01*
X5018684Y1676286D01*
X5019538Y1680580D01*
Y1866333D01*
X5161847Y2008642D01*
X5932973D01*
X5942884Y2010614D01*
X5951286Y2016227D01*
X5956899Y2024629D01*
X5962160Y2037329D01*
X5964131Y2047240D01*
X5962160Y2057151D01*
X5956546Y2065552D01*
X5956282Y2065816D01*
X5951718Y2076836D01*
Y2088764D01*
X5956282Y2099784D01*
X5964716Y2108218D01*
X5975736Y2112782D01*
X5987664D01*
X5998684Y2108218D01*
X6007118Y2099784D01*
X6011682Y2088764D01*
Y2076836D01*
X6007118Y2065816D01*
X6006854Y2065552D01*
X6001240Y2057151D01*
X5999269Y2047240D01*
X6001240Y2037329D01*
X6006501Y2024629D01*
X6012114Y2016228D01*
X6020516Y2010614D01*
X6030427Y2008642D01*
X6656773D01*
X6725422Y1939993D01*
Y1882140D01*
X6727394Y1872229D01*
X6733008Y1863828D01*
X6814288Y1782548D01*
X6822689Y1776934D01*
X6832600Y1774962D01*
X7226300D01*
X7236211Y1776934D01*
X7244612Y1782548D01*
X7313192Y1851128D01*
X7318806Y1859529D01*
X7320778Y1869440D01*
Y2659380D01*
X7318806Y2669291D01*
X7313192Y2677692D01*
X7252232Y2738652D01*
X7243831Y2744266D01*
X7233920Y2746238D01*
D02*
G37*
G36*
X5207955Y1717040D02*
X5185725D01*
X5165187Y1708533D01*
X5149467Y1692813D01*
X5140960Y1672275D01*
Y1650045D01*
X5149467Y1629507D01*
X5165187Y1613787D01*
X5185725Y1605280D01*
X5207955D01*
X5228493Y1613787D01*
X5244213Y1629507D01*
X5252720Y1650045D01*
Y1672275D01*
X5244213Y1692813D01*
X5228493Y1708533D01*
X5207955Y1717040D01*
D02*
G37*
G36*
X5477486Y1596365D02*
X5455256D01*
X5434718Y1587858D01*
X5418998Y1572138D01*
X5410491Y1551600D01*
Y1529370D01*
X5418998Y1508831D01*
X5434718Y1493112D01*
X5455256Y1484605D01*
X5477486D01*
X5498025Y1493112D01*
X5513744Y1508831D01*
X5522251Y1529370D01*
Y1551600D01*
X5513744Y1572138D01*
X5498025Y1587858D01*
X5477486Y1596365D01*
D02*
G37*
G36*
X5243515Y1579880D02*
X5221285D01*
X5200747Y1571373D01*
X5185027Y1555653D01*
X5176520Y1535115D01*
Y1512885D01*
X5185027Y1492347D01*
X5200747Y1476627D01*
X5221285Y1468120D01*
X5243515D01*
X5264053Y1476627D01*
X5279773Y1492347D01*
X5288280Y1512885D01*
Y1535115D01*
X5279773Y1555653D01*
X5264053Y1571373D01*
X5243515Y1579880D01*
D02*
G37*
G36*
X341900Y1624358D02*
X216900D01*
X193953Y1621337D01*
X172571Y1612480D01*
X154209Y1598391D01*
X140120Y1580029D01*
X131263Y1558647D01*
X128242Y1535700D01*
Y1410700D01*
X131263Y1387753D01*
X140120Y1366371D01*
X154209Y1348009D01*
X172571Y1333920D01*
X193953Y1325063D01*
X216900Y1322042D01*
X341900D01*
X364847Y1325063D01*
X386229Y1333920D01*
X404591Y1348009D01*
X418680Y1366371D01*
X427537Y1387753D01*
X430558Y1410700D01*
Y1535700D01*
X427537Y1558647D01*
X418680Y1580029D01*
X404591Y1598391D01*
X386229Y1612480D01*
X364847Y1621337D01*
X341900Y1624358D01*
D02*
G37*
G36*
X1869125Y1318260D02*
X1846895D01*
X1826357Y1309753D01*
X1821180Y1304576D01*
X1816003Y1309753D01*
X1795465Y1318260D01*
X1773235D01*
X1752697Y1309753D01*
X1736977Y1294033D01*
X1728470Y1273495D01*
Y1251265D01*
X1736977Y1230727D01*
X1752697Y1215007D01*
X1762063Y1211127D01*
Y524624D01*
X1762063Y524622D01*
X1764823Y510748D01*
X1772683Y498985D01*
X2071245Y200423D01*
X2083008Y192563D01*
X2096882Y189803D01*
X2096884Y189803D01*
X5416436D01*
X5416438Y189803D01*
X5430312Y192563D01*
X5442075Y200423D01*
X5687297Y445644D01*
X5687297Y445645D01*
X5695157Y457407D01*
X5697917Y471282D01*
X5697917Y471284D01*
Y499927D01*
X5707283Y503807D01*
X5723003Y519527D01*
X5731510Y540065D01*
Y562295D01*
X5723003Y582833D01*
X5707283Y598553D01*
X5686745Y607060D01*
X5664515D01*
X5643977Y598553D01*
X5638800Y593376D01*
X5633623Y598553D01*
X5613085Y607060D01*
X5590855D01*
X5570317Y598553D01*
X5554597Y582833D01*
X5546090Y562295D01*
Y540065D01*
X5554597Y519527D01*
X5565304Y508820D01*
X5566948Y492502D01*
X5382482Y308037D01*
X2130838D01*
X1880297Y558578D01*
Y1211127D01*
X1889663Y1215007D01*
X1905383Y1230727D01*
X1913890Y1251265D01*
Y1273495D01*
X1905383Y1294033D01*
X1889663Y1309753D01*
X1869125Y1318260D01*
D02*
G37*
G36*
X9118600Y2476998D02*
X8547100D01*
X8537189Y2475026D01*
X8528788Y2469412D01*
X8490688Y2431312D01*
X8485074Y2422911D01*
X8483102Y2413000D01*
Y1765300D01*
X8485074Y1755389D01*
X8490688Y1746988D01*
X8622802Y1614873D01*
Y1282700D01*
X8624774Y1272789D01*
X8630388Y1264388D01*
X8719288Y1175488D01*
X8727689Y1169874D01*
X8737600Y1167902D01*
X9207500D01*
X9217411Y1169874D01*
X9225812Y1175488D01*
X9276612Y1226288D01*
X9282226Y1234689D01*
X9284198Y1244600D01*
Y1689100D01*
X9282226Y1699011D01*
X9276612Y1707412D01*
X9246098Y1737927D01*
Y2349500D01*
X9244126Y2359411D01*
X9238512Y2367812D01*
X9136912Y2469412D01*
X9128511Y2475026D01*
X9118600Y2476998D01*
D02*
G37*
G36*
X4614115Y1249680D02*
X4591885D01*
X4571347Y1241173D01*
X4555627Y1225453D01*
X4547120Y1204915D01*
Y1182685D01*
X4555627Y1162147D01*
X4571347Y1146427D01*
X4591885Y1137920D01*
X4614115D01*
X4634654Y1146427D01*
X4650373Y1162147D01*
X4658880Y1182685D01*
Y1204915D01*
X4650373Y1225453D01*
X4634654Y1241173D01*
X4614115Y1249680D01*
D02*
G37*
G36*
X6081715Y1201420D02*
X6059485D01*
X6038947Y1192913D01*
X6023227Y1177193D01*
X6014720Y1156655D01*
Y1134425D01*
X6023227Y1113887D01*
X6038947Y1098167D01*
X6059485Y1089660D01*
X6081715D01*
X6102253Y1098167D01*
X6117973Y1113887D01*
X6126480Y1134425D01*
Y1156655D01*
X6117973Y1177193D01*
X6102253Y1192913D01*
X6081715Y1201420D01*
D02*
G37*
G36*
X5517835Y1064358D02*
X5495605D01*
X5475067Y1055850D01*
X5459347Y1040131D01*
X5450840Y1019593D01*
Y999793D01*
X5450464Y997009D01*
X5440947Y988060D01*
X5427025D01*
X5406487Y979553D01*
X5390767Y963833D01*
X5382260Y943295D01*
Y921065D01*
X5390767Y900527D01*
X5406487Y884807D01*
X5427025Y876300D01*
X5449255D01*
X5469793Y884807D01*
X5485513Y900527D01*
X5494020Y921065D01*
Y940864D01*
X5494396Y943649D01*
X5503913Y952598D01*
X5517835D01*
X5538373Y961105D01*
X5554093Y976824D01*
X5562600Y997362D01*
Y1019593D01*
X5554093Y1040131D01*
X5538373Y1055850D01*
X5517835Y1064358D01*
D02*
G37*
G36*
X5959795Y840740D02*
X5937565D01*
X5917027Y832233D01*
X5901307Y816513D01*
X5892800Y795975D01*
Y773745D01*
X5901307Y753207D01*
X5917027Y737487D01*
X5937565Y728980D01*
X5959795D01*
X5980333Y737487D01*
X5996053Y753207D01*
X6004560Y773745D01*
Y795975D01*
X5996053Y816513D01*
X5980333Y832233D01*
X5959795Y840740D01*
D02*
G37*
G36*
X6262055Y838570D02*
X6239825D01*
X6219287Y830063D01*
X6203567Y814343D01*
X6195060Y793805D01*
Y771575D01*
X6203567Y751036D01*
X6219287Y735317D01*
X6239825Y726810D01*
X6262055D01*
X6282593Y735317D01*
X6298313Y751036D01*
X6306820Y771575D01*
Y793805D01*
X6298313Y814343D01*
X6282593Y830063D01*
X6262055Y838570D01*
D02*
G37*
G36*
X4875215Y652780D02*
X4852985D01*
X4832447Y644273D01*
X4816727Y628553D01*
X4808220Y608015D01*
Y585785D01*
X4816727Y565247D01*
X4832447Y549527D01*
X4852985Y541020D01*
X4875215D01*
X4895753Y549527D01*
X4911473Y565247D01*
X4919980Y585785D01*
Y608015D01*
X4911473Y628553D01*
X4895753Y644273D01*
X4875215Y652780D01*
D02*
G37*
G36*
X4557715Y513080D02*
X4535485D01*
X4514947Y504573D01*
X4499227Y488853D01*
X4490720Y468315D01*
Y446085D01*
X4499227Y425547D01*
X4514947Y409827D01*
X4535485Y401320D01*
X4557715D01*
X4578253Y409827D01*
X4593973Y425547D01*
X4602480Y446085D01*
Y468315D01*
X4593973Y488853D01*
X4578253Y504573D01*
X4557715Y513080D01*
D02*
G37*
G36*
X6111193Y115400D02*
X6108700D01*
Y12700D01*
X6211400D01*
Y15193D01*
X6203535Y44543D01*
X6188343Y70857D01*
X6166857Y92343D01*
X6140543Y107535D01*
X6111193Y115400D01*
D02*
G37*
G36*
X6083300D02*
X6080807D01*
X6051457Y107535D01*
X6025143Y92343D01*
X6003657Y70857D01*
X5988465Y44543D01*
X5980600Y15193D01*
Y12700D01*
X6083300D01*
Y115400D01*
D02*
G37*
G36*
X6211400Y-12700D02*
X6108700D01*
Y-115400D01*
X6111193D01*
X6140543Y-107535D01*
X6166857Y-92343D01*
X6188343Y-70857D01*
X6203535Y-44543D01*
X6211400Y-15193D01*
Y-12700D01*
D02*
G37*
G36*
X6083300D02*
X5980600D01*
Y-15193D01*
X5988465Y-44543D01*
X6003657Y-70857D01*
X6025143Y-92343D01*
X6051457Y-107535D01*
X6080807Y-115400D01*
X6083300D01*
Y-12700D01*
D02*
G37*
G36*
X5857193Y115400D02*
X5826807D01*
X5797457Y107535D01*
X5771143Y92343D01*
X5749657Y70857D01*
X5734465Y44543D01*
X5726600Y15193D01*
Y-15193D01*
X5734465Y-44543D01*
X5749657Y-70857D01*
X5771143Y-92343D01*
X5797457Y-107535D01*
X5826807Y-115400D01*
X5857193D01*
X5886543Y-107535D01*
X5912857Y-92343D01*
X5934343Y-70857D01*
X5949535Y-44543D01*
X5957400Y-15193D01*
Y15193D01*
X5949535Y44543D01*
X5934343Y70857D01*
X5912857Y92343D01*
X5886543Y107535D01*
X5857193Y115400D01*
D02*
G37*
G36*
X5603193D02*
X5572807D01*
X5543457Y107535D01*
X5517143Y92343D01*
X5495657Y70857D01*
X5480465Y44543D01*
X5472600Y15193D01*
Y-15193D01*
X5480465Y-44543D01*
X5495657Y-70857D01*
X5517143Y-92343D01*
X5543457Y-107535D01*
X5572807Y-115400D01*
X5603193D01*
X5632543Y-107535D01*
X5658857Y-92343D01*
X5680343Y-70857D01*
X5695535Y-44543D01*
X5703400Y-15193D01*
Y15193D01*
X5695535Y44543D01*
X5680343Y70857D01*
X5658857Y92343D01*
X5632543Y107535D01*
X5603193Y115400D01*
D02*
G37*
G36*
X5349193D02*
X5318807D01*
X5289457Y107535D01*
X5263143Y92343D01*
X5241657Y70857D01*
X5226465Y44543D01*
X5218600Y15193D01*
Y-15193D01*
X5226465Y-44543D01*
X5241657Y-70857D01*
X5263143Y-92343D01*
X5289457Y-107535D01*
X5318807Y-115400D01*
X5349193D01*
X5378543Y-107535D01*
X5404857Y-92343D01*
X5426343Y-70857D01*
X5441535Y-44543D01*
X5449400Y-15193D01*
Y15193D01*
X5441535Y44543D01*
X5426343Y70857D01*
X5404857Y92343D01*
X5378543Y107535D01*
X5349193Y115400D01*
D02*
G37*
%LPD*%
G36*
X7294880Y2659380D02*
Y1869440D01*
X7226300Y1800860D01*
X6832600D01*
X6751320Y1882140D01*
Y1950720D01*
X6667500Y2034540D01*
X6030427D01*
X6025166Y2047240D01*
X6029073Y2051147D01*
X6037580Y2071685D01*
Y2093915D01*
X6029073Y2114453D01*
X6013353Y2130173D01*
X5992815Y2138680D01*
X5970585D01*
X5950047Y2130173D01*
X5934327Y2114453D01*
X5925820Y2093915D01*
Y2071685D01*
X5934327Y2051147D01*
X5938234Y2047240D01*
X5932973Y2034540D01*
X5151120D01*
X4993640Y1877060D01*
Y1680580D01*
X4980940Y1674511D01*
X4964115Y1681480D01*
X4941885D01*
X4921347Y1672973D01*
X4905627Y1657253D01*
X4897120Y1636715D01*
Y1614485D01*
X4905627Y1593947D01*
X4921347Y1578227D01*
X4941885Y1569720D01*
X4964115D01*
X4980940Y1576689D01*
X4993640Y1570620D01*
Y1366520D01*
X4960620Y1333500D01*
X4635500D01*
X4607560Y1361440D01*
X4607560Y1630680D01*
X4584700Y1653540D01*
X3822700D01*
X3807460Y1668780D01*
Y1988820D01*
X3789680Y2006600D01*
X3517900D01*
X3479800Y2044700D01*
Y2517140D01*
X3500120Y2537460D01*
X6149340D01*
X6332220Y2720340D01*
X7233920D01*
X7294880Y2659380D01*
D02*
G37*
%LPC*%
G36*
X6043615Y2430780D02*
X6021385D01*
X6000847Y2422273D01*
X5985127Y2406553D01*
X5976620Y2386015D01*
Y2363785D01*
X5985127Y2343247D01*
X6000847Y2327527D01*
X6021385Y2319020D01*
X6043615D01*
X6064153Y2327527D01*
X6079873Y2343247D01*
X6088380Y2363785D01*
Y2386015D01*
X6079873Y2406553D01*
X6064153Y2422273D01*
X6043615Y2430780D01*
D02*
G37*
%LPD*%
G36*
X9220200Y2349500D02*
Y1727200D01*
X9258300Y1689100D01*
Y1244600D01*
X9207500Y1193800D01*
X8737600D01*
X8648700Y1282700D01*
Y1625600D01*
X8509000Y1765300D01*
Y2413000D01*
X8547100Y2451100D01*
X9118600D01*
X9220200Y2349500D01*
D02*
G37*
D55*
X1784350Y1251383D02*
Y1262380D01*
X1844040Y543560D02*
Y1237413D01*
X1784350Y1251383D02*
X1798320Y1237413D01*
Y524622D02*
Y1237413D01*
X1844040Y543560D02*
X2115820Y271780D01*
X1798320Y524622D02*
X2096882Y226060D01*
X5661660Y526213D02*
X5675630Y540183D01*
Y551180D01*
X5661660Y471282D02*
Y526213D01*
X2096882Y226060D02*
X5416438D01*
X5661660Y471282D01*
X2115820Y271780D02*
X5397500D01*
X5615940Y490220D02*
Y526213D01*
X5397500Y271780D02*
X5615940Y490220D01*
X5601970Y540183D02*
X5615940Y526213D01*
X5601970Y540183D02*
Y551180D01*
D58*
X279400Y1473200D02*
D03*
Y965200D02*
D03*
X8991600Y939800D02*
D03*
Y1447800D02*
D03*
D59*
X6096000Y0D02*
D03*
X5842000D02*
D03*
X5588000D02*
D03*
X5334000D02*
D03*
D60*
X0Y2667000D02*
D03*
Y0D02*
D03*
X9321800D02*
D03*
Y2667000D02*
D03*
D61*
X6032500Y2374900D02*
D03*
X5981700Y2082800D02*
D03*
X9372600Y1168400D02*
D03*
X9245600Y914400D02*
D03*
Y406400D02*
D03*
X8991600D02*
D03*
Y-101600D02*
D03*
X8864600Y2692400D02*
D03*
X8737600Y914400D02*
D03*
Y406400D02*
D03*
X8864600Y152400D02*
D03*
X8737600Y-101600D02*
D03*
X8610600Y2692400D02*
D03*
X8483600Y1422400D02*
D03*
X8610600Y1168400D02*
D03*
X8483600Y914400D02*
D03*
Y406400D02*
D03*
X8610600Y152400D02*
D03*
X8483600Y-101600D02*
D03*
X8229600Y1930400D02*
D03*
X8356600Y1168400D02*
D03*
X8229600Y914400D02*
D03*
X8356600Y660400D02*
D03*
Y152400D02*
D03*
X8229600Y-101600D02*
D03*
X7975600Y914400D02*
D03*
X8102600Y660400D02*
D03*
X7975600Y-101600D02*
D03*
X7721600Y1422400D02*
D03*
X7848600Y1168400D02*
D03*
X7721600Y914400D02*
D03*
X7848600Y660400D02*
D03*
X7721600Y-101600D02*
D03*
X7467600Y2438400D02*
D03*
Y1930400D02*
D03*
X7594600Y1676400D02*
D03*
Y1168400D02*
D03*
X7467600Y914400D02*
D03*
X7594600Y660400D02*
D03*
X7467600Y-101600D02*
D03*
X7340600Y660400D02*
D03*
X7213600Y-101600D02*
D03*
X7086600Y660400D02*
D03*
X6959600Y-101600D02*
D03*
X6705600Y914400D02*
D03*
X6832600Y660400D02*
D03*
X6705600Y406400D02*
D03*
X6832600Y152400D02*
D03*
X6705600Y-101600D02*
D03*
X6451600Y1930400D02*
D03*
Y1422400D02*
D03*
X6578600Y1168400D02*
D03*
Y660400D02*
D03*
X6451600Y406400D02*
D03*
X6578600Y152400D02*
D03*
X6451600Y-101600D02*
D03*
X6324600Y1168400D02*
D03*
Y152400D02*
D03*
X6070600Y2692400D02*
D03*
X5943600Y914400D02*
D03*
X5816600Y2692400D02*
D03*
X5562600D02*
D03*
X5308600D02*
D03*
X5181600Y1930400D02*
D03*
X5054600Y2692400D02*
D03*
Y1676400D02*
D03*
X4927600Y406400D02*
D03*
Y-101600D02*
D03*
X4800600Y2692400D02*
D03*
X4673600Y406400D02*
D03*
X4800600Y152400D02*
D03*
X4673600Y-101600D02*
D03*
X4546600Y152400D02*
D03*
X4419600Y-101600D02*
D03*
X4292600Y152400D02*
D03*
X4165600Y-101600D02*
D03*
X4038600Y152400D02*
D03*
X3911600Y-101600D02*
D03*
X3657600Y914400D02*
D03*
X3784600Y660400D02*
D03*
X3657600Y406400D02*
D03*
X3784600Y152400D02*
D03*
X3657600Y-101600D02*
D03*
X3530600Y2692400D02*
D03*
Y1676400D02*
D03*
X3403600Y914400D02*
D03*
X3530600Y660400D02*
D03*
X3403600Y406400D02*
D03*
X3530600Y152400D02*
D03*
X3276600Y2692400D02*
D03*
Y1676400D02*
D03*
X3149600Y1422400D02*
D03*
X3276600Y1168400D02*
D03*
X3149600Y914400D02*
D03*
X3276600Y660400D02*
D03*
X3149600Y406400D02*
D03*
X3276600Y152400D02*
D03*
X3022600Y2692400D02*
D03*
X2895600Y2438400D02*
D03*
X3022600Y2184400D02*
D03*
Y1676400D02*
D03*
Y1168400D02*
D03*
Y660400D02*
D03*
X2895600Y406400D02*
D03*
X3022600Y152400D02*
D03*
X2768600Y2692400D02*
D03*
X2641600Y2438400D02*
D03*
X2768600Y2184400D02*
D03*
Y660400D02*
D03*
X2641600Y406400D02*
D03*
X2768600Y152400D02*
D03*
X2641600Y-101600D02*
D03*
X2514600Y2692400D02*
D03*
Y2184400D02*
D03*
Y660400D02*
D03*
Y152400D02*
D03*
X2260600Y660400D02*
D03*
X863600Y-101600D02*
D03*
X736600Y2692400D02*
D03*
X609600Y2438400D02*
D03*
X736600Y2184400D02*
D03*
X609600Y1930400D02*
D03*
Y914400D02*
D03*
Y406400D02*
D03*
X736600Y152400D02*
D03*
X609600Y-101600D02*
D03*
X482600Y2692400D02*
D03*
X355600Y2438400D02*
D03*
X482600Y2184400D02*
D03*
X355600Y1930400D02*
D03*
X482600Y660400D02*
D03*
X355600Y406400D02*
D03*
X482600Y152400D02*
D03*
X355600Y-101600D02*
D03*
X228600Y2184400D02*
D03*
X101600Y1930400D02*
D03*
X228600Y660400D02*
D03*
X101600Y406400D02*
D03*
X-25400Y2184400D02*
D03*
X-152400Y1930400D02*
D03*
X-25400Y660400D02*
D03*
X-152400Y406400D02*
D03*
X6197600Y1473200D02*
D03*
X6210300Y1333500D02*
D03*
X6223000Y1219200D02*
D03*
Y1092200D02*
D03*
X5905500Y1435100D02*
D03*
X5981700Y1308100D02*
D03*
X5918200Y1117600D02*
D03*
X5880100Y1016000D02*
D03*
X5143500Y1270000D02*
D03*
X4178300Y2032000D02*
D03*
X8610600Y1790700D02*
D03*
X8737600Y1752600D02*
D03*
X8890000D02*
D03*
X9118600D02*
D03*
Y1892300D02*
D03*
Y2044700D02*
D03*
Y2184400D02*
D03*
Y2311400D02*
D03*
X8750300Y2286000D02*
D03*
Y2159000D02*
D03*
Y2006600D02*
D03*
X8864600D02*
D03*
X8623300D02*
D03*
X8864600Y2159000D02*
D03*
X8623300D02*
D03*
X8864600Y2286000D02*
D03*
X8623300D02*
D03*
X4953000Y1625600D02*
D03*
X5092700Y1752600D02*
D03*
X4368800Y1892300D02*
D03*
X4178300D02*
D03*
X3987800Y2044700D02*
D03*
Y1892300D02*
D03*
Y1739900D02*
D03*
X4178300D02*
D03*
X4368800D02*
D03*
Y2044700D02*
D03*
X1155700Y-177800D02*
D03*
X1028700D02*
D03*
X952500Y-114300D02*
D03*
Y-38100D02*
D03*
Y114300D02*
D03*
Y203200D02*
D03*
Y304800D02*
D03*
Y457200D02*
D03*
Y533400D02*
D03*
X850900D02*
D03*
X863600Y698500D02*
D03*
Y800100D02*
D03*
X889000Y952500D02*
D03*
X1003300Y977900D02*
D03*
X876300Y1752600D02*
D03*
X825500Y1905000D02*
D03*
X889000Y1968500D02*
D03*
X952500Y2044700D02*
D03*
Y2222500D02*
D03*
Y2311400D02*
D03*
Y2413000D02*
D03*
Y2578100D02*
D03*
Y2667000D02*
D03*
X1028700Y2717800D02*
D03*
X1168400D02*
D03*
X2095500D02*
D03*
X2235200D02*
D03*
X2324100Y2654300D02*
D03*
Y2565400D02*
D03*
Y2413000D02*
D03*
Y2336800D02*
D03*
Y2247900D02*
D03*
Y2082800D02*
D03*
Y2006600D02*
D03*
X2159000Y1943100D02*
D03*
X2019300Y1879600D02*
D03*
X2108200Y1866900D02*
D03*
X2019300Y1689100D02*
D03*
X2032000Y838200D02*
D03*
Y647700D02*
D03*
X2146300Y622300D02*
D03*
X2362200Y546100D02*
D03*
Y457200D02*
D03*
X2336800Y152400D02*
D03*
Y-63500D02*
D03*
X2324100Y-177800D02*
D03*
X2171700Y-165100D02*
D03*
X3848100Y558800D02*
D03*
X3771900D02*
D03*
X3849193Y487057D02*
D03*
X3772993D02*
D03*
X3848100Y419100D02*
D03*
X3771900D02*
D03*
Y342900D02*
D03*
X3848100D02*
D03*
X4305300D02*
D03*
X4229100D02*
D03*
X4152900D02*
D03*
X4076700D02*
D03*
X4000500D02*
D03*
X5219700Y546100D02*
D03*
X5321300D02*
D03*
X5829300Y571500D02*
D03*
X5664200Y292100D02*
D03*
X5727700Y203200D02*
D03*
X5892800D02*
D03*
X5943600Y292100D02*
D03*
X6413500Y1816100D02*
D03*
X6489700Y1651000D02*
D03*
X6642100D02*
D03*
X8204200Y76200D02*
D03*
X8191500Y495300D02*
D03*
X8369300Y304800D02*
D03*
X8534400Y1536700D02*
D03*
X8559800Y1358900D02*
D03*
X8293100Y1320800D02*
D03*
X8280400Y1854200D02*
D03*
X8115300Y1587500D02*
D03*
X7975600Y1701800D02*
D03*
X4521200Y2057400D02*
D03*
X4610100D02*
D03*
X4521200Y2133600D02*
D03*
X4610100D02*
D03*
X4521200Y2209800D02*
D03*
X4610100D02*
D03*
X4584700Y2387600D02*
D03*
Y2286000D02*
D03*
X4508500Y2387600D02*
D03*
Y2286000D02*
D03*
X4432300Y2387600D02*
D03*
Y2286000D02*
D03*
X4356100Y2387600D02*
D03*
Y2286000D02*
D03*
X4279900Y2387600D02*
D03*
Y2286000D02*
D03*
X4203700Y2387600D02*
D03*
Y2286000D02*
D03*
X4127500Y2387600D02*
D03*
Y2286000D02*
D03*
X4051300Y2387600D02*
D03*
Y2286000D02*
D03*
X3975100Y2387600D02*
D03*
Y2286000D02*
D03*
X3898900Y2387600D02*
D03*
Y2286000D02*
D03*
X3810000Y2387600D02*
D03*
X3708400D02*
D03*
X3810000Y2311400D02*
D03*
X3708400D02*
D03*
X3810000Y2235200D02*
D03*
X3708400D02*
D03*
X3810000Y2159000D02*
D03*
X3708400D02*
D03*
Y2082800D02*
D03*
X3810000D02*
D03*
X6667500Y2286000D02*
D03*
Y2374900D02*
D03*
Y2463800D02*
D03*
Y2552700D02*
D03*
Y2641600D02*
D03*
X6591300Y2235200D02*
D03*
Y2324100D02*
D03*
Y2413000D02*
D03*
Y2501900D02*
D03*
Y2590800D02*
D03*
X6515100Y2273300D02*
D03*
Y2362200D02*
D03*
Y2451100D02*
D03*
Y2540000D02*
D03*
Y2628900D02*
D03*
X6438900Y2590800D02*
D03*
Y2501900D02*
D03*
Y2413000D02*
D03*
Y2324100D02*
D03*
Y2235200D02*
D03*
X6362700Y2286000D02*
D03*
Y2374900D02*
D03*
Y2463800D02*
D03*
Y2552700D02*
D03*
Y2641600D02*
D03*
X4856480Y1427480D02*
D03*
X4902200Y1516380D02*
D03*
X1858010Y1262380D02*
D03*
X1784350D02*
D03*
X5675630Y551180D02*
D03*
X5601970D02*
D03*
X5196840Y1661160D02*
D03*
X4864100Y596900D02*
D03*
X5438140Y932180D02*
D03*
X5506720Y1008478D02*
D03*
X6250940Y782690D02*
D03*
X5948680Y784860D02*
D03*
X5466371Y1540485D02*
D03*
X5232400Y1524000D02*
D03*
X6070600Y1145540D02*
D03*
X5029200Y1270000D02*
D03*
X4546600Y457200D02*
D03*
X4603000Y1193800D02*
D03*
D62*
X5605200Y1270000D02*
D03*
X5717200D02*
D03*
X5469200D02*
D03*
X5357200D02*
D03*
X5605200Y1190000D02*
D03*
Y1350000D02*
D03*
X5469200D02*
D03*
Y1190000D02*
D03*
%TF.MD5,ac2750e2b8b6b2b7d75716d4a57ab6f3*%
M02*
