%TF.GenerationSoftware,Altium Limited,Altium Designer,23.0.1 (38)*%
G04 Layer_Color=128*
%FSLAX45Y45*%
%MOMM*%
%TF.SameCoordinates,3EE063B3-4F93-4FDD-BE50-ED7C6B7A8C7B*%
%TF.FilePolarity,Positive*%
%TF.FileFunction,Drillmap*%
%TF.Part,Single*%
G01*
G75*
%TA.AperFunction,NonConductor*%
%ADD127C,0.12700*%
D127*
X229400Y1473200D02*
X329400D01*
X279400Y1423200D02*
Y1523200D01*
X229400Y965200D02*
X329400D01*
X279400Y915200D02*
Y1015200D01*
X6046000Y0D02*
X6146000D01*
X6096000Y-50000D02*
Y50000D01*
X5792000Y0D02*
X5892000D01*
X5842000Y-50000D02*
Y50000D01*
X5538000Y0D02*
X5638000D01*
X5588000Y-50000D02*
Y50000D01*
X5284000Y0D02*
X5384000D01*
X5334000Y-50000D02*
Y50000D01*
X8941600Y939800D02*
X9041600D01*
X8991600Y889800D02*
Y989800D01*
X8941600Y1447800D02*
X9041600D01*
X8991600Y1397800D02*
Y1497800D01*
X-175000Y2667000D02*
X175000D01*
X0Y2492000D02*
Y2842000D01*
X-175000Y0D02*
X175000D01*
X0Y-175000D02*
Y175000D01*
X9146800Y0D02*
X9496800D01*
X9321800Y-175000D02*
Y175000D01*
X9146800Y2667000D02*
X9496800D01*
X9321800Y2492000D02*
Y2842000D01*
X6017260Y2374900D02*
X6047740D01*
X6032500Y2359660D02*
Y2390140D01*
X5966460Y2082800D02*
X5996940D01*
X5981700Y2067560D02*
Y2098040D01*
X9357360Y1168400D02*
X9387840D01*
X9372600Y1153160D02*
Y1183640D01*
X9230360Y914400D02*
X9260840D01*
X9245600Y899160D02*
Y929640D01*
X9230360Y406400D02*
X9260840D01*
X9245600Y391160D02*
Y421640D01*
X8976360Y406400D02*
X9006840D01*
X8991600Y391160D02*
Y421640D01*
X8976360Y-101600D02*
X9006840D01*
X8991600Y-116840D02*
Y-86360D01*
X8849360Y2692400D02*
X8879840D01*
X8864600Y2677160D02*
Y2707640D01*
X8722360Y914400D02*
X8752840D01*
X8737600Y899160D02*
Y929640D01*
X8722360Y406400D02*
X8752840D01*
X8737600Y391160D02*
Y421640D01*
X8849360Y152400D02*
X8879840D01*
X8864600Y137160D02*
Y167640D01*
X8722360Y-101600D02*
X8752840D01*
X8737600Y-116840D02*
Y-86360D01*
X8595360Y2692400D02*
X8625840D01*
X8610600Y2677160D02*
Y2707640D01*
X8468360Y1422400D02*
X8498840D01*
X8483600Y1407160D02*
Y1437640D01*
X8595360Y1168400D02*
X8625840D01*
X8610600Y1153160D02*
Y1183640D01*
X8468360Y914400D02*
X8498840D01*
X8483600Y899160D02*
Y929640D01*
X8468360Y406400D02*
X8498840D01*
X8483600Y391160D02*
Y421640D01*
X8595360Y152400D02*
X8625840D01*
X8610600Y137160D02*
Y167640D01*
X8468360Y-101600D02*
X8498840D01*
X8483600Y-116840D02*
Y-86360D01*
X8214360Y1930400D02*
X8244840D01*
X8229600Y1915160D02*
Y1945640D01*
X8341360Y1168400D02*
X8371840D01*
X8356600Y1153160D02*
Y1183640D01*
X8214360Y914400D02*
X8244840D01*
X8229600Y899160D02*
Y929640D01*
X8341360Y660400D02*
X8371840D01*
X8356600Y645160D02*
Y675640D01*
X8341360Y152400D02*
X8371840D01*
X8356600Y137160D02*
Y167640D01*
X8214360Y-101600D02*
X8244840D01*
X8229600Y-116840D02*
Y-86360D01*
X7960360Y914400D02*
X7990840D01*
X7975600Y899160D02*
Y929640D01*
X8087360Y660400D02*
X8117840D01*
X8102600Y645160D02*
Y675640D01*
X7960360Y-101600D02*
X7990840D01*
X7975600Y-116840D02*
Y-86360D01*
X7706360Y1422400D02*
X7736840D01*
X7721600Y1407160D02*
Y1437640D01*
X7833360Y1168400D02*
X7863840D01*
X7848600Y1153160D02*
Y1183640D01*
X7706360Y914400D02*
X7736840D01*
X7721600Y899160D02*
Y929640D01*
X7833360Y660400D02*
X7863840D01*
X7848600Y645160D02*
Y675640D01*
X7706360Y-101600D02*
X7736840D01*
X7721600Y-116840D02*
Y-86360D01*
X7452360Y2438400D02*
X7482840D01*
X7467600Y2423160D02*
Y2453640D01*
X7452360Y1930400D02*
X7482840D01*
X7467600Y1915160D02*
Y1945640D01*
X7579360Y1676400D02*
X7609840D01*
X7594600Y1661160D02*
Y1691640D01*
X7579360Y1168400D02*
X7609840D01*
X7594600Y1153160D02*
Y1183640D01*
X7452360Y914400D02*
X7482840D01*
X7467600Y899160D02*
Y929640D01*
X7579360Y660400D02*
X7609840D01*
X7594600Y645160D02*
Y675640D01*
X7452360Y-101600D02*
X7482840D01*
X7467600Y-116840D02*
Y-86360D01*
X7325360Y660400D02*
X7355840D01*
X7340600Y645160D02*
Y675640D01*
X7198360Y-101600D02*
X7228840D01*
X7213600Y-116840D02*
Y-86360D01*
X7071360Y660400D02*
X7101840D01*
X7086600Y645160D02*
Y675640D01*
X6944360Y-101600D02*
X6974840D01*
X6959600Y-116840D02*
Y-86360D01*
X6690360Y914400D02*
X6720840D01*
X6705600Y899160D02*
Y929640D01*
X6817360Y660400D02*
X6847840D01*
X6832600Y645160D02*
Y675640D01*
X6690360Y406400D02*
X6720840D01*
X6705600Y391160D02*
Y421640D01*
X6817360Y152400D02*
X6847840D01*
X6832600Y137160D02*
Y167640D01*
X6690360Y-101600D02*
X6720840D01*
X6705600Y-116840D02*
Y-86360D01*
X6436360Y1930400D02*
X6466840D01*
X6451600Y1915160D02*
Y1945640D01*
X6436360Y1422400D02*
X6466840D01*
X6451600Y1407160D02*
Y1437640D01*
X6563360Y1168400D02*
X6593840D01*
X6578600Y1153160D02*
Y1183640D01*
X6563360Y660400D02*
X6593840D01*
X6578600Y645160D02*
Y675640D01*
X6436360Y406400D02*
X6466840D01*
X6451600Y391160D02*
Y421640D01*
X6563360Y152400D02*
X6593840D01*
X6578600Y137160D02*
Y167640D01*
X6436360Y-101600D02*
X6466840D01*
X6451600Y-116840D02*
Y-86360D01*
X6309360Y1168400D02*
X6339840D01*
X6324600Y1153160D02*
Y1183640D01*
X6309360Y152400D02*
X6339840D01*
X6324600Y137160D02*
Y167640D01*
X6055360Y2692400D02*
X6085840D01*
X6070600Y2677160D02*
Y2707640D01*
X5928360Y914400D02*
X5958840D01*
X5943600Y899160D02*
Y929640D01*
X5801360Y2692400D02*
X5831840D01*
X5816600Y2677160D02*
Y2707640D01*
X5547360Y2692400D02*
X5577840D01*
X5562600Y2677160D02*
Y2707640D01*
X5293360Y2692400D02*
X5323840D01*
X5308600Y2677160D02*
Y2707640D01*
X5166360Y1930400D02*
X5196840D01*
X5181600Y1915160D02*
Y1945640D01*
X5039360Y2692400D02*
X5069840D01*
X5054600Y2677160D02*
Y2707640D01*
X5039360Y1676400D02*
X5069840D01*
X5054600Y1661160D02*
Y1691640D01*
X4912360Y406400D02*
X4942840D01*
X4927600Y391160D02*
Y421640D01*
X4912360Y-101600D02*
X4942840D01*
X4927600Y-116840D02*
Y-86360D01*
X4785360Y2692400D02*
X4815840D01*
X4800600Y2677160D02*
Y2707640D01*
X4658360Y406400D02*
X4688840D01*
X4673600Y391160D02*
Y421640D01*
X4785360Y152400D02*
X4815840D01*
X4800600Y137160D02*
Y167640D01*
X4658360Y-101600D02*
X4688840D01*
X4673600Y-116840D02*
Y-86360D01*
X4531360Y152400D02*
X4561840D01*
X4546600Y137160D02*
Y167640D01*
X4404360Y-101600D02*
X4434840D01*
X4419600Y-116840D02*
Y-86360D01*
X4277360Y152400D02*
X4307840D01*
X4292600Y137160D02*
Y167640D01*
X4150360Y-101600D02*
X4180840D01*
X4165600Y-116840D02*
Y-86360D01*
X4023360Y152400D02*
X4053840D01*
X4038600Y137160D02*
Y167640D01*
X3896360Y-101600D02*
X3926840D01*
X3911600Y-116840D02*
Y-86360D01*
X3642360Y914400D02*
X3672840D01*
X3657600Y899160D02*
Y929640D01*
X3769360Y660400D02*
X3799840D01*
X3784600Y645160D02*
Y675640D01*
X3642360Y406400D02*
X3672840D01*
X3657600Y391160D02*
Y421640D01*
X3769360Y152400D02*
X3799840D01*
X3784600Y137160D02*
Y167640D01*
X3642360Y-101600D02*
X3672840D01*
X3657600Y-116840D02*
Y-86360D01*
X3515360Y2692400D02*
X3545840D01*
X3530600Y2677160D02*
Y2707640D01*
X3515360Y1676400D02*
X3545840D01*
X3530600Y1661160D02*
Y1691640D01*
X3388360Y914400D02*
X3418840D01*
X3403600Y899160D02*
Y929640D01*
X3515360Y660400D02*
X3545840D01*
X3530600Y645160D02*
Y675640D01*
X3388360Y406400D02*
X3418840D01*
X3403600Y391160D02*
Y421640D01*
X3515360Y152400D02*
X3545840D01*
X3530600Y137160D02*
Y167640D01*
X3261360Y2692400D02*
X3291840D01*
X3276600Y2677160D02*
Y2707640D01*
X3261360Y1676400D02*
X3291840D01*
X3276600Y1661160D02*
Y1691640D01*
X3134360Y1422400D02*
X3164840D01*
X3149600Y1407160D02*
Y1437640D01*
X3261360Y1168400D02*
X3291840D01*
X3276600Y1153160D02*
Y1183640D01*
X3134360Y914400D02*
X3164840D01*
X3149600Y899160D02*
Y929640D01*
X3261360Y660400D02*
X3291840D01*
X3276600Y645160D02*
Y675640D01*
X3134360Y406400D02*
X3164840D01*
X3149600Y391160D02*
Y421640D01*
X3261360Y152400D02*
X3291840D01*
X3276600Y137160D02*
Y167640D01*
X3007360Y2692400D02*
X3037840D01*
X3022600Y2677160D02*
Y2707640D01*
X2880360Y2438400D02*
X2910840D01*
X2895600Y2423160D02*
Y2453640D01*
X3007360Y2184400D02*
X3037840D01*
X3022600Y2169160D02*
Y2199640D01*
X3007360Y1676400D02*
X3037840D01*
X3022600Y1661160D02*
Y1691640D01*
X3007360Y1168400D02*
X3037840D01*
X3022600Y1153160D02*
Y1183640D01*
X3007360Y660400D02*
X3037840D01*
X3022600Y645160D02*
Y675640D01*
X2880360Y406400D02*
X2910840D01*
X2895600Y391160D02*
Y421640D01*
X3007360Y152400D02*
X3037840D01*
X3022600Y137160D02*
Y167640D01*
X2753360Y2692400D02*
X2783840D01*
X2768600Y2677160D02*
Y2707640D01*
X2626360Y2438400D02*
X2656840D01*
X2641600Y2423160D02*
Y2453640D01*
X2753360Y2184400D02*
X2783840D01*
X2768600Y2169160D02*
Y2199640D01*
X2753360Y660400D02*
X2783840D01*
X2768600Y645160D02*
Y675640D01*
X2626360Y406400D02*
X2656840D01*
X2641600Y391160D02*
Y421640D01*
X2753360Y152400D02*
X2783840D01*
X2768600Y137160D02*
Y167640D01*
X2626360Y-101600D02*
X2656840D01*
X2641600Y-116840D02*
Y-86360D01*
X2499360Y2692400D02*
X2529840D01*
X2514600Y2677160D02*
Y2707640D01*
X2499360Y2184400D02*
X2529840D01*
X2514600Y2169160D02*
Y2199640D01*
X2499360Y660400D02*
X2529840D01*
X2514600Y645160D02*
Y675640D01*
X2499360Y152400D02*
X2529840D01*
X2514600Y137160D02*
Y167640D01*
X2245360Y660400D02*
X2275840D01*
X2260600Y645160D02*
Y675640D01*
X848360Y-101600D02*
X878840D01*
X863600Y-116840D02*
Y-86360D01*
X721360Y2692400D02*
X751840D01*
X736600Y2677160D02*
Y2707640D01*
X594360Y2438400D02*
X624840D01*
X609600Y2423160D02*
Y2453640D01*
X721360Y2184400D02*
X751840D01*
X736600Y2169160D02*
Y2199640D01*
X594360Y1930400D02*
X624840D01*
X609600Y1915160D02*
Y1945640D01*
X594360Y914400D02*
X624840D01*
X609600Y899160D02*
Y929640D01*
X594360Y406400D02*
X624840D01*
X609600Y391160D02*
Y421640D01*
X721360Y152400D02*
X751840D01*
X736600Y137160D02*
Y167640D01*
X594360Y-101600D02*
X624840D01*
X609600Y-116840D02*
Y-86360D01*
X467360Y2692400D02*
X497840D01*
X482600Y2677160D02*
Y2707640D01*
X340360Y2438400D02*
X370840D01*
X355600Y2423160D02*
Y2453640D01*
X467360Y2184400D02*
X497840D01*
X482600Y2169160D02*
Y2199640D01*
X340360Y1930400D02*
X370840D01*
X355600Y1915160D02*
Y1945640D01*
X467360Y660400D02*
X497840D01*
X482600Y645160D02*
Y675640D01*
X340360Y406400D02*
X370840D01*
X355600Y391160D02*
Y421640D01*
X467360Y152400D02*
X497840D01*
X482600Y137160D02*
Y167640D01*
X340360Y-101600D02*
X370840D01*
X355600Y-116840D02*
Y-86360D01*
X213360Y2184400D02*
X243840D01*
X228600Y2169160D02*
Y2199640D01*
X86360Y1930400D02*
X116840D01*
X101600Y1915160D02*
Y1945640D01*
X213360Y660400D02*
X243840D01*
X228600Y645160D02*
Y675640D01*
X86360Y406400D02*
X116840D01*
X101600Y391160D02*
Y421640D01*
X-40640Y2184400D02*
X-10160D01*
X-25400Y2169160D02*
Y2199640D01*
X-167640Y1930400D02*
X-137160D01*
X-152400Y1915160D02*
Y1945640D01*
X-40640Y660400D02*
X-10160D01*
X-25400Y645160D02*
Y675640D01*
X-167640Y406400D02*
X-137160D01*
X-152400Y391160D02*
Y421640D01*
X6182360Y1473200D02*
X6212840D01*
X6197600Y1457960D02*
Y1488440D01*
X6195060Y1333500D02*
X6225540D01*
X6210300Y1318260D02*
Y1348740D01*
X6207760Y1219200D02*
X6238240D01*
X6223000Y1203960D02*
Y1234440D01*
X6207760Y1092200D02*
X6238240D01*
X6223000Y1076960D02*
Y1107440D01*
X5890260Y1435100D02*
X5920740D01*
X5905500Y1419860D02*
Y1450340D01*
X5966460Y1308100D02*
X5996940D01*
X5981700Y1292860D02*
Y1323340D01*
X5902960Y1117600D02*
X5933440D01*
X5918200Y1102360D02*
Y1132840D01*
X5864860Y1016000D02*
X5895340D01*
X5880100Y1000760D02*
Y1031240D01*
X5128260Y1270000D02*
X5158740D01*
X5143500Y1254760D02*
Y1285240D01*
X4163060Y2032000D02*
X4193540D01*
X4178300Y2016760D02*
Y2047240D01*
X8595360Y1790700D02*
X8625840D01*
X8610600Y1775460D02*
Y1805940D01*
X8722360Y1752600D02*
X8752840D01*
X8737600Y1737360D02*
Y1767840D01*
X8874760Y1752600D02*
X8905240D01*
X8890000Y1737360D02*
Y1767840D01*
X9103360Y1752600D02*
X9133840D01*
X9118600Y1737360D02*
Y1767840D01*
X9103360Y1892300D02*
X9133840D01*
X9118600Y1877060D02*
Y1907540D01*
X9103360Y2044700D02*
X9133840D01*
X9118600Y2029460D02*
Y2059940D01*
X9103360Y2184400D02*
X9133840D01*
X9118600Y2169160D02*
Y2199640D01*
X9103360Y2311400D02*
X9133840D01*
X9118600Y2296160D02*
Y2326640D01*
X8735060Y2286000D02*
X8765540D01*
X8750300Y2270760D02*
Y2301240D01*
X8735060Y2159000D02*
X8765540D01*
X8750300Y2143760D02*
Y2174240D01*
X8735060Y2006600D02*
X8765540D01*
X8750300Y1991360D02*
Y2021840D01*
X8849360Y2006600D02*
X8879840D01*
X8864600Y1991360D02*
Y2021840D01*
X8608060Y2006600D02*
X8638540D01*
X8623300Y1991360D02*
Y2021840D01*
X8849360Y2159000D02*
X8879840D01*
X8864600Y2143760D02*
Y2174240D01*
X8608060Y2159000D02*
X8638540D01*
X8623300Y2143760D02*
Y2174240D01*
X8849360Y2286000D02*
X8879840D01*
X8864600Y2270760D02*
Y2301240D01*
X8608060Y2286000D02*
X8638540D01*
X8623300Y2270760D02*
Y2301240D01*
X4937760Y1625600D02*
X4968240D01*
X4953000Y1610360D02*
Y1640840D01*
X5077460Y1752600D02*
X5107940D01*
X5092700Y1737360D02*
Y1767840D01*
X4353560Y1892300D02*
X4384040D01*
X4368800Y1877060D02*
Y1907540D01*
X4163060Y1892300D02*
X4193540D01*
X4178300Y1877060D02*
Y1907540D01*
X3972560Y2044700D02*
X4003040D01*
X3987800Y2029460D02*
Y2059940D01*
X3972560Y1892300D02*
X4003040D01*
X3987800Y1877060D02*
Y1907540D01*
X3972560Y1739900D02*
X4003040D01*
X3987800Y1724660D02*
Y1755140D01*
X4163060Y1739900D02*
X4193540D01*
X4178300Y1724660D02*
Y1755140D01*
X4353560Y1739900D02*
X4384040D01*
X4368800Y1724660D02*
Y1755140D01*
X4353560Y2044700D02*
X4384040D01*
X4368800Y2029460D02*
Y2059940D01*
X1140460Y-177800D02*
X1170940D01*
X1155700Y-193040D02*
Y-162560D01*
X1013460Y-177800D02*
X1043940D01*
X1028700Y-193040D02*
Y-162560D01*
X937260Y-114300D02*
X967740D01*
X952500Y-129540D02*
Y-99060D01*
X937260Y-38100D02*
X967740D01*
X952500Y-53340D02*
Y-22860D01*
X937260Y114300D02*
X967740D01*
X952500Y99060D02*
Y129540D01*
X937260Y203200D02*
X967740D01*
X952500Y187960D02*
Y218440D01*
X937260Y304800D02*
X967740D01*
X952500Y289560D02*
Y320040D01*
X937260Y457200D02*
X967740D01*
X952500Y441960D02*
Y472440D01*
X937260Y533400D02*
X967740D01*
X952500Y518160D02*
Y548640D01*
X835660Y533400D02*
X866140D01*
X850900Y518160D02*
Y548640D01*
X848360Y698500D02*
X878840D01*
X863600Y683260D02*
Y713740D01*
X848360Y800100D02*
X878840D01*
X863600Y784860D02*
Y815340D01*
X873760Y952500D02*
X904240D01*
X889000Y937260D02*
Y967740D01*
X988060Y977900D02*
X1018540D01*
X1003300Y962660D02*
Y993140D01*
X861060Y1752600D02*
X891540D01*
X876300Y1737360D02*
Y1767840D01*
X810260Y1905000D02*
X840740D01*
X825500Y1889760D02*
Y1920240D01*
X873760Y1968500D02*
X904240D01*
X889000Y1953260D02*
Y1983740D01*
X937260Y2044700D02*
X967740D01*
X952500Y2029460D02*
Y2059940D01*
X937260Y2222500D02*
X967740D01*
X952500Y2207260D02*
Y2237740D01*
X937260Y2311400D02*
X967740D01*
X952500Y2296160D02*
Y2326640D01*
X937260Y2413000D02*
X967740D01*
X952500Y2397760D02*
Y2428240D01*
X937260Y2578100D02*
X967740D01*
X952500Y2562860D02*
Y2593340D01*
X937260Y2667000D02*
X967740D01*
X952500Y2651760D02*
Y2682240D01*
X1013460Y2717800D02*
X1043940D01*
X1028700Y2702560D02*
Y2733040D01*
X1153160Y2717800D02*
X1183640D01*
X1168400Y2702560D02*
Y2733040D01*
X2080260Y2717800D02*
X2110740D01*
X2095500Y2702560D02*
Y2733040D01*
X2219960Y2717800D02*
X2250440D01*
X2235200Y2702560D02*
Y2733040D01*
X2308860Y2654300D02*
X2339340D01*
X2324100Y2639060D02*
Y2669540D01*
X2308860Y2565400D02*
X2339340D01*
X2324100Y2550160D02*
Y2580640D01*
X2308860Y2413000D02*
X2339340D01*
X2324100Y2397760D02*
Y2428240D01*
X2308860Y2336800D02*
X2339340D01*
X2324100Y2321560D02*
Y2352040D01*
X2308860Y2247900D02*
X2339340D01*
X2324100Y2232660D02*
Y2263140D01*
X2308860Y2082800D02*
X2339340D01*
X2324100Y2067560D02*
Y2098040D01*
X2308860Y2006600D02*
X2339340D01*
X2324100Y1991360D02*
Y2021840D01*
X2143760Y1943100D02*
X2174240D01*
X2159000Y1927860D02*
Y1958340D01*
X2004060Y1879600D02*
X2034540D01*
X2019300Y1864360D02*
Y1894840D01*
X2092960Y1866900D02*
X2123440D01*
X2108200Y1851660D02*
Y1882140D01*
X2004060Y1689100D02*
X2034540D01*
X2019300Y1673860D02*
Y1704340D01*
X2016760Y838200D02*
X2047240D01*
X2032000Y822960D02*
Y853440D01*
X2016760Y647700D02*
X2047240D01*
X2032000Y632460D02*
Y662940D01*
X2131060Y622300D02*
X2161540D01*
X2146300Y607060D02*
Y637540D01*
X2346960Y546100D02*
X2377440D01*
X2362200Y530860D02*
Y561340D01*
X2346960Y457200D02*
X2377440D01*
X2362200Y441960D02*
Y472440D01*
X2321560Y152400D02*
X2352040D01*
X2336800Y137160D02*
Y167640D01*
X2321560Y-63500D02*
X2352040D01*
X2336800Y-78740D02*
Y-48260D01*
X2308860Y-177800D02*
X2339340D01*
X2324100Y-193040D02*
Y-162560D01*
X2156460Y-165100D02*
X2186940D01*
X2171700Y-180340D02*
Y-149860D01*
X3832860Y558800D02*
X3863340D01*
X3848100Y543560D02*
Y574040D01*
X3756660Y558800D02*
X3787140D01*
X3771900Y543560D02*
Y574040D01*
X3833953Y487057D02*
X3864433D01*
X3849193Y471817D02*
Y502297D01*
X3757753Y487057D02*
X3788233D01*
X3772993Y471817D02*
Y502297D01*
X3832860Y419100D02*
X3863340D01*
X3848100Y403860D02*
Y434340D01*
X3756660Y419100D02*
X3787140D01*
X3771900Y403860D02*
Y434340D01*
X3756660Y342900D02*
X3787140D01*
X3771900Y327660D02*
Y358140D01*
X3832860Y342900D02*
X3863340D01*
X3848100Y327660D02*
Y358140D01*
X4290060Y342900D02*
X4320540D01*
X4305300Y327660D02*
Y358140D01*
X4213860Y342900D02*
X4244340D01*
X4229100Y327660D02*
Y358140D01*
X4137660Y342900D02*
X4168140D01*
X4152900Y327660D02*
Y358140D01*
X4061460Y342900D02*
X4091940D01*
X4076700Y327660D02*
Y358140D01*
X3985260Y342900D02*
X4015740D01*
X4000500Y327660D02*
Y358140D01*
X5204460Y546100D02*
X5234940D01*
X5219700Y530860D02*
Y561340D01*
X5306060Y546100D02*
X5336540D01*
X5321300Y530860D02*
Y561340D01*
X5814060Y571500D02*
X5844540D01*
X5829300Y556260D02*
Y586740D01*
X5648960Y292100D02*
X5679440D01*
X5664200Y276860D02*
Y307340D01*
X5712460Y203200D02*
X5742940D01*
X5727700Y187960D02*
Y218440D01*
X5877560Y203200D02*
X5908040D01*
X5892800Y187960D02*
Y218440D01*
X5928360Y292100D02*
X5958840D01*
X5943600Y276860D02*
Y307340D01*
X6398260Y1816100D02*
X6428740D01*
X6413500Y1800860D02*
Y1831340D01*
X6474460Y1651000D02*
X6504940D01*
X6489700Y1635760D02*
Y1666240D01*
X6626860Y1651000D02*
X6657340D01*
X6642100Y1635760D02*
Y1666240D01*
X8188960Y76200D02*
X8219440D01*
X8204200Y60960D02*
Y91440D01*
X8176260Y495300D02*
X8206740D01*
X8191500Y480060D02*
Y510540D01*
X8354060Y304800D02*
X8384540D01*
X8369300Y289560D02*
Y320040D01*
X8519160Y1536700D02*
X8549640D01*
X8534400Y1521460D02*
Y1551940D01*
X8544560Y1358900D02*
X8575040D01*
X8559800Y1343660D02*
Y1374140D01*
X8277860Y1320800D02*
X8308340D01*
X8293100Y1305560D02*
Y1336040D01*
X8265160Y1854200D02*
X8295640D01*
X8280400Y1838960D02*
Y1869440D01*
X8100060Y1587500D02*
X8130540D01*
X8115300Y1572260D02*
Y1602740D01*
X7960360Y1701800D02*
X7990840D01*
X7975600Y1686560D02*
Y1717040D01*
X4505960Y2057400D02*
X4536440D01*
X4521200Y2042160D02*
Y2072640D01*
X4594860Y2057400D02*
X4625340D01*
X4610100Y2042160D02*
Y2072640D01*
X4505960Y2133600D02*
X4536440D01*
X4521200Y2118360D02*
Y2148840D01*
X4594860Y2133600D02*
X4625340D01*
X4610100Y2118360D02*
Y2148840D01*
X4505960Y2209800D02*
X4536440D01*
X4521200Y2194560D02*
Y2225040D01*
X4594860Y2209800D02*
X4625340D01*
X4610100Y2194560D02*
Y2225040D01*
X4569460Y2387600D02*
X4599940D01*
X4584700Y2372360D02*
Y2402840D01*
X4569460Y2286000D02*
X4599940D01*
X4584700Y2270760D02*
Y2301240D01*
X4493260Y2387600D02*
X4523740D01*
X4508500Y2372360D02*
Y2402840D01*
X4493260Y2286000D02*
X4523740D01*
X4508500Y2270760D02*
Y2301240D01*
X4417060Y2387600D02*
X4447540D01*
X4432300Y2372360D02*
Y2402840D01*
X4417060Y2286000D02*
X4447540D01*
X4432300Y2270760D02*
Y2301240D01*
X4340860Y2387600D02*
X4371340D01*
X4356100Y2372360D02*
Y2402840D01*
X4340860Y2286000D02*
X4371340D01*
X4356100Y2270760D02*
Y2301240D01*
X4264660Y2387600D02*
X4295140D01*
X4279900Y2372360D02*
Y2402840D01*
X4264660Y2286000D02*
X4295140D01*
X4279900Y2270760D02*
Y2301240D01*
X4188460Y2387600D02*
X4218940D01*
X4203700Y2372360D02*
Y2402840D01*
X4188460Y2286000D02*
X4218940D01*
X4203700Y2270760D02*
Y2301240D01*
X4112260Y2387600D02*
X4142740D01*
X4127500Y2372360D02*
Y2402840D01*
X4112260Y2286000D02*
X4142740D01*
X4127500Y2270760D02*
Y2301240D01*
X4036060Y2387600D02*
X4066540D01*
X4051300Y2372360D02*
Y2402840D01*
X4036060Y2286000D02*
X4066540D01*
X4051300Y2270760D02*
Y2301240D01*
X3959860Y2387600D02*
X3990340D01*
X3975100Y2372360D02*
Y2402840D01*
X3959860Y2286000D02*
X3990340D01*
X3975100Y2270760D02*
Y2301240D01*
X3883660Y2387600D02*
X3914140D01*
X3898900Y2372360D02*
Y2402840D01*
X3883660Y2286000D02*
X3914140D01*
X3898900Y2270760D02*
Y2301240D01*
X3794760Y2387600D02*
X3825240D01*
X3810000Y2372360D02*
Y2402840D01*
X3693160Y2387600D02*
X3723640D01*
X3708400Y2372360D02*
Y2402840D01*
X3794760Y2311400D02*
X3825240D01*
X3810000Y2296160D02*
Y2326640D01*
X3693160Y2311400D02*
X3723640D01*
X3708400Y2296160D02*
Y2326640D01*
X3794760Y2235200D02*
X3825240D01*
X3810000Y2219960D02*
Y2250440D01*
X3693160Y2235200D02*
X3723640D01*
X3708400Y2219960D02*
Y2250440D01*
X3794760Y2159000D02*
X3825240D01*
X3810000Y2143760D02*
Y2174240D01*
X3693160Y2159000D02*
X3723640D01*
X3708400Y2143760D02*
Y2174240D01*
X3693160Y2082800D02*
X3723640D01*
X3708400Y2067560D02*
Y2098040D01*
X3794760Y2082800D02*
X3825240D01*
X3810000Y2067560D02*
Y2098040D01*
X6652260Y2286000D02*
X6682740D01*
X6667500Y2270760D02*
Y2301240D01*
X6652260Y2374900D02*
X6682740D01*
X6667500Y2359660D02*
Y2390140D01*
X6652260Y2463800D02*
X6682740D01*
X6667500Y2448560D02*
Y2479040D01*
X6652260Y2552700D02*
X6682740D01*
X6667500Y2537460D02*
Y2567940D01*
X6652260Y2641600D02*
X6682740D01*
X6667500Y2626360D02*
Y2656840D01*
X6576060Y2235200D02*
X6606540D01*
X6591300Y2219960D02*
Y2250440D01*
X6576060Y2324100D02*
X6606540D01*
X6591300Y2308860D02*
Y2339340D01*
X6576060Y2413000D02*
X6606540D01*
X6591300Y2397760D02*
Y2428240D01*
X6576060Y2501900D02*
X6606540D01*
X6591300Y2486660D02*
Y2517140D01*
X6576060Y2590800D02*
X6606540D01*
X6591300Y2575560D02*
Y2606040D01*
X6499860Y2273300D02*
X6530340D01*
X6515100Y2258060D02*
Y2288540D01*
X6499860Y2362200D02*
X6530340D01*
X6515100Y2346960D02*
Y2377440D01*
X6499860Y2451100D02*
X6530340D01*
X6515100Y2435860D02*
Y2466340D01*
X6499860Y2540000D02*
X6530340D01*
X6515100Y2524760D02*
Y2555240D01*
X6499860Y2628900D02*
X6530340D01*
X6515100Y2613660D02*
Y2644140D01*
X6423660Y2590800D02*
X6454140D01*
X6438900Y2575560D02*
Y2606040D01*
X6423660Y2501900D02*
X6454140D01*
X6438900Y2486660D02*
Y2517140D01*
X6423660Y2413000D02*
X6454140D01*
X6438900Y2397760D02*
Y2428240D01*
X6423660Y2324100D02*
X6454140D01*
X6438900Y2308860D02*
Y2339340D01*
X6423660Y2235200D02*
X6454140D01*
X6438900Y2219960D02*
Y2250440D01*
X6347460Y2286000D02*
X6377940D01*
X6362700Y2270760D02*
Y2301240D01*
X6347460Y2374900D02*
X6377940D01*
X6362700Y2359660D02*
Y2390140D01*
X6347460Y2463800D02*
X6377940D01*
X6362700Y2448560D02*
Y2479040D01*
X6347460Y2552700D02*
X6377940D01*
X6362700Y2537460D02*
Y2567940D01*
X6347460Y2641600D02*
X6377940D01*
X6362700Y2626360D02*
Y2656840D01*
X4841240Y1427480D02*
X4871720D01*
X4856480Y1412240D02*
Y1442720D01*
X4886960Y1516380D02*
X4917440D01*
X4902200Y1501140D02*
Y1531620D01*
X1842770Y1262380D02*
X1873250D01*
X1858010Y1247140D02*
Y1277620D01*
X1769110Y1262380D02*
X1799590D01*
X1784350Y1247140D02*
Y1277620D01*
X5660390Y551180D02*
X5690870D01*
X5675630Y535940D02*
Y566420D01*
X5586730Y551180D02*
X5617210D01*
X5601970Y535940D02*
Y566420D01*
X5181600Y1661160D02*
X5212080D01*
X5196840Y1645920D02*
Y1676400D01*
X4848860Y596900D02*
X4879340D01*
X4864100Y581660D02*
Y612140D01*
X5422900Y932180D02*
X5453380D01*
X5438140Y916940D02*
Y947420D01*
X5491480Y1008478D02*
X5521960D01*
X5506720Y993238D02*
Y1023718D01*
X6235700Y782690D02*
X6266180D01*
X6250940Y767450D02*
Y797930D01*
X5933440Y784860D02*
X5963920D01*
X5948680Y769620D02*
Y800100D01*
X5451131Y1540485D02*
X5481611D01*
X5466371Y1525245D02*
Y1555725D01*
X5217160Y1524000D02*
X5247640D01*
X5232400Y1508760D02*
Y1539240D01*
X6055360Y1145540D02*
X6085840D01*
X6070600Y1130300D02*
Y1160780D01*
X5013960Y1270000D02*
X5044440D01*
X5029200Y1254760D02*
Y1285240D01*
X4531360Y457200D02*
X4561840D01*
X4546600Y441960D02*
Y472440D01*
X4587760Y1193800D02*
X4618240D01*
X4603000Y1178560D02*
Y1209040D01*
X5595200Y1270000D02*
X5615200D01*
X5605200Y1260000D02*
Y1280000D01*
X5707200Y1270000D02*
X5727200D01*
X5717200Y1260000D02*
Y1280000D01*
X5459200Y1270000D02*
X5479200D01*
X5469200Y1260000D02*
Y1280000D01*
X5347200Y1270000D02*
X5367200D01*
X5357200Y1260000D02*
Y1280000D01*
X5595200Y1190000D02*
X5615200D01*
X5605200Y1180000D02*
Y1200000D01*
X5595200Y1350000D02*
X5615200D01*
X5605200Y1340000D02*
Y1360000D01*
X5459200Y1350000D02*
X5479200D01*
X5469200Y1340000D02*
Y1360000D01*
X5459200Y1190000D02*
X5479200D01*
X5469200Y1180000D02*
Y1200000D01*
%TF.MD5,088715ba38960db1dae42d27cbe34466*%
M02*
